<svg version="1.2" xmlns="http://www.w3.org/2000/svg" viewBox="0 0 1080 1080" width="1080" height="1080">
	<style>
		.s0 { fill: #f2c9cc } 
		.s1 { fill: #333333 } 
		.s2 { fill: #ffffff } 
		.s3 { fill: #f2cf63 } 
		.s4 { fill: #c6bcc6 } 
		.s5 { fill: #ccd7f2 } 
		.s6 { fill: #fc5e71 } 
		.s7 { fill: #f29c50 } 
		.s8 { fill: #f29199 } 
		.s9 { fill: #2b2b2b } 
	</style>
	<path id="&lt;Path&gt;" class="s0" d="m288.41 538.78c-28.23-1.53-57.33-7.73-79.63-25.12-29.55-23.05-42.53-63.86-36.01-100.77 6.52-36.91 30.73-69.38 61.85-90.26 11.58-7.76 24.1-14.08 35.5-22.12 10.13-7.15 19.32-15.63 29.72-22.39 9.55-6.21 20.03-10.9 30.82-14.52 44.93-15.05 95.95-10.88 137.83 11.27 9.2 4.86 18.01 10.58 25.58 17.73 21.44 20.25 31.21 50.79 30.66 80.28-0.27 14.62-2.88 29.2-7.68 43.01-19.2 55.17-71.97 93.14-127.77 110.42-32.53 10.07-66.86 14.32-100.87 12.47z"/>
	<path id="&lt;Path&gt;" class="s1" d="m399.3 378.34c0.24-3.56-9.49 2.84-27.99 2.35-18.51-0.5-31.55-1.7-32.03-0.51-0.48 1.19 1.41 9.73 1.41 9.73l48.87 4.08z"/>
	<path id="&lt;Path&gt;" class="s2" d="m338.54 330.83c0 0-7.93-9.2-15.05-6.94-7.11 2.27-8.75 17.84-1.36 21.24 7.38 3.4 16.69-2.27 16.69-2.27z"/>
	<path id="&lt;Compound Path&gt;" class="s1" d="m327.41 347.06q0 0 0 0-3.11 0-5.64-1.16c-4.29-1.97-5.53-7.24-5.27-11.51 0.29-4.65 2.48-9.95 6.74-11.3q1.25-0.4 2.61-0.4c6.71 0 13.07 7.28 13.34 7.59q0.19 0.23 0.2 0.53l0.28 12.04c0 0.3-0.15 0.58-0.41 0.74-0.23 0.14-5.78 3.47-11.85 3.47zm-1.56-22.68q-1.1 0.01-2.1 0.32c-2.97 0.95-5.26 4.98-5.56 9.79-0.22 3.71 0.78 8.25 4.29 9.87q2.19 1 4.93 1.01c4.69 0 9.18-2.25 10.55-2.99l-0.26-11.21c-1.09-1.19-6.52-6.79-11.85-6.79z"/>
	<path id="&lt;Path&gt;" class="s1" d="m328.9 282.05c-4.44 6.56-3.33 21.01-0.47 33.81 2.85 12.8 3.96-24.62 3.96-24.62l8.57-10.67z"/>
	<path id="&lt;Path&gt;" class="s2" d="m327.47 319.96c1.91-14.28-0.95-24.62 1.43-31.51 0 0 8.32-30.44 48.29-23.06q0.73 0.13 1.43 0.29c20.4 4.51 33.32 21.26 28.26 42.2l-4.35 18.01c2.94-1.65 6.36-2.71 9.64-1.67 8.24 2.63 10.15 20.68 1.58 24.62-5.84 2.69-12.7 0.49-16.48-1.18l-0.67 2.77-1.09 40.09c-33.94 11.49-52.65 0.33-52.65 0.33l1.44-21.25c-24.11-7.04-18.67-35.77-16.83-49.64z"/>
	<path id="&lt;Compound Path&gt;" class="s1" d="m366.33 396.57c-15.37 0-23.57-4.79-23.91-4.99-0.27-0.16-0.43-0.47-0.41-0.79l1.4-20.57c-22.78-7.18-19.09-33.7-17.1-48.01q0.17-1.24 0.32-2.36c0.92-6.91 0.72-12.82 0.54-18.03-0.19-5.58-0.34-9.98 0.93-13.65 0.05-0.19 7.13-24.78 37.2-24.78 3.8 0 7.85 0.39 12.04 1.17q0.75 0.13 1.46 0.29c11 2.43 19.92 8.36 25.12 16.69 4.81 7.7 6.12 16.88 3.78 26.54l-3.92 16.22c3.13-1.41 6.06-1.71 8.64-0.88 4.88 1.55 7.39 7.64 7.72 12.98 0.3 4.91-1.13 10.96-6.03 13.21q-2.91 1.33-6.48 1.34c-3.68 0-7.21-1.08-9.77-2.12l-0.42 1.71-1.08 40.01c-0.01 0.35-0.24 0.66-0.57 0.78-10.27 3.47-20.18 5.24-29.46 5.24zm-22.59-6.21c1.89 0.97 9.69 4.51 22.59 4.51 8.92 0 18.46-1.67 28.35-4.96l1.07-39.51q0-0.09 0.02-0.17l0.67-2.77c0.06-0.24 0.22-0.45 0.45-0.56 0.23-0.11 0.49-0.12 0.72-0.02 2.44 1.08 6.17 2.37 10.02 2.37q3.2 0 5.77-1.18c4.13-1.9 5.31-7.22 5.05-11.57-0.35-5.63-3.04-10.35-6.54-11.47-2.59-0.82-5.63-0.27-8.97 1.6-0.29 0.16-0.66 0.14-0.93-0.06-0.27-0.21-0.39-0.55-0.31-0.88l4.35-18.01c2.23-9.21 0.99-17.94-3.57-25.24-4.96-7.94-13.5-13.6-24.04-15.93q-0.69-0.15-1.4-0.29c-4.1-0.75-8.05-1.14-11.74-1.14-28.75 0-35.31 22.63-35.58 23.59-1.18 3.43-1.03 7.69-0.85 13.09 0.18 5.28 0.39 11.26-0.55 18.31q-0.16 1.13-0.33 2.38c-2.08 14.91-5.55 39.88 16.55 46.34 0.39 0.11 0.64 0.47 0.61 0.87z"/>
	<path id="&lt;Path&gt;" class="s1" d="m361.96 304.36c0.11 0.82 0.94 1.31 1.68 1.64 3.78 1.67 7.88 2.57 12 2.64 0.73 0.01 1.48-0.01 2.15-0.32 1.14-0.53 1.82-1.95 1.54-3.21-0.23-1.04-1.02-1.87-1.93-2.37-0.9-0.51-1.92-0.73-2.93-0.94-3.75-0.79-7.9-1.42-11.2 0.59-0.7 0.43-1.41 1.13-1.31 1.97z"/>
	<path id="&lt;Path&gt;" class="s1" d="m332.75 308.24c2.38-0.14 5.31-1.69 7.04-1.88 1.52-0.16 4.7 0.22 4.64-2.14-0.37-1.51-1.8-2.51-3.21-2.83-1.12-0.25-2.28-0.17-3.43-0.08-2.58 0.21-6.7 0.44-8.16 3.08-0.35 0.64-0.46 1.46-0.14 2.13 0.68 1.41 1.88 1.8 3.26 1.72z"/>
	<path id="&lt;Path&gt;" class="s1" d="m412.88 301.11c5.71-5.66 15.46-13.79 4.28-22.4-11.18-8.62-14.03 0.24-21.17-12.06-7.14-12.31-23.32-23.64-34.97-14.77-11.66 8.86-34.5-3.7-41.16 5.9-6.66 9.6-2.62 21.42 3.57 26.59 6.19 5.17 24.03 7.63 42.58 5.66 18.56-1.97 33.55 16 33.55 16z"/>
	<path id="&lt;Path&gt;" class="s1" d="m346.99 295.51c5.57 0 11.04-0.95 16.38-1.89 6.25-1.09 12.16-2.12 17.58-1.46l0.11-0.98c-5.55-0.67-11.53 0.37-17.85 1.47-7.63 1.34-15.52 2.71-23.52 1.24-14.51-2.66-22.2-15.22-21.97-22.88l-0.95-0.03c-0.24 8.01 7.72 21.12 22.75 23.88 2.51 0.46 5 0.65 7.47 0.65z"/>
	<path id="&lt;Path&gt;" class="s1" d="m344.3 368.65c6.81 2.48 21.51 1.49 28.11-0.66 0 0-19.32 10.24-28.56 9.75z"/>
	<path id="&lt;Path&gt;" class="s1" d="m408.41 323.37l6.61-30.74-33.2-3.44c0 0 11.79 8.61 11.79 23.06 0 5.59-0.36 9.91-0.8 13.09-0.39 2.88 2.66 4.98 5.22 3.61z"/>
	<path id="&lt;Path&gt;" class="s1" d="m398.42 340.36q-0.05 0-0.11-0.01c-0.47-0.06-0.79-0.49-0.73-0.95 0.05-0.35 1.2-8.43 7.17-9.13 5.87-0.69 9.1 4.62 9.23 4.84 0.24 0.41 0.11 0.93-0.29 1.17-0.41 0.24-0.93 0.1-1.17-0.3-0.11-0.19-2.81-4.58-7.57-4.03-4.66 0.55-5.68 7.6-5.69 7.67-0.05 0.43-0.42 0.74-0.84 0.74z"/>
	<path id="&lt;Path&gt;" class="s1" d="m404.85 337.8c-0.26 0-0.52-0.12-0.68-0.35l-3.18-4.36c-0.27-0.38-0.19-0.91 0.19-1.18 0.38-0.28 0.91-0.19 1.19 0.18l3.17 4.36c0.27 0.38 0.19 0.91-0.19 1.19q-0.23 0.16-0.5 0.16z"/>
	<path id="&lt;Path&gt;" class="s2" d="m350.88 322.11c0 0-3.08 7.89-3.2 9.24-0.12 1.34 3.2 4.28 3.2 4.28"/>
	<path id="&lt;Path&gt;" class="s1" d="m350.88 336.47q-0.31 0-0.56-0.21c-1.09-0.96-3.63-3.39-3.49-4.99 0.13-1.4 2.74-8.14 3.26-9.47 0.17-0.44 0.67-0.65 1.1-0.48 0.44 0.17 0.66 0.66 0.48 1.1-1.17 3-3.07 8.11-3.15 9-0.01 0.51 1.38 2.21 2.93 3.57 0.35 0.31 0.38 0.84 0.07 1.2-0.17 0.19-0.4 0.28-0.64 0.28z"/>
	<path id="&lt;Path&gt;" class="s1" d="m248.59 426.61l-0.05 0.3c-29.39 38.9-42.12 179.29-38.15 185.71h43.07l43.7 1c3.65-76.08 5.34-159.4 38.29-224.27-47.38 4.16-86.86 37.26-86.86 37.26z"/>
	<path id="&lt;Path&gt;" class="s3" d="m407.41 389.66c-1.21-0.3-2.44-0.61-3.61-0.88l-33.69 3.61-10.91-4.12-9.02 4.73-9.49-3.09q-2.82 0.12-5.62 0.37c-32.94 64.88-34.26 147.26-37.91 223.34l79.97-0.88c6.87-75.64 4.47-151.14 30.28-223.08z"/>
	<path id="&lt;Compound Path&gt;" class="s1" d="m297.16 614.47q-0.36-0.01-0.61-0.26-0.25-0.27-0.24-0.63 0.41-8.54 0.8-17.18c3.26-71.93 6.64-146.32 37.21-206.5 0.13-0.27 0.39-0.44 0.68-0.46 2.14-0.19 3.94-0.31 5.66-0.38q0.15-0.01 0.3 0.04l9.14 2.98 8.71-4.57c0.21-0.11 0.46-0.12 0.69-0.04l10.72 4.05 33.49-3.58q0.14-0.01 0.28 0.02 1.38 0.32 2.82 0.68l0.8 0.2q0.36 0.09 0.55 0.42 0.17 0.33 0.05 0.69c-19.43 54.15-22.92 111.62-26.29 167.19-1.11 18.23-2.26 37.09-3.94 55.68-0.04 0.43-0.4 0.76-0.84 0.77l-79.97 0.88q0 0-0.01 0zm38.46-223.38c-30.21 59.78-33.57 133.8-36.82 205.39q-0.36 8.18-0.75 16.28l78.3-0.86c1.65-18.32 2.78-36.89 3.87-54.87 3.36-55.38 6.84-112.65 26.07-166.77q-1.29-0.32-2.54-0.62l-33.55 3.59q-0.2 0.02-0.39-0.05l-10.55-3.99-8.69 4.56q-0.31 0.16-0.65 0.06l-9.34-3.05c-1.53 0.07-3.11 0.17-4.96 0.33z"/>
	<path id="&lt;Path&gt;" class="s1" d="m339.45 613.67c0.02 0 1.48 0.26 2.61 0 0.19-0.04 0.76-75.64 0.74-75.84-1.75-16.13 5.98-94.08 9.29-127.37 0.86-8.68 1.48-14.94 1.61-16.8 0.01-0.19-0.14-0.36-0.33-0.38-0.2-0.02-0.37 0.14-0.38 0.33-0.13 1.85-0.75 8.11-1.61 16.78-3.59 36.13-11.04 111.32-9.29 127.52 0.02 0.18-0.55 74.72-2.64 75.76z"/>
	<path id="&lt;Compound Path&gt;" class="s1" d="m340.89 614.21c-0.64 0-1.2-0.08-1.49-0.12h-1.8l1.61-0.77c1.79-2.99 2.53-71.9 2.46-75.4-1.76-16.21 5.7-91.43 9.29-127.57 0.82-8.33 1.48-14.91 1.61-16.77 0.02-0.4 0.36-0.72 0.76-0.72q0.4 0.03 0.6 0.27 0.21 0.24 0.19 0.56c-0.13 1.88-0.78 8.47-1.61 16.81-3.31 33.32-11.03 111.21-9.29 127.28 0.02 0.16-0.14 21.48-0.28 38.03-0.09 9.47-0.17 18.93-0.25 26.02-0.14 12.16-0.14 12.16-0.53 12.25q-0.55 0.13-1.27 0.13zm-0.81-0.89c0.46 0.04 1.11 0.06 1.58-0.01 0.13-3 0.35-27.36 0.51-47.61-0.05 3.22-0.11 6.52-0.18 9.77-0.62 28.79-1.37 35.96-1.91 37.85z"/>
	<path id="&lt;Path&gt;" class="s1" d="m353.76 419.25c0-1.48 1.21-2.69 2.69-2.69 1.49 0.01 2.69 1.21 2.69 2.7 0 1.48-1.21 2.68-2.69 2.68-1.49 0-2.69-1.2-2.69-2.69z"/>
	<path id="&lt;Path&gt;" class="s1" d="m357.4 420.6q0.09 0 0.17-0.07c0.09-0.09 0.09-0.24 0-0.34l-1.96-1.96c-0.09-0.09-0.24-0.09-0.33 0-0.1 0.1-0.1 0.25 0 0.34l1.95 1.96q0.07 0.07 0.17 0.07z"/>
	<path id="&lt;Path&gt;" class="s1" d="m355.44 420.6q-0.09 0-0.17-0.07c-0.09-0.1-0.09-0.25 0-0.34l1.96-1.95c0.1-0.1 0.25-0.1 0.34 0 0.09 0.09 0.09 0.24 0 0.33l-1.96 1.96q-0.07 0.07-0.17 0.07z"/>
	<path id="&lt;Path&gt;" class="s1" d="m356.31 402.28c0-1.49 1.21-2.69 2.69-2.69 1.49 0 2.69 1.21 2.69 2.69 0 1.49-1.21 2.69-2.69 2.69-1.49 0-2.69-1.21-2.69-2.69z"/>
	<path id="&lt;Path&gt;" class="s1" d="m359.95 403.62q0.09 0 0.16-0.07c0.1-0.09 0.1-0.24 0-0.33l-1.95-1.96c-0.09-0.09-0.24-0.09-0.34 0-0.09 0.09-0.09 0.24 0 0.33l1.96 1.96q0.07 0.07 0.17 0.07z"/>
	<path id="&lt;Path&gt;" class="s1" d="m357.99 403.62q-0.1 0-0.17-0.07c-0.09-0.09-0.09-0.24 0-0.33l1.96-1.96c0.09-0.09 0.24-0.09 0.34 0 0.09 0.09 0.09 0.24 0 0.34l-1.96 1.95q-0.08 0.07-0.17 0.07z"/>
	<path id="&lt;Path&gt;" class="s1" d="m352.16 444.87c0-1.48 1.2-2.69 2.69-2.69 1.48 0.01 2.68 1.21 2.68 2.7 0 1.48-1.2 2.68-2.69 2.68-1.48 0-2.69-1.2-2.68-2.69z"/>
	<path id="&lt;Path&gt;" class="s1" d="m355.79 446.22q0.1 0 0.17-0.07c0.09-0.09 0.09-0.24 0-0.34l-1.95-1.96c-0.1-0.09-0.25-0.09-0.34 0-0.09 0.1-0.09 0.25 0 0.34l1.95 1.96q0.08 0.07 0.17 0.07z"/>
	<path id="&lt;Path&gt;" class="s1" d="m353.84 446.22q-0.1 0-0.17-0.07c-0.09-0.1-0.09-0.25 0-0.34l1.96-1.95c0.09-0.1 0.24-0.1 0.33 0 0.1 0.09 0.09 0.24 0 0.33l-1.96 1.96q-0.07 0.07-0.16 0.07z"/>
	<path id="&lt;Path&gt;" class="s1" d="m348.96 474.6c0.01-1.48 1.21-2.69 2.7-2.68 1.48 0 2.68 1.2 2.68 2.69 0 1.48-1.21 2.68-2.69 2.68-1.49 0-2.69-1.2-2.69-2.69z"/>
	<path id="&lt;Path&gt;" class="s1" d="m352.6 475.95q0.1 0 0.17-0.07c0.09-0.09 0.09-0.24 0-0.34l-1.96-1.95c-0.09-0.1-0.24-0.1-0.33 0-0.1 0.09-0.1 0.24 0 0.33l1.95 1.96q0.08 0.07 0.17 0.07z"/>
	<path id="&lt;Path&gt;" class="s1" d="m350.64 475.95q-0.09 0-0.16-0.07c-0.1-0.09-0.1-0.24 0-0.34l1.95-1.95c0.1-0.1 0.25-0.1 0.34 0 0.09 0.09 0.09 0.24 0 0.33l-1.96 1.96q-0.07 0.07-0.17 0.07z"/>
	<path id="&lt;Path&gt;" class="s1" d="m347.61 499.91c0-1.48 1.2-2.68 2.69-2.68 1.48 0 2.68 1.2 2.68 2.69 0 1.48-1.2 2.69-2.69 2.68-1.48 0-2.69-1.2-2.68-2.69z"/>
	<path id="&lt;Path&gt;" class="s1" d="m351.24 501.26q0.1 0 0.17-0.07c0.09-0.09 0.09-0.24 0-0.33l-1.95-1.96c-0.1-0.1-0.25-0.1-0.34 0-0.09 0.09-0.09 0.24 0 0.33l1.95 1.96q0.08 0.07 0.17 0.07z"/>
	<path id="&lt;Path&gt;" class="s1" d="m349.29 501.26q-0.1 0-0.17-0.07c-0.1-0.09-0.1-0.24 0-0.34l1.96-1.95c0.09-0.09 0.24-0.09 0.33 0 0.09 0.09 0.09 0.24 0 0.33l-1.96 1.96q-0.07 0.07-0.16 0.07z"/>
	<path id="&lt;Path&gt;" class="s1" d="m346.19 522.26c0-1.48 1.21-2.68 2.69-2.68 1.49 0 2.69 1.2 2.69 2.69 0 1.48-1.21 2.69-2.69 2.69-1.49-0.01-2.69-1.21-2.69-2.7z"/>
	<path id="&lt;Path&gt;" class="s1" d="m349.83 523.61q0.09 0 0.17-0.07c0.09-0.09 0.09-0.24 0-0.33l-1.96-1.96c-0.09-0.09-0.24-0.1-0.33 0-0.1 0.09-0.1 0.24-0.01 0.33l1.96 1.96q0.07 0.07 0.17 0.07z"/>
	<path id="&lt;Path&gt;" class="s1" d="m347.87 523.61q-0.09 0-0.17-0.07c-0.09-0.09-0.09-0.24 0-0.34l1.96-1.95c0.1-0.09 0.25-0.09 0.34 0 0.09 0.09 0.09 0.24 0 0.34l-1.96 1.95q-0.07 0.07-0.17 0.07z"/>
	<path id="&lt;Path&gt;" class="s1" d="m346.47 547.73c0.01-1.49 1.21-2.69 2.7-2.69 1.48 0 2.68 1.21 2.68 2.69 0 1.49-1.2 2.69-2.69 2.69-1.48 0-2.69-1.21-2.69-2.69z"/>
	<path id="&lt;Path&gt;" class="s1" d="m350.11 549.07q0.1 0 0.17-0.06c0.09-0.1 0.09-0.25 0-0.34l-1.96-1.96c-0.09-0.09-0.24-0.09-0.33 0-0.09 0.09-0.09 0.24 0 0.34l1.95 1.96q0.08 0.06 0.17 0.06z"/>
	<path id="&lt;Path&gt;" class="s1" d="m348.15 549.07q-0.09 0-0.16-0.07c-0.1-0.09-0.1-0.24 0-0.33l1.96-1.96c0.09-0.09 0.24-0.09 0.33 0 0.09 0.1 0.09 0.25 0 0.34l-1.96 1.95q-0.07 0.07-0.17 0.07z"/>
	<path id="&lt;Path&gt;" class="s1" d="m347.17 574.64c0-1.49 1.2-2.69 2.69-2.69 1.48 0 2.69 1.21 2.69 2.69-0.01 1.49-1.21 2.69-2.7 2.69-1.48 0-2.68-1.21-2.68-2.69z"/>
	<path id="&lt;Path&gt;" class="s1" d="m350.8 575.98q0.1 0.01 0.17-0.06c0.09-0.1 0.09-0.25 0-0.34l-1.95-1.96c-0.1-0.09-0.25-0.09-0.34 0-0.09 0.09-0.09 0.24 0 0.34l1.96 1.96q0.07 0.06 0.16 0.06z"/>
	<path id="&lt;Path&gt;" class="s1" d="m348.85 575.98q-0.1 0-0.17-0.07c-0.09-0.09-0.09-0.24 0-0.33l1.96-1.96c0.09-0.09 0.24-0.09 0.33 0 0.1 0.1 0.1 0.25 0 0.34l-1.96 1.95q-0.07 0.07-0.16 0.07z"/>
	<path id="&lt;Path&gt;" class="s1" d="m495.97 426.99c-16.4-13.09-59.14-30.81-88.95-38.17-25.8 71.93-23.02 148.28-29.89 223.92l87.14-0.96 33.22 0.28c16.51 0.14 30.12-13.06 30.33-29.57 0.72-57.18-14.16-144.02-31.85-155.5z"/>
	<path id="&lt;Path&gt;" class="s1" d="m346.1 594.82c0.01-1.49 1.21-2.69 2.7-2.69 1.48 0 2.68 1.21 2.68 2.69 0 1.49-1.2 2.69-2.69 2.69-1.48 0-2.69-1.21-2.69-2.69z"/>
	<path id="&lt;Path&gt;" class="s1" d="m349.74 596.16q0.1 0 0.17-0.07c0.09-0.09 0.09-0.24 0-0.33l-1.96-1.96c-0.09-0.09-0.24-0.09-0.33 0-0.1 0.09-0.1 0.24 0 0.34l1.95 1.95q0.08 0.07 0.17 0.07z"/>
	<path id="&lt;Path&gt;" class="s1" d="m347.78 596.16q-0.09 0-0.16-0.07c-0.1-0.09-0.1-0.24 0-0.33l1.96-1.96c0.09-0.09 0.24-0.09 0.33 0 0.09 0.09 0.09 0.24 0 0.34l-1.96 1.95q-0.07 0.07-0.17 0.07z"/>
	<path id="&lt;Path&gt;" class="s3" d="m359.2 388.27c13.91 1.54 35.59-4.95 40.1-9.93l4.5 10.44c0 0-17.35 32.25-20.91 31.77-3.56-0.47-17.05-29.43-23.45-30.86-6.41-1.43-20.9 22.99-22.56 23.46-1.67 0.48 0.98-32.26 2.4-32.97 1.42-0.71-1.67 5.69 19.92 8.09z"/>
	<path id="&lt;Compound Path&gt;" class="s1" d="m382.97 421.41c-0.03 0-0.15-0.01-0.19-0.01-1.77-0.24-4.13-3.83-9.48-12.56-4.55-7.43-10.78-17.59-14.05-18.32q-0.18-0.04-0.38-0.04c-4.19 0-12.52 11.53-16.99 17.73-3.29 4.56-4.06 5.56-4.77 5.76-0.45 0.13-1.11 0.03-1.38-1.09-0.54-2.3-0.07-11.01 0.5-17.77 1.26-14.98 2.21-15.46 2.67-15.69q0.29-0.14 0.57-0.14c0.73 0 1.01 0.62 1.19 1.03 0.6 1.31 2.4 5.31 18.63 7.11q2.05 0.23 4.39 0.23c13.41 0 31.08-5.57 34.99-9.88 0.2-0.21 0.49-0.31 0.77-0.27 0.29 0.05 0.53 0.24 0.64 0.51l4.5 10.44c0.1 0.24 0.09 0.51-0.03 0.74-0.04 0.08-4.34 8.05-9.03 15.92-9.73 16.3-11.63 16.3-12.55 16.3zm-22.32-32.16c3.56 1.83 8.15 9 14.1 18.7 3.11 5.08 6.97 11.39 8.23 11.76 2.25-0.46 11.81-16.01 19.88-30.97l-3.86-8.96c-5.45 4.43-22.02 9.57-35.32 9.57q-1.57 0-3.03-0.1zm-21.11-7.4c-1.15 5.11-2.66 24.77-2.29 29.75 0.8-0.98 2.04-2.7 3.25-4.38 6.21-8.59 12.6-17 17.22-18.27-13.68-1.71-17.04-5.13-18.18-7.1z"/>
	<path id="&lt;Path&gt;" class="s1" d="m337.38 404.87c0.24-1.47 1.27-2.52 2.3-2.35 1.04 0.16 1.69 1.49 1.45 2.95-0.24 1.47-1.27 2.52-2.3 2.35-1.04-0.16-1.68-1.49-1.45-2.95z"/>
	<path id="&lt;Path&gt;" class="s1" d="m380.69 411.38c0-1.49 1.2-2.69 2.69-2.69 1.48 0 2.69 1.21 2.68 2.69 0 1.49-1.2 2.69-2.69 2.69-1.48 0-2.68-1.21-2.68-2.69z"/>
	<path id="&lt;Path&gt;" class="s1" d="m384.32 412.73q0.1 0 0.17-0.07c0.09-0.1 0.09-0.25 0-0.34l-1.95-1.96c-0.1-0.09-0.25-0.09-0.34 0-0.09 0.09-0.09 0.24 0 0.34l1.96 1.96q0.07 0.07 0.16 0.07z"/>
	<path id="&lt;Path&gt;" class="s1" d="m382.37 412.72q-0.1 0-0.17-0.07c-0.09-0.09-0.09-0.24 0-0.33l1.96-1.96c0.09-0.09 0.24-0.09 0.33 0 0.1 0.1 0.1 0.25 0 0.34l-1.96 1.96q-0.07 0.06-0.16 0.06z"/>
	<path id="&lt;Path&gt;" class="s2" d="m343.05 346.86c0 0 11.27 7.37 20.96-0.58"/>
	<path id="&lt;Path&gt;" class="s1" d="m353.84 350.8c-6.21 0-11.18-3.18-11.25-3.23-0.39-0.25-0.5-0.78-0.25-1.17 0.26-0.39 0.78-0.5 1.18-0.25 0.44 0.29 10.87 6.93 19.95-0.52 0.36-0.3 0.9-0.24 1.19 0.12 0.3 0.36 0.25 0.89-0.12 1.19-3.54 2.91-7.31 3.86-10.7 3.86z"/>
	<path id="&lt;Path&gt;" class="s2" d="m362.88 344.19l2.54 3.76"/>
	<path id="&lt;Path&gt;" class="s1" d="m365.42 348.8c-0.27 0-0.54-0.13-0.71-0.38l-2.53-3.76c-0.26-0.39-0.16-0.91 0.23-1.18 0.39-0.26 0.92-0.16 1.18 0.23l2.53 3.76c0.26 0.39 0.16 0.92-0.23 1.18q-0.22 0.15-0.47 0.15z"/>
	<path id="&lt;Path&gt;" class="s2" d="m348.11 355.53c0 0-2.02 4.92 2.02 7.81"/>
	<path id="&lt;Path&gt;" class="s1" d="m350.13 364.19q-0.26 0-0.49-0.16c-3.63-2.6-3.1-6.91-2.31-8.82 0.17-0.43 0.67-0.64 1.1-0.46 0.44 0.18 0.64 0.67 0.47 1.11-0.08 0.18-1.71 4.33 1.73 6.79 0.38 0.27 0.47 0.8 0.19 1.18-0.16 0.23-0.42 0.36-0.69 0.36z"/>
	<path id="&lt;Compound Path&gt;" class="s1" d="m368.63 335.14c-6.6 0-11.98-5.83-11.98-12.99 0-7.16 5.38-12.99 11.98-12.99 6.6 0 11.98 5.83 11.98 12.99 0 7.16-5.38 12.99-11.98 12.99zm0-24.28c-5.67 0-10.28 5.07-10.28 11.29 0 6.23 4.61 11.29 10.28 11.29 5.67 0 10.28-5.06 10.28-11.29 0-6.22-4.61-11.29-10.28-11.29z"/>
	<path id="&lt;Compound Path&gt;" class="s1" d="m335.68 335.14c-6.6 0-11.97-5.83-11.97-12.99 0-7.16 5.37-12.99 11.97-12.99 6.61 0 11.98 5.83 11.98 12.99 0 7.16-5.37 12.99-11.98 12.99zm0-24.28c-5.67 0-10.28 5.07-10.28 11.29 0 6.23 4.61 11.29 10.28 11.29 5.67 0 10.28-5.06 10.28-11.29 0-6.22-4.61-11.29-10.28-11.29z"/>
	<path id="&lt;Path&gt;" class="s1" d="m357.5 323.72c-0.24 0-0.48-0.1-0.65-0.31-0.02-0.02-2.3-2.72-5.13-2.77-1.55-0.03-2.99 0.75-4.35 2.29-0.31 0.35-0.84 0.39-1.19 0.07-0.36-0.31-0.39-0.57-0.08-0.92 1.67-1.89 3.54-2.58 5.55-2.58q0.05 0 0.1 0c3.63 0 6.3 2.97 6.41 3.11 0.3 0.36 0.24 0.76-0.12 1.05-0.15 0.14-0.35 0.06-0.54 0.06z"/>
	<path id="&lt;Path&gt;" class="s1" d="m395.77 326.5h-16.13c-0.47 0-0.85-0.53-0.85-1 0-0.47 0.38-1 0.85-1h16.13c0.47 0 0.85 0.53 0.85 1 0 0.47-0.38 1-0.85 1z"/>
	<path id="&lt;Path&gt;" class="s2" d="m385.44 269.63c-6.86 1.05-13.38-2.7-18.32 3.96-2.32 3.13-4.09 6.56-8.26 7.38-2.05 0.4-4.2 0.08-6.19-0.6-3.83-1.31-11.37-5.18-8.34-10.47 0.97-1.7 2.98-2.49 4.89-2.89 4.13-0.86 8.36-0.44 12.54-0.4 3.29 0.03 7.54 0.58 10.24-1.75 2.93-2.53 2.97-8.89 7.94-8.6 3.54 0.2 7.01 3.75 8.45 6.77 0.95 2.01 0.82 4.83-1.08 6-0.56 0.34-1.22 0.5-1.87 0.6z"/>
	<path id="&lt;Compound Path&gt;" class="s1" d="m357 281.57q-2.12 0-4.46-0.8c-1.24-0.42-7.51-2.74-9.01-6.73q-0.81-2.16 0.44-4.35 1.31-2.29 5.16-3.1c1.81-0.37 3.74-0.54 6.26-0.54q1.74 0.01 3.49 0.07 1.44 0.05 2.88 0.07 0.73 0.01 1.51 0.03 0.97 0.04 1.98 0.04c2.21 0 4.71-0.2 6.48-1.73 1.01-0.87 1.68-2.29 2.34-3.68 1.21-2.56 2.46-5.21 5.9-5.01 3.65 0.21 7.26 3.77 8.8 7.01 1.05 2.2 0.87 5.25-1.24 6.54-0.68 0.42-1.44 0.57-2.02 0.66q-1.34 0.21-2.93 0.21c-1.22 0-2.42-0.09-3.58-0.17-1.14-0.08-2.21-0.16-3.26-0.16-2.79 0-5.73 0.47-8.28 3.92q-0.52 0.71-1.02 1.42c-1.87 2.65-3.8 5.39-7.49 6.12q-0.94 0.18-1.95 0.18zm-1.61-14.67c-2.46 0-4.33 0.16-6.08 0.52q-3.48 0.73-4.61 2.69-1.05 1.84-0.38 3.63c1.06 2.82 5.24 5.12 8.49 6.23 2.15 0.73 4.19 0.93 5.97 0.58 3.37-0.66 5.11-3.14 6.96-5.77q0.51-0.72 1.04-1.44c2.78-3.75 6.09-4.26 8.96-4.26 1.08 0 2.17 0.08 3.32 0.16 1.14 0.08 2.33 0.17 3.52 0.17q1.53 0 2.8-0.2c0.75-0.11 1.28-0.28 1.71-0.54 1.67-1.03 1.78-3.63 0.91-5.46-1.45-3.06-4.87-6.34-8.08-6.53-2.85-0.16-3.94 2.12-5.08 4.54-0.7 1.46-1.41 2.97-2.56 3.96-1.98 1.7-4.67 1.93-7.03 1.93q-1.02 0-2-0.04-0.77-0.02-1.49-0.03-1.45-0.02-2.91-0.07-1.73-0.06-3.46-0.07z"/>
	<path id="&lt;Path&gt;" class="s2" d="m383.19 523.98q-0.19 0.01-0.37-0.08c-0.42-0.2-0.6-0.71-0.4-1.13l27.24-56.8-5.23-20.07q-0.07-0.3 0.06-0.58l24.19-49.87c0.21-0.42 0.71-0.6 1.14-0.39 0.42 0.2 0.59 0.71 0.39 1.13l-24.05 49.59 5.22 20.06q0.08 0.3-0.05 0.58l-27.38 57.08c-0.14 0.31-0.45 0.48-0.76 0.48z"/>
	<path id="&lt;Path&gt;" class="s2" d="m302.77 514.01c-0.42 0-0.78-0.3-0.84-0.72l-8.06-53.47q-0.05-0.34 0.14-0.62l12.62-17.67 8.03-48.61c0.08-0.46 0.52-0.77 0.98-0.69 0.46 0.07 0.77 0.51 0.7 0.97l-8.07 48.81q-0.03 0.19-0.14 0.35l-12.53 17.54 8.01 53.14c0.07 0.46-0.25 0.89-0.72 0.96q-0.06 0.01-0.12 0.01z"/>
	<path id="&lt;Path&gt;" class="s2" d="m399.36 558.5c0 0 6.59 4.94 8.78 11.81l-1.1 40.91-64.25-1.37-24.16-11.53 15.37-34.6z"/>
	<path id="&lt;Compound Path&gt;" class="s1" d="m407.04 612.07q-0.01 0-0.01 0l-64.26-1.37q-0.18-0.01-0.35-0.09l-24.16-11.53c-0.41-0.2-0.6-0.69-0.41-1.11l15.38-34.6c0.12-0.28 0.4-0.47 0.71-0.5l65.35-5.22q0.32-0.02 0.57 0.17c0.28 0.21 6.84 5.19 9.09 12.23q0.04 0.14 0.04 0.28l-1.1 40.91c-0.01 0.47-0.39 0.83-0.85 0.83zm-64.05-3.07l63.23 1.36 1.07-39.93c-1.89-5.71-7.01-10.1-8.2-11.06l-64.52 5.15-14.83 33.39z"/>
	<path id="&lt;Path&gt;" class="s2" d="m330.82 551.67l-11.02 25.4c-1.96 4.54 0.83 8.95 6.24 9.86 4.49 0.76 9.34-1.15 11.99-4.41-0.53 3.79 2.15 7.13 6.78 7.91 3.54 0.6 7.3-0.47 10.05-2.54 0.51 2.88 2.96 5.23 6.72 5.86 4.55 0.77 9.48-1.2 12.11-4.54 0.42 2.62 2.63 4.76 6.04 5.33 4.85 0.82 10.21-1.81 11.98-5.87l9.88-22.77c0.46-1.06 0.63-2.11 0.54-3.09-0.24-2.82-2.54-5.14-6.13-5.75-3.39-0.57-7.01 0.56-9.49 2.67 0.05-0.46 0.1-0.93 0.06-1.38-0.27-3.14-2.84-5.73-6.85-6.41-3.55-0.6-7.33 0.48-10.07 2.56-0.51-2.88-2.93-5.24-6.7-5.88-4.49-0.76-9.33 1.15-11.99 4.41q0.12-0.77 0.07-1.5c-0.27-3.13-2.84-5.73-6.85-6.41-5.41-0.91-11.39 2.02-13.36 6.55z"/>
	<path id="&lt;Compound Path&gt;" class="s1" d="m381.54 595.54q-0.99 0-1.95-0.16c-3.01-0.51-5.3-2.17-6.29-4.48-2.48 2.38-6.13 3.87-9.72 3.87q-1.09 0-2.14-0.18c-3.48-0.59-6.09-2.58-7.09-5.33-2.87 1.78-6.48 2.54-9.68 2.01-4.09-0.69-6.94-3.36-7.46-6.69-2.46 2.11-5.8 3.37-9.17 3.37q-1.09 0-2.14-0.18c-3.03-0.51-5.48-2.11-6.71-4.38-1.1-2.01-1.15-4.38-0.17-6.65l11.03-25.41c1.81-4.18 6.91-7.22 12.11-7.22q1.1 0 2.16 0.18c4.08 0.69 6.96 3.27 7.49 6.66 2.45-2.1 5.78-3.34 9.14-3.34q1.09 0 2.14 0.17c3.47 0.59 6.07 2.59 7.07 5.34 2.87-1.79 6.49-2.56 9.7-2.01 4.18 0.7 7.11 3.41 7.53 6.93 2.58-1.61 5.82-2.31 8.75-1.82 3.87 0.66 6.56 3.21 6.84 6.52q0.15 1.75-0.61 3.49l-9.88 22.78c-1.65 3.78-6.25 6.53-10.95 6.53zm-7.85-7.18q0.11 0 0.21 0.03c0.33 0.08 0.57 0.35 0.63 0.68 0.38 2.37 2.43 4.14 5.34 4.63q0.82 0.14 1.67 0.14c4.06 0 8-2.31 9.39-5.51l9.88-22.77q0.59-1.36 0.48-2.68c-0.22-2.51-2.35-4.46-5.43-4.98q-0.81-0.14-1.65-0.14c-2.58 0-5.19 0.96-7.15 2.62-0.27 0.23-0.65 0.26-0.96 0.1-0.31-0.17-0.48-0.51-0.44-0.85 0.05-0.4 0.09-0.82 0.06-1.2-0.24-2.84-2.65-5.06-6.14-5.65-3.16-0.54-6.78 0.39-9.42 2.4-0.24 0.18-0.55 0.22-0.82 0.11-0.28-0.11-0.48-0.35-0.53-0.64-0.46-2.66-2.76-4.64-6-5.19q-0.91-0.16-1.86-0.16c-3.56 0-7.22 1.68-9.33 4.26-0.24 0.3-0.65 0.4-1 0.24-0.35-0.15-0.55-0.52-0.5-0.89q0.11-0.77 0.06-1.3c-0.24-2.84-2.65-5.06-6.14-5.65q-0.92-0.15-1.88-0.15c-4.55 0-9 2.61-10.56 6.2l-11.02 25.4c-0.78 1.79-0.74 3.63 0.1 5.17 0.98 1.81 2.99 3.09 5.5 3.51q0.91 0.16 1.86 0.16c3.56 0 7.22-1.67 9.34-4.26 0.24-0.3 0.64-0.4 1-0.25 0.34 0.16 0.55 0.52 0.5 0.9-0.49 3.41 2.01 6.27 6.07 6.95 3.15 0.54 6.75-0.39 9.4-2.38 0.23-0.18 0.54-0.22 0.82-0.11 0.27 0.11 0.47 0.35 0.52 0.64 0.47 2.64 2.78 4.63 6.03 5.17q0.91 0.16 1.86 0.16c3.64 0 7.34-1.72 9.44-4.39 0.17-0.2 0.41-0.32 0.67-0.32z"/>
	<path id="&lt;Path&gt;" class="s1" d="m338.35 582.68c-0.1 0.12-0.28 0.19-0.45 0.16-0.21-0.04-0.32-0.21-0.24-0.38l12.92-29.5c0.08-0.17 0.31-0.28 0.52-0.25 0.21 0.04 0.31 0.21 0.24 0.38l-12.93 29.5q-0.02 0.05-0.06 0.09z"/>
	<path id="&lt;Path&gt;" class="s1" d="m355.18 588.05c-0.1 0.11-0.28 0.18-0.44 0.16-0.22-0.03-0.33-0.2-0.26-0.37l7.06-18.23c0.06-0.18 0.3-0.29 0.51-0.26 0.21 0.02 0.32 0.19 0.26 0.37l-7.07 18.22q-0.02 0.06-0.06 0.11z"/>
	<path id="&lt;Path&gt;" class="s1" d="m377.38 582.14c-0.1 0.12-0.27 0.19-0.44 0.17-0.21-0.03-0.33-0.19-0.27-0.37l7.74-20.7c0.06-0.18 0.29-0.3 0.5-0.27 0.22 0.03 0.34 0.19 0.27 0.37l-7.74 20.7q-0.02 0.06-0.06 0.1z"/>
	<path id="&lt;Path&gt;" class="s1" d="m374.01 589.37c-0.1 0.11-0.26 0.18-0.42 0.16-0.22-0.02-0.34-0.18-0.29-0.35l0.92-2.93c0.06-0.18 0.27-0.31 0.49-0.29 0.21 0.02 0.34 0.18 0.29 0.36l-0.92 2.92q-0.02 0.07-0.07 0.13z"/>
	<path id="&lt;Path&gt;" class="s1" d="m336.95 574.62q0.01 0.05-0.01 0.1l-1.88 6.78q-0.05 0.16-0.23 0.25c-0.17 0.09-4.39 2.18-9.06 1.09-0.21-0.05-0.3-0.24-0.21-0.41 0.09-0.18 0.34-0.28 0.55-0.24 3.79 0.89 7.36-0.54 8.18-0.91l1.8-6.46c-3.52-3.42-9.68-2.13-11-1.81l-1.66 5.61c-0.05 0.19-0.28 0.33-0.5 0.31-0.23-0.02-0.36-0.19-0.31-0.36l1.73-5.84c0.04-0.12 0.16-0.23 0.31-0.28 0.09-0.02 8-2.28 12.22 2.01q0.07 0.07 0.07 0.16z"/>
	<path id="&lt;Path&gt;" class="s1" d="m354.78 579.92q-0.01 0.05-0.02 0.1l-2.51 6.72q-0.06 0.15-0.25 0.23c-0.18 0.09-4.53 1.93-9.04 0.55-0.2-0.07-0.27-0.27-0.17-0.43 0.12-0.18 0.37-0.27 0.57-0.21 3.66 1.13 7.3-0.09 8.15-0.41l2.39-6.41c-3.13-3.66-9.33-2.75-10.66-2.5l-2.18 5.56c-0.07 0.18-0.3 0.3-0.52 0.27-0.22-0.03-0.34-0.21-0.27-0.38l2.27-5.78c0.04-0.12 0.18-0.23 0.33-0.26 0.08-0.02 8.1-1.8 11.85 2.78q0.06 0.08 0.06 0.17z"/>
	<path id="&lt;Path&gt;" class="s1" d="m373.06 582.39q0 0.04-0.02 0.09l-2.51 6.72q-0.06 0.16-0.25 0.24c-0.18 0.08-4.53 1.93-9.03 0.54-0.21-0.06-0.28-0.26-0.17-0.43 0.11-0.17 0.36-0.26 0.56-0.2 3.66 1.12 7.31-0.1 8.15-0.41l2.4-6.41c-3.14-3.67-9.34-2.75-10.67-2.5l-2.18 5.55c-0.07 0.19-0.3 0.31-0.52 0.28-0.22-0.03-0.34-0.21-0.27-0.39l2.27-5.77c0.05-0.13 0.18-0.23 0.33-0.27 0.09-0.01 8.1-1.8 11.85 2.79q0.06 0.07 0.06 0.17z"/>
	<path id="&lt;Path&gt;" class="s1" d="m391.54 583.45q-0.01 0.05-0.02 0.09l-2.38 6.37q-0.06 0.15-0.23 0.22c-0.17 0.08-4.3 1.83-8.56 0.52-0.19-0.07-0.26-0.25-0.16-0.41 0.1-0.17 0.34-0.25 0.53-0.19 3.46 1.06 6.92-0.09 7.72-0.4l2.27-6.06c-2.97-3.48-8.84-2.61-10.1-2.38l-2.06 5.27c-0.07 0.17-0.29 0.29-0.5 0.26-0.21-0.03-0.32-0.2-0.25-0.36l2.14-5.47c0.05-0.12 0.17-0.22 0.32-0.25 0.08-0.02 7.67-1.71 11.22 2.64q0.06 0.06 0.06 0.15z"/>
	<path id="&lt;Path&gt;" class="s2" d="m265.99 436.49c0.97-6.47 3.64-26.44 0.23-34.4 0.4-15.11 1.33-29.55 2.73-32.9 1.58-4.01-0.25-8.56-4.26-10.13-4.01-1.58-8.55 0.25-10.13 4.26-1.57 4.01-2.61 12.06-3.15 20.94-6.38-5.38-12.49-9.09-12.49-9.09 0 0-43.83 23.61-42.03 35.04 0.46 3.66 1.32 7.95 5.16 14.96 2.83 9.62 1.7 28.3 2.26 39.61 20.66 1.11 40.22-1.57 60.55 2.83 1.13-15.56 1.13-31.12 1.13-31.12z"/>
	<path id="&lt;Compound Path&gt;" class="s1" d="m264.86 468.46q-0.09 0-0.18-0.02c-10.67-2.31-21.04-2.63-30.66-2.63q-4.18 0.01-8.38 0.06-4.23 0.05-8.5 0.06c-4.98 0-9.07-0.09-12.87-0.3-0.44-0.02-0.78-0.37-0.81-0.8-0.17-3.44-0.18-7.52-0.2-11.84-0.04-9.79-0.08-20.88-2-27.49-3.96-7.26-4.77-11.64-5.21-15.18-1.84-11.67 37.92-33.46 42.46-35.9 0.27-0.14 0.59-0.14 0.85 0.02 0.05 0.03 5.43 3.32 11.31 8.1 0.63-9.12 1.72-16.02 3.1-19.53 1.28-3.26 4.41-5.37 7.96-5.37q1.69 0.01 3.27 0.63c4.37 1.71 6.5 6.75 4.74 11.23-1.19 2.85-2.21 15.26-2.66 32.43 3.28 8.01 0.94 26.8-0.24 34.63-0.01 1.11-0.05 16.2-1.14 31.11-0.02 0.25-0.14 0.47-0.34 0.62q-0.22 0.17-0.5 0.17zm-30.84-4.35c9.42 0 19.57 0.31 30.06 2.47 1.05-15.03 1.06-29.94 1.06-30.09q0-0.06 0.01-0.13c0.91-6 3.61-26.2 0.29-33.94q-0.07-0.17-0.07-0.35c0.18-6.64 0.9-28.66 2.8-33.21 1.41-3.59-0.29-7.64-3.79-9.01q-1.28-0.51-2.65-0.51c-2.85 0-5.36 1.68-6.38 4.29-1.4 3.56-2.5 10.9-3.09 20.68-0.02 0.32-0.22 0.6-0.52 0.73-0.29 0.12-0.63 0.07-0.88-0.14-5.32-4.48-10.5-7.83-11.97-8.75-12.34 6.69-42.55 25.14-41.16 33.93 0.43 3.43 1.21 7.64 5.06 14.69q0.05 0.08 0.07 0.16c2.01 6.84 2.06 18.11 2.1 28.05 0.01 3.98 0.03 7.76 0.16 11 3.56 0.17 7.41 0.25 12.02 0.25q4.26 0 8.48-0.06 4.21-0.05 8.4-0.06z"/>
	<path id="&lt;Path&gt;" class="s1" d="m240.18 436.88c0 0 0.17 0.04 0 0q0.63-0.37 0.26-1c-13.7-21.43 4.34-35.66 5-36.2 0.26-0.28 0.34-0.61 0.05-0.87-0.28-0.25-0.61-0.34-0.87-0.05-0.21 0.13-19.62 15.59-5.31 38.07 0.29 0.25 0.62 0.34 0.87 0.05z"/>
	<path id="&lt;Compound Path&gt;" class="s1" d="m231.46 294.61c8.48-19.84 31.51-29.08 51.35-20.61 19.85 8.47 29.09 31.5 20.62 51.35-8.47 19.84-31.51 29.08-51.35 20.61-19.85-8.47-29.09-31.5-20.62-51.35zm3.42 1.51c-7.65 17.94 0.71 38.8 18.65 46.45 17.95 7.64 38.81-0.71 46.46-18.66 7.64-17.94-0.71-38.8-18.66-46.45-17.93-7.68-38.8 0.71-46.45 18.66z"/>
	<path id="&lt;Path&gt;" class="s1" d="m257.46 347.03l-6.56-2.43-4.43 11.96 6.56 2.43z"/>
	<path id="&lt;Path&gt;" class="s1" d="m255.97 358.75l-11.57-4.28-11.47 30.96 11.57 4.29z"/>
	<path id="&lt;Path&gt;" class="s1" d="m244.18 352.98l12.91 4.78c0.14 0.06 0.21 0.2 0.16 0.34l-0.65 1.76c-0.06 0.15-0.2 0.21-0.34 0.16l-12.91-4.78c-0.14-0.05-0.21-0.2-0.16-0.34l0.66-1.76c0.05-0.14 0.19-0.21 0.33-0.16z"/>
	<path id="&lt;Path&gt;" class="s2" d="m216.82 366.94l26.27 9.84c4.68 1.75 7.04 6.96 5.29 11.64-1.37 3.89-5.34 6.22-9.32 5.89 3.47 2.32 5 6.61 3.43 10.62-1.15 3.06-3.83 5.19-6.78 5.66 2.17 2.52 3.05 5.93 1.69 9.11-1.53 3.85-5.33 6.22-9.48 5.85 1.93 2.09 2.69 5.3 1.54 8.36-1.62 4.18-6.25 6.33-10.43 4.71l-23.54-8.78c-1.11-0.47-2.02-1.06-2.89-1.81-2.26-2.18-3.14-5.6-1.99-8.66 1.11-2.9 3.74-4.86 6.65-5.17-0.45-0.29-0.9-0.59-1.15-1-2.55-2.44-3.51-6.22-2.11-9.57 1.15-3.07 3.83-5.2 6.79-5.67-2.18-2.51-3.06-5.92-1.87-9.15 1.37-3.89 5.34-6.22 9.32-5.89-0.45-0.29-0.91-0.59-1.32-1.05-2.55-2.43-3.51-6.22-2.11-9.57 2.08-4.59 7.34-7.11 12.01-5.36z"/>
	<path id="&lt;Compound Path&gt;" class="s1" d="m221.9 440.01q-1.63 0-3.18-0.6l-23.53-8.78c-1.18-0.49-2.17-1.11-3.15-1.96-2.61-2.52-3.47-6.28-2.22-9.6 0.98-2.56 3.09-4.53 5.62-5.34-2.8-2.74-3.69-6.92-2.22-10.43 1.06-2.82 3.33-4.98 6.1-5.86-1.84-2.71-2.29-5.96-1.19-8.92 1.19-3.41 4.26-5.84 7.87-6.37-2.59-2.69-3.41-6.75-1.97-10.18 1.75-3.86 5.65-6.44 9.71-6.44q1.75 0 3.38 0.61l26.27 9.85c2.47 0.92 4.44 2.76 5.53 5.16 1.09 2.41 1.18 5.09 0.25 7.57-1.19 3.41-4.27 5.84-7.89 6.36 2.56 2.71 3.39 6.62 2 10.16-1.07 2.83-3.34 4.99-6.11 5.87 1.87 2.76 2.26 6.01 1.01 8.93-1.44 3.61-4.75 6.05-8.57 6.36 1.38 2.3 1.64 5.16 0.64 7.81-1.34 3.47-4.7 5.8-8.35 5.8zm-14.41-56.27c-3.52 0-6.64 2.15-7.77 5.35-1.03 2.79-0.39 5.89 1.71 8.32 0.2 0.23 0.26 0.55 0.15 0.84-0.1 0.29-0.36 0.5-0.66 0.55-2.71 0.43-5.11 2.44-6.12 5.12-1.23 2.94-0.46 6.41 1.9 8.66q0.08 0.08 0.14 0.19c0.15 0.24 0.52 0.49 0.89 0.72 0.3 0.2 0.44 0.56 0.36 0.91-0.09 0.35-0.38 0.61-0.74 0.65-2.64 0.27-4.98 2.09-5.95 4.62-1 2.69-0.3 5.73 1.79 7.75 0.8 0.7 1.65 1.23 2.63 1.64l23.51 8.77q1.25 0.48 2.57 0.48c2.95 0 5.67-1.89 6.77-4.71 0.98-2.62 0.46-5.49-1.37-7.48-0.24-0.26-0.3-0.63-0.14-0.95 0.15-0.31 0.49-0.5 0.84-0.47 3.78 0.34 7.22-1.82 8.61-5.31 1.16-2.71 0.58-5.79-1.55-8.24-0.2-0.23-0.26-0.56-0.15-0.85 0.1-0.29 0.36-0.5 0.66-0.55 2.71-0.43 5.11-2.44 6.12-5.12 1.39-3.52 0.11-7.47-3.1-9.62-0.32-0.21-0.46-0.62-0.33-0.98 0.13-0.37 0.49-0.59 0.87-0.57 3.75 0.32 7.25-1.92 8.45-5.32 0.77-2.07 0.69-4.29-0.21-6.29-0.9-1.99-2.53-3.51-4.57-4.27l-26.27-9.85q-1.35-0.5-2.79-0.5c-3.41 0-6.68 2.18-8.15 5.42-1.21 2.89-0.44 6.35 1.92 8.61 0.38 0.42 0.76 0.67 1.19 0.95 0.33 0.21 0.47 0.62 0.34 0.99-0.12 0.36-0.48 0.6-0.87 0.57q-0.34-0.03-0.68-0.03z"/>
	<path id="&lt;Path&gt;" class="s1" d="m239.14 394.68c0.17 0.05 0.38-0.08 0.42-0.24 0.04-0.17-0.08-0.38-0.25-0.42l-30.65-11.34c-0.17-0.05-0.38 0.08-0.42 0.24-0.04 0.17 0.08 0.38 0.24 0.42z"/>
	<path id="&lt;Path&gt;" class="s1" d="m239.21 395.12c-0.03 0-0.14-0.02-0.18-0.03l-30.69-11.35c-0.15-0.04-0.32-0.17-0.42-0.35q-0.16-0.28-0.09-0.58c0.08-0.32 0.41-0.57 0.76-0.57 0.03 0 0.14 0.02 0.17 0.02l30.7 11.36c0.36 0.09 0.61 0.53 0.51 0.92-0.09 0.33-0.41 0.58-0.76 0.58z"/>
	<path id="&lt;Path&gt;" class="s1" d="m235.78 410.97c0.17 0.04 0.21-0.13 0.42-0.25 0.05-0.16-0.08-0.37-0.24-0.42l-18.53-7.65c-0.16-0.04-0.37 0.08-0.42 0.24-0.04 0.17 0.08 0.38 0.25 0.42l18.52 7.66q-0.06 0.25 0 0z"/>
	<path id="&lt;Path&gt;" class="s1" d="m235.75 411.52q-0.05 0-0.1-0.02-0.22-0.06-0.29-0.25l-18.26-7.55c-0.14-0.02-0.3-0.16-0.41-0.34q-0.16-0.28-0.09-0.57c0.09-0.33 0.41-0.57 0.76-0.57 0.04 0 0.14 0.01 0.18 0.02l18.58 7.67c0.34 0.09 0.6 0.52 0.49 0.92q-0.04 0.17-0.19 0.26-0.05 0.03-0.11 0.08-0.07 0.08-0.21 0.17-0.13 0.17-0.35 0.18z"/>
	<path id="&lt;Path&gt;" class="s1" d="m220.67 423.48c0.17 0.05 0.21-0.12 0.42-0.24 0.04-0.17-0.08-0.38-0.24-0.42l-20.84-8.96c-0.17-0.05-0.38 0.08-0.42 0.24-0.04 0.17 0.08 0.38 0.24 0.42l20.84 8.96q-0.24-0.06 0 0z"/>
	<path id="&lt;Path&gt;" class="s1" d="m220.72 423.91q-0.03 0-0.09 0-0.03-0.01-0.06-0.02l-0.13-0.03q-0.1-0.03-0.18-0.1l-20.59-8.85c-0.13-0.03-0.3-0.16-0.4-0.34q-0.16-0.28-0.09-0.58c0.08-0.32 0.41-0.57 0.76-0.57 0.03 0 0.14 0.02 0.17 0.03l20.9 8.98c0.13 0.03 0.3 0.16 0.4 0.34q0.16 0.28 0.09 0.58-0.05 0.16-0.19 0.25-0.06 0.04-0.11 0.09c-0.09 0.08-0.23 0.22-0.48 0.22z"/>
	<path id="&lt;Path&gt;" class="s1" d="m228.12 426.13c0.17 0.04 0.21-0.12 0.42-0.24 0.04-0.17 0.09-0.34-0.25-0.42l-2.81-1.44c-0.16-0.04-0.33-0.09-0.41 0.24-0.05 0.17-0.09 0.34 0.24 0.42z"/>
	<path id="&lt;Path&gt;" class="s1" d="m228.17 426.56c-0.03 0-0.12-0.01-0.16-0.02q-0.04-0.01-0.08-0.03l-2.77-1.42q-0.4-0.12-0.51-0.44c-0.07-0.19-0.02-0.37 0.01-0.48 0.14-0.54 0.51-0.59 0.66-0.59q0.16 0 0.27 0.04 0.05 0.01 0.09 0.03l2.77 1.42c0.28 0.09 0.66 0.31 0.5 0.92q-0.05 0.17-0.2 0.26-0.05 0.03-0.1 0.09c-0.09 0.08-0.24 0.22-0.48 0.22z"/>
	<path id="&lt;Path&gt;" class="s1" d="m268.25 454.03h-72.71v46.97h72.71z"/>
	<path id="&lt;Path&gt;" class="s1" d="m425.07 602.37h10.83v4.11h-10.83z"/>
	<path id="&lt;Path&gt;" class="s1" d="m411.43 602.37h10.83v4.11h-10.83z"/>
	<path id="&lt;Path&gt;" class="s1" d="m397.88 602.37h10.84v4.11h-10.84z"/>
	<path id="&lt;Path&gt;" class="s1" d="m384.8 602.37h10.84v4.11h-10.84z"/>
	<path id="&lt;Path&gt;" class="s1" d="m370.88 602.37h10.84v4.11h-10.84z"/>
	<path id="&lt;Path&gt;" class="s1" d="m357.8 602.37h10.84v4.11h-10.84z"/>
	<path id="&lt;Path&gt;" class="s4" d="m178.03 489.65l157.86 2.1c2.84 0.04 5.25 2.09 5.75 4.88l19.81 111.14c0.64 3.62-2.13 6.95-5.81 6.96l-156.82 0.67c-2.87 0.01-5.33-2.04-5.85-4.86l-20.84-113.91c-0.67-3.66 2.18-7.03 5.9-6.98z"/>
	<path id="&lt;Compound Path&gt;" class="s1" d="m198.79 615.82c-3.06 0-5.68-2.19-6.23-5.2l-20.85-113.91c-0.34-1.86 0.16-3.75 1.37-5.2 1.21-1.45 2.98-2.28 4.87-2.28h0.09l157.86 2.1c3.04 0.04 5.63 2.24 6.16 5.23l19.8 111.14c0.33 1.85-0.17 3.73-1.37 5.18-1.2 1.44-2.97 2.27-4.84 2.28zm-20.77-125.75c-1.71 0-3.25 0.72-4.3 1.98-1.04 1.25-1.47 2.9-1.18 4.5l20.84 113.91c0.48 2.61 2.75 4.51 5.41 4.51v0.42l0.02-0.42 156.82-0.67c1.63 0 3.16-0.72 4.2-1.97 1.04-1.25 1.48-2.88 1.19-4.49l-19.8-111.14c-0.46-2.59-2.71-4.49-5.34-4.53l-157.86-2.1q0 0 0 0z"/>
	<path id="&lt;Path&gt;" class="s1" d="m361.32 607.65l-19.8-111.14c-0.5-2.79-2.91-4.84-5.75-4.88l-157.86-2.1c-0.2-0.01-0.38 0.04-0.57 0.05l153.57 2.05c2.84 0.04 5.25 2.09 5.75 4.88l19.8 111.14c0.65 3.62-2.12 6.94-5.8 6.96l-152.2 0.64c0.08 0.01 0.16 0.02 0.16 0.02l156.9-0.66c3.67-0.02 6.45-3.34 5.8-6.96z"/>
	<path id="&lt;Path&gt;" class="s5" d="m441.06 605.48l-85.08-1.13-19.19-107.72c-0.5-2.79-2.92-4.84-5.75-4.88l-157.87-2.1c-3.72-0.05-6.57 3.32-5.9 6.98l20.84 113.91c0.52 2.82 2.98 4.87 5.85 4.86l139.92-0.6 107.14 1.43c0.23 0.01 0.42-0.18 0.42-0.4l0.13-9.83c0-0.28-0.22-0.52-0.51-0.52z"/>
	<path id="&lt;Compound Path&gt;" class="s1" d="m441.03 617.5q-0.01 0-0.02 0l-107.14-1.64-139.9 0.49c-3.3 0-6.1-2.39-6.69-5.6l-20.84-113.94c-0.36-1.98 0.17-3.66 1.46-5.21 1.29-1.55 3.18-2.1 5.19-2.1 0.01 0 0.09 0 0.1 0l157.86 1.75c3.24 0.05 6 2.22 6.57 5.41l19.07 106.93 84.38 1.08c0.37 0.01 0.71 0.13 0.96 0.39q0.39 0.41 0.39 0.96l-0.13 10.03c-0.01 0.69-0.58 1.45-1.26 1.45zm-107.15-3.54l106.72 1.42 0.12-9.06-84.75-1.12c-0.41-0.01-0.76-0.3-0.83-0.7l-19.19-107.72c-0.43-2.39-2.5-3.64-4.92-3.68l-157.87-1.6q0 0 0 0c-1.58 0-2.99 0.16-3.96 1.32-0.97 1.16-1.36 2.43-1.09 3.91l20.84 113.79c0.44 2.4 2.54 4.09 4.99 4.09z"/>
	<path id="&lt;Path&gt;" class="s1" d="m383.03 607.7h-12.89v3.55h12.89z"/>
	<path id="&lt;Path&gt;" class="s2" d="m383.03 608.16h-12.89v1.4h12.89z"/>
	<path id="&lt;Compound Path&gt;" class="s1" d="m383.45 609.99h-13.74v-2.25h13.74zm-12.89-0.85h12.04v-0.55h-12.04z"/>
	<path id="&lt;Path&gt;" class="s1" d="m433.29 610.25c0-1.05-0.85-1.9-1.9-1.9-1.05 0-1.9 0.85-1.9 1.9 0 1.05 0.85 1.9 1.9 1.9 1.05 0 1.9-0.85 1.9-1.9z"/>
	<path id="&lt;Path&gt;" class="s1" d="m427.25 610.25c0-1.05-0.85-1.9-1.9-1.9-1.05 0-1.9 0.85-1.9 1.9 0 1.05 0.85 1.9 1.9 1.9 1.05 0 1.9-0.85 1.9-1.9z"/>
	<path id="&lt;Path&gt;" class="s2" d="m247.66 560.37c3.67 1.88 8.22 1.65 11.95-0.11 5.62-2.64 11.06-9.11 10.1-15.67-0.94-6.35-7.06-10.52-13-11.7-4.17-0.83-8.73-0.04-12.12 2.52-7.93 5.99-5.56 20.19 2.76 24.8q0.16 0.08 0.31 0.16z"/>
	<path id="&lt;Path&gt;" class="s1" d="m367.06 321.87c0-1.93-0.92-3.5-2.07-3.5-1.14 0-2.07 1.57-2.07 3.5 0 1.94 0.93 3.5 2.07 3.5 1.15 0 2.07-1.56 2.07-3.5z"/>
	<path id="&lt;Path&gt;" class="s1" d="m336.51 321.87c0-1.93-0.93-3.5-2.07-3.5-1.15 0-2.07 1.57-2.07 3.5 0 1.94 0.92 3.5 2.07 3.5 1.14 0 2.07-1.56 2.07-3.5z"/>
	<path id="&lt;Path&gt;" class="s1" d="m385.95 551.5c-0.47 0-0.85-0.45-0.85-0.91-0.01-0.47 0.37-0.55 0.84-0.55l103.12-0.54q0.01 0 0.01 0c0.47 0 0.85 0.03 0.85 0.5 0 0.47-0.37 0.75-0.84 0.75l-103.13 0.75q0 0 0 0z"/>
	<path id="&lt;Path&gt;" class="s1" d="m450.88 550.51c-0.45 0-0.82-0.34-0.85-0.79l-2.55-36.92c-0.03-0.47 0.32-0.88 0.79-0.91 0.47-0.03 0.88 0.32 0.91 0.79l2.54 36.92c0.04 0.47-0.32 0.87-0.78 0.91q-0.03 0-0.06 0z"/>
	<path id="&lt;Path&gt;" class="s1" d="m453 470.16q-0.11 0-0.23-0.03c-0.45-0.13-0.71-0.59-0.59-1.05 9.1-32.97 43.37-37.91 43.71-37.96 0.46-0.06 0.89 0.27 0.95 0.73 0.07 0.47-0.26 0.89-0.72 0.96-0.34 0.04-33.51 4.85-42.3 36.73-0.11 0.37-0.45 0.62-0.82 0.62z"/>
	<path id="&lt;Path&gt;" class="s3" d="m245.4 317.5c3.45 12.69 16.54 20.19 29.24 16.73 12.69-3.45 20.17-16.54 16.71-29.23-0.89-3.28-2.43-6.22-4.44-8.71l-18.18 14.35-24.16 0.5q-0.03 3.16 0.83 6.36z"/>
	<path id="&lt;Compound Path&gt;" class="s1" d="m268.37 335.92q0 0 0 0c-11.09 0-20.87-7.48-23.79-18.19q-0.89-3.29-0.85-6.6c0-0.46 0.37-0.83 0.83-0.84l23.87-0.49 17.95-14.17c0.36-0.29 0.89-0.23 1.19 0.13 2.15 2.66 3.7 5.69 4.6 9.02 3.57 13.12-4.2 26.7-17.31 30.27q-3.2 0.87-6.49 0.87zm-22.94-23.95q0.07 2.67 0.79 5.31c2.71 9.98 11.82 16.94 22.15 16.94q0 0 0 0 3.06 0 6.04-0.81c12.22-3.32 19.45-15.96 16.12-28.18-0.76-2.83-2.03-5.43-3.77-7.74l-17.5 13.82q-0.23 0.17-0.51 0.18z"/>
	<path id="&lt;Path&gt;" class="s6" d="m239.43 307.14l24.16-0.5-6.12-22.48c0-0.01-0.31 0.08-0.48 0.12-10.57 2.88-17.52 12.42-17.56 22.86z"/>
	<path id="&lt;Compound Path&gt;" class="s1" d="m238.58 308.01l0.01-0.87c0.03-11.04 7.51-20.68 18.18-23.58 0.46-0.13 0.56-0.06 0.7-0.06h0.65l6.57 24.06zm18.29-22.81c-9.49 2.76-16.16 11.3-16.57 21.08l22.18-0.46z"/>
	<path id="&lt;Path&gt;" class="s7" d="m262.62 288.16l6.11 22.48 18.18-14.35c-5.66-7-15.05-10.44-24.29-8.13z"/>
	<path id="&lt;Compound Path&gt;" class="s1" d="m268.73 311.49q-0.13 0-0.26-0.04c-0.28-0.09-0.48-0.31-0.56-0.58l-6.11-22.48q-0.09-0.35 0.08-0.66 0.19-0.3 0.53-0.39 2.97-0.74 6-0.74c7.47 0 14.45 3.34 19.16 9.16q0.21 0.28 0.18 0.63-0.04 0.35-0.32 0.57l-18.17 14.35q-0.24 0.18-0.53 0.18zm-5.06-22.7l5.54 20.39 16.48-13.01c-4.36-5.02-10.61-7.88-17.28-7.88q-2.39 0.01-4.74 0.5z"/>
	<path id="&lt;Path&gt;" class="s1" d="m214.68 339.96l6.1-1.94-6.1-2.08c-1.82-0.48-3.22-1.95-3.61-3.8l-1.94-9.16-2.08 8.97c-0.43 1.89-1.93 3.35-3.83 3.75l-5.74 1.98 5.54 1.95c1.94 0.45 3.43 2.02 3.79 3.98l1.6 8.86 2.33-8.87c0.5-1.88 2.03-3.3 3.94-3.64z"/>
	<path id="&lt;Path&gt;" class="s1" d="m495.56 398.07l4.14-1.31-4.14-1.41c-1.23-0.33-2.18-1.32-2.44-2.58l-1.32-6.21-1.41 6.08c-0.29 1.28-1.31 2.27-2.59 2.54l-3.9 1.34 3.76 1.33c1.32 0.3 2.33 1.36 2.57 2.69l1.08 6.01 1.58-6.01c0.34-1.27 1.38-2.24 2.67-2.47z"/>
	<path id="&lt;Path&gt;" class="s2" d="m456.26 297.91l8.61-2.74-8.61-2.94c-2.58-0.67-4.55-2.75-5.1-5.35l-2.73-12.93-2.94 12.65c-0.61 2.67-2.72 4.73-5.4 5.3l-8.11 2.79 7.83 2.76c2.74 0.63 4.84 2.84 5.34 5.61l2.26 12.5 3.29-12.51c0.7-2.65 2.87-4.66 5.56-5.14z"/>
	<path id="&lt;Path&gt;" class="s8" d="m430.66 366.84c0 0-0.92-7.31 1.35-5.92 5.62 3.45 11.8-0.14 12.44-1.42 3.89-7.78 2.1-30.13 12.59-30.13 10.49 0 5.7 20.39 11.39 24.88 5.7 4.5 13.49-16.18 21.89-16.18 8.39 0 10.49 15.58 17.68 15.58 7.2 0 9.6-7.19 17.09-8.39v21.64z"/>
	<path id="&lt;Path&gt;" class="s1" d="m428.69 327.07q-0.24 0-0.44-0.17c-0.27-0.25-0.29-0.67-0.04-0.94l2.42-2.65q0.2-0.21 0.49-0.21 0.29 0 0.49 0.21l2.21 2.43c0.24 0.27 0.22 0.69-0.05 0.94-0.27 0.24-0.69 0.22-0.93-0.05l-1.72-1.89-1.94 2.11q-0.21 0.22-0.49 0.22z"/>
	<path id="&lt;Path&gt;" class="s1" d="m531.3 364.8q0-0.25 0.18-0.44c0.24-0.27 0.66-0.29 0.93-0.05l2.65 2.43q0.21 0.2 0.22 0.49-0.01 0.29-0.22 0.49l-2.43 2.21c-0.27 0.24-0.69 0.22-0.93-0.05-0.25-0.27-0.23-0.69 0.04-0.93l1.89-1.72-2.11-1.94q-0.22-0.21-0.22-0.49z"/>
	<path id="&lt;Path&gt;" class="s1" d="m457.16 366.9c-0.18 0-0.33-0.15-0.33-0.33v-42.7c0-0.19 0.15-0.33 0.33-0.33 0.18 0 0.33 0.14 0.33 0.33v42.7c0 0.18-0.15 0.33-0.33 0.33z"/>
	<path id="&lt;Path&gt;" class="s1" d="m490.04 366.9c-0.19 0-0.33-0.15-0.33-0.33v-42.7c0-0.19 0.14-0.33 0.33-0.33 0.18 0 0.33 0.14 0.33 0.33v42.7c0 0.18-0.15 0.33-0.33 0.33z"/>
	<path id="&lt;Path&gt;" class="s1" d="m525.12 366.9c-0.18 0-0.33-0.15-0.33-0.33v-42.7c0-0.19 0.15-0.33 0.33-0.33 0.19 0 0.33 0.14 0.33 0.33v42.7c0 0.18-0.14 0.33-0.33 0.33z"/>
	<path id="&lt;Path&gt;" class="s1" d="m431.01 372.41c-0.37 0-0.66-0.29-0.66-0.66v-46.34c0-0.36 0.29-0.66 0.66-0.66 0.37 0 0.66 0.3 0.66 0.66v46.34c0 0.37-0.29 0.66-0.66 0.66z"/>
	<path id="&lt;Path&gt;" class="s1" d="m533.62 367.78h-107.25c-0.36 0-0.66-0.3-0.66-0.66 0-0.37 0.3-0.66 0.66-0.66h107.25c0.36 0 0.66 0.29 0.66 0.66 0 0.36-0.3 0.66-0.66 0.66z"/>
	<path id="&lt;Path&gt;" class="s2" d="m458.39 328.1c0-0.62-0.5-1.13-1.12-1.13-0.62 0-1.13 0.51-1.13 1.13 0 0.62 0.51 1.12 1.13 1.12 0.62 0 1.12-0.5 1.12-1.12z"/>
	<path id="&lt;Compound Path&gt;" class="s9" d="m457.27 329.65c-0.86 0-1.55-0.7-1.55-1.55 0-0.86 0.69-1.55 1.55-1.55 0.85 0 1.55 0.69 1.55 1.55 0 0.85-0.7 1.55-1.55 1.55zm0-2.25c-0.39 0-0.7 0.31-0.7 0.7 0 0.38 0.31 0.7 0.7 0.7 0.38 0 0.7-0.32 0.7-0.7 0-0.39-0.32-0.7-0.7-0.7z"/>
	<path id="&lt;Compound Path&gt;" class="s1" d="m457.27 329.54c-0.8 0-1.44-0.65-1.44-1.44 0-0.79 0.64-1.44 1.44-1.44 0.79 0 1.43 0.65 1.43 1.44 0 0.79-0.64 1.44-1.43 1.44zm0-2.25c-0.45 0-0.82 0.36-0.82 0.81 0 0.45 0.37 0.81 0.82 0.81 0.45 0 0.81-0.36 0.81-0.81 0-0.45-0.36-0.81-0.81-0.81z"/>
	<path id="&lt;Path&gt;" class="s2" d="m491.07 337.69c0-0.62-0.51-1.12-1.13-1.12-0.62 0-1.12 0.5-1.12 1.12 0 0.62 0.5 1.13 1.12 1.13 0.62 0 1.13-0.51 1.13-1.13z"/>
	<path id="&lt;Compound Path&gt;" class="s9" d="m489.94 339.24c-0.85 0-1.55-0.69-1.55-1.55 0-0.85 0.7-1.55 1.55-1.55 0.86 0 1.55 0.7 1.55 1.55 0 0.86-0.69 1.55-1.55 1.55zm0-2.25c-0.38 0-0.7 0.32-0.7 0.7 0 0.39 0.32 0.7 0.7 0.7 0.39 0 0.7-0.31 0.7-0.7 0-0.38-0.31-0.7-0.7-0.7z"/>
	<path id="&lt;Compound Path&gt;" class="s1" d="m489.94 339.13c-0.79 0-1.43-0.65-1.43-1.44 0-0.79 0.64-1.44 1.43-1.44 0.79 0 1.44 0.65 1.44 1.44 0 0.79-0.65 1.44-1.44 1.44zm0-2.25c-0.45 0-0.81 0.36-0.81 0.81 0 0.45 0.36 0.81 0.81 0.81 0.45 0 0.81-0.36 0.81-0.81 0-0.45-0.36-0.81-0.81-0.81z"/>
	<path id="&lt;Path&gt;" class="s2" d="m525.94 345.09c0-0.63-0.5-1.13-1.13-1.13-0.62 0-1.12 0.5-1.12 1.13 0 0.62 0.5 1.12 1.12 1.12 0.63 0 1.13-0.5 1.13-1.12z"/>
	<path id="&lt;Compound Path&gt;" class="s9" d="m524.81 346.63c-0.85 0-1.54-0.69-1.54-1.55 0-0.85 0.69-1.54 1.54-1.54 0.86 0 1.55 0.69 1.55 1.54 0 0.86-0.69 1.55-1.55 1.55zm0-2.24c-0.38 0-0.7 0.31-0.7 0.69 0 0.39 0.32 0.71 0.7 0.71 0.39 0 0.7-0.32 0.7-0.71 0-0.38-0.31-0.69-0.7-0.69z"/>
	<path id="&lt;Compound Path&gt;" class="s1" d="m524.81 346.52c-0.79 0-1.43-0.64-1.43-1.43 0-0.8 0.64-1.44 1.43-1.44 0.8 0 1.44 0.64 1.44 1.44 0 0.79-0.64 1.43-1.44 1.43zm0-2.25c-0.44 0-0.81 0.37-0.81 0.82 0 0.44 0.37 0.81 0.81 0.81 0.45 0 0.82-0.37 0.82-0.81 0-0.45-0.37-0.82-0.82-0.82z"/>
	<g id="Layer 1">
		<path id="&lt;Path&gt;" class="s0" d="m364.79 813.41c-77.42-4.2-157.22-21.21-218.36-68.89-81.05-63.2-116.63-175.12-98.76-276.33 17.86-101.21 84.26-190.25 169.61-247.5 31.76-21.3 66.09-38.61 97.33-60.66 27.8-19.62 52.97-42.86 81.5-61.41 26.18-17.02 54.92-29.88 84.52-39.81 123.19-41.28 263.09-29.85 377.94 30.9 25.23 13.34 49.39 29.03 70.14 48.62 58.81 55.53 85.6 139.28 84.09 220.15-0.75 40.09-7.89 80.06-21.07 117.93-52.64 151.28-197.35 255.4-350.36 302.78-89.21 27.63-183.34 39.27-276.58 34.22z"/>
		<path id="&lt;Path&gt;" class="s1" d="m668.86 373.45c0.66-9.76-26.03 7.78-76.77 6.43-50.74-1.35-86.52-4.64-87.83-1.39-1.3 3.25 3.88 26.68 3.88 26.68l134 11.19z"/>
		<path id="&lt;Path&gt;" class="s2" d="m502.25 243.17c0 0-21.76-25.23-41.27-19.02-19.51 6.21-24.01 48.91-3.75 58.23 20.26 9.31 45.77-6.21 45.77-6.21z"/>
		<path id="&lt;Compound Path&gt;" class="s1" d="m471.72 287.68q-0.01 0-0.01 0c-5.65 0-10.85-1.07-15.46-3.19-11.75-5.4-15.17-19.85-14.45-31.56 0.78-12.75 6.8-27.28 18.47-31 2.28-0.72 4.69-1.09 7.17-1.09 18.41 0 35.83 19.96 36.57 20.81 0.35 0.41 0.55 0.93 0.56 1.47l0.75 32.99c0.02 0.83-0.4 1.61-1.11 2.05-0.64 0.38-15.85 9.52-32.49 9.52zm-4.28-62.19q-3.01 0.01-5.76 0.88c-8.16 2.6-14.42 13.63-15.24 26.84-0.62 10.18 2.14 22.63 11.76 27.05 3.99 1.84 8.53 2.77 13.51 2.77h0.01c12.87 0 25.18-6.15 28.92-8.2l-0.7-30.74c-3.01-3.27-17.89-18.6-32.5-18.6z"/>
		<path id="&lt;Path&gt;" class="s1" d="m475.81 109.4c-12.18 18-9.14 57.6-1.31 92.7 7.83 35.1 10.87-67.5 10.87-67.5l23.49-29.25z"/>
		<path id="&lt;Path&gt;" class="s2" d="m471.89 213.35c5.22-39.15-2.61-67.5 3.92-86.4 0 0 22.82-83.48 132.41-63.23q1.99 0.37 3.93 0.8c55.92 12.35 91.35 58.31 77.48 115.71l-11.94 49.39c8.07-4.53 17.46-7.43 26.44-4.57 22.61 7.2 27.83 56.71 4.35 67.5-16.02 7.37-34.84 1.35-45.21-3.23l-1.83 7.58-2.97 109.96c-93.07 31.5-144.39 0.9-144.39 0.9l3.96-58.27c-66.12-19.33-51.22-98.11-46.15-136.14z"/>
		<path id="&lt;Compound Path&gt;" class="s1" d="m578.43 423.42c-42.14 0-64.61-13.11-65.54-13.66-0.76-0.45-1.19-1.29-1.13-2.16l3.83-56.42c-62.48-19.68-52.36-92.4-46.9-131.64q0.48-3.41 0.9-6.49c2.52-18.95 1.97-35.15 1.48-49.45-0.52-15.27-0.94-27.34 2.54-37.41 0.14-0.53 19.54-67.96 102.02-67.96 10.39 0 21.5 1.07 33.01 3.2q2.04 0.38 4.01 0.81c30.14 6.66 54.6 22.92 68.86 45.76 13.19 21.12 16.78 46.29 10.38 72.78l-10.75 44.49c8.58-3.87 16.6-4.69 23.7-2.43 13.36 4.25 20.25 20.94 21.15 35.6 0.83 13.46-3.08 30.04-16.54 36.23-5.29 2.43-11.26 3.66-17.76 3.66-10.08 0-19.77-2.94-26.8-5.8l-1.13 4.68-2.97 109.71c-0.02 0.97-0.66 1.83-1.58 2.14-28.15 9.53-55.33 14.36-80.78 14.36zm-61.93-17c5.19 2.65 26.58 12.35 61.93 12.35 24.48 0 50.63-4.58 77.75-13.6l2.93-108.33q0.01-0.24 0.06-0.48l1.84-7.59c0.16-0.67 0.61-1.23 1.23-1.54 0.62-0.3 1.34-0.32 1.97-0.04 6.71 2.96 16.92 6.49 27.48 6.49 5.82 0 11.14-1.09 15.82-3.24 11.32-5.21 14.57-19.8 13.84-31.72-0.95-15.46-8.32-28.39-17.93-31.45-7.1-2.26-15.43-0.76-24.59 4.38-0.8 0.45-1.8 0.38-2.54-0.18-0.74-0.56-1.07-1.5-0.86-2.4l11.93-49.39c6.1-25.24 2.72-49.18-9.79-69.21-13.6-21.78-37.01-37.29-65.92-43.68q-1.9-0.42-3.85-0.78c-11.23-2.08-22.06-3.13-32.17-3.13-78.85 0-96.85 62.05-97.58 64.69-3.24 9.4-2.84 21.08-2.33 35.87 0.49 14.48 1.06 30.89-1.52 50.22q-0.42 3.1-0.9 6.52c-5.69 40.9-15.22 109.36 45.4 127.08 1.05 0.3 1.74 1.3 1.66 2.39z"/>
		<path id="&lt;Path&gt;" class="s1" d="m566.47 170.57c0.28 2.27 2.55 3.61 4.58 4.5 10.39 4.59 21.63 7.06 32.91 7.24 2 0.03 4.07-0.02 5.89-0.86 3.14-1.45 5.02-5.35 4.24-8.82-0.64-2.84-2.8-5.11-5.28-6.49-2.48-1.39-5.28-2-8.05-2.58-10.28-2.17-21.66-3.88-30.7 1.62-1.93 1.17-3.88 3.09-3.59 5.39z"/>
		<path id="&lt;Path&gt;" class="s1" d="m486.36 181.22c6.53-0.39 14.56-4.64 19.29-5.15 4.18-0.45 12.9 0.61 12.73-5.87-1.02-4.15-4.92-6.89-8.79-7.76-3.08-0.69-6.27-0.46-9.4-0.21-7.1 0.57-18.38 1.19-22.38 8.43-0.98 1.75-1.26 4.01-0.38 5.85 1.85 3.86 5.13 4.93 8.93 4.71z"/>
		<path id="&lt;Path&gt;" class="s1" d="m706.09 161.66c15.65-15.52 42.4-37.8 11.74-61.42-30.66-23.63-38.49 0.67-58.06-33.08-19.57-33.75-63.93-64.8-95.9-40.5-31.96 24.3-94.59-10.12-112.85 16.2-18.27 26.33-7.18 58.73 9.78 72.9 16.96 14.18 65.89 20.93 116.77 15.53 50.89-5.4 91.98 43.87 91.98 43.87z"/>
		<path id="&lt;Path&gt;" class="s1" d="m525.4 146.32c15.28 0 30.27-2.62 44.91-5.18 17.15-2.99 33.36-5.82 48.21-4.01l0.3-2.68c-15.22-1.86-31.6 1.01-48.94 4.03-20.92 3.66-42.56 7.43-64.49 3.4-39.79-7.3-60.88-41.74-60.25-62.75l-2.6-0.08c-0.67 21.96 21.17 57.92 62.39 65.49 6.88 1.26 13.71 1.78 20.47 1.78z"/>
		<path id="&lt;Path&gt;" class="s1" d="m518.04 346.88c18.67 6.8 58.96 4.08 77.08-1.8 0 0-52.98 28.07-78.34 26.71z"/>
		<path id="&lt;Path&gt;" class="s1" d="m693.82 222.72l18.14-84.29-91.04-9.44c0 0 32.33 23.61 32.33 63.21 0 15.35-0.98 27.19-2.18 35.93-1.09 7.88 7.28 13.63 14.29 9.87z"/>
		<path id="&lt;Path&gt;" class="s1" d="m666.44 269.29q-0.15 0-0.31-0.02c-1.27-0.17-2.17-1.34-2-2.62 0.13-0.94 3.29-23.1 19.67-25.03 16.08-1.89 24.94 12.67 25.31 13.29 0.65 1.11 0.29 2.53-0.81 3.19-1.11 0.66-2.53 0.29-3.19-0.81-0.32-0.53-7.7-12.57-20.76-11.05-12.8 1.51-15.58 20.84-15.6 21.03-0.16 1.17-1.16 2.02-2.31 2.02z"/>
		<path id="&lt;Path&gt;" class="s1" d="m684.08 262.29c-0.72 0-1.43-0.33-1.89-0.96l-8.7-11.95c-0.75-1.05-0.53-2.5 0.52-3.26 1.04-0.75 2.49-0.52 3.25 0.51l8.7 11.96c0.75 1.04 0.52 2.5-0.52 3.25-0.41 0.3-0.89 0.45-1.36 0.45z"/>
		<path id="&lt;Path&gt;" class="s2" d="m536.08 219.24c0 0-8.45 21.65-8.79 25.34-0.33 3.7 8.79 11.74 8.79 11.74"/>
		<path id="&lt;Path&gt;" class="s1" d="m536.08 258.64c-0.54 0-1.09-0.19-1.53-0.58-3.01-2.65-9.97-9.29-9.58-13.69 0.35-3.83 7.51-22.31 8.95-25.97 0.47-1.2 1.82-1.79 3.01-1.32 1.2 0.46 1.79 1.81 1.32 3.01-3.22 8.25-8.42 22.25-8.64 24.7-0.03 1.39 3.79 6.05 8.01 9.78 0.97 0.85 1.06 2.32 0.21 3.28-0.46 0.53-1.1 0.79-1.75 0.79z"/>
		<path id="&lt;Path&gt;" class="s1" d="m255.57 505.8l-0.12 0.82c-80.59 106.69-115.5 491.66-104.62 509.25h118.09l119.85 2.74c10.01-208.61 14.63-437.08 104.98-614.97-129.92 11.41-238.18 102.16-238.18 102.16z"/>
		<path id="&lt;Path&gt;" class="s3" d="m691.08 404.49c-3.32-0.82-6.69-1.67-9.89-2.4l-92.39 9.88-29.91-11.31-24.73 12.99-26.02-8.48c-5.17 0.2-10.3 0.57-15.41 1.02-90.35 177.9-93.95 403.81-103.96 612.42l219.29-2.41c18.82-207.4 12.26-414.45 83.02-611.71z"/>
		<path id="&lt;Compound Path&gt;" class="s1" d="m388.77 1020.94c-0.63 0-1.24-0.26-1.68-0.71-0.44-0.47-0.68-1.09-0.64-1.73q1.11-23.42 2.17-47.09c8.96-197.26 18.22-401.24 102.04-566.28 0.36-0.71 1.07-1.19 1.87-1.26 5.87-0.52 10.8-0.84 15.52-1.02 0.28-0.04 0.55 0.02 0.81 0.11l25.08 8.17 23.87-12.53c0.59-0.31 1.28-0.35 1.9-0.11l29.4 11.11 91.83-9.83q0.39-0.04 0.77 0.05c2.51 0.57 5.13 1.22 7.74 1.87l2.19 0.54c0.64 0.16 1.18 0.58 1.49 1.16 0.32 0.59 0.37 1.27 0.14 1.89-53.27 148.49-62.84 306.07-72.09 458.45-3.04 50.01-6.18 101.71-10.8 152.69-0.11 1.18-1.1 2.1-2.3 2.11l-219.28 2.41q-0.02 0-0.03 0zm105.46-612.54c-82.83 163.93-92.04 366.91-100.96 563.22q-1.01 22.43-2.06 44.64l214.72-2.36c4.52-50.22 7.61-101.17 10.6-150.45 9.22-151.88 18.76-308.91 71.5-457.32-2.36-0.58-4.71-1.16-6.98-1.69l-92 9.85q-0.55 0.05-1.07-0.14l-28.94-10.94-23.8 12.5c-0.56 0.29-1.21 0.35-1.81 0.15l-25.61-8.35c-4.17 0.17-8.53 0.45-13.59 0.89z"/>
		<path id="&lt;Path&gt;" class="s1" d="m504.74 1018.75c0.03 0 4.05 0.72 7.15 0.01 0.53-0.12 2.09-207.43 2.03-207.97-4.8-44.22 16.41-257.99 25.46-349.27 2.36-23.78 4.07-40.97 4.42-46.06 0.04-0.53-0.37-1-0.9-1.04-0.55-0.06-1.01 0.37-1.05 0.91-0.35 5.05-2.05 22.23-4.41 46-9.83 99.08-30.28 305.25-25.46 349.67 0.05 0.5-1.51 204.89-7.24 207.75z"/>
		<path id="&lt;Compound Path&gt;" class="s1" d="m508.69 1020.23c-1.76 0-3.31-0.2-4.08-0.32h-4.94l4.39-2.13c4.92-8.19 6.95-197.15 6.75-206.74-4.82-44.46 15.64-250.71 25.47-349.83 2.27-22.84 4.06-40.88 4.41-45.96 0.08-1.12 1.01-2 2.11-2 0.75 0.05 1.27 0.31 1.64 0.74 0.38 0.43 0.56 0.99 0.52 1.56-0.36 5.16-2.15 23.22-4.42 46.09-9.06 91.35-30.24 304.95-25.47 349.03 0.05 0.42-0.39 58.89-0.78 104.27-0.22 25.96-0.47 51.9-0.69 71.36-0.37 33.35-0.37 33.35-1.45 33.59q-1.5 0.34-3.46 0.34zm-2.23-2.43c1.27 0.12 3.04 0.16 4.34-0.03 0.35-8.24 0.96-75.03 1.4-130.54-0.15 8.82-0.32 17.85-0.51 26.79-1.69 78.93-3.74 98.59-5.23 103.78z"/>
		<path id="&lt;Path&gt;" class="s1" d="m551.35 493.01c-4.08 0-7.37-3.3-7.37-7.37 0-4.08 3.29-7.38 7.37-7.38 4.08 0 7.37 3.3 7.37 7.38 0 4.07-3.29 7.37-7.37 7.37z"/>
		<path id="&lt;Path&gt;" class="s1" d="m553.95 489.33q0.26 0 0.46-0.2c0.26-0.25 0.26-0.66 0-0.91l-5.36-5.38c-0.25-0.25-0.67-0.25-0.92 0-0.25 0.26-0.25 0.67 0 0.92l5.36 5.37q0.2 0.19 0.46 0.2z"/>
		<path id="&lt;Path&gt;" class="s1" d="m548.58 489.32q-0.26 0-0.46-0.19c-0.25-0.26-0.25-0.67 0-0.92l5.38-5.36c0.25-0.26 0.66-0.26 0.92 0 0.25 0.25 0.25 0.66 0 0.92l-5.38 5.36q-0.2 0.19-0.46 0.19z"/>
		<path id="&lt;Path&gt;" class="s1" d="m558.33 446.46c-4.07 0-7.37-3.3-7.37-7.37 0-4.08 3.3-7.38 7.37-7.38 4.08 0 7.38 3.3 7.38 7.38 0 4.07-3.3 7.37-7.38 7.37z"/>
		<path id="&lt;Path&gt;" class="s1" d="m560.93 442.78q0.26 0 0.46-0.19c0.26-0.26 0.26-0.67 0-0.92l-5.36-5.38c-0.25-0.25-0.66-0.25-0.92 0-0.25 0.26-0.25 0.67 0 0.92l5.36 5.38q0.2 0.19 0.46 0.19z"/>
		<path id="&lt;Path&gt;" class="s1" d="m555.57 442.77q-0.26 0-0.46-0.19c-0.26-0.25-0.26-0.67 0-0.92l5.37-5.36c0.25-0.26 0.67-0.26 0.92 0 0.25 0.25 0.25 0.67 0 0.92l-5.37 5.36q-0.2 0.19-0.46 0.19z"/>
		<path id="&lt;Path&gt;" class="s1" d="m546.95 563.26c-4.08 0-7.38-3.29-7.38-7.37 0-4.08 3.3-7.37 7.38-7.37 4.07 0 7.37 3.29 7.37 7.37 0 4.08-3.3 7.37-7.37 7.37z"/>
		<path id="&lt;Path&gt;" class="s1" d="m549.54 559.58q0.27 0 0.46-0.19c0.26-0.25 0.26-0.67 0.01-0.92l-5.37-5.37c-0.25-0.26-0.66-0.26-0.92 0-0.25 0.25-0.25 0.66 0 0.92l5.36 5.37q0.2 0.19 0.46 0.19z"/>
		<path id="&lt;Path&gt;" class="s1" d="m544.18 559.57q-0.26 0-0.46-0.19c-0.26-0.25-0.26-0.66 0-0.92l5.37-5.36c0.26-0.25 0.67-0.25 0.92 0 0.25 0.26 0.25 0.67 0 0.92l-5.37 5.36q-0.2 0.2-0.46 0.19z"/>
		<path id="&lt;Path&gt;" class="s1" d="m538.19 644.79c-4.07 0-7.37-3.29-7.37-7.37 0-4.08 3.3-7.37 7.37-7.37 4.08 0 7.38 3.29 7.38 7.37 0 4.08-3.3 7.37-7.38 7.37z"/>
		<path id="&lt;Path&gt;" class="s1" d="m540.79 641.11q0.26 0 0.46-0.19c0.26-0.26 0.26-0.67 0-0.92l-5.36-5.38c-0.25-0.25-0.67-0.25-0.92 0-0.25 0.26-0.25 0.67 0 0.92l5.36 5.38q0.2 0.19 0.46 0.19z"/>
		<path id="&lt;Path&gt;" class="s1" d="m535.42 641.1q-0.26 0-0.46-0.19c-0.25-0.25-0.25-0.67 0-0.92l5.38-5.36c0.25-0.25 0.66-0.25 0.92 0 0.25 0.25 0.25 0.67 0 0.92l-5.38 5.36q-0.2 0.19-0.46 0.19z"/>
		<path id="&lt;Path&gt;" class="s1" d="m534.47 714.2c-4.08 0-7.37-3.3-7.37-7.37 0-4.08 3.29-7.38 7.37-7.38 4.08 0 7.37 3.3 7.37 7.38 0 4.07-3.29 7.37-7.37 7.37z"/>
		<path id="&lt;Path&gt;" class="s1" d="m537.07 710.51q0.26 0 0.46-0.19c0.25-0.25 0.25-0.66 0-0.92l-5.36-5.37c-0.26-0.25-0.67-0.25-0.92 0-0.26 0.26-0.26 0.67 0 0.92l5.36 5.37q0.2 0.19 0.46 0.19z"/>
		<path id="&lt;Path&gt;" class="s1" d="m531.7 710.51q-0.26 0-0.46-0.19c-0.25-0.26-0.25-0.67 0-0.92l5.37-5.36c0.26-0.26 0.67-0.26 0.92 0 0.26 0.25 0.26 0.66 0 0.92l-5.37 5.36q-0.2 0.19-0.46 0.19z"/>
		<path id="&lt;Path&gt;" class="s1" d="m530.59 775.49c-4.08 0-7.37-3.3-7.37-7.38 0-4.07 3.29-7.37 7.37-7.37 4.08 0 7.37 3.3 7.37 7.37 0 4.08-3.29 7.38-7.37 7.38z"/>
		<path id="&lt;Path&gt;" class="s1" d="m533.19 771.8q0.26 0 0.46-0.19c0.25-0.25 0.25-0.66 0-0.92l-5.36-5.37c-0.26-0.25-0.67-0.25-0.92 0-0.26 0.25-0.26 0.67 0 0.92l5.36 5.37q0.2 0.19 0.46 0.19z"/>
		<path id="&lt;Path&gt;" class="s1" d="m527.82 771.8q-0.26 0-0.46-0.19c-0.25-0.26-0.25-0.67 0-0.92l5.37-5.36c0.26-0.26 0.67-0.26 0.92 0 0.26 0.25 0.26 0.66 0 0.92l-5.37 5.36q-0.2 0.19-0.46 0.19z"/>
		<path id="&lt;Path&gt;" class="s1" d="m531.37 845.31c-4.08 0-7.38-3.29-7.38-7.37 0-4.08 3.3-7.37 7.38-7.37 4.07 0 7.37 3.29 7.37 7.37 0 4.08-3.3 7.37-7.37 7.37z"/>
		<path id="&lt;Path&gt;" class="s1" d="m533.96 841.63q0.26 0 0.46-0.19c0.26-0.26 0.26-0.67 0.01-0.92l-5.37-5.38c-0.25-0.25-0.66-0.25-0.92 0-0.25 0.26-0.25 0.67 0 0.92l5.36 5.38q0.2 0.19 0.46 0.19z"/>
		<path id="&lt;Path&gt;" class="s1" d="m528.6 841.62q-0.26 0-0.46-0.19c-0.26-0.25-0.26-0.67 0-0.92l5.37-5.36c0.26-0.25 0.67-0.25 0.92 0 0.25 0.25 0.25 0.67 0 0.92l-5.37 5.36q-0.2 0.19-0.46 0.19z"/>
		<path id="&lt;Path&gt;" class="s1" d="m533.27 919.1c-4.08 0-7.38-3.29-7.38-7.37 0-4.08 3.3-7.37 7.38-7.37 4.07 0 7.37 3.29 7.37 7.37 0 4.08-3.3 7.37-7.37 7.37z"/>
		<path id="&lt;Path&gt;" class="s1" d="m535.87 915.42q0.26 0 0.46-0.19c0.25-0.26 0.25-0.67 0-0.92l-5.37-5.37c-0.25-0.26-0.66-0.26-0.91 0-0.26 0.25-0.26 0.66-0.01 0.92l5.37 5.37q0.19 0.19 0.46 0.19z"/>
		<path id="&lt;Path&gt;" class="s1" d="m530.5 915.41q-0.26 0-0.46-0.19c-0.26-0.25-0.25-0.66 0-0.92l5.37-5.36c0.26-0.25 0.67-0.25 0.92 0 0.26 0.26 0.26 0.67 0 0.92l-5.37 5.36q-0.2 0.19-0.46 0.19z"/>
		<path id="&lt;Path&gt;" class="s1" d="m933.93 506.86c-44.97-35.89-162.17-84.49-243.9-104.68-70.77 197.25-63.15 406.62-81.97 614.02l238.95-2.62 91.1 0.76c45.27 0.38 82.58-35.8 83.15-81.07 2-156.81-38.82-394.94-87.33-426.41z"/>
		<path id="&lt;Path&gt;" class="s1" d="m530.35 974.44c-4.08 0-7.37-3.3-7.37-7.38 0-4.07 3.29-7.37 7.37-7.37 4.08 0 7.37 3.3 7.37 7.37 0 4.08-3.29 7.38-7.37 7.38z"/>
		<path id="&lt;Path&gt;" class="s1" d="m532.95 970.75q0.26 0 0.46-0.19c0.25-0.25 0.25-0.66 0-0.92l-5.36-5.37c-0.26-0.25-0.67-0.25-0.92 0-0.26 0.25-0.26 0.67 0 0.92l5.36 5.37q0.2 0.19 0.46 0.19z"/>
		<path id="&lt;Path&gt;" class="s1" d="m527.58 970.75q-0.26 0-0.46-0.19c-0.25-0.26-0.25-0.67 0-0.92l5.38-5.37c0.25-0.25 0.66-0.25 0.92 0.01 0.25 0.25 0.25 0.66-0.01 0.92l-5.37 5.36q-0.2 0.19-0.46 0.19z"/>
		<path id="&lt;Path&gt;" class="s3" d="m558.89 400.66c38.15 4.24 97.59-13.56 109.97-27.21l12.33 28.64c0 0-47.58 88.42-57.33 87.11-9.76-1.31-46.76-80.71-64.32-84.63-17.57-3.92-57.31 63.05-61.87 64.34-4.55 1.3 2.69-88.47 6.59-90.42 3.91-1.95-4.56 15.61 54.63 22.17z"/>
		<path id="&lt;Compound Path&gt;" class="s1" d="m624.08 491.55c-0.1 0-0.43-0.03-0.53-0.04-4.86-0.65-11.32-10.48-26-34.44-12.47-20.35-29.55-48.23-38.52-50.23q-0.49-0.11-1.04-0.11c-11.49 0-34.33 31.64-46.6 48.63-9.02 12.5-11.14 15.24-13.08 15.79-1.22 0.35-3.04 0.09-3.77-2.99-1.48-6.31-0.2-30.2 1.36-48.73 3.45-41.09 6.07-42.39 7.33-43.02q0.79-0.4 1.56-0.4c1.99 0 2.76 1.71 3.27 2.84 1.63 3.6 6.58 14.57 51.09 19.5 3.71 0.41 7.76 0.62 12.03 0.62 36.78 0 85.23-15.26 95.95-27.08 0.54-0.59 1.33-0.86 2.11-0.74 0.78 0.13 1.44 0.65 1.76 1.38l12.33 28.64c0.28 0.65 0.25 1.39-0.09 2.02-0.12 0.22-11.89 22.08-24.77 43.65-26.67 44.7-31.89 44.71-34.39 44.71zm-61.22-88.2c9.76 5.04 22.37 24.7 38.66 51.29 8.53 13.92 19.13 31.23 22.59 32.24 6.15-1.26 32.37-43.88 54.5-84.91l-10.59-24.57c-14.93 12.15-60.38 26.23-96.84 26.23q-4.32 0-8.32-0.28zm-57.89-20.29c-3.15 14.01-7.29 67.95-6.26 81.59 2.18-2.68 5.58-7.4 8.91-12.01 17.01-23.56 34.55-46.61 47.22-50.11-37.52-4.68-46.73-14.06-49.87-19.47z"/>
		<path id="&lt;Path&gt;" class="s1" d="m504.2 454.34c-2.92 0-5.27-3.27-5.27-7.32 0-4.05 2.35-7.33 5.27-7.33 2.91 0 5.27 3.28 5.27 7.33 0 4.05-2.36 7.32-5.27 7.32z"/>
		<path id="&lt;Path&gt;" class="s1" d="m625.18 471.42c-4.07 0-7.37-3.29-7.37-7.37 0-4.08 3.3-7.37 7.37-7.37 4.08 0 7.38 3.29 7.38 7.37 0 4.08-3.3 7.37-7.38 7.37z"/>
		<path id="&lt;Path&gt;" class="s1" d="m627.78 467.74q0.26 0 0.46-0.19c0.26-0.26 0.26-0.67 0-0.92l-5.36-5.37c-0.25-0.26-0.67-0.26-0.92 0-0.25 0.25-0.25 0.66 0 0.92l5.36 5.37q0.2 0.19 0.46 0.19z"/>
		<path id="&lt;Path&gt;" class="s1" d="m622.41 467.73q-0.26 0-0.46-0.19c-0.25-0.25-0.25-0.66 0.01-0.92l5.37-5.36c0.25-0.25 0.66-0.25 0.92 0 0.25 0.26 0.25 0.67 0 0.92l-5.38 5.36q-0.2 0.19-0.46 0.19z"/>
		<path id="&lt;Path&gt;" class="s2" d="m514.61 287.13c0 0 30.91 20.21 57.46-1.58"/>
		<path id="&lt;Path&gt;" class="s1" d="m544.2 297.92c-17.05 0-30.66-8.7-30.87-8.84-1.07-0.7-1.37-2.14-0.67-3.22 0.7-1.07 2.14-1.38 3.22-0.68 1.21 0.79 29.83 19 54.71-1.43 1-0.82 2.46-0.67 3.28 0.32 0.81 0.99 0.67 2.46-0.33 3.27-9.72 7.99-20.04 10.58-29.34 10.58z"/>
		<path id="&lt;Path&gt;" class="s2" d="m568.99 279.79l6.95 10.32"/>
		<path id="&lt;Path&gt;" class="s1" d="m575.94 292.44c-0.75 0-1.48-0.36-1.93-1.03l-6.95-10.32c-0.72-1.06-0.44-2.51 0.63-3.23 1.06-0.71 2.51-0.43 3.23 0.63l6.95 10.32c0.72 1.06 0.44 2.51-0.63 3.23q-0.61 0.4-1.3 0.4z"/>
		<path id="&lt;Path&gt;" class="s2" d="m528.48 310.91c0 0-5.55 13.47 5.55 21.4"/>
		<path id="&lt;Path&gt;" class="s1" d="m534.02 334.63c-0.46 0-0.94-0.14-1.35-0.43-9.96-7.12-8.51-18.93-6.34-24.18 0.49-1.19 1.85-1.75 3.04-1.26 1.18 0.48 1.75 1.84 1.26 3.03-0.2 0.5-4.67 11.9 4.75 18.62 1.04 0.75 1.29 2.2 0.54 3.25-0.45 0.63-1.17 0.97-1.9 0.97z"/>
		<path id="&lt;Compound Path&gt;" class="s1" d="m584.75 254.98c-18.16 0-32.84-15.92-32.84-35.61 0-19.7 14.68-35.61 32.84-35.61 18.16 0 32.84 15.91 32.84 35.61 0 19.69-14.68 35.61-32.84 35.61zm0-4.65c-15.59 0-28.19-13.84-28.19-30.96 0-17.12 12.6-30.96 28.19-30.96 15.58 0 28.18 13.84 28.18 30.96 0 17.12-12.6 30.96-28.18 30.96z"/>
		<path id="&lt;Compound Path&gt;" class="s1" d="m494.4 254.98c-18.16 0-32.84-15.92-32.84-35.61 0-19.7 14.68-35.61 32.84-35.61 18.16 0 32.84 15.91 32.84 35.61 0 19.69-14.68 35.61-32.84 35.61zm0-4.65c-15.59 0-28.19-13.84-28.19-30.96 0-17.12 12.6-30.96 28.19-30.96 15.59 0 28.18 13.84 28.18 30.96 0 17.12-12.59 30.96-28.18 30.96z"/>
		<path id="&lt;Path&gt;" class="s1" d="m554.24 223.67c-0.67 0-1.34-0.28-1.8-0.84-0.06-0.07-6.3-7.48-14.07-7.59-4.23-0.1-8.2 2.04-11.91 6.26-0.85 0.96-2.32 1.06-3.28 0.21-0.97-0.85-1.06-1.56-0.21-2.53 4.58-5.2 9.7-7.08 15.22-7.08q0.14 0 0.28 0c9.93 0 17.26 8.15 17.56 8.53 0.82 0.99 0.68 2.07-0.31 2.89-0.43 0.36-0.96 0.15-1.48 0.15z"/>
		<path id="&lt;Path&gt;" class="s1" d="m659.16 231.29h-44.22c-1.28 0-2.33-1.45-2.33-2.74 0-1.29 1.05-2.74 2.33-2.74h44.22c1.29 0 2.33 1.45 2.33 2.74 0 1.29-1.04 2.74-2.33 2.74z"/>
		<path id="&lt;Path&gt;" class="s2" d="m630.85 75.35c-18.81 2.87-36.7-7.42-50.25 10.87-6.35 8.56-11.22 17.98-22.63 20.22-5.65 1.11-11.54 0.21-16.98-1.65-10.52-3.59-31.17-14.18-22.87-28.71 2.66-4.65 8.16-6.83 13.4-7.92 11.32-2.35 22.93-1.2 34.39-1.09 9.02 0.08 20.68 1.57 28.09-4.81 8.03-6.92 8.14-24.36 21.77-23.58 9.69 0.56 19.22 10.28 23.16 18.57 2.61 5.52 2.25 13.25-2.95 16.44-1.54 0.95-3.34 1.39-5.13 1.66z"/>
		<path id="&lt;Compound Path&gt;" class="s1" d="m552.85 108.09c-3.85 0-7.97-0.74-12.24-2.2-3.4-1.16-20.57-7.5-24.7-18.45-1.49-3.93-1.08-7.95 1.2-11.94 2.39-4.17 7.15-7.02 14.18-8.48 4.96-1.03 10.25-1.49 17.14-1.49 3.19 0 6.39 0.1 9.58 0.19q3.96 0.14 7.91 0.19 2 0.02 4.14 0.09c1.76 0.06 3.58 0.12 5.4 0.12 6.08 0 12.93-0.57 17.78-4.75 2.77-2.38 4.63-6.3 6.42-10.09 3.33-7.02 6.75-14.31 16.18-13.76 10.03 0.58 19.92 10.34 24.14 19.24 2.86 6.03 2.37 14.39-3.39 17.93-1.87 1.14-3.96 1.57-5.57 1.81-2.46 0.38-5.09 0.56-8.02 0.56-3.34 0-6.64-0.23-9.83-0.46-3.1-0.22-6.04-0.43-8.93-0.43-7.66 0-15.71 1.3-22.71 10.74q-1.43 1.94-2.79 3.9c-5.12 7.27-10.41 14.78-20.55 16.77q-2.57 0.51-5.34 0.51zm-4.42-40.23c-6.73 0-11.87 0.44-16.67 1.44-6.34 1.32-10.59 3.79-12.63 7.35-1.92 3.37-2.27 6.72-1.04 9.97 2.92 7.73 14.36 14.02 23.27 17.07 5.91 2.02 11.49 2.57 16.38 1.61 9.23-1.81 14.02-8.62 19.09-15.82q1.39-1.99 2.83-3.96c7.63-10.29 16.71-11.68 24.58-11.68 2.98 0 5.95 0.21 9.1 0.44 3.15 0.22 6.4 0.45 9.66 0.45 2.81 0 5.32-0.17 7.67-0.53 2.07-0.31 3.52-0.78 4.7-1.5 4.59-2.81 4.87-9.95 2.5-14.95-3.98-8.4-13.37-17.4-22.17-17.9-7.81-0.46-10.79 5.79-13.93 12.42-1.9 4.01-3.87 8.16-7.01 10.87-5.42 4.67-12.8 5.3-19.3 5.3-1.85 0-3.69-0.05-5.47-0.11q-2.12-0.07-4.09-0.1-3.98-0.05-7.96-0.18c-3.17-0.1-6.34-0.19-9.51-0.19z"/>
		<path id="&lt;Path&gt;" class="s2" d="m624.67 772.83q-0.52 0-1.01-0.23c-1.16-0.56-1.65-1.95-1.09-3.11l74.69-155.75-14.33-55.03c-0.14-0.54-0.08-1.11 0.16-1.61l66.33-136.73c0.56-1.16 1.95-1.64 3.11-1.08 1.16 0.56 1.64 1.95 1.08 3.11l-65.96 135.96 14.33 55.03c0.14 0.53 0.08 1.1-0.15 1.6l-75.06 156.52c-0.4 0.83-1.24 1.32-2.1 1.32z"/>
		<path id="&lt;Path&gt;" class="s2" d="m404.14 745.48c-1.13 0-2.12-0.83-2.3-1.98l-22.11-146.63c-0.09-0.6 0.06-1.21 0.41-1.7l34.6-48.44 22.02-133.29c0.21-1.27 1.41-2.14 2.67-1.92 1.27 0.21 2.13 1.41 1.92 2.68l-22.11 133.83q-0.09 0.53-0.4 0.97l-34.37 48.11 21.97 145.69c0.2 1.28-0.68 2.46-1.95 2.65q-0.18 0.03-0.35 0.03z"/>
		<path id="&lt;Path&gt;" class="s2" d="m669 867.48c0 0 18.07 13.55 24.09 32.37l-3.01 112.19-176.19-3.76-66.26-31.62 42.17-94.88z"/>
		<path id="&lt;Compound Path&gt;" class="s1" d="m690.08 1014.37q-0.02 0-0.05 0l-176.19-3.76q-0.5-0.01-0.95-0.23l-66.26-31.62c-1.14-0.55-1.64-1.9-1.13-3.05l42.17-94.87c0.35-0.78 1.09-1.31 1.94-1.38l179.2-14.3c0.57-0.05 1.13 0.11 1.59 0.45 0.76 0.57 18.73 14.22 24.91 33.53q0.12 0.38 0.11 0.77l-3.01 112.2c-0.03 1.26-1.07 2.26-2.33 2.26zm-175.64-8.41l173.38 3.71 2.94-109.48c-5.18-15.67-19.24-27.7-22.48-30.32l-176.92 14.12-40.68 91.54z"/>
		<path id="&lt;Path&gt;" class="s2" d="m481.08 848.75l-30.23 69.66c-5.39 12.44 2.27 24.52 17.11 27.03 12.31 2.08 25.61-3.17 32.89-12.1-1.48 10.39 5.89 19.54 18.57 21.69 9.71 1.64 20.03-1.29 27.56-6.97 1.4 7.91 8.12 14.33 18.44 16.08 12.48 2.1 25.99-3.3 33.2-12.46 1.17 7.19 7.22 13.04 16.57 14.62 13.3 2.25 28-4.96 32.84-16.09l27.1-62.45c1.26-2.9 1.72-5.77 1.49-8.48-0.66-7.71-6.98-14.09-16.83-15.75-9.29-1.57-19.21 1.54-26.02 7.32 0.16-1.28 0.27-2.55 0.17-3.78-0.74-8.61-7.79-15.72-18.77-17.58-9.75-1.64-20.1 1.32-27.63 7.02-1.39-7.92-8.04-14.38-18.37-16.13-12.31-2.08-25.59 3.16-32.88 12.08 0.2-1.38 0.3-2.76 0.18-4.09-0.73-8.6-7.78-15.72-18.76-17.57-14.84-2.51-31.23 5.53-36.63 17.95z"/>
		<path id="&lt;Compound Path&gt;" class="s1" d="m620.16 969.04q-2.73 0-5.35-0.44c-8.27-1.4-14.54-5.96-17.25-12.29-6.8 6.54-16.82 10.61-26.65 10.61q-3 0-5.88-0.49c-9.54-1.61-16.7-7.07-19.44-14.6-7.87 4.88-17.77 6.97-26.55 5.49-11.2-1.89-19.03-9.2-20.46-18.33-6.73 5.78-15.9 9.23-25.13 9.23q-3 0-5.88-0.49c-8.31-1.4-15.02-5.78-18.4-12-3-5.52-3.16-12-0.46-18.25l30.23-69.66c4.99-11.48 18.96-19.81 33.23-19.81q3.02 0 5.92 0.49c11.17 1.89 19.07 8.98 20.53 18.27 6.72-5.75 15.86-9.17 25.06-9.17q2.99 0 5.88 0.49c9.51 1.6 16.64 7.09 19.37 14.64 7.88-4.91 17.81-7.02 26.62-5.53 11.47 1.94 19.49 9.36 20.64 19.01 7.07-4.43 15.97-6.33 23.99-4.98 10.62 1.8 17.98 8.81 18.76 17.86 0.27 3.18-0.29 6.41-1.67 9.59l-27.1 62.45c-4.51 10.38-17.13 17.91-30.01 17.91zm-21.54-19.69q0.29 0 0.58 0.08c0.9 0.23 1.57 0.97 1.72 1.88 1.05 6.48 6.67 11.35 14.66 12.7q2.24 0.38 4.58 0.38c11.11 0 21.93-6.36 25.74-15.11l27.09-62.45c1.08-2.47 1.51-4.94 1.31-7.35-0.59-6.87-6.43-12.23-14.9-13.66q-2.2-0.37-4.5-0.37c-7.1 0-14.25 2.61-19.63 7.18-0.73 0.62-1.77 0.72-2.61 0.27-0.85-0.46-1.32-1.38-1.2-2.34 0.13-1.08 0.25-2.23 0.16-3.29-0.67-7.79-7.28-13.87-16.84-15.48-8.66-1.47-18.59 1.08-25.84 6.58-0.65 0.49-1.5 0.61-2.25 0.31-0.76-0.3-1.31-0.97-1.45-1.77-1.27-7.28-7.58-12.73-16.46-14.23q-2.5-0.42-5.1-0.42c-9.75 0-19.79 4.58-25.59 11.67-0.66 0.81-1.78 1.08-2.73 0.66-0.96-0.41-1.52-1.42-1.37-2.45 0.2-1.43 0.25-2.56 0.16-3.57-0.66-7.79-7.27-13.86-16.83-15.48q-2.52-0.42-5.15-0.43c-12.5 0-24.67 7.16-28.96 17.02l-30.23 69.65c-2.12 4.9-2.02 9.94 0.28 14.18 2.69 4.96 8.19 8.47 15.09 9.63q2.49 0.42 5.1 0.42c9.76 0 19.8-4.59 25.6-11.69 0.66-0.81 1.77-1.08 2.73-0.66 0.96 0.42 1.52 1.43 1.38 2.46-1.34 9.34 5.51 17.18 16.65 19.06 8.63 1.46 18.53-1.07 25.77-6.53 0.64-0.48 1.5-0.6 2.25-0.3 0.76 0.3 1.3 0.96 1.44 1.76 1.28 7.24 7.62 12.68 16.54 14.18q2.49 0.42 5.1 0.42c9.97 0 20.13-4.71 25.88-12.02 0.45-0.57 1.13-0.89 1.83-0.89z"/>
		<path id="&lt;Path&gt;" class="s1" d="m501.73 933.77c-0.29 0.33-0.79 0.52-1.26 0.44-0.57-0.1-0.86-0.56-0.65-1.04l35.44-80.88c0.21-0.48 0.84-0.79 1.41-0.7 0.58 0.11 0.87 0.57 0.66 1.05l-35.45 80.88q-0.05 0.13-0.15 0.25z"/>
		<path id="&lt;Path&gt;" class="s1" d="m547.86 948.49c-0.28 0.32-0.76 0.51-1.21 0.45-0.59-0.08-0.9-0.53-0.72-1.02l19.38-49.98c0.17-0.48 0.81-0.8 1.38-0.73 0.59 0.08 0.9 0.53 0.72 1.02l-19.38 49.98q-0.06 0.16-0.17 0.28z"/>
		<path id="&lt;Path&gt;" class="s1" d="m608.73 932.31c-0.27 0.31-0.74 0.5-1.2 0.44-0.58-0.07-0.91-0.52-0.72-1l21.21-56.77c0.17-0.49 0.8-0.81 1.38-0.74 0.58 0.08 0.91 0.53 0.73 1.01l-21.22 56.76q-0.06 0.17-0.18 0.3z"/>
		<path id="&lt;Path&gt;" class="s1" d="m599.5 952.11c-0.26 0.3-0.71 0.49-1.15 0.45-0.59-0.05-0.95-0.48-0.8-0.97l2.52-8.02c0.17-0.5 0.76-0.85 1.34-0.79 0.59 0.05 0.95 0.48 0.8 0.97l-2.52 8.02q-0.06 0.19-0.19 0.34z"/>
		<path id="&lt;Path&gt;" class="s1" d="m497.89 911.68q0 0.14-0.03 0.27l-5.17 18.59c-0.08 0.28-0.3 0.53-0.62 0.68-0.48 0.25-12.04 5.98-24.85 3-0.57-0.14-0.82-0.66-0.58-1.13 0.26-0.49 0.93-0.77 1.5-0.64 10.41 2.41 20.18-1.5 22.44-2.51l4.93-17.72c-9.64-9.38-26.53-5.85-30.14-4.96l-4.57 15.4c-0.15 0.5-0.76 0.88-1.38 0.83-0.61-0.04-0.98-0.51-0.84-0.99l4.75-15.99c0.09-0.35 0.43-0.65 0.86-0.78 0.22-0.06 21.92-6.25 33.49 5.52q0.18 0.19 0.21 0.43z"/>
		<path id="&lt;Path&gt;" class="s1" d="m546.76 926.21q-0.01 0.13-0.06 0.26l-6.88 18.43c-0.1 0.28-0.35 0.52-0.67 0.65-0.5 0.23-12.44 5.28-24.79 1.49-0.54-0.18-0.74-0.72-0.46-1.18 0.31-0.48 0.99-0.72 1.55-0.55 10.03 3.08 20.03-0.27 22.36-1.14l6.56-17.57c-8.6-10.05-25.59-7.54-29.24-6.87l-5.98 15.25c-0.19 0.5-0.83 0.84-1.44 0.75-0.6-0.08-0.92-0.57-0.73-1.05l6.21-15.84c0.13-0.34 0.49-0.62 0.93-0.73 0.22-0.04 22.2-4.94 32.48 7.65q0.16 0.19 0.16 0.45z"/>
		<path id="&lt;Path&gt;" class="s1" d="m596.89 932.97q0 0.14-0.05 0.27l-6.89 18.42c-0.1 0.28-0.34 0.52-0.67 0.66-0.5 0.22-12.44 5.28-24.78 1.48-0.55-0.18-0.75-0.71-0.47-1.17 0.31-0.48 0.99-0.73 1.55-0.56 10.03 3.08 20.04-0.26 22.36-1.14l6.56-17.56c-8.6-10.06-25.59-7.55-29.24-6.87l-5.98 15.24c-0.19 0.5-0.83 0.84-1.43 0.76-0.61-0.08-0.93-0.58-0.74-1.06l6.22-15.83c0.13-0.35 0.49-0.63 0.92-0.73 0.22-0.05 22.2-4.94 32.48 7.64q0.16 0.2 0.16 0.45z"/>
		<path id="&lt;Path&gt;" class="s1" d="m647.56 935.89q-0.01 0.13-0.05 0.25l-6.52 17.46c-0.1 0.26-0.33 0.49-0.64 0.62-0.47 0.21-11.78 5-23.48 1.4-0.52-0.17-0.7-0.68-0.43-1.11 0.28-0.46 0.93-0.69 1.46-0.53 9.5 2.92 18.98-0.25 21.18-1.08l6.21-16.63c-8.14-9.53-24.24-7.15-27.69-6.51l-5.66 14.44c-0.19 0.47-0.8 0.8-1.37 0.71-0.57-0.07-0.87-0.54-0.69-0.99l5.89-15c0.12-0.33 0.46-0.6 0.87-0.69 0.21-0.05 21.03-4.68 30.77 7.24q0.15 0.18 0.15 0.42z"/>
		<path id="&lt;Path&gt;" class="s2" d="m303.29 532.91c2.68-17.74 9.99-72.51 0.64-94.34 1.09-41.44 3.64-81.03 7.49-90.22 4.32-11-0.69-23.46-11.69-27.78-11-4.32-23.46 0.68-27.78 11.68-4.32 11.01-7.15 33.07-8.64 57.42-17.51-14.75-34.26-24.93-34.26-24.93 0 0-120.18 64.75-115.25 96.11 1.27 10.03 3.64 21.79 14.15 41.02 7.76 26.38 4.66 77.58 6.21 108.62 56.64 3.05 110.29-4.31 166.02 7.76 3.11-42.67 3.11-85.34 3.11-85.34z"/>
		<path id="&lt;Compound Path&gt;" class="s1" d="m300.18 620.57q-0.24 0-0.49-0.05c-29.26-6.34-57.7-7.21-84.07-7.21-7.64 0-15.29 0.08-22.97 0.16-7.74 0.08-15.5 0.17-23.31 0.17-13.65 0-24.87-0.27-35.3-0.83-1.19-0.06-2.14-1.02-2.2-2.21-0.48-9.41-0.52-20.61-0.57-32.46-0.1-26.84-0.22-57.24-5.48-75.37-10.85-19.9-13.07-31.92-14.3-41.63-5.03-31.99 104.01-91.74 116.46-98.45 0.72-0.39 1.61-0.37 2.31 0.06 0.16 0.1 14.89 9.1 31.02 22.22 1.73-25.02 4.72-43.94 8.5-53.57 3.51-8.93 12.08-14.7 21.84-14.7 3.06 0 6.08 0.57 8.96 1.7 11.99 4.71 17.82 18.53 13 30.8-3.27 7.81-6.06 41.85-7.31 88.93 8.99 21.97 2.58 73.51-0.66 94.95 0 3.05-0.13 44.45-3.11 85.33-0.04 0.68-0.38 1.29-0.92 1.7-0.41 0.3-0.9 0.46-1.4 0.46zm-84.56-11.92c25.85 0 53.67 0.84 82.43 6.77 2.88-41.21 2.91-82.1 2.91-82.51q0-0.18 0.03-0.35c2.48-16.47 9.89-71.85 0.8-93.08q-0.2-0.47-0.18-0.98c0.47-18.2 2.44-78.58 7.66-91.05 3.86-9.84-0.79-20.94-10.39-24.71-2.34-0.92-4.78-1.39-7.26-1.39-7.83 0-14.7 4.62-17.5 11.75-3.84 9.77-6.85 29.9-8.49 56.71-0.05 0.88-0.6 1.65-1.41 2-0.81 0.34-1.74 0.21-2.41-0.36-14.59-12.29-28.81-21.48-32.84-24.02-33.82 18.36-116.66 68.96-112.87 93.06 1.19 9.39 3.33 20.95 13.9 40.27q0.11 0.22 0.19 0.46c5.51 18.73 5.63 49.63 5.74 76.9 0.04 10.92 0.08 21.29 0.46 30.15 9.76 0.48 20.3 0.71 32.95 0.71 7.79 0 15.54-0.08 23.26-0.16 7.69-0.08 15.36-0.17 23.02-0.17z"/>
		<path id="&lt;Path&gt;" class="s1" d="m232.52 533.97c0 0 0.46 0.11 0 0q1.72-1.01 0.71-2.73c-37.56-58.78 11.89-97.8 13.72-99.26 0.69-0.79 0.93-1.7 0.14-2.39-0.79-0.69-1.7-0.93-2.39-0.14-0.57 0.34-53.81 42.74-14.57 104.38 0.79 0.69 1.7 0.93 2.39 0.14z"/>
		<path id="&lt;Compound Path&gt;" class="s1" d="m208.62 143.85c23.23-54.42 86.39-79.75 140.81-56.52 54.41 23.22 79.75 86.38 56.52 140.8-23.23 54.42-86.39 79.75-140.81 56.52-54.41-23.22-79.75-86.38-56.52-140.8zm9.36 4.12c-20.97 49.21 1.95 106.42 51.16 127.38 49.2 20.97 106.41-1.95 127.38-51.15 20.97-49.21-1.95-106.41-51.16-127.38-49.17-21.07-106.41 1.95-127.38 51.15z"/>
		<path id="&lt;Path&gt;" class="s1" d="m279.89 287.59l-17.99-6.66-12.14 32.78 17.99 6.66z"/>
		<path id="&lt;Path&gt;" class="s1" d="m275.8 319.73l-31.72-11.75-31.44 84.92 31.72 11.74z"/>
		<path id="&lt;Path&gt;" class="s1" d="m243.5 303.91l35.39 13.11c0.39 0.14 0.57 0.54 0.43 0.93l-1.79 4.83c-0.14 0.39-0.54 0.57-0.93 0.43l-35.4-13.11c-0.38-0.14-0.57-0.54-0.42-0.92l1.79-4.84c0.14-0.39 0.54-0.57 0.93-0.43z"/>
		<path id="&lt;Path&gt;" class="s2" d="m168.47 342.18l72.04 27c12.82 4.79 19.28 19.09 14.49 31.91-3.75 10.66-14.63 17.05-25.55 16.14 9.5 6.36 13.71 18.13 9.39 29.13-3.15 8.39-10.5 14.24-18.59 15.53 5.96 6.89 8.38 16.25 4.65 24.98-4.2 10.55-14.63 17.05-26 16.03 5.29 5.74 7.37 14.53 4.21 22.92-4.43 11.46-17.13 17.37-28.59 12.93l-64.54-24.08c-3.07-1.29-5.56-2.9-7.93-4.98-6.2-5.98-8.61-15.34-5.46-23.73 3.04-7.94 10.27-13.34 18.24-14.17-1.24-0.81-2.49-1.62-3.16-2.76-6.99-6.68-9.62-17.06-5.78-26.25 3.16-8.39 10.5-14.24 18.6-15.53-5.97-6.89-8.38-16.25-5.11-25.1 3.75-10.66 14.63-17.05 25.55-16.14-1.24-0.81-2.49-1.62-3.61-2.88-7-6.68-9.63-17.06-5.78-26.25 5.7-12.58 20.11-19.5 32.93-14.7z"/>
		<path id="&lt;Compound Path&gt;" class="s1" d="m182.38 542.56c-2.97 0-5.89-0.55-8.7-1.64l-64.52-24.07c-3.25-1.36-5.97-3.07-8.64-5.4-7.16-6.91-9.53-17.21-6.11-26.31 2.69-7.03 8.48-12.42 15.42-14.66-7.68-7.5-10.12-18.95-6.08-28.6 2.9-7.73 9.14-13.65 16.71-16.06-5.03-7.43-6.26-16.35-3.26-24.47 3.28-9.35 11.69-16.01 21.59-17.46-7.11-7.38-9.34-18.5-5.4-27.91 4.8-10.59 15.49-17.66 26.63-17.66 3.18 0 6.29 0.56 9.27 1.68l72.03 27c6.78 2.53 12.16 7.56 15.16 14.16 2.99 6.59 3.23 13.96 0.7 20.74-3.29 9.35-11.71 16.01-21.63 17.45 7 7.42 9.28 18.14 5.46 27.86-2.92 7.77-9.16 13.7-16.73 16.11 5.11 7.55 6.17 16.47 2.76 24.46-3.95 9.92-13.03 16.6-23.5 17.45 3.77 6.31 4.49 14.14 1.75 21.41-3.69 9.53-12.89 15.92-22.91 15.92zm-39.51-154.31c-9.65 0-18.21 5.9-21.29 14.68-2.83 7.65-1.08 16.16 4.67 22.8 0.55 0.64 0.72 1.52 0.43 2.32-0.29 0.79-0.99 1.37-1.82 1.5-7.44 1.18-14.02 6.7-16.79 14.05-3.37 8.06-1.27 17.57 5.21 23.74q0.23 0.23 0.4 0.51c0.39 0.67 1.42 1.34 2.42 1.99 0.83 0.54 1.23 1.54 1 2.49-0.23 0.96-1.04 1.67-2.02 1.77-7.25 0.76-13.66 5.74-16.31 12.69-2.77 7.35-0.85 15.69 4.9 21.23 2.2 1.92 4.52 3.37 7.2 4.5l64.47 24.05q3.44 1.33 7.04 1.33c8.11 0 15.57-5.19 18.56-12.92 2.71-7.19 1.27-15.06-3.75-20.51-0.66-0.7-0.8-1.74-0.38-2.6 0.43-0.87 1.34-1.37 2.3-1.29 10.37 0.92 19.82-5 23.63-14.57 3.17-7.44 1.58-15.87-4.25-22.6-0.56-0.64-0.72-1.52-0.43-2.32 0.29-0.79 0.99-1.37 1.82-1.5 7.43-1.18 14.02-6.7 16.79-14.05 3.79-9.66 0.28-20.49-8.51-26.37-0.89-0.59-1.26-1.7-0.91-2.71 0.35-0.99 1.34-1.6 2.39-1.55 10.28 0.87 19.88-5.25 23.16-14.59 2.12-5.67 1.91-11.78-0.56-17.24-2.48-5.46-6.94-9.62-12.55-11.72l-72.04-27c-2.44-0.92-5.01-1.38-7.63-1.38-9.35 0-18.33 5.97-22.36 14.86-3.32 7.92-1.21 17.43 5.26 23.6 1.05 1.17 2.09 1.84 3.28 2.62 0.89 0.58 1.28 1.69 0.93 2.7-0.34 1.01-1.32 1.66-2.39 1.57q-0.93-0.08-1.87-0.08z"/>
		<path id="&lt;Path&gt;" class="s1" d="m229.67 418.26c0.45 0.12 1.02-0.22 1.14-0.67 0.12-0.46-0.21-1.03-0.67-1.15l-84.06-31.1c-0.46-0.12-1.03 0.21-1.15 0.67-0.12 0.45 0.22 1.02 0.67 1.14z"/>
		<path id="&lt;Path&gt;" class="s1" d="m229.86 419.45c-0.1 0-0.39-0.04-0.49-0.06l-84.17-31.15c-0.4-0.09-0.86-0.45-1.15-0.95-0.29-0.49-0.38-1.06-0.24-1.58 0.23-0.89 1.12-1.56 2.07-1.56 0.1 0 0.39 0.04 0.49 0.06l84.17 31.14c0.98 0.25 1.68 1.45 1.4 2.53-0.23 0.89-1.13 1.57-2.08 1.57z"/>
		<path id="&lt;Path&gt;" class="s1" d="m220.47 462.91c0.45 0.12 0.57-0.33 1.14-0.67 0.12-0.45-0.22-1.02-0.67-1.14l-50.8-20.99c-0.46-0.12-1.03 0.22-1.15 0.67-0.12 0.45 0.22 1.03 0.67 1.14l50.81 20.99q-0.18 0.69 0 0z"/>
		<path id="&lt;Path&gt;" class="s1" d="m220.38 464.42q-0.15 0-0.3-0.04c-0.37-0.1-0.66-0.37-0.79-0.7l-50.07-20.68c-0.36-0.08-0.82-0.44-1.11-0.93-0.29-0.49-0.38-1.07-0.25-1.58 0.24-0.9 1.13-1.57 2.08-1.57 0.1 0 0.39 0.04 0.49 0.06l50.95 21.04c0.94 0.23 1.64 1.43 1.36 2.52-0.08 0.29-0.27 0.55-0.54 0.71q-0.14 0.09-0.29 0.23c-0.13 0.13-0.32 0.32-0.58 0.45-0.22 0.3-0.57 0.49-0.95 0.49z"/>
		<path id="&lt;Path&gt;" class="s1" d="m179.03 497.24c0.45 0.11 0.57-0.34 1.14-0.68 0.12-0.45-0.21-1.02-0.67-1.14l-57.14-24.58c-0.46-0.12-1.03 0.22-1.15 0.67-0.12 0.45 0.22 1.03 0.67 1.15l57.15 24.58q-0.68-0.18 0 0z"/>
		<path id="&lt;Path&gt;" class="s1" d="m179.17 498.42q-0.11 0-0.27-0.03-0.08-0.01-0.16-0.03h-0.01l-0.34-0.08q-0.29-0.08-0.49-0.28l-56.48-24.28c-0.34-0.07-0.8-0.43-1.09-0.92-0.29-0.49-0.38-1.07-0.24-1.58 0.23-0.9 1.12-1.57 2.08-1.57 0.1 0 0.38 0.04 0.48 0.06l57.31 24.64c0.35 0.08 0.81 0.44 1.1 0.93 0.29 0.49 0.37 1.07 0.24 1.58-0.08 0.3-0.27 0.55-0.54 0.71q-0.14 0.09-0.28 0.23c-0.24 0.23-0.65 0.62-1.31 0.62z"/>
		<path id="&lt;Path&gt;" class="s1" d="m199.45 504.5c0.46 0.11 0.57-0.34 1.15-0.68 0.11-0.45 0.23-0.91-0.68-1.14l-7.7-3.95c-0.45-0.12-0.91-0.23-1.14 0.67-0.12 0.46-0.24 0.91 0.67 1.15z"/>
		<path id="&lt;Path&gt;" class="s1" d="m199.59 505.68c-0.1 0-0.34-0.03-0.43-0.06q-0.12-0.03-0.24-0.09l-7.6-3.89q-1.09-0.34-1.39-1.2c-0.19-0.54-0.06-1.01 0.02-1.33 0.38-1.46 1.4-1.62 1.82-1.62 0.29 0 0.54 0.06 0.74 0.11q0.13 0.04 0.24 0.1l7.6 3.89c0.76 0.23 1.81 0.86 1.37 2.53-0.07 0.29-0.27 0.55-0.53 0.71q-0.15 0.09-0.29 0.23c-0.24 0.23-0.64 0.62-1.31 0.62z"/>
		<path id="&lt;Path&gt;" class="s1" d="m309.49 581.01v128.78h-199.38v-128.78z"/>
		<path id="&lt;Path&gt;" class="s1" d="m769.22 987.77v11.27h-29.71v-11.27z"/>
		<path id="&lt;Path&gt;" class="s1" d="m731.82 987.77v11.27h-29.72v-11.27z"/>
		<path id="&lt;Path&gt;" class="s1" d="m694.67 987.77v11.27h-29.71v-11.27z"/>
		<path id="&lt;Path&gt;" class="s1" d="m658.81 987.77v11.27h-29.72v-11.27z"/>
		<path id="&lt;Path&gt;" class="s1" d="m620.64 987.77v11.27h-29.72v-11.27z"/>
		<path id="&lt;Path&gt;" class="s1" d="m584.78 987.77v11.27h-29.72v-11.27z"/>
		<path id="&lt;Path&gt;" class="s4" d="m62.1 678.68l432.88 5.77c7.78 0.1 14.4 5.71 15.76 13.38l54.31 304.76c1.77 9.92-5.83 19.04-15.91 19.08l-430.04 1.82c-7.86 0.04-14.62-5.57-16.03-13.31l-57.15-312.35c-1.84-10.06 5.96-19.29 16.18-19.15z"/>
		<path id="&lt;Compound Path&gt;" class="s1" d="m119.03 1024.66c-8.4 0-15.59-6-17.11-14.27l-57.15-312.35c-0.93-5.09 0.44-10.29 3.75-14.27 3.32-3.98 8.18-6.26 13.36-6.26h0.24l432.88 5.77c8.32 0.11 15.43 6.14 16.89 14.34l54.31 304.77c0.9 5.06-0.47 10.24-3.77 14.19-3.3 3.95-8.14 6.23-13.29 6.25zm-56.95-344.81c-4.68 0-8.9 1.97-11.77 5.42-2.87 3.44-4.05 7.95-3.25 12.36l57.15 312.35c1.31 7.16 7.55 12.36 14.82 12.36v1.16l0.07-1.16 430.04-1.82c4.45-0.02 8.65-2 11.5-5.42 2.86-3.43 4.05-7.91 3.27-12.3l-54.31-304.76c-1.26-7.1-7.42-12.32-14.63-12.42l-432.88-5.77q-0.01 0-0.01 0z"/>
		<path id="&lt;Path&gt;" class="s1" d="m564.71 1002.25l-54.31-304.76c-1.36-7.67-7.98-13.28-15.76-13.39l-432.88-5.77c-0.54 0-1.04 0.12-1.57 0.16l421.13 5.61c7.78 0.11 14.4 5.72 15.76 13.39l54.31 304.76c1.77 9.92-5.84 19.04-15.91 19.08l-417.35 1.77c0.21 0 0.42 0.05 0.42 0.05l430.25-1.82c10.07-0.04 17.68-9.16 15.91-19.08z"/>
		<path id="&lt;Path&gt;" class="s5" d="m783.37 996.3l-233.32-3.11-52.63-295.36c-1.36-7.67-7.98-13.28-15.76-13.38l-432.88-5.77c-10.22-0.14-18.02 9.09-16.18 19.15l57.15 312.35c1.41 7.74 8.17 13.35 16.03 13.31l383.69-1.62 293.79 3.91c0.62 0.01 1.13-0.49 1.14-1.11l0.36-26.94c0.01-0.78-0.61-1.42-1.39-1.43z"/>
		<path id="&lt;Compound Path&gt;" class="s1" d="m783.28 1029.26q-0.03 0-0.05 0l-293.79-4.49-383.65 1.34c-9.04 0-16.72-6.55-18.33-15.37l-57.15-312.42c-1-5.43 0.46-10.06 4-14.3 3.53-4.24 8.73-5.76 14.25-5.76 0.01 0 0.24 0 0.25 0l432.88 4.82c8.89 0.12 16.47 6.07 18.02 14.82l52.3 293.23 231.39 2.96c0.99 0.01 1.93 0.35 2.62 1.07 0.7 0.71 1.08 1.63 1.07 2.63l-0.36 27.51c-0.03 1.87-1.58 3.96-3.45 3.96zm-293.82-9.72l292.63 3.9 0.33-24.83-232.4-3.09c-1.11-0.02-2.06-0.82-2.26-1.92l-52.63-295.36c-1.16-6.56-6.84-10.01-13.5-10.1l-432.88-4.39q0 0 0 0c-4.33 0-8.22 0.45-10.87 3.63-2.65 3.17-3.74 6.64-2.99 10.72l57.15 312.01c1.2 6.6 6.96 11.23 13.67 11.23z"/>
		<path id="&lt;Path&gt;" class="s1" d="m624.23 1002.38v9.73h-35.36v-9.73z"/>
		<path id="&lt;Path&gt;" class="s2" d="m624.23 1003.66v3.84h-35.36v-3.84z"/>
		<path id="&lt;Compound Path&gt;" class="s1" d="m625.39 1002.49v6.17h-37.68v-6.17zm-2.33 2.33v1.52h-33.02v-1.52z"/>
		<path id="&lt;Path&gt;" class="s1" d="m756.84 1014.59c-2.88 0-5.21-2.33-5.21-5.21 0-2.88 2.33-5.21 5.21-5.21 2.88 0 5.21 2.33 5.21 5.21 0 2.88-2.33 5.21-5.21 5.21z"/>
		<path id="&lt;Path&gt;" class="s1" d="m740.27 1014.59c-2.88 0-5.2-2.33-5.2-5.21 0-2.88 2.32-5.21 5.2-5.21 2.88 0 5.21 2.33 5.21 5.21 0 2.88-2.33 5.21-5.21 5.21z"/>
		<path id="&lt;Path&gt;" class="s2" d="m253.03 872.6c10.05 5.15 22.54 4.52 32.78-0.3 15.4-7.25 30.32-24.99 27.67-42.98-2.56-17.41-19.34-28.83-35.63-32.08-11.43-2.28-23.94-0.11-33.24 6.92-21.73 16.43-15.25 55.37 7.57 67.99q0.43 0.23 0.85 0.45z"/>
		<path id="&lt;Path&gt;" class="s1" d="m574.77 228.21c-3.13 0-5.67-4.3-5.67-9.6 0-5.31 2.54-9.61 5.67-9.61 3.14 0 5.68 4.3 5.68 9.61 0 5.3-2.54 9.6-5.68 9.6z"/>
		<path id="&lt;Path&gt;" class="s1" d="m490.98 228.21c-3.13 0-5.67-4.3-5.67-9.6 0-5.31 2.54-9.61 5.67-9.61 3.14 0 5.68 4.3 5.68 9.61 0 5.3-2.54 9.6-5.68 9.6z"/>
		<path id="&lt;Path&gt;" class="s1" d="m632.23 848.28c-1.28 0-2.32-1.23-2.33-2.51-0.01-1.28 1.03-1.48 2.31-1.5l282.79-1.48q0.01 0 0.02 0c1.27 0 2.31 0.09 2.32 1.37 0.01 1.28-1.02 2.06-2.31 2.07l-282.78 2.05q-0.01 0-0.02 0z"/>
		<path id="&lt;Path&gt;" class="s1" d="m810.28 845.56c-1.21 0-2.24-0.94-2.32-2.17l-6.98-101.24c-0.09-1.29 0.88-2.4 2.16-2.49 1.28-0.07 2.39 0.88 2.48 2.17l6.98 101.24c0.09 1.28-0.88 2.4-2.16 2.48q-0.08 0.01-0.16 0.01z"/>
		<path id="&lt;Path&gt;" class="s1" d="m816.1 625.23q-0.31 0-0.62-0.09c-1.24-0.34-1.97-1.62-1.62-2.86 24.94-90.43 118.91-103.97 119.85-104.09 1.27-0.17 2.45 0.72 2.62 1.99 0.17 1.28-0.73 2.45-2 2.62-0.91 0.12-91.87 13.31-115.99 100.72-0.28 1.03-1.22 1.71-2.24 1.71z"/>
		<path id="&lt;Path&gt;" class="s3" d="m246.83 206.62c9.47 34.8 45.37 55.35 80.17 45.88 34.8-9.47 55.31-45.36 45.84-80.16-2.44-8.99-6.67-17.05-12.19-23.88l-49.84 39.35-66.24 1.37c-0.07 5.75 0.68 11.62 2.26 17.44z"/>
		<path id="&lt;Compound Path&gt;" class="s1" d="m309.83 257.13q-0.01 0-0.01 0c-30.42 0-57.24-20.52-65.23-49.9-1.63-5.97-2.42-12.05-2.35-18.08 0.01-1.25 1.02-2.27 2.28-2.3l65.46-1.35 49.22-38.87c1.01-0.78 2.45-0.62 3.26 0.37 5.9 7.29 10.15 15.62 12.63 24.73 9.79 35.99-11.51 73.23-47.48 83.01-5.82 1.59-11.81 2.39-17.78 2.39zm-62.92-65.67c0.13 4.85 0.86 9.74 2.17 14.55 7.44 27.36 32.42 46.46 60.74 46.47q0 0 0.01 0c5.56 0 11.13-0.75 16.56-2.23 33.49-9.11 53.32-43.79 44.21-77.3-2.11-7.74-5.59-14.86-10.35-21.21l-48 37.9c-0.4 0.31-0.89 0.49-1.39 0.5z"/>
		<path id="&lt;Path&gt;" class="s6" d="m230.47 178.21l66.23-1.36-16.77-61.65c-0.01-0.03-0.86 0.2-1.31 0.32-28.98 7.89-48.06 34.06-48.15 62.69z"/>
		<path id="&lt;Compound Path&gt;" class="s1" d="m228.14 180.59v-2.39c0.1-30.26 20.61-56.71 49.87-64.67 1.27-0.34 1.53-0.15 1.91-0.15h1.79l18.02 65.99zm50.15-62.56c-26.02 7.56-44.32 30.97-45.43 57.8l60.82-1.25z"/>
		<path id="&lt;Path&gt;" class="s7" d="m294.04 126.17l16.77 61.64 49.84-39.35c-15.52-19.2-41.25-28.64-66.61-22.29z"/>
		<path id="&lt;Compound Path&gt;" class="s1" d="m310.81 190.14q-0.37 0-0.73-0.12c-0.74-0.24-1.31-0.84-1.52-1.6l-16.77-61.64c-0.16-0.61-0.08-1.25 0.24-1.79 0.32-0.54 0.84-0.93 1.44-1.08 5.4-1.35 10.94-2.04 16.45-2.04 20.49 0 39.64 9.16 52.54 25.13 0.39 0.48 0.57 1.1 0.5 1.72-0.07 0.62-0.38 1.18-0.87 1.57l-49.84 39.35c-0.42 0.33-0.93 0.5-1.44 0.5zm-13.89-62.25l15.21 55.91 45.19-35.68c-11.96-13.75-29.11-21.59-47.4-21.59-4.35 0-8.71 0.46-13 1.36z"/>
		<path id="&lt;Path&gt;" class="s1" d="m162.6 268.2l16.73-5.31-16.73-5.71c-5.01-1.32-8.84-5.35-9.91-10.41l-5.31-25.13-5.7 24.58c-1.2 5.19-5.3 9.2-10.5 10.3l-15.76 5.42 15.2 5.37c5.33 1.23 9.41 5.52 10.38 10.9l4.4 24.3 6.4-24.32c1.35-5.15 5.57-9.04 10.8-9.99z"/>
		<path id="&lt;Path&gt;" class="s1" d="m932.82 427.55l11.34-3.6-11.34-3.87c-3.39-0.89-5.99-3.62-6.72-7.05l-3.59-17.03-3.87 16.66c-0.81 3.51-3.59 6.23-7.12 6.98l-10.67 3.67 10.3 3.63c3.61 0.84 6.37 3.75 7.03 7.39l2.98 16.48 4.34-16.49c0.92-3.49 3.77-6.13 7.32-6.77z"/>
		<path id="&lt;Path&gt;" class="s2" d="m825.05 152.88l23.6-7.49-23.61-8.06c-7.06-1.86-12.47-7.54-13.98-14.69l-7.49-35.45-8.05 34.69c-1.69 7.31-7.48 12.98-14.82 14.53l-22.23 7.65 21.45 7.57c7.52 1.74 13.27 7.78 14.65 15.38l6.19 34.3 9.04-34.33c1.91-7.26 7.86-12.76 15.25-14.1z"/>
		<path id="&lt;Path&gt;" class="s8" d="m754.85 341.92c0 0-2.53-20.05 3.7-16.23 15.41 9.45 32.36-0.4 34.11-3.91 10.66-21.32 5.76-82.61 34.53-82.61 28.77 0 15.62 55.9 31.23 68.23 15.62 12.33 36.99-44.39 60.01-44.39 23.02 0 28.77 42.74 48.5 42.74 19.73 0 26.3-19.73 46.85-23.01v59.33z"/>
		<path id="&lt;Path&gt;" class="s1" d="m749.45 232.85c-0.44 0-0.88-0.15-1.22-0.47-0.74-0.68-0.79-1.83-0.12-2.57l6.65-7.26c0.35-0.38 0.83-0.59 1.34-0.59 0.51 0 1 0.22 1.34 0.59l6.06 6.66c0.67 0.74 0.62 1.89-0.12 2.56-0.74 0.67-1.89 0.62-2.56-0.12l-4.72-5.18-5.31 5.79c-0.36 0.39-0.85 0.59-1.34 0.59z"/>
		<path id="&lt;Path&gt;" class="s1" d="m1030.82 336.32c0-0.44 0.16-0.87 0.48-1.22 0.67-0.74 1.82-0.79 2.56-0.12l7.27 6.66c0.37 0.34 0.58 0.83 0.58 1.34 0 0.51-0.21 1-0.59 1.34l-6.65 6.05c-0.75 0.68-1.89 0.63-2.57-0.12-0.67-0.74-0.62-1.89 0.12-2.56l5.19-4.72-5.8-5.31c-0.39-0.36-0.59-0.85-0.59-1.34z"/>
		<path id="&lt;Path&gt;" class="s1" d="m827.51 342.07c-0.5 0-0.91-0.4-0.91-0.91v-117.08c0-0.51 0.41-0.91 0.91-0.91 0.5 0 0.91 0.4 0.91 0.91v117.08c0 0.51-0.41 0.91-0.91 0.91z"/>
		<path id="&lt;Path&gt;" class="s1" d="m917.66 342.07c-0.5 0-0.9-0.4-0.9-0.91v-117.08c0-0.51 0.4-0.91 0.9-0.91 0.51 0 0.91 0.4 0.91 0.91v117.08c0 0.51-0.4 0.91-0.91 0.91z"/>
		<path id="&lt;Path&gt;" class="s1" d="m1013.88 342.07c-0.51 0-0.91-0.4-0.91-0.91v-117.08c0-0.51 0.4-0.91 0.91-0.91 0.5 0 0.9 0.4 0.9 0.91v117.08c0 0.51-0.4 0.91-0.9 0.91z"/>
		<path id="&lt;Path&gt;" class="s1" d="m755.8 357.2c-1 0-1.81-0.82-1.81-1.82v-127.07c0-1 0.81-1.81 1.81-1.81 1.01 0 1.82 0.81 1.82 1.81v127.07c0 1-0.81 1.82-1.82 1.82z"/>
		<path id="&lt;Path&gt;" class="s1" d="m1037.17 344.49h-294.08c-1 0-1.81-0.81-1.81-1.81 0-1 0.81-1.82 1.81-1.82h294.08c1.01 0 1.81 0.82 1.81 1.82 0 1-0.8 1.81-1.81 1.81z"/>
		<path id="&lt;Path&gt;" class="s2" d="m827.8 238.76c-1.7 0-3.08-1.38-3.08-3.08 0-1.71 1.38-3.09 3.08-3.09 1.71 0 3.09 1.38 3.09 3.09 0 1.7-1.38 3.08-3.09 3.08z"/>
		<path id="&lt;Compound Path&gt;" class="s9" d="m827.8 239.92c-2.34 0-4.24-1.9-4.24-4.24 0-2.35 1.9-4.25 4.24-4.25 2.35 0 4.25 1.9 4.25 4.25 0 2.34-1.9 4.24-4.25 4.24zm0-6.16c-1.05 0-1.91 0.86-1.91 1.92 0 1.05 0.86 1.92 1.91 1.92 1.06 0 1.92-0.87 1.92-1.92 0-1.06-0.86-1.92-1.92-1.92z"/>
		<path id="&lt;Compound Path&gt;" class="s1" d="m827.8 239.62c-2.18 0-3.94-1.76-3.94-3.94 0-2.18 1.76-3.95 3.94-3.95 2.18 0 3.94 1.77 3.94 3.95 0 2.18-1.76 3.94-3.94 3.94zm0-6.17c-1.23 0-2.22 0.99-2.22 2.23 0 1.23 0.99 2.22 2.22 2.22 1.23 0 2.23-0.99 2.23-2.22 0-1.24-1-2.23-2.23-2.23z"/>
		<path id="&lt;Path&gt;" class="s2" d="m917.4 265.06c-1.7 0-3.08-1.38-3.08-3.08 0-1.7 1.38-3.08 3.08-3.08 1.71 0 3.09 1.38 3.09 3.08 0 1.7-1.38 3.08-3.09 3.08z"/>
		<path id="&lt;Compound Path&gt;" class="s9" d="m917.4 266.23c-2.35 0-4.24-1.9-4.24-4.25 0-2.35 1.89-4.25 4.24-4.25 2.35 0 4.25 1.9 4.25 4.25 0 2.35-1.9 4.25-4.25 4.25zm0-6.17c-1.06 0-1.92 0.86-1.92 1.92 0 1.06 0.86 1.92 1.92 1.92 1.06 0 1.92-0.86 1.92-1.92 0-1.06-0.86-1.92-1.92-1.92z"/>
		<path id="&lt;Compound Path&gt;" class="s1" d="m917.4 265.92c-2.17 0-3.93-1.76-3.93-3.94 0-2.18 1.76-3.94 3.93-3.94 2.18 0 3.94 1.76 3.94 3.94 0 2.18-1.76 3.94-3.94 3.94zm0-6.17c-1.22 0-2.22 1-2.22 2.23 0 1.23 1 2.22 2.22 2.22 1.23 0 2.23-0.99 2.23-2.22 0-1.23-1-2.23-2.23-2.23z"/>
		<path id="&lt;Path&gt;" class="s2" d="m1013.03 285.34c-1.71 0-3.08-1.38-3.08-3.08 0-1.71 1.37-3.09 3.08-3.09 1.7 0 3.08 1.38 3.08 3.09 0 1.7-1.38 3.08-3.08 3.08z"/>
		<path id="&lt;Compound Path&gt;" class="s9" d="m1013.03 286.5c-2.35 0-4.25-1.9-4.25-4.24 0-2.35 1.9-4.25 4.25-4.25 2.35 0 4.25 1.9 4.25 4.25 0 2.34-1.9 4.24-4.25 4.24zm0-6.16c-1.06 0-1.92 0.86-1.92 1.92 0 1.05 0.86 1.92 1.92 1.92 1.06 0 1.92-0.87 1.92-1.92 0-1.06-0.86-1.92-1.92-1.92z"/>
		<path id="&lt;Compound Path&gt;" class="s1" d="m1013.03 286.19c-2.18 0-3.94-1.76-3.94-3.94 0-2.17 1.76-3.93 3.94-3.93 2.18 0 3.94 1.76 3.94 3.93 0 2.18-1.76 3.94-3.94 3.94zm0-6.16c-1.23 0-2.22 1-2.22 2.23 0 1.22 0.99 2.22 2.22 2.22 1.23 0 2.23-1 2.23-2.22 0-1.23-1-2.23-2.23-2.23z"/>
	</g>
</svg>