<svg version="1.2" xmlns="http://www.w3.org/2000/svg" viewBox="0 0 1080 1080" width="1080" height="1080">
	<style>
		.s0 { fill: #ccd7f2 } 
		.s1 { fill: #ffffff } 
		.s2 { fill: #333333 } 
		.s3 { fill: #363636 } 
		.s4 { fill: #fc5e71 } 
		.s5 { fill: #f2cf63 } 
		.s6 { fill: #2b2b2b } 
		.s7 { fill: #a2bff9 } 
		.s8 { fill: #313131 } 
	</style>
	<g id="Layer 1">
		<path id="&lt;Path&gt;" class="s0" d="m394.13 159.03c14.91-13.85 32.31-23.62 52.19-27.41 24.32-4.63 50.2-1.55 72.98 10.4 23.64 12.4 40.43 37.24 64.39 49.08 24.08 11.9 51.19 8.92 76.99 5.73 33.76-4.18 67.91-7.25 101.47-12.2 31-4.58 62.58-11.82 92.18 5.77 50.87 30.25 64.39 109.26 57.52 169.02-6.05 52.65-25.26 101.53-43.34 150.02-18.09 48.5-35.53 98.69-37.68 151.83-2.28 56.06 12.2 115.8-7.65 166.55-14.41 36.82-45.09 61.88-77.86 74.82-32.78 12.93-67.94 15.27-102.61 17.49q-44.31 2.85-88.62 5.7c-47.07 3.02-94.59 6.02-141.23-3.16-46.65-9.19-93-31.72-125.35-72.59-31.45-39.73-47.1-93.22-55.36-146.27-5.79-37.26-7.93-77.77 7.72-110.48 20.78-43.44 68.15-63.13 86.26-108.23 18.36-45.73 0.41-99.91 1.58-150.73 1.43-62.25 23.66-135.6 66.42-175.34z"/>
		<path id="&lt;Path&gt;" class="s1" d="m805.01 347.5l15.05-4.78-15.05-5.13c-4.5-1.19-7.95-4.81-8.91-9.36l-4.77-22.59-5.13 22.1c-1.08 4.66-4.77 8.27-9.45 9.26l-14.16 4.88 13.67 4.82c4.79 1.11 8.46 4.96 9.33 9.8l3.95 21.86 5.76-21.88c1.22-4.63 5-8.13 9.71-8.98z"/>
		<path id="&lt;Path&gt;" class="s2" d="m881.36 574.63c9.97-12.15 53.29 7.17 90.07 9.66 36.77 2.5 54.54 8.42 54.54 19.64 0 11.22-38.96 23.69-38.96 23.69l-64.51-19.64z"/>
		<path id="&lt;Path&gt;" class="s2" d="m935.93 519.59q-0.1-0.03-0.21-0.07c-0.78-0.32-1.15-1.21-0.83-1.99 22.9-55.75-24.99-81.63-27.05-82.7-0.74-0.39-1.03-1.31-0.64-2.06 0.39-0.74 1.34-1.04 2.05-0.65 0.53 0.28 52.44 28.21 28.46 86.57-0.29 0.71-1.05 1.08-1.78 0.9z"/>
		<path id="&lt;Path&gt;" class="s2" d="m1015.47 430q-0.22-0.02-0.44-0.1c-0.68-0.27-67.65-26.97-92.7-34.28-0.8-0.24-1.27-1.08-1.03-1.89 0.24-0.81 1.06-1.26 1.89-1.04 25.19 7.36 92.29 34.1 92.97 34.37 0.78 0.31 1.16 1.2 0.85 1.98-0.25 0.64-0.89 1.01-1.54 0.96z"/>
		<path id="&lt;Path&gt;" class="s1" d="m1008.12 543.41c5.01-15.07 31.55-96.26 30.49-120.72-0.79-18.08-56.88-33.58-93.84-41.85 6.67-22.11 14.21-48.25 18.25-66.16l8-35.6c2.22-9.86-3.97-19.65-13.83-21.87-9.91-2.29-19.65 3.98-21.87 13.83l-8.01 35.6c-4.39 19.53-13.54 50.51-20.67 73.77-4.88 4.74-11.98 11.97-19.13 20.37-5.09-20.5-10.77-39.13-16.16-47.59-5.43-8.52-16.74-11.03-25.26-5.6-8.53 5.43-11.03 16.74-5.61 25.27 4.68 7.34 12.96 40.54 20.13 75.64-7.79 34.42 7.34 65.24 14.38 77.14 1.68 39.87 2.67 80.72 2.9 119.57 19.39 18.65 50.89 26.65 76.21 29.32 18.91 1.26 37.62 2.08 56.27 2.54q0.03-5.75 0.03-11.68c-0.02-44.51-1.08-87.59-2.28-121.98z"/>
		<path id="&lt;Compound Path&gt;" class="s2" d="m1010.37 680.14q-0.02 0-0.05 0c-19.54 0-37.97-1.85-56.36-3.08-19.5-2.05-55.39-8.92-77.46-30.15-0.39-0.37-0.61-1.02-0.61-1.56-0.23-38.49-1.22-79.69-2.88-119.06-7.12-12.17-22.1-43.16-14.44-77.78-7.97-38.96-15.73-68.21-19.78-74.56-6-9.45-3.21-22.03 6.22-28.04 3.27-2.08 7.03-3.18 10.89-3.18 6.98 0 13.39 3.51 17.14 9.39 4.58 7.2 9.78 22.14 15.47 44.45 6.22-7.1 12.17-13.15 16.37-17.24 6.96-22.73 16.11-53.68 20.48-73.13l8.01-35.6c2.1-9.34 10.21-15.86 19.71-15.86q2.3 0 4.56 0.52c10.9 2.46 17.79 13.34 15.33 24.26l-8.01 35.59c-3.29 14.63-9.23 36.24-17.66 64.25 61.27 13.88 92.66 28.42 93.3 43.25 1.07 24.56-24.92 104.37-30.47 121.09 1.49 43.03 2.25 83.97 2.26 121.7q0 5.93-0.02 11.68c0 0.54-0.22 1.59-0.61 1.96-0.37 0.36-0.87 1.1-1.39 1.1zm-130.49-35.8c21.26 19.94 55.69 26.23 74.42 28.2 17.62 1.18 35.35 1.99 54.08 2.48q0.02-4.75 0.02-9.62c-0.01-37.79-0.78-78.81-2.28-121.92q-0.01-0.36 0.11-0.7c5.25-15.82 31.42-95.96 30.38-120-0.54-12.42-34.17-26.99-92.28-39.99-0.54-0.12-1.01-0.46-1.29-0.94-0.28-0.48-0.35-1.05-0.19-1.58 8.61-28.52 14.91-51.35 18.22-66.03l8-35.6c1.98-8.77-3.55-17.51-12.32-19.48q-1.83-0.42-3.67-0.42c-7.62 0-14.12 5.24-15.81 12.74l-8.01 35.6c-4.43 19.71-13.71 51.07-20.71 73.91q-0.16 0.49-0.52 0.85c-4.7 4.57-11.81 11.78-19 20.23-0.48 0.57-1.25 0.82-1.98 0.65-0.73-0.17-1.3-0.73-1.48-1.46-5.95-23.96-11.3-39.77-15.9-46.99-3.01-4.73-8.16-7.55-13.77-7.55-3.1 0-6.12 0.89-8.74 2.55-7.58 4.83-9.82 14.93-4.99 22.51 5.22 8.2 13.96 44.8 20.4 76.32q0.09 0.42-0.01 0.84c-7.65 33.81 7.35 64.19 14.15 75.68q0.25 0.44 0.28 0.94c1.65 39.27 2.65 80.33 2.89 118.78z"/>
		<path id="&lt;Path&gt;" class="s1" d="m973.31 358.06c7.51 2.57 12.68 8.61 14.19 15.26 5.02-3.85 12.23-5.13 19.31-2.7 7.98 2.74 13.48 9.35 14.57 16.49 0.15 1.02 0.15 2.05 0.12 3.08 4.5-3.98 11.39-5.44 18.15-3.12 7.15 2.45 12.08 8.38 13.06 14.78 0.34 2.25 0.19 4.55-0.52 6.79l-15.33 48.2c-2.74 8.6-12.79 12.88-22.45 9.57-6.79-2.33-11.51-7.8-12.81-13.83-4.56 6.71-13.88 9.65-22.94 6.54-7.5-2.57-12.72-8.58-14.24-15.22-5.01 3.82-12.21 5.08-19.26 2.66-8.17-2.8-13.43-9.69-14.31-17.03 3.67-23.86 10.17-40.83 20.29-71.03 4.3-1.57 17.19-2.15 22.17-0.44z"/>
		<path id="&lt;Compound Path&gt;" class="s2" d="m1021.03 469.53c-2.45 0-4.89-0.42-7.27-1.23-5.92-2.03-10.62-6.35-12.95-11.69-3.77 3.65-9.08 5.75-14.83 5.75-2.68 0-5.36-0.45-7.97-1.35-6.91-2.37-12.34-7.59-14.73-13.98-5.43 3.04-12.41 3.6-18.77 1.42-8.49-2.91-14.63-10.25-15.65-18.68q-0.03-0.27 0.01-0.55c3.18-20.62 8.39-35.96 16.26-59.18q1.95-5.73 4.12-12.17c0.19-0.58 0.63-1.04 1.21-1.25 3.02-1.1 8.96-1.6 13.49-1.6 2.49 0 7.1 0.15 10.01 1.15 6.88 2.36 12.3 7.59 14.68 14.01 5.44-3.06 12.45-3.64 18.82-1.45 8.31 2.85 14.49 9.8 15.84 17.75 4.89-2.76 11.2-3.29 17-1.3 7.62 2.62 13.27 9.04 14.38 16.37 0.4 2.62 0.2 5.21-0.58 7.69l-15.34 48.21c-2.3 7.22-9.43 12.08-17.73 12.08zm-19.43-18.94q0.19 0 0.39 0.03c0.78 0.16 1.4 0.76 1.57 1.54 1.2 5.6 5.61 10.34 11.5 12.36q2.95 1.01 5.97 1.01c6.66 0 12.12-3.65 13.92-9.29l15.34-48.21q0.9-2.85 0.44-5.88c-0.89-5.87-5.5-11.05-11.73-13.19-5.77-1.98-12.09-0.89-16.17 2.73-0.6 0.53-1.45 0.65-2.18 0.31-0.72-0.33-1.17-1.07-1.15-1.87 0.03-0.88 0.04-1.83-0.1-2.72-1.01-6.64-6.2-12.48-13.24-14.9-6.09-2.09-12.83-1.14-17.45 2.39-0.54 0.42-1.25 0.53-1.89 0.3-0.64-0.24-1.12-0.78-1.27-1.44-1.42-6.28-6.36-11.57-12.89-13.81-1.72-0.59-4.9-0.93-8.71-0.93-4.29 0-8.76 0.44-11.24 1.09q-1.99 5.91-3.79 11.22c-7.78 22.91-12.93 38.08-16.05 58.22 0.93 6.82 5.98 12.73 12.94 15.12 6.07 2.08 12.79 1.15 17.4-2.36 0.55-0.41 1.26-0.52 1.9-0.29 0.64 0.24 1.11 0.78 1.26 1.44 1.42 6.25 6.38 11.52 12.94 13.77 2.19 0.75 4.43 1.13 6.67 1.13 5.81 0 11.03-2.58 13.97-6.9 0.38-0.55 1-0.87 1.65-0.87z"/>
		<path id="&lt;Path&gt;" class="s2" d="m965.08 444.35c-0.18 0.23-0.51 0.33-0.84 0.23-0.42-0.13-0.68-0.53-0.57-0.91l10.61-38.84c0.1-0.38 0.53-0.57 0.95-0.45 0.42 0.13 0.68 0.54 0.57 0.92l-10.61 38.84q-0.04 0.12-0.11 0.21z"/>
		<path id="&lt;Path&gt;" class="s2" d="m1007.58 437.82c-0.17 0.22-0.5 0.33-0.83 0.23-0.42-0.12-0.68-0.53-0.58-0.91l11.49-44.19c0.09-0.39 0.52-0.59 0.94-0.46 0.42 0.12 0.68 0.53 0.58 0.91l-11.49 44.2q-0.03 0.12-0.11 0.22z"/>
		<path id="&lt;Path&gt;" class="s2" d="m1002.26 453.03c-0.17 0.22-0.48 0.33-0.8 0.25-0.42-0.11-0.7-0.5-0.63-0.89l1.28-6.3c0.09-0.39 0.49-0.61 0.91-0.5 0.43 0.11 0.71 0.5 0.63 0.89l-1.28 6.3q-0.03 0.14-0.11 0.25z"/>
		<path id="&lt;Path&gt;" class="s2" d="m962.85 425.95q0 0.11-0.02 0.22l-3.73 14.34c-0.06 0.22-0.22 0.39-0.44 0.47-0.34 0.12-8.56 2.95-17.64-1.53-0.4-0.21-0.57-0.67-0.4-1.01 0.18-0.37 0.66-0.49 1.07-0.29 7.37 3.64 14.31 2 15.92 1.54l3.55-13.68c-6.8-9.2-18.79-9.02-21.36-8.87l-3.29 11.84c-0.1 0.39-0.54 0.6-0.98 0.46-0.43-0.13-0.69-0.57-0.59-0.94l3.42-12.3c0.07-0.27 0.31-0.46 0.61-0.5 0.16-0.01 15.56-1.59 23.74 9.87q0.12 0.18 0.14 0.38z"/>
		<path id="&lt;Path&gt;" class="s2" d="m999.15 437.05q0.01 0.11-0.02 0.21l-3.73 14.35c-0.05 0.22-0.21 0.39-0.43 0.46-0.35 0.13-8.56 2.95-17.64-1.53-0.41-0.2-0.58-0.66-0.41-1.01 0.19-0.36 0.66-0.48 1.07-0.28 7.38 3.63 14.32 2 15.92 1.54l3.56-13.68c-6.81-9.2-18.8-9.02-21.36-8.87l-3.29 11.84c-0.11 0.39-0.55 0.6-0.98 0.46-0.44-0.13-0.7-0.57-0.6-0.95l3.42-12.29c0.07-0.27 0.31-0.46 0.61-0.5 0.16-0.01 15.57-1.59 23.74 9.86q0.13 0.18 0.14 0.39z"/>
		<path id="&lt;Path&gt;" class="s2" d="m1035.59 445.05q0 0.11-0.02 0.2l-3.53 13.59c-0.05 0.21-0.21 0.37-0.42 0.44-0.32 0.12-8.1 2.8-16.7-1.44-0.39-0.2-0.55-0.64-0.39-0.96 0.18-0.35 0.63-0.46 1.02-0.27 6.98 3.44 13.56 1.89 15.08 1.46l3.36-12.96c-6.44-8.71-17.8-8.54-20.23-8.4l-3.12 11.21c-0.1 0.37-0.51 0.57-0.92 0.44-0.42-0.13-0.66-0.54-0.56-0.9l3.23-11.64c0.07-0.26 0.3-0.44 0.58-0.47 0.15-0.02 14.74-1.51 22.48 9.34q0.12 0.17 0.14 0.36z"/>
		<path id="&lt;Path&gt;" class="s1" d="m907.2 432.77c0 0 41.19 21.71 46.22 68.65"/>
		<path id="&lt;Path&gt;" class="s2" d="m953.41 503.42c-1.01 0-1.87-0.76-1.98-1.79-4.86-45.36-44.76-66.88-45.16-67.09-0.98-0.52-1.35-1.73-0.84-2.7 0.52-0.98 1.72-1.35 2.7-0.84 0.42 0.22 42.19 22.75 47.27 70.21 0.12 1.09-0.68 2.08-1.77 2.2q-0.11 0.01-0.22 0.01z"/>
		<path id="&lt;Path&gt;" class="s2" d="m121.21 603.93c1.87-18.39 44.57-9.04 73.86-15.58 29.3-6.55 65.45-9.04 65.45-9.04l-91 47.99z"/>
		<path id="&lt;Path&gt;" class="s1" d="m265.51 621.38l-4.36-21.5-12.16-60.78-10.28-51.11-2.19-10.6c0 0-7.16-21.81-22.44-31.16-14.96-9.66-41.76-16.21-47.99-21.2-6.23-4.98-25.87-30.23-33.66-33.03-7.79-2.81-21.19-1.56-19.64 16.52 1.56 18.07 21.82 44.56 21.82 44.56 0 0-44.26-11.53-51.11-16.51-6.86-4.68-22.13-39.9-38.03-38.65-15.58 1.25-15.89 21.5-11.53 28.98 0.31 0.63-0.62 1.87-0.62 1.87 0 0-4.68 4.99-5.3 18.7-0.62 13.72 10.91 39.59 10.91 39.59 0 0 5.61 19.01 9.35 28.05 0 0 11.22 49.55 38.65 60.15 13.4 5.29 31.79 8.72 48.62 10.59l21.5 80.72z"/>
		<path id="&lt;Compound Path&gt;" class="s2" d="m157.05 668.57q-0.46 0-0.88-0.2c-0.52-0.26-0.9-0.73-1.05-1.28l-21.15-79.41c-19.18-2.21-36.11-5.95-47.78-10.57-27.55-10.64-38.96-57.67-39.82-61.4-3.62-8.79-8.79-26.16-9.32-27.96-0.97-2.19-11.65-26.69-11.02-40.37 0.6-13.3 4.95-18.95 5.72-19.85q0.07-0.1 0.14-0.22c-2.84-5.36-3.58-15.4 0.25-22.73 2.71-5.19 7.27-8.18 13.18-8.65 12.01-0.93 22.47 15.02 30.86 27.75 3.37 5.12 6.56 9.95 8.44 11.23 4.75 3.46 30.55 10.88 45.09 14.8-5.91-8.48-17.7-26.97-18.91-41.02-0.58-6.72 0.74-11.89 3.93-15.36 2.68-2.93 6.54-4.47 11.16-4.47 2.43 0 4.92 0.43 7.22 1.26 5.41 1.95 15.01 12.63 23.48 22.06 4.42 4.92 8.59 9.57 10.75 11.29 2.52 2.03 9.64 4.65 17.18 7.43 10.4 3.83 22.18 8.18 30.65 13.65 15.67 9.59 22.95 31.3 23.25 32.22q0.04 0.11 0.06 0.22l2.18 10.6 26.81 133.39c0.19 0.94-0.31 1.88-1.19 2.25l-108.46 45.19q-0.37 0.15-0.77 0.15zm-110.75-268.69q-0.33 0-0.67 0.03c-4.53 0.36-7.88 2.56-9.95 6.52-3.16 6.06-2.55 15.12-0.01 19.47 0.84 1.67-0.25 3.4-0.75 4.07q-0.07 0.09-0.14 0.17c-0.03 0.03-4.19 4.8-4.76 17.42-0.6 13.09 10.62 38.43 10.73 38.68q0.06 0.12 0.1 0.25c0.05 0.19 5.62 19.02 9.28 27.85q0.06 0.16 0.1 0.32c0.11 0.49 11.31 48.65 37.42 58.73 11.64 4.6 28.72 8.32 48.12 10.48 0.82 0.09 1.49 0.67 1.71 1.47l20.91 78.51 104.83-43.68-4.03-19.89-24.6-122.36c-0.55-1.6-7.61-21.46-21.55-29.99-8.14-5.26-20.21-9.7-29.9-13.28-8.53-3.14-15.27-5.63-18.3-8.06-2.41-1.92-6.49-6.47-11.23-11.74-7.34-8.17-17.39-19.36-21.86-20.97-1.84-0.66-3.92-1.03-5.86-1.03-2.42 0-5.81 0.55-8.21 3.18-2.4 2.61-3.38 6.75-2.9 12.31 1.5 17.3 21.22 43.27 21.42 43.53 0.52 0.68 0.55 1.61 0.07 2.32-0.47 0.71-1.33 1.04-2.16 0.83-4.57-1.19-44.83-11.78-51.79-16.84-2.48-1.69-5.57-6.37-9.48-12.3-7.23-10.97-17.13-26-26.54-26z"/>
		<path id="&lt;Path&gt;" class="s2" d="m49.53 519.16v-0.32c1.24-15.27 7.16-23.37 16.83-23.06 9.03 0.31 17.14 12.78 20.25 25.25 3.12 11.84 2.81 14.33 2.81 14.64 0 0.32-0.31 0.63-0.62 0.32-0.32 0-0.63-0.32-0.32-0.63 0 0 0.32-2.49-2.8-13.71-3.12-11.53-10.91-24-19.32-24.31-9.04-0.31-14.34 7.48-15.59 21.82 0 0.31-0.31 0.62-0.62 0.62-0.62-0.31-0.62-0.62-0.62-0.62z"/>
		<path id="&lt;Path&gt;" class="s3" d="m89.06 537.11q-0.35 0-0.66-0.18c-0.42-0.12-0.78-0.41-0.95-0.81-0.14-0.35-0.12-0.74 0.05-1.07-0.01-0.77-0.24-3.97-2.78-13.13-3.03-11.22-10.51-23.29-18.4-23.58l-0.48-0.01c-10.13 0-13.24 11.37-14.07 20.91 0 0.92-1.15 1.88-2.07 1.43-1.09-0.54-1.17-1.3-1.17-1.51v-0.31c1.26-15.56 7.4-24.07 17.29-24.07h0.57c9.73 0.34 18.03 13.34 21.19 26.01 1.92 7.29 2.93 12.57 2.84 14.85 0 0.83-0.61 1.47-1.36 1.47z"/>
		<path id="&lt;Path&gt;" class="s2" d="m87.24 528.51c-0.31-0.32 0-0.63 0.31-0.94 2.8-1.87 24 0.94 26.49 1.25 0.31 0 0.62 0.31 0.62 0.62 0 0.31-0.31 0.62-0.62 0.62-9.04-1.24-24-2.49-25.87-1.55q-0.46 0.46-0.93 0z"/>
		<path id="&lt;Path&gt;" class="s3" d="m114.04 531.06q-0.07 0-0.14-0.01c-6.68-0.92-16.85-1.87-22.3-1.87-1.98 0-2.68 0.13-2.9 0.19-0.37 0.3-0.74 0.37-1 0.37-0.29 0-0.73-0.09-1.17-0.53-0.46-0.46-0.78-1.24 0.31-2.34q0.07-0.07 0.15-0.13c0.57-0.37 1.69-0.81 5.44-0.81 3.13 0 9.36 0.32 21.28 1.84l0.45 0.06q0.01 0 0.02 0c0.73 0 1.48 0.75 1.48 1.61 0 0.87-0.76 1.62-1.62 1.62z"/>
		<path id="&lt;Path&gt;" class="s2" d="m39.24 486.74c-0.31-0.93-1.87-19.63 4.99-27.73 1.87-2.19 4.36-3.43 7.17-3.74 15.27-1.25 23.06 12.77 23.99 19.32 0.94 6.54 9.98 22.44 11.54 24.93 4.67 0.63 18.07 1.87 19.32 3.12q0.47 0.47 0 0.93-0.47 0.47-0.94 0c-0.93-0.62-10.59-1.87-19.01-2.8-0.31 0-0.31 0-0.62-0.31-0.31-0.63-10.6-18.39-11.84-25.56-0.94-6.23-8.11-19.32-22.76-18.39-2.49 0.31-4.67 1.25-6.23 3.12-6.54 7.79-4.67 26.18-4.67 26.49 0 0.31-0.32 0.62-0.63 0.62 0 0.32 0 0.32-0.31 0z"/>
		<path id="&lt;Path&gt;" class="s3" d="m105.78 504.81c-0.26 0-0.65-0.08-1.04-0.41-0.98-0.4-7.03-1.36-18.55-2.64-0.57 0.03-0.79-0.17-1.22-0.6q-0.11-0.11-0.19-0.26-0.05-0.11-0.38-0.69c-6.81-12.14-10.8-20.84-11.55-25.14-0.86-5.72-7.5-18.48-21.7-17.56q-3.6 0.44-5.53 2.76c-5.5 6.54-4.81 21.22-4.46 25.56q0.02 0.25 0.01 0.29c0 0.57-0.33 1.1-0.8 1.39-0.28 0.45-0.78 0.47-0.86 0.47-0.45 0-0.71-0.26-0.98-0.53q-0.16-0.17-0.24-0.39c-0.32-0.98-2-20.21 5.18-28.7 1.99-2.33 4.69-3.74 7.82-4.09q1.04-0.08 2-0.08c14.28 0 22.08 13.19 23.09 20.26 0.84 5.83 8.72 20.14 11.15 24.14 0.94 0.12 2.16 0.26 3.52 0.42 10.15 1.17 14.86 1.87 15.91 2.92 0.7 0.7 0.7 1.65 0 2.35-0.44 0.44-0.88 0.53-1.18 0.53z"/>
		<path id="&lt;Path&gt;" class="s2" d="m35.81 428.15c0 0 0-0.31 0 0-0.31-0.31 0-0.62 0.31-0.93 3.74-2.19 9.67-2.5 15.59-0.63 7.17 2.5 12.78 7.79 15.27 14.34 4.99 12.47 9.35 18.08 10.28 19.32l21.82 4.05c0.31 0 0.62 0.32 0.62 0.63 0 0.31-0.31 0.62-0.62 0.62l-22.13-4.05c0 0-0.31 0-0.31-0.31-0.31-0.31-4.99-5.61-10.6-19.64-2.49-6.54-7.79-11.53-14.64-13.71-5.3-1.87-10.91-1.56-14.34 0.31-0.62 0.31-0.94 0-1.25 0z"/>
		<path id="&lt;Path&gt;" class="s3" d="m99.08 466.55q-0.09 0-0.18-0.02l-22.13-4.05c-0.37-0.03-0.86-0.29-1.05-0.82-1-1.16-5.38-6.67-10.6-19.74-2.39-6.27-7.5-11.05-14.03-13.13-4.75-1.68-10.3-1.54-13.55 0.24-0.7 0.35-1.4 0.24-1.72 0.14-0.32 0-0.61-0.16-0.79-0.4-0.42-0.47-0.65-1.22 0.39-2.26q0.09-0.09 0.2-0.16c3.98-2.32 10.39-2.6 16.39-0.71 7.49 2.61 13.28 8.05 15.9 14.93 2.16 5.39 5.63 13.01 9.92 18.77l21.43 3.98c0.69 0.01 1.44 0.74 1.44 1.61 0 0.86-0.75 1.62-1.62 1.62z"/>
		<path id="&lt;Path&gt;" class="s2" d="m135.86 533.18c-0.31-0.31 0-0.93 0.31-0.93 15.27-6.86 33.35-2.19 45.5 2.8 13.4 5.3 23.06 12.47 23.38 12.47q0.46 0.47 0 0.93-0.47 0.47-0.94 0c-0.31-0.31-38.96-27.74-67.63-15.27 0 0.31-0.31 0.31-0.62 0z"/>
		<path id="&lt;Path&gt;" class="s3" d="m204.58 549.69c-0.3 0-0.74-0.1-1.18-0.53-0.16-0.12-25.53-18.23-50.29-18.23-5.79 0-11.13 1.02-15.87 3.01-0.43 0.58-1.41 0.63-2.09-0.05-0.43-0.43-0.54-1.08-0.29-1.69 0.2-0.47 0.58-0.81 1.02-0.92 5.19-2.31 11.07-3.48 17.49-3.48 10.96 0 21.65 3.44 28.68 6.33 10.87 4.29 19.2 9.75 22.33 11.8q0.77 0.51 1.02 0.65 0.2 0.08 0.35 0.23c0.44 0.44 0.53 0.88 0.53 1.18 0 0.29-0.09 0.74-0.53 1.17-0.43 0.43-0.88 0.53-1.17 0.53z"/>
		<path id="&lt;Path&gt;" class="s2" d="m589.02 128.64c0 0 12.15-20.26 19.63-19.63 7.48 0.62-6.54 19.63-6.54 19.63 0 0 18.38-16.52 66.07 7.48 47.68 24 35.22 164.25 46.75 183.88 11.84 19.64 26.49 14.34 36.77 38.34 10.29 24-38.02 36.15-30.85 53.29 7.17 17.14 62.96-14.96 72.62 29.92 9.35 45.19-20.57 73.55-20.57 73.55l-345.64-22.43c0 0-36.77-34.6-19.63-72 16.83-37.4 43.94-9.66 61.08-26.18 17.15-16.52-25.55-13.4-26.8-39.58-1.25-26.18 6.86-34.91 16.83-51.42 10.29-16.52-13.4-104.41 22.75-144.93 35.84-40.51 94.44-29.92 94.44-29.92 0 0-11.22-14.33-3.74-14.96 7.48-0.93 16.83 14.96 16.83 14.96z"/>
		<path id="&lt;Path&gt;" class="s4" d="m1025.97 603.93c-52.36 5.61-110.73-16.54-157.79-34.3l-7 68.93c-1.55 5.61-4.13 3.08-6-2.53-5.93-17.45-14.96-42.39-21.82-57.35-28.36-62.02-36.78-95.05-91.32-123.41-54.54-28.37-151.47 0-151.47 0h-17.14-16.2v0.31c0 0-97.24-28.36-151.78 0-54.55 28.36-63.27 61.08-91.63 123.1-6.86 14.96-15.9 40.21-21.82 57.35-1.87 5.61-9.04 5.3-10.28-0.62l-14.03-60.78c-46.75 17.77-93.19 34.91-145.55 29.3-1.55 120.92 52.05 273.33 129.34 273.33 88.83 0 141.81-53.61 157.39-86.64 0 19.32 0.32 43.63 1.56 50.17 0 0.32 1.56 1.25 1.25 1.56 51.42 7.48 105.34 10.91 155.21 11.22 59.21 0.31 107.52-0.93 163-8.72 0-0.32 11.84-3.12 11.84-3.43 1.25-7.48 7.17-38.65 10.91-58.6 5.92 31.48 46.44 94.44 143.68 94.44 77.29 0 131.52-152.41 129.65-273.33z"/>
		<path id="&lt;Compound Path&gt;" class="s2" d="m896.32 879.26c-85.87 0-131.43-50.3-143.38-87.25l-1.38 7.37c-3.22 17.07-6.85 36.38-7.83 42.21-0.02 1.53-0.39 1.62-7.4 3.47-1.98 0.52-4.64 1.22-5.39 1.49q-0.35 0.21-0.77 0.27c-51.94 7.3-96.7 8.79-147.93 8.79q-7.56 0-15.36-0.04c-53.46-0.34-107.23-4.22-155.49-11.24-0.73-0.11-1.35-0.61-1.59-1.31q-0.06-0.04-0.11-0.09c-0.51-0.44-1.13-0.99-1.24-1.86-1.16-6.27-1.48-26.79-1.56-42.47-18.4 31.4-69.12 80.66-155.41 80.66-18.91 0-37.14-8.76-54.18-26.02-22.75-23.05-43.04-61.71-57.13-108.85-13.5-45.16-20.61-95.05-20.02-140.49 0-0.56 0.25-1.09 0.67-1.47 0.42-0.37 0.97-0.56 1.54-0.49 6.64 0.71 13.43 1.07 20.18 1.07 44.85 0 87.13-16.07 124.44-30.25 0.54-0.2 1.14-0.16 1.65 0.11 0.51 0.27 0.88 0.75 1.01 1.31l14.02 60.78c0.48 2.29 1.98 3.09 3.23 3.09 1.46 0 2.66-0.99 3.21-2.65 6.26-18.12 15.13-42.78 21.9-57.55 3.45-7.54 6.61-14.65 9.59-21.37 21.46-48.29 34.41-77.45 82.93-102.68 16.38-8.51 38.08-12.83 64.52-12.83 40.75 0 80.53 10.42 87.63 12.38q0.27-0.08 0.56-0.08h33.06c3.82-1.08 45.47-12.61 88.24-12.61 26.38 0 48.06 4.32 64.43 12.83 48.15 25.04 60.94 53.94 82.12 101.82 3.17 7.17 6.45 14.57 10.1 22.54 6.72 14.68 15.72 39.35 21.89 57.54 0.69 2.07 1.33 3.26 1.77 3.87q0.17-0.37 0.37-1.07l6.98-68.76c0.06-0.62 0.41-1.17 0.94-1.5 0.52-0.33 1.17-0.39 1.75-0.17l0.6 0.22c41.1 15.52 92.26 34.84 139.37 34.84 5.79 0 11.48-0.3 16.91-0.88 0.56-0.05 1.11 0.12 1.53 0.49 0.42 0.37 0.67 0.91 0.68 1.47 1.48 95.84-31.67 202.92-77.12 249.07-17.17 17.44-35.52 26.29-54.53 26.29zm-143.68-98.43c0.96 0 1.79 0.68 1.96 1.62 6.75 35.89 51.19 92.81 141.72 92.81 17.9 0 35.29-8.44 51.69-25.09 44.43-45.13 76.93-149.71 75.99-244.04-4.9 0.45-9.99 0.68-15.15 0.68-47.13 0-97.85-18.88-138.95-34.39l-6.73 66.34q-0.01 0.17-0.06 0.34-1.28 4.6-4.13 4.61c-2.25 0-4.12-2.31-5.7-7.05-6.14-18.08-15.07-42.6-21.74-57.14-3.65-8-6.94-15.42-10.11-22.59-20.84-47.08-33.41-75.5-80.31-99.89-15.8-8.21-36.85-12.38-62.59-12.38-44.08 0-86.97 12.4-87.4 12.52q-0.27 0.08-0.56 0.08h-32.27c-0.49 0.31-1.08 0.4-1.63 0.23-0.43-0.12-43.48-12.52-87.63-12.52-25.79 0-46.88 4.17-62.67 12.38-47.28 24.59-59.3 51.64-81.12 100.75-3 6.74-6.16 13.86-9.62 21.42-6.7 14.62-15.52 39.15-21.74 57.16-1.08 3.26-3.83 5.37-7 5.37-3.48 0-6.35-2.51-7.13-6.23l-13.5-58.51c-37.1 14.1-79 29.7-123.72 29.7-6.15 0-12.34-0.29-18.42-0.87-0.71 94.8 31.81 199.5 76.03 244.29 16.26 16.48 33.53 24.83 51.33 24.83 91.17 0 141.64-55.93 155.59-85.5 0.4-0.84 1.33-1.3 2.24-1.09 0.91 0.2 1.56 1.01 1.56 1.94 0 25.75 0.52 43.6 1.44 49.3q0 0.01 0.01 0.01 0.32 0.27 0.64 0.6c47.82 6.9 101.03 10.72 153.94 11.05q7.79 0.05 15.34 0.05c50.97 0 95.5-1.49 147.08-8.71 1.05-0.41 2.86-0.89 5.99-1.71 1.55-0.41 3.51-0.93 4.64-1.26 1.17-6.74 4.48-24.29 7.68-41.3l3.05-16.19c0.17-0.94 1-1.62 1.96-1.62z"/>
		<path id="&lt;Path&gt;" class="s2" d="m408.87 840.17c-1.24 16.21-57.97 113.45-57.97 113.45h192.3 63.89 192.3c0 0-50.18-89.76-57.04-114.07-112.19 15.89-224.08 17.45-333.48 0.62z"/>
		<path id="&lt;Path&gt;" class="s1" d="m507.67 283.54c0 0-24-24.31-43.94-17.14-19.95 7.17-22.75 50.49-1.25 58.9 21.51 8.42 47.37-8.41 47.37-8.41z"/>
		<path id="&lt;Compound Path&gt;" class="s2" d="m475.67 329.66q0 0-0.01 0c-5 0-9.68-0.84-13.91-2.5-12.21-4.77-16.38-18.94-16.22-30.6 0.18-12.88 5.67-27.78 17.52-32.04 2.66-0.96 5.52-1.44 8.51-1.44 18.51 0 36.77 18.28 37.53 19.06 0.34 0.34 0.54 0.79 0.58 1.27l2.18 33.35c0.04 0.72-0.3 1.41-0.91 1.8-0.69 0.45-17.26 11.1-35.27 11.1zm-4.11-62.59c-2.53 0-4.93 0.41-7.16 1.21-8.57 3.08-14.68 14.73-14.87 28.34-0.15 10.32 3.37 22.79 13.68 26.82 3.76 1.47 7.95 2.22 12.45 2.22 14.47 0 28.37-7.62 32.12-9.85l-2.05-31.38c-3.06-2.91-18.96-17.36-34.17-17.36z"/>
		<path id="&lt;Path&gt;" class="s2" d="m629.53 341.51c-2.49 6.54-4.98 12.78-7.79 18.07-27.74 51.74-77.6 44.57-92.25 38.65v-4.67l0.31-27.12 45.19 1.87 13.4 0.62 4.99-3.74 18.08-14.02z"/>
		<path id="&lt;Path&gt;" class="s1" d="m693.11 259.23c-9.97-2.49-18.7 1.25-25.24 5.92v-0.31c0 0.31 0 0.31-0.32 0.62-2.49 1.87-4.67 3.74-6.23 5.3-4.67-18.7-2.18-66.07-22.44-88.82-11.84-13.4-57.03-16.83-88.82-13.09-22.75 2.8-43.95 25.55-50.49 47.68-7.48 25.56-11.53 53.61-11.85 52.98 5.3 47.07 9.04 107.84 74.18 118.75 14.96 2.49 28.36 0.62 40.2-3.74-27.42 24.31-61.39 18.7-73.24 14.02v-4.67c-0.62 17.14-2.18 41.76-5.29 43.63-4.99 2.81-22.44 8.1-22.44 8.1 0 0 8.72 48.31 81.65 43.95 72.93-4.36 71.37-50.49 71.37-50.49 0 0-22.44-3.74-25.87-8.73-2.8-3.74-0.93-41.76 0-60.77 1.25-0.94 2.5-2.18 3.74-3.43 14.65-13.09 22.76-29.92 28.05-48.31 9.67 3.43 25.87 7.17 39.27 0.31 21.2-10.9 14.65-53.6-6.23-58.9z"/>
		<path id="&lt;Compound Path&gt;" class="s2" d="m573.68 491.83c-65.47 0-74.44-45.41-74.52-45.87-0.18-1 0.42-1.97 1.39-2.27 0.17-0.05 16.95-5.16 21.89-7.85 1.52-1.97 3.47-15.66 4.43-42.04 0.04-1.08 0.92-1.93 1.99-1.93q0.02 0 0.04 0c1.09 0.02 1.96 0.91 1.96 2v3.28c3.46 1.21 11.46 3.49 22.57 3.49 10.4 0 24.84-2.1 38.84-11.15-10.03 2.23-20.31 2.47-30.7 0.74-63.77-10.68-70.08-68.1-75.14-114.24l-0.69-6.25q-0.06-0.61 0.2-1.13c0.16-0.69 0.54-2.72 0.96-5.03 1.73-9.46 5.34-29.13 10.75-47.61 6.44-21.77 27.71-46.09 52.16-49.11 7.97-0.93 16.87-1.43 25.74-1.43 24.86 0 54.94 3.99 64.83 15.18 14.93 16.77 17.86 46.55 19.99 68.3 0.69 6.96 1.3 13.16 2.18 18.01 1.06-0.92 2.23-1.86 3.45-2.79 0.26-0.69 0.9-1.21 1.67-1.28 8.56-5.8 17.38-7.7 25.93-5.56 12.15 3.08 19.03 17.09 20.46 29.6 1.34 11.83-1.57 26.73-13.8 33.02-5.27 2.7-11.38 4.06-18.17 4.06-7.8 0-15.27-1.82-20.69-3.59-6.24 20.7-15.18 35.74-28.04 47.24-0.98 0.98-2.03 2.03-3.12 2.94-0.72 14.57-2.64 54.7-0.33 58.61 2.05 2.99 15.6 6.42 24.57 7.92 0.94 0.15 1.64 0.95 1.67 1.9 0.02 0.48 0.77 48.12-73.25 52.55-3.13 0.19-6.23 0.29-9.22 0.29zm-70.18-44.87c2.21 8.07 14.61 40.87 70.18 40.87 2.91 0 5.93-0.1 8.98-0.28 62.48-3.74 68.8-38.85 69.43-46.82-6.14-1.11-22.13-4.43-25.45-9.27-2.35-3.12-2.45-19.36-0.35-62 0.03-0.6 0.32-1.14 0.8-1.5 1.13-0.85 2.29-2.01 3.52-3.24 12.77-11.42 21.5-26.47 27.54-47.45 0.16-0.53 0.52-0.97 1.01-1.23 0.49-0.25 1.06-0.28 1.58-0.1 5.19 1.84 13.11 4.04 21.35 4.04 6.15 0 11.65-1.22 16.34-3.63 10.42-5.36 12.85-18.5 11.66-29.01-1.27-11.14-7.17-23.56-17.47-26.17-7.67-1.92-15.63-0.05-23.48 5.53q-0.08 0.09-0.17 0.18-0.1 0.1-0.22 0.18c-2.34 1.76-4.48 3.57-6.02 5.11-0.51 0.51-1.25 0.71-1.94 0.52-0.7-0.2-1.23-0.75-1.41-1.44-1.36-5.46-2.11-13.1-2.98-21.95-2.09-21.2-4.94-50.23-19.01-66.03-7.43-8.41-31.7-13.84-61.84-13.84-8.72 0-17.45 0.48-25.26 1.4-22.81 2.81-42.73 25.73-48.81 46.27-5.34 18.27-8.93 37.81-10.65 47.2-0.49 2.66-0.79 4.33-1.08 5.39l0.65 5.86c4.92 44.8 11.04 100.56 71.83 110.74 13.38 2.23 26.57 1 39.18-3.65 0.9-0.33 1.92 0.03 2.41 0.85 0.49 0.83 0.33 1.89-0.39 2.52-17.37 15.4-36.78 18.63-50 18.63-10.7 0-18.74-2.03-22.87-3.37-1.64 35.35-4.64 37.15-5.97 37.94-4.24 2.39-16.45 6.31-21.09 7.75z"/>
		<path id="&lt;Path&gt;" class="s5" d="m672.85 336.83c-2.49 0-4.05-0.93-4.98-2.18-3.74-4.05-1.87-12.15-1.87-13.09 0.31-1.24 1.55-2.18 3.11-1.87 1.25 0.31 2.18 1.56 1.87 3.12-0.62 2.49-0.93 6.86 0.63 8.41 0.31 0.32 0.62 0.63 2.18 0.32 0.93-0.32 1.87-0.63 2.18-1.56 2.18-3.43 0.62-10.6 0-13.09-0.31-1.25 0.31-2.81 1.87-3.12 1.25-0.31 2.8 0.31 3.12 1.87 0.31 1.25 3.11 11.22-0.32 17.14q-1.87 3.27-5.61 3.74c-1.24 0.31-1.86 0.31-2.18 0.31z"/>
		<path id="&lt;Path&gt;" class="s5" d="m480.87 343.07c2.49 0 4.05-0.94 4.99-2.18 3.74-4.06 1.87-12.16 1.87-13.09-0.32-1.25-1.56-2.19-3.12-1.87-1.25 0.31-2.18 1.55-1.87 3.11 0.62 2.5 0.93 6.86-0.62 8.42-0.32 0.31-0.63 0.62-2.19 0.31-0.93-0.31-1.87-0.63-2.18-1.56-2.18-3.43-0.62-10.6 0-13.09 0.31-1.25-0.31-2.8-1.87-3.12-1.24-0.31-2.8 0.32-3.11 1.87-0.32 1.25-3.12 11.22 0.31 17.15q1.87 3.27 5.61 3.74c0.93 0.31 1.56 0.31 2.18 0.31z"/>
		<path id="&lt;Path&gt;" class="s2" d="m568.76 311.41q-0.59 0-1.11-0.34c-1.23-0.82-7.37-5.13-7.74-9.6-0.17-2 0.8-5.12 2.51-10.46 1.65-5.11 3.7-11.48 4.35-17.05 0.13-1.1 1.13-1.88 2.22-1.75 1.1 0.12 1.88 1.12 1.75 2.21-0.7 5.96-2.81 12.54-4.51 17.82-1.2 3.73-2.45 7.59-2.34 8.9 0.16 1.89 3.66 5.06 5.98 6.61 0.91 0.61 1.16 1.85 0.55 2.77-0.39 0.57-1.02 0.89-1.66 0.89z"/>
		<path id="&lt;Path&gt;" class="s2" d="m628.29 254.24c-1.56 0.94-3.43 0.94-5.3 0.31-1.87-0.62-3.43-1.55-4.99-2.49-3.43-2.18-7.48-3.43-11.22-4.36-1.87-0.31-4.36-0.94-5.3-2.5-1.24-1.87 0-4.67 1.87-5.92 1.87-1.24 4.37-1.24 6.55-0.93 5.3 0.93 9.97 3.11 14.33 6.23 1.56 1.25 2.81 2.49 3.74 4.05 1.25 1.87 1.25 4.05 0.32 5.61z"/>
		<path id="&lt;Path&gt;" class="s2" d="m522.01 254.55c1.56 0.94 3.74 0.94 5.3 0.32 1.87-0.63 3.11-1.87 4.67-2.81q5.14-3.27 11.22-4.67c1.87-0.63 4.36-0.94 5.3-2.81 1.25-1.87 0-4.67-2.18-5.92-1.87-1.25-4.37-0.94-6.86-0.62-5.3 0.93-9.97 3.42-14.02 6.85-1.56 1.25-2.81 2.5-3.74 4.37-0.63 1.55-0.63 3.74 0.31 5.29z"/>
		<path id="&lt;Path&gt;" class="s2" d="m609.9 282.92c-2.59 0-4.68-3.63-4.68-8.11 0-4.48 2.09-8.1 4.68-8.1 2.58 0 4.67 3.62 4.67 8.1 0 4.48-2.09 8.11-4.67 8.11z"/>
		<path id="&lt;Path&gt;" class="s2" d="m531.67 282.92c-2.59 0-4.68-3.63-4.68-8.11 0-4.48 2.09-8.1 4.68-8.1 2.59 0 4.67 3.62 4.67 8.1 0 4.48-2.08 8.11-4.67 8.11z"/>
		<path id="&lt;Path&gt;" class="s2" d="m488.66 274.19c0 0 82.59-90.38 94.75-103.47 0 0-25.25 44.88-12.47 43.32 12.78-1.56 20.26-39.27 20.26-39.27 0 0-4.05 26.49 6.85 24 10.91-2.5 2.81-28.05 2.81-28.05l58.28 100.98c0 0 2.8-53.92 3.12-55.48 0.31-1.56-10.6-38.34-10.6-38.34l-43.94-14.64-64.52-3.74-42.39 8.1z"/>
		<path id="&lt;Path&gt;" class="s2" d="m665.37 298.31q-0.39 0.01-0.77-0.15c-1.02-0.43-1.5-1.6-1.07-2.62 7.85-18.64 30-21.06 30.94-21.16 1.1-0.09 2.08 0.69 2.19 1.79 0.11 1.1-0.69 2.08-1.79 2.19-0.21 0.02-20.74 2.3-27.66 18.73-0.32 0.77-1.06 1.22-1.84 1.22z"/>
		<path id="&lt;Path&gt;" class="s2" d="m682.2 291.46q-0.63 0-1.18-0.39l-7.17-5.3c-0.89-0.66-1.08-1.91-0.42-2.8 0.66-0.88 1.91-1.07 2.79-0.41l7.17 5.29c0.89 0.66 1.08 1.91 0.42 2.8-0.39 0.53-1 0.81-1.61 0.81z"/>
		<path id="&lt;Path&gt;" class="s2" d="m490.53 298.31c-0.78 0-1.52-0.45-1.84-1.22-6.92-16.43-27.45-18.71-27.66-18.73-1.09-0.11-1.89-1.09-1.78-2.19 0.11-1.1 1.08-1.88 2.18-1.79 0.94 0.1 23.09 2.52 30.94 21.16 0.43 1.02-0.05 2.19-1.06 2.62q-0.39 0.16-0.78 0.15z"/>
		<path id="&lt;Path&gt;" class="s2" d="m478.06 291.46q-0.43 0-0.85-0.19c-1-0.47-1.42-1.66-0.95-2.66l2.49-5.3c0.47-1 1.66-1.43 2.66-0.95 1 0.46 1.43 1.65 0.95 2.65l-2.49 5.3c-0.34 0.72-1.06 1.15-1.81 1.15z"/>
		<path id="&lt;Path&gt;" class="s2" d="m408.56 792.61c-1 0-1.86-0.75-1.98-1.77-2.28-19.7-6.42-40.62-10.79-62.77-2.2-11.13-4.47-22.64-6.65-34.65-6.57-36.32 18.09-95.55 19.14-98.06 0.43-1.01 1.59-1.49 2.62-1.06 1.01 0.42 1.49 1.6 1.06 2.61-0.25 0.6-25.25 60.65-18.88 95.8 2.16 11.98 4.43 23.47 6.63 34.59 4.39 22.23 8.54 43.22 10.84 63.08 0.12 1.1-0.66 2.09-1.76 2.22q-0.11 0.01-0.23 0.01z"/>
		<path id="&lt;Path&gt;" class="s2" d="m750.15 792.61q-0.12 0-0.23-0.01c-1.1-0.13-1.89-1.12-1.76-2.22 2.3-19.86 6.45-40.86 10.84-63.09 2.2-11.12 4.47-22.61 6.63-34.58 6.37-35.16-18.63-95.2-18.88-95.8-0.43-1.01 0.05-2.19 1.06-2.61 1.02-0.43 2.19 0.04 2.62 1.06 1.05 2.51 25.71 61.74 19.14 98.06-2.18 12.01-4.45 23.51-6.65 34.64-4.37 22.15-8.51 43.08-10.79 62.78-0.12 1.02-0.98 1.77-1.98 1.77z"/>
		<path id="&lt;Path&gt;" class="s2" d="m828.22 759.45q-0.03 0-0.06 0c-1.1-0.04-1.97-0.95-1.94-2.06 0.48-17.02 14.06-61.41 23.97-93.82 2.91-9.51 5.42-17.72 7.07-23.55 0.31-1.06 1.41-1.68 2.47-1.38 1.06 0.3 1.68 1.41 1.38 2.47-1.67 5.87-4.19 14.1-7.1 23.63-9.29 30.38-23.33 76.28-23.8 92.77-0.03 1.08-0.92 1.94-1.99 1.94z"/>
		<path id="&lt;Path&gt;" class="s2" d="m338.44 752.1c-1.08 0-1.97-0.86-2-1.94-0.33-11.63-14.09-34.8-27.4-57.2-10.96-18.46-21.32-35.9-24.57-47.34-0.3-1.07 0.31-2.17 1.38-2.47 1.06-0.31 2.16 0.31 2.46 1.37 3.11 10.94 13.34 28.17 24.17 46.4 13.57 22.84 27.59 46.46 27.96 59.12 0.03 1.1-0.84 2.02-1.94 2.06q-0.03 0-0.06 0z"/>
		<path id="&lt;Path&gt;" class="s1" d="m641.16 161.51c3.29-2.29 4.63-6.4 6.49-9.95 1.86-3.55 5.26-7.08 9.21-6.4 1.14 0.2 2.2 0.74 3.2 1.31 6.37 3.67 11.66 9.18 15.08 15.68 2.23 4.25 3.62 9.52 1.33 13.74-3.07 5.67-10.89 6.42-17.29 5.61-3.88-0.49-7.95-1.26-11.58 0.2-5.28 2.12-9 8.69-14.65 7.96-2.71-0.36-4.93-2.48-6.14-4.93-1.21-2.45-1.59-5.21-1.95-7.92-0.37-2.86-0.7-5.99 0.82-8.44 3.05-4.89 10.74-3.57 15.48-6.86z"/>
		<path id="&lt;Compound Path&gt;" class="s2" d="m633.83 190.71q-0.5 0-1.01-0.06c-2.81-0.37-5.39-2.41-6.91-5.47-1.29-2.63-1.69-5.61-2.04-8.24-0.43-3.28-0.68-6.44 0.97-9.1 1.98-3.18 5.61-4 9.11-4.79 2.36-0.53 4.8-1.08 6.64-2.36 2.35-1.63 3.62-4.32 4.98-7.17q0.58-1.23 1.19-2.42c0.87-1.65 4.08-7.02 9.12-7.02q0.57 0 1.15 0.09c1.29 0.22 2.46 0.82 3.53 1.44 6.49 3.73 11.98 9.45 15.46 16.08 1.71 3.25 4.15 9.48 1.33 14.67-2.86 5.3-9.18 6.41-13.98 6.41q-2.09 0-4.31-0.28l-1.24-0.16c-1.76-0.23-3.58-0.48-5.31-0.48-1.76 0-3.24 0.26-4.54 0.78-1.93 0.77-3.71 2.25-5.44 3.68-2.61 2.16-5.32 4.4-8.7 4.4zm22.05-44.64c-3.11 0-5.84 3.08-7.35 5.96q-0.59 1.15-1.16 2.35c-1.4 2.96-2.86 6.01-5.64 7.95-2.16 1.5-4.79 2.09-7.34 2.67-3.24 0.73-6.31 1.42-7.86 3.9-1.3 2.09-1.06 4.87-0.67 7.78 0.34 2.59 0.7 5.28 1.85 7.61 0.94 1.9 2.84 4.05 5.37 4.38 3.01 0.37 5.5-1.69 8.18-3.9 1.84-1.53 3.75-3.11 5.97-4 1.53-0.62 3.26-0.91 5.28-0.91 1.86 0 3.75 0.25 5.57 0.49l1.22 0.16q2.1 0.26 4.07 0.26c4.26 0 9.83-0.93 12.23-5.36 2.37-4.38 0.17-9.9-1.35-12.79-3.3-6.3-8.52-11.73-14.69-15.28-1.05-0.6-1.94-1.04-2.87-1.2q-0.41-0.07-0.81-0.07z"/>
		<path id="&lt;Path&gt;" class="s1" d="m490.92 180.53c7.15 6.51 20.71-2.04 27.62 4.72 1.94 1.9 2.87 4.68 4.93 6.45 3.64 3.1 9.34 1.85 13.35-0.75 2.69-1.75 5.12-4.13 6.18-7.15 1.06-3.03 0.48-6.77-1.97-8.84-3.23-2.72-8.33-1.81-11.81-4.2-2.63-1.8-3.75-5.05-4.99-7.99-1.42-3.4-3.19-6.66-5.28-9.7-1.11-1.64-2.44-3.29-4.31-3.93-2.21-0.75-4.62 0.11-6.73 1.11-5.37 2.57-10.24 6.2-14.23 10.62-2.47 2.74-4.65 5.87-5.46 9.47-0.81 3.59-0.02 7.71 2.7 10.19z"/>
		<path id="&lt;Compound Path&gt;" class="s2" d="m528.81 194.53c-2.33 0-4.4-0.72-5.99-2.07-1.21-1.04-2.04-2.35-2.84-3.62-0.68-1.06-1.31-2.07-2.14-2.87-1.76-1.73-4.15-2.5-7.74-2.5-1.71 0-3.54 0.17-5.31 0.33-1.82 0.17-3.71 0.35-5.51 0.35-2.52 0-6.2-0.3-9.03-2.88-2.78-2.54-3.96-6.91-3.01-11.15 0.74-3.28 2.55-6.43 5.7-9.92 4.05-4.49 9.08-8.24 14.54-10.85 1.46-0.69 3.38-1.49 5.37-1.49q1.11 0 2.11 0.34c2.14 0.72 3.58 2.49 4.82 4.3 2.12 3.1 3.93 6.43 5.38 9.89l0.37 0.89c1.05 2.56 2.13 5.2 4.26 6.66 1.48 1.01 3.33 1.37 5.3 1.75 2.31 0.45 4.69 0.91 6.58 2.51 2.62 2.2 3.55 6.29 2.27 9.93-1.01 2.87-3.28 5.52-6.58 7.65-2.68 1.75-5.8 2.75-8.55 2.75zm-18.71-13.06c2.57 0 6.33 0.32 9.14 3.07 0.99 0.97 1.72 2.12 2.43 3.23 0.75 1.2 1.47 2.33 2.45 3.17q1.87 1.58 4.69 1.59c2.37 0 5.09-0.88 7.47-2.42 2.03-1.32 4.69-3.55 5.78-6.65 1-2.87 0.32-6.05-1.67-7.73-1.5-1.27-3.53-1.66-5.68-2.07-2.08-0.41-4.23-0.83-6.05-2.08-2.62-1.79-3.82-4.71-4.98-7.54l-0.37-0.88c-1.39-3.34-3.14-6.54-5.18-9.53-1.05-1.52-2.23-3.01-3.81-3.54-1.83-0.62-4.29 0.26-5.98 1.06-5.23 2.5-10.04 6.09-13.92 10.39-2.91 3.22-4.57 6.09-5.23 9.02-0.8 3.55 0.15 7.17 2.4 9.23 1.79 1.63 4.16 2.36 7.69 2.36 1.71 0 3.55-0.17 5.33-0.34 1.81-0.16 3.69-0.34 5.49-0.34z"/>
		<path id="&lt;Compound Path&gt;" class="s2" d="m572.44 354.08q-1.12 0-2.26-0.09c-9.47-0.72-23.13-7.77-24.13-19.09-0.25-2.83 0.96-5.51 3.09-6.85 1.55-0.97 3.28-1.08 4.45-1.08q0.89 0.01 1.77 0.06c1.29 0.08 2.4 0.11 3.51 0.11 7.52 0 14.89-1.38 21.88-4.1l0.95-0.38c1.79-0.71 3.64-1.45 5.69-1.75q0.86-0.13 1.73-0.13c2.42 0 4.52 0.74 6.05 2.14 2.33 2.12 3.22 5.6 2.58 10.07-1.79 12.42-12.19 21.09-25.31 21.09zm-18.85-23.11c-1.09 0-1.81 0.14-2.33 0.47-0.84 0.53-1.35 1.8-1.23 3.11 0.79 9 12.6 14.85 20.46 15.46 11.88 0.91 21.72-6.58 23.3-17.59 0.31-2.16 0.34-5.05-1.31-6.55-0.99-0.9-2.77-1.27-4.51-1.01-1.59 0.24-3.15 0.86-4.8 1.51l-0.98 0.39c-8.55 3.33-17.69 4.79-26.88 4.27-0.69-0.03-1.21-0.06-1.72-0.06z"/>
		<path id="&lt;Path&gt;" class="s1" d="m746.44 286.94l45.5-13.23c6.65 6.21 14.54 11.21 23.51 14.52 38.35 14.15 81.69-7.58 96.8-48.54 15.12-40.96-3.72-85.63-42.07-99.79-38.34-14.15-81.68 7.59-96.8 48.55-6.24 16.9-6.68 34.42-2.37 50.18z"/>
		<path id="&lt;Compound Path&gt;" class="s6" d="m839.63 294.55c-8.51 0-16.88-1.49-24.87-4.44-8.64-3.19-16.49-7.96-23.35-14.17l-44.42 12.91c-0.76 0.23-1.58-0.03-2.09-0.64-0.51-0.61-0.61-1.47-0.24-2.18l24.22-47.62c-4.38-16.63-3.47-34.13 2.63-50.66 11.95-32.4 41.89-54.17 74.5-54.17 8.5 0 16.87 1.5 24.87 4.45 39.32 14.51 58.72 60.43 43.25 102.35-11.96 32.4-41.9 54.17-74.5 54.17zm-47.69-22.84c0.5 0 0.98 0.18 1.36 0.54 6.67 6.23 14.35 10.97 22.84 14.11 7.55 2.78 15.45 4.2 23.49 4.2 30.94 0 59.37-20.72 70.75-51.56 14.71-39.86-3.63-83.47-40.89-97.22-7.55-2.79-15.45-4.2-23.48-4.2-30.94 0-59.38 20.72-70.75 51.56-5.91 15.99-6.71 32.92-2.32 48.97 0.13 0.48 0.08 0.99-0.15 1.43l-22.48 44.19 41.07-11.94q0.27-0.08 0.56-0.08z"/>
		<path id="&lt;Path&gt;" class="s5" d="m377.33 266.72c0-65.16-53.11-117.89-118.45-117.12-63.15 0.75-114.63 52.3-115.51 115.45-0.5 35.2 14.52 66.89 38.75 88.67 18.89 16.98 30.09 40.87 30.09 66.27v3.05h96.25v-2.3c0-25.77 11.33-50.02 30.42-67.32 23.66-21.42 38.45-52.33 38.45-86.7z"/>
		<path id="&lt;Compound Path&gt;" class="s2" d="m308.46 425.04h-96.25c-1.11 0-2-0.9-2-2v-3.05c0-24.36-10.73-47.97-29.42-64.78-25.53-22.95-39.9-55.83-39.42-90.19 0.89-63.99 53.6-116.66 117.49-117.42l1.44-0.01c65.63 0 119.03 53.44 119.03 119.13 0 33.53-14.25 65.68-39.1 88.19-18.92 17.13-29.77 41.12-29.77 65.83v2.3c0 1.1-0.89 2-2 2zm-94.26-4h92.27v-0.3c0-25.83 11.32-50.91 31.07-68.8 24.02-21.75 37.79-52.81 37.79-85.22 0-63.49-51.6-115.13-115.03-115.13l-1.39 0.01c-61.75 0.73-112.69 51.63-113.55 113.47-0.46 33.22 13.43 64.99 38.1 87.17 19.54 17.57 30.74 42.26 30.74 67.75z"/>
		<path id="&lt;Path&gt;" class="s7" d="m273.33 480.12h-26.28c-18.87 0-34.16-15.29-34.16-34.16v-3.42h94.61v3.42c0 18.87-15.3 34.16-34.17 34.16z"/>
		<path id="&lt;Compound Path&gt;" class="s2" d="m278.5 482.12h-36.61c-17.1 0-31-13.9-31-30.99v-10.59h98.61v10.59c0 17.09-13.91 30.99-31 30.99zm-63.62-37.58v6.59c0 14.88 12.12 27 27.01 27h36.61c14.89 0 27-12.12 27-27v-6.59z"/>
		<path id="&lt;Path&gt;" class="s7" d="m311.21 393.81h-101.62c-7.46 0-13.57 6.11-13.57 13.57v1.99c0 7.47 6.11 13.57 13.57 13.57h101.62c7.46 0 13.57-6.1 13.57-13.57v-1.99c0-7.46-6.11-13.57-13.57-13.57z"/>
		<path id="&lt;Compound Path&gt;" class="s2" d="m311.21 424.94h-101.62c-8.58 0-15.57-6.98-15.57-15.57v-1.99c0-8.59 6.99-15.57 15.57-15.57h101.62c8.58 0 15.56 6.98 15.56 15.57v1.99c0 8.59-6.98 15.57-15.56 15.57zm-101.62-29.13c-6.38 0-11.57 5.19-11.57 11.57v1.99c0 6.39 5.19 11.58 11.57 11.58h101.62c6.38 0 11.57-5.19 11.57-11.58v-1.99c0-6.38-5.19-11.57-11.57-11.57z"/>
		<path id="&lt;Path&gt;" class="s7" d="m311.21 422.94h-101.62c-7.46 0-13.57 6.11-13.57 13.57v2c0 7.46 6.11 13.57 13.57 13.57h101.62c7.46 0 13.57-6.11 13.57-13.57v-2c0-7.46-6.11-13.57-13.57-13.57z"/>
		<path id="&lt;Compound Path&gt;" class="s2" d="m311.21 454.08h-101.62c-8.58 0-15.57-6.99-15.57-15.57v-2c0-8.58 6.99-15.56 15.57-15.56h101.62c8.58 0 15.56 6.98 15.56 15.56v2c0 8.58-6.98 15.57-15.56 15.57zm-101.62-29.14c-6.38 0-11.57 5.19-11.57 11.57v2c0 6.38 5.19 11.57 11.57 11.57h101.62c6.38 0 11.57-5.19 11.57-11.57v-2c0-6.38-5.19-11.57-11.57-11.57z"/>
		<path id="&lt;Compound Path&gt;" class="s8" d="m248.34 393.91l-3.99-0.2c2.38-47.99 0.46-83.03-3.84-107.54-18.01-0.52-32.83-2.27-38.23-4.9-9.8-4.77-11.14-17.95-8.24-28.17 3.44-12.12 11.94-19.3 21.66-18.35 13.13 1.31 22.73 18.04 28.25 47.46 9.05 0.17 18.84 0.05 28.58-0.41q7.57-0.36 14.4-0.95c3.3-21.56 8.02-38.66 14.77-42.59 10.01-5.84 22.15-4.34 30.94 3.82 8.05 7.49 10.41 18.15 6 27.17-3.93 8.04-24.26 12.9-48.18 15.28-5.02 35.98-6.87 85.01-7.15 109.3l-3.99-0.04c0.11-9.46 1.01-66.42 7.02-108.88-13.75 1.18-28.4 1.59-41.67 1.36 4.52 26.81 5.87 63.3 3.67 107.64zm-34.42-155.26c-8.55 0-13.95 8.2-16.03 15.54-2.54 8.95-1.25 19.89 6.14 23.49 4.77 2.32 18.63 3.91 35.73 4.43-5.8-29.65-15.26-42.47-24.46-43.39q-0.7-0.07-1.38-0.07zm100.5 0.07c-3.43 0-7.07 0.87-10.71 2.99-5.5 3.21-9.62 18.57-12.66 38.76 24.82-2.46 41.16-7.16 44-12.98 3.62-7.4 1.6-16.22-5.14-22.48-3.66-3.4-9.23-6.29-15.49-6.29z"/>
		<path id="&lt;Path&gt;" class="s1" d="m239.61 407.07h-27.97c-2.76 0-5-0.78-5-3.54 0-2.75 2.24-3.53 5-3.53h27.97c2.76 0 5 0.78 5 3.53 0 2.76-2.24 3.54-5 3.54z"/>
		<path id="&lt;Path&gt;" class="s1" d="m239.61 444.73h-27.97c-2.76 0-5-1.95-5-4.71 0-2.76 2.24-4.71 5-4.71h27.97c2.76 0 5 1.95 5 4.71 0 2.76-2.24 4.71-5 4.71z"/>
		<path id="&lt;Path&gt;" class="s1" d="m210.9 247.23c-18.38 0-33.23-14.85-33.23-33.23 0-18.37 14.85-33.23 33.23-33.23 18.37 0 33.23 14.86 33.23 33.23 0 18.38-14.86 33.23-33.23 33.23z"/>
		<path id="&lt;Path&gt;" class="s1" d="m184.38 260.65c-9.01 0-16.3-7.29-16.3-16.3 0-9.01 7.29-16.29 16.3-16.29 9.01 0 16.29 7.28 16.29 16.29 0 9.01-7.28 16.3-16.29 16.3z"/>
		<path id="&lt;Path&gt;" class="s1" d="m602.62 819.56c0 0-6.02-14.83 1.67-74.12h303.28c0 0-24.16 22.23-3.34 74.12z"/>
		<path id="&lt;Compound Path&gt;" class="s2" d="m904.28 821.55q-0.02 0-0.04 0h-301.62c-0.81 0-1.54-0.49-1.85-1.24-0.25-0.63-6.13-15.99 1.54-75.13 0.13-1 0.98-1.74 1.98-1.74h303.28c0.82 0 1.56 0.5 1.86 1.27 0.3 0.77 0.1 1.64-0.51 2.2-0.23 0.21-22.73 21.98-2.97 71.56q0.31 0.48 0.32 1.09c0 1.1-0.89 1.99-1.99 1.99zm-300.17-3.99h297.2c-15.15-39.95-3.96-62.11 1.93-70.12h-297.19c-6.06 47.74-3.07 65.59-1.94 70.12z"/>
		<path id="&lt;Path&gt;" class="s2" d="m605.96 822.31l1.4-75.89c0 0-28.9 13.4-28.06 36.73 0.83 23.33 26.66 39.16 26.66 39.16z"/>
		<path id="&lt;Path&gt;" class="s0" d="m907.57 815.48h-299.95c-1.46 0-2.83 0.36-4.08 0.98-3.6-4.12-14.32-17.74-13.53-32.95 0.46-8.94 5.07-17.34 13.61-25 1.22 0.59 2.58 0.94 4 0.94h299.95c5.53 0 10-4.99 10-10.51 0-5.52-4.47-10.51-10-10.51q-4.95 0-9.89 0c-93.3 0-187.13 2.86-280.36-0.27-1.8-0.06-3.6-0.13-5.4-0.14-6.77-0.04-13.75 0.7-19.72 3.9-13.35 7.14-21.48 26.29-22.18 40.73-0.82 17.08 5.4 35.26 19.12 46.07 16.21 12.79 41.69 9.73 61.21 9.15 80.43-2.39 160.89-1.38 241.24-1.38q7.71 0 15.41 0 0.29 0 0.57 0c5.53 0 10-4.98 10-10.5 0-5.53-4.47-10.51-10-10.51z"/>
		<path id="&lt;Compound Path&gt;" class="s2" d="m627.73 840.6c-12.46 0-28.24-1.17-39.83-10.31-13.17-10.38-20.79-28.67-19.87-47.74 0.71-14.91 9.1-34.84 23.23-42.4 5.27-2.82 11.69-4.13 20.19-4.13h0.49q2.16 0.02 4.32 0.11l1.13 0.04c29.75 0.99 61.23 1.46 99.05 1.46 30.22 0 60.96-0.3 90.7-0.6 29.69-0.29 60.4-0.59 90.54-0.59h9.89c6.5 0 11.99 5.72 11.99 12.5 0 6.78-5.49 12.5-11.99 12.5h-299.95q-1.83 0-3.59-0.6c-7.56 7.09-11.61 14.75-12.02 22.77-0.7 13.37 8.15 25.66 12.11 30.45q1.72-0.58 3.5-0.58h299.95c6.5 0 11.99 5.73 11.99 12.51 0 6.77-5.49 12.5-11.99 12.5h-15.98q-27.7-0.01-55.41-0.11-27.72-0.09-55.44-0.1c-35.81 0-82.98 0.18-130.33 1.58q-3.68 0.12-7.59 0.3c-4.89 0.22-9.95 0.44-15.09 0.44zm-16.28-100.59c-7.82 0-13.63 1.17-18.31 3.67-12.36 6.61-20.45 25.06-21.12 39.07-0.85 17.79 6.18 34.81 18.35 44.41 10.63 8.37 25.55 9.44 37.36 9.44 5.05 0 10.06-0.22 14.91-0.43q3.95-0.18 7.65-0.3c47.4-1.41 94.61-1.59 130.45-1.59q27.73 0.01 55.45 0.11 27.71 0.09 55.4 0.1h15.98c4.26 0 8-3.97 8-8.5 0-4.54-3.74-8.51-8-8.51h-299.95q-1.63 0-3.2 0.77c-0.81 0.41-1.79 0.21-2.39-0.48-3.5-4-14.84-18.33-14.01-34.36 0.48-9.45 5.28-18.32 14.26-26.38 0.6-0.54 1.47-0.67 2.2-0.32q1.54 0.74 3.14 0.74h299.95c4.26 0 8-3.98 8-8.51 0-4.53-3.74-8.51-8-8.51h-9.89c-30.12 0-60.82 0.3-90.5 0.6-29.75 0.29-60.5 0.6-90.74 0.6-37.87 0-69.39-0.47-99.19-1.47l-1.13-0.04q-2.1-0.08-4.21-0.1z"/>
		<path id="&lt;Path&gt;" class="s1" d="m604.73 770.81h110.71"/>
		<path id="&lt;Path&gt;" class="s2" d="m715.44 772.81h-110.71c-1.1 0-2-0.89-2-2 0-1.1 0.9-2 2-2h110.71c1.1 0 1.99 0.9 1.99 2 0 1.11-0.89 2-1.99 2z"/>
		<path id="&lt;Path&gt;" class="s1" d="m739.24 772.53h62.81"/>
		<path id="&lt;Path&gt;" class="s2" d="m802.05 774.53h-62.81c-1.1 0-2-0.89-2-2 0-1.1 0.9-2 2-2h62.81c1.1 0 2 0.9 2 2 0 1.11-0.9 2-2 2z"/>
		<path id="&lt;Path&gt;" class="s1" d="m895.26 771.1h-41.87"/>
		<path id="&lt;Path&gt;" class="s2" d="m895.26 773.1h-41.87c-1.11 0-2-0.9-2-2 0-1.11 0.89-2 2-2h41.87c1.11 0 2 0.89 2 2 0 1.1-0.89 2-2 2z"/>
		<path id="&lt;Path&gt;" class="s1" d="m895.64 786.87h-149.8"/>
		<path id="&lt;Path&gt;" class="s2" d="m895.64 788.87h-149.8c-1.11 0-2-0.89-2-2 0-1.1 0.89-2 2-2h149.8c1.11 0 2 0.9 2 2 0 1.11-0.89 2-2 2z"/>
		<path id="&lt;Path&gt;" class="s1" d="m602.44 785.44h74.57"/>
		<path id="&lt;Path&gt;" class="s2" d="m677.01 787.44h-74.57c-1.11 0-2-0.9-2-2 0-1.11 0.89-2 2-2h74.57c1.1 0 1.99 0.89 1.99 2 0 1.1-0.89 2-1.99 2z"/>
		<path id="&lt;Path&gt;" class="s1" d="m600.72 804.65h20.36"/>
		<path id="&lt;Path&gt;" class="s2" d="m621.08 806.65h-20.36c-1.11 0-2-0.89-2-2 0-1.1 0.89-1.99 2-1.99h20.36c1.1 0 2 0.89 2 1.99 0 1.11-0.9 2-2 2z"/>
		<path id="&lt;Path&gt;" class="s1" d="m900.42 806.95h-52.19"/>
		<path id="&lt;Path&gt;" class="s2" d="m900.42 808.95h-52.19c-1.11 0-2-0.9-2-2 0-1.11 0.89-2 2-2h52.19c1.11 0 2 0.89 2 2 0 1.1-0.89 2-2 2z"/>
		<path id="&lt;Path&gt;" class="s1" d="m937.03 926.27c0 0 7.46-17.36-2.06-86.76h-375.67c0 0 29.93 26.02 4.13 86.76z"/>
		<path id="&lt;Compound Path&gt;" class="s2" d="m937.03 928.26h-373.6c-0.67 0-1.3-0.33-1.67-0.89-0.37-0.56-0.44-1.27-0.17-1.88 24.94-58.72-3.31-84.23-3.6-84.48-0.63-0.54-0.85-1.42-0.56-2.21 0.29-0.78 1.03-1.29 1.87-1.29h375.67c1 0 1.84 0.73 1.98 1.72 9.49 69.17 2.23 87.1 1.92 87.82-0.32 0.74-1.04 1.21-1.84 1.21zm-370.61-3.99h369.15c1.32-4.96 5.29-26.06-2.35-82.77h-369.37c7.14 8.9 21.91 34.94 2.57 82.77z"/>
		<path id="&lt;Path&gt;" class="s2" d="m932.9 934.73l-1.73-94.01c0 0 35.79 16.6 34.76 45.5-1.03 28.9-33.03 48.51-33.03 48.51z"/>
		<path id="&lt;Path&gt;" class="s5" d="m559.3 926.27h371.54c1.81 0 3.51 0.45 5.06 1.21 4.46-5.1 17.73-21.97 16.76-40.82-0.58-11.07-6.28-21.47-16.86-30.96-1.52 0.73-3.19 1.16-4.96 1.16h-371.54c-6.85 0-12.39-6.18-12.39-13.02 0-6.84 5.54-13.01 12.39-13.01q6.12 0 12.25 0c115.57 0 231.79 3.54 347.28-0.33 2.23-0.08 4.45-0.17 6.68-0.18 8.39-0.05 17.04 0.87 24.43 4.82 16.54 8.85 26.62 32.58 27.47 50.46 1.02 21.16-6.68 43.68-23.67 57.07-20.09 15.84-51.64 12.05-75.83 11.33-99.62-2.96-199.29-1.71-298.82-1.71q-9.55 0-19.09 0-0.35 0-0.7 0c-6.85 0-12.39-6.17-12.39-13.01 0-6.84 5.54-13.01 12.39-13.01z"/>
		<path id="&lt;Compound Path&gt;" class="s2" d="m905.93 956.91c-6.35 0-12.61-0.28-18.67-0.55q-4.85-0.22-9.41-0.36c-58.67-1.75-117.13-1.97-161.51-1.97-22.89 0-45.77 0.06-68.65 0.13-22.87 0.07-45.74 0.13-68.6 0.13h-19.79c-7.8 0-14.38-6.87-14.38-15.01 0-8.14 6.58-15.01 14.38-15.01h371.54q2.29 0 4.49 0.8c4.83-5.79 16.21-21.34 15.33-38.3-0.52-10.15-5.66-19.81-15.26-28.73q-2.23 0.81-4.56 0.82h-371.54c-7.8 0-14.38-6.88-14.38-15.02 0-8.13 6.58-15.01 14.38-15.01h12.25c37.33 0 75.36 0.38 112.14 0.74 36.84 0.36 74.92 0.74 112.36 0.74 46.86 0 85.86-0.57 122.71-1.81l1.23-0.04q2.75-0.11 5.51-0.14h0.61c10.44 0 18.31 1.6 24.78 5.06 17.34 9.28 27.64 33.78 28.52 52.12 1.13 23.47-8.24 45.97-24.43 58.74-14.24 11.23-33.69 12.67-49.05 12.67zm-189.59-6.88c44.4 0 102.91 0.22 161.63 1.97q4.59 0.15 9.46 0.37c6.02 0.27 12.24 0.54 18.5 0.54 14.71 0 33.3-1.34 46.57-11.81 15.2-11.98 23.98-33.21 22.92-55.4-0.83-17.25-10.37-40.21-26.42-48.8-5.86-3.13-13.13-4.59-22.89-4.59h-0.59q-2.69 0.03-5.39 0.14l-1.24 0.04c-36.9 1.24-75.93 1.82-122.84 1.82-37.46 0-75.55-0.38-112.4-0.74-36.77-0.37-74.79-0.74-112.1-0.74h-12.25c-5.53 0-10.39 5.15-10.39 11.01 0 5.87 4.86 11.02 10.39 11.02h371.54q2.1 0 4.1-0.96c0.73-0.35 1.6-0.23 2.2 0.31 11.02 9.9 16.91 20.79 17.51 32.35 1.02 19.69-12.94 37.3-17.24 42.23-0.6 0.69-1.58 0.88-2.39 0.48q-2.05-1-4.18-1.01h-371.54c-5.53 0-10.39 5.15-10.39 11.02 0 5.87 4.86 11.02 10.39 11.02h19.79c22.86 0 45.72-0.07 68.59-0.14 22.88-0.06 45.76-0.13 68.66-0.13z"/>
		<path id="&lt;Path&gt;" class="s2" d="m934.42 872.93h-137.13c-1.1 0-2-0.89-2-1.99 0-1.11 0.9-2 2-2h137.13c1.11 0 2 0.89 2 2 0 1.1-0.89 1.99-2 1.99z"/>
		<path id="&lt;Path&gt;" class="s2" d="m767.8 875.07h-77.8c-1.1 0-2-0.9-2-2 0-1.11 0.9-2 2-2h77.8c1.11 0 2 0.89 2 2 0 1.1-0.89 2-2 2z"/>
		<path id="&lt;Path&gt;" class="s2" d="m626.41 873.29h-51.87c-1.1 0-2-0.89-2-2 0-1.1 0.9-2 2-2h51.87c1.1 0 2 0.9 2 2 0 1.11-0.9 2-2 2z"/>
		<path id="&lt;Path&gt;" class="s2" d="m759.63 892.83h-185.56c-1.11 0-2-0.89-2-2 0-1.1 0.89-2 2-2h185.56c1.11 0 2 0.9 2 2 0 1.11-0.89 2-2 2z"/>
		<path id="&lt;Path&gt;" class="s2" d="m937.26 891.05h-92.36c-1.11 0-2-0.89-2-1.99 0-1.11 0.89-2 2-2h92.36c1.11 0 2 0.89 2 2 0 1.1-0.89 1.99-2 1.99z"/>
		<path id="&lt;Path&gt;" class="s2" d="m939.4 914.86h-25.23c-1.1 0-2-0.9-2-2 0-1.11 0.9-2 2-2h25.23c1.1 0 1.99 0.89 1.99 2 0 1.1-0.89 2-1.99 2z"/>
		<path id="&lt;Path&gt;" class="s2" d="m632.8 917.7h-64.65c-1.11 0-2-0.9-2-2 0-1.1 0.89-2 2-2h64.65c1.11 0 2 0.9 2 2 0 1.1-0.89 2-2 2z"/>
		<path id="&lt;Path&gt;" class="s4" d="m645.47 782.1v101.9l25.48-14.08 24.8 16.09v-103.91c0 0-51.28 1.01-50.28 0z"/>
		<path id="&lt;Compound Path&gt;" class="s2" d="m695.75 888.01q-0.58 0-1.09-0.32l-23.79-15.44-24.43 13.5c-0.62 0.34-1.37 0.33-1.98-0.03-0.61-0.36-0.99-1.01-0.99-1.72v-101.63q-0.01-0.1-0.01-0.21c-0.01-0.54 0.22-1.09 0.6-1.47 0.57-0.57 1.43-0.75 2.18-0.43q0.07 0.02 0.14 0.06c0.77 0.08 3.33 0.23 11.68 0.23 14.71 0 37.42-0.44 37.65-0.45 0.55 0.06 1.06 0.2 1.44 0.58 0.38 0.37 0.6 0.88 0.6 1.42v103.91c0 0.74-0.4 1.41-1.04 1.76q-0.46 0.24-0.96 0.24zm-24.8-20.08q0.58 0 1.09 0.32l21.71 14.09v-98.2c-5.93 0.11-23.53 0.41-35.69 0.41-5.44 0-8.65-0.05-10.59-0.15v96.21l22.51-12.43q0.46-0.26 0.97-0.25z"/>
		<path id="&lt;Compound Path&gt;" class="s4" d="m695.75 886.59q-0.17 0-0.31-0.1l-24.52-15.9-25.17 13.92c-0.18 0.09-0.39 0.09-0.57-0.01-0.17-0.11-0.28-0.29-0.28-0.5v-101.74q-0.01-0.06-0.01-0.12c-0.01-0.15 0.07-0.33 0.18-0.44 0.16-0.17 0.41-0.22 0.62-0.13q0.1 0.05 0.18 0.12c0.57 0.11 2.9 0.29 12.19 0.29 14.72 0 37.45-0.45 37.68-0.45q0.25 0.01 0.41 0.16 0.17 0.17 0.17 0.41v103.91c0 0.21-0.11 0.41-0.3 0.51q-0.13 0.07-0.27 0.07zm-24.8-17.24q0.16 0 0.31 0.09l23.92 15.52v-102.27c-3.67 0.07-23.71 0.43-37.12 0.43-7.73 0-10.76-0.11-12.01-0.26v100.17l24.62-13.61q0.13-0.07 0.28-0.07z"/>
		<path id="&lt;Compound Path&gt;" class="s2" d="m695.75 888.59q-0.76-0.01-1.39-0.42l-23.52-15.25-24.12 13.33c-0.82 0.45-1.79 0.42-2.56-0.04-0.77-0.46-1.26-1.3-1.26-2.21v-101.63q-0.01-0.13-0.01-0.23c-0.02-0.65 0.27-1.36 0.76-1.86 0.73-0.73 1.89-0.96 2.85-0.53q0.02 0.01 0.04 0.01c0.79 0.08 3.37 0.22 11.52 0.22 13.48 0 33.62-0.37 37.53-0.45 0.03 0.01 0.19 0 0.22 0 0.67 0.03 1.27 0.28 1.74 0.73 0.49 0.49 0.77 1.16 0.77 1.84v103.91c0 0.95-0.51 1.81-1.34 2.26q-0.57 0.31-1.23 0.32zm-24.8-21.24q0.75 0.01 1.39 0.41l20.84 13.52v-96.56c-7.15 0.13-23.53 0.4-35.12 0.4-5.29 0-8.26-0.05-10.01-0.12v94.64l21.65-11.97q0.61-0.32 1.25-0.32z"/>
		<path id="&lt;Compound Path&gt;" class="s2" d="m842.96 217.44l-21.4 4.34-12.17-59.98 21.4-4.34zm5.71 18.99q1.03 5.1-1.89 9.33-2.92 4.24-8.14 5.3-4.97 1.01-9.37-1.74-4.4-2.76-5.41-7.72-1.01-4.97 1.9-9.27 2.9-4.3 8-5.34 5.22-1.05 9.56 1.71 4.34 2.77 5.35 7.73z"/>
		<path id="&lt;Compound Path&gt;" class="s2" d="m873.97 244.63q-0.54 3.72-3.56 5.89-3.01 2.16-6.82 1.61-3.62-0.52-5.94-3.46-2.32-2.94-1.79-6.56 0.52-3.62 3.54-5.84 3.02-2.21 6.73-1.68 3.81 0.55 6.08 3.49 2.28 2.93 1.76 6.55zm0.74-14.29l-15.6-2.26 6.33-43.71 15.59 2.26z"/>
		<path id="&lt;Path&gt;" class="s2" d="m286.5 906.63l17.59-5.58-17.6-6.01c-5.26-1.39-9.29-5.62-10.42-10.95l-5.58-26.43-6 25.86c-1.26 5.45-5.57 9.68-11.05 10.83l-16.56 5.7 15.98 5.64c5.61 1.3 9.9 5.81 10.92 11.47l4.62 25.57 6.73-25.59c1.43-5.42 5.86-9.51 11.37-10.51z"/>
		<path id="&lt;Path&gt;" class="s2" d="m421.48 178.97l13.13-4.16-13.13-4.48c-3.92-1.04-6.93-4.2-7.77-8.17l-4.17-19.71-4.47 19.28c-0.94 4.07-4.16 7.22-8.24 8.08l-12.36 4.26 11.93 4.2c4.18 0.97 7.38 4.33 8.14 8.55l3.45 19.07 5.02-19.08c1.06-4.04 4.37-7.09 8.47-7.84z"/>
	</g>
</svg>