<svg version="1.2" xmlns="http://www.w3.org/2000/svg" viewBox="0 0 1080 1080" width="1080" height="1080">
	<style>
		.s0 { fill: #ccd7f2 } 
		.s1 { fill: #fc5e71 } 
		.s2 { fill: #333333 } 
		.s3 { fill: #ffffff } 
		.s4 { fill: #290a43 } 
		.s5 { fill: #f2cf63 } 
		.s6 { fill: #ff926c } 
		.s7 { fill: #f29c50 } 
	</style>
	<g id="Layer 1">
		<path id="&lt;Path&gt;" class="s0" d="m390.19 312.33c-17.78-15.46-35.1-32.46-53.62-45.97-61.66-44.95-148.85-50.03-210.13-4.46-44.03 32.75-71.16 87.06-83.56 143.17-28.21 127.67-17.6 327.67 87.85 414.86 21.47 17.75 46.54 29.69 71.8 40.16 81.79 33.92 168.28 67.69 255.61 79.72 56.19 7.75 116.56 1.32 163.27-33.22 62.84-46.47 79.18-125.52 100.9-198.94 23.86-80.65 71.49-151.13 109.57-224.6 25.14-48.51 47.54-101.76 44.48-157.23-3.05-55.47-39.48-112.33-90.78-117.67-24.31-2.53-48.32 6.39-70.87 16.5-43.41 19.46-84.93 43.85-123.62 72.64-36.55 27.19-74.99 59.84-119.32 57.09-31.12-1.93-56.8-20.49-81.58-42.05z"/>
		<path id="&lt;Path&gt;" class="s1" d="m741.89 278.85c-27.87-90.64-123.93-141.53-214.57-113.66-90.64 27.87-141.53 123.94-113.66 214.58 27.86 90.64 123.93 141.53 214.57 113.66 90.64-27.87 141.53-123.94 113.66-214.58z"/>
		<path id="&lt;Compound Path&gt;" class="s2" d="m577.73 502.83q-0.01 0-0.01 0c-36.31 0-72.57-11.83-102.09-33.3-30.53-22.2-52.55-53.06-63.67-89.24-13.62-44.29-9.17-91.23 12.52-132.18 21.68-40.95 58.02-71 102.31-84.61 16.63-5.12 33.81-7.71 51.04-7.71 36.31 0 72.57 11.83 102.09 33.3 30.53 22.2 52.55 53.06 63.67 89.24 28.11 91.43-23.41 188.69-114.84 216.8-16.63 5.11-33.79 7.7-51.02 7.7zm0.1-343.49c-16.88 0-33.7 2.54-49.99 7.55-43.39 13.34-78.98 42.77-100.23 82.88-21.24 40.11-25.6 86.09-12.26 129.48 22.08 71.79 87.32 120.02 162.37 120.03q0 0 0.01 0c16.87 0 33.69-2.54 49.98-7.55 89.56-27.53 140.02-122.8 112.48-212.36-22.07-71.79-87.32-120.03-162.36-120.03z"/>
		<path id="&lt;Path&gt;" class="s3" d="m699.11 292.01c-20.61-67.01-91.63-104.63-158.64-84.03-67.01 20.6-104.63 91.62-84.03 158.63 20.6 67.01 91.63 104.64 158.64 84.03 67.01-20.6 104.63-91.62 84.03-158.63z"/>
		<path id="&lt;Compound Path&gt;" class="s4" d="m577.74 458.06q-0.01 0-0.01 0c-56.84-0.01-106.27-36.55-122.99-90.92-10.1-32.87-6.8-67.7 9.29-98.08 16.09-30.38 43.05-52.67 75.92-62.78 12.34-3.79 25.08-5.72 37.87-5.72 56.84 0 106.26 36.54 122.98 90.92 10.11 32.87 6.81 67.7-9.28 98.08-16.1 30.38-43.06 52.68-75.92 62.78-12.34 3.79-25.08 5.72-37.86 5.72zm0.08-253.94c-12.44 0-24.83 1.87-36.83 5.56-31.95 9.82-58.17 31.5-73.82 61.04-15.65 29.55-18.86 63.42-9.03 95.37 16.26 52.88 64.32 88.41 119.59 88.42q0.01 0 0.01 0c12.43 0 24.81-1.88 36.82-5.57 31.95-9.82 58.17-31.5 73.82-61.04 15.65-29.55 18.85-63.42 9.03-95.37-16.26-52.89-64.32-88.41-119.59-88.41z"/>
		<path id="&lt;Path&gt;" class="s1" d="m664.62 302.61c-14.74-47.97-65.58-74.9-113.55-60.15-47.96 14.75-74.89 65.59-60.14 113.55 14.74 47.97 65.58 74.9 113.55 60.15 47.96-14.75 74.89-65.59 60.14-113.55z"/>
		<path id="&lt;Compound Path&gt;" class="s2" d="m577.75 421.97q0 0-0.01 0c-40.91 0-76.48-26.3-88.51-65.44-7.27-23.65-4.9-48.72 6.68-70.58 11.59-21.87 30.99-37.91 54.64-45.19 8.88-2.72 18.05-4.11 27.26-4.11 40.9 0 76.48 26.3 88.51 65.44 15.01 48.82-12.5 100.75-61.32 115.77-8.88 2.73-18.05 4.11-27.25 4.11zm0.06-181.77c-8.86 0-17.67 1.33-26.22 3.96-22.74 6.99-41.4 22.42-52.54 43.45-11.14 21.03-13.42 45.14-6.43 67.88 11.57 37.64 45.78 62.93 85.12 62.93q0.01 0 0.01 0c8.84 0 17.66-1.33 26.2-3.96 46.96-14.43 73.41-64.38 58.97-111.33-11.57-37.64-45.77-62.93-85.11-62.93z"/>
		<path id="&lt;Path&gt;" class="s3" d="m631.89 312.67c-9.19-29.89-40.87-46.67-70.76-37.48-29.89 9.19-46.67 40.87-37.48 70.76 9.19 29.89 40.87 46.67 70.76 37.48 29.89-9.19 46.67-40.87 37.48-70.76z"/>
		<path id="&lt;Compound Path&gt;" class="s4" d="m577.76 387.72q0 0 0 0c-25.79 0-48.22-16.58-55.8-41.25-4.59-14.91-3.09-30.71 4.21-44.49 7.3-13.79 19.53-23.9 34.44-28.49 5.6-1.72 11.38-2.59 17.18-2.59 25.79 0 48.22 16.58 55.8 41.25 9.46 30.78-7.88 63.52-38.65 72.98-5.6 1.72-11.38 2.59-17.18 2.59zm0.03-113.27c-5.45 0-10.87 0.82-16.13 2.44-14.01 4.3-25.49 13.8-32.35 26.75-6.86 12.94-8.27 27.78-3.96 41.79 7.12 23.17 28.18 38.74 52.41 38.74 5.45 0 10.87-0.82 16.13-2.44 28.91-8.88 45.19-39.63 36.31-68.54-7.13-23.17-28.19-38.74-52.41-38.74z"/>
		<path id="&lt;Path&gt;" class="s1" d="m604.75 321.02c-4.58-14.91-20.37-23.27-35.27-18.69-14.9 4.58-23.27 20.37-18.69 35.28 4.58 14.9 20.38 23.26 35.28 18.68 14.9-4.58 23.27-20.37 18.68-35.27z"/>
		<path id="&lt;Compound Path&gt;" class="s2" d="m577.77 359.32c-13.26 0-24.78-8.52-28.67-21.19-4.86-15.82 4.04-32.64 19.86-37.5 2.87-0.88 5.84-1.33 8.82-1.33 13.25 0 24.77 8.52 28.67 21.19 2.36 7.66 1.59 15.78-2.16 22.86-3.75 7.09-10.04 12.28-17.7 14.64-2.87 0.88-5.84 1.33-8.82 1.33zm0.01-56.47c-2.62 0-5.24 0.4-7.78 1.18-13.94 4.28-21.8 19.11-17.51 33.05 3.44 11.18 13.59 18.69 25.28 18.69 2.62 0 5.24-0.4 7.78-1.18 6.75-2.07 12.29-6.65 15.6-12.9 3.31-6.24 3.98-13.4 1.91-20.15-3.44-11.18-13.6-18.69-25.28-18.69z"/>
		<path id="&lt;Path&gt;" class="s5" d="m409.7 229.09l-6.23-29.67-48.14-30.52 13.7 41.83z"/>
		<path id="&lt;Compound Path&gt;" class="s2" d="m409.7 230.86q-0.37 0-0.73-0.16l-40.67-18.35c-0.46-0.2-0.81-0.59-0.96-1.06l-13.7-41.84c-0.23-0.71 0.01-1.5 0.6-1.95 0.59-0.47 1.41-0.5 2.04-0.1l48.14 30.52c0.41 0.25 0.69 0.66 0.79 1.13l6.23 29.67c0.14 0.66-0.1 1.33-0.63 1.75-0.32 0.26-0.71 0.39-1.11 0.39zm-39.23-21.42l36.78 16.59-5.36-25.51-43.33-27.48z"/>
		<path id="&lt;Path&gt;" class="s5" d="m409.82 228.64l-26.94 13.9-54.06-18.05 41.08-15.8z"/>
		<path id="&lt;Compound Path&gt;" class="s2" d="m382.88 244.32q-0.28 0-0.56-0.1l-54.07-18.05c-0.71-0.24-1.19-0.89-1.21-1.64-0.02-0.75 0.44-1.43 1.14-1.7l41.08-15.8c0.47-0.18 0.99-0.16 1.44 0.07l39.92 19.95c0.59 0.3 0.97 0.91 0.98 1.57 0 0.67-0.37 1.29-0.96 1.59l-26.94 13.91q-0.39 0.2-0.82 0.2zm-48.81-19.95l48.66 16.25 23.17-11.96-36.09-18.04z"/>
		<path id="&lt;Path&gt;" class="s2" d="m566.52 325.61c-0.93 0.22-1.95 0.1-2.85-0.41l-195.52-111.07c-1.91-1.08-2.57-3.5-1.49-5.4 1.08-1.9 3.49-2.56 5.4-1.49l195.52 111.07c1.9 1.08 2.57 3.5 1.49 5.4-0.57 1-1.51 1.66-2.55 1.9z"/>
		<path id="&lt;Path&gt;" class="s5" d="m582.35 332.52l-26.11-47.06-2.13 28.65-24.08 15.15z"/>
		<path id="&lt;Compound Path&gt;" class="s2" d="m582.35 334.29q-0.05 0-0.11 0l-52.32-3.25c-0.77-0.05-1.42-0.59-1.61-1.34-0.19-0.74 0.12-1.53 0.78-1.94l23.32-14.67 2.06-27.77c0.06-0.78 0.63-1.43 1.39-1.6 0.77-0.16 1.55 0.19 1.93 0.87l26.11 47.06c0.32 0.57 0.3 1.27-0.05 1.82-0.32 0.51-0.89 0.82-1.5 0.82zm-46.71-6.46l43.59 2.71-21.66-39.03-1.69 22.73c-0.04 0.57-0.34 1.08-0.82 1.38z"/>
		<path id="&lt;Path&gt;" class="s3" d="m124.79 359.74l19.31-6.13-19.31-6.6c-5.78-1.52-10.21-6.16-11.44-12.01l-6.13-29-6.58 28.37c-1.39 5.99-6.12 10.62-12.13 11.89l-18.18 6.26 17.55 6.19c6.15 1.42 10.86 6.37 11.98 12.58l5.07 28.06 7.39-28.09c1.56-5.93 6.42-10.43 12.47-11.52z"/>
		<path id="&lt;Path&gt;" class="s2" d="m771.19 212.99l9.95-3.16-9.95-3.39c-2.98-0.79-5.26-3.18-5.9-6.2l-3.16-14.95-3.39 14.63c-0.72 3.08-3.15 5.47-6.25 6.13l-9.37 3.22 9.04 3.19c3.17 0.74 5.6 3.29 6.18 6.49l2.61 14.46 3.81-14.47c0.81-3.07 3.31-5.38 6.43-5.95z"/>
		<path id="&lt;Path&gt;" class="s2" d="m785.63 587.32l13.6-4.31-13.6-4.65c-4.07-1.07-7.19-4.34-8.05-8.46l-4.32-20.43-4.64 19.99c-0.97 4.21-4.3 7.48-8.54 8.37l-12.8 4.41 12.36 4.36c4.33 1 7.64 4.49 8.43 8.86l3.57 19.76 5.21-19.78c1.1-4.18 4.53-7.35 8.78-8.12z"/>
		<path id="&lt;Path&gt;" class="s2" d="m558.68 442.37c14.22-21.98 28.42 10.16 35.87 29.12 7.45 18.95 57.19 91.7 72.09 93.06 14.88 1.37 56.59 24.42 38.3 34.9-18.26 10.51-109.38-19.34-109.38-19.34l-41.63-67.34c0 0-9.47-48.4 4.75-70.4z"/>
		<path id="&lt;Path&gt;" class="s3" d="m144.78 949.73l-82.76-2.03 15.43-165.47 60.85 44.16 21.89 59.65z"/>
		<path id="&lt;Compound Path&gt;" class="s2" d="m144.78 951.5q-0.03 0-0.05 0l-82.76-2.02c-0.49-0.01-0.95-0.23-1.28-0.6-0.33-0.36-0.49-0.85-0.44-1.34l15.44-165.48c0.06-0.63 0.45-1.19 1.03-1.45 0.58-0.26 1.26-0.2 1.78 0.18l60.84 44.16q0.43 0.32 0.62 0.83l21.9 59.64q0.18 0.51 0.06 1.03l-15.42 63.7c-0.19 0.79-0.91 1.35-1.72 1.35zm-80.82-5.52l79.43 1.94 14.95-61.78-21.52-58.63-57.89-42.02z"/>
		<path id="&lt;Path&gt;" class="s3" d="m543.48 491.5c91.7-56.01 273.46-231.69 273.46-231.69 13.5-32.77 53.14-92.29 76.77-72.31 0 0 11.15-13.17 23.86-11.25 11.77 1.75 14.39 15.66 14.39 15.66 0 0 15-13.87 27.57-6.15 7.35 4.5 10.01 15.89 10.01 15.89l65.3-69.69c15.91-11.58 32.98 10.23 16.84 36.45-13.62 22.16-64.68 83.07-61.23 89.83 4.87 9.56 7.22 47.64-8.57 73.79-15.77 26.17-87.44 50.81-87.44 50.81 0 0-193.51 192.1-261.8 234.78-23.42-9.35-180.85-70.09-89.16-126.12z"/>
		<path id="&lt;Compound Path&gt;" class="s2" d="m632.64 619.4q-0.34 0-0.66-0.13l-1.52-0.6c-74.24-29.52-114.72-59.68-117.07-87.22-1.27-14.91 8.54-28.86 29.16-41.47 88.88-54.28 264.94-223.53 272.89-231.19 11.24-27.08 42.38-77.08 67.65-77.08 3.78 0 7.28 1.14 10.42 3.38 3.01-3.1 11.47-10.81 21.5-10.81q1.43 0 2.83 0.21c9.56 1.43 13.61 9.84 15.1 14.31 3.45-2.62 10.52-7.15 18.22-7.15 3.36 0 6.49 0.87 9.3 2.6 5.48 3.36 8.51 10.03 9.89 13.95l63.2-67.46q0.11-0.12 0.25-0.22c3.16-2.3 6.6-3.52 9.95-3.52 5.42 0 10.25 3.07 13.24 8.43 5.09 9.1 3.67 21.78-3.8 33.91-5.15 8.39-15.47 22.08-26.4 36.56-14.19 18.83-35.64 47.28-34.73 51.63 5.14 10.05 7.24 49.09-8.66 75.41-15.48 25.7-81.7 49.25-88 51.44-8.54 8.46-195.36 193.21-261.82 234.74q-0.44 0.27-0.94 0.28zm250.45-434.14c-21.59 0-51.85 44.48-64.51 75.23q-0.14 0.34-0.41 0.6c-1.81 1.76-182.95 176.45-273.76 231.93-19.39 11.84-28.63 24.67-27.48 38.13 1.55 18.21 22.74 47.6 114.85 84.22l0.68 0.27c68.01-43.03 258.8-232.15 260.73-234.06q0.29-0.29 0.67-0.42c0.71-0.24 71.25-24.73 86.5-50.05 15.26-25.28 13.4-62.46 8.51-72.06-2.41-4.72 8.84-20.47 35.09-55.28 10.87-14.42 21.14-28.05 26.21-36.29 7.98-12.98 7.16-24.17 3.72-30.32-2.34-4.2-6.04-6.61-10.14-6.61-2.58 0-5.18 0.93-7.73 2.75l-65.19 69.57c-0.44 0.48-1.12 0.66-1.75 0.5-0.63-0.17-1.12-0.67-1.27-1.31-0.02-0.11-2.59-10.73-9.21-14.78-2.24-1.38-4.75-2.08-7.44-2.08-9.22 0-17.91 7.94-18 8.02-0.47 0.44-1.15 0.58-1.76 0.38-0.61-0.2-1.07-0.72-1.19-1.36-0.02-0.12-2.55-12.69-12.9-14.23q-1.14-0.18-2.3-0.18c-10.67 0-19.85 10.71-19.94 10.81-0.63 0.75-1.75 0.85-2.5 0.21-2.86-2.41-5.96-3.59-9.48-3.59z"/>
		<path id="&lt;Path&gt;" class="s2" d="m964.17 298.72q-0.48 0-0.93-0.26c-0.83-0.52-1.09-1.61-0.58-2.45 0.12-0.19 12.2-19.85 26.04-41.87 0.52-0.82 1.61-1.08 2.44-0.56 0.84 0.53 1.09 1.62 0.56 2.45-13.83 22.01-25.89 41.65-26.01 41.84-0.34 0.55-0.92 0.85-1.52 0.85z"/>
		<path id="&lt;Path&gt;" class="s2" d="m957.53 218.54q-0.59 0-1.08-0.37c-0.78-0.6-0.93-1.71-0.33-2.49l0.76-1c2.87-3.73 6.43-8.37 11.45-14.54 0.62-0.76 1.74-0.87 2.5-0.26 0.76 0.62 0.87 1.74 0.25 2.5-4.98 6.13-8.53 10.75-11.38 14.47l-0.76 0.99c-0.35 0.46-0.88 0.7-1.41 0.7z"/>
		<path id="&lt;Path&gt;" class="s2" d="m904.22 204.59q-0.16 0-0.32-0.03c-0.97-0.18-1.6-1.11-1.43-2.07 0.51-2.72 4.62-4.26 15.39-7.65 5.63-1.77 12.01-3.77 14.47-5.58 0.79-0.58 1.9-0.41 2.48 0.39 0.58 0.79 0.41 1.9-0.38 2.48-2.93 2.15-9.32 4.16-15.5 6.1-4.78 1.5-11.96 3.76-13 5.07-0.22 0.76-0.92 1.29-1.71 1.29z"/>
		<path id="&lt;Path&gt;" class="s2" d="m874.23 214.08q-0.27 0-0.54-0.09c-0.94-0.3-1.45-1.3-1.15-2.23 1.46-4.53 16.37-22.07 21.78-27.13 0.71-0.67 1.84-0.63 2.51 0.09 0.67 0.71 0.63 1.84-0.09 2.5-5.72 5.35-19.76 22.34-20.82 25.63-0.24 0.75-0.94 1.23-1.69 1.23z"/>
		<path id="&lt;Path&gt;" class="s2" d="m931.73 262.66c-0.64 0-1.26-0.35-1.58-0.96-0.45-0.87-0.11-1.94 0.77-2.39l16.34-8.42c0.87-0.46 1.94-0.11 2.39 0.76 0.45 0.87 0.11 1.94-0.76 2.39l-16.35 8.42q-0.39 0.2-0.81 0.2z"/>
		<path id="&lt;Path&gt;" class="s2" d="m941.99 266.75c-0.82 0-1.55-0.56-1.73-1.39l-3.78-16.92c-0.22-0.96 0.39-1.91 1.34-2.12 0.96-0.22 1.91 0.39 2.12 1.34l3.78 16.93c0.22 0.95-0.39 1.9-1.35 2.12q-0.19 0.04-0.38 0.04z"/>
		<path id="&lt;Path&gt;" class="s2" d="m894.42 251.89c-0.65 0-1.27-0.35-1.58-0.97-0.45-0.87-0.11-1.94 0.76-2.39l16.35-8.4c0.88-0.45 1.94-0.1 2.39 0.77 0.45 0.87 0.11 1.94-0.77 2.39l-16.34 8.4q-0.4 0.2-0.81 0.2z"/>
		<path id="&lt;Path&gt;" class="s2" d="m904.67 255.98c-0.81 0-1.55-0.57-1.73-1.4l-3.76-16.9c-0.21-0.96 0.39-1.9 1.35-2.12 0.96-0.2 1.91 0.39 2.12 1.35l3.76 16.9c0.21 0.96-0.39 1.91-1.35 2.12q-0.2 0.05-0.39 0.05z"/>
		<path id="&lt;Path&gt;" class="s2" d="m858.59 243.24c-0.64 0-1.27-0.35-1.58-0.96-0.45-0.87-0.11-1.94 0.77-2.39l16.34-8.42c0.87-0.46 1.95-0.11 2.39 0.76 0.45 0.87 0.11 1.94-0.76 2.39l-16.35 8.42q-0.39 0.2-0.81 0.2z"/>
		<path id="&lt;Path&gt;" class="s2" d="m868.84 247.31c-0.81 0-1.54-0.57-1.73-1.39l-3.75-16.91c-0.22-0.95 0.39-1.9 1.34-2.12 0.96-0.2 1.91 0.4 2.12 1.35l3.76 16.91c0.21 0.95-0.39 1.9-1.35 2.12q-0.19 0.04-0.39 0.04z"/>
		<path id="&lt;Path&gt;" class="s2" d="m1037.21 161.99q-0.08 0-0.17-0.01c-0.43-0.04-10.73-1.15-18.74-11.74-0.6-0.78-0.44-1.89 0.34-2.49 0.78-0.59 1.89-0.43 2.49 0.35 5.69 7.52 12.75 9.64 15.29 10.18l10.23-14.13c0.58-0.8 1.69-0.98 2.48-0.4 0.8 0.57 0.97 1.68 0.4 2.48l-10.88 15.02c-0.33 0.47-0.87 0.74-1.44 0.74z"/>
		<path id="&lt;Path&gt;" class="s2" d="m331 574.89c41.95-26.21 59.19-40.45 130.37-65.92 71.16-25.48 101.13-68.19 101.13-68.19 0 0 9.47 57.3 36.42 97.01 26.98 39.7 105.92 59.58 105.92 59.58 0 0-42.14 32.75-57.68 48.7-20.15 20.66-104.17 44.01-99.69 94.94 4.5 50.94 13.01 200.28 13.01 200.28-402.58 8.11-416.01 8.89-416.01 8.89l3.57-96.79-90.4 1.96-18.02-54.78c0 0 17.26-0.93 39.53-78.38 26.41-91.92 64.41-141.87 186.03-152.21 0 0 23.86 31.14 65.82 4.91z"/>
		<path id="&lt;Path&gt;" class="s3" d="m243.57 460.6c0 0-19.07-14.76-32.44-7.8-13.33 6.93-11.39 37.19 4.6 41.03 15.98 3.83 32.53-10.28 32.53-10.28z"/>
		<path id="&lt;Compound Path&gt;" class="s2" d="m221.46 496.26q-3.18 0-6.14-0.71c-7.69-1.84-13.27-9.46-14.54-19.88-1.12-9.12 1.39-20.22 9.53-24.45 2.63-1.37 5.63-2.06 8.92-2.06 12.32 0 24.9 9.62 25.43 10.03 0.34 0.26 0.57 0.64 0.65 1.05l4.69 22.95c0.13 0.64-0.1 1.29-0.59 1.71-0.54 0.46-13.49 11.36-27.95 11.36zm-2.23-43.55c-2.71 0-5.16 0.56-7.28 1.66-5.65 2.94-8.8 11.52-7.65 20.87 0.86 6.98 4.42 15.08 11.85 16.86q2.55 0.61 5.31 0.61c11.21 0 21.88-7.59 24.84-9.87l-4.33-21.22c-2.43-1.75-12.95-8.91-22.74-8.91z"/>
		<path id="&lt;Path&gt;" class="s2" d="m206.63 374.97c-6.32 13.5 0.56 39.01 10.28 61.23 9.66 22.02-0.52-45.81-0.52-45.81l12.67-22.13z"/>
		<path id="&lt;Path&gt;" class="s6" d="m208.51 394.39c4.31-6.98 16.86-25.24 31.78-22.48 18.29 3.43 17.21 12.76 48.71 3.74 29.02-8.34 30.29-31.54 44.58 4.93 1.63 7.58 3.55 16.78 5.36 26.65 4.69 25.28 2.29 36.77 2.25 37.64l18.7-10.48 2.83-39.44c2.76-39.63-27.16-65.32-67.18-66.42-0.87-0.06-1.94-0.06-2.83-0.12-78.05 0.43-83.69 58.24-83.69 58.24-0.68 2.25-0.78 5.02-0.51 7.74z"/>
		<path id="&lt;Path&gt;" class="s2" d="m192.82 384.11c15.94 5.76 14.72 11.95 14.26 13.09 0.17-0.25 0.64-1.18 1.47-2.6 4.31-6.98 16.86-25.24 31.78-22.48 18.29 3.43 17.21 12.76 48.71 3.74 29-8.34 30.3-31.54 44.58 4.93 1.63 7.55 3.55 16.78 5.36 26.64 4.69 25.29 2.29 36.78 2.23 37.65l8.59-4.79c3.61-4.91 11.58-14.26 21.21-16.88l1.57-44.95c13.17-20.72 18.19-30.8 3.72-41.51-14.94-11.04-13.62-17.87-37.54-20.26-23.9-2.38-27.43-36.57-56.06-31.91-28.62 4.66-25.44 42.76-46.87 40.99-21.38-1.57-39.13-14.86-50.77 3.65-11.68 18.33-9.55 48.34 7.76 54.69z"/>
		<path id="&lt;Path&gt;" class="s2" d="m349.78 440.08l10.11-5.69 10.73-6.03 0.13-5.12c-9.41 2.58-17.38 11.93-20.97 16.84z"/>
		<path id="&lt;Path&gt;" class="s3" d="m255.96 573.96l12.34-10.15-3.88-36.06c-47.99-4.51-47.16-58.24-48.03-83.81-0.97-21.5-6.89-37.19-7.84-49.34 4.31-6.98 16.86-25.24 31.78-22.48 18.29 3.43 17.21 12.76 48.71 3.74 29-8.34 30.3-31.54 44.58 4.93 1.63 7.55 3.55 16.78 5.36 26.64 4.69 25.29 2.29 36.78 2.23 37.65l8.59-4.79c3.61-4.91 11.58-14.26 21.21-16.88 2.25-0.64 4.79-0.89 7.17-0.7 16.51 1.83 26.08 33.86 11.14 43.85-10.15 6.77-23.77 5.26-31.64 3.53l-0.33 5.16 7.64 60.08 23.53 5.14c0 0-24.38 69.8-112.24 65.44-36.88-1.83-20.32-31.95-20.32-31.95z"/>
		<path id="&lt;Compound Path&gt;" class="s2" d="m284.09 607.88c-2.59 0-5.24-0.06-7.89-0.19-11.99-0.6-19.91-4.2-23.54-10.71-5.67-10.15 1.43-23.32 1.74-23.87q0.16-0.3 0.43-0.52l11.6-9.54-3.63-33.68c-45.84-5.33-47.29-54.82-48.06-81.54q-0.06-2-0.12-3.83c-0.57-12.66-2.86-23.17-4.88-32.44-1.38-6.33-2.57-11.8-2.96-16.82q-0.04-0.58 0.26-1.08c5.45-8.81 16.62-23.6 30.22-23.6q1.71 0 3.4 0.31c5.76 1.09 9.69 2.74 13.16 4.21 4.23 1.78 7.88 3.32 13.83 3.32 5.32 0 11.96-1.19 20.9-3.75 9.22-2.65 15.48-6.79 20.5-10.12 4.15-2.75 7.43-4.92 10.71-4.92 5.37 0 9.43 5.5 15.51 21.03q0.05 0.13 0.08 0.27c2.1 9.72 3.86 18.45 5.38 26.7 2.51 13.56 3.43 25.72 2.65 34.73l5.22-2.92c4.03-5.41 12.05-14.53 21.95-17.23 2.41-0.68 5.17-0.96 7.76-0.76 9.99 1.12 16.83 11.43 19.2 21.17 2.14 8.78 1.38 20.2-7.2 25.94-5.28 3.51-11.94 5.3-19.8 5.3-3.58 0-7.34-0.37-11.18-1.1l-0.2 2.96 7.46 58.66 22.31 4.87c0.49 0.11 0.92 0.43 1.17 0.87 0.24 0.44 0.29 0.97 0.12 1.45-0.23 0.67-24.28 66.83-106.1 66.83zm-26.73-32.78c-0.94 1.87-5.9 12.46-1.6 20.16 3 5.36 9.94 8.35 20.61 8.88 2.59 0.13 5.19 0.19 7.72 0.19 71.59 0 97.47-51.97 102-62.58l-21.48-4.69c-0.73-0.16-1.29-0.76-1.38-1.51l-7.64-60.08q-0.02-0.16-0.01-0.33l0.33-5.16c0.03-0.52 0.29-1 0.71-1.31 0.41-0.31 0.93-0.42 1.45-0.31 4.3 0.95 8.49 1.43 12.44 1.43 7.15 0 13.15-1.59 17.83-4.71 7.05-4.71 7.58-14.53 5.72-22.14-2.46-10.1-9.07-17.69-16.08-18.47-0.41-0.03-0.88-0.05-1.36-0.05-1.75 0-3.52 0.24-5.12 0.69-9.41 2.56-17.31 12.21-20.27 16.23q-0.23 0.31-0.57 0.5l-8.58 4.79c-0.57 0.32-1.27 0.3-1.82-0.05-0.55-0.35-0.86-0.97-0.82-1.62q0.01-0.14 0.07-0.56c1.28-8.83 0.47-21.84-2.27-36.64-1.51-8.18-3.25-16.83-5.33-26.46-5.19-13.23-8.72-18.64-12.15-18.64-2.21 0-5.1 1.91-8.75 4.33-4.95 3.28-11.73 7.77-21.48 10.57-9.27 2.66-16.22 3.89-21.88 3.89-6.67 0-10.82-1.75-15.21-3.6-3.47-1.46-7.05-2.97-12.44-3.98q-1.36-0.26-2.74-0.26c-11.64 0-21.73 13.19-26.89 21.43 0.42 4.63 1.54 9.81 2.84 15.76 2.05 9.41 4.37 20.08 4.96 33.06q0.06 1.86 0.11 3.87c0.76 25.89 2.17 74.1 46.3 78.26 0.84 0.08 1.51 0.74 1.6 1.57l3.88 36.06c0.07 0.59-0.17 1.18-0.63 1.56z"/>
		<path id="&lt;Path&gt;" class="s2" d="m241.49 436.55c-0.77-4.21-3.26-7.26-5.55-6.85-2.29 0.41-3.55 4.17-2.79 8.36 0.76 4.21 3.24 7.29 5.55 6.85 2.31-0.41 3.55-4.15 2.79-8.36z"/>
		<path id="&lt;Path&gt;" class="s2" d="m299.3 427.97c-0.77-4.19-3.24-7.27-5.56-6.85-2.29 0.43-3.52 4.17-2.76 8.38 0.74 4.18 3.24 7.26 5.53 6.85 2.31-0.42 3.57-4.17 2.79-8.38z"/>
		<path id="&lt;Path&gt;" class="s2" d="m276.8 405.12c0.45 1.41 2.11 2.17 3.69 2.52 7.64 1.77 15.69 2.19 23.64 0.93 1.44-0.27 2.7-0.5 4.08-1.18 2.13-1.24 2.89-4.15 2.05-6.33-0.77-1.78-2.52-3.14-4.34-3.66-1.86-0.72-3.8-0.78-5.76-0.84-7.37-0.35-15.52-0.11-21.11 4.54-1.55 0.93-2.77 2.41-2.25 4.02z"/>
		<path id="&lt;Path&gt;" class="s2" d="m224.65 417.55c4.68-0.23 10.15-3.16 13.52-3.57 2.97-0.33 9.14 0.43 8.95-3.99-0.72-2.85-3.44-4.68-6.13-5.24-2.23-0.45-4.35-0.27-6.68-0.04-4.85 0.47-12.96 0.91-15.73 5.67-0.64 1.18-1.01 2.73-0.35 3.88 1.57 2.71 3.88 3.55 6.42 3.29z"/>
		<path id="&lt;Path&gt;" class="s2" d="m264.48 465.94q-0.38 0-0.75-0.17c-0.35-0.16-8.56-4.08-10.28-10.69-1-3.83 1.02-9.15 3.17-14.78 1.4-3.67 2.85-7.47 3.23-10.47 0.12-0.97 1.01-1.64 1.98-1.54 0.98 0.13 1.66 1.01 1.54 1.99-0.43 3.41-1.96 7.42-3.43 11.29-1.85 4.86-3.77 9.88-3.05 12.61 1.08 4.17 6.39 7.46 8.34 8.38 0.89 0.42 1.27 1.47 0.86 2.36-0.3 0.65-0.94 1.02-1.61 1.02z"/>
		<path id="&lt;Path&gt;" class="s2" d="m262.25 525.38c11.17 2.19 50.38-12.73 50.38-12.73 0 0-18.49 33.82-46.05 36.16z"/>
		<path id="&lt;Path&gt;" class="s2" d="m362.82 456.65c-0.68 0-1.33-0.39-1.63-1.06-1.87-4.29-3.05-13.89 5.89-19.53 3.31-2.1 6.65-2.78 9.93-2.04 5.6 1.27 8.83 6.35 8.97 6.57 0.52 0.83 0.26 1.92-0.57 2.44-0.83 0.53-1.92 0.27-2.44-0.56-0.57-0.9-5.79-8.61-14-3.41-8.57 5.41-4.69 14.72-4.52 15.11 0.39 0.9-0.03 1.95-0.92 2.34q-0.35 0.15-0.71 0.14z"/>
		<path id="&lt;Path&gt;" class="s2" d="m371.18 449.37q-0.5 0-0.95-0.27l-8.05-5.1c-0.83-0.53-1.07-1.62-0.55-2.45 0.52-0.83 1.62-1.08 2.45-0.55l8.05 5.1c0.83 0.52 1.08 1.62 0.55 2.45-0.34 0.53-0.91 0.82-1.5 0.82z"/>
		<path id="&lt;Path&gt;" class="s3" d="m307.24 338.27c1.12-0.84 1.98-2.08 3.08-3.13 2.23-1.9 5.92-1.74 8.13-3.84 2.04-1.65 2.52-4.93 1.01-7.2-1.53-2.48-4.89-3.14-7.74-3.45-3.07-0.29-6.05-0.17-8.73-1.8-3.14-1.96-4.46-5.55-6.52-8.56-3.84-5.68-10.94-9.04-17.94-8.59-4.04 0.33-8 2.13-10.44 5.33-2.41 3.22-2.37 8.09 0.31 11 2.95 3.07 7.84 2.8 12.28 2.41 4.46-0.41 9.1-0.84 12.45 1.94 2.04 1.76 2.93 4.36 3.63 6.98 0.72 2.64 1.42 5.26 3.3 7.26 1.88 1.98 5.08 3.1 7.18 1.65z"/>
		<path id="&lt;Path&gt;" class="s2" d="m204.49 395.64q-0.14 0-0.28-0.02c-12.05-1.93-28.95-9.25-36.92-23.58-5.86-10.52-5.91-22.81-0.16-36.53 16.03-38.17 37.8-31 55.29-25.25 14.31 4.73 21.56 0.43 34.71-7.36 2.29-1.36 4.74-2.81 7.41-4.32 0.84-0.48 1.92-0.18 2.4 0.66 0.48 0.85 0.18 1.93-0.66 2.41-2.65 1.5-5.08 2.94-7.35 4.28-13.11 7.78-21.78 12.92-37.54 7.71-17.85-5.88-36.24-11.93-51 23.23-5.31 12.67-5.32 23.93-0.02 33.46 7.36 13.21 23.13 20 34.39 21.8 0.96 0.15 1.62 1.06 1.47 2.02-0.14 0.87-0.89 1.49-1.74 1.49z"/>
		<path id="&lt;Path&gt;" class="s3" d="m292.01 483.39c-2.88 5.04-8.04 9.22-12.81 10.48-7.67 2.03-19.61 1.19-24.72-5.78-1.97-2.68-5.29-9.11-1.56-11.65 0.65-0.44 1.5-0.43 2.28-0.39 8.66 0.38 17-0.28 24.34-5.52 1.86-1.27 3.65-2.75 5.78-3.48 2.14-0.73 4.8-0.52 6.26 1.21 3.87 4.6 3.21 10.27 0.43 15.13z"/>
		<path id="&lt;Compound Path&gt;" class="s2" d="m271.39 496.61c-8.18 0-14.87-2.72-18.35-7.47-0.43-0.6-4.25-5.96-3.48-10.43 0.27-1.57 1.08-2.87 2.36-3.74 0.94-0.64 1.99-0.71 2.7-0.71q0.34 0 0.66 0.01 1.87 0.09 3.72 0.09c8.38 0 14.39-1.62 19.5-5.28q0.63-0.42 1.19-0.83c1.54-1.09 3.13-2.22 5.05-2.88 0.95-0.32 1.96-0.49 2.95-0.49 2.16 0 4.03 0.79 5.24 2.24 3.95 4.68 4.18 10.94 0.62 17.16-3.08 5.38-8.66 9.93-13.89 11.31-2.53 0.67-5.39 1.02-8.27 1.02zm-16.77-18.8c-0.51 0-0.67 0.07-0.7 0.1-0.48 0.33-0.76 0.77-0.86 1.4-0.39 2.28 1.49 5.87 2.85 7.73 3.98 5.43 12.15 6.02 15.48 6.02 2.57 0 5.12-0.31 7.36-0.9 4.37-1.16 9.08-5.03 11.72-9.65 1.63-2.85 3.76-8.34-0.25-13.11-0.72-0.84-1.89-0.97-2.53-0.97-0.6 0-1.22 0.11-1.79 0.3-1.44 0.5-2.76 1.43-4.15 2.42q-0.61 0.43-1.22 0.85c-5.71 4.08-12.37 5.91-21.53 5.91q-1.93 0-3.87-0.09-0.25-0.01-0.51-0.01z"/>
		<path id="&lt;Path&gt;" class="s2" d="m147.77 855.24q-0.11 0-0.22-0.01c-1.01-0.13-1.72-1.04-1.6-2.04 9.12-74.79 6.09-119.16 6.06-119.6-0.07-1.01 0.69-1.89 1.7-1.96 1.02-0.08 1.88 0.69 1.95 1.69 0.04 0.45 3.09 45.18-6.07 120.31-0.12 0.93-0.91 1.61-1.82 1.61z"/>
		<path id="&lt;Path&gt;" class="s2" d="m152.39 770.91c-0.39 0-0.78-0.12-1.12-0.38-5.52-4.27-15-23.48-16.06-25.66-0.45-0.91-0.07-2.01 0.84-2.45 0.91-0.45 2-0.07 2.45 0.84 2.78 5.71 10.91 21.2 15.01 24.37 0.8 0.62 0.95 1.77 0.33 2.57-0.36 0.47-0.9 0.71-1.45 0.71z"/>
		<path id="&lt;Path&gt;" class="s2" d="m496.8 755.93c-0.89 0-1.68-0.66-1.81-1.57-2.72-19.01 5.28-63.27 18.15-85.91 0.5-0.88 1.62-1.19 2.5-0.69 0.88 0.5 1.18 1.62 0.68 2.5-12.21 21.47-20.32 65.29-17.7 83.58 0.14 1-0.56 1.93-1.56 2.07q-0.13 0.02-0.26 0.02z"/>
		<path id="&lt;Path&gt;" class="s2" d="m282.08 627.16c-11.67 0-22.73-1.85-31.5-6.38-12.64-6.53-18.92-17.69-18.66-33.16 0.01-1.01 0.84-1.89 1.86-1.8 1.01 0.01 1.82 0.85 1.8 1.86-0.24 13.96 5.38 24.01 16.68 29.85 27.19 14.05 79.79 0.25 96.83-12.27 0.81-0.6 1.96-0.42 2.56 0.39 0.59 0.82 0.42 1.96-0.4 2.56-12.61 9.27-42.47 18.95-69.17 18.95z"/>
		<path id="&lt;Path&gt;" class="s3" d="m23.15 480c-0.08-6.9 5.47-12.55 12.28-12.61 6.81-0.06 12.43 5.57 12.49 12.46l0.25 59.3 4.14-0.11-0.3-84.57c-0.05-8.07 6.39-14.68 14.38-14.7 7.99-0.02 14.53 6.53 14.55 14.62l0.29 84.41 3.65-0.07-0.47-101.58c-0.04-8.07 6.42-14.67 14.38-14.69 7.99-0.02 14.53 6.52 14.57 14.61l0.46 101.4h3.15l-0.41-84.04c-0.04-8.09 6.4-14.68 14.39-14.7 7.98-0.02 14.51 6.52 14.55 14.59l0.43 87.26c0.02 11.13-3.01 35.67 2.97 37.21 10.24 2.44 14.22-11.93 24.77-31.43 10.54-19.52 22.84-14.94 27.55-8.38 1.94 2.66-13.89 64.02-24.75 91.49-9.94 24.99-7.86 28.61-21.42 48.46l1.78 270.8-115.45 1.69-2.93-265.33c-18.79-26.04-17.86-61.69-17.57-94.58-0.25-0.81 2.66-16.84 2.75-17.69z"/>
		<path id="&lt;Compound Path&gt;" class="s2" d="m41.38 953.2c-0.47 0-0.91-0.18-1.24-0.51-0.34-0.33-0.53-0.78-0.54-1.25l-2.92-264.77c-18.22-25.67-17.91-59.47-17.6-92.17l0.03-2.89c-0.07-0.9 0.24-3.3 2.14-14.32 0.3-1.79 0.54-3.16 0.6-3.58l-0.47-93.7c-0.05-3.8 1.4-7.4 4.07-10.13 2.66-2.72 6.2-4.23 9.97-4.27 7.86 0 14.2 6.38 14.27 14.23l0.24 57.49 0.6-0.02-0.3-82.84c-0.02-4.42 1.67-8.57 4.77-11.7 3.05-3.07 7.09-4.76 11.39-4.77 8.87 0 16.09 7.14 16.32 15.99l-0.08-16.83c-0.02-4.42 1.68-8.57 4.78-11.69 3.05-3.08 7.09-4.78 11.38-4.79 8.99 0 16.3 7.35 16.35 16.38l0.06 13.58c0.68-2.98 2.16-5.7 4.35-7.91 3.05-3.07 7.09-4.76 11.39-4.77 8.98 0 16.29 7.33 16.33 16.36l0.44 87.25c0 2.65-0.16 6.03-0.34 9.61-0.39 8.14-1.21 25.07 1.98 25.9q0.88 0.2 1.74 0.21c5.55 0 9.29-7.53 14.95-18.93 1.77-3.57 3.78-7.61 6.07-11.84 6.67-12.37 13.82-14.96 18.63-14.96 4.6 0 9.06 2.39 11.92 6.39 0.5 0.68 2.03 2.78-7.3 37.93-4.54 17.13-11.46 40.64-17.23 55.24-3.2 8.04-5.18 13.96-6.78 18.71-3.4 10.15-5.47 16.32-14.52 29.64l1.77 270.25c0.01 0.97-0.77 1.77-1.75 1.78l-115.45 1.7q-0.01 0-0.02 0zm-18.74-361.92q0.02 0.12 0.02 0.24l-0.03 3.01c-0.3 32.32-0.61 65.74 17.26 90.52q0.32 0.46 0.33 1.02l2.91 263.55 111.91-1.64-1.76-269.04q0-0.55 0.31-1.01c9.04-13.24 10.94-18.92 14.4-29.23 1.6-4.79 3.6-10.77 6.84-18.89 10.97-27.76 25.25-84.55 24.78-90.02-1.75-2.31-4.93-4.68-8.87-4.68-5.52 0-10.88 4.53-15.51 13.09-2.26 4.19-4.25 8.2-6.01 11.74-6.25 12.58-10.37 20.9-18.13 20.9q-1.26 0-2.6-0.32c-5.6-1.45-5.48-12.63-4.66-29.51 0.17-3.54 0.33-6.87 0.32-9.42l-0.43-87.26c-0.03-7.07-5.75-12.82-12.74-12.82-3.38 0.01-6.53 1.33-8.9 3.72-2.43 2.45-3.76 5.71-3.74 9.19l0.41 84.04c0 0.47-0.18 0.92-0.52 1.26-0.33 0.33-0.78 0.52-1.26 0.52h-3.15c-0.98 0-1.77-0.79-1.78-1.77l-0.45-101.39c-0.04-7.08-5.76-12.85-12.76-12.85-3.37 0.01-6.52 1.34-8.9 3.74-2.44 2.45-3.77 5.71-3.75 9.17l0.48 101.59c0 0.97-0.78 1.76-1.75 1.78l-3.65 0.06c-0.5-0.04-0.93-0.17-1.27-0.51-0.34-0.33-0.53-0.78-0.54-1.26l-0.29-84.41c-0.01-7.08-5.73-12.84-12.73-12.84-3.38 0.01-6.53 1.33-8.91 3.72-2.43 2.45-3.76 5.72-3.74 9.19l0.31 84.58c0 0.96-0.77 1.76-1.73 1.78l-4.15 0.1c-0.49-0.01-0.94-0.17-1.28-0.5-0.34-0.33-0.54-0.79-0.54-1.27l-0.25-59.29c-0.05-5.89-4.8-10.7-10.6-10.7-2.91 0.03-5.56 1.16-7.55 3.2-2.01 2.05-3.1 4.76-3.06 7.62l0.47 93.83q0 0.09-0.01 0.18c-0.02 0.29-0.18 1.19-0.64 3.91-0.63 3.63-2.07 12.05-2.11 13.38zm60.09-133.91l0.27 79.62h0.1z"/>
		<path id="&lt;Path&gt;" class="s3" d="m131.3 592.54c0 0-40.19 10.07-45.32 48.87"/>
		<path id="&lt;Path&gt;" class="s2" d="m85.98 643.19q-0.12 0-0.24-0.02c-0.97-0.13-1.65-1.02-1.52-1.99 5.23-39.54 46.23-50.26 46.65-50.36 0.95-0.24 1.91 0.34 2.15 1.28 0.24 0.96-0.34 1.92-1.29 2.16-0.39 0.1-39.08 10.27-43.99 47.38-0.12 0.9-0.88 1.55-1.76 1.55z"/>
		<path id="&lt;Path&gt;" class="s3" d="m130.45 553.86l-86.82 0.27"/>
		<path id="&lt;Path&gt;" class="s2" d="m43.63 555.91c-0.98 0-1.78-0.8-1.78-1.77 0-0.98 0.79-1.78 1.77-1.79l86.83-0.26q0 0 0 0c0.98 0 1.77 0.79 1.78 1.77 0 0.98-0.79 1.78-1.77 1.78l-86.83 0.27q0 0 0 0z"/>
		<path id="&lt;Compound Path&gt;" class="s5" d="m739.9 679.58c-10.27-8.45-21.05-11.73-32.01-9.81-10.15 1.79-18.59 7.84-24.8 13.89l1.84-26.38-208.47-1.63 1.39 25.75c-6.05-5.92-14.16-11.73-23.91-13.61-10.93-2.09-21.76 1.02-32.16 9.31-12.26 9.77-17.47 23.91-14.69 39.83 3.89 22.23 22.48 42.57 46.24 50.61 20.19 6.82 30.71 14.78 36.01 20.25 10.57 24.75 31.32 44 56.95 52.53 13.96 4.64 23.17 17.97 23.06 32.69l-0.13 16.87c-0.13 15.46-12.76 27.9-28.23 27.78-9.47-0.07-17.21 7.55-17.28 17.02l-0.04 4.42 109.63 0.85 0.04-4.42c0.07-9.47-7.55-17.2-17.02-17.28-15.46-0.12-27.91-12.76-27.79-28.22l0.14-16.87c0.11-14.72 9.53-27.9 23.56-32.33 25.35-7.99 46.15-26.44 57.24-50.46 4.96-5.37 15.66-13.86 37.47-20.86 23.89-7.66 42.78-27.71 47.02-49.88 3.04-15.87-1.96-30.1-14.06-40.05zm-283.11 77.74c-19.83-6.7-35.89-24.08-39.08-42.25-1.46-8.39-0.78-20.31 10.79-29.54 7.92-6.31 15.55-8.65 23.36-7.16 13.14 2.52 23.14 15.35 26.96 20.96l3.06 56.57c0.25 4.67 0.87 9.24 1.77 13.7-6.67-4.15-15.41-8.41-26.86-12.28zm286.58-39.71c-3.46 18.12-19.8 35.24-39.73 41.63-11.92 3.83-20.93 8.11-27.76 12.29q1.55-6.87 2.07-14.1l3.87-55.5c3.24-4.81 13.92-19.08 27.98-21.55 7.84-1.37 15.43 1.1 23.25 7.53 11.43 9.4 11.92 21.34 10.32 29.7z"/>
		<path id="&lt;Compound Path&gt;" class="s2" d="m633.3 941.73q0 0-0.01 0l-109.63-0.86c-0.47 0-0.92-0.19-1.25-0.53-0.33-0.33-0.52-0.79-0.51-1.26l0.03-4.42c0.08-10.35 8.57-18.77 18.92-18.77h0.36c14.35 0 26.12-11.68 26.23-26.03l0.13-16.87c0.11-14.15-8.67-26.61-21.84-30.99-25.95-8.63-47.03-28.01-57.89-53.21-5.24-5.33-15.55-12.97-35.08-19.57-24.36-8.24-43.41-29.13-47.42-51.98-2.9-16.6 2.54-31.34 15.33-41.53 10.77-8.58 22.17-11.86 33.6-9.67 7.44 1.44 14.68 5.17 21.57 11.1l-1.15-21.39c-0.03-0.49 0.14-0.97 0.48-1.32 0.34-0.36 0.88-0.61 1.3-0.55l208.48 1.62c0.49 0.01 0.95 0.21 1.29 0.57 0.33 0.36 0.5 0.84 0.46 1.33l-1.53 21.95c7.18-6.16 14.7-9.97 22.41-11.33 11.47-2.02 22.81 1.44 33.45 10.19 12.63 10.39 17.84 25.21 14.68 41.75-4.36 22.79-23.74 43.39-48.23 51.24-20.76 6.66-31.3 14.61-36.52 20.18-11.37 24.43-32.57 43.06-58.2 51.15-13.24 4.17-22.21 16.49-22.32 30.64l-0.13 16.87c-0.11 14.46 11.56 26.32 26.03 26.44 5.05 0.03 9.79 2.04 13.33 5.64 3.55 3.6 5.48 8.37 5.44 13.43l-0.03 4.42c-0.01 0.97-0.8 1.76-1.78 1.76zm-107.84-4.4l106.08 0.83 0.02-2.64c0.03-4.11-1.54-7.98-4.42-10.91-2.88-2.92-6.73-4.55-10.83-4.58-16.42-0.13-29.68-13.6-29.55-30.02l0.13-16.87c0.12-15.7 10.09-29.36 24.81-34 24.76-7.81 45.23-25.86 56.16-49.51q0.12-0.25 0.3-0.46c5.44-5.89 16.49-14.37 38.24-21.35 23.28-7.47 41.7-26.97 45.82-48.52 2.91-15.21-1.87-28.83-13.45-38.35-9.82-8.08-20.14-11.26-30.58-9.43-8.18 1.45-16.21 5.96-23.86 13.41-0.53 0.52-1.32 0.65-1.98 0.34-0.67-0.31-1.08-1-1.03-1.73l1.71-24.5-204.7-1.6 1.29 23.86c0.04 0.73-0.37 1.41-1.04 1.72-0.66 0.29-1.45 0.16-1.97-0.35-7.35-7.19-15.09-11.61-23.01-13.14-10.4-1.99-20.77 1.04-30.72 8.96-11.72 9.34-16.71 22.88-14.04 38.13 3.79 21.62 21.89 41.4 45.06 49.23 20.48 6.93 31.27 15.08 36.72 20.7q0.23 0.24 0.36 0.54c10.41 24.41 30.78 43.2 55.87 51.54 14.64 4.87 24.39 18.69 24.27 34.39l-0.13 16.87c-0.13 16.29-13.48 29.55-29.78 29.55h-0.23c-8.54 0-15.43 6.84-15.5 15.25zm150.42-164.02q-0.56 0-1.03-0.34c-0.58-0.41-0.86-1.13-0.7-1.83 1.03-4.59 1.71-9.24 2.03-13.84l3.87-55.5q0.03-0.47 0.3-0.87c3.95-5.86 14.71-19.77 29.14-22.3 8.39-1.46 16.43 1.11 24.69 7.9 12.1 9.96 12.62 22.57 10.94 31.41-3.58 18.73-20.42 36.41-40.93 42.99-10.59 3.4-19.8 7.47-27.38 12.11q-0.44 0.27-0.93 0.27zm7.68-70.78l-3.84 55.02q-0.36 5.21-1.31 10.45c7.1-3.96 15.39-7.47 24.69-10.45 19.34-6.2 35.18-22.77 38.53-40.28 1.51-7.89 1.04-19.15-9.71-27.99-7.43-6.12-14.48-8.44-21.81-7.15-13.08 2.29-23.33 15.71-26.55 20.4zm-199.91 68.84q-0.49 0-0.93-0.27c-7.38-4.58-16.29-8.65-26.5-12.1-20.41-6.9-36.96-24.84-40.26-43.63-1.55-8.86-0.82-21.46 11.44-31.23 8.36-6.66 16.45-9.11 24.79-7.52 13.83 2.65 24.26 16.06 28.1 21.71q0.28 0.41 0.3 0.9l3.06 56.57c0.24 4.39 0.83 8.91 1.74 13.44 0.14 0.7-0.14 1.41-0.73 1.81q-0.46 0.32-1.01 0.32zm-36.31-91.66c-5.84 0-11.64 2.36-17.73 7.21-10.9 8.68-11.53 19.93-10.15 27.84 3.08 17.56 18.66 34.37 37.9 40.88 8.95 3.02 16.96 6.53 23.85 10.44q-0.83-5.11-1.1-10.09l-3.03-56.07c-3.8-5.49-13.34-17.47-25.55-19.81q-2.11-0.4-4.19-0.4z"/>
		<path id="&lt;Path&gt;" class="s7" d="m689.87 651.25l-216.98-1.69c-0.94-0.01-1.71 0.75-1.71 1.69l-0.07 8.05c0 0.94 0.75 1.71 1.69 1.72l216.98 1.69c0.93 0.01 1.71-0.75 1.71-1.69l0.07-8.06c0-0.93-0.76-1.7-1.69-1.71z"/>
		<path id="&lt;Compound Path&gt;" class="s2" d="m689.79 664.48q-0.01 0-0.02 0l-216.99-1.69c-0.92 0-1.79-0.37-2.44-1.04-0.66-0.66-1.01-1.53-1-2.46l0.06-8.06c0.01-1.9 1.57-3.45 3.48-3.45l217 1.7c1.92 0.01 3.47 1.58 3.45 3.5l-0.06 8.06c-0.02 1.9-1.58 3.44-3.48 3.44zm-216.92-13.14l0.02 7.98 216.83 1.61 0.06-7.98z"/>
		<path id="&lt;Compound Path&gt;" class="s7" d="m573.55 722.75l-23.35 20.24-13.77-16.12 37.99-31.56 22.87 0.18-0.9 115.66-23.52-0.18z"/>
		<path id="&lt;Compound Path&gt;" class="s2" d="m596.39 812.93q-0.01 0-0.01 0l-23.53-0.19c-0.98-0.01-1.77-0.81-1.76-1.79l0.66-84.29-20.39 17.67c-0.36 0.31-0.83 0.45-1.3 0.43-0.47-0.04-0.91-0.26-1.21-0.62l-13.77-16.12c-0.31-0.36-0.46-0.83-0.41-1.3 0.04-0.47 0.26-0.91 0.63-1.22l37.99-31.56c0.32-0.27 0.77-0.36 1.14-0.41l22.88 0.18c0.98 0.01 1.77 0.81 1.76 1.79l-0.9 115.66c-0.01 0.47-0.2 0.92-0.53 1.26-0.33 0.32-0.78 0.51-1.25 0.51zm-21.73-3.73l19.97 0.16 0.87-112.11-20.45-0.16-36.1 30 11.44 13.38 22-19.06c0.53-0.46 1.27-0.56 1.91-0.27 0.63 0.29 1.03 0.93 1.03 1.62z"/>
		<path id="&lt;Path&gt;" class="s2" d="m239 256.7c-0.88 0-1.64-0.65-1.76-1.54l-5.17-39.34c-0.13-0.98 0.55-1.87 1.52-2 0.97-0.13 1.87 0.56 2 1.53l5.17 39.34c0.13 0.97-0.55 1.87-1.53 1.99q-0.11 0.02-0.23 0.02z"/>
		<path id="&lt;Path&gt;" class="s2" d="m205.87 259.81c-0.73 0-1.42-0.46-1.67-1.2l-10.36-30.02c-0.32-0.93 0.18-1.94 1.1-2.26 0.93-0.32 1.94 0.17 2.26 1.1l10.35 30.02c0.32 0.93-0.17 1.94-1.1 2.26q-0.29 0.1-0.58 0.1z"/>
		<path id="&lt;Path&gt;" class="s2" d="m175.85 276.37c-0.5 0-1.01-0.21-1.36-0.63l-16.56-19.67c-0.63-0.75-0.54-1.87 0.21-2.5 0.75-0.64 1.87-0.54 2.5 0.21l16.57 19.67c0.63 0.75 0.53 1.87-0.22 2.5-0.33 0.28-0.73 0.42-1.14 0.42z"/>
		<path id="&lt;Path&gt;" class="s0" d="m1774.9 1302.72c-8.5-7.39-16.77-15.52-25.63-21.97-29.47-21.49-71.15-23.92-100.44-2.14-21.05 15.66-34.02 41.62-39.95 68.44-13.48 61.03-8.41 156.63 41.99 198.31 10.27 8.49 22.26 14.19 34.33 19.2 39.09 16.21 80.44 32.36 122.19 38.11 26.85 3.7 55.71 0.63 78.04-15.88 30.04-22.22 37.85-60 48.23-95.1 11.41-38.55 34.17-72.24 52.38-107.36 12.01-23.19 22.72-48.65 21.26-75.16-1.46-26.52-18.87-53.7-43.4-56.25-11.62-1.21-23.09 3.06-33.87 7.89-20.75 9.3-40.6 20.96-59.1 34.72-17.47 13-35.84 28.61-57.03 27.29-14.88-0.92-27.15-9.79-39-20.1z"/>
		<path id="&lt;Path&gt;" class="s1" d="m1943.02 1286.72c-13.32-43.33-59.24-67.65-102.57-54.33-43.33 13.32-67.65 59.24-54.33 102.57 13.32 43.33 59.24 67.65 102.57 54.33 43.33-13.32 67.65-59.24 54.33-102.57z"/>
		<path id="&lt;Compound Path&gt;" class="s2" d="m1864.55 1393.79q0 0-0.01 0c-17.35-0.01-34.68-5.66-48.8-15.92-14.59-10.62-25.11-25.37-30.43-42.66-6.51-21.17-4.39-43.61 5.98-63.19 10.37-19.57 27.74-33.93 48.91-40.44 7.95-2.45 16.16-3.69 24.4-3.69 17.36 0 34.69 5.66 48.8 15.92 14.59 10.61 25.12 25.37 30.43 42.66 13.44 43.71-11.19 90.19-54.89 103.63-7.95 2.45-16.16 3.69-24.39 3.69zm0.05-164.2c-8.07 0-16.11 1.22-23.9 3.61-20.74 6.38-37.75 20.45-47.91 39.62-10.15 19.17-12.24 41.15-5.86 61.89 10.55 34.32 41.74 57.37 77.61 57.38q0.01 0 0.01 0c8.06 0 16.1-1.22 23.89-3.61 42.81-13.16 66.93-58.7 53.77-101.51-10.55-34.32-41.74-57.38-77.61-57.38z"/>
		<path id="&lt;Path&gt;" class="s3" d="m1922.57 1293.01c-9.85-32.03-43.8-50.02-75.83-40.17-32.03 9.85-50.02 43.8-40.17 75.83 9.85 32.03 43.8 50.02 75.83 40.17 32.03-9.85 50.02-43.8 40.17-75.83z"/>
		<path id="&lt;Compound Path&gt;" class="s4" d="m1864.55 1372.38q0 0 0 0c-27.17 0-50.8-17.47-58.79-43.46-4.83-15.71-3.25-32.36 4.44-46.88 7.69-14.52 20.58-25.18 36.29-30.01 5.9-1.81 11.99-2.73 18.1-2.73 27.17 0 50.8 17.46 58.79 43.46 4.83 15.71 3.25 32.36-4.44 46.88-7.69 14.52-20.58 25.18-36.29 30.01-5.9 1.81-11.99 2.73-18.1 2.73zm0.04-121.39c-5.94 0-11.87 0.9-17.6 2.66-15.28 4.7-27.81 15.06-35.29 29.18-7.48 14.13-9.01 30.32-4.32 45.59 7.77 25.28 30.75 42.26 57.17 42.26q0 0 0 0c5.95 0 11.87-0.89 17.6-2.65 15.28-4.7 27.81-15.06 35.29-29.19 7.48-14.12 9.01-30.31 4.32-45.58-7.77-25.28-30.75-42.27-57.17-42.27z"/>
		<path id="&lt;Path&gt;" class="s1" d="m1906.09 1298.08c-7.05-22.93-31.36-35.8-54.28-28.76-22.93 7.05-35.8 31.36-28.75 54.28 7.05 22.93 31.35 35.8 54.27 28.75 22.93-7.05 35.8-31.35 28.76-54.27z"/>
		<path id="&lt;Compound Path&gt;" class="s2" d="m1864.56 1355.13q0 0 0 0c-19.56 0-36.56-12.57-42.32-31.28-3.47-11.3-2.34-23.29 3.2-33.74 5.54-10.45 14.81-18.12 26.12-21.6 4.24-1.3 8.63-1.96 13.03-1.96 19.55 0 36.55 12.57 42.31 31.28 7.17 23.33-5.98 48.16-29.32 55.34-4.24 1.3-8.62 1.96-13.02 1.96zm0.03-86.89c-4.23 0-8.45 0.64-12.53 1.9-10.88 3.34-19.8 10.72-25.12 20.77-5.32 10.05-6.42 21.57-3.07 32.44 5.53 18 21.88 30.08 40.69 30.08q0 0 0 0c4.23 0 8.44-0.63 12.53-1.89 22.44-6.9 35.08-30.77 28.18-53.21-5.53-18-21.88-30.09-40.68-30.09z"/>
		<path id="&lt;Path&gt;" class="s3" d="m1890.44 1302.89c-4.39-14.29-19.54-22.31-33.82-17.92-14.29 4.39-22.31 19.54-17.92 33.82 4.39 14.29 19.54 22.31 33.82 17.92 14.29-4.39 22.31-19.54 17.92-33.82z"/>
		<path id="&lt;Compound Path&gt;" class="s4" d="m1864.56 1338.76q0 0 0 0c-12.33 0-23.05-7.92-26.67-19.72-2.19-7.12-1.48-14.68 2.01-21.27 3.49-6.59 9.34-11.42 16.47-13.61 2.67-0.82 5.44-1.24 8.21-1.24 12.33 0 23.05 7.92 26.67 19.72 4.53 14.71-3.76 30.36-18.48 34.88-2.67 0.82-5.43 1.24-8.21 1.24zm0.02-54.15c-2.6 0-5.2 0.4-7.71 1.17-6.7 2.06-12.19 6.6-15.47 12.79-3.28 6.19-3.95 13.28-1.89 19.97 3.41 11.08 13.47 18.52 25.05 18.52 2.61 0 5.2-0.39 7.72-1.16 13.81-4.25 21.6-18.95 17.35-32.76-3.41-11.08-13.47-18.53-25.05-18.53z"/>
		<path id="&lt;Path&gt;" class="s1" d="m1877.47 1306.87c-2.19-7.12-9.74-11.12-16.86-8.93-7.13 2.19-11.13 9.74-8.94 16.86 2.19 7.13 9.74 11.13 16.87 8.94 7.12-2.19 11.12-9.74 8.93-16.87z"/>
		<path id="&lt;Compound Path&gt;" class="s2" d="m1864.57 1325.18c-6.34 0-11.84-4.07-13.71-10.13-2.32-7.56 1.94-15.6 9.5-17.92q2.07-0.63 4.21-0.64c6.34 0 11.85 4.08 13.71 10.13 1.13 3.67 0.76 7.55-1.04 10.93-1.79 3.39-4.79 5.87-8.45 7q-2.08 0.63-4.22 0.63zm0-26.99q-1.89 0-3.72 0.56c-6.66 2.05-10.41 9.14-8.36 15.81 1.64 5.34 6.49 8.93 12.08 8.93q1.89 0 3.72-0.56c3.22-1 5.87-3.19 7.45-6.17 1.59-2.99 1.91-6.41 0.92-9.64-1.65-5.34-6.5-8.93-12.09-8.93z"/>
		<path id="&lt;Path&gt;" class="s5" d="m1784.23 1262.93l-2.98-14.18-23.01-14.59 6.55 20z"/>
		<path id="&lt;Compound Path&gt;" class="s2" d="m1784.23 1263.78q-0.18 0-0.35-0.08l-19.44-8.77q-0.34-0.16-0.46-0.51l-6.55-20c-0.11-0.34 0.01-0.71 0.29-0.93 0.28-0.22 0.67-0.24 0.97-0.05l23.02 14.59q0.29 0.2 0.37 0.54l2.98 14.19c0.07 0.31-0.05 0.63-0.3 0.83q-0.24 0.19-0.53 0.19zm-18.75-10.24l17.58 7.93-2.57-12.2-20.71-13.13z"/>
		<path id="&lt;Path&gt;" class="s5" d="m1784.29 1262.72l-12.88 6.64-25.85-8.63 19.65-7.55z"/>
		<path id="&lt;Compound Path&gt;" class="s2" d="m1771.41 1270.21q-0.14 0-0.27-0.04l-25.84-8.63c-0.34-0.12-0.58-0.43-0.58-0.79-0.01-0.36 0.21-0.68 0.54-0.81l19.64-7.55q0.35-0.13 0.68 0.03l19.09 9.54c0.28 0.14 0.46 0.43 0.47 0.75 0 0.32-0.18 0.61-0.46 0.76l-12.88 6.65q-0.19 0.09-0.39 0.09zm-23.33-9.53l23.26 7.76 11.07-5.71-17.25-8.62z"/>
		<path id="&lt;Path&gt;" class="s2" d="m1859.19 1309.07c-0.44 0.11-0.93 0.05-1.36-0.2l-93.46-53.09c-0.91-0.52-1.23-1.67-0.72-2.58 0.52-0.91 1.68-1.22 2.58-0.71l93.47 53.09c0.91 0.52 1.23 1.67 0.71 2.58-0.27 0.48-0.72 0.8-1.22 0.91z"/>
		<path id="&lt;Path&gt;" class="s5" d="m1866.76 1312.37l-12.48-22.49-1.02 13.69-11.51 7.25z"/>
		<path id="&lt;Compound Path&gt;" class="s2" d="m1866.76 1313.22q-0.03 0-0.05 0l-25.01-1.56c-0.37-0.02-0.68-0.28-0.77-0.63-0.09-0.36 0.06-0.74 0.37-0.93l11.15-7.02 0.98-13.27c0.03-0.37 0.3-0.68 0.67-0.76 0.37-0.08 0.74 0.09 0.92 0.41l12.48 22.5c0.15 0.27 0.14 0.6-0.02 0.87-0.16 0.24-0.43 0.39-0.72 0.39zm-22.33-3.09l20.84 1.3-10.36-18.66-0.8 10.87c-0.02 0.27-0.17 0.51-0.4 0.65z"/>
		<path id="&lt;Path&gt;" class="s3" d="m1648.04 1325.38l9.23-2.93-9.23-3.15c-2.77-0.73-4.88-2.95-5.47-5.74l-2.93-13.86-3.15 13.56c-0.66 2.86-2.92 5.08-5.79 5.68l-8.69 2.99 8.38 2.96c2.94 0.68 5.19 3.05 5.73 6.02l2.42 13.41 3.54-13.43c0.74-2.83 3.07-4.98 5.96-5.51z"/>
		<path id="&lt;Path&gt;" class="s2" d="m1957.03 1255.24l4.75-1.51-4.75-1.63c-1.43-0.37-2.52-1.52-2.82-2.96l-1.51-7.14-1.62 6.99c-0.35 1.47-1.51 2.62-2.99 2.93l-4.48 1.54 4.32 1.52c1.52 0.36 2.68 1.57 2.95 3.1l1.25 6.92 1.82-6.92c0.39-1.46 1.59-2.57 3.08-2.84z"/>
		<path id="&lt;Path&gt;" class="s2" d="m1963.93 1434.17l6.5-2.06-6.5-2.22c-1.95-0.51-3.44-2.08-3.85-4.04l-2.06-9.77-2.22 9.55c-0.47 2.02-2.06 3.58-4.08 4.01l-6.12 2.1 5.9 2.09c2.07 0.48 3.66 2.14 4.04 4.23l1.7 9.45 2.49-9.46c0.53-2 2.17-3.51 4.2-3.88z"/>
		<path id="&lt;Path&gt;" class="s2" d="m1855.44 1364.89c6.8-10.51 13.59 4.85 17.15 13.92 3.56 9.05 27.34 43.83 34.46 44.48 7.11 0.65 27.05 11.67 18.31 16.68-8.73 5.02-52.29-9.24-52.29-9.24l-19.9-32.19c0 0-4.52-23.14 2.27-33.65z"/>
		<path id="&lt;Path&gt;" class="s3" d="m1657.59 1607.41l-39.56-0.97 7.38-79.1 29.08 21.11 10.47 28.51z"/>
		<path id="&lt;Compound Path&gt;" class="s2" d="m1657.59 1608.26q-0.01 0-0.02 0l-39.56-0.97q-0.37-0.02-0.61-0.29-0.24-0.27-0.21-0.64l7.38-79.1c0.02-0.3 0.21-0.57 0.49-0.69 0.28-0.13 0.6-0.1 0.85 0.08l29.08 21.11q0.21 0.16 0.3 0.4l10.47 28.51q0.08 0.24 0.03 0.49l-7.37 30.45c-0.1 0.38-0.44 0.65-0.83 0.65zm-38.63-2.65l37.97 0.93 7.15-29.53-10.29-28.02-27.67-20.09z"/>
		<path id="&lt;Path&gt;" class="s3" d="m1848.18 1388.37c43.83-26.78 130.72-110.75 130.72-110.75 6.45-15.67 25.4-44.12 36.7-34.57 0 0 5.32-6.29 11.4-5.38 5.62 0.84 6.88 7.49 6.88 7.49 0 0 7.17-6.63 13.18-2.94 3.51 2.15 4.78 7.6 4.78 7.6l31.22-33.32c7.6-5.53 15.76 4.9 8.05 17.42-6.52 10.6-30.92 39.71-29.28 42.95 2.33 4.57 3.46 22.77-4.09 35.27-7.54 12.51-41.8 24.29-41.8 24.29 0 0-92.5 91.82-125.14 112.23-11.2-4.47-86.45-33.51-42.62-60.29z"/>
		<path id="&lt;Compound Path&gt;" class="s2" d="m1890.8 1449.5q-0.16 0-0.32-0.06l-0.72-0.28c-35.49-14.11-54.84-28.53-55.97-41.7-0.6-7.12 4.09-13.79 13.95-19.82 42.48-25.95 126.64-106.85 130.44-110.51 5.37-12.94 20.26-36.84 32.34-36.84q2.72 0 4.98 1.61c1.43-1.48 5.48-5.17 10.27-5.17q0.69 0 1.36 0.1c4.57 0.69 6.5 4.71 7.22 6.85 1.64-1.26 5.03-3.42 8.7-3.42q2.43 0 4.45 1.24c2.62 1.6 4.07 4.79 4.73 6.66l30.21-32.24q0.05-0.06 0.12-0.1c1.51-1.11 3.15-1.69 4.75-1.69 2.6 0 4.9 1.47 6.33 4.03 2.44 4.35 1.76 10.41-1.81 16.21-2.47 4.01-7.4 10.55-12.62 17.48-6.79 9-17.04 22.6-16.6 24.68 2.45 4.8 3.45 23.46-4.14 36.05-7.4 12.28-39.06 23.54-42.07 24.59-4.08 4.04-93.38 92.35-125.15 112.21q-0.21 0.12-0.45 0.12zm119.72-207.52c-10.32 0-24.79 21.26-30.84 35.96q-0.07 0.16-0.19 0.29c-0.87 0.84-87.46 84.35-130.87 110.86-9.26 5.66-13.68 11.8-13.14 18.23 0.75 8.71 10.87 22.76 54.9 40.26l0.33 0.13c32.51-20.57 123.71-110.97 124.63-111.89q0.14-0.13 0.32-0.2c0.34-0.11 34.06-11.82 41.35-23.92 7.3-12.08 6.41-29.86 4.07-34.45-1.15-2.25 4.23-9.78 16.77-26.42 5.2-6.9 10.11-13.41 12.53-17.35 3.82-6.2 3.42-11.55 1.78-14.49-1.12-2.01-2.89-3.16-4.85-3.16q-1.86 0-3.69 1.31l-31.16 33.26c-0.21 0.23-0.54 0.32-0.84 0.24-0.3-0.08-0.53-0.32-0.61-0.63-0.01-0.05-1.24-5.13-4.4-7.06q-1.61-1-3.56-1c-4.4 0-8.56 3.8-8.6 3.83-0.23 0.21-0.55 0.28-0.84 0.19-0.29-0.1-0.51-0.35-0.57-0.65-0.01-0.06-1.22-6.07-6.17-6.81q-0.54-0.08-1.1-0.08c-5.09 0-9.48 5.12-9.53 5.17-0.3 0.36-0.83 0.4-1.19 0.1-1.37-1.16-2.85-1.72-4.53-1.72z"/>
		<path id="&lt;Path&gt;" class="s2" d="m2049.28 1296.22q-0.24 0-0.45-0.13c-0.4-0.24-0.52-0.77-0.28-1.17 0.06-0.09 5.83-9.49 12.45-20.01 0.25-0.4 0.77-0.52 1.17-0.27 0.4 0.25 0.51 0.77 0.27 1.17-6.62 10.52-12.38 19.91-12.44 20-0.16 0.26-0.44 0.41-0.72 0.41z"/>
		<path id="&lt;Path&gt;" class="s2" d="m2046.1 1257.89q-0.28 0-0.52-0.18c-0.37-0.28-0.44-0.82-0.15-1.19l0.36-0.47c1.37-1.79 3.07-4.01 5.47-6.96 0.3-0.36 0.83-0.41 1.2-0.12 0.36 0.3 0.41 0.83 0.12 1.2-2.38 2.93-4.08 5.14-5.44 6.91l-0.37 0.48c-0.17 0.21-0.42 0.33-0.67 0.33z"/>
		<path id="&lt;Path&gt;" class="s2" d="m2020.62 1251.22q-0.08 0-0.16-0.02c-0.46-0.08-0.76-0.52-0.68-0.98 0.24-1.3 2.21-2.04 7.36-3.66 2.69-0.84 5.74-1.8 6.92-2.67 0.37-0.27 0.9-0.19 1.18 0.19 0.28 0.38 0.2 0.91-0.18 1.18-1.4 1.03-4.46 1.99-7.41 2.92-2.28 0.72-5.72 1.8-6.22 2.42-0.1 0.37-0.44 0.62-0.81 0.62z"/>
		<path id="&lt;Path&gt;" class="s2" d="m2006.28 1255.76q-0.13 0-0.26-0.04c-0.44-0.15-0.69-0.63-0.54-1.07 0.69-2.17 7.82-10.55 10.4-12.97 0.35-0.32 0.88-0.3 1.2 0.04 0.32 0.34 0.31 0.88-0.04 1.2-2.73 2.56-9.44 10.68-9.95 12.25-0.12 0.36-0.45 0.59-0.81 0.59z"/>
		<path id="&lt;Path&gt;" class="s2" d="m2033.77 1278.98c-0.31 0-0.61-0.17-0.76-0.46-0.21-0.42-0.05-0.93 0.37-1.14l7.81-4.03c0.42-0.21 0.93-0.05 1.15 0.37 0.21 0.41 0.05 0.93-0.37 1.14l-7.81 4.03q-0.19 0.09-0.39 0.09z"/>
		<path id="&lt;Path&gt;" class="s2" d="m2038.67 1280.93c-0.39 0-0.74-0.26-0.83-0.66l-1.8-8.09c-0.11-0.46 0.18-0.91 0.64-1.01 0.46-0.11 0.91 0.18 1.01 0.64l1.81 8.09c0.1 0.46-0.19 0.91-0.64 1.01q-0.1 0.02-0.19 0.02z"/>
		<path id="&lt;Path&gt;" class="s2" d="m2015.93 1273.83c-0.31 0-0.6-0.17-0.75-0.46-0.22-0.42-0.05-0.93 0.36-1.14l7.82-4.02c0.42-0.21 0.92-0.05 1.14 0.37 0.21 0.42 0.05 0.93-0.37 1.14l-7.81 4.02q-0.19 0.09-0.39 0.09z"/>
		<path id="&lt;Path&gt;" class="s2" d="m2020.83 1275.78c-0.39 0-0.74-0.27-0.82-0.66l-1.8-8.08c-0.1-0.46 0.19-0.91 0.64-1.01 0.46-0.1 0.91 0.18 1.02 0.64l1.79 8.08c0.1 0.46-0.18 0.91-0.64 1.01q-0.09 0.02-0.19 0.02z"/>
		<path id="&lt;Path&gt;" class="s2" d="m1998.81 1269.7c-0.31 0-0.61-0.17-0.76-0.46-0.21-0.42-0.05-0.93 0.37-1.15l7.81-4.02c0.41-0.22 0.93-0.05 1.14 0.36 0.22 0.42 0.05 0.93-0.36 1.15l-7.82 4.02q-0.19 0.1-0.38 0.1z"/>
		<path id="&lt;Path&gt;" class="s2" d="m2003.71 1271.64c-0.39 0-0.74-0.27-0.83-0.66l-1.8-8.08c-0.1-0.46 0.19-0.91 0.65-1.02 0.45-0.09 0.91 0.19 1.01 0.65l1.8 8.08c0.1 0.46-0.19 0.91-0.65 1.01q-0.09 0.02-0.18 0.02z"/>
		<path id="&lt;Path&gt;" class="s2" d="m2084.19 1230.86q-0.04 0-0.08-0.01c-0.21-0.02-5.13-0.55-8.96-5.61-0.29-0.37-0.21-0.9 0.16-1.19 0.38-0.28 0.91-0.21 1.19 0.17 2.72 3.59 6.1 4.6 7.31 4.86l4.89-6.75c0.28-0.38 0.81-0.47 1.19-0.19 0.38 0.27 0.46 0.8 0.19 1.18l-5.2 7.19c-0.16 0.22-0.42 0.35-0.69 0.35z"/>
		<path id="&lt;Path&gt;" class="s2" d="m1746.61 1428.23c20.05-12.53 28.29-19.33 62.32-31.51 34.01-12.18 48.34-32.59 48.34-32.59 0 0 4.53 27.38 17.41 46.36 12.9 18.98 50.63 28.48 50.63 28.48 0 0-20.14 15.66-27.57 23.29-9.63 9.87-49.79 21.03-47.65 45.38 2.15 24.35 6.21 95.73 6.21 95.73-192.43 3.88-198.86 4.25-198.86 4.25l1.71-46.26-43.21 0.93-8.61-26.18c0 0 8.24-0.44 18.89-37.47 12.63-43.94 30.79-67.81 88.93-72.76 0 0 11.4 14.89 31.46 2.35z"/>
		<path id="&lt;Path&gt;" class="s3" d="m1704.82 1373.6c0 0-9.12-7.06-15.51-3.73-6.37 3.31-5.45 17.77 2.2 19.61 7.63 1.83 15.55-4.91 15.55-4.91z"/>
		<path id="&lt;Compound Path&gt;" class="s2" d="m1694.25 1390.65q-1.53-0.01-2.94-0.34c-3.68-0.89-6.34-4.53-6.95-9.51-0.53-4.36 0.67-9.66 4.56-11.69q1.9-0.98 4.26-0.98c5.89 0 11.9 4.6 12.16 4.8q0.24 0.19 0.31 0.5l2.24 10.97c0.06 0.3-0.05 0.61-0.28 0.81-0.26 0.23-6.45 5.44-13.36 5.44zm-1.07-20.82q-1.95 0-3.48 0.79c-2.7 1.4-4.2 5.51-3.66 9.98 0.41 3.33 2.12 7.2 5.67 8.05q1.22 0.3 2.54 0.3c5.36 0 10.46-3.63 11.87-4.72l-2.07-10.14c-1.16-0.84-6.19-4.26-10.87-4.26z"/>
		<path id="&lt;Path&gt;" class="s2" d="m1687.16 1332.66c-3.02 6.46 0.26 18.65 4.91 29.28 4.62 10.52-0.25-21.91-0.25-21.91l6.06-10.57z"/>
		<path id="&lt;Path&gt;" class="s6" d="m1688.06 1341.95c2.06-3.34 8.06-12.07 15.19-10.75 8.74 1.64 8.23 6.1 23.28 1.79 13.87-3.99 14.48-15.07 21.31 2.36 0.78 3.62 1.7 8.02 2.57 12.73 2.24 12.09 1.09 17.58 1.07 18l8.94-5.01 1.35-18.86c1.32-18.94-12.98-31.22-32.11-31.74-0.42-0.03-0.93-0.03-1.35-0.06-37.31 0.21-40.01 27.84-40.01 27.84-0.32 1.07-0.37 2.4-0.24 3.7z"/>
		<path id="&lt;Path&gt;" class="s2" d="m1680.56 1337.04c7.61 2.75 7.03 5.71 6.82 6.25 0.07-0.12 0.3-0.56 0.7-1.24 2.06-3.34 8.06-12.07 15.19-10.75 8.74 1.64 8.23 6.1 23.28 1.79 13.86-3.99 14.48-15.08 21.31 2.36 0.78 3.61 1.7 8.02 2.57 12.73 2.23 12.09 1.09 17.58 1.06 18l4.1-2.29c1.73-2.35 5.54-6.82 10.15-8.07l0.75-21.49c6.29-9.9 8.69-14.72 1.77-19.84-7.14-5.28-6.51-8.54-17.94-9.69-11.43-1.13-13.11-17.48-26.8-15.25-13.68 2.23-12.16 20.44-22.4 19.6-10.22-0.75-18.71-7.11-24.27 1.74-5.58 8.76-4.57 23.11 3.71 26.15z"/>
		<path id="&lt;Path&gt;" class="s2" d="m1755.59 1363.79l4.83-2.72 5.13-2.88 0.06-2.45c-4.5 1.23-8.31 5.7-10.02 8.05z"/>
		<path id="&lt;Path&gt;" class="s3" d="m1710.74 1427.79l5.9-4.86-1.86-17.23c-22.94-2.16-22.54-27.84-22.96-40.06-0.46-10.28-3.29-17.78-3.74-23.59 2.06-3.34 8.06-12.07 15.19-10.75 8.74 1.64 8.23 6.1 23.28 1.79 13.86-3.99 14.48-15.08 21.31 2.36 0.78 3.61 1.7 8.02 2.57 12.73 2.23 12.09 1.09 17.58 1.06 18l4.1-2.29c1.73-2.35 5.54-6.82 10.15-8.07 1.07-0.31 2.29-0.43 3.42-0.34 7.89 0.88 12.47 16.19 5.33 20.97-4.86 3.23-11.37 2.51-15.13 1.68l-0.15 2.47 3.65 28.72 11.24 2.46c0 0-11.65 33.36-53.65 31.28-17.63-0.88-9.71-15.27-9.71-15.27z"/>
		<path id="&lt;Compound Path&gt;" class="s2" d="m1724.18 1444q-1.86 0-3.77-0.09c-5.73-0.29-9.51-2.01-11.25-5.12-2.71-4.85 0.69-11.15 0.83-11.41q0.08-0.14 0.21-0.25l5.54-4.56-1.73-16.1c-21.91-2.55-22.6-26.21-22.98-38.98q-0.02-0.95-0.05-1.83c-0.28-6.05-1.37-11.07-2.34-15.5-0.65-3.03-1.22-5.65-1.41-8.05q-0.02-0.27 0.12-0.51c2.61-4.21 7.95-11.28 14.45-11.28q0.82 0 1.62 0.15c2.76 0.52 4.64 1.31 6.3 2.01 2.02 0.85 3.76 1.59 6.61 1.59 2.54 0 5.71-0.57 9.99-1.8 4.41-1.26 7.4-3.24 9.8-4.84 1.98-1.31 3.55-2.35 5.11-2.35 2.57 0 4.51 2.64 7.42 10.06q0.02 0.06 0.04 0.13c1 4.64 1.84 8.82 2.57 12.76 1.2 6.48 1.64 12.29 1.27 16.6l2.49-1.39c1.93-2.59 5.76-6.95 10.49-8.24 1.16-0.33 2.48-0.46 3.72-0.36 4.77 0.53 8.04 5.46 9.17 10.11 1.03 4.2 0.66 9.66-3.44 12.4-2.52 1.68-5.71 2.54-9.46 2.54q-2.58 0-5.35-0.53l-0.09 1.41 3.56 28.05 10.66 2.33c0.24 0.05 0.45 0.2 0.56 0.41 0.12 0.21 0.14 0.47 0.06 0.7-0.11 0.32-11.61 31.94-50.72 31.94zm-12.77-15.67c-0.45 0.9-2.82 5.96-0.77 9.64 1.44 2.56 4.75 3.99 9.86 4.24q1.86 0.09 3.68 0.09c34.22 0 46.6-24.84 48.76-29.91l-10.27-2.24c-0.35-0.08-0.61-0.37-0.66-0.72l-3.65-28.72q-0.01-0.08 0-0.16l0.16-2.47c0.01-0.25 0.14-0.48 0.33-0.62q0.32-0.23 0.7-0.15 3.1 0.68 5.95 0.68c3.41 0 6.28-0.76 8.52-2.25 3.37-2.25 3.62-6.94 2.73-10.58-1.17-4.83-4.33-8.46-7.68-8.83q-0.31-0.03-0.65-0.03c-0.84 0-1.69 0.12-2.45 0.34-4.5 1.22-8.28 5.83-9.69 7.75q-0.11 0.15-0.27 0.24l-4.11 2.29c-0.27 0.15-0.6 0.14-0.86-0.03-0.27-0.16-0.42-0.46-0.39-0.77q0-0.07 0.03-0.26c0.61-4.23 0.22-10.45-1.09-17.52-0.72-3.91-1.55-8.05-2.55-12.65-2.48-6.32-4.16-8.91-5.81-8.91-1.05 0-2.43 0.92-4.18 2.07-2.36 1.57-5.6 3.71-10.26 5.05-4.44 1.27-7.76 1.86-10.46 1.86-3.19 0-5.17-0.83-7.27-1.72-1.66-0.7-3.37-1.42-5.95-1.9q-0.65-0.12-1.31-0.12c-5.56 0-10.39 6.3-12.85 10.24 0.2 2.21 0.73 4.69 1.35 7.53 0.98 4.5 2.09 9.6 2.37 15.81q0.03 0.88 0.06 1.84c0.36 12.38 1.03 35.43 22.13 37.41 0.4 0.04 0.72 0.36 0.77 0.76l1.85 17.23c0.03 0.29-0.08 0.57-0.3 0.75z"/>
		<path id="&lt;Path&gt;" class="s2" d="m1703.82 1362.1c-0.36-2.01-1.56-3.47-2.65-3.27-1.1 0.2-1.7 1.99-1.33 3.99 0.36 2.02 1.54 3.49 2.65 3.28 1.1-0.2 1.7-1.98 1.33-4z"/>
		<path id="&lt;Path&gt;" class="s2" d="m1731.45 1358c-0.36-2-1.54-3.47-2.65-3.28-1.09 0.21-1.69 2-1.32 4.01 0.35 2 1.55 3.47 2.64 3.27 1.11-0.19 1.71-1.99 1.33-4z"/>
		<path id="&lt;Path&gt;" class="s2" d="m1720.7 1347.08c0.22 0.67 1.01 1.03 1.77 1.2 3.65 0.85 7.49 1.05 11.29 0.45 0.69-0.13 1.3-0.24 1.96-0.57 1.01-0.59 1.38-1.98 0.97-3.03-0.36-0.84-1.2-1.49-2.07-1.74-0.89-0.35-1.81-0.38-2.75-0.41-3.52-0.16-7.42-0.05-10.09 2.17-0.74 0.45-1.33 1.16-1.08 1.93z"/>
		<path id="&lt;Path&gt;" class="s2" d="m1695.77 1353.02c2.24-0.11 4.85-1.51 6.46-1.71 1.42-0.16 4.37 0.21 4.28-1.9-0.34-1.37-1.64-2.24-2.93-2.51-1.06-0.22-2.08-0.13-3.19-0.02-2.32 0.23-6.2 0.43-7.52 2.71-0.31 0.57-0.48 1.31-0.17 1.86 0.75 1.29 1.86 1.7 3.07 1.57z"/>
		<path id="&lt;Path&gt;" class="s2" d="m1714.81 1376.15q-0.18 0-0.36-0.08c-0.17-0.08-4.09-1.95-4.91-5.11-0.48-1.83 0.49-4.37 1.51-7.06 0.67-1.76 1.37-3.58 1.55-5.01 0.06-0.47 0.48-0.78 0.95-0.74 0.46 0.06 0.79 0.49 0.73 0.95-0.21 1.64-0.94 3.55-1.64 5.4-0.88 2.32-1.8 4.72-1.46 6.03 0.52 1.99 3.06 3.57 3.99 4 0.43 0.2 0.61 0.71 0.41 1.13-0.14 0.31-0.45 0.49-0.77 0.49z"/>
		<path id="&lt;Path&gt;" class="s2" d="m1713.75 1404.56c5.33 1.05 24.08-6.08 24.08-6.08 0 0-8.84 16.17-22.01 17.28z"/>
		<path id="&lt;Path&gt;" class="s2" d="m1761.82 1371.71c-0.33 0-0.64-0.19-0.78-0.51-0.89-2.05-1.46-6.64 2.81-9.33q2.39-1.51 4.75-0.98c2.68 0.61 4.22 3.04 4.29 3.14 0.25 0.4 0.13 0.92-0.27 1.17-0.4 0.25-0.92 0.13-1.17-0.27-0.27-0.43-2.77-4.11-6.69-1.63-4.1 2.59-2.24 7.04-2.16 7.23 0.18 0.43-0.01 0.93-0.44 1.11q-0.17 0.07-0.34 0.07z"/>
		<path id="&lt;Path&gt;" class="s2" d="m1765.82 1368.23q-0.24 0-0.46-0.13l-3.85-2.44c-0.39-0.25-0.51-0.77-0.26-1.17 0.25-0.4 0.78-0.52 1.17-0.26l3.85 2.43c0.4 0.26 0.51 0.78 0.26 1.18-0.16 0.25-0.43 0.39-0.71 0.39z"/>
		<path id="&lt;Path&gt;" class="s3" d="m1735.25 1315.12c0.54-0.4 0.95-0.99 1.47-1.5 1.07-0.9 2.83-0.82 3.89-1.83 0.98-0.79 1.2-2.36 0.48-3.44-0.73-1.19-2.34-1.5-3.7-1.65-1.47-0.14-2.89-0.08-4.17-0.86-1.5-0.94-2.13-2.65-3.12-4.09-1.83-2.72-5.23-4.32-8.57-4.11-1.93 0.16-3.83 1.02-4.99 2.55-1.16 1.54-1.14 3.86 0.15 5.26 1.41 1.47 3.74 1.34 5.87 1.15 2.13-0.2 4.35-0.4 5.94 0.93 0.98 0.84 1.41 2.08 1.74 3.33 0.35 1.26 0.68 2.52 1.58 3.47 0.9 0.95 2.43 1.48 3.43 0.79z"/>
		<path id="&lt;Path&gt;" class="s2" d="m1686.13 1342.55q-0.06 0-0.13-0.02c-5.76-0.91-13.84-4.42-17.65-11.26-2.8-5.03-2.82-10.91-0.07-17.47 7.66-18.24 18.07-14.82 26.43-12.07 6.84 2.26 10.3 0.21 16.59-3.52q1.63-0.97 3.54-2.06c0.4-0.23 0.92-0.09 1.15 0.32 0.23 0.4 0.09 0.92-0.32 1.15q-1.89 1.08-3.51 2.05c-6.27 3.71-10.41 6.17-17.95 3.68-8.53-2.81-17.32-5.7-24.38 11.1-2.54 6.06-2.54 11.44 0 16 3.51 6.31 11.05 9.56 16.44 10.42 0.46 0.07 0.77 0.5 0.7 0.96-0.07 0.42-0.43 0.72-0.84 0.72z"/>
		<path id="&lt;Path&gt;" class="s3" d="m1727.97 1384.49c-1.38 2.41-3.84 4.41-6.12 5.01-3.67 0.97-9.38 0.57-11.82-2.76-0.94-1.28-2.52-4.35-0.74-5.57 0.31-0.21 0.71-0.2 1.09-0.19 4.14 0.19 8.12-0.13 11.63-2.64 0.89-0.6 1.74-1.31 2.76-1.66 1.02-0.35 2.3-0.25 2.99 0.58 1.86 2.2 1.54 4.91 0.21 7.23z"/>
		<path id="&lt;Compound Path&gt;" class="s2" d="m1718.12 1390.81c-3.91 0-7.11-1.3-8.78-3.57-0.2-0.29-2.03-2.85-1.66-4.99 0.13-0.75 0.52-1.37 1.13-1.78 0.45-0.31 0.95-0.34 1.29-0.34q0.16 0 0.32 0 0.89 0.05 1.77 0.05c4.01 0 6.88-0.78 9.33-2.53q0.29-0.2 0.56-0.39c0.74-0.53 1.5-1.07 2.42-1.38q0.69-0.23 1.41-0.24c1.03 0 1.92 0.38 2.5 1.07 1.89 2.24 2 5.23 0.3 8.21-1.48 2.57-4.14 4.74-6.64 5.4-1.21 0.32-2.58 0.49-3.95 0.49zm-8.02-8.99c-0.25 0-0.32 0.04-0.34 0.05q-0.34 0.23-0.41 0.67c-0.19 1.09 0.71 2.81 1.36 3.7 1.91 2.59 5.81 2.87 7.41 2.87 1.23 0 2.44-0.15 3.51-0.43 2.09-0.55 4.34-2.4 5.6-4.61 0.78-1.36 1.8-3.99-0.11-6.26-0.35-0.41-0.91-0.47-1.21-0.47q-0.44 0-0.86 0.15c-0.69 0.23-1.32 0.68-1.98 1.15q-0.29 0.21-0.58 0.41c-2.74 1.95-5.92 2.82-10.3 2.82q-0.92 0-1.85-0.04-0.12-0.01-0.24-0.01z"/>
		<path id="&lt;Path&gt;" class="s2" d="m1659.02 1562.24q-0.05 0-0.1-0.01c-0.48-0.05-0.83-0.49-0.77-0.97 4.36-35.75 2.91-56.96 2.9-57.17-0.04-0.48 0.33-0.9 0.81-0.94 0.49-0.03 0.9 0.33 0.94 0.81 0.01 0.22 1.47 21.6-2.91 57.51-0.05 0.45-0.43 0.77-0.87 0.77z"/>
		<path id="&lt;Path&gt;" class="s2" d="m1661.23 1521.93q-0.29 0-0.53-0.18c-2.64-2.04-7.18-11.23-7.68-12.27-0.22-0.43-0.04-0.96 0.4-1.17 0.43-0.21 0.96-0.03 1.17 0.4 1.33 2.73 5.21 10.14 7.18 11.65 0.38 0.3 0.45 0.85 0.15 1.23-0.17 0.22-0.43 0.34-0.69 0.34z"/>
		<path id="&lt;Path&gt;" class="s2" d="m1825.87 1514.77c-0.43 0-0.81-0.32-0.87-0.75-1.3-9.09 2.52-30.25 8.67-41.07 0.24-0.42 0.78-0.56 1.2-0.33 0.42 0.24 0.57 0.78 0.33 1.2-5.84 10.26-9.72 31.21-8.47 39.95 0.07 0.48-0.26 0.92-0.74 0.99q-0.06 0.01-0.12 0.01z"/>
		<path id="&lt;Path&gt;" class="s2" d="m1723.22 1453.21c-5.57 0-10.86-0.88-15.05-3.04-6.05-3.13-9.05-8.46-8.92-15.86 0-0.48 0.4-0.9 0.89-0.86 0.48 0.01 0.86 0.41 0.86 0.89-0.12 6.68 2.57 11.48 7.97 14.27 13 6.72 38.14 0.12 46.28-5.86 0.39-0.29 0.94-0.2 1.23 0.19 0.28 0.38 0.2 0.93-0.19 1.22-6.03 4.43-20.3 9.05-33.07 9.05z"/>
		<path id="&lt;Path&gt;" class="s3" d="m1599.45 1382.87c-0.04-3.3 2.62-6 5.87-6.03 3.26-0.03 5.94 2.67 5.97 5.96l0.12 28.34 1.98-0.04-0.14-40.43c-0.02-3.86 3.05-7.02 6.87-7.03 3.82-0.01 6.95 3.12 6.96 6.99l0.13 40.35 1.75-0.03-0.23-48.56c-0.02-3.86 3.07-7.01 6.88-7.02 3.82-0.01 6.95 3.11 6.97 6.98l0.21 48.47h1.51l-0.2-40.17c-0.02-3.87 3.06-7.02 6.88-7.03 3.82-0.01 6.94 3.12 6.96 6.98l0.2 41.71c0.01 5.32-1.44 17.05 1.42 17.79 4.9 1.16 6.8-5.71 11.84-15.03 5.04-9.33 10.92-7.14 13.17-4 0.93 1.27-6.64 30.6-11.83 43.73-4.75 11.95-3.75 13.67-10.24 23.16l0.85 129.45-55.19 0.81-1.4-126.83c-8.97-12.45-8.53-29.49-8.39-45.22-0.12-0.38 1.27-8.05 1.31-8.45z"/>
		<path id="&lt;Compound Path&gt;" class="s2" d="m1608.16 1609.07q-0.34-0.01-0.59-0.25-0.25-0.24-0.25-0.59l-1.4-126.57c-8.71-12.27-8.56-28.43-8.41-44.06l0.01-1.38c-0.03-0.43 0.12-1.58 1.02-6.84 0.15-0.86 0.26-1.51 0.29-1.71l-0.23-44.8c-0.02-1.81 0.67-3.53 1.95-4.84 1.27-1.3 2.96-2.02 4.77-2.04 3.75 0 6.79 3.05 6.82 6.8l0.12 27.48h0.28l-0.14-39.6c-0.01-2.11 0.8-4.1 2.28-5.59 1.45-1.47 3.39-2.28 5.44-2.29 4.24 0 7.69 3.42 7.8 7.65l-0.03-8.05c-0.02-2.11 0.8-4.09 2.28-5.59 1.46-1.47 3.39-2.28 5.44-2.28 4.29 0 7.79 3.51 7.81 7.83l0.03 6.49c0.33-1.43 1.04-2.73 2.08-3.78 1.46-1.47 3.39-2.28 5.45-2.29 4.29 0 7.78 3.51 7.8 7.82l0.21 41.71c0 1.27-0.07 2.88-0.16 4.6-0.19 3.89-0.58 11.98 0.95 12.37q0.42 0.1 0.83 0.11c2.65 0 4.44-3.6 7.15-9.05 0.84-1.71 1.8-3.64 2.9-5.66 3.19-5.91 6.6-7.15 8.9-7.15 2.2 0 4.33 1.14 5.7 3.05 0.24 0.33 0.97 1.33-3.49 18.13-2.17 8.19-5.48 19.43-8.24 26.41-1.52 3.84-2.47 6.67-3.23 8.94-1.63 4.85-2.62 7.8-6.95 14.17l0.85 129.18c0 0.47-0.37 0.85-0.84 0.86l-55.18 0.81q-0.01 0-0.02 0zm-8.95-173q0.01 0.05 0.01 0.11l-0.02 1.44c-0.14 15.45-0.29 31.42 8.25 43.27q0.16 0.22 0.16 0.49l1.39 125.98 53.5-0.79-0.85-128.6q0-0.27 0.15-0.49c4.32-6.32 5.23-9.04 6.89-13.97 0.76-2.29 1.72-5.14 3.27-9.03 5.24-13.27 12.07-40.41 11.84-43.03-0.83-1.1-2.36-2.23-4.24-2.23-2.63 0-5.2 2.16-7.41 6.25-1.08 2-2.03 3.92-2.87 5.61-2.99 6.02-4.96 9.99-8.67 9.99q-0.6 0-1.24-0.15c-2.68-0.69-2.63-6.03-2.23-14.11 0.08-1.69 0.16-3.28 0.15-4.5l-0.2-41.71c-0.02-3.38-2.75-6.13-6.09-6.13-1.62 0.01-3.12 0.64-4.26 1.78-1.16 1.17-1.8 2.73-1.79 4.39l0.2 40.17q0 0.35-0.25 0.61-0.25 0.24-0.6 0.25h-1.51c-0.47 0-0.84-0.38-0.85-0.85l-0.21-48.47c-0.02-3.38-2.76-6.14-6.1-6.14-1.61 0.01-3.12 0.64-4.26 1.79-1.16 1.17-1.8 2.73-1.79 4.39l0.23 48.55c0 0.47-0.37 0.85-0.83 0.86l-1.75 0.03q-0.36-0.02-0.61-0.25-0.25-0.25-0.25-0.6l-0.14-40.35c-0.01-3.39-2.74-6.14-6.09-6.14-1.61 0.01-3.12 0.64-4.26 1.78-1.16 1.17-1.79 2.73-1.79 4.39l0.15 40.43c0 0.46-0.36 0.84-0.83 0.85l-1.98 0.05q-0.36 0-0.61-0.24-0.25-0.25-0.26-0.6l-0.12-28.35c-0.02-2.81-2.29-5.11-5.06-5.11-1.4 0.01-2.66 0.56-3.62 1.53-0.96 0.98-1.47 2.27-1.46 3.64l0.23 44.85q0 0.05-0.01 0.09c-0.01 0.14-0.08 0.57-0.3 1.87-0.3 1.73-0.99 5.76-1.01 6.4zm28.72-64.02l0.13 38.06h0.05z"/>
		<path id="&lt;Path&gt;" class="s3" d="m1651.15 1436.67c0 0-19.21 4.81-21.67 23.36"/>
		<path id="&lt;Path&gt;" class="s2" d="m1629.49 1460.88q-0.06 0-0.12-0.01c-0.46-0.06-0.79-0.49-0.73-0.95 2.51-18.9 22.1-24.03 22.3-24.08 0.46-0.11 0.92 0.17 1.03 0.62 0.12 0.45-0.16 0.91-0.61 1.03-0.19 0.05-18.69 4.91-21.03 22.65-0.06 0.43-0.43 0.74-0.84 0.74z"/>
		<path id="&lt;Path&gt;" class="s3" d="m1650.74 1418.18l-41.5 0.13"/>
		<path id="&lt;Path&gt;" class="s2" d="m1609.24 1419.16c-0.47 0-0.85-0.38-0.85-0.85 0-0.47 0.38-0.85 0.85-0.85l41.5-0.13q0 0 0 0c0.47 0 0.85 0.38 0.85 0.85 0 0.46-0.37 0.85-0.84 0.85l-41.51 0.13q0 0 0 0z"/>
		<path id="&lt;Compound Path&gt;" class="s5" d="m1942.07 1478.27c-4.91-4.04-10.06-5.61-15.3-4.69-4.85 0.86-8.89 3.75-11.86 6.64l0.88-12.61-99.65-0.77 0.67 12.3c-2.9-2.83-6.77-5.6-11.43-6.5-5.23-1-10.4 0.49-15.38 4.45-5.86 4.67-8.35 11.43-7.02 19.04 1.86 10.63 10.75 20.35 22.11 24.19 9.65 3.26 14.68 7.06 17.21 9.68 5.05 11.83 14.97 21.03 27.22 25.11 6.67 2.22 11.08 8.59 11.02 15.62l-0.06 8.07c-0.06 7.39-6.1 13.34-13.49 13.28-4.53-0.03-8.23 3.61-8.26 8.13l-0.02 2.12 52.4 0.4 0.02-2.11c0.04-4.52-3.61-8.22-8.13-8.26-7.4-0.06-13.34-6.1-13.29-13.49l0.07-8.06c0.05-7.04 4.55-13.34 11.26-15.46 12.12-3.82 22.06-12.64 27.36-24.12 2.37-2.56 7.49-6.62 17.91-9.97 11.42-3.66 20.46-13.24 22.48-23.84 1.45-7.59-0.93-14.39-6.72-19.15zm-135.33 37.16c-9.48-3.2-17.16-11.5-18.68-20.19-0.7-4.01-0.38-9.71 5.16-14.12 3.78-3.02 7.43-4.14 11.16-3.42 6.28 1.2 11.07 7.33 12.89 10.01l1.46 27.05q0.19 3.35 0.85 6.54c-3.19-1.98-7.37-4.02-12.84-5.87zm136.99-18.98c-1.66 8.66-9.47 16.85-18.99 19.9-5.7 1.83-10.01 3.88-13.27 5.88q0.74-3.29 0.99-6.74l1.85-26.53c1.55-2.3 6.65-9.13 13.37-10.3 3.75-0.66 7.38 0.52 11.11 3.59 5.47 4.5 5.7 10.2 4.94 14.2z"/>
		<path id="&lt;Compound Path&gt;" class="s2" d="m1891.11 1603.58q0 0 0 0l-52.41-0.4q-0.35-0.01-0.6-0.26-0.24-0.25-0.24-0.6l0.02-2.11c0.04-4.95 4.09-8.98 9.04-8.98h0.17c6.86 0 12.49-5.58 12.54-12.44l0.06-8.06c0.06-6.77-4.14-12.72-10.44-14.82-12.4-4.12-22.48-13.39-27.67-25.43-2.51-2.55-7.43-6.2-16.77-9.36-11.64-3.94-20.75-13.92-22.66-24.85-1.39-7.93 1.21-14.98 7.32-19.85 5.15-4.1 10.6-5.67 16.07-4.62 3.55 0.69 7.01 2.47 10.31 5.31l-0.56-10.23q-0.01-0.36 0.24-0.63c0.16-0.17 0.41-0.29 0.62-0.26l99.65 0.77q0.37 0.01 0.62 0.28 0.24 0.27 0.22 0.63l-0.73 10.49c3.43-2.94 7.03-4.76 10.71-5.41 5.48-0.97 10.9 0.69 15.99 4.87 6.04 4.96 8.53 12.05 7.02 19.96-2.09 10.89-11.35 20.73-23.06 24.49-9.92 3.18-14.96 6.98-17.45 9.64-5.44 11.68-15.57 20.59-27.82 24.45-6.33 2-10.62 7.89-10.67 14.65l-0.07 8.07c-0.05 6.91 5.53 12.58 12.44 12.63 2.42 0.02 4.68 0.98 6.38 2.7 1.69 1.72 2.62 4 2.6 6.42l-0.02 2.11c0 0.47-0.38 0.84-0.85 0.84zm-51.54-2.1l50.7 0.4 0.01-1.26c0.02-1.97-0.73-3.82-2.11-5.22-1.38-1.39-3.22-2.17-5.18-2.19-7.85-0.06-14.19-6.5-14.12-14.35l0.06-8.06c0.06-7.5 4.82-14.04 11.86-16.26 11.83-3.73 21.62-12.35 26.84-23.66q0.06-0.12 0.15-0.22c2.6-2.82 7.88-6.87 18.27-10.21 11.14-3.57 19.94-12.89 21.91-23.19 1.39-7.27-0.9-13.78-6.43-18.33-4.7-3.86-9.63-5.39-14.62-4.51-3.91 0.69-7.75 2.85-11.4 6.41-0.26 0.25-0.63 0.31-0.95 0.16-0.32-0.14-0.52-0.47-0.49-0.82l0.81-11.72-97.84-0.76 0.61 11.41c0.02 0.35-0.18 0.67-0.49 0.82-0.32 0.14-0.7 0.07-0.95-0.17-3.51-3.44-7.21-5.55-10.99-6.28-4.98-0.95-9.94 0.5-14.69 4.28-5.6 4.47-7.99 10.94-6.71 18.23 1.81 10.33 10.46 19.79 21.54 23.53 9.79 3.31 14.94 7.21 17.55 9.9q0.11 0.11 0.17 0.25c4.98 11.67 14.71 20.65 26.71 24.64 7 2.33 11.66 8.94 11.6 16.44l-0.06 8.06c-0.06 7.79-6.45 14.13-14.24 14.13h-0.11c-4.08 0-7.37 3.27-7.4 7.29zm71.9-78.41q-0.27 0-0.5-0.15c-0.27-0.2-0.41-0.55-0.33-0.88q0.74-3.31 0.97-6.61l1.85-26.54q0.02-0.22 0.14-0.41c1.89-2.8 7.03-9.45 13.93-10.66 4.01-0.7 7.86 0.53 11.8 3.77 5.79 4.76 6.04 10.79 5.23 15.02-1.71 8.95-9.76 17.4-19.56 20.55-5.06 1.62-9.46 3.57-13.09 5.79q-0.21 0.12-0.44 0.12zm3.67-33.83l-1.84 26.3q-0.17 2.49-0.63 5c3.4-1.89 7.36-3.57 11.81-5 9.24-2.96 16.81-10.88 18.42-19.25 0.72-3.77 0.5-9.16-4.65-13.38-3.55-2.93-6.92-4.04-10.42-3.42-6.25 1.09-11.15 7.51-12.69 9.75zm-95.56 32.91q-0.24 0-0.45-0.13c-3.52-2.19-7.79-4.14-12.66-5.79-9.76-3.29-17.67-11.87-19.25-20.85-0.74-4.23-0.39-10.26 5.47-14.93 4-3.18 7.86-4.35 11.85-3.59 6.61 1.26 11.59 7.68 13.43 10.37q0.13 0.2 0.15 0.44l1.46 27.04q0.17 3.16 0.83 6.42c0.07 0.33-0.07 0.67-0.35 0.87q-0.22 0.15-0.48 0.15zm-17.36-43.82c-2.79 0-5.56 1.13-8.48 3.45-5.2 4.15-5.51 9.53-4.85 13.31 1.48 8.39 8.93 16.43 18.12 19.54 4.28 1.44 8.11 3.12 11.4 4.99q-0.4-2.44-0.53-4.82l-1.45-26.8c-1.81-2.63-6.37-8.36-12.21-9.47q-1-0.2-2-0.2z"/>
		<path id="&lt;Path&gt;" class="s7" d="m1918.15 1464.73l-103.72-0.81c-0.44 0-0.81 0.36-0.82 0.81l-0.03 3.85c0 0.45 0.36 0.82 0.81 0.82l103.72 0.81c0.45 0 0.82-0.36 0.82-0.81l0.03-3.85c0-0.45-0.36-0.81-0.81-0.82z"/>
		<path id="&lt;Compound Path&gt;" class="s2" d="m1918.12 1471.06q-0.01 0-0.02 0l-103.72-0.81c-0.44 0-0.85-0.18-1.17-0.5-0.31-0.31-0.48-0.73-0.47-1.18l0.03-3.85c0-0.91 0.75-1.65 1.66-1.65l103.73 0.81c0.92 0.01 1.66 0.76 1.65 1.68l-0.03 3.85c-0.01 0.91-0.76 1.65-1.66 1.65zm-103.69-6.29v3.82l103.65 0.77 0.03-3.82z"/>
		<path id="&lt;Compound Path&gt;" class="s7" d="m1862.55 1498.91l-11.16 9.67-6.58-7.7 18.16-15.09 10.93 0.09-0.43 55.29-11.25-0.09z"/>
		<path id="&lt;Compound Path&gt;" class="s2" d="m1873.47 1542.01q0 0-0.01 0l-11.24-0.08c-0.47-0.01-0.85-0.39-0.84-0.86l0.31-40.29-9.75 8.44q-0.27 0.23-0.62 0.21-0.35-0.03-0.58-0.3l-6.58-7.7q-0.22-0.27-0.2-0.62 0.04-0.35 0.31-0.58l18.16-15.09c0.15-0.13 0.36-0.18 0.54-0.2l10.94 0.09c0.47 0 0.84 0.38 0.84 0.85l-0.43 55.29q-0.01 0.35-0.25 0.6-0.25 0.24-0.6 0.24zm-10.39-1.77l9.55 0.07 0.42-53.59-9.78-0.08-17.26 14.34 5.47 6.4 10.52-9.11c0.25-0.22 0.61-0.27 0.91-0.13 0.3 0.14 0.49 0.44 0.49 0.78z"/>
		<path id="&lt;Path&gt;" class="s2" d="m1702.63 1276.13c-0.42 0-0.78-0.31-0.84-0.74l-2.47-18.8c-0.06-0.47 0.26-0.89 0.73-0.95 0.46-0.07 0.89 0.26 0.95 0.73l2.47 18.8c0.07 0.47-0.26 0.89-0.73 0.95q-0.05 0.01-0.11 0.01z"/>
		<path id="&lt;Path&gt;" class="s2" d="m1686.8 1277.62c-0.36 0-0.68-0.22-0.81-0.58l-4.94-14.35c-0.16-0.44 0.08-0.92 0.52-1.08 0.45-0.15 0.93 0.09 1.08 0.53l4.95 14.35c0.15 0.44-0.08 0.93-0.53 1.08q-0.13 0.05-0.27 0.05z"/>
		<path id="&lt;Path&gt;" class="s2" d="m1672.45 1285.53c-0.25 0-0.49-0.1-0.65-0.3l-7.92-9.4c-0.3-0.36-0.26-0.9 0.1-1.2 0.36-0.3 0.89-0.25 1.2 0.1l7.91 9.41c0.31 0.36 0.26 0.89-0.1 1.19q-0.25 0.2-0.54 0.2z"/>
	</g>
</svg>