<svg version="1.2" xmlns="http://www.w3.org/2000/svg" viewBox="0 0 1080 1080" width="1080" height="1080">
	<style>
		.s0 { fill: #f2c9cc } 
		.s1 { fill: #f29199 } 
		.s2 { fill: #ffe6a1 } 
		.s3 { fill: #fc5e71 } 
		.s4 { fill: #ffffff } 
		.s5 { fill: #333333 } 
		.s6 { fill: #f4d936 } 
		.s7 { fill: #363636 } 
		.s8 { fill: #ccd7f2 } 
		.s9 { fill: #f2cf63 } 
		.s10 { fill: #a2bff9 } 
		.s11 { fill: #290a43 } 
	</style>
	<g id="Layer 1">
		<path id="&lt;Path&gt;" class="s0" d="m175.47 353.44c30.52-30.08 64.17-57.64 85.9-95.9 21.28-37.47 31.16-80.87 58.98-114.66 49.96-60.7 138.51-68.31 217.07-71.21 39.39-1.46 79.4-2.86 117.62 6.72 37.63 9.43 59.03 29.11 85.88 54.74 29.96 28.61 64.91 29.12 99.35 50.36 47.98 29.59 16.57 101.01 43.94 144.44 13.85 21.98 32.24 40.68 47.8 61.48 44.99 60.11 42.87 149.26 12.79 215.68-97 214.07-405.79 300.47-619.49 270.6-49.54-6.93-100.44-20.52-137.54-54.08-90.23-81.61-109.06-265.73-74.78-375.78 11.97-38.41 36.05-66.34 62.48-92.39z"/>
		<path id="&lt;Path&gt;" class="s1" d="m179.18 241.51c10.23 37.61 49.02 59.81 86.63 49.58 37.61-10.24 59.77-49.02 49.54-86.63-2.65-9.71-7.22-18.43-13.18-25.8l-53.86 42.52-71.58 1.48c-0.07 6.22 0.73 12.56 2.45 18.85z"/>
		<path id="&lt;Path&gt;" class="s2" d="m161.49 210.81l71.58-1.48-18.13-66.61c-0.01-0.04-0.93 0.21-1.42 0.34-31.31 8.52-51.92 36.81-52.03 67.75z"/>
		<path id="&lt;Path&gt;" class="s3" d="m230.19 154.57l18.12 66.61 53.86-42.52c-16.76-20.76-44.57-30.95-71.98-24.09z"/>
		<path id="&lt;Path&gt;" class="s4" d="m780.22 109.03l13.77-4.37-13.77-4.71c-4.13-1.08-7.28-4.4-8.16-8.57l-4.38-20.69-4.69 20.25c-0.99 4.26-4.36 7.57-8.65 8.48l-12.97 4.46 12.52 4.42c4.38 1.01 7.74 4.54 8.54 8.97l3.62 20.02 5.27-20.04c1.12-4.23 4.59-7.44 8.9-8.22z"/>
		<path id="&lt;Compound Path&gt;" class="s5" d="m766.05 139.41q-0.04 0-0.08 0c-1-0.04-1.83-0.76-2.01-1.74l-3.62-20.02c-0.65-3.6-3.37-6.46-6.93-7.28q-0.12-0.03-0.23-0.07l-12.52-4.42c-0.85-0.3-1.42-1.1-1.42-2.01 0.01-0.9 0.58-1.71 1.44-2l12.97-4.46q0.12-0.04 0.25-0.07c3.46-0.73 6.22-3.44 7.02-6.88l4.69-20.25c0.23-0.96 1.09-1.64 2.07-1.64q0.01 0 0.02 0c1 0.01 1.86 0.71 2.06 1.68l4.37 20.69c0.72 3.41 3.26 6.07 6.63 6.96l13.92 4.75c0.87 0.29 1.45 1.11 1.44 2.03-0.01 0.92-0.61 1.72-1.48 2l-13.78 4.37q-0.13 0.05-0.26 0.07c-3.49 0.63-6.32 3.25-7.22 6.68l-5.28 20.03c-0.24 0.94-1.09 1.58-2.05 1.58zm-11.56-33.16c5.15 1.25 9.09 5.41 10.03 10.64l1.92 10.59 2.83-10.77c1.31-4.96 5.39-8.78 10.43-9.74l7.51-2.39-7.68-2.62c-4.78-1.25-8.5-5.15-9.55-10.14l-2.39-11.31-2.53 10.9c-1.16 5.01-5.14 8.94-10.15 10.06l-7.09 2.43z"/>
		<path id="&lt;Path&gt;" class="s4" d="m167.87 424.14l23.8-7.56-23.81-8.13c-7.12-1.87-12.57-7.6-14.1-14.81l-7.55-35.75-8.12 34.98c-1.71 7.38-7.54 13.09-14.94 14.66l-22.42 7.71 21.63 7.63c7.58 1.76 13.39 7.86 14.77 15.51l6.25 34.59 9.11-34.62c1.93-7.32 7.93-12.86 15.38-14.21z"/>
		<path id="&lt;Compound Path&gt;" class="s5" d="m143.38 475.1q-0.04 0-0.08-0.01c-1-0.03-1.83-0.76-2.01-1.74l-6.25-34.59c-1.23-6.83-6.4-12.25-13.16-13.82q-0.11-0.03-0.22-0.07l-21.64-7.63c-0.85-0.3-1.42-1.1-1.41-2.01 0-0.9 0.58-1.71 1.43-2l22.42-7.71q0.12-0.04 0.25-0.07c6.57-1.39 11.8-6.52 13.32-13.06l8.11-34.98c0.22-0.96 1.08-1.65 2.07-1.65q0.01 0 0.02 0c0.99 0.02 1.85 0.71 2.05 1.69l7.56 35.75c1.37 6.46 6.18 11.52 12.56 13.2l23.96 8.17c0.87 0.3 1.45 1.12 1.44 2.03-0.01 0.92-0.61 1.73-1.48 2.01l-23.81 7.56q-0.13 0.04-0.27 0.06c-6.61 1.2-11.98 6.16-13.69 12.66l-9.11 34.62c-0.25 0.94-1.1 1.59-2.06 1.59zm-20.42-54.27c8.36 1.98 14.73 8.71 16.26 17.17l4.55 25.16 6.67-25.35c2.12-8.04 8.74-14.2 16.91-15.73l17.54-5.57-17.71-6.05c-7.8-2.04-13.8-8.34-15.5-16.38l-5.57-26.37-5.95 25.64c-1.88 8.1-8.32 14.46-16.44 16.23l-16.53 5.68z"/>
		<path id="&lt;Path&gt;" class="s5" d="m951.15 405.99l18.52-5.88-18.52-6.32c-5.54-1.45-9.78-5.91-10.96-11.52l-5.88-27.8-6.31 27.2c-1.33 5.74-5.87 10.19-11.63 11.4l-17.43 6 16.82 5.94c5.9 1.36 10.41 6.11 11.49 12.06l4.86 26.9 7.09-26.92c1.5-5.7 6.16-10.01 11.95-11.06z"/>
		<path id="&lt;Path&gt;" class="s5" d="m358.43 77.98l8.38-2.67-8.38-2.86c-2.51-0.66-4.43-2.68-4.97-5.22l-2.66-12.59-2.86 12.32c-0.6 2.6-2.66 4.61-5.27 5.16l-7.89 2.72 7.62 2.69c2.67 0.62 4.71 2.76 5.2 5.46l2.2 12.19 3.21-12.2c0.68-2.58 2.79-4.53 5.42-5z"/>
		<path id="&lt;Path&gt;" class="s1" d="m993.72 296.63h-192.39c-8.07 0-14.48-6.51-14.48-14.48v-99.5c0-8.06 6.51-14.48 14.48-14.48h192.39c8.06 0 14.48 6.51 14.48 14.48v99.5c0.09 7.97-6.42 14.48-14.48 14.48z"/>
		<path id="&lt;Path&gt;" class="s3" d="m846.07 261.75v22.93h-34.86v-22.93z"/>
		<path id="&lt;Path&gt;" class="s3" d="m895.77 242.95v41.34h-34.86v-41.34z"/>
		<path id="&lt;Path&gt;" class="s3" d="m943.67 218.41v65.88h-34.87v-65.88z"/>
		<path id="&lt;Path&gt;" class="s3" d="m991.67 193.44v90.85h-34.88v-90.85z"/>
		<path id="&lt;Path&gt;" class="s3" d="m807.33 253.56c-1.8 0-3.52-1.03-4.32-2.77-1.1-2.38-0.05-5.21 2.33-6.31l118.12-54.37c2.38-1.1 5.21-0.06 6.31 2.33 1.1 2.39 0.05 5.21-2.33 6.31l-118.12 54.37q-0.98 0.44-1.99 0.44z"/>
		<path id="&lt;Path&gt;" class="s3" d="m926.19 212.79q-0.92 0.01-1.84-0.37c-2.42-1.02-3.56-3.8-2.54-6.22l5.07-12.09-12.78-2.5c-2.58-0.5-4.26-3-3.76-5.58 0.51-2.58 3-4.26 5.58-3.75l18.52 3.61c1.41 0.28 2.61 1.17 3.29 2.43 0.67 1.26 0.74 2.76 0.19 4.08l-7.34 17.48c-0.76 1.82-2.53 2.91-4.39 2.91z"/>
		<path id="&lt;Path&gt;" class="s5" d="m453.74 64.14c28.48-20.33 65.45-23.41 100.41-24.69 22.4-0.82 45.17-1.15 66.79 4.74 21.63 5.88 42.28 18.84 52.59 38.74 10.2 19.68 9.13 43.15 14.96 64.54 6.36 23.28 21.3 44.12 41.31 57.61 10.63 7.16 23.02 12.68 30.24 23.27 17.9 26.26-6.54 64.59 7.56 93.08 10.89 22 38.9 27.72 59.9 40.42 27.8 16.83 44.93 49.88 42.63 82.3-0.51 7.09-1.95 14.33-5.9 20.23-3.38 5.06-8.37 8.79-13.36 12.29-72.33 50.67-162.23 69.72-250.27 76.81-90.93 7.32-183.49 2.99-271.44-21.22-33.27-9.16-67.37-22.2-89.53-48.66-22.16-26.45-27.48-69.72-3.21-94.25 13.12-13.25 31.88-18.75 49.19-25.68 17.31-6.93 35.26-17.23 41.67-34.74 6.32-17.27-0.39-36.28-0.8-54.66-0.56-24.77 11.31-49.51 30.98-64.58 16.82-12.9 39.61-19.92 49.55-38.64 6.9-12.99 5.77-28.56 7.88-43.12 3.65-25.32 18.03-48.92 38.85-63.79z"/>
		<path id="&lt;Path&gt;" class="s3" d="m614.31 410.37c48.44-16.15 177.62-20.19 230.1 34.98 52.48 55.18 59.21 87.47 80.74 110.35 21.53 22.87 122.77 148.15 113.35 204.66-9.42 56.52-59.05 118.42-159.1 95.41-83.88-19.28-154.15-106.89-146.75-103.19 1.41 0.7 32.48 123.27 19.11 126.73-94.16 24.37-455.24 10.62-455.24 10.62 0 0 18.04-93.37 17.47-92.62-36.59 48.01-123.8 94.78-171.82 90.5-75.35-6.73-109.88-92.52-99.12-155.77 10.77-63.24 94.9-115.79 131.23-149.43 36.34-33.64 73.01-135.67 133.57-165.27 60.55-29.61 230.45 2.12 230.45 2.12z"/>
		<path id="&lt;Compound Path&gt;" class="s5" d="m507.43 895.92c-108.2 0-209.98-3.83-210.99-3.87-0.62-0.02-1.2-0.31-1.59-0.8-0.38-0.49-0.54-1.12-0.42-1.72 5.46-28.24 13.07-67.97 16.12-84.59-37.61 43.95-115.13 85.26-161.99 85.26q-3.41 0-6.58-0.28c-28.77-2.57-53.85-16.74-72.54-40.99-24.1-31.28-35.28-77.29-28.48-117.24 8.53-50.15 62.8-93.94 102.42-125.92 11.07-8.94 21.53-17.38 29.46-24.72 13.53-12.53 27.51-35.34 42.3-59.49 25.11-41 53.58-87.46 91.77-106.13 17.44-8.52 45.34-12.84 82.93-12.84 66.63 0 142.92 13.7 148.53 14.73l75.47-9.03c20.08-6.66 50.95-10.62 82.65-10.62 31.72 0 109.77 4.5 149.46 46.22 32.27 33.92 47.14 58.93 59.1 79.02 7.51 12.64 13.45 22.62 21.65 31.33 16.52 17.56 123.74 147.41 113.9 206.47-7.85 47.11-44.08 102.12-120.32 102.12-13.07 0-26.98-1.68-41.36-4.99-64.91-14.92-120.94-70.12-140.51-92.9 7.14 27.8 24.29 100.93 16.98 113.86-0.96 1.71-2.21 2.34-3.1 2.56-37.3 9.66-119.69 14.56-244.86 14.56zm-208.36-8.02c16.23 0.58 109.62 3.77 208.36 3.77 124.81 0 206.84-4.85 243.8-14.42 0.06-0.01 0.24-0.15 0.46-0.54 6.51-11.49-12.53-95.08-19.91-120.13-1.59-2.35-2.21-3.73-1.52-5.03 0.36-0.7 1.24-1.21 2.03-1.21q0.63 0 1.31 0.34c0.9 0.45 1.18 1.1 2.07 4.05 9.06 12.91 70.88 82.11 144.2 98.97 14.07 3.24 27.67 4.88 40.41 4.88 73.59 0 108.55-53.1 116.13-98.56 9.56-57.38-96.48-185.52-112.81-202.87-8.52-9.05-14.86-19.71-22.21-32.06-11.84-19.91-26.58-44.7-58.52-78.27-38.55-40.53-115.21-44.91-146.38-44.91-31.37 0-61.84 3.92-81.51 10.47q-0.21 0.07-0.42 0.1l-76.01 9.09q-0.32 0.04-0.64-0.02c-0.79-0.15-79.61-14.72-148.07-14.72-36.94 0-64.21 4.18-81.06 12.42-37.09 18.13-65.21 64.03-90.02 104.53-14.95 24.4-29.07 47.46-43.03 60.39-8.04 7.44-18.55 15.92-29.68 24.91-39.1 31.55-92.64 74.76-100.9 123.32-6.61 38.84 4.24 83.56 27.65 113.94 17.95 23.28 42 36.89 69.56 39.35q2.98 0.26 6.2 0.26c48.05 0 129.16-44.54 163.74-89.93 0.78-1.03 2.51-1.06 3.34-0.06 0.87 1.06 0.97 1.18-16.57 91.94z"/>
		<path id="&lt;Path&gt;" class="s4" d="m465.85 228.46c0 0-28.36-28.74-51.94-20.26-23.58 8.47-26.89 59.67-1.47 69.62 25.41 9.95 55.99-9.95 55.99-9.95z"/>
		<path id="&lt;Compound Path&gt;" class="s5" d="m428.02 282.73q0 0 0 0c-5.89 0-11.39-0.99-16.36-2.93-14.32-5.61-19.22-22.24-19.02-35.95 0.21-15.14 6.65-32.66 20.55-37.66 3.12-1.12 6.47-1.68 9.97-1.68 21.78 0 43.3 21.54 44.2 22.45 0.36 0.37 0.58 0.85 0.61 1.36l2.58 39.41c0.05 0.77-0.32 1.5-0.96 1.92-0.82 0.54-20.34 13.08-41.57 13.08zm-4.86-73.97c-3.01 0-5.88 0.48-8.53 1.43-10.22 3.68-17.52 17.54-17.75 33.72-0.17 12.28 4.03 27.12 16.33 31.93 4.47 1.75 9.46 2.64 14.81 2.64q0 0 0 0c17.31 0 33.95-9.2 38.21-11.74l-2.45-37.33c-3.45-3.31-22.44-20.65-40.62-20.65z"/>
		<path id="&lt;Path&gt;" class="s5" d="m609.89 296.98c-2.95 7.73-5.9 15.1-9.21 21.36-32.79 61.15-91.73 52.68-109.04 45.68v-5.53l0.37-32.04 53.41 2.21 15.84 0.73 5.9-4.42 21.36-16.58z"/>
		<path id="&lt;Path&gt;" class="s4" d="m685.04 199.72c-11.79-2.94-22.11 1.48-29.84 7v-0.37c0 0.37 0 0.37-0.37 0.74-2.95 2.21-5.53 4.42-7.37 6.26-5.52-22.1-2.58-78.09-26.52-104.99-14-15.84-67.42-19.89-104.99-15.47-26.89 3.32-51.94 30.21-59.68 56.36-8.84 30.21-13.63 63.37-14 62.63 6.27 55.62 10.69 127.46 87.68 140.35 17.68 2.95 33.52 0.74 47.52-4.42-32.42 28.74-72.57 22.1-86.57 16.58v-5.53c-0.74 20.26-2.58 49.37-6.26 51.58-5.9 3.31-30.02-1.87-30.02-1.87 0 0 13.81 68.54 100.01 63.39 86.2-5.16 83-66.08 83-66.08 0 0-25.16 1.98-29.22-3.92-3.31-4.42-1.1-49.36 0-71.83 1.48-1.11 2.95-2.58 4.42-4.05 17.32-15.47 26.89-35.37 33.16-57.1 11.42 4.05 30.57 8.47 46.41 0.37 25.05-12.9 17.32-63.37-7.36-69.63z"/>
		<path id="&lt;Compound Path&gt;" class="s5" d="m545.54 474.36c-78.92 0-92.87-64.71-93-65.37-0.14-0.7 0.08-1.42 0.59-1.93 0.51-0.5 1.24-0.72 1.94-0.56 0.14 0.03 13.73 2.92 22.67 2.92 3.54 0 5.09-0.45 5.73-0.77 1.83-2.18 4.16-18.36 5.31-49.86 0.04-1.16 1-2.03 2.16-2.05 1.16 0.02 2.08 0.97 2.08 2.12v4.05c4.02 1.43 13.58 4.2 26.91 4.2 12.61 0 30.21-2.61 47.15-13.95-12.23 2.9-24.79 3.29-37.48 1.17-75.21-12.6-82.64-80.37-88.62-134.82l-0.82-7.39q-0.06-0.67 0.23-1.23c0.19-0.8 0.64-3.22 1.14-5.99 2.05-11.17 6.32-34.42 12.7-56.24 7.59-25.66 32.65-54.33 61.46-57.88 9.41-1.1 19.91-1.69 30.39-1.69 29.33 0 64.81 4.7 76.45 17.87 17.6 19.76 21.05 54.92 23.58 80.59 0.83 8.43 1.56 15.91 2.64 21.71 1.35-1.18 2.86-2.4 4.44-3.59 0.27-0.79 0.99-1.38 1.86-1.44 10.07-6.84 20.45-9.08 30.5-6.57 14.26 3.62 22.33 20.08 24.01 34.78 1.58 13.91-1.84 31.41-16.19 38.79-6.19 3.18-13.38 4.78-21.36 4.78q0 0 0 0c-9.3 0-18.21-2.2-24.61-4.31-7.36 24.54-17.93 42.36-33.15 55.96-1.18 1.18-2.45 2.45-3.76 3.54-0.92 18.72-3.15 65.07-0.37 69.51 1.14 1.65 6.53 3.37 18.35 3.37 4.96 0 8.96-0.31 9-0.32 0.57-0.04 1.13 0.15 1.56 0.53 0.43 0.37 0.69 0.91 0.72 1.48 0.04 0.63 2.3 63.08-84.99 68.31-3.12 0.18-6.22 0.28-9.22 0.28zm-88.03-63.05c3.71 12.77 21.7 58.8 88.03 58.8 2.92 0 5.93-0.09 8.96-0.27 73.97-4.43 80.47-51.06 80.98-61.7-1.7 0.09-4.19 0.18-7.01 0.18-18.26 0-20.93-3.88-21.81-5.15-3.09-4.12-2.44-31.05-0.37-73.14 0.03-0.63 0.34-1.22 0.85-1.6 1.36-1.02 2.8-2.46 4.19-3.86 15.12-13.51 25.46-31.34 32.62-56.18 0.16-0.56 0.55-1.03 1.07-1.3 0.52-0.27 1.13-0.31 1.68-0.11 6.15 2.18 15.54 4.78 25.31 4.78 7.3 0 13.84-1.45 19.43-4.31 12.41-6.39 15.32-22.03 13.9-34.53-1.51-13.25-8.54-28.02-20.83-31.14-9.13-2.29-18.61-0.05-27.96 6.59q-0.1 0.11-0.22 0.22-0.11 0.11-0.23 0.2c-2.77 2.08-5.3 4.23-7.14 6.06-0.54 0.54-1.33 0.75-2.07 0.55-0.73-0.21-1.3-0.79-1.49-1.53-1.61-6.43-2.49-15.46-3.52-25.9-2.47-25.1-5.84-59.46-22.53-78.19-8.82-9.99-37.58-16.44-73.27-16.44-10.31 0-20.65 0.58-29.88 1.66-27.07 3.34-50.69 30.51-57.89 54.86-6.33 21.6-10.56 44.71-12.6 55.81-0.59 3.21-0.95 5.19-1.28 6.4l0.77 6.97c5.82 53.04 13.06 119.03 85.1 131.1 15.85 2.64 31.49 1.19 46.43-4.32 0.96-0.36 2.04 0.02 2.56 0.9 0.53 0.88 0.35 2.01-0.41 2.68-20.48 18.15-43.36 21.96-58.95 21.96-12.87 0-22.48-2.5-27.25-4.07-1.94 41.96-5.54 44.12-6.95 44.97-1.7 0.96-4.3 1.41-7.99 1.41-6.68 0-15.49-1.47-20.23-2.36z"/>
		<path id="&lt;Path&gt;" class="s6" d="m661.09 291.45c-2.95 0-4.79-1.11-5.89-2.58-4.42-4.79-2.21-14.37-2.21-15.47 0.37-1.47 1.84-2.58 3.68-2.21 1.47 0.37 2.58 1.84 2.21 3.68-0.74 2.95-1.1 8.11 0.74 9.95 0.37 0.37 0.73 0.74 2.58 0.37 1.1-0.37 2.21-0.74 2.57-1.85 2.58-4.05 0.74-12.52 0-15.47-0.36-1.47 0.37-3.31 2.22-3.68 1.47-0.37 3.31 0.37 3.68 2.21 0.37 1.47 3.68 13.26-0.37 20.26q-2.21 3.87-6.63 4.42c-1.47 0.37-2.21 0.37-2.58 0.37z"/>
		<path id="&lt;Path&gt;" class="s6" d="m434.17 298.82c2.95 0 4.79-1.11 5.89-2.58 4.42-4.79 2.21-14.37 2.21-15.47-0.36-1.48-1.84-2.58-3.68-2.21-1.47 0.36-2.58 1.84-2.21 3.68 0.74 2.95 1.11 8.1-0.74 9.95-0.36 0.36-0.73 0.73-2.57 0.36-1.11-0.36-2.22-0.73-2.58-1.84-2.58-4.05-0.74-12.52 0-15.47 0.36-1.47-0.37-3.31-2.21-3.68-1.48-0.37-3.32 0.37-3.69 2.21-0.37 1.47-3.68 13.26 0.37 20.26q2.21 3.87 6.63 4.42c1.11 0.37 1.84 0.37 2.58 0.37z"/>
		<path id="&lt;Path&gt;" class="s5" d="m608.41 193.83c-1.84 1.1-4.05 1.1-6.26 0.37-2.21-0.74-4.05-1.85-5.89-2.95-4.06-2.58-8.84-4.05-13.26-5.16-2.22-0.37-5.16-1.1-6.27-2.94-1.47-2.21 0-5.53 2.21-7 2.21-1.48 5.16-1.48 7.74-1.11 6.26 1.11 11.79 3.69 16.95 7.37 1.84 1.47 3.31 2.95 4.42 4.79 1.47 2.21 1.47 4.79 0.36 6.63z"/>
		<path id="&lt;Path&gt;" class="s5" d="m482.8 194.2c1.84 1.1 4.42 1.1 6.26 0.37 2.21-0.74 3.68-2.22 5.52-3.32q6.08-3.87 13.27-5.53c2.21-0.73 5.15-1.1 6.26-3.31 1.47-2.21 0-5.53-2.58-7-2.21-1.47-5.16-1.11-8.1-0.74-6.27 1.11-11.79 4.05-16.58 8.11-1.84 1.47-3.32 2.94-4.42 5.15-0.74 1.85-0.74 4.42 0.37 6.27z"/>
		<path id="&lt;Path&gt;" class="s5" d="m443.38 217.4c0 0 97.62-106.83 111.99-122.3 0 0-29.84 53.05-14.74 51.21 15.11-1.84 23.95-46.42 23.95-46.42 0 0-4.79 31.31 8.1 28.37 12.89-2.95 3.32-33.16 3.32-33.16l70.6 119.48c0 0 1.6-63.85 1.97-65.69 0.37-1.85-12.53-45.32-12.53-45.32l-51.94-17.31-76.25-4.42-50.1 9.58z"/>
		<path id="&lt;Path&gt;" class="s5" d="m652.25 245.68q-0.42 0-0.82-0.16c-1.08-0.46-1.59-1.7-1.14-2.78 9.23-21.91 35.27-24.76 36.38-24.87 1.17-0.08 2.2 0.73 2.32 1.9 0.12 1.17-0.73 2.21-1.9 2.33-0.24 0.02-24.65 2.73-32.88 22.28-0.34 0.82-1.13 1.3-1.96 1.3z"/>
		<path id="&lt;Path&gt;" class="s5" d="m672.14 237.58c-0.44 0-0.88-0.13-1.26-0.42l-8.47-6.26c-0.94-0.7-1.14-2.03-0.45-2.97 0.7-0.94 2.03-1.14 2.97-0.44l8.48 6.26c0.94 0.7 1.14 2.03 0.44 2.97-0.42 0.56-1.06 0.86-1.71 0.86z"/>
		<path id="&lt;Path&gt;" class="s5" d="m445.59 245.68c-0.83 0-1.62-0.48-1.96-1.3-8.23-19.55-32.64-22.26-32.88-22.28-1.17-0.12-2.02-1.16-1.9-2.33 0.12-1.17 1.14-1.98 2.32-1.9 1.11 0.11 27.15 2.96 36.38 24.87 0.45 1.08-0.06 2.32-1.14 2.78q-0.4 0.16-0.82 0.16z"/>
		<path id="&lt;Path&gt;" class="s5" d="m430.85 237.58q-0.46 0-0.9-0.2c-1.06-0.5-1.52-1.77-1.02-2.83l2.95-6.26c0.5-1.06 1.76-1.52 2.83-1.02 1.06 0.5 1.51 1.77 1.01 2.83l-2.94 6.26c-0.37 0.77-1.13 1.22-1.93 1.22z"/>
		<path id="&lt;Path&gt;" class="s5" d="m204.13 619.06c1.1-12.9 10.52-31.74 29.36-20.98 18.84 10.77 97.56 135.24 95.54 151.39-2.02 16.15-27.94 20.33-59.05-2.28-31.11-22.61-65.85-128.13-65.85-128.13z"/>
		<path id="&lt;Path&gt;" class="s4" d="m460.57 499.07c-0.37-10.05-7.86-24.58-27.51-14.62-19.66 9.95-40.31 44.78-40.31 44.78 0 0-7.08-55.08-4.57-65.07 2.16-9.84 34.9-43.01 26.29-60.35-8.47-16.99-31.43-8.15-37.88 0.15-0.56 0.64-2.39 0.15-2.39 0.15 0 0-7.73-3.01-23.46 2.51-15.73 5.52-39.64 30.24-39.64 30.24 0 0-18.87 14.94-27.36 23.25 0 0-50.73 35.1-50.23 70.8 0.11 17.5 4.58 39.77 10.11 59.58l-38.14 28.57c4.25 47.86 21.54 105.26 65.85 128.13l13.44-8.86 62.95-41.25 52.91-34.77 10.95-7.26c0 0 21.32-17.96 24.93-39.41 4.1-21.23-0.68-54.39 2.11-63.67 2.79-9.28 22.32-42.85 21.95-52.9z"/>
		<path id="&lt;Compound Path&gt;" class="s5" d="m271.33 749.31q-0.51 0-0.98-0.23c-52.45-27.08-64.32-99.81-66.99-129.83-0.06-0.73 0.26-1.45 0.84-1.89l36.98-27.7c-6.23-22.67-9.7-43.48-9.8-58.73-0.5-35.78 47.36-69.92 51-72.47 8.28-8.07 25.59-21.84 27.29-23.18 1.93-1.99 24.7-25.17 40.36-30.66 6.53-2.29 12.52-3.45 17.83-3.45 4.02 0 6.33 0.68 6.96 0.9 0.12 0.03 0.32 0.07 0.51 0.08 4.17-5.01 13.84-10.16 23.18-10.16 8.02 0 14.37 3.86 17.86 10.87 6.4 12.88-7.27 32.63-17.24 47.05-4.26 6.14-8.27 11.95-8.88 14.71-1.77 7.05 1.71 40.42 3.87 58.42 6.62-10.19 22.41-32.61 37.98-40.49 4.67-2.36 9.02-3.56 12.92-3.56 11.63 0 17.31 10.37 17.67 20 0.26 6.91-7.41 22.53-14.17 36.32-3.55 7.22-6.9 14.04-7.87 17.27-1.14 3.81-0.88 12.62-0.58 22.82 0.39 13.43 0.84 28.65-1.48 40.65-3.68 21.9-24.75 39.87-25.64 40.63q-0.1 0.08-0.2 0.14l-10.95 7.26-52.92 34.77-76.38 50.11q-0.55 0.35-1.17 0.35zm-63.63-129.26c2.79 29.78 14.51 98.46 63.5 124.68l12.4-8.18 62.95-41.25 63.74-41.94c1.46-1.27 20.8-18.34 24.12-38.07 2.24-11.58 1.78-27.21 1.41-39.76-0.32-11.01-0.58-19.7 0.76-24.17 1.08-3.57 4.34-10.22 8.12-17.92 5.89-12.01 13.96-28.45 13.75-34.29-0.21-5.5-3.28-15.92-13.43-15.92-3.23 0-6.93 1.05-11 3.11-18.89 9.56-39.24 43.63-39.44 43.97-0.47 0.78-1.37 1.19-2.26 1-0.89-0.18-1.56-0.91-1.68-1.81-0.29-2.27-7.1-55.6-4.52-65.85 0.77-3.52 4.63-9.1 9.51-16.16 9.38-13.55 22.22-32.1 16.94-42.73-2.82-5.65-7.55-8.52-14.06-8.52-8.18 0-16.87 4.69-20.24 9.03-0.7 0.79-1.59 1.14-2.74 1.14-0.89 0-1.72-0.21-1.87-0.25q-0.12-0.03-0.23-0.07c0 0-1.87-0.67-5.57-0.67-3.32 0-8.86 0.55-16.42 3.2-15.07 5.29-38.58 29.47-38.82 29.71q-0.09 0.1-0.21 0.19c-0.18 0.15-18.88 14.97-27.18 23.1q-0.13 0.13-0.28 0.23c-0.5 0.35-49.8 34.89-49.32 69.04 0.09 15.21 3.66 36.17 10.03 59.03 0.24 0.84-0.07 1.74-0.77 2.26z"/>
		<path id="&lt;Path&gt;" class="s5" d="m279.74 463.35l0.35-0.14c17.77-5.52 29.58-2.53 33.61 8.5 3.75 10.32-6.62 25.1-19.25 34.26-11.93 8.88-14.88 9.66-15.23 9.8-0.35 0.15-0.84-0.06-0.63-0.56-0.14-0.35 0.07-0.84 0.56-0.63 0 0 2.95-0.78 14.18-9.38 11.57-8.74 22.08-23.17 18.62-32.79-3.75-10.32-14.93-12.75-31.64-7.66-0.35 0.14-0.85-0.07-0.99-0.42 0.07-0.84 0.42-0.98 0.42-0.98z"/>
		<path id="&lt;Path&gt;" class="s7" d="m279 516.88c-0.53 0-1.02-0.25-1.29-0.66q-0.3-0.47-0.21-1.03c-0.05-0.38 0.04-0.78 0.25-1.1 0.3-0.44 0.8-0.69 1.34-0.61 0.83-0.35 4.32-2.02 13.59-9.12 11.3-8.53 21.54-22.5 18.27-31.59-2.3-6.32-7.6-9.53-15.75-9.53-4.18 0-9.09 0.85-14.58 2.53-0.12 0.05-0.33 0.09-0.55 0.09-0.75 0-1.47-0.46-1.73-1.13q-0.1-0.23-0.08-0.48c0.12-1.39 0.86-1.8 1.09-1.89l0.34-0.14c18.49-5.75 30.81-2.36 35.01 9.12 4.01 11.05-6.84 26.21-19.62 35.49-7.34 5.47-12.82 8.99-15.42 9.92q-0.35 0.13-0.66 0.13z"/>
		<path id="&lt;Path&gt;" class="s5" d="m286.31 510.07c0.21-0.5 0.7-0.29 1.19-0.08 3.38 2.32 9.83 27.46 10.61 30.41 0.14 0.35-0.07 0.84-0.42 0.98-0.35 0.15-0.84-0.06-0.98-0.41-2.7-10.75-8.08-28.17-9.98-29.85q-0.74-0.32-0.42-1.05z"/>
		<path id="&lt;Path&gt;" class="s7" d="m297.45 542.49c-0.75 0-1.46-0.46-1.73-1.13-3.17-12.6-8.1-27.62-9.61-29.36-0.5-0.27-0.73-0.63-0.84-0.9-0.12-0.31-0.21-0.81 0.06-1.45 0.25-0.59 0.78-0.95 1.41-0.95 0.44 0 0.83 0.17 1.18 0.32 1.06 0.7 3.73 2.52 11.07 30.54l0.15 0.57c0.13 0.3 0.12 0.8-0.08 1.26-0.19 0.45-0.55 0.81-0.97 0.98q-0.3 0.12-0.64 0.12z"/>
		<path id="&lt;Path&gt;" class="s5" d="m311.59 437.07c0.91-0.78 21.27-11.01 33.51-6.97 3.3 1.12 5.84 3.37 7.46 6.38 8.33 16.64-3.94 31.78-10.89 35.8-6.94 4.02-20.75 21.41-22.85 24.29 1.41 5.55 6.09 21.21 5.25 23.18q-0.32 0.74-1.06 0.43-0.73-0.32-0.42-1.06c0.28-1.33-2.7-12.78-5.46-22.68-0.14-0.36-0.14-0.36 0.07-0.85 0.56-0.63 15.91-20.27 23.42-24.93 6.59-3.88 18.09-17.89 10.39-33.96-1.48-2.67-3.52-4.7-6.33-5.61-11.75-3.84-31.61 6.6-31.97 6.74-0.35 0.15-0.84-0.06-0.98-0.41-0.35 0.14-0.35 0.14-0.14-0.35z"/>
		<path id="&lt;Path&gt;" class="s7" d="m323.42 521.33q-0.4 0-0.82-0.18c-0.64-0.27-0.92-0.69-1.05-1-0.11-0.28-0.19-0.72 0-1.28 0.03-1.22-1.63-8.47-5.44-22.15-0.24-0.58-0.17-0.89 0.11-1.54q0.07-0.16 0.18-0.29 0.1-0.12 0.6-0.74c10.58-13.17 18.55-21.6 23.06-24.39 6.27-3.69 17.46-17 9.99-32.6-1.45-2.62-3.33-4.29-5.7-5.06q-2.44-0.8-5.62-0.8c-9.75 0-21.84 5.65-25.32 7.38q-0.26 0.12-0.29 0.14c-0.59 0.24-1.31 0.1-1.81-0.28-0.3-0.04-0.58-0.22-0.74-0.47-0.34-0.52-0.14-1 0.04-1.42q0.1-0.23 0.29-0.4c1.07-0.9 15.63-8.15 27.64-8.15 2.57 0 4.89 0.34 6.89 1 3.49 1.18 6.27 3.55 8.06 6.88 8.42 16.82-3.19 32.54-11.28 37.22-6.25 3.61-18.9 19.12-22.24 23.6 0.3 1.13 0.7 2.6 1.15 4.24 3.2 11.68 4.61 17.52 3.92 19.13-0.31 0.74-0.9 1.16-1.62 1.16z"/>
		<path id="&lt;Path&gt;" class="s5" d="m376.04 406.64c0 0 0.35-0.15 0 0 0.21-0.5 0.7-0.29 1.19-0.08 4.15 3.23 7.19 9.75 7.77 17.27 0.44 9.21-2.98 17.93-9.23 23.71-11.78 11.27-16.12 18.72-17.1 20.34l5.33 26.42c0.14 0.35-0.07 0.84-0.42 0.98-0.35 0.14-0.84-0.07-0.98-0.42l-5.47-26.76c0 0-0.15-0.35 0.21-0.49 0.2-0.5 4.05-8.17 17.31-20.84 6.24-5.78 9.45-14.01 8.8-22.72-0.29-6.82-3.19-13-6.85-16.01-0.63-0.56-0.42-1.05-0.56-1.4z"/>
		<path id="&lt;Path&gt;" class="s7" d="m363.34 496.39c-0.75 0-1.46-0.47-1.73-1.14l-5.52-26.94c-0.01 0.04-0.17-0.41 0.06-0.93q0.12-0.29 0.36-0.5c0.79-1.55 4.96-8.98 17.4-20.88 6.02-5.57 9.11-13.54 8.48-21.87-0.26-6.18-2.86-12.31-6.46-15.27-0.79-0.7-0.85-1.4-0.89-1.77-0.09-0.23-0.1-0.49-0.03-0.72q0.02-0.08 0.05-0.15c0.25-0.6 0.78-0.95 1.41-0.95 0.44 0 0.83 0.17 1.18 0.32q0.12 0.05 0.23 0.13c4.45 3.46 7.59 10.37 8.18 18.03 0.46 9.57-3.03 18.52-9.56 24.57-5.11 4.88-12.15 12.27-16.71 19.76l5.25 26.01c0.3 0.71-0.16 1.81-1.06 2.17q-0.31 0.13-0.64 0.13z"/>
		<path id="&lt;Path&gt;" class="s5" d="m303.09 566.95c0.21-0.49 1.05-0.42 1.19-0.07 14.65 14.09 17.58 36.58 17.48 52.53 0.1 17.5-3.59 31.63-3.45 31.98q-0.31 0.74-1.05 0.43-0.74-0.32-0.43-1.06c0.21-0.49 13.59-56.46-13.46-83.1-0.35 0.14-0.49-0.21-0.28-0.71z"/>
		<path id="&lt;Path&gt;" class="s7" d="m317.66 652.97q-0.4 0-0.82-0.18c-1.02-0.43-1.42-1.42-0.98-2.44 0.12-0.45 13.11-55.45-12.93-81.64q-0.48-0.11-0.77-0.53c-0.29-0.44-0.31-1.04-0.05-1.64 0.48-1.12 2.36-1.25 3.01-0.33 14.82 14.35 17.81 36.85 17.7 53.21 0.09 14.18-2.28 26.02-3.17 30.48q-0.23 1.12-0.28 1.46 0.01 0.23-0.08 0.45c-0.32 0.74-0.91 1.16-1.63 1.16z"/>
		<path id="&lt;Path&gt;" class="s5" d="m884.78 620.29c1.35-16.15 2.02-32.3-4.71-39.03-6.73-6.72-24.89-5.38-26.91 10.77-2.02 16.15-73.34 94.87-82.09 100.92-8.74 6.06-34.31 14.8-39.02 30.28-4.71 15.47 54.5-3.36 74.68-16.15 20.19-12.78 78.05-86.79 78.05-86.79z"/>
		<path id="&lt;Path&gt;" class="s5" d="m1008.13 685.21c-0.51 0-1.02-0.18-1.43-0.55-0.58-0.53-58.46-53.05-74.39-66.33-6.74-5.61-14.96-15.01-22.92-24.1-10.34-11.81-22.06-25.2-27.05-25.65-8.84-0.8-12.61 2.05-28.94 15.66-0.91 0.75-2.25 0.63-3-0.27-0.75-0.9-0.62-2.24 0.28-2.99 15.82-13.18 21.14-17.62 32.05-16.63 6.22 0.56 15.43 10.61 29.86 27.08 7.84 8.97 15.96 18.23 22.44 23.64 16 13.33 73.94 65.91 74.53 66.44 0.87 0.79 0.93 2.14 0.14 3-0.42 0.47-0.99 0.7-1.57 0.7z"/>
		<path id="&lt;Path&gt;" class="s5" d="m734.52 756.08c-0.55 0-1.09-0.21-1.5-0.62-13.96-13.96-18.65-27.39-13.95-39.93 3.65-9.73 10.63-14.36 18.7-19.73 4.59-3.04 9.33-6.19 14.14-10.68 0.85-0.8 2.2-0.75 3 0.1 0.8 0.86 0.75 2.21-0.1 3.01-5.07 4.72-10.18 8.12-14.69 11.11-7.77 5.16-13.9 9.24-17.07 17.68-4.06 10.84 0.3 22.76 12.97 35.43 0.83 0.83 0.83 2.18 0 3.01-0.42 0.41-0.96 0.62-1.5 0.62z"/>
		<path id="&lt;Path&gt;" class="s4" d="m875.36 651.24c6.53-11.2 9.82-23.68 8.54-35.67l-34.77-36.57c8.75-18.6 16.88-39.81 19.9-57.05 6.45-35.11-37.72-78.19-37.72-78.19-6.98-9.61-23.1-27.49-23.1-27.49 0 0-19.45-28.36-34.04-36.42-14.59-8.06-22.72-6.39-22.72-6.39 0 0-1.88 0.18-2.33-0.54-4.97-9.27-26.14-21.81-37.32-6.47-11.38 15.66 15.37 53.83 15.86 63.89 0.81 10.27-15.36 63.4-15.36 63.4 0 0-14.56-37.79-32.28-50.88-17.72-13.09-27.52-0.01-29.56 9.83-2.04 9.85 11.62 46.2 12.82 55.82 1.21 9.62-9.04 41.51-8.54 63.13-0.02 21.74 18.01 43.02 18.01 43.02l9.59 8.98 46.37 43.1 50.23 46.58c38.58-6.29 73.19-27.74 96.42-62.08z"/>
		<path id="&lt;Compound Path&gt;" class="s5" d="m778.94 715.44c-0.53 0-1.04-0.2-1.44-0.56l-50.23-46.58-55.97-52.09q-0.09-0.09-0.17-0.18c-0.75-0.89-18.53-22.12-18.51-44.39-0.28-12.16 2.7-27.09 5.33-40.27 1.99-10.01 3.72-18.65 3.22-22.6-0.41-3.34-2.58-10.62-4.87-18.33-4.37-14.73-9.33-31.41-7.92-38.18 1.76-8.48 7.94-17.04 17.79-17.04 4.71 0 9.79 2 15.12 5.93 14.03 10.37 25.87 35.1 30.69 46.25 5.14-17.38 14.13-49.7 13.56-56.89-0.14-2.89-3.13-9.28-6.3-16.05-7.43-15.88-17.61-37.63-9.16-49.26 3.85-5.28 9.23-8.07 15.54-8.07 10.15 0 20.95 7.24 25.05 14.21 0.15 0.02 0.4 0.02 0.52 0.01 0.34-0.06 1.11-0.16 2.32-0.16 3.5 0 10.98 0.89 21.69 6.8 14.53 8.03 33.11 34.69 34.69 36.96 1.45 1.61 16.22 18.08 23.03 27.42 3.17 3.12 44.66 44.76 38.2 79.97-2.63 15.01-9.53 34.95-19.45 56.25l33.77 35.52c0.32 0.34 0.52 0.77 0.57 1.24 1.29 12.08-1.76 24.86-8.81 36.96-23.14 34.21-57.89 56.58-97.91 63.11q-0.18 0.02-0.35 0.02zm-104.64-102.24l9.49 8.89 46.37 43.1 49.46 45.86c38.43-6.54 71.78-28.18 93.98-61 6.39-10.96 9.26-22.58 8.25-33.54l-34.26-36.04c-0.6-0.64-0.76-1.58-0.38-2.37 10.09-21.47 17.1-41.54 19.73-56.51 6.17-33.61-36.68-75.89-37.11-76.31q-0.13-0.12-0.24-0.27c-6.83-9.41-22.79-27.14-22.95-27.32q-0.1-0.1-0.18-0.22c-0.19-0.27-19.34-28.04-33.31-35.76-9.88-5.46-16.55-6.27-19.64-6.27-1.08 0-1.64 0.1-1.65 0.1-0.06 0.02-0.15 0.03-0.21 0.04 0 0-0.29 0.02-0.69 0.02q-2.66 0-3.64-1.56c-2.88-5.36-12.47-12.67-21.7-12.67-4.97 0-9.04 2.13-12.1 6.33-6.98 9.6 2.58 30.04 9.57 44.96 3.64 7.78 6.51 13.92 6.69 17.58 0.83 10.48-14.78 61.93-15.45 64.11-0.26 0.87-1.05 1.47-1.95 1.51-0.9 0.06-1.74-0.51-2.06-1.36-0.14-0.37-14.54-37.37-31.56-49.93-4.57-3.38-8.81-5.1-12.59-5.1-8.52 0-12.58 8.58-13.63 13.65-1.19 5.72 4.03 23.28 7.84 36.11 2.44 8.22 4.55 15.32 5.01 19.01 0.58 4.63-1.12 13.16-3.28 23.96-2.46 12.32-5.52 27.65-5.24 39.39-0.02 20.09 16.2 40.12 17.43 41.61z"/>
		<path id="&lt;Path&gt;" class="s5" d="m834.71 447.62l-0.32-0.19c-16.6-8.41-28.75-7.43-34.56 2.77-5.41 9.55 2.34 25.86 13.27 37 10.28 10.74 13.06 12 13.38 12.2 0.32 0.2 0.84 0.08 0.72-0.45 0.2-0.32 0.07-0.84-0.45-0.71 0 0-2.78-1.26-12.41-11.61-9.96-10.55-17.92-26.53-12.89-35.44 5.41-9.55 16.84-10.09 32.47-2.28 0.32 0.2 0.84 0.08 1.04-0.25 0.07-0.84-0.25-1.04-0.25-1.04z"/>
		<path id="&lt;Path&gt;" class="s7" d="m826.8 500.55q-0.47 0-0.87-0.24c-2.46-1.38-7.28-5.77-13.6-12.38-11.05-11.27-19.22-28.03-13.42-38.25 3.35-5.87 8.87-8.98 15.97-8.98 5.7 0 12.42 1.95 19.99 5.78l0.4 0.24c0.2 0.12 0.87 0.65 0.75 2.04q-0.02 0.25-0.15 0.46c-0.33 0.53-0.93 0.85-1.59 0.85q-0.5 0-0.91-0.25c-14.99-7.49-25.97-6.97-31 1.9-4.74 8.41 3.02 23.89 12.74 34.18 7.93 8.51 11.1 10.77 11.89 11.26 0.49 0.03 0.92 0.3 1.16 0.72 0.2 0.37 0.24 0.82 0.12 1.23q-0.01 0.5-0.31 0.89c-0.27 0.35-0.7 0.55-1.17 0.55z"/>
		<path id="&lt;Path&gt;" class="s5" d="m820.45 492.59c-0.13-0.52-0.65-0.39-1.17-0.27-3.72 1.72-14.27 25.43-15.53 28.21-0.2 0.33-0.07 0.85 0.25 1.04 0.32 0.2 0.84 0.08 1.04-0.25 4.45-10.14 12.66-26.42 14.81-27.76q0.78-0.19 0.6-0.97z"/>
		<path id="&lt;Path&gt;" class="s7" d="m804.36 522.73q-0.5 0-0.91-0.25c-0.83-0.51-1.11-1.68-0.61-2.5l0.18-0.42c7.91-17.52 13.23-27.01 15.82-28.2 0.46-0.14 0.77-0.21 1.09-0.21 0.78 0 1.37 0.46 1.55 1.19 0.16 0.68-0.01 1.16-0.18 1.44-0.16 0.25-0.45 0.57-0.98 0.75-1.78 1.46-9.15 15.45-14.31 27.22-0.39 0.65-0.99 0.98-1.65 0.98z"/>
		<path id="&lt;Path&gt;" class="s5" d="m807.69 416.4c-0.77-0.92-19.13-14.41-31.87-12.45-3.45 0.55-6.32 2.34-8.42 5.04-10.99 15.02-1.42 31.99 4.76 37.11 6.18 5.12 16.89 24.57 18.48 27.77-2.32 5.23-9.54 19.89-9.04 21.97q0.19 0.79 0.97 0.6 0.78-0.19 0.59-0.97c-0.05-1.36 4.79-12.15 9.17-21.46 0.2-0.32 0.2-0.32 0.07-0.84-0.44-0.72-12.3-22.64-18.93-28.49-5.86-4.92-14.86-20.65-4.59-35.22 1.91-2.38 4.26-4.05 7.19-4.47 12.22-1.83 30.06 11.78 30.39 11.98 0.32 0.2 0.84 0.07 1.04-0.25 0.32 0.2 0.32 0.2 0.19-0.32z"/>
		<path id="&lt;Path&gt;" class="s7" d="m782.29 497.54c-0.85 0-1.51-0.56-1.72-1.45-0.41-1.69 1.95-7.22 7.05-18.19 0.72-1.55 1.36-2.93 1.85-4.01-2.55-4.97-12.44-22.38-17.99-26.97-7.2-5.97-16.03-23.4-4.94-38.55 2.33-3.01 5.48-4.89 9.11-5.47q1.35-0.21 2.81-0.21c12.96 0 29.39 12.24 30.05 13.02q0.16 0.19 0.22 0.44c0.1 0.44 0.21 0.9-0.14 1.34-0.2 0.25-0.53 0.41-0.85 0.41q-0.01 0-0.02 0c-0.55 0.29-1.29 0.3-1.82-0.02q-0.04-0.03-0.28-0.2c-3.8-2.77-17-11.8-27.19-11.8q-1.15 0-2.21 0.16c-2.43 0.35-4.62 1.73-6.51 4.08-9.92 14.09-1.11 29.08 4.44 33.75 4 3.52 10.45 13.17 18.69 27.92q0.39 0.69 0.47 0.82 0.08 0.15 0.13 0.31c0.16 0.69 0.19 1.01-0.2 1.64-5.99 12.75-8.83 19.62-9.01 20.84 0.1 0.58-0.06 1-0.22 1.26-0.17 0.28-0.52 0.65-1.2 0.81q-0.27 0.07-0.52 0.07z"/>
		<path id="&lt;Path&gt;" class="s5" d="m749.22 375.65c0 0-0.32-0.2 0 0-0.12-0.52-0.64-0.4-1.16-0.28-4.63 2.49-8.72 8.42-10.54 15.74-1.97 9-0.05 18.17 5.14 24.91 9.74 13.07 12.78 21.15 13.47 22.91l-9.66 25.16c-0.19 0.32-0.07 0.84 0.25 1.04 0.33 0.19 0.85 0.07 1.04-0.25l9.86-25.48c0 0 0.2-0.32-0.12-0.52-0.13-0.52-2.65-8.72-13.6-23.43-5.19-6.74-6.99-15.39-4.89-23.87 1.43-6.67 5.31-12.28 9.42-14.64 0.72-0.45 0.6-0.97 0.79-1.29z"/>
		<path id="&lt;Path&gt;" class="s7" d="m747.09 466.28q-0.51 0-0.93-0.25c-0.38-0.24-0.67-0.65-0.79-1.13-0.11-0.48-0.04-0.98 0.2-1.37l9.42-24.59c-3.32-8.25-8.97-16.64-13.18-22.29-5.43-7.04-7.37-16.44-5.33-25.77 1.87-7.49 6.11-13.78 11.08-16.44q0.12-0.07 0.25-0.1c0.27-0.06 0.58-0.14 0.9-0.14 0.62 0 1.13 0.3 1.39 0.79q0.22 0.28 0.23 0.66-0.01 0.37-0.22 0.65c-0.11 0.42-0.32 1.04-1.11 1.54-4.08 2.34-7.67 7.94-8.95 13.96-2.02 8.15-0.3 16.52 4.69 23 10.69 14.35 13.38 22.47 13.74 23.67 0.17 0.28 0.28 0.61 0.26 0.84-0.02 0.16-0.13 0.51-0.21 0.65l-9.78 25.3c-0.4 0.7-1.01 1.02-1.66 1.02z"/>
		<path id="&lt;Path&gt;" class="s5" d="m794.41 545.88c-0.12-0.52-0.96-0.59-1.16-0.27-16.8 11.46-23.43 33.13-25.99 48.88-3.03 17.24-1.74 31.79-1.94 32.11q0.19 0.78 0.97 0.59 0.78-0.18 0.59-0.96c-0.12-0.52-3.97-57.94 27.14-79.7 0.32 0.2 0.52-0.13 0.39-0.65z"/>
		<path id="&lt;Path&gt;" class="s7" d="m766.01 628.29c-0.85 0-1.51-0.55-1.72-1.44q-0.06-0.23-0.01-0.46 0.01-0.34-0.03-1.49c-0.13-4.54-0.49-16.61 1.96-30.59 2.62-16.14 9.32-37.82 26.32-49.49 0.29-0.29 0.71-0.46 1.17-0.46 0.85 0 1.57 0.52 1.75 1.28 0.14 0.59 0.05 1.14-0.25 1.52-0.19 0.24-0.6 0.45-0.92 0.49-30.05 21.47-26.41 77.87-26.35 78.42 0.25 0.99-0.31 1.9-1.39 2.16q-0.28 0.06-0.53 0.06z"/>
		<path id="&lt;Path&gt;" class="s5" d="m313.78 798.24q-0.47 0-0.91-0.21c-1.06-0.5-1.51-1.77-1.01-2.82 0.38-0.79 9.29-19.38 16.79-25.01q1.6-1.19 3.12-2.21c5.59-3.87 9.29-6.42 8.6-17.49-0.86-13.69-15.71-39.17-15.86-39.43-0.6-1.01-0.26-2.31 0.76-2.91 1.01-0.59 2.31-0.25 2.9 0.76 0.64 1.08 15.52 26.62 16.44 41.31 0.84 13.48-4.38 17.08-10.43 21.25q-1.45 0.98-2.98 2.12c-6.67 5-15.41 23.25-15.5 23.43-0.37 0.77-1.13 1.21-1.92 1.21z"/>
		<path id="&lt;Path&gt;" class="s5" d="m95.79 684.31c-0.57 0-1.14-0.23-1.56-0.68-0.8-0.86-0.75-2.2 0.11-3 4.21-3.91 14.08-11.51 25.5-20.32 21.03-16.2 52.81-40.7 55.6-47.96 4.75-12.35 27.92-28.02 39.21-30.47 11.38-2.46 23.9 10.83 24.43 11.39 0.8 0.86 0.75 2.2-0.1 3.01-0.86 0.8-2.21 0.75-3.01-0.11-0.11-0.12-11.41-12.12-20.42-10.14-9.95 2.16-31.99 17.03-36.14 27.84-2.99 7.76-26.52 26.33-56.98 49.81-11.34 8.74-21.13 16.29-25.2 20.06-0.41 0.38-0.93 0.57-1.44 0.57z"/>
		<path id="&lt;Path&gt;" class="s5" d="m538.05 261.16q-0.62 0-1.18-0.36c-1.43-0.96-8.61-5.99-9.04-11.17-0.19-2.32 0.94-5.99 2.96-12.27 1.95-6.05 4.38-13.59 5.15-20.2 0.14-1.17 1.2-2.02 2.36-1.87 1.17 0.14 2 1.2 1.86 2.36-0.82 7.03-3.32 14.78-5.32 21.01-1.43 4.44-2.91 9.03-2.77 10.62 0.19 2.34 4.3 6.08 7.16 7.98 0.98 0.66 1.24 1.97 0.59 2.95-0.41 0.61-1.08 0.95-1.77 0.95z"/>
		<path id="&lt;Path&gt;" class="s5" d="m587.68 230.96c-4.11 0-7.43-5.11-7.43-11.42 0-6.31 3.32-11.42 7.43-11.42 4.11 0 7.44 5.11 7.44 11.42 0 6.31-3.33 11.42-7.44 11.42z"/>
		<path id="&lt;Path&gt;" class="s5" d="m498.47 230.96c-4.11 0-7.43-5.11-7.43-11.42 0-6.31 3.32-11.42 7.43-11.42 4.12 0 7.44 5.11 7.44 11.42 0 6.31-3.32 11.42-7.44 11.42z"/>
		<path id="&lt;Path&gt;" class="s5" d="m548.7 290.31c-10.49 0-18.83-2.58-19.01-2.64-1.12-0.35-1.73-1.55-1.38-2.66 0.36-1.12 1.55-1.74 2.67-1.38 0.35 0.1 35.22 10.84 49.57-13.4 0.59-1.01 1.9-1.34 2.9-0.74 1.01 0.59 1.35 1.9 0.75 2.91-8.59 14.51-23.46 17.91-35.5 17.91z"/>
		<path id="&lt;Path&gt;" class="s5" d="m586.26 275.21q-0.63 0-1.19-0.37l-7.79-5.31c-0.97-0.66-1.22-1.99-0.56-2.95 0.66-0.97 1.99-1.22 2.96-0.56l7.78 5.31c0.97 0.66 1.22 1.98 0.56 2.95-0.41 0.6-1.08 0.93-1.76 0.93z"/>
		<path id="&lt;Path&gt;" class="s4" d="m450.06 102.02c-2.83-3.48-3.37-8.65-1.32-12.64 0.96-1.88 2.42-3.45 3.93-4.94 3.84-3.78 8.23-7.17 13.33-8.95 5.34-1.86 12.67-0.97 14.7 4.31 1.24 3.21 0.03 6.86 0.74 10.22 1.22 5.84 7.49 8.88 12.93 11.31 5.44 2.44 11.54 6.21 11.78 12.16 0.2 4.97-3.86 8.95-7.59 12.23-5.54 4.87-11.44 9.92-18.66 11.41-7.23 1.49-16.06-2.07-17.69-9.27-1.13-5.01 1.37-10.56-0.74-15.24-2.14-4.79-8.1-6.54-11.41-10.6z"/>
		<path id="&lt;Path&gt;" class="s4" d="m613.16 125.68c-4.25-3.57-8.36-7.6-10.47-12.73-2.11-5.12-1.78-11.61 2.12-15.56 4.54-4.62 12.02-4.36 18.37-3.05 6.35 1.3 13.04 3.31 19.14 1.13 6.55-2.34 10.76-8.98 17.18-11.67 3.74 4.6 7.5 9.48 8.77 15.27 1.26 5.8-0.74 12.74-6.07 15.34-5.56 2.72-12.55-0.04-18.23 2.41-6.93 2.98-9.7 12.68-17.06 14.28-5 1.09-9.84-2.13-13.75-5.42z"/>
		<path id="&lt;Path&gt;" class="s4" d="m169.37 994.09l91.84 9.45c5.14 0.53 11.22-1.68 13.59-4.93l63.81-87.78c2.37-3.26 0.12-6.33-5.01-6.85l-91.85-9.46c-5.14-0.52-11.22 1.69-13.58 4.94l-63.82 87.78c-2.37 3.25-0.12 6.32 5.02 6.85z"/>
		<path id="&lt;Compound Path&gt;" class="s5" d="m262.77 1005.74q0 0 0 0-0.9 0-1.77-0.09l-91.85-9.45c-3.66-0.38-6.36-1.93-7.41-4.27-0.84-1.88-0.52-3.99 0.89-5.94l63.82-87.78c2.79-3.84 9.5-6.42 15.52-5.8l91.84 9.45c3.67 0.38 6.37 1.94 7.41 4.28 0.84 1.88 0.53 3.99-0.89 5.93l-63.81 87.78c-2.52 3.47-8.18 5.89-13.75 5.89zm-22.58-109.17c-4.09 0-8.62 1.82-10.31 4.14l-63.81 87.78c-0.34 0.47-0.7 1.15-0.45 1.7 0.3 0.67 1.51 1.53 3.96 1.78l91.85 9.46q0.66 0.07 1.34 0.07c4.1 0 8.62-1.82 10.31-4.14l63.81-87.78c0.35-0.47 0.7-1.15 0.45-1.71-0.29-0.66-1.51-1.53-3.96-1.78l-91.85-9.45q-0.66-0.07-1.34-0.07z"/>
		<path id="&lt;Path&gt;" class="s5" d="m249.08 949.29c4.52-2.81 10.1-5.51 15.93-6.02 7.5-0.67 12.98 2.8 13.03 7.04 0.04 4.23-4.34 8.87-10.07 12.53-5.73 3.67-12.73 6.53-19.63 9.34q-6.74 2.75-13.49 5.49c-0.99 0.41-2.03 0.83-3.12 0.99-2.24 0.34-3.96-0.48-5.19-1.34-4.94-3.45-7.05-8.18-8.27-12.99-0.94-3.7-1.38-7.65 1.01-11.66 2.4-4.01 8.28-8.08 15.19-9.23 6.59-1.09 12.79 1.03 13.48 4.61"/>
		<path id="&lt;Path&gt;" class="s5" d="m262.69 936.48c-2.57 2.14-4.54 4.68-8.28 6.1 0.71-4.77 0.4-9.43-0.91-13.84 7.02 0.01 13.7 0.75 19.68 2.15-4.08 1.35-7.77 3.32-10.49 5.59z"/>
		<path id="&lt;Path&gt;" class="s4" d="m249.46 1029.93l91.84 9.45c5.14 0.53 11.22-1.68 13.59-4.93l63.81-87.78c2.37-3.26 0.12-6.33-5.01-6.85l-91.85-9.46c-5.14-0.52-11.22 1.69-13.58 4.94l-63.82 87.78c-2.37 3.25-0.12 6.32 5.02 6.85z"/>
		<path id="&lt;Compound Path&gt;" class="s5" d="m342.86 1041.58q-0.9 0-1.77-0.09l-91.85-9.45c-3.67-0.38-6.37-1.94-7.41-4.27-0.84-1.89-0.52-3.99 0.89-5.94l63.82-87.78c2.79-3.84 9.5-6.43 15.51-5.8l91.85 9.45c3.67 0.38 6.37 1.94 7.41 4.28 0.84 1.88 0.52 3.99-0.89 5.93l-63.82 87.78c-2.52 3.47-8.17 5.89-13.74 5.89zm-22.58-109.17c-4.09 0-8.62 1.82-10.31 4.14l-63.81 87.78c-0.34 0.47-0.7 1.15-0.45 1.7 0.29 0.67 1.51 1.53 3.96 1.79l91.85 9.45c4.42 0.46 9.77-1.5 11.65-4.07l63.81-87.78c0.35-0.47 0.7-1.15 0.45-1.71-0.29-0.66-1.51-1.53-3.96-1.78l-91.85-9.45q-0.66-0.07-1.34-0.07z"/>
		<path id="&lt;Path&gt;" class="s3" d="m277.71 1019.09c-2.38 1.66-5.37 3.28-8.67 3.71-4.25 0.56-7.64-1.21-7.98-3.54-0.35-2.32 1.82-4.98 4.83-7.14 3.01-2.16 6.81-3.91 10.55-5.63q3.66-1.68 7.31-3.36c0.54-0.24 1.11-0.5 1.72-0.62 1.26-0.24 2.3 0.17 3.07 0.61 3.09 1.77 4.64 4.32 5.7 6.93 0.81 2.01 1.36 4.17 0.29 6.43-1.08 2.27-4.15 4.65-8.01 5.46-3.7 0.76-7.41-0.25-8.07-2.19"/>
		<path id="&lt;Path&gt;" class="s3" d="m321.42 958.97c-2.38 1.66-5.37 3.28-8.67 3.71-4.25 0.55-7.64-1.21-7.98-3.54-0.35-2.33 1.82-4.99 4.83-7.14 3.01-2.16 6.81-3.91 10.55-5.63q3.66-1.68 7.31-3.36c0.54-0.25 1.1-0.5 1.72-0.62 1.26-0.24 2.3 0.17 3.07 0.61 3.08 1.77 4.64 4.31 5.7 6.93 0.81 2 1.36 4.16 0.29 6.43-1.08 2.26-4.15 4.65-8.01 5.45-3.7 0.77-7.41-0.24-8.07-2.19"/>
		<path id="&lt;Path&gt;" class="s3" d="m379.11 964.9c-2.38 1.66-5.37 3.28-8.67 3.72-4.25 0.55-7.64-1.22-7.98-3.54-0.35-2.33 1.82-4.99 4.83-7.15 3.01-2.15 6.81-3.91 10.55-5.62q3.66-1.68 7.31-3.36c0.54-0.25 1.1-0.51 1.72-0.62 1.26-0.24 2.3 0.16 3.07 0.6 3.08 1.77 4.64 4.32 5.7 6.93 0.81 2.01 1.36 4.17 0.29 6.43-1.08 2.27-4.15 4.66-8.01 5.46-3.7 0.76-7.41-0.24-8.07-2.19"/>
		<path id="&lt;Path&gt;" class="s3" d="m335.75 1024.55c-2.38 1.66-5.37 3.28-8.67 3.71-4.25 0.55-7.64-1.21-7.98-3.54-0.35-2.33 1.82-4.99 4.83-7.15 3.01-2.15 6.81-3.9 10.55-5.62q3.66-1.68 7.31-3.36c0.54-0.25 1.11-0.5 1.72-0.62 1.26-0.24 2.3 0.16 3.07 0.61 3.09 1.77 4.64 4.31 5.7 6.92 0.81 2.01 1.36 4.17 0.29 6.44-1.08 2.26-4.15 4.65-8.01 5.45-3.7 0.77-7.41-0.24-8.07-2.19"/>
		<path id="&lt;Path&gt;" class="s4" d="m406.27 1009.33l91.85 9.45c5.13 0.53 11.22-1.68 13.58-4.94l63.82-87.78c2.36-3.25 0.12-6.32-5.02-6.85l-91.85-9.45c-5.13-0.53-11.21 1.68-13.58 4.94l-63.82 87.78c-2.36 3.25-0.12 6.32 5.02 6.85z"/>
		<path id="&lt;Compound Path&gt;" class="s5" d="m499.68 1020.98q-0.9 0-1.78-0.09l-91.85-9.45c-3.66-0.38-6.36-1.94-7.41-4.28-0.83-1.88-0.52-3.99 0.9-5.93l63.81-87.78c2.79-3.84 9.51-6.44 15.52-5.8l91.85 9.45c3.66 0.38 6.36 1.94 7.41 4.28 0.84 1.88 0.52 3.98-0.9 5.93l-63.81 87.78c-2.52 3.47-8.17 5.89-13.74 5.89zm-22.59-109.17c-4.09 0-8.61 1.81-10.3 4.13l-63.82 87.79c-0.34 0.47-0.69 1.14-0.45 1.7 0.3 0.67 1.52 1.53 3.97 1.78l91.85 9.45c4.41 0.47 9.77-1.49 11.64-4.07l63.82-87.78c0.34-0.47 0.7-1.15 0.45-1.7-0.3-0.67-1.51-1.53-3.97-1.78l-91.85-9.46q-0.66-0.06-1.34-0.06z"/>
		<path id="&lt;Path&gt;" class="s3" d="m446.55 987.39c0.39-6.37-0.2-12.81-1.72-19.01-5.9 4.54-11.29 9.75-16.04 15.48-0.8 0.95-1.6 1.99-1.81 3.21-0.31 1.8 0.7 3.52 1.57 5.12 1.87 3.42 3.28 7.1 4.17 10.9 1.21-0.16 2.15-1.1 2.99-1.99q4.54-4.81 9.08-9.62c0.49-0.51 0.98-1.04 1.28-1.67 0.36-0.75 0.43-1.59 0.48-2.42z"/>
		<path id="&lt;Path&gt;" class="s3" d="m543.27 942.75c0.39-6.37-0.19-12.81-1.72-19.01-5.89 4.54-11.28 9.75-16.04 15.48-0.79 0.95-1.6 1.99-1.81 3.21-0.31 1.8 0.7 3.52 1.57 5.12 1.87 3.42 3.28 7.1 4.17 10.9 1.21-0.16 2.15-1.1 2.99-1.99q4.54-4.81 9.09-9.62c0.48-0.51 0.97-1.04 1.28-1.67 0.35-0.75 0.42-1.59 0.47-2.42z"/>
		<path id="&lt;Path&gt;" class="s8" d="m671.52 518.21c4.43-6.74 12.77-10.68 20.78-9.81 8.01 0.87 15.32 6.5 18.2 14.02 1.08 2.81 1.58 5.85 2.95 8.52 5.17 10.07 19.57 10.83 27.66 18.73 3.32 3.24 5.42 7.56 6.72 12.01 4.06 13.94 0.47 29.73-8.75 40.95-9.22 11.21-23.69 17.75-38.21 17.89-5.88 0.06-11.94-0.94-16.89-4.11-5.45-3.49-9.04-9.27-11.58-15.22-8.03-18.83-7.12-40.09-6.07-60.52 0.39-7.77 0.92-15.96 5.19-22.46z"/>
		<path id="&lt;Path&gt;" class="s8" d="m387.87 651.46c10.21-6.73 13.4-20.1 14.88-32.23 2.22-18.18 2.48-36.83-1.96-54.6-4.43-17.77-13.86-34.68-28.39-45.82-1.35-1.03-2.8-2.04-4.48-2.29-2.18-0.32-4.31 0.7-6.27 1.69-3.87 1.95-7.78 3.95-10.92 6.93-7.42 7.08-9.06 18.4-8.02 28.6 1.04 10.21 4.29 20.13 4.88 30.37 1.08 18.51-6.54 36.6-6.19 55.14 0.04 1.9 0.19 3.9 1.24 5.49 1 1.51 2.67 2.42 4.28 3.26 12.79 6.59 28.94 11.38 40.95 3.46z"/>
		<path id="&lt;Path&gt;" class="s2" d="m532.49 922.56c-88.72 0-160.45-22.88-160.45-51.17 0-28.3 71.73-51.17 160.45-51.17 88.73 0 160.46 22.87 160.46 51.17 0 28.29-71.73 51.17-160.46 51.17z"/>
		<path id="&lt;Compound Path&gt;" class="s5" d="m532.5 924.68c-91.17 0-162.58-23.41-162.58-53.29 0-29.89 71.41-53.3 162.58-53.3 91.16 0 162.57 23.41 162.57 53.3 0 29.88-71.41 53.29-162.57 53.29zm0-102.34c-85.83 0-158.33 22.46-158.33 49.05 0 26.58 72.5 49.04 158.33 49.04 85.82 0 158.32-22.46 158.32-49.04 0-26.59-72.5-49.05-158.32-49.05z"/>
		<path id="&lt;Path&gt;" class="s9" d="m667.62 841.27c-11.32-18.78-37.94-69.03-33.72-120.46l-99.27 1.74-99.28-1.74c4.22 51.43-22.4 101.68-33.72 120.46-3.98 4.13-6.13 8.51-6.13 13.06 0 24.51 62.29 44.37 139.13 44.37 76.84 0 139.13-19.86 139.13-44.37 0-4.55-2.15-8.93-6.14-13.06z"/>
		<path id="&lt;Compound Path&gt;" class="s5" d="m534.63 900.82c-79.21 0-141.26-20.42-141.26-46.49 0-4.96 2.21-9.79 6.56-14.36 11.5-19.11 37.44-68.51 33.31-118.98-0.05-0.6 0.15-1.19 0.56-1.63 0.42-0.44 1.03-0.68 1.59-0.67l99.27 1.74 99.2-1.74c0.62-0.03 1.18 0.23 1.59 0.67 0.41 0.44 0.62 1.03 0.57 1.63-4.14 50.47 21.8 99.87 33.3 118.98 4.35 4.57 6.56 9.4 6.56 14.36 0 26.07-62.04 46.49-141.25 46.49zm-96.99-177.84c3.29 51.06-22.72 100.36-34.19 119.38q-0.12 0.21-0.29 0.38c-3.68 3.81-5.54 7.71-5.54 11.59 0 22.9 62.74 42.25 137.01 42.25 74.26 0 137-19.35 137-42.25 0-3.88-1.86-7.78-5.54-11.59q-0.16-0.17-0.29-0.38c-11.47-19.02-37.47-68.32-34.19-119.38l-96.95 1.7z"/>
		<path id="&lt;Path&gt;" class="s2" d="m532.63 771.98c-65.44 0-118.33-22.04-118.33-49.3 0-27.27 52.89-49.31 118.33-49.31 65.43 0 118.33 22.04 118.33 49.31 0 27.26-52.9 49.3-118.33 49.3z"/>
		<path id="&lt;Compound Path&gt;" class="s5" d="m532.63 774.11c-66.61 0-120.45-22.99-120.45-51.43 0-28.44 53.84-51.43 120.45-51.43 66.61 0 120.45 22.99 120.45 51.43 0 28.44-53.84 51.43-120.45 51.43zm0-4.25c-64.26 0-116.21-21.09-116.21-47.18 0-26.09 51.95-47.18 116.21-47.18 64.26 0 116.2 21.09 116.2 47.18 0 26.09-51.94 47.18-116.2 47.18z"/>
		<path id="&lt;Path&gt;" class="s10" d="m532.49 755.99c-89.9 0-162.56-72.67-162.56-162.57 0-89.9 72.66-162.56 162.56-162.56 89.9 0 162.57 72.66 162.57 162.56 0 89.9-72.67 162.57-162.57 162.57z"/>
		<path id="&lt;Compound Path&gt;" class="s5" d="m532.5 758.12c-91.08 0-164.7-73.62-164.7-164.7 0-91.07 73.62-164.69 164.7-164.69 91.07 0 164.69 73.62 164.69 164.69 0 91.08-73.62 164.7-164.69 164.7zm0-4.25c-88.73 0-160.45-71.72-160.45-160.45 0-88.72 71.72-160.44 160.45-160.44 88.72 0 160.44 71.72 160.44 160.44 0 88.73-71.72 160.45-160.44 160.45z"/>
		<path id="&lt;Path&gt;" class="s4" d="m468.05 480.36c-2.37-7.73 4.59-16.42 12.66-16.78 2.29-0.1 4.6 0.33 6.85-0.07 2.62-0.47 4.9-2 7.26-3.23 4.58-2.39 9.65-3.69 14.73-4.66 5.42-1.03 11.01-1.71 16.44-0.69 5.42 1.01 10.7 3.96 13.44 8.75 0.82 1.43 1.4 3.09 1.12 4.72-0.73 4.29-6.3 5.39-10.65 5.51-14.47 0.41-29.48 1.14-42.31 7.84-2.74 1.44-5.39 3.15-8.38 3.98-2.98 0.83-6.48 0.63-8.79-1.43-1.16-1.04-1.92-2.46-2.37-3.94z"/>
		<path id="&lt;Path&gt;" class="s4" d="m501.25 731.19c-8.14-0.59-15.65-4.6-22.27-9.36-5.33-3.83-10.72-9.25-10.18-15.79 0.37-4.35 3.49-8.16 7.36-10.2 3.87-2.03 8.39-2.51 12.76-2.31 18.63 0.84 35.6 13.15 54.23 12.42 24.2-0.95 43.7-23.52 67.92-23.75 1.57-0.01 3.21 0.09 4.54 0.92 1.03 0.65 1.76 1.67 2.34 2.75 3.2 6 1.66 13.74-2.44 19.16-4.1 5.43-10.34 8.86-16.72 11.21-22.84 8.38-48.4 4.5-72.04 10.23-8.44 2.05-16.83 5.34-25.5 4.72z"/>
		<path id="&lt;Path&gt;" class="s4" d="m611 476.13c0.91 1.41 1.66 3.06 1.42 4.72-0.47 3.15-4.07 4.68-7.19 5.29-11.75 2.31-24.39-0.32-34.24-7.12-3.3-2.28-6.61-6.03-5.36-9.84 1.06-3.22 4.82-4.61 8.17-5.16 5.64-0.93 11.44-0.71 17.06 0.36 7.85 1.5 15.82 5.03 20.14 11.75z"/>
		<path id="&lt;Path&gt;" class="s3" d="m618.21 563.98c-14.41-46.86-64.07-73.16-110.92-58.76-46.86 14.41-73.16 64.07-58.76 110.92 14.41 46.86 64.07 73.16 110.92 58.76 46.86-14.41 73.16-64.07 58.76-110.92z"/>
		<path id="&lt;Compound Path&gt;" class="s5" d="m533.35 680.97q0 0-0.01 0c-40.13-0.01-75.03-25.81-86.84-64.2-7.13-23.2-4.8-47.8 6.56-69.25 11.36-21.45 30.4-37.19 53.6-44.33 8.72-2.67 17.71-4.03 26.74-4.03 40.14 0 75.03 25.8 86.84 64.19 14.72 47.9-12.26 98.85-60.16 113.58-8.71 2.68-17.71 4.04-26.73 4.04zm0.05-177.56c-8.61 0-17.18 1.29-25.49 3.85-22.12 6.8-40.26 21.8-51.09 42.25-10.84 20.45-13.06 43.89-6.25 66.01 11.25 36.6 44.51 61.19 82.77 61.2q0.01 0 0.01 0c8.6 0 17.17-1.3 25.48-3.85 45.66-14.04 71.39-62.61 57.35-108.27-11.26-36.6-44.52-61.19-82.78-61.19z"/>
		<path id="&lt;Path&gt;" class="s4" d="m596.09 570.78c-10.65-34.64-47.36-54.09-82-43.44-34.64 10.65-54.09 47.37-43.44 82 10.65 34.64 47.37 54.09 82 43.44 34.64-10.65 54.09-47.36 43.44-82z"/>
		<path id="&lt;Compound Path&gt;" class="s11" d="m533.35 657.82q0 0 0 0c-29.92 0-55.93-19.23-64.73-47.85-5.32-17.3-3.58-35.63 4.89-51.62 8.47-15.99 22.66-27.72 39.95-33.04 6.5-1.99 13.2-3.01 19.93-3.01 29.92 0 55.93 19.23 64.73 47.85 5.32 17.3 3.58 35.63-4.89 51.62-8.47 15.99-22.66 27.72-39.95 33.04-6.49 2-13.2 3.01-19.93 3.01zm0.04-131.27c-6.3 0-12.59 0.95-18.68 2.82-16.21 4.99-29.51 15.98-37.45 30.97-7.94 14.99-9.56 32.17-4.58 48.38 8.25 26.83 32.63 44.85 60.67 44.85q0 0 0 0c6.31 0 12.59-0.95 18.68-2.82 16.21-4.98 29.51-15.98 37.45-30.97 7.94-14.98 9.56-32.17 4.58-48.38-8.25-26.82-32.63-44.85-60.67-44.85z"/>
		<path id="&lt;Path&gt;" class="s3" d="m578.27 576.26c-7.63-24.8-33.91-38.72-58.7-31.09-24.8 7.62-38.72 33.9-31.09 58.69 7.62 24.8 33.9 38.72 58.69 31.1 24.8-7.63 38.72-33.91 31.1-58.7z"/>
		<path id="&lt;Compound Path&gt;" class="s5" d="m533.36 639.17q0 0 0 0c-21.69-0.01-40.54-13.94-46.91-34.68-7.96-25.87 6.62-53.4 32.49-61.35 4.71-1.45 9.57-2.18 14.45-2.18 21.68 0 40.53 13.93 46.91 34.67 3.85 12.54 2.59 25.82-3.55 37.41-6.13 11.59-16.42 20.09-28.95 23.95-4.71 1.44-9.57 2.18-14.44 2.18zm0.03-93.97c-4.46 0-8.9 0.67-13.2 2-23.63 7.26-36.95 32.41-29.68 56.04 5.82 18.95 23.04 31.68 42.85 31.68q0 0 0 0c4.45 0 8.89-0.67 13.19-2 11.45-3.52 20.84-11.28 26.45-21.87 5.61-10.58 6.76-22.72 3.24-34.17-5.83-18.94-23.05-31.68-42.85-31.68z"/>
		<path id="&lt;Path&gt;" class="s4" d="m561.35 581.46c-4.75-15.45-21.13-24.13-36.58-19.37-15.45 4.75-24.13 21.12-19.38 36.57 4.76 15.45 21.13 24.13 36.58 19.38 15.45-4.75 24.13-21.13 19.38-36.58z"/>
		<path id="&lt;Compound Path&gt;" class="s11" d="m533.36 621.46q0 0 0 0c-13.86 0-25.92-8.91-30-22.17-2.46-8.02-1.66-16.51 2.27-23.92 3.93-7.41 10.5-12.85 18.52-15.31 3-0.93 6.11-1.4 9.23-1.4 13.87 0 25.92 8.91 30 22.18 5.08 16.54-4.24 34.14-20.78 39.23-3.01 0.92-6.12 1.39-9.24 1.39zm0.02-58.55c-2.69 0-5.38 0.41-7.99 1.21-6.93 2.13-12.61 6.83-16.01 13.24-3.39 6.4-4.09 13.75-1.95 20.68 3.52 11.47 13.94 19.17 25.93 19.17q0 0 0 0c2.7 0 5.38-0.4 7.99-1.2 14.3-4.4 22.37-19.62 17.97-33.92-3.53-11.48-13.95-19.18-25.94-19.18z"/>
		<path id="&lt;Path&gt;" class="s3" d="m547.32 585.77c-2.37-7.7-10.53-12.02-18.24-9.66-7.7 2.37-12.02 10.54-9.66 18.24 2.37 7.7 10.54 12.03 18.24 9.66 7.7-2.37 12.03-10.53 9.66-18.24z"/>
		<path id="&lt;Compound Path&gt;" class="s5" d="m533.37 606.78c-7.39 0-13.8-4.74-15.98-11.81-2.71-8.8 2.26-18.18 11.07-20.89q2.41-0.74 4.91-0.74c7.39 0 13.81 4.75 15.98 11.81 1.31 4.27 0.88 8.79-1.21 12.74-2.09 3.94-5.59 6.84-9.86 8.15q-2.41 0.74-4.91 0.74zm0-29.19q-1.86 0-3.66 0.55c-6.57 2.02-10.28 9.01-8.25 15.59 1.61 5.26 6.4 8.8 11.91 8.8q1.86 0 3.66-0.55c3.19-0.98 5.8-3.14 7.36-6.08 1.56-2.95 1.88-6.32 0.9-9.5-1.62-5.27-6.41-8.81-11.92-8.81z"/>
		<path id="&lt;Path&gt;" class="s9" d="m446.49 538.25l-3.22-15.33-24.89-15.78 7.08 21.63z"/>
		<path id="&lt;Compound Path&gt;" class="s5" d="m446.49 540.38q-0.45 0-0.87-0.19l-21.03-9.49c-0.54-0.24-0.96-0.71-1.14-1.27l-7.08-21.63c-0.28-0.85 0-1.79 0.71-2.34 0.71-0.55 1.69-0.59 2.44-0.11l24.89 15.77c0.48 0.31 0.82 0.8 0.94 1.36l3.22 15.34c0.16 0.78-0.13 1.59-0.75 2.09-0.38 0.31-0.85 0.47-1.33 0.47zm-19.3-13.17l16.36 7.39-2.18-10.37-19.13-12.13z"/>
		<path id="&lt;Path&gt;" class="s9" d="m446.55 538.02l-13.92 7.19-27.95-9.33 21.24-8.17z"/>
		<path id="&lt;Compound Path&gt;" class="s5" d="m432.63 547.33q-0.34 0-0.68-0.11l-27.94-9.33c-0.85-0.28-1.43-1.07-1.45-1.97-0.03-0.89 0.52-1.71 1.36-2.03l21.24-8.17c0.55-0.21 1.17-0.18 1.71 0.09l20.63 10.31c0.72 0.36 1.17 1.09 1.18 1.89 0 0.8-0.44 1.53-1.15 1.9l-13.93 7.19q-0.46 0.23-0.97 0.23zm-21.67-11.6l21.49 7.18 9.41-4.86-16.05-8.02z"/>
		<path id="&lt;Path&gt;" class="s5" d="m527.55 588.15c-0.48 0.11-1 0.05-1.47-0.21l-101.07-57.42c-0.98-0.56-1.33-1.81-0.77-2.79 0.56-0.98 1.81-1.32 2.79-0.77l101.07 57.42c0.99 0.56 1.33 1.8 0.77 2.79-0.29 0.51-0.78 0.86-1.32 0.98z"/>
		<path id="&lt;Path&gt;" class="s9" d="m535.74 591.72l-13.5-24.33-1.1 14.82-12.45 7.83z"/>
		<path id="&lt;Compound Path&gt;" class="s5" d="m535.74 593.84q-0.07 0-0.13 0l-27.05-1.68c-0.92-0.06-1.7-0.7-1.93-1.6-0.22-0.89 0.15-1.83 0.93-2.32l11.54-7.26 1.02-13.75c0.07-0.93 0.75-1.71 1.67-1.91 0.92-0.21 1.85 0.22 2.31 1.04l13.5 24.33c0.37 0.68 0.35 1.51-0.07 2.16-0.39 0.62-1.07 0.99-1.79 0.99zm-20.34-5.51l16.6 1.03-8.17-14.72-0.57 7.72c-0.05 0.68-0.42 1.29-0.99 1.64z"/>
		<path id="&lt;Path&gt;" class="s0" d="m205.09 1874.31c12.19-12.02 25.64-23.03 34.32-38.32 8.51-14.97 12.46-32.32 23.57-45.82 19.97-24.26 55.35-27.29 86.75-28.46 15.73-0.58 31.72-1.14 47 2.69 15.03 3.77 23.58 11.63 34.31 21.88 11.98 11.43 25.94 11.63 39.7 20.12 19.18 11.82 6.63 40.36 17.56 57.72 5.54 8.78 12.89 16.25 19.11 24.56 17.97 24.02 17.13 59.65 5.1 86.19-38.76 85.55-162.15 120.07-247.55 108.13-19.79-2.76-40.13-8.2-54.96-21.6-36.06-32.62-43.58-106.19-29.88-150.17 4.78-15.35 14.41-26.51 24.97-36.92z"/>
		<path id="&lt;Path&gt;" class="s1" d="m206.57 1829.58c4.09 15.03 19.59 23.9 34.62 19.81 15.03-4.08 23.88-19.58 19.79-34.61-1.05-3.88-2.88-7.37-5.26-10.31l-21.53 16.99-28.6 0.59c-0.03 2.48 0.29 5.02 0.98 7.53z"/>
		<path id="&lt;Path&gt;" class="s2" d="m199.5 1817.31l28.6-0.58-7.24-26.62c0-0.02-0.37 0.08-0.57 0.13-12.51 3.41-20.75 14.71-20.79 27.07z"/>
		<path id="&lt;Path&gt;" class="s3" d="m226.95 1794.84l7.24 26.62 21.53-16.99c-6.7-8.3-17.81-12.37-28.77-9.63z"/>
		<path id="&lt;Path&gt;" class="s4" d="m446.75 1776.64l5.5-1.74-5.5-1.88c-1.65-0.44-2.91-1.76-3.26-3.43l-1.75-8.27-1.88 8.09c-0.39 1.71-1.74 3.03-3.45 3.39l-5.19 1.79 5.01 1.76c1.75 0.41 3.09 1.82 3.41 3.59l1.45 8 2.1-8.01c0.45-1.69 1.83-2.97 3.56-3.29z"/>
		<path id="&lt;Compound Path&gt;" class="s5" d="m441.09 1788.79q-0.02 0-0.04-0.01c-0.4-0.01-0.73-0.3-0.8-0.69l-1.45-8c-0.26-1.44-1.34-2.58-2.77-2.91q-0.04-0.01-0.09-0.03l-5-1.76c-0.34-0.12-0.57-0.45-0.57-0.81 0.01-0.36 0.24-0.68 0.58-0.8l5.18-1.78q0.05-0.02 0.1-0.03c1.39-0.29 2.49-1.37 2.81-2.75l1.87-8.09c0.09-0.38 0.43-0.65 0.83-0.65q0 0 0.01 0c0.4 0 0.74 0.28 0.82 0.67l1.75 8.27c0.28 1.36 1.3 2.42 2.64 2.78l5.57 1.89c0.34 0.12 0.58 0.45 0.57 0.82 0 0.36-0.24 0.68-0.59 0.79l-5.51 1.75q-0.05 0.02-0.1 0.03c-1.39 0.25-2.53 1.3-2.89 2.67l-2.1 8c-0.1 0.38-0.44 0.64-0.82 0.64zm-4.63-13.26c2.07 0.5 3.64 2.17 4.02 4.26l0.76 4.23 1.13-4.31c0.52-1.98 2.16-3.5 4.17-3.89l3-0.95-3.07-1.05c-1.91-0.5-3.39-2.06-3.81-4.05l-0.96-4.52-1.01 4.35c-0.46 2.01-2.05 3.58-4.05 4.02l-2.84 0.98z"/>
		<path id="&lt;Path&gt;" class="s4" d="m202.05 1902.56l9.51-3.02-9.51-3.24c-2.85-0.75-5.03-3.04-5.64-5.92l-3.02-14.29-3.24 13.98c-0.68 2.95-3.01 5.23-5.97 5.86l-8.96 3.08 8.65 3.05c3.02 0.7 5.34 3.14 5.9 6.19l2.49 13.83 3.65-13.84c0.77-2.92 3.16-5.14 6.14-5.68z"/>
		<path id="&lt;Compound Path&gt;" class="s5" d="m192.26 1922.93q-0.01 0-0.03 0c-0.4-0.02-0.73-0.31-0.8-0.7l-2.5-13.82c-0.49-2.73-2.56-4.9-5.26-5.53q-0.04-0.01-0.09-0.02l-8.64-3.05c-0.34-0.12-0.57-0.45-0.57-0.81 0-0.36 0.23-0.68 0.58-0.8l8.95-3.08q0.05-0.01 0.1-0.03c2.63-0.55 4.72-2.6 5.32-5.21l3.25-13.98c0.09-0.39 0.43-0.66 0.82-0.66q0.01 0 0.01 0c0.4 0 0.74 0.28 0.82 0.67l3.02 14.29c0.55 2.58 2.47 4.6 5.02 5.27l9.58 3.27c0.34 0.12 0.57 0.45 0.57 0.81 0 0.37-0.24 0.69-0.59 0.8l-9.51 3.02q-0.06 0.02-0.11 0.03c-2.64 0.48-4.79 2.46-5.47 5.06l-3.64 13.83c-0.1 0.38-0.44 0.64-0.83 0.64zm-8.16-21.69c3.34 0.79 5.89 3.48 6.5 6.86l1.82 10.06 2.66-10.13c0.85-3.22 3.5-5.68 6.76-6.29l7.01-2.23-7.08-2.41c-3.11-0.82-5.51-3.33-6.19-6.55l-2.23-10.54-2.37 10.25c-0.75 3.24-3.33 5.78-6.57 6.48l-6.61 2.28z"/>
		<path id="&lt;Path&gt;" class="s5" d="m515.05 1895.31l7.4-2.35-7.4-2.52c-2.21-0.59-3.91-2.37-4.38-4.61l-2.35-11.11-2.52 10.87c-0.53 2.3-2.34 4.07-4.64 4.56l-6.97 2.4 6.72 2.37c2.36 0.54 4.16 2.44 4.59 4.82l1.94 10.75 2.84-10.76c0.6-2.28 2.46-4 4.77-4.42z"/>
		<path id="&lt;Path&gt;" class="s5" d="m278.2 1764.23l3.35-1.06-3.35-1.14c-1-0.27-1.77-1.07-1.99-2.09l-1.06-5.03-1.14 4.92c-0.24 1.04-1.06 1.85-2.11 2.07l-3.15 1.08 3.04 1.08c1.07 0.24 1.89 1.1 2.08 2.18l0.88 4.87 1.28-4.88c0.28-1.03 1.12-1.81 2.17-2z"/>
		<path id="&lt;Path&gt;" class="s1" d="m532.06 1851.61h-76.88c-3.22 0-5.78-2.6-5.78-5.79v-39.76c0-3.22 2.6-5.78 5.78-5.78h76.88c3.23 0 5.79 2.6 5.79 5.78v39.76c0.04 3.19-2.56 5.79-5.79 5.79z"/>
		<path id="&lt;Path&gt;" class="s3" d="m473.06 1837.67h-13.93v9.16h13.93z"/>
		<path id="&lt;Path&gt;" class="s3" d="m492.92 1830.16h-13.93v16.52h13.93z"/>
		<path id="&lt;Path&gt;" class="s3" d="m512.06 1820.35h-13.93v26.33h13.93z"/>
		<path id="&lt;Path&gt;" class="s3" d="m531.24 1810.37h-13.93v36.31h13.93z"/>
		<path id="&lt;Path&gt;" class="s3" d="m457.58 1834.4c-0.72 0-1.4-0.41-1.72-1.11-0.44-0.95-0.03-2.08 0.93-2.52l47.2-21.73c0.95-0.44 2.08-0.02 2.52 0.93 0.44 0.96 0.02 2.09-0.93 2.53l-47.2 21.72q-0.39 0.18-0.8 0.18z"/>
		<path id="&lt;Path&gt;" class="s3" d="m505.08 1818.11q-0.37 0-0.73-0.15c-0.97-0.41-1.43-1.52-1.02-2.49l2.03-4.83-5.11-1c-1.03-0.2-1.7-1.19-1.5-2.23 0.2-1.03 1.2-1.7 2.23-1.5l7.4 1.45c0.56 0.11 1.04 0.46 1.31 0.97 0.27 0.5 0.3 1.1 0.07 1.63l-2.93 6.98c-0.3 0.73-1.01 1.17-1.75 1.17z"/>
		<path id="&lt;Path&gt;" class="s5" d="m316.29 1758.71c11.37-8.13 26.15-9.36 40.12-9.87 8.95-0.33 18.05-0.46 26.69 1.89 8.64 2.35 16.89 7.53 21.01 15.48 4.08 7.87 3.65 17.25 5.98 25.79 2.54 9.31 8.51 17.64 16.51 23.03 4.25 2.86 9.2 5.06 12.08 9.3 7.16 10.49-2.61 25.81 3.03 37.19 4.35 8.79 15.54 11.08 23.93 16.15 11.11 6.73 17.95 19.94 17.04 32.89-0.21 2.83-0.78 5.72-2.36 8.08-1.35 2.02-3.35 3.52-5.34 4.91-28.9 20.25-64.83 27.87-100.01 30.7-36.33 2.92-73.32 1.19-108.47-8.48-13.29-3.66-26.92-8.87-35.77-19.44-8.86-10.57-10.99-27.87-1.29-37.67 5.25-5.29 12.74-7.49 19.66-10.26 6.92-2.77 14.09-6.89 16.65-13.88 2.53-6.9-0.15-14.5-0.32-21.84-0.22-9.9 4.52-19.79 12.38-25.81 6.72-5.16 15.83-7.96 19.8-15.44 2.76-5.19 2.31-11.42 3.15-17.23 1.46-10.12 7.2-19.55 15.53-25.49z"/>
		<path id="&lt;Path&gt;" class="s3" d="m380.45 1897.06c19.36-6.45 70.98-8.07 91.95 13.98 20.97 22.05 23.66 34.95 32.26 44.09 8.61 9.15 49.06 59.21 45.3 81.79-3.76 22.59-23.6 47.32-63.58 38.13-33.52-7.71-61.6-42.72-58.64-41.24 0.56 0.28 12.98 49.26 7.64 50.64-37.63 9.74-181.92 4.25-181.92 4.25 0 0 7.21-37.32 6.98-37.02-14.62 19.19-49.47 37.88-68.66 36.17-30.11-2.69-43.91-36.97-39.61-62.25 4.3-25.27 37.92-46.27 52.44-59.71 14.52-13.44 29.18-54.21 53.38-66.04 24.19-11.83 92.09 0.84 92.09 0.84z"/>
		<path id="&lt;Compound Path&gt;" class="s5" d="m337.74 2091.09c-43.24 0-83.91-1.53-84.31-1.55-0.25-0.01-0.48-0.12-0.64-0.32-0.15-0.19-0.21-0.44-0.17-0.69 2.19-11.28 5.23-27.15 6.44-33.8-15.02 17.56-46 34.07-64.73 34.07q-1.36 0-2.62-0.11c-11.5-1.03-21.53-6.69-28.99-16.38-9.63-12.5-14.1-30.89-11.38-46.85 3.41-20.04 25.09-37.54 40.92-50.32 4.43-3.57 8.61-6.94 11.78-9.87 5.4-5.01 10.99-14.13 16.9-23.78 10.04-16.38 21.41-34.95 36.67-42.41 6.97-3.4 18.12-5.13 33.14-5.13 26.62 0 57.11 5.48 59.35 5.89l30.16-3.61c8.03-2.66 20.36-4.25 33.03-4.25 12.67 0 43.87 1.8 59.72 18.48 12.9 13.55 18.84 23.54 23.62 31.57 3 5.05 5.37 9.04 8.65 12.52 6.6 7.02 49.45 58.91 45.52 82.51-3.14 18.82-17.62 40.81-48.08 40.81-5.22 0-10.78-0.67-16.53-2-25.94-5.96-48.33-28.02-56.15-37.12 2.85 11.11 9.71 40.33 6.79 45.5-0.39 0.68-0.89 0.93-1.24 1.02-14.91 3.86-47.83 5.82-97.85 5.82zm-83.26-3.21c6.49 0.24 43.8 1.51 83.26 1.51 49.88 0 82.65-1.94 97.42-5.76q0.05 0 0.19-0.22c2.6-4.59-5.01-37.99-7.96-48-0.63-0.94-0.88-1.49-0.61-2.01 0.15-0.28 0.5-0.49 0.81-0.49q0.26 0 0.53 0.14c0.36 0.18 0.47 0.44 0.82 1.62 3.63 5.16 28.33 32.81 57.63 39.55 5.62 1.29 11.05 1.95 16.15 1.95 29.4 0 43.37-21.22 46.4-39.39 3.82-22.93-38.55-74.13-45.08-81.06-3.4-3.62-5.93-7.88-8.87-12.82-4.73-7.95-10.62-17.86-23.39-31.27-15.4-16.2-46.04-17.95-58.49-17.95-12.54 0-24.71 1.57-32.57 4.19q-0.08 0.02-0.17 0.03l-30.37 3.64q-0.13 0.01-0.26-0.01c-0.32-0.06-31.81-5.88-59.17-5.88-14.76 0-25.66 1.67-32.39 4.96-14.82 7.24-26.06 25.59-35.97 41.77-5.98 9.75-11.62 18.97-17.2 24.13-3.21 2.97-7.41 6.36-11.86 9.95-15.62 12.61-37.02 29.88-40.32 49.29-2.64 15.51 1.7 33.39 11.05 45.53 7.17 9.3 16.78 14.74 27.8 15.72q1.19 0.11 2.47 0.11c19.21 0 51.62-17.8 65.43-35.94 0.32-0.41 1.01-0.43 1.34-0.03 0.35 0.43 0.39 0.48-6.62 36.74z"/>
		<path id="&lt;Path&gt;" class="s4" d="m321.12 1824.37c0 0-11.33-11.48-20.75-8.1-9.42 3.39-10.75 23.85-0.59 27.82 10.16 3.98 22.38-3.97 22.38-3.97z"/>
		<path id="&lt;Compound Path&gt;" class="s5" d="m306.01 1846.06q0 0 0 0-3.55-0.01-6.54-1.18c-5.72-2.24-7.68-8.88-7.6-14.36 0.08-6.05 2.65-13.05 8.21-15.05q1.88-0.67 3.99-0.67c8.7 0 17.3 8.6 17.66 8.97q0.22 0.23 0.24 0.54l1.03 15.75c0.02 0.31-0.12 0.6-0.38 0.77-0.33 0.21-8.13 5.23-16.61 5.23zm-1.94-29.56q-1.82 0-3.41 0.57c-4.09 1.47-7 7.01-7.09 13.47-0.07 4.91 1.6 10.84 6.52 12.76q2.69 1.05 5.92 1.06 0 0 0 0c6.92 0 13.56-3.68 15.26-4.7l-0.97-14.91c-1.38-1.33-8.97-8.25-16.23-8.25z"/>
		<path id="&lt;Path&gt;" class="s5" d="m378.68 1851.75c-1.18 3.09-2.35 6.03-3.68 8.54-13.1 24.43-36.65 21.05-43.57 18.25v-2.21l0.15-12.81 21.34 0.89 6.33 0.29 2.36-1.76 8.53-6.63z"/>
		<path id="&lt;Path&gt;" class="s4" d="m408.71 1812.89c-4.71-1.18-8.83 0.58-11.92 2.79v-0.15c0 0.15 0 0.15-0.15 0.3-1.18 0.88-2.21 1.77-2.94 2.5-2.21-8.83-1.03-31.21-10.6-41.95-5.6-6.33-26.94-7.95-41.96-6.18-10.74 1.32-20.75 12.07-23.84 22.52-3.54 12.07-5.45 25.32-5.6 25.02 2.51 22.23 4.27 50.94 35.04 56.09 7.06 1.18 13.39 0.29 18.99-1.77-12.96 11.48-29 8.83-34.6 6.63v-2.21c-0.29 8.09-1.03 19.72-2.5 20.61-2.35 1.32-11.99-0.75-11.99-0.75 0 0 5.51 27.39 39.96 25.33 34.45-2.06 33.17-26.4 33.17-26.4 0 0-10.06 0.79-11.68-1.57-1.32-1.76-0.44-19.72 0-28.7 0.59-0.45 1.18-1.03 1.77-1.62 6.92-6.19 10.75-14.13 13.25-22.82 4.56 1.62 12.22 3.39 18.55 0.15 10.01-5.15 6.92-25.32-2.95-27.82z"/>
		<path id="&lt;Compound Path&gt;" class="s5" d="m352.97 1922.63c-31.54 0-37.11-25.86-37.16-26.12-0.06-0.28 0.03-0.57 0.23-0.77 0.21-0.2 0.5-0.29 0.78-0.23 0.05 0.02 5.48 1.17 9.05 1.17 1.42 0 2.04-0.18 2.3-0.31 0.72-0.87 1.66-7.33 2.12-19.92 0.01-0.46 0.4-0.81 0.86-0.82 0.46 0.01 0.83 0.39 0.83 0.85v1.62c1.61 0.57 5.43 1.67 10.76 1.67 5.03 0 12.07-1.04 18.84-5.57-4.89 1.16-9.91 1.31-14.98 0.47-30.05-5.04-33.03-32.12-35.41-53.88l-0.33-2.95q-0.03-0.27 0.09-0.49c0.08-0.32 0.26-1.29 0.46-2.39 0.82-4.47 2.52-13.76 5.07-22.48 3.04-10.26 13.05-21.71 24.56-23.13 3.76-0.44 7.96-0.67 12.15-0.67 11.71 0 25.89 1.87 30.54 7.14 7.04 7.89 8.42 21.94 9.43 32.2 0.33 3.37 0.62 6.36 1.05 8.68q0.82-0.72 1.77-1.44c0.11-0.32 0.4-0.55 0.75-0.57 4.02-2.74 8.17-3.63 12.19-2.63 5.7 1.45 8.92 8.02 9.59 13.9 0.63 5.56-0.73 12.55-6.47 15.5-2.47 1.27-5.34 1.91-8.53 1.91q0 0 0 0c-3.72 0-7.28-0.88-9.84-1.72-2.94 9.8-7.16 16.92-13.24 22.36-0.47 0.47-0.98 0.98-1.51 1.41-0.37 7.49-1.26 26.01-0.14 27.78 0.45 0.66 2.61 1.35 7.33 1.35 1.98 0 3.58-0.13 3.59-0.13q0.36-0.02 0.63 0.21 0.26 0.24 0.29 0.59c0.01 0.25 0.92 25.21-33.97 27.3q-1.87 0.11-3.68 0.11zm-35.18-25.19c1.49 5.1 8.67 23.49 35.18 23.49q1.76 0 3.58-0.11c29.56-1.76 32.15-20.4 32.36-24.65-0.68 0.04-1.67 0.07-2.8 0.07-7.3 0-8.37-1.55-8.72-2.06-1.23-1.64-0.97-12.41-0.14-29.22 0.01-0.26 0.13-0.49 0.33-0.64 0.55-0.41 1.12-0.99 1.68-1.54 6.04-5.4 10.17-12.53 13.03-22.45q0.11-0.35 0.43-0.53 0.33-0.16 0.67-0.04c2.46 0.87 6.21 1.91 10.12 1.91 2.91 0 5.53-0.58 7.76-1.72 4.96-2.55 6.12-8.8 5.55-13.8-0.6-5.29-3.41-11.2-8.32-12.44-3.65-0.92-7.44-0.02-11.17 2.63q-0.04 0.04-0.09 0.09-0.04 0.04-0.09 0.08c-1.11 0.83-2.12 1.69-2.85 2.42-0.22 0.22-0.53 0.3-0.83 0.22-0.29-0.08-0.52-0.32-0.6-0.61-0.64-2.57-0.99-6.18-1.4-10.35-0.99-10.03-2.34-23.76-9.01-31.25-3.52-3.99-15.01-6.57-29.27-6.57-4.13 0-8.26 0.23-11.95 0.67-10.81 1.33-20.25 12.19-23.13 21.92-2.53 8.63-4.22 17.86-5.03 22.3-0.24 1.28-0.38 2.07-0.51 2.56l0.3 2.79c2.33 21.19 5.22 47.56 34.01 52.38 6.33 1.06 12.58 0.48 18.55-1.72 0.39-0.15 0.82 0.01 1.03 0.36 0.21 0.35 0.14 0.8-0.17 1.07-8.18 7.25-17.32 8.77-23.55 8.77-5.15 0-8.99-1-10.89-1.63-0.78 16.77-2.22 17.64-2.78 17.98-0.68 0.38-1.72 0.56-3.2 0.56-2.66 0-6.19-0.59-8.08-0.94z"/>
		<path id="&lt;Path&gt;" class="s6" d="m399.14 1849.54c-1.17 0-1.91-0.44-2.35-1.03-1.77-1.91-0.88-5.74-0.88-6.18 0.14-0.59 0.73-1.03 1.47-0.89 0.59 0.15 1.03 0.74 0.88 1.48-0.29 1.17-0.44 3.23 0.3 3.97 0.14 0.15 0.29 0.29 1.03 0.15 0.44-0.15 0.88-0.3 1.03-0.74 1.03-1.62 0.29-5 0-6.18-0.15-0.59 0.14-1.33 0.88-1.47 0.59-0.15 1.32 0.14 1.47 0.88 0.15 0.59 1.47 5.3-0.15 8.1q-0.88 1.54-2.65 1.76c-0.58 0.15-0.88 0.15-1.03 0.15z"/>
		<path id="&lt;Path&gt;" class="s6" d="m308.47 1852.48c1.17 0 1.91-0.44 2.35-1.03 1.77-1.91 0.88-5.74 0.88-6.18-0.14-0.59-0.73-1.03-1.47-0.88-0.59 0.14-1.03 0.73-0.88 1.47 0.29 1.18 0.44 3.24-0.3 3.97-0.14 0.15-0.29 0.3-1.03 0.15-0.44-0.15-0.88-0.29-1.03-0.73-1.03-1.62-0.29-5.01 0-6.19 0.15-0.59-0.14-1.32-0.88-1.47-0.59-0.15-1.33 0.15-1.47 0.88-0.15 0.59-1.47 5.3 0.14 8.1q0.89 1.55 2.65 1.77c0.45 0.14 0.74 0.14 1.04 0.14z"/>
		<path id="&lt;Path&gt;" class="s5" d="m378.09 1810.53c-0.73 0.44-1.62 0.44-2.5 0.15-0.88-0.3-1.62-0.74-2.35-1.18-1.62-1.03-3.54-1.62-5.3-2.06-0.89-0.15-2.06-0.44-2.51-1.18-0.58-0.88 0-2.21 0.89-2.8 0.88-0.58 2.06-0.58 3.09-0.44 2.5 0.44 4.71 1.47 6.77 2.95 0.74 0.59 1.33 1.17 1.77 1.91 0.59 0.88 0.59 1.91 0.14 2.65z"/>
		<path id="&lt;Path&gt;" class="s5" d="m327.9 1810.68c0.73 0.44 1.76 0.44 2.5 0.14 0.88-0.29 1.47-0.88 2.21-1.32q2.43-1.55 5.3-2.21c0.88-0.29 2.06-0.44 2.5-1.32 0.59-0.89 0-2.21-1.03-2.8-0.88-0.59-2.06-0.44-3.24-0.29-2.5 0.44-4.71 1.61-6.62 3.23-0.74 0.59-1.33 1.18-1.77 2.06-0.3 0.74-0.3 1.77 0.15 2.51z"/>
		<path id="&lt;Path&gt;" class="s5" d="m312.15 1819.95c0 0 39-42.69 44.75-48.87 0 0-11.93 21.2-5.89 20.46 6.03-0.74 9.57-18.55 9.57-18.55 0 0-1.92 12.51 3.23 11.34 5.16-1.18 1.33-13.25 1.33-13.25l28.21 47.74c0 0 0.64-25.51 0.79-26.25 0.15-0.74-5.01-18.11-5.01-18.11l-20.75-6.91-30.47-1.77-20.02 3.83z"/>
		<path id="&lt;Path&gt;" class="s5" d="m395.61 1831.25q-0.17 0-0.33-0.06c-0.43-0.19-0.63-0.68-0.45-1.12 3.69-8.75 14.09-9.89 14.53-9.93 0.47-0.03 0.89 0.29 0.93 0.76 0.05 0.46-0.29 0.88-0.76 0.93-0.09 0.01-9.85 1.09-13.14 8.9-0.13 0.33-0.45 0.52-0.78 0.52z"/>
		<path id="&lt;Path&gt;" class="s5" d="m403.56 1828.01q-0.27 0-0.5-0.16l-3.39-2.51c-0.38-0.27-0.46-0.81-0.18-1.18 0.28-0.38 0.81-0.46 1.19-0.18l3.38 2.5c0.38 0.28 0.46 0.81 0.18 1.19-0.16 0.22-0.42 0.34-0.68 0.34z"/>
		<path id="&lt;Path&gt;" class="s5" d="m313.03 1831.25c-0.33 0-0.65-0.19-0.78-0.52-3.29-7.81-13.05-8.89-13.14-8.9-0.47-0.05-0.81-0.47-0.76-0.93 0.04-0.47 0.45-0.79 0.93-0.76 0.44 0.04 10.84 1.18 14.53 9.93 0.18 0.44-0.02 0.93-0.45 1.12q-0.17 0.06-0.33 0.06z"/>
		<path id="&lt;Path&gt;" class="s5" d="m307.14 1828.01q-0.18 0-0.36-0.08c-0.43-0.2-0.61-0.7-0.41-1.13l1.18-2.5c0.2-0.42 0.71-0.61 1.13-0.41 0.42 0.2 0.61 0.71 0.41 1.13l-1.18 2.51c-0.15 0.3-0.45 0.48-0.77 0.48z"/>
		<path id="&lt;Path&gt;" class="s5" d="m216.54 1980.46c0.44-5.16 4.2-12.69 11.73-8.39 7.53 4.3 38.99 54.04 38.18 60.5-0.81 6.45-11.17 8.12-23.6-0.91-12.43-9.04-26.31-51.2-26.31-51.2z"/>
		<path id="&lt;Path&gt;" class="s4" d="m319.01 1932.51c-0.15-4.02-3.13-9.82-10.99-5.85-7.85 3.98-16.11 17.9-16.11 17.9 0 0-2.83-22.01-1.82-26 0.86-3.94 13.94-17.19 10.5-24.12-3.38-6.79-12.56-3.26-15.13 0.06-0.23 0.25-0.96 0.06-0.96 0.06 0 0-3.09-1.2-9.38 1-6.28 2.21-15.84 12.08-15.84 12.08 0 0-7.54 5.97-10.93 9.3 0 0-20.27 14.03-20.07 28.29 0.04 6.99 1.83 15.89 4.04 23.81l-15.24 11.42c1.7 19.12 8.61 42.06 26.31 51.2l5.37-3.55 25.16-16.48 21.14-13.89 4.38-2.9c0 0 8.52-7.18 9.96-15.75 1.64-8.49-0.27-21.74 0.84-25.45 1.12-3.7 8.92-17.12 8.77-21.13z"/>
		<path id="&lt;Compound Path&gt;" class="s5" d="m243.39 2032.5q-0.2 0-0.39-0.09c-20.96-10.82-25.7-39.89-26.77-51.88-0.02-0.29 0.1-0.58 0.34-0.75l14.78-11.08c-2.49-9.05-3.88-17.37-3.92-23.46-0.2-14.3 18.92-27.94 20.38-28.96 3.31-3.23 10.22-8.73 10.9-9.27 0.78-0.79 9.87-10.05 16.13-12.25 2.61-0.91 5.01-1.38 7.13-1.38 1.6 0 2.53 0.28 2.78 0.37q0.08 0.01 0.2 0.03c1.67-2.01 5.53-4.06 9.27-4.06 3.2 0 5.74 1.54 7.13 4.34 2.56 5.15-2.9 13.04-6.89 18.8-1.7 2.46-3.3 4.78-3.54 5.88-0.71 2.82 0.68 16.15 1.54 23.34 2.65-4.07 8.96-13.03 15.18-16.18q2.81-1.42 5.16-1.42c4.65 0 6.92 4.14 7.06 8 0.1 2.76-2.96 9-5.66 14.51-1.42 2.88-2.76 5.61-3.14 6.9-0.46 1.52-0.36 5.04-0.24 9.12 0.16 5.37 0.34 11.45-0.59 16.24-1.47 8.75-9.89 15.94-10.25 16.24q-0.03 0.03-0.07 0.05l-4.38 2.91-21.15 13.89-30.52 20.02q-0.22 0.14-0.47 0.14zm-25.42-51.65c1.11 11.9 5.79 39.35 25.37 49.82l4.96-3.26 25.15-16.49 25.47-16.76c0.59-0.51 8.32-7.33 9.64-15.21 0.9-4.63 0.71-10.87 0.56-15.89-0.12-4.4-0.23-7.87 0.31-9.66 0.43-1.42 1.73-4.08 3.24-7.16 2.36-4.8 5.58-11.37 5.5-13.7-0.09-2.2-1.31-6.36-5.37-6.36q-1.94 0-4.4 1.24c-7.54 3.82-15.68 17.43-15.76 17.57-0.18 0.31-0.54 0.47-0.9 0.4-0.35-0.07-0.62-0.36-0.67-0.72-0.12-0.91-2.84-22.22-1.81-26.32 0.31-1.4 1.85-3.63 3.81-6.46 3.74-5.41 8.87-12.82 6.76-17.07-1.12-2.26-3.01-3.4-5.61-3.4-3.27 0-6.75 1.87-8.09 3.6q-0.42 0.47-1.1 0.46c-0.35 0-0.68-0.08-0.75-0.1q-0.04-0.01-0.09-0.03c0 0-0.75-0.27-2.22-0.27-1.33 0-3.54 0.22-6.56 1.28-6.03 2.12-15.42 11.78-15.52 11.87q-0.03 0.04-0.08 0.08c-0.07 0.06-7.54 5.98-10.86 9.23q-0.06 0.05-0.11 0.09c-0.2 0.14-19.9 13.94-19.71 27.59 0.04 6.08 1.46 14.46 4.01 23.59 0.09 0.34-0.03 0.7-0.31 0.91z"/>
		<path id="&lt;Path&gt;" class="s5" d="m246.75 1918.23l0.14-0.06c7.1-2.2 11.83-1 13.44 3.4 1.49 4.13-2.65 10.03-7.7 13.69-4.76 3.55-5.94 3.86-6.08 3.92-0.14 0.06-0.34-0.03-0.26-0.22-0.05-0.14 0.03-0.34 0.23-0.26 0 0 1.18-0.31 5.66-3.74 4.63-3.5 8.83-9.26 7.44-13.11-1.49-4.12-5.96-5.09-12.64-3.06-0.14 0.06-0.34-0.02-0.39-0.17 0.02-0.33 0.16-0.39 0.16-0.39z"/>
		<path id="&lt;Path&gt;" class="s7" d="m246.46 1939.62c-0.22 0-0.41-0.1-0.52-0.26q-0.12-0.19-0.08-0.41-0.03-0.24 0.1-0.44c0.12-0.18 0.32-0.28 0.53-0.25 0.33-0.13 1.73-0.8 5.43-3.64 4.52-3.41 8.61-8.99 7.31-12.62-0.92-2.53-3.04-3.81-6.3-3.81q-2.52 0-5.83 1.01-0.07 0.03-0.22 0.03c-0.3 0-0.58-0.18-0.69-0.45q-0.03-0.09-0.03-0.19c0.05-0.55 0.35-0.72 0.44-0.75l0.13-0.06c7.39-2.3 12.32-0.94 13.99 3.65 1.61 4.41-2.73 10.47-7.84 14.18-2.93 2.18-5.12 3.59-6.16 3.96q-0.14 0.05-0.26 0.05z"/>
		<path id="&lt;Path&gt;" class="s5" d="m249.38 1936.9c0.08-0.2 0.28-0.11 0.48-0.03 1.35 0.92 3.92 10.97 4.24 12.15 0.05 0.14-0.03 0.34-0.17 0.39-0.14 0.06-0.34-0.02-0.4-0.16-1.07-4.3-3.22-11.26-3.98-11.93q-0.3-0.12-0.17-0.42z"/>
		<path id="&lt;Path&gt;" class="s7" d="m253.83 1949.86c-0.3 0-0.58-0.19-0.69-0.45-1.27-5.04-3.24-11.04-3.84-11.74-0.2-0.11-0.29-0.25-0.34-0.36-0.04-0.12-0.08-0.32 0.03-0.58 0.1-0.23 0.31-0.37 0.56-0.37 0.18 0 0.33 0.06 0.47 0.12 0.43 0.28 1.49 1.01 4.43 12.21l0.06 0.22c0.05 0.12 0.04 0.33-0.03 0.51q-0.13 0.28-0.39 0.39-0.12 0.05-0.26 0.05z"/>
		<path id="&lt;Path&gt;" class="s5" d="m259.48 1907.73c0.37-0.31 8.5-4.4 13.39-2.78 1.32 0.44 2.33 1.34 2.98 2.55 3.33 6.64-1.57 12.69-4.35 14.3-2.77 1.61-8.29 8.55-9.13 9.71 0.57 2.22 2.43 8.47 2.1 9.26q-0.13 0.3-0.42 0.17-0.3-0.13-0.17-0.42c0.11-0.53-1.08-5.11-2.18-9.07-0.06-0.14-0.06-0.14 0.02-0.33 0.23-0.26 6.36-8.11 9.36-9.97 2.64-1.55 7.23-7.14 4.15-13.57-0.59-1.06-1.4-1.88-2.53-2.24-4.69-1.53-12.63 2.64-12.77 2.7-0.14 0.05-0.34-0.03-0.39-0.17-0.14 0.06-0.14 0.06-0.06-0.14z"/>
		<path id="&lt;Path&gt;" class="s7" d="m264.21 1941.4q-0.16 0-0.33-0.07c-0.26-0.11-0.37-0.28-0.42-0.4-0.04-0.11-0.08-0.29 0-0.51 0.01-0.49-0.65-3.39-2.17-8.85-0.1-0.24-0.07-0.36 0.04-0.62q0.03-0.06 0.07-0.11 0.04-0.05 0.24-0.3c4.23-5.26 7.42-8.63 9.22-9.75 2.5-1.47 6.98-6.79 3.99-13.03q-0.86-1.56-2.28-2.02-0.97-0.31-2.24-0.31c-3.9 0-8.73 2.25-10.12 2.94q-0.1 0.05-0.12 0.06c-0.23 0.1-0.52 0.04-0.72-0.11q-0.19-0.04-0.3-0.19c-0.13-0.21-0.05-0.4 0.02-0.57q0.04-0.09 0.12-0.16c0.42-0.36 6.24-3.25 11.04-3.25q1.55 0 2.75 0.39c1.4 0.48 2.51 1.43 3.23 2.76 3.36 6.72-1.28 13-4.51 14.87-2.5 1.44-7.55 7.64-8.89 9.43 0.12 0.45 0.28 1.04 0.46 1.69 1.28 4.67 1.84 7.01 1.57 7.65-0.13 0.29-0.36 0.46-0.65 0.46z"/>
		<path id="&lt;Path&gt;" class="s5" d="m285.23 1895.57c0 0 0.14-0.06 0 0 0.09-0.2 0.28-0.11 0.48-0.03 1.66 1.29 2.87 3.9 3.11 6.9 0.17 3.68-1.2 7.16-3.69 9.47-4.71 4.51-6.44 7.49-6.83 8.13l2.12 10.56c0.06 0.14-0.02 0.34-0.16 0.39-0.14 0.06-0.34-0.03-0.4-0.17l-2.18-10.69c0 0-0.06-0.14 0.08-0.2 0.09-0.19 1.62-3.26 6.92-8.32 2.49-2.31 3.78-5.6 3.52-9.08-0.12-2.73-1.28-5.2-2.74-6.4-0.25-0.22-0.17-0.42-0.23-0.56z"/>
		<path id="&lt;Path&gt;" class="s7" d="m280.16 1931.43c-0.3 0-0.58-0.18-0.69-0.45l-2.21-10.76c0 0.01-0.06-0.17 0.03-0.38q0.05-0.11 0.14-0.2c0.32-0.62 1.98-3.58 6.96-8.34 2.4-2.23 3.63-5.41 3.39-8.74-0.11-2.47-1.15-4.92-2.59-6.1-0.31-0.28-0.34-0.56-0.35-0.71q-0.06-0.14-0.01-0.29 0-0.03 0.01-0.06c0.1-0.24 0.32-0.38 0.57-0.38 0.17 0 0.33 0.07 0.47 0.13q0.05 0.02 0.09 0.05c1.78 1.38 3.03 4.15 3.27 7.21 0.18 3.82-1.21 7.4-3.82 9.81-2.04 1.96-4.86 4.91-6.68 7.9l2.1 10.39c0.12 0.29-0.07 0.73-0.42 0.87q-0.13 0.05-0.26 0.05z"/>
		<path id="&lt;Path&gt;" class="s5" d="m256.08 1959.63c0.09-0.19 0.43-0.17 0.48-0.03 5.86 5.64 7.03 14.62 6.98 20.99 0.05 7-1.43 12.64-1.37 12.78q-0.13 0.3-0.42 0.17-0.3-0.12-0.17-0.42c0.08-0.19 5.42-22.56-5.38-33.21-0.14 0.06-0.2-0.08-0.12-0.28z"/>
		<path id="&lt;Path&gt;" class="s7" d="m261.91 1994.01q-0.16-0.01-0.33-0.08c-0.41-0.17-0.57-0.56-0.39-0.97 0.05-0.18 5.24-22.16-5.17-32.62q-0.19-0.05-0.31-0.22-0.17-0.28-0.02-0.65c0.2-0.45 0.95-0.5 1.21-0.13 5.92 5.73 7.11 14.72 7.07 21.26 0.03 5.66-0.91 10.4-1.27 12.18q-0.09 0.45-0.11 0.58 0 0.09-0.03 0.18c-0.13 0.3-0.36 0.47-0.65 0.47z"/>
		<path id="&lt;Path&gt;" class="s5" d="m488.53 1980.95c0.54-6.46 0.81-12.91-1.88-15.6-2.69-2.69-9.95-2.15-10.76 4.3-0.8 6.46-29.3 37.91-32.8 40.33-3.49 2.42-13.71 5.92-15.59 12.1-1.88 6.18 21.78-1.34 29.84-6.45 8.07-5.11 31.19-34.68 31.19-34.68z"/>
		<path id="&lt;Path&gt;" class="s5" d="m537.82 2006.89q-0.31 0-0.57-0.22c-0.23-0.21-23.36-21.2-29.72-26.51-2.7-2.24-5.99-6-9.16-9.63-4.14-4.72-8.82-10.07-10.81-10.25-3.54-0.32-5.04 0.82-11.57 6.26-0.36 0.3-0.9 0.25-1.2-0.11-0.3-0.36-0.25-0.89 0.11-1.19 6.32-5.27 8.45-7.04 12.81-6.65 2.49 0.23 6.17 4.24 11.93 10.82 3.14 3.59 6.38 7.29 8.97 9.45 6.39 5.33 29.55 26.34 29.78 26.55 0.35 0.32 0.38 0.85 0.06 1.2q-0.27 0.28-0.63 0.28z"/>
		<path id="&lt;Path&gt;" class="s5" d="m428.49 2035.21q-0.34 0-0.6-0.25c-5.58-5.58-7.46-10.94-5.58-15.96 1.46-3.88 4.25-5.73 7.47-7.88 1.84-1.22 3.73-2.47 5.65-4.27 0.35-0.32 0.88-0.3 1.2 0.04 0.32 0.35 0.31 0.88-0.04 1.2-2.02 1.89-4.06 3.25-5.87 4.45-3.1 2.06-5.55 3.69-6.82 7.06-1.62 4.33 0.12 9.1 5.19 14.16 0.33 0.33 0.33 0.87 0 1.2q-0.27 0.25-0.6 0.25z"/>
		<path id="&lt;Path&gt;" class="s4" d="m484.77 1993.31c2.61-4.47 3.92-9.46 3.41-14.25l-13.9-14.61c3.5-7.44 6.75-15.91 7.96-22.8 2.57-14.03-15.08-31.25-15.08-31.25-2.79-3.84-9.23-10.98-9.23-10.98 0 0-7.77-11.33-13.6-14.55-5.83-3.23-9.08-2.56-9.08-2.56 0 0-0.75 0.07-0.93-0.21-1.99-3.71-10.44-8.72-14.91-2.59-4.55 6.26 6.14 21.51 6.33 25.53 0.33 4.1-6.13 25.33-6.13 25.33 0 0-5.82-15.1-12.9-20.33-7.08-5.23-11 0-11.81 3.93-0.82 3.94 4.64 18.46 5.12 22.31 0.48 3.84-3.61 16.59-3.41 25.23-0.01 8.68 7.19 17.19 7.19 17.19l3.83 3.59 18.53 17.22 20.08 18.61c15.41-2.51 29.24-11.08 38.53-24.81z"/>
		<path id="&lt;Compound Path&gt;" class="s5" d="m446.24 2018.97q-0.33 0-0.58-0.23l-20.07-18.61-22.37-20.82q-0.03-0.03-0.06-0.07c-0.31-0.35-7.41-8.84-7.4-17.73-0.12-4.86 1.08-10.83 2.13-16.1 0.8-4 1.48-7.45 1.29-9.03-0.17-1.33-1.03-4.24-1.95-7.32-1.75-5.89-3.73-12.55-3.17-15.26 0.71-3.39 3.18-6.81 7.11-6.81q2.84 0.01 6.04 2.37c5.61 4.14 10.34 14.03 12.27 18.48 2.05-6.94 5.64-19.86 5.42-22.73-0.06-1.15-1.25-3.71-2.52-6.41-2.97-6.35-7.04-15.04-3.66-19.69 1.54-2.11 3.69-3.23 6.21-3.23 4.06 0 8.37 2.9 10.01 5.69 0.06 0 0.16 0 0.21 0q0.2-0.05 0.92-0.06c1.4 0 4.39 0.35 8.67 2.71 5.81 3.21 13.23 13.86 13.86 14.77 0.58 0.65 6.49 7.22 9.21 10.96 1.27 1.24 17.84 17.89 15.26 31.95-1.05 6-3.81 13.97-7.77 22.48l13.49 14.2q0.2 0.21 0.23 0.49c0.52 4.83-0.7 9.94-3.52 14.77-9.25 13.67-23.13 22.61-39.13 25.22q-0.06 0.01-0.13 0.01zm-41.82-40.86l3.79 3.56 18.53 17.22 19.77 18.33c15.36-2.62 28.68-11.27 37.55-24.38 2.56-4.38 3.7-9.02 3.3-13.41l-13.69-14.4c-0.24-0.25-0.3-0.63-0.15-0.94 4.03-8.58 6.83-16.6 7.88-22.59 2.47-13.43-14.65-30.32-14.83-30.49q-0.05-0.05-0.09-0.11c-2.73-3.76-9.11-10.84-9.18-10.91q-0.03-0.04-0.07-0.09c-0.07-0.11-7.72-11.21-13.31-14.29-3.94-2.18-6.61-2.51-7.85-2.51-0.43 0-0.65 0.04-0.65 0.04q-0.05 0.01-0.09 0.02c0 0-0.11 0.01-0.27 0.01q-1.07 0-1.46-0.63c-1.15-2.14-4.98-5.06-8.67-5.06q-2.99 0.01-4.84 2.53c-2.79 3.84 1.04 12 3.83 17.97 1.45 3.1 2.6 5.56 2.67 7.02 0.33 4.19-5.9 24.75-6.17 25.62-0.11 0.35-0.42 0.59-0.78 0.6-0.36 0.03-0.69-0.2-0.82-0.54-0.06-0.15-5.82-14.93-12.61-19.95q-2.76-2.03-5.04-2.04c-3.4 0-5.02 3.43-5.44 5.46-0.48 2.28 1.61 9.3 3.13 14.42 0.97 3.29 1.82 6.13 2 7.6 0.23 1.85-0.45 5.26-1.31 9.58-0.98 4.92-2.2 11.04-2.09 15.74-0.01 8.02 6.47 16.03 6.96 16.62z"/>
		<path id="&lt;Path&gt;" class="s5" d="m468.52 1911.95l-0.13-0.08c-6.63-3.36-11.48-2.97-13.8 1.11-2.17 3.82 0.93 10.33 5.3 14.78 4.1 4.3 5.22 4.8 5.34 4.88 0.13 0.08 0.34 0.03 0.29-0.18 0.08-0.13 0.03-0.34-0.18-0.29 0 0-1.11-0.5-4.96-4.64-3.98-4.21-7.16-10.6-5.15-14.16 2.16-3.81 6.73-4.03 12.98-0.91 0.13 0.08 0.33 0.03 0.41-0.1 0.03-0.33-0.1-0.41-0.1-0.41z"/>
		<path id="&lt;Path&gt;" class="s7" d="m465.36 1933.1q-0.19 0-0.35-0.1c-0.98-0.55-2.9-2.3-5.43-4.94-4.42-4.51-7.68-11.21-5.36-15.29 1.33-2.35 3.54-3.59 6.38-3.59 2.28 0 4.96 0.78 7.99 2.31l0.16 0.1c0.08 0.05 0.34 0.26 0.3 0.81q-0.01 0.1-0.07 0.19c-0.12 0.21-0.37 0.34-0.63 0.34q-0.2-0.01-0.36-0.1c-5.99-3-10.38-2.79-12.39 0.75-1.9 3.36 1.21 9.55 5.09 13.66 3.17 3.41 4.44 4.31 4.75 4.5q0.31 0.03 0.46 0.29 0.13 0.23 0.05 0.49 0 0.2-0.12 0.36-0.18 0.21-0.47 0.22z"/>
		<path id="&lt;Path&gt;" class="s5" d="m462.82 1929.92c-0.05-0.21-0.26-0.16-0.46-0.11-1.49 0.68-5.71 10.16-6.21 11.27-0.08 0.13-0.03 0.34 0.1 0.42 0.13 0.08 0.34 0.03 0.42-0.1 1.77-4.06 5.05-10.56 5.92-11.1q0.31-0.07 0.23-0.38z"/>
		<path id="&lt;Path&gt;" class="s7" d="m456.4 1941.96h-0.01q-0.2 0-0.36-0.1c-0.33-0.2-0.44-0.67-0.24-1l0.07-0.16c3.16-7.01 5.28-10.8 6.32-11.28 0.19-0.05 0.31-0.08 0.44-0.08 0.31 0 0.54 0.18 0.62 0.48 0.06 0.27-0.01 0.46-0.08 0.57-0.06 0.1-0.17 0.23-0.39 0.3-0.71 0.59-3.65 6.18-5.71 10.88-0.16 0.26-0.4 0.39-0.66 0.39z"/>
		<path id="&lt;Path&gt;" class="s5" d="m457.73 1899.47c-0.31-0.37-7.65-5.76-12.74-4.98-1.38 0.22-2.53 0.94-3.37 2.02-4.39 6-0.56 12.78 1.91 14.83 2.47 2.05 6.75 9.82 7.38 11.09-0.92 2.1-3.81 7.96-3.61 8.79q0.07 0.31 0.39 0.23 0.31-0.07 0.23-0.38c-0.02-0.55 1.92-4.86 3.67-8.58 0.08-0.13 0.08-0.13 0.03-0.33-0.18-0.29-4.92-9.05-7.57-11.39-2.34-1.97-5.94-8.25-1.83-14.07 0.76-0.96 1.7-1.62 2.87-1.79 4.88-0.73 12.01 4.71 12.14 4.79 0.13 0.08 0.34 0.03 0.42-0.1 0.13 0.08 0.13 0.08 0.08-0.13z"/>
		<path id="&lt;Path&gt;" class="s7" d="m447.57 1931.89c-0.33 0-0.6-0.22-0.68-0.57-0.17-0.68 0.78-2.89 2.82-7.28 0.28-0.61 0.54-1.17 0.73-1.59-1.02-1.99-4.97-8.95-7.18-10.78-2.88-2.39-6.41-9.35-1.98-15.41 0.93-1.2 2.19-1.95 3.64-2.19q0.54-0.08 1.13-0.08c5.17 0 11.74 4.89 12 5.21q0.07 0.07 0.09 0.17c0.04 0.18 0.09 0.36-0.05 0.54q-0.14 0.15-0.35 0.16 0 0 0 0c-0.22 0.12-0.52 0.12-0.73-0.01q-0.02-0.01-0.11-0.08c-1.52-1.1-6.79-4.71-10.87-4.71q-0.46 0-0.88 0.06-1.46 0.22-2.6 1.63c-3.97 5.63-0.44 11.62 1.77 13.49 1.6 1.4 4.18 5.26 7.47 11.15q0.16 0.28 0.19 0.33 0.03 0.06 0.05 0.13c0.06 0.27 0.08 0.4-0.08 0.65-2.39 5.1-3.53 7.84-3.6 8.33 0.04 0.23-0.02 0.4-0.09 0.5-0.07 0.12-0.2 0.26-0.48 0.33q-0.1 0.02-0.21 0.02z"/>
		<path id="&lt;Path&gt;" class="s5" d="m434.36 1883.18c0 0-0.13-0.07 0 0-0.05-0.2-0.26-0.15-0.46-0.1-1.85 0.99-3.49 3.36-4.22 6.28-0.78 3.6-0.01 7.27 2.06 9.96 3.89 5.22 5.1 8.45 5.38 9.15l-3.86 10.06c-0.08 0.13-0.03 0.33 0.1 0.41 0.13 0.08 0.34 0.03 0.42-0.1l3.94-10.18c0 0 0.08-0.13-0.05-0.21-0.05-0.2-1.06-3.48-5.44-9.36-2.07-2.69-2.79-6.15-1.95-9.54 0.57-2.66 2.12-4.91 3.77-5.85 0.28-0.18 0.23-0.39 0.31-0.52z"/>
		<path id="&lt;Path&gt;" class="s7" d="m433.51 1919.4q-0.21 0-0.37-0.1-0.24-0.15-0.32-0.45-0.06-0.3 0.08-0.55l3.77-9.82c-1.33-3.3-3.59-6.65-5.27-8.91-2.17-2.81-2.95-6.57-2.13-10.3 0.75-2.99 2.44-5.5 4.43-6.57q0.04-0.02 0.1-0.04 0.16-0.04 0.36-0.05 0.38 0.01 0.55 0.31 0.09 0.11 0.09 0.27 0 0.14-0.09 0.26c-0.04 0.16-0.12 0.41-0.44 0.61-1.63 0.94-3.06 3.18-3.58 5.58-0.8 3.26-0.11 6.6 1.88 9.19 4.27 5.74 5.35 8.98 5.49 9.46 0.07 0.11 0.11 0.24 0.1 0.33 0 0.07-0.05 0.21-0.08 0.26l-3.91 10.12q-0.25 0.41-0.66 0.4z"/>
		<path id="&lt;Path&gt;" class="s5" d="m452.42 1951.21c-0.05-0.2-0.39-0.23-0.47-0.11-6.71 4.58-9.36 13.24-10.38 19.54-1.21 6.88-0.7 12.7-0.78 12.83q0.08 0.31 0.39 0.23 0.31-0.07 0.24-0.38c-0.05-0.21-1.59-23.15 10.84-31.85 0.13 0.08 0.21-0.05 0.16-0.26z"/>
		<path id="&lt;Path&gt;" class="s7" d="m441.07 1984.14c-0.34 0-0.6-0.22-0.69-0.57q-0.02-0.1 0-0.19 0-0.13-0.01-0.59c-0.06-1.82-0.2-6.64 0.78-12.23 1.05-6.44 3.72-15.11 10.52-19.77q0.18-0.18 0.47-0.19c0.33 0 0.62 0.21 0.69 0.51q0.09 0.37-0.1 0.61c-0.07 0.1-0.24 0.18-0.36 0.2-12.01 8.58-10.56 31.12-10.53 31.34 0.1 0.39-0.13 0.75-0.56 0.86q-0.11 0.02-0.21 0.02z"/>
		<path id="&lt;Path&gt;" class="s5" d="m260.36 2052.06q-0.19 0-0.37-0.09c-0.42-0.2-0.6-0.7-0.4-1.13 0.15-0.31 3.71-7.74 6.71-9.99q0.64-0.47 1.24-0.88c2.24-1.55 3.72-2.57 3.44-6.99-0.34-5.47-6.28-15.66-6.34-15.76-0.23-0.4-0.1-0.92 0.31-1.16 0.4-0.24 0.92-0.1 1.16 0.3 0.25 0.44 6.2 10.64 6.57 16.51 0.33 5.39-1.76 6.83-4.17 8.49q-0.58 0.4-1.19 0.85c-2.67 2-6.16 9.29-6.2 9.36-0.14 0.31-0.45 0.49-0.76 0.49z"/>
		<path id="&lt;Path&gt;" class="s5" d="m173.25 2006.53q-0.36 0-0.63-0.27c-0.32-0.35-0.3-0.88 0.05-1.2 1.68-1.56 5.62-4.6 10.19-8.12 8.4-6.48 21.1-16.26 22.22-19.17 1.89-4.93 11.15-11.19 15.66-12.17 4.55-0.98 9.56 4.32 9.77 4.55 0.32 0.34 0.3 0.88-0.05 1.2-0.34 0.32-0.88 0.3-1.19-0.04-0.05-0.05-4.57-4.84-8.17-4.05-3.97 0.86-12.78 6.8-14.44 11.12-1.19 3.1-10.6 10.52-22.77 19.9-4.53 3.5-8.44 6.51-10.07 8.02q-0.25 0.23-0.57 0.23z"/>
		<path id="&lt;Path&gt;" class="s5" d="m349.98 1837.43q-0.25 0.01-0.47-0.14c-0.58-0.38-3.44-2.39-3.62-4.46-0.07-0.93 0.38-2.39 1.19-4.9 0.77-2.42 1.74-5.44 2.05-8.08 0.06-0.46 0.48-0.8 0.95-0.74 0.46 0.05 0.79 0.47 0.74 0.94-0.33 2.81-1.33 5.91-2.13 8.4-0.57 1.77-1.16 3.6-1.11 4.24 0.08 0.93 1.73 2.43 2.87 3.19 0.39 0.26 0.49 0.79 0.23 1.18-0.16 0.24-0.43 0.37-0.7 0.37z"/>
		<path id="&lt;Path&gt;" class="s5" d="m372.78 1820.8c0-2.52-1.33-4.56-2.97-4.56-1.64 0-2.97 2.04-2.97 4.56 0 2.52 1.33 4.57 2.97 4.57 1.64 0 2.97-2.05 2.97-4.57z"/>
		<path id="&lt;Path&gt;" class="s5" d="m337.13 1820.8c0-2.52-1.33-4.56-2.97-4.56-1.64 0-2.97 2.04-2.97 4.56 0 2.52 1.33 4.57 2.97 4.57 1.64 0 2.97-2.05 2.97-4.57z"/>
		<path id="&lt;Path&gt;" class="s5" d="m354.23 1849.08c-4.19 0-7.52-1.03-7.59-1.05-0.45-0.14-0.7-0.62-0.56-1.06 0.15-0.45 0.62-0.7 1.07-0.56 0.14 0.05 14.07 4.34 19.81-5.35 0.24-0.4 0.76-0.54 1.16-0.3 0.4 0.24 0.54 0.76 0.3 1.17-3.43 5.8-9.38 7.15-14.19 7.15z"/>
		<path id="&lt;Path&gt;" class="s5" d="m369.24 1843.05q-0.25 0-0.47-0.15l-3.12-2.12c-0.38-0.26-0.48-0.79-0.22-1.18 0.26-0.39 0.79-0.49 1.18-0.22l3.11 2.12c0.39 0.26 0.49 0.79 0.22 1.18-0.16 0.24-0.43 0.37-0.7 0.37z"/>
		<path id="&lt;Path&gt;" class="s4" d="m314.81 1773.84c-1.13-1.39-1.34-3.45-0.52-5.05 0.38-0.75 0.96-1.38 1.57-1.97 1.53-1.51 3.29-2.87 5.32-3.58 2.14-0.74 5.07-0.39 5.88 1.72 0.49 1.28 0.01 2.75 0.29 4.09 0.49 2.33 3 3.54 5.17 4.52 2.17 0.97 4.61 2.48 4.71 4.86 0.08 1.98-1.54 3.57-3.03 4.88-2.22 1.95-4.57 3.97-7.46 4.56-2.89 0.6-6.42-0.83-7.07-3.7-0.45-2 0.55-4.22-0.29-6.09-0.86-1.92-3.24-2.61-4.57-4.24z"/>
		<path id="&lt;Path&gt;" class="s4" d="m379.99 1783.3c-1.7-1.43-3.34-3.04-4.18-5.09-0.85-2.05-0.71-4.64 0.84-6.22 1.82-1.84 4.81-1.74 7.34-1.22 2.54 0.53 5.21 1.33 7.65 0.45 2.62-0.93 4.3-3.58 6.87-4.66 1.49 1.84 3 3.79 3.5 6.11 0.51 2.31-0.29 5.08-2.42 6.12-2.22 1.09-5.02-0.01-7.29 0.97-2.77 1.19-3.87 5.07-6.82 5.71-1.99 0.43-3.93-0.86-5.49-2.17z"/>
		<path id="&lt;Path&gt;" class="s4" d="m202.65 2130.32l36.7 3.77c2.05 0.22 4.48-0.67 5.43-1.97l25.5-35.07c0.95-1.3 0.05-2.53-2-2.74l-36.71-3.78c-2.05-0.21-4.48 0.67-5.43 1.97l-25.5 35.08c-0.94 1.3-0.04 2.53 2.01 2.74z"/>
		<path id="&lt;Compound Path&gt;" class="s5" d="m239.97 2134.98q0 0 0 0-0.36 0-0.71-0.04l-36.7-3.78c-1.46-0.15-2.54-0.77-2.96-1.71-0.33-0.75-0.21-1.59 0.36-2.37l25.5-35.08c1.11-1.53 3.8-2.56 6.2-2.31l36.7 3.77c1.47 0.15 2.55 0.78 2.96 1.71 0.34 0.75 0.21 1.6-0.35 2.37l-25.5 35.08c-1.01 1.39-3.27 2.36-5.5 2.36zm-9.02-43.63c-1.64 0-3.44 0.73-4.12 1.65l-25.5 35.08c-0.14 0.19-0.28 0.46-0.18 0.68 0.12 0.27 0.61 0.61 1.58 0.71l36.71 3.78q0.26 0.03 0.53 0.03c1.64 0 3.45-0.73 4.12-1.66l25.5-35.07c0.14-0.19 0.28-0.46 0.18-0.69-0.12-0.26-0.6-0.61-1.58-0.71l-36.7-3.77q-0.27-0.03-0.54-0.03z"/>
		<path id="&lt;Path&gt;" class="s5" d="m234.5 2112.42c1.81-1.13 4.04-2.2 6.37-2.41 3-0.27 5.18 1.12 5.2 2.81 0.02 1.7-1.73 3.55-4.02 5.01-2.29 1.47-5.09 2.61-7.84 3.73q-2.7 1.1-5.39 2.2c-0.4 0.16-0.81 0.33-1.25 0.39-0.9 0.14-1.58-0.19-2.08-0.53-1.97-1.38-2.81-3.27-3.3-5.19-0.38-1.48-0.55-3.06 0.41-4.66 0.95-1.61 3.3-3.23 6.06-3.69 2.64-0.44 5.12 0.41 5.39 1.84"/>
		<path id="&lt;Path&gt;" class="s5" d="m239.94 2107.3c-1.03 0.85-1.81 1.87-3.31 2.43q0.43-2.87-0.36-5.53c2.8 0.01 5.47 0.3 7.86 0.86-1.63 0.54-3.1 1.33-4.19 2.24z"/>
		<path id="&lt;Path&gt;" class="s4" d="m234.65 2144.64l36.71 3.78c2.05 0.21 4.48-0.67 5.42-1.98l25.5-35.07c0.95-1.3 0.05-2.53-2-2.74l-36.7-3.78c-2.06-0.21-4.49 0.68-5.43 1.98l-25.5 35.07c-0.95 1.3-0.05 2.53 2 2.74z"/>
		<path id="&lt;Compound Path&gt;" class="s5" d="m271.98 2149.3q-0.36 0-0.71-0.04l-36.7-3.78c-1.47-0.15-2.55-0.77-2.97-1.7-0.33-0.76-0.2-1.6 0.36-2.38l25.5-35.07c1.12-1.54 3.8-2.57 6.2-2.32l36.71 3.78c1.46 0.15 2.54 0.77 2.96 1.7 0.33 0.76 0.21 1.6-0.36 2.38l-25.5 35.07c-1.01 1.39-3.27 2.36-5.49 2.36zm-9.03-43.63c-1.63 0-3.44 0.73-4.11 1.65l-25.51 35.08c-0.13 0.19-0.27 0.46-0.18 0.68 0.12 0.27 0.61 0.61 1.59 0.72l36.7 3.77c1.77 0.19 3.91-0.59 4.66-1.62l25.5-35.08c0.13-0.19 0.28-0.46 0.18-0.68-0.12-0.27-0.61-0.61-1.59-0.72l-36.7-3.77q-0.26-0.03-0.54-0.03z"/>
		<path id="&lt;Path&gt;" class="s3" d="m245.94 2140.31c-0.95 0.66-2.14 1.31-3.46 1.48-1.7 0.22-3.06-0.48-3.19-1.41-0.14-0.93 0.73-2 1.93-2.86 1.2-0.86 2.72-1.56 4.22-2.25q1.46-0.67 2.92-1.34 0.32-0.16 0.68-0.25c0.51-0.09 0.92 0.07 1.23 0.25 1.23 0.7 1.86 1.72 2.28 2.77 0.32 0.8 0.54 1.66 0.11 2.57-0.43 0.9-1.65 1.86-3.2 2.18-1.47 0.3-2.96-0.1-3.22-0.88"/>
		<path id="&lt;Path&gt;" class="s3" d="m263.41 2116.28c-0.95 0.67-2.15 1.31-3.47 1.49-1.69 0.22-3.05-0.49-3.19-1.42-0.13-0.93 0.73-1.99 1.94-2.85 1.2-0.86 2.72-1.56 4.21-2.25q1.46-0.67 2.92-1.34 0.33-0.17 0.69-0.25c0.5-0.1 0.92 0.06 1.23 0.24 1.23 0.71 1.85 1.73 2.28 2.77 0.32 0.8 0.54 1.67 0.11 2.57-0.43 0.91-1.66 1.86-3.2 2.18-1.48 0.31-2.96-0.1-3.22-0.88"/>
		<path id="&lt;Path&gt;" class="s3" d="m286.46 2118.66c-0.95 0.66-2.14 1.31-3.46 1.48-1.7 0.22-3.06-0.49-3.19-1.42-0.14-0.93 0.73-1.99 1.93-2.85 1.2-0.86 2.72-1.56 4.22-2.25q1.46-0.67 2.92-1.34 0.32-0.16 0.68-0.25c0.51-0.1 0.92 0.07 1.23 0.24 1.23 0.71 1.86 1.73 2.28 2.77 0.32 0.8 0.54 1.67 0.11 2.57-0.43 0.91-1.65 1.86-3.2 2.18-1.47 0.31-2.96-0.09-3.22-0.87"/>
		<path id="&lt;Path&gt;" class="s3" d="m269.14 2142.49c-0.95 0.66-2.15 1.31-3.47 1.48-1.7 0.22-3.05-0.48-3.19-1.41-0.14-0.93 0.73-2 1.93-2.86 1.21-0.86 2.72-1.56 4.22-2.25q1.46-0.67 2.92-1.34 0.32-0.16 0.69-0.25c0.5-0.09 0.92 0.07 1.23 0.25 1.23 0.7 1.85 1.72 2.27 2.77 0.33 0.8 0.54 1.66 0.12 2.57-0.43 0.9-1.66 1.86-3.21 2.18-1.47 0.3-2.95-0.1-3.22-0.88"/>
		<path id="&lt;Path&gt;" class="s4" d="m297.32 2136.41l36.7 3.77c2.05 0.21 4.48-0.67 5.43-1.97l25.5-35.08c0.94-1.3 0.05-2.52-2.01-2.73l-36.7-3.78c-2.05-0.21-4.48 0.67-5.43 1.97l-25.5 35.08c-0.94 1.3-0.05 2.53 2.01 2.74z"/>
		<path id="&lt;Compound Path&gt;" class="s5" d="m334.64 2141.06q-0.36 0-0.71-0.03l-36.7-3.78c-1.46-0.15-2.54-0.77-2.96-1.71-0.34-0.75-0.21-1.59 0.36-2.37l25.5-35.08c1.11-1.53 3.79-2.57 6.2-2.31l36.7 3.77c1.46 0.15 2.54 0.78 2.96 1.71 0.34 0.75 0.21 1.6-0.36 2.37l-25.5 35.08c-1 1.39-3.26 2.35-5.49 2.35zm-9.02-43.62c-1.64 0-3.45 0.72-4.12 1.65l-25.5 35.08c-0.14 0.19-0.28 0.46-0.18 0.68 0.12 0.27 0.6 0.61 1.58 0.71l36.71 3.78c1.76 0.19 3.9-0.6 4.65-1.63l25.5-35.07c0.14-0.19 0.28-0.46 0.18-0.69-0.12-0.26-0.6-0.61-1.58-0.71l-36.71-3.78q-0.26-0.02-0.53-0.02z"/>
		<path id="&lt;Path&gt;" class="s3" d="m313.41 2127.64c0.16-2.55-0.08-5.12-0.69-7.6-2.35 1.82-4.51 3.9-6.4 6.19-0.32 0.38-0.64 0.79-0.73 1.28-0.12 0.72 0.28 1.41 0.63 2.05q1.13 2.07 1.67 4.36c0.48-0.07 0.85-0.44 1.19-0.8q1.81-1.92 3.63-3.84c0.19-0.21 0.39-0.42 0.51-0.67 0.14-0.3 0.17-0.64 0.19-0.97z"/>
		<path id="&lt;Path&gt;" class="s3" d="m352.06 2109.8c0.16-2.54-0.08-5.12-0.69-7.6-2.35 1.82-4.5 3.9-6.4 6.19-0.32 0.38-0.64 0.8-0.73 1.29-0.12 0.71 0.28 1.4 0.63 2.04q1.13 2.07 1.67 4.36c0.48-0.07 0.85-0.44 1.19-0.8q1.81-1.92 3.63-3.84c0.19-0.21 0.39-0.42 0.51-0.67 0.14-0.3 0.17-0.64 0.19-0.97z"/>
		<path id="&lt;Path&gt;" class="s8" d="m403.31 1940.15c1.77-2.69 5.1-4.26 8.3-3.92 3.21 0.35 6.13 2.6 7.28 5.61 0.43 1.12 0.63 2.33 1.18 3.4 2.06 4.02 7.82 4.33 11.05 7.49 1.33 1.29 2.16 3.02 2.68 4.8 1.63 5.57 0.19 11.88-3.49 16.36-3.69 4.48-9.47 7.09-15.27 7.15-2.35 0.02-4.77-0.38-6.75-1.64-2.18-1.4-3.61-3.71-4.63-6.09-3.2-7.52-2.84-16.02-2.42-24.18 0.15-3.11 0.37-6.38 2.07-8.98z"/>
		<path id="&lt;Path&gt;" class="s8" d="m289.96 1993.4c4.08-2.69 5.36-8.03 5.95-12.88 0.89-7.26 0.99-14.71-0.78-21.82-1.77-7.1-5.54-13.85-11.35-18.31-0.54-0.41-1.12-0.81-1.79-0.91-0.87-0.13-1.72 0.28-2.51 0.68-1.54 0.77-3.11 1.57-4.36 2.76-2.97 2.83-3.62 7.36-3.2 11.43 0.41 4.08 1.71 8.05 1.95 12.14 0.43 7.39-2.62 14.63-2.47 22.03 0.01 0.76 0.07 1.56 0.49 2.19 0.4 0.61 1.06 0.98 1.71 1.31 5.11 2.63 11.57 4.55 16.36 1.38z"/>
		<path id="&lt;Path&gt;" class="s2" d="m411.87 2081.29c0-11.3-28.7-20.45-64.11-20.45-35.41 0-64.12 9.15-64.12 20.45 0 11.29 28.71 20.44 64.12 20.44 35.41 0 64.11-9.15 64.11-20.44z"/>
		<path id="&lt;Compound Path&gt;" class="s5" d="m347.76 2102.58c-36.43 0-64.97-9.35-64.97-21.29 0-11.95 28.54-21.3 64.97-21.3 36.43 0 64.96 9.35 64.96 21.3 0 11.94-28.53 21.29-64.96 21.29zm0-40.89c-34.3 0-63.27 8.97-63.27 19.6 0 10.62 28.97 19.59 63.27 19.59 34.29 0 63.26-8.97 63.26-19.59 0-10.63-28.97-19.6-63.26-19.6z"/>
		<path id="&lt;Path&gt;" class="s9" d="m401.75 2069.25c-4.52-7.5-15.16-27.58-13.47-48.13l-39.67 0.69-39.67-0.69c1.68 20.55-8.95 40.63-13.48 48.13-1.59 1.65-2.45 3.4-2.45 5.22 0 9.79 24.89 17.73 55.6 17.73 30.7 0 55.6-7.94 55.6-17.73 0-1.82-0.86-3.57-2.46-5.22z"/>
		<path id="&lt;Compound Path&gt;" class="s5" d="m348.61 2093.05c-31.65 0-56.45-8.16-56.45-18.58q0.01-2.98 2.62-5.74c4.6-7.64 14.97-27.38 13.31-47.54q-0.02-0.38 0.23-0.65c0.16-0.18 0.41-0.28 0.63-0.27l39.67 0.69 39.64-0.69q0.38-0.01 0.64 0.27 0.25 0.27 0.22 0.65c-1.65 20.16 8.72 39.9 13.31 47.54q2.62 2.76 2.62 5.74c0 10.42-24.79 18.58-56.44 18.58zm-38.76-71.07c1.32 20.4-9.08 40.11-13.66 47.71q-0.05 0.08-0.12 0.15-2.21 2.29-2.21 4.63c0 9.15 25.07 16.88 54.75 16.88 29.68 0 54.75-7.73 54.75-16.88q-0.01-2.34-2.22-4.63-0.06-0.07-0.11-0.15c-4.59-7.6-14.98-27.31-13.67-47.71l-38.74 0.68z"/>
		<path id="&lt;Path&gt;" class="s2" d="m395.09 2021.86c0-10.88-21.17-19.7-47.28-19.7-26.12 0-47.29 8.82-47.29 19.7 0 10.88 21.17 19.7 47.29 19.7 26.11 0 47.28-8.82 47.28-19.7z"/>
		<path id="&lt;Compound Path&gt;" class="s5" d="m347.81 2042.41c-26.99 0-48.13-9.03-48.13-20.55 0-11.52 21.14-20.55 48.13-20.55 26.99 0 48.13 9.03 48.13 20.55 0 11.52-21.14 20.55-48.13 20.55zm0-39.4c-25.61 0-46.44 8.46-46.44 18.85 0 10.4 20.83 18.85 46.44 18.85 25.6 0 46.44-8.45 46.44-18.85 0-10.39-20.84-18.85-46.44-18.85z"/>
		<path id="&lt;Path&gt;" class="s10" d="m412.72 1970.21c0-35.88-29.09-64.96-64.96-64.96-35.88 0-64.97 29.08-64.97 64.96 0 35.88 29.09 64.96 64.97 64.96 35.87 0 64.96-29.08 64.96-64.96z"/>
		<path id="&lt;Compound Path&gt;" class="s5" d="m347.76 2036.02c-36.29 0-65.82-29.52-65.82-65.81 0-36.29 29.53-65.81 65.82-65.81 36.28 0 65.81 29.52 65.81 65.81 0 36.29-29.53 65.81-65.81 65.81zm0-129.92c-35.36 0-64.12 28.76-64.12 64.11 0 35.35 28.76 64.11 64.12 64.11 35.35 0 64.11-28.76 64.11-64.11 0-35.35-28.76-64.11-64.11-64.11z"/>
		<path id="&lt;Path&gt;" class="s4" d="m322 1925.03c-0.94-3.09 1.84-6.56 5.06-6.71 0.92-0.04 1.84 0.14 2.74-0.02 1.05-0.19 1.96-0.8 2.9-1.3 1.83-0.95 3.86-1.47 5.89-1.85 2.16-0.42 4.4-0.69 6.56-0.28 2.17 0.4 4.28 1.58 5.38 3.49 0.32 0.58 0.56 1.24 0.45 1.89-0.3 1.71-2.52 2.15-4.26 2.2-5.78 0.17-11.78 0.46-16.91 3.14-1.09 0.57-2.15 1.25-3.35 1.59-1.19 0.33-2.59 0.25-3.51-0.58-0.46-0.41-0.77-0.98-0.95-1.57z"/>
		<path id="&lt;Path&gt;" class="s4" d="m335.27 2025.26c-3.25-0.23-6.25-1.84-8.9-3.74-2.13-1.53-4.28-3.7-4.07-6.31 0.15-1.74 1.4-3.26 2.95-4.07 1.54-0.82 3.35-1.01 5.09-0.93 7.45 0.34 14.23 5.26 21.68 4.97 9.67-0.38 17.46-9.4 27.14-9.49 0.62-0.01 1.28 0.03 1.81 0.36 0.41 0.26 0.7 0.67 0.93 1.1 1.28 2.4 0.67 5.49-0.97 7.66-1.64 2.17-4.13 3.54-6.68 4.48-9.13 3.35-19.34 1.8-28.79 4.09-3.37 0.81-6.73 2.13-10.19 1.88z"/>
		<path id="&lt;Path&gt;" class="s4" d="m379.13 1923.34c0.36 0.56 0.66 1.22 0.56 1.89-0.18 1.25-1.62 1.86-2.87 2.11-4.69 0.92-9.74-0.13-13.68-2.85-1.32-0.91-2.64-2.4-2.14-3.93 0.42-1.29 1.92-1.84 3.26-2.06 2.26-0.37 4.58-0.28 6.82 0.15 3.14 0.59 6.32 2 8.05 4.69z"/>
		<path id="&lt;Path&gt;" class="s3" d="m382.01 1958.44c-5.76-18.72-25.6-29.23-44.33-23.47-18.72 5.75-29.23 25.6-23.47 44.32 5.75 18.72 25.6 29.23 44.32 23.48 18.72-5.76 29.23-25.6 23.48-44.33z"/>
		<path id="&lt;Compound Path&gt;" class="s5" d="m348.1 2005.19q0 0-0.01 0c-16.03 0-29.98-10.31-34.7-25.65-2.85-9.27-1.92-19.1 2.62-27.67 4.54-8.57 12.15-14.87 21.42-17.72 3.49-1.07 7.08-1.61 10.69-1.61 16.04 0 29.98 10.31 34.7 25.65 5.88 19.14-4.9 39.5-24.04 45.39-3.48 1.07-7.08 1.61-10.68 1.61zm0.02-70.95c-3.44 0-6.87 0.52-10.19 1.54-8.84 2.71-16.09 8.71-20.42 16.88-4.32 8.17-5.21 17.54-2.49 26.38 4.49 14.63 17.79 24.45 33.07 24.45q0.01 0 0.01 0c3.43 0 6.86-0.51 10.18-1.53 18.25-5.61 28.53-25.02 22.92-43.27-4.5-14.62-17.79-24.45-33.08-24.45z"/>
		<path id="&lt;Path&gt;" class="s4" d="m373.17 1961.16c-4.26-13.84-18.93-21.61-32.77-17.36-13.84 4.26-21.61 18.93-17.36 32.77 4.26 13.84 18.93 21.62 32.77 17.36 13.84-4.26 21.62-18.93 17.36-32.77z"/>
		<path id="&lt;Compound Path&gt;" class="s11" d="m348.1 1995.94q0 0 0 0c-11.96 0-22.35-7.68-25.87-19.12-2.12-6.91-1.43-14.23 1.96-20.62 3.38-6.39 9.05-11.08 15.96-13.21 2.6-0.79 5.28-1.2 7.97-1.2 11.95 0 22.34 7.68 25.86 19.12 2.13 6.91 1.43 14.24-1.95 20.63-3.39 6.39-9.06 11.08-15.97 13.2-2.59 0.8-5.27 1.2-7.96 1.2zm0.02-52.45c-2.52 0-5.04 0.38-7.47 1.13-6.48 1.99-11.79 6.38-14.96 12.37-3.18 5.99-3.83 12.86-1.84 19.33 3.3 10.72 13.04 17.93 24.25 17.93q0 0 0 0c2.52 0 5.03-0.38 7.46-1.13 6.48-1.99 11.8-6.39 14.97-12.38 3.17-5.99 3.82-12.85 1.83-19.33-3.3-10.72-13.04-17.92-24.24-17.92z"/>
		<path id="&lt;Path&gt;" class="s3" d="m366.05 1963.35c-3.05-9.91-13.55-15.47-23.46-12.42-9.91 3.04-15.47 13.54-12.42 23.45 3.04 9.91 13.54 15.47 23.45 12.43 9.91-3.05 15.47-13.55 12.43-23.46z"/>
		<path id="&lt;Compound Path&gt;" class="s5" d="m348.1 1988.49q0 0 0 0c-8.66 0-16.2-5.57-18.75-13.86-3.17-10.34 2.65-21.34 12.99-24.52q2.84-0.86 5.77-0.87c8.67 0 16.2 5.57 18.75 13.86 1.54 5.01 1.03 10.32-1.42 14.95-2.45 4.63-6.56 8.03-11.57 9.57q-2.83 0.87-5.77 0.87zm0.01-37.55q-2.68 0-5.27 0.8c-9.44 2.9-14.77 12.95-11.86 22.39 2.33 7.57 9.21 12.66 17.12 12.66q0 0 0 0 2.68 0 5.27-0.8c4.58-1.4 8.33-4.51 10.57-8.74 2.24-4.23 2.7-9.07 1.29-13.65-2.32-7.57-9.2-12.66-17.12-12.66z"/>
		<path id="&lt;Path&gt;" class="s4" d="m359.29 1965.43c-1.9-6.17-8.45-9.64-14.62-7.74-6.18 1.9-9.64 8.44-7.74 14.61 1.9 6.18 8.44 9.64 14.61 7.75 6.18-1.9 9.64-8.45 7.75-14.62z"/>
		<path id="&lt;Compound Path&gt;" class="s11" d="m348.1 1981.41q0 0 0 0c-5.54 0-10.35-3.56-11.98-8.86-0.99-3.2-0.67-6.59 0.9-9.56 1.57-2.96 4.2-5.13 7.4-6.11q1.81-0.56 3.69-0.56c5.54 0 10.36 3.56 11.99 8.86 2.03 6.61-1.7 13.65-8.31 15.68q-1.81 0.55-3.69 0.55zm0.01-23.39q-1.62 0-3.19 0.48c-2.77 0.85-5.04 2.73-6.4 5.29-1.36 2.56-1.63 5.49-0.78 8.26 1.41 4.59 5.57 7.67 10.36 7.67q0 0 0 0 1.63 0 3.19-0.49c5.72-1.75 8.94-7.83 7.18-13.55-1.4-4.58-5.57-7.66-10.36-7.66z"/>
		<path id="&lt;Path&gt;" class="s3" d="m353.68 1967.15c-0.95-3.07-4.21-4.8-7.29-3.86-3.08 0.95-4.8 4.21-3.86 7.29 0.95 3.08 4.21 4.81 7.29 3.86 3.08-0.95 4.81-4.21 3.86-7.29z"/>
		<path id="&lt;Compound Path&gt;" class="s5" d="m348.1 1975.55c-2.95 0-5.51-1.9-6.38-4.72-1.08-3.52 0.9-7.27 4.42-8.35q0.97-0.29 1.97-0.29c2.95 0 5.51 1.89 6.38 4.71 0.53 1.71 0.35 3.52-0.48 5.09-0.84 1.58-2.24 2.74-3.94 3.26q-0.97 0.3-1.97 0.3zm0.01-11.67q-0.75 0-1.47 0.22c-2.62 0.81-4.1 3.61-3.3 6.23 0.65 2.11 2.56 3.52 4.76 3.52q0.75 0 1.47-0.22c1.27-0.39 2.32-1.26 2.94-2.43 0.62-1.18 0.75-2.53 0.36-3.8-0.65-2.1-2.56-3.52-4.76-3.52z"/>
		<path id="&lt;Path&gt;" class="s9" d="m313.39 1948.16l-1.29-6.12-9.94-6.31 2.83 8.64z"/>
		<path id="&lt;Compound Path&gt;" class="s5" d="m313.39 1949.01q-0.18 0-0.35-0.07l-8.4-3.79q-0.34-0.16-0.46-0.51l-2.83-8.65c-0.11-0.34 0-0.71 0.29-0.93 0.28-0.22 0.67-0.24 0.97-0.05l9.95 6.31q0.29 0.19 0.37 0.54l1.29 6.13c0.06 0.31-0.05 0.64-0.3 0.84q-0.24 0.18-0.53 0.18zm-7.71-5.26l6.53 2.95-0.87-4.14-7.64-4.85z"/>
		<path id="&lt;Path&gt;" class="s9" d="m313.41 1948.07l-5.56 2.87-11.17-3.73 8.49-3.26z"/>
		<path id="&lt;Compound Path&gt;" class="s5" d="m307.85 1951.79q-0.14 0-0.27-0.04l-11.17-3.73c-0.34-0.11-0.57-0.43-0.58-0.79-0.01-0.36 0.21-0.68 0.55-0.81l8.48-3.26q0.35-0.13 0.69 0.03l8.24 4.12c0.29 0.14 0.47 0.44 0.47 0.76 0 0.32-0.17 0.61-0.46 0.76l-5.56 2.87q-0.19 0.09-0.39 0.09zm-8.66-4.63l8.59 2.86 3.76-1.94-6.42-3.2z"/>
		<path id="&lt;Path&gt;" class="s5" d="m345.78 1968.1q-0.3 0.07-0.59-0.08l-40.39-22.95c-0.39-0.22-0.53-0.72-0.3-1.11 0.22-0.39 0.72-0.53 1.11-0.31l40.39 22.94c0.39 0.23 0.53 0.73 0.31 1.12q-0.19 0.31-0.53 0.39z"/>
		<path id="&lt;Path&gt;" class="s9" d="m349.05 1969.53l-5.39-9.72-0.44 5.92-4.98 3.13z"/>
		<path id="&lt;Compound Path&gt;" class="s5" d="m349.05 1970.38q-0.02 0-0.05 0l-10.81-0.68c-0.37-0.02-0.68-0.28-0.77-0.63-0.09-0.36 0.06-0.74 0.37-0.93l4.61-2.9 0.41-5.5c0.03-0.37 0.3-0.68 0.67-0.76 0.36-0.08 0.74 0.09 0.92 0.42l5.39 9.72c0.15 0.27 0.15 0.6-0.02 0.86-0.16 0.25-0.43 0.4-0.72 0.4zm-8.12-2.21l6.63 0.42-3.27-5.89-0.22 3.09c-0.02 0.27-0.17 0.51-0.4 0.66z"/>
	</g>
</svg>