<svg version="1.2" xmlns="http://www.w3.org/2000/svg" viewBox="0 0 1080 1080" width="1080" height="1080">
	<style>
		.s0 { fill: #f2c9cc } 
		.s1 { fill: #ffffff } 
		.s2 { fill: #333333 } 
		.s3 { fill: #fc5e71 } 
		.s4 { fill: #2b2b2b } 
		.s5 { fill: #f2cf63 } 
		.s6 { fill: #a2bff9 } 
		.s7 { fill: #363636 } 
		.s8 { fill: #f29199 } 
	</style>
	<g id="Layer 1">
		<path id="&lt;Path&gt;" class="s0" d="m547.63 322.84c30.74 34.8 87.75 37.08 130.02 46.53q83.74 18.73 167.48 37.46c16.03 3.58 32.56 7.39 45.85 17.04 63.11 45.79 28.48 151.71-18.82 193.81-37.21 33.12-84.6 51.89-128.87 74.74-85.7 44.23-156.82 106.8-251.31 133.83-188.04 53.78-473.82 6.08-472.98-241.22 0.23-67 31.84-134.68 87.21-172.4 22.2-15.12 47.61-25.35 68.76-41.92 63.32-49.59 18.14-136.5 56.88-197.95 29.82-47.31 95.58-54.78 146.37-56.24 33.67-0.98 70.29 1.46 95.86 23.39 53.64 45.99 28.27 131.69 73.55 182.93z"/>
		<path id="&lt;Path&gt;" class="s1" d="m550.95 153.94l12.67-4.02-12.67-4.32c-3.79-1-6.69-4.05-7.5-7.88l-4.02-19.03-4.32 18.61c-0.91 3.93-4.01 6.97-7.95 7.8l-11.93 4.11 11.51 4.06c4.03 0.93 7.12 4.18 7.86 8.25l3.33 18.4 4.84-18.42c1.03-3.89 4.22-6.84 8.18-7.56z"/>
		<path id="&lt;Compound Path&gt;" class="s2" d="m537.93 181.88q-0.04 0-0.08 0c-0.92-0.04-1.68-0.71-1.85-1.61l-3.32-18.4c-0.6-3.31-3.1-5.94-6.38-6.7q-0.11-0.03-0.21-0.06l-11.51-4.06c-0.78-0.28-1.3-1.02-1.3-1.85 0-0.83 0.53-1.57 1.32-1.84l11.92-4.1q0.12-0.04 0.23-0.07c3.19-0.67 5.72-3.16 6.46-6.33l4.32-18.61c0.2-0.89 0.99-1.51 1.9-1.51q0.01 0 0.02 0c0.91 0.01 1.7 0.65 1.89 1.55l4.02 19.02c0.66 3.13 3 5.58 6.09 6.4l12.8 4.36c0.8 0.28 1.33 1.03 1.32 1.87-0.01 0.85-0.55 1.59-1.36 1.84l-12.67 4.02q-0.12 0.04-0.24 0.07c-3.2 0.57-5.81 2.98-6.64 6.13l-4.85 18.42c-0.22 0.86-1 1.46-1.88 1.46zm-10.64-30.49c4.75 1.15 8.36 4.97 9.23 9.78l1.76 9.73 2.6-9.89c1.21-4.57 4.96-8.08 9.6-8.96l6.9-2.2-7.06-2.41c-4.4-1.15-7.81-4.74-8.78-9.32l-2.2-10.4-2.32 10.03c-1.07 4.6-4.73 8.21-9.33 9.24l-6.52 2.24z"/>
		<path id="&lt;Path&gt;" class="s2" d="m113.25 434.94l17.03-5.41-17.03-5.81c-5.09-1.34-8.99-5.44-10.08-10.59l-5.41-25.57-5.8 25.02c-1.22 5.27-5.39 9.36-10.69 10.48l-16.03 5.51 15.47 5.46c5.42 1.26 9.57 5.62 10.56 11.09l4.47 24.74 6.52-24.76c1.38-5.23 5.67-9.2 10.99-10.16z"/>
		<path id="&lt;Path&gt;" class="s2" d="m909.66 424.62l14.42-4.58-14.43-4.92c-4.31-1.14-7.61-4.61-8.54-8.97l-4.57-21.66-4.91 21.19c-1.04 4.47-4.57 7.93-9.06 8.88l-13.57 4.67 13.1 4.62c4.59 1.07 8.1 4.76 8.94 9.4l3.79 20.95 5.52-20.97c1.16-4.44 4.79-7.79 9.31-8.61z"/>
		<path id="&lt;Path&gt;" class="s3" d="m840.15 144.95c-36.83 0.08-68.56 20.44-85.63 50.26-17.21-29.74-49.02-49.95-85.84-49.87-54.84 0.13-99.18 44.67-99.05 99.5 0.12 54.83 80.38 127.3 185.56 243.25 99.04-106.27 184.59-189.27 184.46-244.09-0.12-54.83-44.68-99.18-99.5-99.05z"/>
		<path id="&lt;Compound Path&gt;" class="s2" d="m755.19 490.05q0 0-0.01 0c-0.55-0.01-1.07-0.24-1.43-0.64-20.8-22.93-40.24-43.75-59.04-63.88-76.44-81.86-126.94-135.93-127.04-180.68-0.12-55.82 45.18-101.34 101-101.46h0.23c34.63 0 67.13 18.31 85.61 48.01 18.4-29.86 50.91-48.33 85.63-48.4h0.24c55.69 0 101.1 45.3 101.23 100.99 0.11 48.77-65.56 118.49-148.69 206.75-11.77 12.5-23.94 25.43-36.3 38.69-0.37 0.39-0.89 0.62-1.43 0.62zm-86.29-342.76h-0.22c-53.66 0.13-97.22 43.88-97.1 97.55 0.1 43.21 52.9 99.76 125.98 178.02 18.38 19.69 37.38 40.02 57.65 62.35 11.87-12.72 23.55-25.13 34.87-37.14 82.53-87.64 147.73-156.86 147.62-204.07-0.12-53.54-43.78-97.1-97.32-97.1h-0.23c-34.41 0.08-66.58 18.96-83.93 49.28-0.35 0.61-0.99 0.98-1.69 0.98q0 0-0.01 0c-0.69 0-1.34-0.37-1.69-0.97-17.45-30.16-49.61-48.9-83.93-48.9z"/>
		<path id="&lt;Path&gt;" class="s1" d="m665.69 253.01c-22.95 0-41.5-18.55-41.5-41.5 0-22.95 18.55-41.5 41.5-41.5 22.95 0 41.5 18.55 41.5 41.5 0 22.95-18.55 41.5-41.5 41.5z"/>
		<path id="&lt;Path&gt;" class="s1" d="m632.49 270.58c-14.31 0-25.88-11.56-25.88-25.87 0-14.31 11.57-25.88 25.88-25.88 14.31 0 25.87 11.57 25.87 25.88 0 14.31-11.56 25.87-25.87 25.87z"/>
		<path id="&lt;Path&gt;" class="s1" d="m280.9 334.43l-36.04-45.27c3.94-10.4 5.93-21.62 5.52-33.3-1.79-49.88-46.44-88.77-99.71-86.85-53.28 1.91-95.02 43.9-93.23 93.78 1.79 49.88 46.43 88.77 99.71 86.85 21.98-0.79 41.99-8.41 57.8-20.58z"/>
		<path id="&lt;Compound Path&gt;" class="s4" d="m153.39 351.66c-53.11 0-96.11-39.01-97.9-88.8-1.83-50.88 40.84-93.86 95.11-95.81q1.92-0.07 3.83-0.06c53.11 0 96.11 39.01 97.9 88.8 0.4 11.26-1.36 22.36-5.25 33.02l35.35 44.4c0.49 0.61 0.56 1.45 0.2 2.14-0.37 0.68-1.12 1.06-1.89 1.02l-65.21-5.31c-16.7 12.67-36.84 19.76-58.31 20.53q-1.92 0.07-3.83 0.07zm1.04-180.77q-1.84 0-3.69 0.07c-52.12 1.87-93.1 43.03-91.35 91.76 1.75 48.83 45.01 86.84 97.69 84.97 20.91-0.75 40.5-7.73 56.67-20.18 0.39-0.3 0.87-0.44 1.35-0.4l61.46 5-33.22-41.73c-0.43-0.54-0.55-1.27-0.3-1.91 3.97-10.49 5.78-21.43 5.38-32.54-1.71-47.68-43-85.04-93.99-85.04z"/>
		<path id="&lt;Path&gt;" class="s5" d="m217.31 248.8c-3.91-35.22-35.64-60.59-70.86-56.67-35.21 3.92-60.58 35.64-56.66 70.86 3.92 35.22 35.64 60.59 70.86 56.67 35.21-3.92 60.58-35.65 56.66-70.86z"/>
		<path id="&lt;Path&gt;" class="s4" d="m177.74 239c-1.12-10.03-4.49-17.89-7.54-17.55-3.05 0.34-4.61 8.75-3.5 18.78 1.12 10.03 4.5 17.89 7.54 17.55 3.05-0.34 4.62-8.75 3.5-18.78z"/>
		<path id="&lt;Path&gt;" class="s4" d="m135.44 243.71c-1.12-10.03-4.5-17.89-7.54-17.55-3.05 0.34-4.62 8.75-3.5 18.78 1.12 10.03 4.49 17.89 7.54 17.55 3.05-0.34 4.61-8.75 3.5-18.78z"/>
		<path id="&lt;Path&gt;" class="s1" d="m113.77 272.12c0 0 40.43 14.74 82.77-9.22 0 0-6.57 35.8-39.06 39.42-32.5 3.62-43.71-30.2-43.71-30.2z"/>
		<path id="&lt;Compound Path&gt;" class="s4" d="m152.69 304.54c-29.89 0-40.67-31.49-40.77-31.81-0.24-0.71-0.05-1.49 0.49-2.02 0.53-0.52 1.32-0.69 2.03-0.43 0.12 0.04 12.24 4.37 29.78 4.37 18.31 0 35.59-4.52 51.36-13.45 0.66-0.37 1.47-0.33 2.09 0.11 0.62 0.44 0.93 1.2 0.79 1.95-0.07 0.37-7.22 37.27-40.77 41q-2.54 0.28-5 0.28zm-35.52-29.36c3.71 7.84 14.39 25.46 35.52 25.46q2.25 0 4.57-0.26c24.48-2.72 33.53-24.36 36.31-33.65-15.29 7.85-31.87 11.83-49.35 11.83-12.31 0-21.93-2.01-27.05-3.38z"/>
		<path id="&lt;Path&gt;" class="s4" d="m328.02 363.38c1.67-15.64 7.99-27.95 21.96-28.29 13.98-0.33 101.84-0.99 107.49 1 5.66 2 19.64 28.29 19.64 28.29l-47.26 13.31h-107.15z"/>
		<path id="&lt;Path&gt;" class="s2" d="m445.16 357.72c0 0 30.95 4.99 39.93 10.98 8.99 5.99 21.97 551.09 21.97 551.09 0 0-135.78 45.92-203.66-7.99l14.64-540.43 39.93-13.31z"/>
		<path id="&lt;Path&gt;" class="s6" d="m337.84 379.19c-1.5-15.98 1-35.94 11.98-38.94l-1.5-12.48c-22.96 1.5-30.28 30.95-30.28 30.95 0 0-79.87 18.64-143.76 61.23-63.9 42.6-101.17 242.27-101.17 242.27l109.62 1.52 16.28 260.54c44.1 14.79 88.45 26.31 134.54 27.03 5.2-193.7 5.41-560.17 4.29-572.12z"/>
		<path id="&lt;Compound Path&gt;" class="s2" d="m335.45 953.29l-1.93-0.03c-50.39-0.78-98.69-14.91-135.13-27.12l-1.25-0.42-16.25-260.06-110.12-1.52 0.42-2.28c1.53-8.19 38.16-200.97 102-243.53 59.34-39.56 133.26-58.76 143.27-61.24 1.67-5.69 10.01-29.85 31.73-31.27l1.85-0.12 1.92 15.99-1.63 0.45c-9.38 2.56-12.04 20.9-10.55 36.86 1 10.64 1 375.88-4.28 572.36zm-134.57-30.44c35.55 11.87 82.18 25.38 130.77 26.47 5.22-196.84 5.24-559.38 4.25-569.95-1.51-16.05 0.77-35.76 11.79-40.45l-1.08-9.01c-19.86 2.81-26.61 29.01-26.67 29.28l-0.29 1.16-1.17 0.27c-0.79 0.19-80.27 19.05-143.12 60.95-58.83 39.23-95.49 216.49-99.88 238.72l109.08 1.52z"/>
		<path id="&lt;Path&gt;" class="s6" d="m758.49 638.59c-18.73-52.43-73.41-194.45-128.97-233.27-28.94-20.26-144.42-50.59-144.42-50.59 0 0-7.38-23.74-38.47-26.85l1.03 11.88c0 0 15.47 1.99 17.46 15.46 1.46 9.77 13.4 378.85 19.86 581.02 46.39-2.99 92.82-7.68 135.7-24.1l-0.3-153.13c-0.1-51.95 119.32-96.94 119.32-96.94q0.43-0.05 0.86-0.1c8.38-1.02 16.7-2.25 24.73-3.75 0 0-2.43-7.36-6.8-19.63z"/>
		<path id="&lt;Compound Path&gt;" class="s2" d="m483.09 938.32l-0.07-2.02c-11.56-362.1-18.79-573.79-19.83-580.79-1.75-11.82-15.21-13.74-15.78-13.82l-1.55-0.2-1.38-15.79 2.34 0.24c28.2 2.82 37.81 22.38 39.75 27.16 12.02 3.19 116.26 31.16 144.07 50.62 55.36 38.68 109.14 176.68 129.69 234.22 4.33 12.14 6.79 19.6 6.81 19.67l0.7 2.12-2.19 0.41c-7.59 1.42-15.95 2.69-24.85 3.77l-0.63 0.07c-5.76 2.22-117.93 46.06-117.84 95.03l0.31 154.47-1.26 0.48c-44.78 17.15-93.82 21.5-136.28 24.23zm-33.61-600.2c4.25 0.99 15.79 4.75 17.58 16.82 1.45 9.74 13 366.1 19.81 579.22 41.3-2.7 88.63-7.08 131.86-23.37l-0.3-151.78c-0.1-52.69 115.66-96.91 120.59-98.77l0.42-0.11 0.87-0.1c7.98-0.96 15.5-2.08 22.41-3.32-1.01-3.02-3.1-9.13-6.07-17.46-20.42-57.18-73.8-194.29-128.25-232.33-28.33-19.82-142.64-49.99-143.79-50.3l-1.05-0.27-0.32-1.04c-0.28-0.89-7.07-21.39-34.46-25.2z"/>
		<path id="&lt;Path&gt;" class="s4" d="m477.11 669.49q-0.29 0-0.58-0.08c-1.03-0.32-1.61-1.42-1.29-2.45l34.39-110.44-26.31-57.89c-0.28-0.61-0.23-1.31 0.13-1.87l36.05-55.7c-3.33-7.93-26.54-63.07-38.18-88.17-0.45-0.98-0.02-2.14 0.96-2.6 0.98-0.45 2.14-0.02 2.59 0.95 12.51 27.01 38.37 88.64 38.63 89.26 0.25 0.59 0.19 1.27-0.16 1.81l-36.03 55.68 26.18 57.59c0.2 0.44 0.23 0.93 0.09 1.39l-34.61 111.15c-0.26 0.84-1.03 1.37-1.86 1.37z"/>
		<path id="&lt;Path&gt;" class="s4" d="m336.67 670.82c-0.85 0-1.63-0.56-1.87-1.41l-30.62-107.83q-0.15-0.54 0.01-1.09l17.64-58.79-35.8-36.45c-0.5-0.51-0.68-1.25-0.48-1.94 0.21-0.68 20.74-68.28 30.6-105.09 0.28-1.04 1.35-1.67 2.39-1.39 1.05 0.28 1.66 1.35 1.38 2.4-9.18 34.27-27.58 95.14-30.29 104.11l35.79 36.44c0.5 0.51 0.68 1.25 0.48 1.93l-17.81 59.36 30.46 107.27c0.3 1.04-0.31 2.12-1.34 2.41q-0.27 0.08-0.54 0.07z"/>
		<path id="&lt;Path&gt;" class="s7" d="m198.07 832.06c-2.31 0-4.52-0.15-6.54-0.35-3.84-0.29-9.51-1.07-13.99-4.36-4.05-2.66-7.51-8.27-6.16-13.76 1.47-5.95 7.56-9.78 16.69-10.51 5.55-0.44 9.98 0.5 13.16 2.78 2.29 1.64 3.88 4.35 4.28 7.24 0.33 2.45-0.26 4.76-1.67 6.5-0.48 0.59-1.26 0.85-1.99 0.67-0.77-0.19-1.64-0.41-2.13-0.37-1.07 0.09-2.01-0.71-2.1-1.79-0.08-1.08 0.72-2.02 1.79-2.1 0.66-0.06 1.31 0.02 1.97 0.15 0.36-0.9 0.35-1.83 0.26-2.53-0.25-1.83-1.28-3.59-2.69-4.6-3-2.15-7.4-2.31-10.57-2.05-3.48 0.28-11.73 1.56-13.2 7.55-0.92 3.68 1.68 7.7 4.58 9.61 2.93 2.14 6.63 3.26 12.11 3.68 5.63 0.54 12.84 0.78 19.06-2.13 4.89-2.62 9.31-8.93 7.76-14.48-1.15-4.37-5.34-7.94-12.47-10.64-7.02-2.66-15.02-3.87-23.76-3.59-1.08 0.12-1.98-0.82-2.02-1.89-0.03-1.08 0.81-1.98 1.89-2.02 9.27-0.32 17.77 1 25.27 3.85 8.38 3.17 13.38 7.63 14.86 13.27 2.09 7.49-3.33 15.54-9.78 18.99-4.8 2.25-9.92 2.88-14.61 2.88z"/>
		<path id="&lt;Path&gt;" class="s4" d="m313.87 735.46c-5.77 0-10.43-4.67-10.43-10.44 0-5.77 4.66-10.44 10.43-10.44 5.78 0 10.44 4.67 10.44 10.44 0 5.77-4.66 10.44-10.44 10.44z"/>
		<path id="&lt;Path&gt;" class="s4" d="m314.38 816.41c-5.77 0-10.44-4.66-10.44-10.43 0-5.78 4.67-10.44 10.44-10.44 5.77 0 10.44 4.66 10.44 10.44 0 5.77-4.67 10.43-10.44 10.43z"/>
		<path id="&lt;Path&gt;" class="s4" d="m310.38 895.28c-5.77 0-10.43-4.66-10.43-10.44 0-5.77 4.66-10.43 10.43-10.43 5.78 0 10.44 4.66 10.44 10.43 0 5.78-4.66 10.44-10.44 10.44z"/>
		<path id="&lt;Path&gt;" class="s1" d="m439.77 233.09c0 0 8.95-21.12 23.04-21.15 14.1-0.03 26.03 27.01 14.71 37.38-11.32 10.36-31.3 5.55-31.3 5.55z"/>
		<path id="&lt;Compound Path&gt;" class="s4" d="m456.91 257.94c-6.22 0-10.95-1.12-11.15-1.17-0.68-0.16-1.22-0.67-1.42-1.34l-6.45-21.79c-0.12-0.43-0.1-0.9 0.08-1.31 0.39-0.91 9.63-22.31 24.84-22.34 8.63 0 15.74 8.38 18.97 16.68 2.96 7.63 3.75 17.96-2.94 24.09-6.48 5.94-15.5 7.18-21.93 7.18zm-9.15-4.74c1.66 0.31 5.09 0.83 9.15 0.83 5.74 0 13.74-1.06 19.29-6.15 5.24-4.8 4.44-13.37 1.94-19.79-3.25-8.36-9.54-14.2-15.3-14.2-11.37 0.03-19.42 15.97-20.99 19.34z"/>
		<path id="&lt;Path&gt;" class="s4" d="m428.95 139.85c11.77 9.24 18.11 35.83 20.36 60.49 2.26 24.65-21.32-41.96-21.32-41.96l-21.55-14.23z"/>
		<path id="&lt;Path&gt;" class="s1" d="m453.39 207.16c-11.66-24.56-12.49-44.79-20.74-55.81 0 0-32.52-49.91-100.1-13.58q-1.22 0.66-2.4 1.34c-34.05 19.87-47.61 57.44-26.44 92.15l18.21 29.86c-6.23-1.27-13-1.2-18.28 2.57-13.31 9.47-6.32 43.02 11.35 45.15 12.04 1.46 23.11-6.45 28.94-11.63l2.8 4.59 6.46 64.55c79.66 46.91 96.15-5.57 96.15-5.57l-5.07-50.16c44.79-25.37 20.44-79.6 9.12-103.46z"/>
		<path id="&lt;Compound Path&gt;" class="s4" d="m410.31 387.8q0 0-0.01 0c-16.28 0-35.83-6.65-58.1-19.76-0.54-0.32-0.89-0.87-0.95-1.49l-6.42-64.12-1.37-2.24c-5.57 4.59-15.04 10.78-25.53 10.78q-1.61 0-3.18-0.19c-10.3-1.24-16.45-11.42-18.76-20.53-2.53-9.91-1.49-22.46 6.51-28.15 4.09-2.92 9.33-4.11 15.58-3.53l-16.04-26.3c-9.81-16.09-12.77-33.43-8.55-50.15 4.57-18.06 17.24-33.94 35.67-44.69q1.21-0.71 2.47-1.38c16.64-8.95 32.64-13.48 47.57-13.48 36.6 0 54.35 26.59 55.08 27.72 4.37 5.81 6.75 14.24 9.52 23.99 2.68 9.46 5.72 20.18 11.35 32.04 10.19 21.47 37.12 78.21-8.81 105.36l4.94 48.91q0.04 0.4-0.08 0.78c-0.08 0.26-8.67 26.43-40.89 26.43zm-55.27-22.63c21.3 12.43 39.89 18.72 55.26 18.73 27.65 0 35.95-20.25 37.05-23.34l-5.02-49.74c-0.08-0.77 0.31-1.52 0.98-1.9 44.3-25.1 18.16-80.18 8.31-100.92-5.76-12.16-8.85-23.04-11.58-32.65-2.77-9.77-4.96-17.48-8.96-22.82-0.24-0.37-17.46-26.06-51.88-26.06-14.28 0-29.66 4.38-45.72 13.02q-1.2 0.64-2.35 1.31c-17.52 10.22-29.54 25.24-33.85 42.28-3.96 15.67-1.16 31.98 8.1 47.16l18.21 29.86c0.4 0.66 0.38 1.5-0.07 2.14-0.45 0.64-1.22 0.94-1.99 0.79-6.96-1.42-12.68-0.66-16.76 2.25-5.54 3.94-7.59 13.81-5 24.01 2 7.85 7.11 16.61 15.45 17.61q1.34 0.17 2.71 0.17c10.41 0 19.95-7.09 24.71-11.32 0.43-0.38 1.01-0.56 1.58-0.47 0.58 0.08 1.08 0.42 1.38 0.91l2.8 4.59q0.23 0.38 0.28 0.82z"/>
		<path id="&lt;Path&gt;" class="s4" d="m444.72 308.61c-12.19 6.19-39.96 7.66-52.82 5.14 0 0 38.52 14.8 55.74 11.78z"/>
		<path id="&lt;Path&gt;" class="s4" d="m309.9 259.99l-29.62-51.43 57.68-25.34c0 0-16.22 22.28-7.89 48.23 3.23 10.06 6.37 17.61 8.99 23.09 2.37 4.94-1.9 10.47-7.29 9.47z"/>
		<path id="&lt;Path&gt;" class="s4" d="m308.22 286.61q-0.22 0.01-0.44-0.04c-1.05-0.25-1.71-1.29-1.47-2.34 0.11-0.5 2.9-12.12 14.07-14.31 11.4-2.25 18.25 11.87 18.54 12.47 0.46 0.97 0.05 2.13-0.93 2.6-0.97 0.46-2.13 0.05-2.6-0.92-0.06-0.12-5.83-11.99-14.26-10.31-8.71 1.7-10.99 11.24-11.01 11.34-0.21 0.9-1.01 1.51-1.9 1.51z"/>
		<path id="&lt;Path&gt;" class="s4" d="m324.12 284.3q-0.3 0-0.61-0.1c-1.02-0.34-1.58-1.44-1.24-2.47l3.19-9.66c0.33-1.03 1.43-1.59 2.46-1.25 1.03 0.34 1.58 1.45 1.24 2.47l-3.18 9.67c-0.27 0.82-1.04 1.34-1.86 1.34z"/>
		<path id="&lt;Path&gt;" class="s1" d="m410.93 221.71c0 0 10.09 12.41 11.09 14.76 1 2.35-3.29 9.54-3.29 9.54"/>
		<path id="&lt;Path&gt;" class="s4" d="m418.72 247.96q-0.52 0.01-1-0.27c-0.92-0.55-1.22-1.75-0.67-2.68 1.87-3.15 3.38-6.88 3.15-7.82-0.53-1.27-5.91-8.25-10.79-14.24-0.68-0.84-0.55-2.07 0.28-2.75 0.84-0.68 2.07-0.56 2.75 0.28 1.72 2.11 10.33 12.75 11.38 15.23 1.25 2.94-1.98 8.88-3.42 11.3-0.36 0.61-1.01 0.95-1.68 0.95z"/>
		<path id="&lt;Path&gt;" class="s1" d="m439.7 282.76c0 0 6.47 7.66 0.87 15.19"/>
		<path id="&lt;Path&gt;" class="s4" d="m440.56 299.9c-0.4 0-0.81-0.12-1.16-0.39-0.87-0.64-1.05-1.86-0.4-2.73 4.62-6.21-0.74-12.7-0.79-12.76-0.7-0.83-0.59-2.06 0.23-2.75 0.82-0.7 2.06-0.6 2.75 0.23 2.59 3.06 6.11 10.68 0.94 17.61-0.38 0.52-0.97 0.79-1.57 0.79z"/>
		<path id="&lt;Path&gt;" class="s4" d="m377.88 193.16c0.79 1.3 0.12 2.96-0.6 4.29-3.67 6.82-8.68 12.91-14.66 17.83-1.06 0.87-2.19 1.72-3.52 2.07-2.28 0.59-4.9-0.63-5.92-2.76-0.83-1.74-0.61-3.84 0.15-5.62 0.76-1.78 2-3.3 3.25-4.78 4.62-5.52 10.01-11.27 17.14-12.29 1.52-0.21 3.36-0.05 4.16 1.26z"/>
		<path id="&lt;Path&gt;" class="s4" d="m407.22 185.48c0.27 1.31 1.7 1.98 2.97 2.41 6.47 2.18 13.37 3.09 20.19 2.66 1.21-0.08 2.45-0.2 3.52-0.78 1.83-1 2.78-3.36 2.16-5.35-0.52-1.62-1.93-2.85-3.49-3.53-1.56-0.69-3.27-0.92-4.97-1.13-6.3-0.77-13.25-1.23-18.45 2.4-1.12 0.78-2.21 1.99-1.93 3.32z"/>
		<path id="&lt;Path&gt;" class="s4" d="m459.92 116.01c2.69 17.38-6.41 37.24-16.03 43.4-1.53 0.97-3.06 1.62-4.56 1.84-11.03 1.72-37.19-18.25-73.4-3.11-34.27 14.35-21.31 41.7-66.4 54.53-2.56 0.73-5.28 1.42-8.23 2.04-14.4 3.06-29.07-39.67-14.3-51.11 14.74-11.45 27.28-6.31 38.57-24.26 11.28-17.98-0.47-35.81 16.39-44.99 16.86-9.16 51.91-23.27 55.67-2.92 3.75 20.37 20.81 27.22 32.27 15.64 11.48-11.59 36.92-11.17 40.02 8.94z"/>
		<path id="&lt;Path&gt;" class="s4" d="m274.87 183.09c-0.42 0-0.85-0.14-1.2-0.42-6.64-5.24-8.85-15.25-5.04-22.79 4.09-8.09 12.81-11.61 22.13-14.8 7.76-2.64 16.3-6.05 19.55-13.16 1.89-4.15 1.58-9.35-0.8-13.24-2.38-3.89-6.86-6.54-11.42-6.74-1.08-0.05-1.91-0.96-1.86-2.04 0.05-1.08 0.95-1.89 2.04-1.86 5.9 0.26 11.49 3.56 14.57 8.6 3.09 5.05 3.48 11.52 1.02 16.9-3.89 8.52-13.31 12.33-21.84 15.24-8.53 2.91-16.47 6.09-19.9 12.87-2.95 5.84-1.17 13.89 3.97 17.95 0.84 0.67 0.99 1.9 0.32 2.74-0.39 0.49-0.96 0.75-1.54 0.75z"/>
		<path id="&lt;Path&gt;" class="s4" d="m437.22 211.87c-1.36-4.09-4.27-6.81-6.51-6.07-2.24 0.74-2.96 4.67-1.6 8.76 1.36 4.1 4.28 6.81 6.51 6.07 2.24-0.74 2.96-4.66 1.6-8.76z"/>
		<path id="&lt;Path&gt;" class="s4" d="m384.49 233.35c-1.36-4.09-4.27-6.81-6.51-6.07-2.24 0.75-2.96 4.67-1.6 8.76 1.36 4.1 4.28 6.82 6.52 6.07 2.24-0.74 2.95-4.66 1.59-8.76z"/>
		<path id="&lt;Path&gt;" class="s1" d="m393.5 264.24c0 0 22.94 14.64 43.94-5.37"/>
		<path id="&lt;Path&gt;" class="s4" d="m412.65 271.3c-11.5 0-20.06-5.33-20.2-5.42-0.91-0.58-1.18-1.78-0.6-2.69 0.58-0.91 1.78-1.18 2.69-0.6 0.89 0.56 21.95 13.54 41.55-5.14 0.78-0.74 2.02-0.71 2.76 0.07 0.75 0.78 0.72 2.01-0.06 2.76-8.91 8.49-18.22 11.02-26.14 11.02z"/>
		<path id="&lt;Path&gt;" class="s1" d="m395.45 259.6l-4.64 8.79"/>
		<path id="&lt;Path&gt;" class="s4" d="m390.81 270.34q-0.47 0-0.91-0.23c-0.95-0.5-1.32-1.68-0.82-2.64l4.64-8.78c0.51-0.96 1.69-1.32 2.64-0.82 0.96 0.5 1.32 1.69 0.82 2.64l-4.64 8.79c-0.35 0.66-1.03 1.04-1.73 1.04z"/>
		<path id="&lt;Path&gt;" class="s4" d="m336.54 725.7c5.45-9.26 10.88-18.57 16.32-27.85-30.53-31.43-65.52-58.41-102.74-83.16l-16.87 17.54c37.14 28.89 71.01 60.04 103.29 93.47z"/>
		<path id="&lt;Compound Path&gt;" class="s4" d="m336.54 727.65c-0.52 0-1.03-0.21-1.4-0.6-34.24-35.45-67.96-65.96-103.09-93.28-0.44-0.34-0.71-0.85-0.75-1.4-0.04-0.55 0.16-1.1 0.54-1.49l16.87-17.54c0.66-0.69 1.71-0.8 2.49-0.28 41.88 27.86 75.59 55.14 103.06 83.43 0.62 0.63 0.73 1.59 0.29 2.35l-6.05 10.33q-5.13 8.78-10.27 17.52c-0.31 0.52-0.85 0.87-1.46 0.95q-0.11 0.01-0.23 0.01zm-100.38-95.63c34.05 26.62 66.8 56.25 100 90.48q4.49-7.64 8.97-15.31l5.3-9.05c-26.79-27.39-59.54-53.89-100.03-80.92z"/>
		<path id="&lt;Path&gt;" class="s1" d="m233.25 632.23l-32.68 33.98-1.88-0.04-75.59-1.74-38-0.88c0 0-57.16 209.23 34.6 228.28 100.78 20.93 159.86-69.32 216.84-166.13-32.28-33.43-66.15-64.58-103.29-93.47z"/>
		<path id="&lt;Compound Path&gt;" class="s4" d="m148.36 896.83q0 0 0 0c-9.41 0-19.19-1.04-29.05-3.09-15.82-3.28-28.35-12.3-37.24-26.81-37.3-60.89-0.44-198.08 1.15-203.89 0.23-0.87 0.96-1.45 1.93-1.44l114.6 2.64 32.09-33.36c0.7-0.72 1.82-0.81 2.61-0.19 35.27 27.43 69.13 58.07 103.5 93.65 0.61 0.63 0.72 1.59 0.28 2.35-54.79 93.08-106.91 170.14-189.87 170.14zm-61.76-231.29c-3.94 15.2-35.6 143.2-1.2 199.35 8.31 13.55 19.98 21.98 34.7 25.03 9.61 2 19.12 3.01 28.26 3.01 80.52 0 131.85-75.48 185.75-166.94-33.44-34.53-66.4-64.37-100.67-91.14l-31.47 32.71c-0.37 0.4-0.92 0.61-1.44 0.6l-1.88-0.04z"/>
		<path id="&lt;Path&gt;" class="s1" d="m476.73 596.49c7.44-6.39 9.38-17.42 4.09-26.06-2.08-3.44-5.03-6.01-8.39-7.65l0.7-0.36q2.27-1.17 4.12-2.75c6.94-5.95 9.22-16.06 4.93-24.62-5.07-10.05-17.31-14.1-27.36-9.03l-62.19 31.29 50.83-31.03q1.43-0.89 2.66-1.95c7.45-6.39 9.38-17.42 4.11-26.06-5.87-9.61-18.41-12.64-28.01-6.77l-71.38 43.57c-3.72 1.87-11.34 5.75-24.34 12.56-6.43 3.37 21.88-39.32 14.87-62.6-7.48-24.94-29.07-18.75-31.88 1.94-3.36 24.78-26.56 68.92-30.65 76.69-5.45 10.34-15.34 25.06-19.37 41.31l-9.35 9.72c37.22 24.75 72.21 51.73 102.74 83.16 5.31-9.06 10.64-18.08 16.01-26.99 3.57-2.69 7.2-5.25 10.84-7.61q0.21-0.02 0.4-0.08l89.55-21.44c2.44-0.58 4.59-1.74 6.37-3.26 4.21-3.61 6.31-9.4 4.93-15.15-1.98-8.23-10.22-13.28-18.43-11.3l-17.65 4.23 29.17-17.81q1.43-0.89 2.68-1.95z"/>
		<path id="&lt;Compound Path&gt;" class="s4" d="m352.86 699.8c-0.52 0-1.03-0.21-1.4-0.59-27.28-28.08-60.78-55.2-102.42-82.89-0.48-0.32-0.8-0.84-0.86-1.42-0.06-0.57 0.13-1.15 0.53-1.56l8.99-9.35c3.25-12.68 9.88-24.33 15.23-33.72 1.53-2.69 2.97-5.23 4.18-7.52 8.15-15.47 27.44-53.86 30.44-76.04 1.57-11.54 9.1-19.91 17.89-19.91 7.83 0 14.48 6.61 17.8 17.67 4.79 15.89-5.74 39.47-12.02 53.55-1.02 2.28-2.06 4.61-2.78 6.39 8.26-4.32 15.31-7.95 21.52-11.09l71.24-43.49c3.51-2.14 7.53-3.27 11.62-3.27 7.85 0 14.98 3.99 19.08 10.69 5.73 9.39 3.83 21.4-4.51 28.56q-1.27 1.11-2.89 2.13l-10.19 6.21 19.64-9.87c3.14-1.59 6.51-2.4 10.02-2.4 8.48 0 16.13 4.71 19.95 12.29 4.62 9.21 2.39 20.3-5.4 26.98q-1.06 0.9-2.2 1.66c2.49 1.75 4.59 3.99 6.17 6.61 5.74 9.37 3.85 21.39-4.49 28.55-0.91 0.78-1.86 1.47-2.91 2.13l-18.62 11.36 5.61-1.34q2-0.48 4.04-0.48c7.99 0 14.87 5.44 16.74 13.22 1.51 6.31-0.62 12.86-5.56 17.1-2.09 1.78-4.57 3.05-7.19 3.67l-89.55 21.44q-0.03 0.02-0.12 0.04c-3.33 2.17-6.72 4.55-10.1 7.08-5.66 9.41-11.16 18.74-15.79 26.65-0.31 0.52-0.85 0.87-1.45 0.95q-0.12 0.01-0.24 0.01zm-99.71-85.44c40.08 26.8 72.61 53.1 99.32 80.29 4.41-7.51 9.5-16.13 14.72-24.8q0.2-0.32 0.5-0.55c3.66-2.76 7.34-5.34 10.96-7.68q0.36-0.24 0.8-0.3c0.05-0.02 0.15-0.03 0.2-0.05l89.55-21.44c2.02-0.48 3.94-1.46 5.56-2.84 3.82-3.28 5.47-8.34 4.3-13.21-1.45-6.03-6.77-10.24-12.94-10.24q-1.58 0-3.13 0.38l-17.66 4.23c-0.93 0.22-1.89-0.27-2.26-1.15-0.36-0.89-0.03-1.91 0.79-2.42l29.17-17.8q1.3-0.81 2.43-1.78c6.88-5.9 8.43-15.81 3.69-23.55-1.8-2.99-4.42-5.37-7.57-6.92-0.67-0.32-1.09-0.99-1.1-1.73-0.01-0.74 0.4-1.42 1.06-1.76l0.7-0.36c1.37-0.7 2.59-1.52 3.74-2.5 6.43-5.51 8.26-14.66 4.45-22.26-3.15-6.25-9.46-10.13-16.46-10.13-2.89 0-5.67 0.66-8.27 1.97l-62.2 31.3c-0.93 0.46-2.07 0.11-2.58-0.8-0.51-0.92-0.2-2.07 0.69-2.62l50.84-31.03q1.32-0.82 2.38-1.75c6.9-5.92 8.46-15.83 3.73-23.57-3.37-5.53-9.26-8.83-15.74-8.83-3.38 0-6.69 0.94-9.58 2.71l-71.39 43.56c-7.03 3.57-14.99 7.67-24.45 12.63q-0.78 0.41-1.48 0.41c-0.79 0-1.51-0.39-1.93-1.04-1.05-1.61-0.18-3.7 3.66-12.3 5.67-12.7 16.22-36.33 11.85-50.84-2.8-9.32-8.05-14.88-14.06-14.88-5.85 0-12.54 5.67-14.02 16.52-3.09 22.81-22.61 61.68-30.85 77.34-1.24 2.35-2.7 4.91-4.25 7.63-5.3 9.31-11.89 20.89-14.95 33.24q-0.13 0.51-0.49 0.88z"/>
		<path id="&lt;Path&gt;" class="s4" d="m356.13 561.12q0.15 0.24 0.11 0.53c-0.06 0.46-0.47 0.79-0.93 0.73l-12.25-1.54c-0.46-0.05-0.78-0.48-0.72-0.93 0.05-0.46 0.47-0.79 0.93-0.73l12.25 1.54c0.27 0.03 0.49 0.19 0.61 0.4z"/>
		<path id="&lt;Path&gt;" class="s4" d="m355.41 563.36l-0.22-0.01-12.25-1.54c-0.48-0.06-0.91-0.3-1.21-0.69-0.3-0.38-0.43-0.86-0.36-1.34 0.11-0.9 0.88-1.58 1.8-1.58l0.21 0.01 12.26 1.54c0.56 0.07 1.05 0.39 1.33 0.88 0.21 0.34 0.29 0.75 0.24 1.15-0.11 0.9-0.89 1.58-1.8 1.58z"/>
		<path id="&lt;Path&gt;" class="s4" d="m346.27 566.93q0.14 0.24 0.41 0.35c0.43 0.18 0.91-0.03 1.09-0.46l4.59-11.46c0.18-0.43-0.04-0.92-0.46-1.08-0.43-0.18-0.92 0.03-1.09 0.46l-4.6 11.46c-0.1 0.25-0.07 0.52 0.06 0.73z"/>
		<path id="&lt;Path&gt;" class="s4" d="m346.99 568.32q-0.35 0-0.68-0.13c-0.36-0.14-0.68-0.41-0.88-0.76-0.29-0.49-0.33-1.07-0.12-1.6l4.59-11.46c0.37-0.9 1.45-1.36 2.36-1 0.45 0.18 0.8 0.52 1 0.97 0.19 0.45 0.19 0.94 0.01 1.39l-4.6 11.46c-0.27 0.69-0.93 1.13-1.68 1.13z"/>
		<path id="&lt;Path&gt;" class="s4" d="m369.12 594.7q0.15 0.24 0.11 0.53c-0.05 0.46-0.47 0.78-0.93 0.73l-12.25-1.54c-0.46-0.06-0.78-0.49-0.72-0.94 0.05-0.46 0.47-0.78 0.93-0.73l12.25 1.54c0.27 0.04 0.49 0.19 0.61 0.41z"/>
		<path id="&lt;Path&gt;" class="s4" d="m368.4 596.94l-0.22-0.02-12.25-1.53c-0.48-0.06-0.91-0.31-1.21-0.69-0.3-0.39-0.43-0.87-0.36-1.35 0.11-0.9 0.88-1.58 1.79-1.58l0.23 0.01 12.25 1.54c0.56 0.07 1.05 0.4 1.34 0.88 0.2 0.35 0.28 0.76 0.23 1.16-0.11 0.89-0.88 1.58-1.8 1.58z"/>
		<path id="&lt;Path&gt;" class="s4" d="m359.26 600.51q0.14 0.24 0.41 0.35c0.43 0.17 0.91-0.04 1.09-0.46l4.59-11.46c0.18-0.44-0.04-0.92-0.46-1.09-0.43-0.17-0.92 0.03-1.09 0.46l-4.6 11.46c-0.1 0.25-0.07 0.52 0.06 0.74z"/>
		<path id="&lt;Path&gt;" class="s4" d="m359.98 601.9q-0.35 0-0.67-0.14c-0.37-0.14-0.69-0.41-0.89-0.75-0.29-0.49-0.33-1.07-0.12-1.6l4.59-11.46c0.37-0.91 1.46-1.38 2.36-1.01 0.45 0.18 0.81 0.53 1 0.97 0.19 0.45 0.19 0.95 0.01 1.4l-4.6 11.45c-0.27 0.69-0.93 1.14-1.68 1.14z"/>
		<path id="&lt;Path&gt;" class="s4" d="m385.12 622.86q0.14 0.24 0.1 0.53c-0.05 0.46-0.47 0.78-0.93 0.73l-12.25-1.54c-0.46-0.06-0.78-0.49-0.72-0.94 0.05-0.46 0.47-0.78 0.93-0.73l12.25 1.54c0.27 0.04 0.49 0.2 0.62 0.41z"/>
		<path id="&lt;Path&gt;" class="s4" d="m384.4 625.1l-0.23-0.01-12.25-1.54c-0.48-0.06-0.91-0.3-1.21-0.69-0.3-0.38-0.43-0.86-0.36-1.35 0.11-0.9 0.88-1.58 1.79-1.58l0.23 0.02 12.25 1.53c0.56 0.08 1.05 0.4 1.34 0.88 0.2 0.35 0.28 0.76 0.23 1.16-0.11 0.9-0.88 1.58-1.79 1.58z"/>
		<path id="&lt;Path&gt;" class="s4" d="m375.25 628.67q0.14 0.24 0.41 0.35c0.43 0.17 0.92-0.03 1.09-0.46l4.59-11.46c0.18-0.43-0.04-0.92-0.46-1.09-0.43-0.17-0.92 0.03-1.09 0.46l-4.6 11.46c-0.1 0.25-0.07 0.52 0.06 0.74z"/>
		<path id="&lt;Path&gt;" class="s4" d="m375.97 630.06q0 0 0 0-0.35 0-0.68-0.13c-0.37-0.15-0.68-0.42-0.89-0.77-0.28-0.48-0.32-1.06-0.11-1.59l4.59-11.46c0.37-0.91 1.46-1.37 2.36-1 0.45 0.17 0.8 0.52 1 0.96 0.19 0.45 0.19 0.95 0.01 1.4l-4.6 11.45c-0.28 0.69-0.94 1.14-1.68 1.14z"/>
		<path id="&lt;Path&gt;" class="s4" d="m319.85 496.99c-2.94-0.71-6.24-1.65-6.45-1.71-0.54-0.15-0.85-0.71-0.7-1.24 0.15-0.54 0.64-0.9 1.25-0.7 0.07 0.02 7.16 2.04 9.68 2.37 1.02-1.53 2.15-11.43 0.2-16.26-0.48-1.21-1.07-1.89-1.74-1.83-0.58 0.02-1.01-0.44-1.02-0.99-0.01-0.56 0.44-1.02 1-1.02 0.92 0 2.22 0.36 3.23 2.22 2.5 4.57 1.82 16.25-0.02 19.03-0.56 0.85-1.22 0.92-1.57 0.89-0.84-0.08-2.3-0.39-3.86-0.76z"/>
		<path id="&lt;Compound Path&gt;" class="s4" d="m323.83 498.73h-0.19q-1.22-0.12-4.02-0.79c-2.67-0.65-5.62-1.47-6.46-1.71-0.54-0.15-0.96-0.49-1.22-0.96-0.26-0.46-0.32-0.99-0.18-1.5 0.31-1.09 1.42-1.7 2.48-1.36 0.45 0.13 6.05 1.71 8.81 2.22 0.76-2.41 1.54-10.71-0.12-14.82-0.44-1.08-0.77-1.22-0.77-1.22q-0.01 0-0.02 0c-1.18 0-2.03-0.86-2.04-1.95-0.01-0.53 0.19-1.03 0.56-1.41 0.37-0.38 0.87-0.59 1.4-0.6 1.2 0 2.87 0.48 4.1 2.73 2.68 4.91 1.93 17.02-0.06 20.04-0.77 1.16-1.75 1.33-2.27 1.33zm-10.21-4.47c0.9 0.32 3.83 1.14 6.46 1.78 2.21 0.53 3.24 0.7 3.72 0.74l0.03 0.98v-0.98q0.05 0.01 0.19-0.03l-0.51-0.07c-2.64-0.35-9.84-2.41-9.89-2.42zm8.45-17.67c1.16 0.05 2.02 0.87 2.67 2.49 1.96 4.85 1.01 15.21-0.29 17.17l-0.27 0.4q0.13-0.1 0.29-0.33c1.68-2.55 2.29-13.78-0.03-18.02q-0.93-1.71-2.37-1.71z"/>
		<path id="&lt;Path&gt;" class="s4" d="m473.68 561.89q0.08 0.08 0.13 0.19c0.19 0.38 0.04 0.83-0.33 1.01l-61.06 30.82c-0.37 0.21-0.83 0.01-1.02-0.32-0.19-0.38-0.04-0.84 0.32-1.02l61.07-30.82c0.31-0.17 0.67-0.08 0.89 0.14z"/>
		<path id="&lt;Path&gt;" class="s4" d="m412.09 594.97c-0.61 0-1.22-0.35-1.53-0.89q-0.36-0.72-0.13-1.4c0.15-0.43 0.46-0.78 0.87-0.99l61.05-30.81c0.57-0.32 1.51-0.21 2.03 0.33q0.19 0.22 0.27 0.36 0.36 0.74 0.13 1.41c-0.15 0.44-0.46 0.79-0.87 0.99l-61.06 30.82c-0.2 0.11-0.48 0.18-0.76 0.18z"/>
		<path id="&lt;Path&gt;" class="s4" d="m445.5 614.41q0.08 0.09 0.15 0.21c0.17 0.38-0.01 0.84-0.38 1.01l-25.96 11.8c-0.41 0.17-0.8-0.02-1.01-0.38-0.17-0.38 0.01-0.83 0.37-1.01l25.97-11.8c0.31-0.13 0.64-0.06 0.86 0.17z"/>
		<path id="&lt;Path&gt;" class="s4" d="m419.01 628.47c-0.62 0-1.2-0.34-1.55-0.91-0.43-0.97-0.05-2 0.79-2.4l25.98-11.81c0.79-0.32 1.47-0.13 1.97 0.38q0.18 0.2 0.26 0.33c0.46 1.02 0.08 2.05-0.76 2.45l-25.98 11.81q-0.38 0.15-0.71 0.15z"/>
		<path id="&lt;Path&gt;" class="s4" d="m447.26 515.46c-0.19 0.17-0.47 0.24-0.74 0.17-0.44-0.13-0.69-0.57-0.58-1.01 2.37-8.71-6.7-13.88-8.77-14.94l-16.37 10.43c-0.49 6.27 8.58 16.02 8.68 16.12 0.31 0.34 0.29 0.85-0.03 1.16l-0.03 0.02c-0.33 0.29-0.83 0.27-1.13-0.05-0.41-0.44-10.07-10.84-9.06-17.84 0.04-0.22 0.17-0.46 0.37-0.58l17.08-10.88c0.23-0.15 0.53-0.17 0.78-0.04 0.13 0.05 13.03 6.09 10.06 17.03q-0.07 0.25-0.26 0.41z"/>
		<path id="&lt;Path&gt;" class="s4" d="m428.88 528.59c-0.49 0-0.96-0.21-1.3-0.56-0.42-0.45-10.41-11.07-9.32-18.65 0.12-0.58 0.42-1.03 0.83-1.27l17.07-10.88c0.52-0.32 1.19-0.36 1.74-0.09 0.08 0.03 13.77 6.36 10.56 18.17-0.08 0.33-0.28 0.65-0.57 0.89-0.44 0.39-1.07 0.52-1.63 0.37-0.96-0.28-1.5-1.24-1.26-2.19 1.99-7.34-4.9-11.99-7.78-13.57l-15.46 9.85c0.02 5.81 8.34 14.8 8.42 14.9 0.69 0.73 0.65 1.87-0.06 2.54q-0.59 0.5-1.24 0.49z"/>
		<path id="&lt;Path&gt;" class="s4" d="m475.53 553.29c-0.2 0.17-0.47 0.24-0.75 0.17-0.43-0.13-0.68-0.57-0.57-1.01 2.36-8.71-6.71-13.88-8.77-14.94l-16.38 10.43c-0.49 6.27 8.59 16.02 8.68 16.12 0.32 0.34 0.3 0.85-0.03 1.16l-0.03 0.02c-0.33 0.29-0.82 0.27-1.12-0.05-0.41-0.44-10.07-10.84-9.07-17.84 0.05-0.22 0.17-0.46 0.37-0.58l17.09-10.88c0.23-0.15 0.53-0.17 0.78-0.04 0.12 0.05 13.03 6.09 10.05 17.03q-0.06 0.25-0.25 0.41z"/>
		<path id="&lt;Path&gt;" class="s4" d="m457.15 566.42c-0.49 0-0.97-0.21-1.31-0.57-0.42-0.44-10.41-11.04-9.31-18.64 0.12-0.59 0.42-1.03 0.83-1.28l17.06-10.87c0.52-0.32 1.2-0.35 1.74-0.09 0.08 0.03 13.78 6.36 10.57 18.17q-0.13 0.5-0.56 0.89c-0.46 0.39-1.08 0.52-1.66 0.37-0.94-0.27-1.49-1.23-1.25-2.19 1.99-7.34-4.9-11.99-7.78-13.57l-15.46 9.85c0.03 5.81 8.34 14.81 8.43 14.9 0.68 0.73 0.65 1.86-0.07 2.54q-0.59 0.5-1.23 0.49z"/>
		<path id="&lt;Path&gt;" class="s4" d="m478.82 592.54c-0.22 0.14-0.5 0.18-0.76 0.06-0.41-0.19-0.6-0.66-0.42-1.07 3.59-8.29-4.65-14.7-6.54-16.05l-17.7 7.98c-1.39 6.13 6.19 17.08 6.19 17.08 0.35 0.49 0.26 1-0.11 1.25l-0.02 0.02c-0.38 0.24-0.87 0.15-1.12-0.21-0.34-0.49-8.41-12.17-6.41-18.95 0.07-0.22 0.23-0.44 0.45-0.52l18.47-8.33c0.24-0.11 0.54-0.08 0.77 0.07 0.12 0.07 12.02 7.91 7.51 18.31q-0.1 0.23-0.31 0.36z"/>
		<path id="&lt;Path&gt;" class="s4" d="m459.01 602.92c-0.59 0-1.13-0.29-1.47-0.76-0.35-0.5-8.71-12.45-6.55-19.79 0.2-0.56 0.56-0.96 1.01-1.15l18.45-8.31c0.56-0.25 1.23-0.19 1.73 0.16 0.08 0.05 12.72 8.27 7.85 19.5q-0.2 0.48-0.69 0.8c-0.49 0.31-1.14 0.36-1.68 0.12-0.9-0.4-1.3-1.43-0.93-2.34 3.03-6.98-3.12-12.57-5.75-14.54l-16.71 7.53c-0.66 4.77 4.15 12.99 6.13 15.85 0.32 0.45 0.45 0.98 0.36 1.48-0.08 0.46-0.34 0.86-0.72 1.12q-0.53 0.34-1.03 0.33z"/>
		<path id="&lt;Path&gt;" class="s4" d="m473.66 639.96c-0.21 0.08-0.46 0.07-0.67-0.07-0.32-0.23-0.4-0.67-0.19-1 4.45-6.54-1.59-13.41-2.99-14.88l-16.55 3.96c-2.2 5.05 2.54 15.72 2.59 15.83 0.16 0.37 0 0.79-0.36 0.95l-0.03 0.01c-0.36 0.15-0.76-0.01-0.92-0.36-0.21-0.48-5.24-11.86-2.41-17.37 0.1-0.17 0.27-0.33 0.47-0.37l17.27-4.14c0.23-0.05 0.48 0.02 0.65 0.19 0.09 0.08 9.05 8.78 3.46 16.99q-0.12 0.19-0.32 0.26z"/>
		<path id="&lt;Path&gt;" class="s4" d="m455.19 645.79c-0.66 0-1.26-0.39-1.54-1-0.22-0.49-5.47-12.2-2.39-18.2 0.29-0.49 0.7-0.8 1.15-0.89l17.61-4.17c0.45 0 0.89 0.18 1.2 0.5 0.06 0.05 9.63 9.32 3.57 18.22q-0.27 0.41-0.77 0.62c-0.52 0.21-1.13 0.14-1.58-0.18-0.77-0.53-0.96-1.55-0.45-2.33 3.67-5.4-0.57-11.11-2.51-13.27l-15.49 3.71c-1.31 4.07 1.58 12.03 2.74 14.6 0.39 0.86 0.01 1.86-0.84 2.24-0.27 0.11-0.48 0.15-0.7 0.15z"/>
		<path id="&lt;Path&gt;" class="s4" d="m126.36 750.69c-0.47 0-0.93-0.17-1.31-0.5-0.8-0.72-0.87-1.96-0.14-2.76l74.2-82.53c0.73-0.8 1.96-0.86 2.76-0.14 0.8 0.72 0.87 1.95 0.15 2.76l-74.21 82.52c-0.39 0.43-0.92 0.65-1.45 0.65z"/>
		<path id="&lt;Path&gt;" class="s4" d="m143.14 878.62c-6.58 0-14.04-1.88-20.25-4.73-12.67-5.83-20.38-15.27-20.63-25.27-0.02-1.08 0.83-1.98 1.91-2.01 1.07 0.02 1.97 0.83 2 1.91 0.21 8.48 7.07 16.63 18.35 21.82 11.16 5.13 23.39 5.89 28.46 1.75 2.17-1.77 2.83-4.33 2.02-7.83-1.87-8.03-20.82-21.38-31.19-20.1-2.24 0.28-5.19 1.32-5.08 7.13 0.06 2.69 1.65 5.45 4.26 7.4 2.21 1.65 5.06 2.77 8.99 3.53 3.6 0.7 8.28 0.48 9.65-2.43 0.27-0.57 0.29-1.36 0.04-1.92q-0.18-0.41-0.46-0.5c-1.03-0.33-1.6-1.43-1.27-2.46 0.33-1.02 1.43-1.6 2.46-1.26 1.27 0.41 2.28 1.35 2.85 2.66 0.7 1.59 0.66 3.56-0.08 5.14-2.32 4.94-8.72 5.62-13.93 4.61-4.53-0.88-7.89-2.23-10.59-4.24-3.57-2.66-5.75-6.57-5.82-10.45-0.18-8.7 5.25-10.68 8.49-11.08 11.49-1.45 33.04 12.59 35.48 23.09 1.46 6.26-1.02 9.84-3.35 11.74-3.02 2.46-7.42 3.5-12.31 3.5z"/>
		<path id="&lt;Path&gt;" class="s4" d="m198.69 666.17l-27.73 31.33-55.25-31.95 7.39-1.12z"/>
		<path id="&lt;Compound Path&gt;" class="s4" d="m170.96 699.45q-0.51 0-0.98-0.26l-55.25-31.95c-0.72-0.41-1.09-1.24-0.94-2.05 0.15-0.82 0.81-1.45 1.63-1.57l7.38-1.12q0.17-0.03 0.34-0.02l75.6 1.74c0.76 0.01 1.44 0.47 1.74 1.17 0.3 0.7 0.18 1.5-0.33 2.07l-27.73 31.33c-0.38 0.43-0.92 0.66-1.46 0.66zm-49.45-32.8l49.04 28.36 23.89-26.99-71.22-1.63z"/>
		<path id="&lt;Path&gt;" class="s1" d="m305.84 690.91c-10.95 3.19-22.42-3.11-25.6-14.06-3.19-10.96 3.11-22.42 14.07-25.61 10.95-3.18 22.42 3.12 25.6 14.07 3.18 10.96-3.11 22.42-14.07 25.6z"/>
		<path id="&lt;Compound Path&gt;" class="s4" d="m300.06 693.69c-9.98 0-18.91-6.7-21.7-16.3-3.48-11.97 3.43-24.54 15.4-28.02q3.11-0.9 6.32-0.9c9.99 0 18.91 6.7 21.71 16.3 3.48 11.97-3.43 24.54-15.4 28.02q-3.11 0.9-6.33 0.9zm0.02-41.32q-2.65 0-5.23 0.75c-9.9 2.88-15.62 13.28-12.74 23.18 2.31 7.94 9.69 13.49 17.95 13.49q2.66 0 5.24-0.75c9.9-2.88 15.61-13.28 12.73-23.18-2.3-7.94-9.69-13.49-17.95-13.49z"/>
		<path id="&lt;Path&gt;" class="s1" d="m292.74 671.36l12.76-0.75-3.67 10.34"/>
		<path id="&lt;Path&gt;" class="s4" d="m301.83 682.91q-0.32 0-0.65-0.12c-1.02-0.36-1.55-1.47-1.19-2.49l2.69-7.57-9.83 0.58c-1.07 0.05-2-0.76-2.06-1.84-0.06-1.08 0.76-2 1.83-2.06l12.77-0.75c0.67-0.03 1.28 0.26 1.67 0.78 0.4 0.52 0.5 1.21 0.28 1.83l-3.67 10.34c-0.28 0.8-1.03 1.3-1.84 1.3z"/>
		<path id="&lt;Path&gt;" class="s1" d="m621.26 668.98l-3.26-80.07"/>
		<path id="&lt;Path&gt;" class="s4" d="m621.26 670.93c-1.05 0-1.91-0.82-1.95-1.87l-3.26-80.07c-0.04-1.08 0.8-1.99 1.87-2.03 1.05-0.11 1.99 0.79 2.03 1.87l3.26 80.07c0.04 1.08-0.8 1.99-1.87 2.03q-0.04 0-0.08 0z"/>
		<path id="&lt;Path&gt;" class="s1" d="m200.4 665.54l-2-57.9"/>
		<path id="&lt;Path&gt;" class="s4" d="m200.4 667.5c-1.05 0-1.91-0.83-1.95-1.89l-2-57.9c-0.03-1.08 0.81-1.98 1.89-2.02 1.06-0.11 1.98 0.81 2.02 1.88l1.99 57.91c0.04 1.07-0.8 1.98-1.88 2.01q-0.04 0.01-0.07 0.01z"/>
		<path id="&lt;Path&gt;" class="s1" d="m179.94 618.12l19.46 19.97"/>
		<path id="&lt;Path&gt;" class="s4" d="m199.4 640.04c-0.51 0-1.01-0.2-1.4-0.59l-19.46-19.96c-0.76-0.78-0.74-2.01 0.03-2.77 0.77-0.75 2.01-0.73 2.76 0.04l19.47 19.96c0.75 0.78 0.74 2.01-0.03 2.77-0.38 0.37-0.88 0.55-1.37 0.55z"/>
		<path id="&lt;Path&gt;" class="s1" d="m165.63 425.61l26.95 53.91"/>
		<path id="&lt;Path&gt;" class="s4" d="m192.58 481.47c-0.71 0-1.4-0.39-1.75-1.08l-26.95-53.91c-0.48-0.96-0.09-2.13 0.87-2.62 0.97-0.48 2.14-0.09 2.62 0.88l26.96 53.91c0.48 0.96 0.09 2.13-0.88 2.62q-0.42 0.2-0.87 0.2z"/>
		<path id="&lt;Path&gt;" class="s1" d="m637.84 412.63l-26.96 62.9"/>
		<path id="&lt;Path&gt;" class="s4" d="m610.88 477.48q-0.39 0-0.77-0.16c-0.99-0.42-1.45-1.57-1.02-2.56l26.95-62.9c0.43-0.99 1.57-1.45 2.57-1.02 0.99 0.42 1.45 1.57 1.02 2.56l-26.95 62.89c-0.32 0.75-1.04 1.19-1.8 1.19z"/>
		<path id="&lt;Path&gt;" class="s1" d="m1051.78 520.36c-0.49 0.37-0.18 1.66-0.18 1.66 0 0 2.35 5.69-1.81 17.42-3.5 9.9-17.01 24.14-21.15 28.36q-0.03 0.02-0.02 0.02c-0.76 0.76-1.19 1.19-1.19 1.19q-0.01 0.01-0.33 0.43c-1.92 2.38-11.41 14.18-16.9 20.02 0 0-0.29 0.43-0.86 1.19q-0.63 0.88-1.7 2.26c-7.2 9.38-28.55 34.47-50.03 34.3-12.85-0.12-29.08-3.17-43.49-7.07-33.3 68.72-136.84 210-220.27 199.41-33.01-4.2-56.66-29.33-73.47-60.54l-0.18-94.13c0 0 61.46 4.04 119.5-2.81l0.18 0.78 0.68-0.88 17.93-23.38 81.12-105.81 19.06-29.95 0.04-0.06 5.69-7.97c0 0 13.57-15.68 29.41-18.65 15.84-2.97 40.74 0.51 47.69-1.72 6.93-2.21 32.01-16.78 39.51-16.42 7.51 0.37 18.31 5.7 10.91 20.44-7.4 14.77-33.33 30.12-33.33 30.12 0 0 41.01 5.09 48.33 3.34 7.32-1.76 32.09-26.04 44.84-19.67 12.77 6.37 6.09 23.44 0.02 28.12z"/>
		<path id="&lt;Compound Path&gt;" class="s4" d="m702.87 822.84c-3.12 0-6.24-0.58-9.27-0.97-29.76-3.78-54.98-24.68-74.94-61.74-0.15-0.28-0.23-0.7-0.23-1.02l-0.18-94.18c0-0.54 0.22-1.08 0.62-1.45 0.39-0.37 0.93-0.55 1.46-0.54 0.18 0.01 18.24 1.18 43.58 1.18 27.76 0 53.18-1.35 75.56-3.99q0.02 0 0.05 0l98.54-128.53 18.97-29.82 5.78-8.11c0.68-0.81 14.32-16.38 30.64-19.44 4.74-0.89 10.62-1.31 18.48-1.31 3.88 0 7.69 0.1 11.38 0.2 3.19 0.08 6.19 0.15 8.86 0.15 2.81 0 6.77-0.07 8.73-0.7 2.32-0.74 7.17-3.13 12.31-5.66 10.33-5.09 22.05-10.86 27.52-10.86h0.37c4.7 0.24 10.74 2.25 13.63 7.2 2.5 4.28 2.14 9.69-1.06 16.08-5.68 11.33-21.42 22.7-29.38 27.95 9.23 1.05 27.84 3.04 37.45 3.04 2.82 0 4.13-0.17 4.73-0.31 1.97-0.48 6.21-3.41 10.69-6.52 9.16-6.36 20.57-14.26 29.75-14.26q3.18 0 5.72 1.26c4.9 2.44 7.76 6.56 8.28 11.9 0.73 7.39-3.21 15.46-7.42 19.1 0.41 1.21 2.11 7.4-1.86 18.6-3.52 9.97-16.28 23.66-21.6 29.08l-1.4 1.47c-3.4 4.24-11.8 14.6-16.91 20.05q-0.19 0.29-0.81 1.12c-0.38 0.55-0.96 1.51-1.66 2.43-8.16 10.6-29.39 35.32-51.42 35.32h-0.24c-15.07 0-32.47-3.91-42.42-6.53-34.6 70.45-131.18 199.81-212.29 199.81q0 0-0.01 0zm-80.54-64.33c19.29 35.62 43.44 55.54 71.76 59.14 2.87 0.37 5.82 0.59 8.78 0.59q0.01 0 0.01 0c44.52 0 91.35-40.57 122.79-74.56 40.98-44.3 72.31-94.69 86.69-124.37 0.41-0.85 1.36-1.46 2.27-1.19 16.27 4.41 31.54 6.84 43 6.84h0.2c20.86 0 42.22-25.52 48.27-33.38 0.7-0.93 1.26-1.57 1.64-2.13q0.83-1.11 0.85-1.13 0.08-0.12 0.19-0.22c5-5.32 13.41-15.68 16.79-19.89l0.3-0.38q0.08-0.11 0.17-0.2l1.2-1.19c4.01-4.1 17.36-18.16 20.71-27.65 3.79-10.71 1.86-15.99 1.84-16.04q-0.05-0.13-0.08-0.27c-0.19-0.76-0.47-2.64 0.89-3.67 3.51-2.71 7.02-9.97 6.43-16.04-0.39-3.99-2.46-6.95-6.14-8.78-1.16-0.58-2.46-0.86-3.98-0.86-7.96 0-19.27 7.84-27.53 13.57-5.2 3.61-9.31 6.46-12 7.11-1.19 0.28-3.03 0.42-5.64 0.42-13.28 0-42.17-3.57-43.39-3.72-0.83-0.11-1.5-0.73-1.68-1.54-0.17-0.82 0.2-1.66 0.92-2.08 0.26-0.15 25.53-15.24 32.59-29.31 2.57-5.13 2.97-8.47 1.18-11.54-2.11-3.61-6.95-4.44-10.45-4.44q0 0 0 0c-4.75 0-17.02 5.22-25.97 9.63-5.51 2.71-10.26 4.65-12.85 5.47-1.94 0.62-4.91 0.68-9.92 0.68-2.7 0-5.74-0.18-8.96-0.26-3.66-0.09-7.45-0.24-11.28-0.24-7.62 0-13.26 0.37-17.76 1.21-14.97 2.81-28.17 17.85-28.3 18l-5.57 7.82-19.04 29.92-99.84 130.22c-0.46 0.6-1.23 0.87-1.97 0.7q-0.6-0.14-1-0.57c-22.17 2.55-47.24 3.84-74.54 3.84-20.5 0-36.28-0.77-41.75-1.07z"/>
		<path id="&lt;Path&gt;" class="s4" d="m1002.24 567.81c-7.6-2.84-18.64 5.08-25.62 14.37-1.48 1.97-2.64 3.6-3.57 4.96-3.59-2.6-20.18-6.84-22.19-7.35-0.3-0.07-0.6 0.11-0.68 0.41-0.07 0.3 0.11 0.6 0.41 0.68 7.57 1.91 19.74 5.44 21.84 7.18-2.7 4.07-2.92 5.26-2.94 5.42-0.03 0.3 0.2 0.58 0.5 0.61 0.31 0.03 0.59-0.19 0.62-0.5 0.01-0.06 0.45-2.13 6.91-10.74 6.56-8.74 17.32-16.61 24.33-14 7.55 2.83 9.61 11.25 5.79 23.73-0.09 0.29 0.07 0.61 0.37 0.7q0.25 0.07 0.46-0.06 0.17-0.11 0.24-0.31c4.02-13.13 1.72-22.05-6.47-25.1z"/>
		<path id="&lt;Path&gt;" class="s7" d="m970.05 595.07c-0.03 0-0.12-0.01-0.16-0.01-0.4-0.04-0.77-0.24-1.03-0.55-0.26-0.32-0.38-0.72-0.34-1.13 0.05-0.49 0.46-1.77 2.55-5.02-3-1.58-12.4-4.43-20.72-6.53-0.82-0.21-1.32-1.05-1.12-1.86 0.18-0.69 0.79-1.17 1.5-1.17 0.08 0 0.29 0.03 0.37 0.05 1.79 0.45 16.7 4.24 21.67 6.98 0.92-1.32 1.93-2.71 3.07-4.24 5.74-7.64 15.08-15.35 23.01-15.35q2 0.01 3.73 0.65c8.75 3.27 11.26 12.61 7.06 26.3-0.1 0.35-0.33 0.65-0.64 0.85q-0.39 0.24-0.82 0.24c-0.1 0-0.36-0.04-0.46-0.07-0.81-0.25-1.26-1.11-1.02-1.92 3.65-11.91 1.81-19.91-5.2-22.52q-1.2-0.45-2.63-0.45c-6.85 0-15.47 7.32-20.57 14.12-6.12 8.15-6.72 10.28-6.74 10.37-0.06 0.67-0.72 1.26-1.51 1.26z"/>
		<path id="&lt;Path&gt;" class="s4" d="m1028.2 539.19c-12.56-6.1-23.61 3.04-26.72 8.14-3.06 5.01-16.09 15.57-17.96 17.07-4.03-1.13-15.79-4.36-17.23-3.95-0.3 0.09-0.47 0.4-0.39 0.7 0.09 0.29 0.4 0.47 0.7 0.38 0.96-0.2 9.43 1.93 16.89 4.03q0.28 0.07 0.5-0.1c0.62-0.49 15.06-12 18.44-17.55 2.95-4.83 13.41-13.48 25.28-7.71q3.01 1.47 4.12 4.8c2.86 8.62-4.83 23.6-4.9 23.75-0.15 0.28-0.04 0.61 0.23 0.76 0.19 0.09 0.4 0.08 0.56-0.02q0.13-0.08 0.2-0.22c0.33-0.63 7.98-15.56 4.97-24.63-0.83-2.5-2.41-4.34-4.69-5.45z"/>
		<path id="&lt;Path&gt;" class="s7" d="m1027.42 570.55q-0.37 0-0.71-0.18c-0.36-0.18-0.63-0.5-0.75-0.89-0.13-0.39-0.09-0.81 0.1-1.18 0.08-0.15 7.54-14.86 4.84-23q-0.98-2.93-3.62-4.22c-2.48-1.21-5.04-1.82-7.62-1.82-7.87 0-14.23 5.62-16.39 9.16-3.39 5.56-17.11 16.57-18.67 17.8-0.27 0.22-0.61 0.34-0.95 0.34-0.09 0-0.34-0.04-0.42-0.06-7.98-2.25-15.21-4.01-16.46-4.01-0.05 0.02-0.19 0.04-0.33 0.04-0.68 0-1.29-0.46-1.48-1.12-0.23-0.8 0.24-1.65 1.05-1.89q0.27-0.08 0.64-0.08c2.45 0 12.1 2.62 16.65 3.89 2.65-2.15 14.52-11.89 17.34-16.51 2.51-4.11 9.9-10.63 19.03-10.63 3.04 0 6.05 0.71 8.95 2.13 2.53 1.22 4.28 3.25 5.2 6.02 3.13 9.44-4.7 24.73-5.03 25.38q-0.2 0.37-0.56 0.6-0.37 0.22-0.81 0.23z"/>
		<path id="&lt;Path&gt;" class="s4" d="m1050.51 520.4c-2.46-3.19-7.39-5.35-12.85-5.62-6.78-0.35-13.27 2.18-17.8 6.95-8.36 8.82-13.99 12.17-15.01 12.75l-19.8-4c-0.3-0.06-0.6 0.14-0.66 0.44-0.06 0.3 0.14 0.6 0.44 0.66l20 4.04q0.19 0.03 0.36-0.05c0.25-0.13 6.11-3.18 15.49-13.07 4.29-4.53 10.47-6.93 16.93-6.61 5.14 0.27 9.74 2.25 12.01 5.19 0.18 0.23 0.5 0.28 0.74 0.13q0.02-0.01 0.04-0.03c0.25-0.19 0.3-0.54 0.11-0.78z"/>
		<path id="&lt;Path&gt;" class="s7" d="m1004.94 536.6c-0.07 0-0.25-0.02-0.32-0.03l-19.98-4.04c-0.4-0.07-0.75-0.3-0.98-0.65-0.23-0.34-0.31-0.75-0.23-1.15 0.15-0.72 0.78-1.24 1.51-1.24 0.07 0 0.24 0.02 0.3 0.03l19.44 3.93c1.57-0.93 6.87-4.37 14.48-12.39 4.68-4.93 11.49-7.64 18.55-7.26 5.74 0.29 10.94 2.59 13.57 6 0.25 0.32 0.36 0.73 0.31 1.13-0.06 0.41-0.26 0.77-0.59 1.03-0.98 0.63-1.68 0.33-2.15-0.28-2.1-2.72-6.43-4.56-11.29-4.81-6.16-0.32-12.11 2.02-16.17 6.3-9.27 9.77-15.11 12.93-15.75 13.26q-0.33 0.17-0.7 0.17z"/>
		<path id="&lt;Path&gt;" class="s4" d="m891.92 562.16c-13 0.04-23.66 2.64-23.76 2.67-0.31 0.08-0.49 0.38-0.41 0.68 0.07 0.3 0.37 0.48 0.68 0.41 0.41-0.11 42.12-10.12 61.9 9.97 0.19 0.19 0.48 0.22 0.7 0.09q0.05-0.03 0.09-0.08c0.22-0.22 0.23-0.57 0.01-0.79-10.59-10.76-27.17-12.98-39.21-12.95z"/>
		<path id="&lt;Path&gt;" class="s7" d="m930.73 577.04c-0.41 0-0.8-0.17-1.09-0.46-9.99-10.14-25.89-12.27-37.48-12.27-12.92 0-23.4 2.53-23.5 2.56-0.08 0.01-0.29 0.04-0.37 0.04-0.71 0-1.32-0.48-1.49-1.17-0.1-0.4-0.04-0.81 0.17-1.16 0.22-0.35 0.55-0.93 0.95-1.02 0.1-0.03 10.89-3.03 24-3.03h0.27c12.14 0 28.87 2.63 39.64 13.57 0.59 0.6 0.58 1.74-0.02 2.33-0.06 0.06-0.22 0.26-0.29 0.3-0.22 0.14-0.5 0.31-0.79 0.31z"/>
		<path id="&lt;Path&gt;" class="s8" d="m905.53 888.24h-226c-9.47 0-17.01-7.64-17.01-17v-116.88c0-9.48 7.65-17.01 17.01-17.01h226c9.48 0 17.01 7.65 17.01 17.01v116.88c0.11 9.36-7.53 17-17.01 17z"/>
		<path id="&lt;Path&gt;" class="s3" d="m732.09 847.27v26.93h-40.95v-26.93z"/>
		<path id="&lt;Path&gt;" class="s3" d="m790.48 825.18v48.57h-40.96v-48.57z"/>
		<path id="&lt;Path&gt;" class="s3" d="m846.74 796.37v77.38h-40.96v-77.38z"/>
		<path id="&lt;Path&gt;" class="s3" d="m903.12 767.03v106.72h-40.96v-106.72z"/>
		<path id="&lt;Path&gt;" class="s3" d="m686.59 837.65c-2.11 0-4.14-1.2-5.08-3.25-1.29-2.8-0.06-6.12 2.74-7.41l138.75-63.88c2.8-1.28 6.12-0.06 7.41 2.74 1.29 2.81 0.07 6.12-2.74 7.41l-138.75 63.88q-1.15 0.52-2.33 0.51z"/>
		<path id="&lt;Path&gt;" class="s3" d="m826.21 789.76q-1.09 0.01-2.16-0.43c-2.84-1.2-4.18-4.47-2.99-7.32l5.96-14.2-15.01-2.93c-3.03-0.59-5.01-3.52-4.42-6.55 0.6-3.03 3.53-5 6.56-4.41l21.75 4.24c1.65 0.32 3.07 1.37 3.86 2.85 0.79 1.49 0.87 3.25 0.22 4.8l-8.61 20.53c-0.9 2.14-2.97 3.42-5.16 3.42z"/>
		<path id="&lt;Path&gt;" class="s1" d="m739.7 662.07l-35.44 37.18"/>
		<path id="&lt;Path&gt;" class="s4" d="m704.26 701.2c-0.49 0-0.97-0.18-1.35-0.54-0.78-0.74-0.81-1.98-0.07-2.76l35.45-37.18c0.74-0.78 1.98-0.81 2.76-0.07 0.78 0.75 0.81 1.98 0.07 2.77l-35.45 37.18c-0.38 0.4-0.9 0.6-1.41 0.6z"/>
		<path id="&lt;Path&gt;" class="s0" d="m834.44 1842.2c13.36 15.12 38.13 16.11 56.51 20.22q36.39 8.14 72.78 16.28c6.97 1.56 14.15 3.21 19.93 7.4 27.43 19.91 12.38 65.94-8.18 84.23-16.17 14.4-36.77 22.56-56.01 32.49-37.24 19.22-68.15 46.42-109.22 58.16-81.72 23.38-205.92 2.64-205.56-104.84 0.1-29.11 13.84-58.53 37.9-74.92 9.65-6.57 20.69-11.02 29.89-18.22 27.52-21.55 7.88-59.33 24.72-86.03 12.96-20.56 41.54-23.81 63.61-24.44 14.63-0.43 30.55 0.63 41.66 10.16 23.32 19.99 12.29 57.24 31.97 79.51z"/>
		<path id="&lt;Path&gt;" class="s1" d="m835.88 1768.79l5.51-1.75-5.51-1.88c-1.64-0.43-2.91-1.76-3.26-3.42l-1.75-8.27-1.87 8.09c-0.4 1.71-1.75 3.03-3.46 3.39l-5.18 1.78 5 1.77c1.75 0.4 3.1 1.81 3.42 3.58l1.44 8 2.11-8c0.44-1.7 1.83-2.98 3.55-3.29z"/>
		<path id="&lt;Compound Path&gt;" class="s2" d="m830.22 1780.93q-0.02 0-0.03 0c-0.4-0.01-0.73-0.3-0.8-0.7l-1.45-7.99c-0.26-1.44-1.35-2.59-2.77-2.92q-0.05-0.01-0.09-0.02l-5-1.77c-0.34-0.12-0.57-0.44-0.57-0.8 0-0.36 0.23-0.68 0.57-0.8l5.19-1.78q0.04-0.02 0.1-0.03c1.38-0.29 2.48-1.37 2.8-2.75l1.88-8.09c0.09-0.39 0.43-0.66 0.82-0.66q0.01 0 0.01 0c0.4 0.01 0.74 0.29 0.82 0.67l1.75 8.27c0.29 1.36 1.3 2.43 2.65 2.78l5.56 1.9c0.35 0.12 0.58 0.45 0.58 0.81-0.01 0.37-0.25 0.69-0.6 0.8l-5.5 1.75q-0.05 0.02-0.11 0.03c-1.39 0.25-2.52 1.29-2.88 2.66l-2.11 8.01c-0.1 0.37-0.44 0.63-0.82 0.63zm-4.62-13.25c2.06 0.5 3.63 2.16 4.01 4.25l0.76 4.23 1.14-4.3c0.52-1.98 2.15-3.51 4.17-3.89l3-0.96-3.07-1.04c-1.91-0.5-3.4-2.06-3.82-4.06l-0.95-4.52-1.01 4.36c-0.47 2-2.06 3.57-4.06 4.02l-2.83 0.97z"/>
		<path id="&lt;Path&gt;" class="s2" d="m645.65 1890.92l7.4-2.35-7.4-2.53c-2.21-0.58-3.91-2.36-4.38-4.6l-2.35-11.12-2.52 10.88c-0.53 2.29-2.34 4.07-4.65 4.55l-6.96 2.4 6.72 2.37c2.36 0.55 4.16 2.44 4.59 4.82l1.94 10.75 2.84-10.76c0.59-2.27 2.46-4 4.77-4.41z"/>
		<path id="&lt;Path&gt;" class="s2" d="m991.78 1886.43l6.27-1.99-6.27-2.14c-1.88-0.49-3.31-2-3.71-3.9l-1.99-9.41-2.14 9.21c-0.45 1.94-1.98 3.45-3.93 3.86l-5.9 2.03 5.69 2.01c2 0.46 3.52 2.06 3.89 4.08l1.64 9.1 2.4-9.11c0.51-1.93 2.09-3.38 4.05-3.74z"/>
		<path id="&lt;Path&gt;" class="s3" d="m961.57 1764.88c-16.01 0.04-29.79 8.89-37.21 21.85-7.48-12.93-21.31-21.71-37.31-21.68-23.83 0.06-43.11 19.42-43.05 43.25 0.05 23.83 34.94 55.32 80.65 105.72 43.04-46.19 80.22-82.26 80.16-106.09-0.05-23.83-19.41-43.1-43.24-43.05z"/>
		<path id="&lt;Compound Path&gt;" class="s2" d="m924.65 1914.87q-0.01 0-0.01 0-0.37-0.01-0.62-0.28c-9.04-9.97-17.49-19.01-25.66-27.77-33.22-35.57-55.17-59.07-55.21-78.52-0.06-24.26 19.63-44.04 43.89-44.1h0.11c15.04 0 29.17 7.96 37.2 20.87 8-12.98 22.13-21 37.22-21.04h0.1c24.2 0 43.94 19.69 43.99 43.9 0.05 21.19-28.49 51.49-64.62 89.85-5.11 5.44-10.4 11.05-15.77 16.82q-0.26 0.26-0.62 0.27zm-37.5-148.97h-0.1c-23.33 0.06-42.26 19.07-42.2 42.4 0.04 18.78 22.99 43.35 54.75 77.37 7.99 8.55 16.24 17.39 25.06 27.09 5.15-5.53 10.23-10.92 15.15-16.14 35.87-38.09 64.2-68.17 64.16-88.69-0.06-23.27-19.03-42.2-42.3-42.2h-0.1c-14.96 0.04-28.93 8.24-36.48 21.42-0.15 0.26-0.43 0.42-0.73 0.43q0 0 0 0c-0.31 0-0.59-0.17-0.74-0.43-7.58-13.11-21.56-21.25-36.47-21.25z"/>
		<path id="&lt;Path&gt;" class="s1" d="m903.78 1793.81c0-9.96-8.07-18.04-18.03-18.04-9.96 0-18.04 8.08-18.04 18.04 0 9.96 8.08 18.04 18.04 18.04 9.96 0 18.03-8.08 18.03-18.04z"/>
		<path id="&lt;Path&gt;" class="s1" d="m882.56 1808.24c0-6.21-5.03-11.25-11.24-11.25-6.21 0-11.25 5.04-11.25 11.25 0 6.21 5.04 11.24 11.25 11.24 6.21 0 11.24-5.03 11.24-11.24z"/>
		<path id="&lt;Path&gt;" class="s1" d="m718.52 1847.23l-15.67-19.67c1.72-4.52 2.58-9.4 2.4-14.47-0.78-21.68-20.18-38.58-43.34-37.75-23.15 0.83-41.29 19.08-40.51 40.76 0.78 21.67 20.18 38.58 43.33 37.74 9.56-0.34 18.25-3.65 25.12-8.94z"/>
		<path id="&lt;Compound Path&gt;" class="s4" d="m663.1 1854.72c-23.09 0-41.77-16.95-42.55-38.59-0.79-22.12 17.75-40.79 41.33-41.64q0.84-0.03 1.67-0.03c23.08 0 41.77 16.95 42.55 38.6 0.17 4.89-0.6 9.71-2.28 14.34l15.36 19.3c0.21 0.27 0.24 0.63 0.08 0.93-0.16 0.3-0.48 0.47-0.81 0.45l-28.34-2.31c-7.26 5.5-16.02 8.59-25.35 8.92q-0.83 0.03-1.66 0.03zm0.45-78.56q-0.8 0-1.61 0.03c-22.65 0.81-40.45 18.7-39.69 39.88 0.76 21.22 19.56 37.74 42.45 36.93 9.09-0.33 17.6-3.36 24.63-8.77q0.26-0.2 0.59-0.18l26.71 2.18-14.44-18.14c-0.19-0.24-0.24-0.55-0.13-0.83 1.73-4.56 2.51-9.32 2.34-14.14-0.74-20.73-18.69-36.96-40.85-36.96z"/>
		<path id="&lt;Path&gt;" class="s5" d="m690.88 1810.02c-1.7-15.31-15.49-26.34-30.8-24.63-15.3 1.7-26.33 15.49-24.62 30.79 1.7 15.31 15.49 26.34 30.79 24.63 15.31-1.7 26.33-15.49 24.63-30.79z"/>
		<path id="&lt;Path&gt;" class="s4" d="m673.68 1805.76c-0.48-4.36-1.95-7.78-3.28-7.63-1.32 0.15-2 3.8-1.52 8.16 0.49 4.36 1.96 7.78 3.28 7.63 1.33-0.15 2.01-3.8 1.52-8.16z"/>
		<path id="&lt;Path&gt;" class="s4" d="m655.29 1807.81c-0.48-4.36-1.95-7.78-3.27-7.63-1.33 0.15-2.01 3.8-1.52 8.16 0.48 4.36 1.95 7.77 3.28 7.63 1.32-0.15 2-3.8 1.51-8.16z"/>
		<path id="&lt;Path&gt;" class="s1" d="m645.88 1820.15c0 0 17.57 6.41 35.97-4 0 0-2.85 15.56-16.98 17.13-14.12 1.57-18.99-13.13-18.99-13.13z"/>
		<path id="&lt;Compound Path&gt;" class="s4" d="m662.79 1834.24c-12.99 0-17.67-13.68-17.72-13.82-0.1-0.31-0.02-0.65 0.22-0.88 0.23-0.23 0.57-0.3 0.88-0.19 0.05 0.02 5.32 1.9 12.94 1.9 7.96 0 15.47-1.96 22.32-5.84 0.29-0.17 0.64-0.15 0.91 0.04 0.27 0.2 0.41 0.53 0.35 0.85-0.03 0.16-3.14 16.2-17.72 17.82q-1.11 0.12-2.18 0.12zm-15.43-12.76c1.61 3.41 6.25 11.07 15.43 11.07q0.98 0 1.99-0.12c10.64-1.18 14.57-10.58 15.78-14.62-6.65 3.41-13.85 5.14-21.45 5.14-5.35 0-9.53-0.87-11.75-1.47z"/>
		<path id="&lt;Path&gt;" class="s4" d="m738.99 1859.81c0.73-6.79 3.48-12.14 9.55-12.29 6.07-0.14 44.26-0.43 46.71 0.44 2.46 0.86 8.54 12.29 8.54 12.29l-20.54 5.78h-46.57z"/>
		<path id="&lt;Path&gt;" class="s2" d="m789.9 1857.36c0 0 13.45 2.17 17.36 4.77 3.9 2.6 9.54 239.5 9.54 239.5 0 0-59 19.96-88.51-3.47l6.37-234.87 17.35-5.79z"/>
		<path id="&lt;Path&gt;" class="s6" d="m743.26 1866.68c-0.65-6.94 0.43-15.62 5.21-16.92l-0.65-5.42c-9.98 0.65-13.16 13.45-13.16 13.45 0 0-34.72 8.1-62.48 26.61-27.77 18.51-43.97 105.29-43.97 105.29l47.64 0.66 7.07 113.24c19.17 6.43 38.45 11.43 58.48 11.74 2.26-84.18 2.35-243.45 1.86-248.65z"/>
		<path id="&lt;Compound Path&gt;" class="s2" d="m742.22 2116.2l-0.84-0.02c-21.9-0.34-42.89-6.48-58.73-11.79l-0.54-0.18-7.06-113.02-47.86-0.66 0.18-0.99c0.67-3.56 16.59-87.35 44.33-105.84 25.79-17.2 57.92-25.54 62.27-26.62 0.73-2.47 4.35-12.97 13.79-13.59l0.8-0.05 0.84 6.95-0.71 0.19c-4.08 1.11-5.23 9.09-4.58 16.03 0.43 4.62 0.43 163.36-1.86 248.75zm-58.49-13.23c15.45 5.16 35.71 11.03 56.83 11.5 2.27-85.55 2.28-243.11 1.85-247.71-0.66-6.97 0.33-15.53 5.13-17.57l-0.47-3.92c-8.64 1.22-11.57 12.61-11.6 12.72l-0.12 0.51-0.51 0.12c-0.35 0.08-34.89 8.28-62.2 26.49-25.57 17.04-41.5 94.08-43.41 103.75l47.41 0.65z"/>
		<path id="&lt;Path&gt;" class="s6" d="m926.08 1979.42c-8.14-22.78-31.91-84.51-56.05-101.38-12.58-8.8-62.77-21.98-62.77-21.98 0 0-3.21-10.32-16.72-11.67l0.45 5.16c0 0 6.72 0.86 7.59 6.72 0.63 4.25 5.82 164.65 8.63 252.51 20.16-1.29 40.34-3.33 58.98-10.47l-0.13-66.55c-0.05-22.58 51.85-42.13 51.85-42.13q0.19-0.02 0.38-0.05c3.64-0.44 7.26-0.97 10.74-1.63 0 0-1.05-3.19-2.95-8.53z"/>
		<path id="&lt;Compound Path&gt;" class="s2" d="m806.39 2109.69l-0.03-0.88c-5.02-157.37-8.17-249.37-8.62-252.42-0.76-5.13-6.61-5.97-6.86-6l-0.67-0.09-0.6-6.86 1.02 0.1c12.25 1.23 16.43 9.73 17.27 11.81 5.22 1.38 50.53 13.54 62.61 22 24.07 16.81 47.44 76.78 56.37 101.79 1.88 5.28 2.95 8.52 2.96 8.55l0.3 0.92-0.95 0.18c-3.3 0.62-6.93 1.17-10.8 1.64l-0.27 0.03c-2.51 0.96-51.26 20.02-51.22 41.3l0.14 67.13-0.55 0.21c-19.46 7.45-40.78 9.34-59.23 10.53zm-14.6-260.85c1.84 0.43 6.86 2.06 7.63 7.31 0.64 4.24 5.66 159.11 8.61 251.73 17.95-1.17 38.52-3.07 57.31-10.15l-0.13-65.97c-0.04-22.9 50.27-42.12 52.41-42.92l0.18-0.05 0.38-0.04c3.47-0.42 6.74-0.91 9.74-1.45-0.44-1.31-1.34-3.97-2.63-7.59-8.88-24.85-32.08-84.44-55.74-100.97-12.32-8.61-62-21.73-62.5-21.86l-0.45-0.12-0.14-0.45c-0.13-0.38-3.07-9.3-14.98-10.95z"/>
		<path id="&lt;Path&gt;" class="s4" d="m803.79 1992.85q-0.13 0-0.25-0.03c-0.45-0.14-0.7-0.62-0.56-1.07l14.94-47.99-11.43-25.16c-0.12-0.27-0.1-0.57 0.06-0.82l15.66-24.21c-1.44-3.44-11.53-27.41-16.59-38.32-0.2-0.42-0.01-0.93 0.41-1.12 0.43-0.2 0.93-0.01 1.13 0.41 5.44 11.74 16.68 38.52 16.79 38.79 0.11 0.26 0.08 0.55-0.07 0.79l-15.66 24.2 11.38 25.03q0.13 0.29 0.04 0.6l-15.04 48.31c-0.11 0.36-0.45 0.59-0.81 0.59z"/>
		<path id="&lt;Path&gt;" class="s4" d="m742.75 1993.43c-0.37 0-0.71-0.24-0.81-0.61l-13.31-46.86q-0.06-0.24 0.01-0.48l7.66-25.55-15.56-15.84c-0.21-0.22-0.29-0.55-0.2-0.84 0.09-0.3 9.01-29.68 13.3-45.68 0.12-0.45 0.58-0.72 1.04-0.6 0.45 0.12 0.72 0.59 0.6 1.04-3.99 14.9-11.99 41.35-13.17 45.25l15.55 15.84c0.22 0.22 0.3 0.54 0.21 0.83l-7.74 25.8 13.24 46.62c0.13 0.45-0.13 0.92-0.58 1.05q-0.12 0.03-0.24 0.03z"/>
		<path id="&lt;Path&gt;" class="s7" d="m682.52 2063.51c-1.01 0-1.97-0.07-2.85-0.15-1.66-0.13-4.13-0.47-6.08-1.9-1.76-1.15-3.26-3.59-2.67-5.98 0.64-2.59 3.28-4.25 7.25-4.57q3.63-0.28 5.72 1.21c0.99 0.71 1.69 1.89 1.86 3.15 0.14 1.06-0.12 2.07-0.73 2.82-0.2 0.26-0.54 0.37-0.86 0.29-0.34-0.08-0.71-0.18-0.93-0.16-0.46 0.04-0.87-0.31-0.91-0.77-0.04-0.47 0.31-0.88 0.78-0.92q0.43-0.02 0.85 0.07c0.16-0.39 0.16-0.8 0.12-1.1-0.11-0.8-0.56-1.56-1.17-2-1.3-0.94-3.22-1-4.59-0.89-1.52 0.12-5.1 0.68-5.74 3.28-0.4 1.6 0.73 3.35 1.99 4.18 1.27 0.93 2.88 1.41 5.26 1.6 2.45 0.23 5.58 0.33 8.28-0.93 2.13-1.14 4.05-3.88 3.38-6.29q-0.76-2.86-5.42-4.63c-3.05-1.16-6.53-1.68-10.33-1.56-0.47 0.05-0.86-0.35-0.87-0.82-0.02-0.47 0.35-0.86 0.82-0.88 4.02-0.13 7.72 0.44 10.98 1.68 3.64 1.37 5.81 3.31 6.46 5.76 0.9 3.26-1.45 6.76-4.26 8.25-2.08 0.98-4.31 1.26-6.34 1.26z"/>
		<path id="&lt;Path&gt;" class="s4" d="m737.38 2016.99c0-2.51-2.03-4.54-4.53-4.54-2.51 0-4.54 2.03-4.54 4.54 0 2.5 2.03 4.53 4.54 4.53 2.5 0 4.53-2.03 4.53-4.53z"/>
		<path id="&lt;Path&gt;" class="s4" d="m737.6 2052.17c0-2.5-2.03-4.54-4.54-4.54-2.5 0-4.53 2.04-4.53 4.54 0 2.51 2.03 4.54 4.53 4.54 2.51 0 4.54-2.03 4.54-4.54z"/>
		<path id="&lt;Path&gt;" class="s4" d="m735.87 2086.45c0-2.51-2.04-4.54-4.54-4.54-2.51 0-4.54 2.03-4.54 4.54 0 2.5 2.03 4.53 4.54 4.53 2.5 0 4.54-2.03 4.54-4.53z"/>
		<path id="&lt;Path&gt;" class="s1" d="m787.56 1803.19c0 0 3.89-9.18 10.02-9.19 6.12-0.02 11.31 11.74 6.39 16.24-4.92 4.51-13.61 2.42-13.61 2.42z"/>
		<path id="&lt;Compound Path&gt;" class="s4" d="m795.01 1813.99c-2.7 0-4.76-0.49-4.85-0.51-0.29-0.07-0.52-0.29-0.61-0.58l-2.8-9.47q-0.09-0.29 0.03-0.57c0.17-0.4 4.18-9.7 10.79-9.71 3.76 0 6.85 3.64 8.25 7.25 1.29 3.31 1.63 7.8-1.28 10.47-2.82 2.58-6.74 3.12-9.53 3.12zm-3.98-2.06c0.73 0.13 2.21 0.36 3.98 0.36 2.49 0 5.97-0.46 8.39-2.67 2.27-2.09 1.92-5.81 0.84-8.6-1.41-3.64-4.15-6.17-6.65-6.17-4.94 0.01-8.44 6.94-9.13 8.4z"/>
		<path id="&lt;Path&gt;" class="s4" d="m782.86 1762.67c5.12 4.01 7.87 15.57 8.85 26.28 0.98 10.72-9.27-18.23-9.27-18.23l-9.36-6.18z"/>
		<path id="&lt;Path&gt;" class="s1" d="m793.48 1791.92c-5.07-10.67-5.43-19.47-9.01-24.25 0 0-14.14-21.7-43.51-5.91q-0.53 0.29-1.04 0.59c-14.8 8.63-20.69 24.96-11.49 40.04l7.91 12.98c-2.71-0.55-5.65-0.52-7.94 1.12-5.79 4.12-2.75 18.69 4.93 19.62 5.23 0.64 10.05-2.8 12.58-5.05l1.22 1.99 2.8 28.06c34.63 20.38 41.79-2.42 41.79-2.42l-2.2-21.8c19.46-11.03 8.88-34.6 3.96-44.97z"/>
		<path id="&lt;Compound Path&gt;" class="s4" d="m774.76 1870.43q0 0-0.01 0c-7.07 0-15.57-2.89-25.25-8.59-0.23-0.14-0.38-0.38-0.41-0.65l-2.79-27.86-0.6-0.98c-2.42 2-6.53 4.69-11.09 4.69q-0.7 0-1.38-0.08c-4.48-0.55-7.15-4.97-8.16-8.93-1.09-4.3-0.64-9.76 2.83-12.23q2.69-1.91 6.77-1.54l-6.97-11.43c-4.26-6.99-5.55-14.53-3.71-21.79 1.98-7.85 7.49-14.75 15.5-19.43q0.53-0.3 1.07-0.6c7.23-3.88 14.19-5.86 20.68-5.86 15.9 0 23.62 11.56 23.94 12.05 1.89 2.53 2.93 6.19 4.13 10.43 1.17 4.11 2.49 8.77 4.94 13.93 4.42 9.33 16.13 33.99-3.83 45.79l2.14 21.25q0.02 0.17-0.03 0.34c-0.04 0.12-3.77 11.49-17.77 11.49zm-24.03-9.84c9.26 5.4 17.34 8.14 24.02 8.14 12.02 0 15.63-8.8 16.11-10.14l-2.19-21.62c-0.03-0.33 0.14-0.66 0.43-0.82 19.25-10.91 7.89-34.85 3.61-43.87-2.5-5.28-3.85-10.01-5.03-14.19-1.2-4.24-2.16-7.59-3.89-9.91-0.11-0.16-7.59-11.33-22.55-11.33-6.21 0-12.89 1.91-19.87 5.66q-0.52 0.28-1.02 0.57c-7.62 4.44-12.85 10.97-14.72 18.37-1.72 6.82-0.5 13.9 3.52 20.5l7.92 12.98c0.17 0.29 0.16 0.65-0.03 0.93-0.2 0.27-0.53 0.41-0.87 0.34-3.02-0.61-5.51-0.28-7.28 0.98-2.41 1.71-3.3 6-2.17 10.43 0.87 3.42 3.08 7.22 6.71 7.66q0.58 0.07 1.18 0.07c4.52 0 8.67-3.08 10.74-4.92 0.18-0.16 0.44-0.24 0.69-0.2 0.24 0.03 0.46 0.18 0.59 0.4l1.22 1.99q0.1 0.16 0.12 0.36z"/>
		<path id="&lt;Path&gt;" class="s4" d="m789.71 1836.01c-5.3 2.69-17.36 3.33-22.95 2.23 0 0 16.74 6.44 24.22 5.12z"/>
		<path id="&lt;Path&gt;" class="s4" d="m731.12 1814.88l-12.87-22.35 25.06-11.02c0 0-7.04 9.69-3.42 20.97 1.4 4.37 2.76 7.65 3.9 10.03 1.03 2.15-0.83 4.55-3.17 4.12z"/>
		<path id="&lt;Path&gt;" class="s4" d="m730.39 1826.45q-0.1 0-0.19-0.02c-0.46-0.1-0.75-0.56-0.64-1.02 0.05-0.21 1.26-5.26 6.11-6.21 4.96-0.98 7.94 5.15 8.06 5.41 0.2 0.43 0.02 0.93-0.4 1.14-0.42 0.2-0.93 0.02-1.13-0.4-0.03-0.06-2.54-5.22-6.2-4.49-3.79 0.74-4.78 4.89-4.79 4.93-0.09 0.4-0.44 0.66-0.82 0.66z"/>
		<path id="&lt;Path&gt;" class="s4" d="m737.3 1825.45q-0.13 0-0.27-0.05c-0.44-0.14-0.68-0.62-0.54-1.07l1.39-4.2c0.15-0.45 0.62-0.69 1.07-0.54 0.45 0.15 0.69 0.63 0.54 1.07l-1.38 4.2c-0.12 0.36-0.45 0.59-0.81 0.59z"/>
		<path id="&lt;Path&gt;" class="s1" d="m775.03 1798.24c0 0 4.38 5.4 4.82 6.42 0.43 1.02-1.44 4.14-1.44 4.14"/>
		<path id="&lt;Path&gt;" class="s4" d="m778.41 1809.65q-0.22 0-0.43-0.12c-0.4-0.24-0.53-0.76-0.29-1.16 0.81-1.37 1.46-2.99 1.37-3.4-0.24-0.55-2.57-3.58-4.69-6.19-0.3-0.36-0.24-0.9 0.12-1.19 0.36-0.3 0.9-0.24 1.19 0.12 0.75 0.92 4.49 5.54 4.95 6.62 0.54 1.28-0.86 3.86-1.49 4.91-0.16 0.27-0.44 0.41-0.73 0.41z"/>
		<path id="&lt;Path&gt;" class="s1" d="m787.53 1824.77c0 0 2.81 3.34 0.38 6.61"/>
		<path id="&lt;Path&gt;" class="s4" d="m787.91 1832.23q-0.28 0-0.51-0.17c-0.38-0.28-0.45-0.81-0.17-1.19 2.01-2.7-0.32-5.52-0.35-5.55-0.3-0.36-0.25-0.89 0.1-1.19 0.36-0.31 0.9-0.26 1.2 0.1 1.12 1.33 2.65 4.64 0.41 7.65-0.17 0.23-0.42 0.35-0.68 0.35z"/>
		<path id="&lt;Path&gt;" class="s4" d="m760.66 1785.84c0.35 0.56 0.06 1.28-0.26 1.86-1.59 2.96-3.77 5.61-6.37 7.75-0.46 0.38-0.95 0.75-1.53 0.9-0.99 0.26-2.13-0.27-2.57-1.2-0.36-0.76-0.27-1.67 0.06-2.44 0.33-0.78 0.87-1.44 1.41-2.08 2.01-2.4 4.36-4.9 7.46-5.34 0.66-0.1 1.46-0.03 1.8 0.55z"/>
		<path id="&lt;Path&gt;" class="s4" d="m773.42 1782.5c0.11 0.57 0.74 0.86 1.29 1.04 2.81 0.95 5.81 1.35 8.77 1.16 0.53-0.03 1.07-0.09 1.53-0.34 0.79-0.43 1.21-1.46 0.94-2.32-0.23-0.71-0.84-1.24-1.52-1.54-0.67-0.3-1.42-0.4-2.16-0.49-2.74-0.34-5.75-0.53-8.02 1.05-0.48 0.33-0.96 0.86-0.83 1.44z"/>
		<path id="&lt;Path&gt;" class="s4" d="m796.32 1752.3c1.17 7.56-2.79 16.19-6.97 18.87q-1 0.64-1.98 0.8c-4.79 0.75-16.16-7.94-31.9-1.36-14.89 6.24-9.26 18.13-28.86 23.71q-1.66 0.47-3.57 0.88c-6.27 1.33-12.64-17.24-6.22-22.21 6.41-4.98 11.85-2.74 16.76-10.55 4.91-7.81-0.2-15.56 7.12-19.55 7.33-3.98 22.56-10.11 24.2-1.27 1.63 8.86 9.04 11.83 14.02 6.8 4.99-5.04 16.05-4.86 17.4 3.88z"/>
		<path id="&lt;Path&gt;" class="s4" d="m715.9 1781.46q-0.29 0-0.53-0.18c-2.88-2.28-3.84-6.63-2.19-9.91 1.78-3.51 5.57-5.05 9.62-6.43 3.37-1.15 7.08-2.63 8.5-5.72 0.82-1.8 0.68-4.06-0.35-5.75-1.03-1.7-2.98-2.85-4.96-2.93-0.47-0.03-0.84-0.42-0.81-0.89 0.02-0.47 0.41-0.82 0.88-0.81 2.57 0.11 5 1.55 6.34 3.74 1.34 2.19 1.51 5.01 0.44 7.34-1.69 3.71-5.79 5.36-9.49 6.63-3.71 1.26-7.16 2.64-8.65 5.59-1.28 2.54-0.51 6.04 1.72 7.8 0.37 0.29 0.43 0.83 0.14 1.19-0.16 0.22-0.41 0.33-0.66 0.33z"/>
		<path id="&lt;Path&gt;" class="s4" d="m786.45 1793.97c-0.59-1.78-1.85-2.96-2.83-2.64-0.97 0.32-1.28 2.03-0.69 3.81 0.59 1.78 1.86 2.96 2.83 2.63 0.97-0.32 1.28-2.02 0.69-3.8z"/>
		<path id="&lt;Path&gt;" class="s4" d="m763.54 1803.3c-0.59-1.78-1.86-2.96-2.83-2.63-0.98 0.32-1.29 2.02-0.7 3.8 0.59 1.78 1.86 2.96 2.83 2.64 0.98-0.32 1.29-2.03 0.7-3.81z"/>
		<path id="&lt;Path&gt;" class="s1" d="m767.45 1816.73c0 0 9.97 6.36 19.1-2.34"/>
		<path id="&lt;Path&gt;" class="s4" d="m775.77 1819.8c-4.99 0-8.71-2.32-8.78-2.36-0.39-0.25-0.51-0.77-0.26-1.17 0.26-0.39 0.78-0.51 1.18-0.26 0.38 0.24 9.53 5.89 18.05-2.23 0.34-0.33 0.88-0.31 1.2 0.03 0.33 0.34 0.31 0.87-0.03 1.2-3.87 3.69-7.91 4.79-11.36 4.79z"/>
		<path id="&lt;Path&gt;" class="s1" d="m768.3 1814.71l-2.02 3.82"/>
		<path id="&lt;Path&gt;" class="s4" d="m766.28 1819.38q-0.2 0-0.39-0.1c-0.42-0.22-0.58-0.73-0.36-1.15l2.02-3.82c0.22-0.41 0.73-0.57 1.15-0.35 0.41 0.22 0.57 0.73 0.35 1.15l-2.02 3.82c-0.15 0.28-0.44 0.45-0.75 0.45z"/>
		<path id="&lt;Path&gt;" class="s4" d="m742.7 2017.28q3.55-6.04 7.09-12.1c-13.27-13.66-28.48-25.39-44.65-36.14l-7.33 7.62c16.14 12.56 30.86 26.1 44.89 40.62z"/>
		<path id="&lt;Compound Path&gt;" class="s4" d="m742.7 2018.13q-0.36 0-0.61-0.26c-14.88-15.41-29.54-28.67-44.81-40.54q-0.29-0.24-0.32-0.61-0.02-0.37 0.23-0.65l7.34-7.62c0.28-0.3 0.74-0.35 1.08-0.12 18.2 12.1 32.85 23.96 44.79 36.26 0.27 0.27 0.32 0.69 0.12 1.02l-2.63 4.49q-2.23 3.81-4.46 7.61c-0.13 0.23-0.37 0.38-0.63 0.41q-0.05 0.01-0.1 0.01zm-43.63-41.56c14.8 11.57 29.03 24.44 43.46 39.32q1.95-3.32 3.9-6.65l2.3-3.93c-11.64-11.91-25.87-23.42-43.47-35.17z"/>
		<path id="&lt;Path&gt;" class="s1" d="m697.81 1976.66l-14.21 14.77-0.81-0.02-32.86-0.76-16.51-0.38c0 0-24.85 90.94 15.04 99.22 43.79 9.09 69.47-30.13 94.24-72.21-14.03-14.52-28.75-28.06-44.89-40.62z"/>
		<path id="&lt;Compound Path&gt;" class="s4" d="m660.91 2091.66q0 0 0 0c-4.09 0-8.34-0.45-12.63-1.34-6.87-1.43-12.31-5.35-16.18-11.66-16.21-26.46-0.19-86.09 0.5-88.61 0.1-0.38 0.42-0.63 0.84-0.63l49.81 1.15 13.94-14.5c0.31-0.31 0.79-0.35 1.14-0.08 15.33 11.92 30.04 25.24 44.98 40.7 0.26 0.28 0.31 0.69 0.12 1.02-23.81 40.46-46.46 73.95-82.52 73.95zm-26.84-100.52c-1.71 6.6-15.47 62.23-0.52 86.64 3.61 5.89 8.68 9.55 15.08 10.87 4.17 0.87 8.31 1.31 12.28 1.31 35 0 57.3-32.8 80.73-72.55-14.53-15.01-28.86-27.98-43.75-39.61l-13.68 14.22c-0.16 0.17-0.4 0.26-0.63 0.26l-0.81-0.02z"/>
		<path id="&lt;Path&gt;" class="s1" d="m803.62 1961.12c3.24-2.77 4.08-7.56 1.78-11.32-0.9-1.49-2.18-2.61-3.64-3.32l0.3-0.16q0.99-0.51 1.79-1.2c3.02-2.58 4.01-6.97 2.14-10.7-2.2-4.36-7.52-6.12-11.89-3.92l-27.03 13.6 22.1-13.49q0.62-0.38 1.15-0.85c3.24-2.77 4.08-7.56 1.79-11.32-2.55-4.18-8-5.49-12.18-2.94l-31.02 18.93c-1.61 0.82-4.93 2.5-10.58 5.46-2.79 1.47 9.51-17.09 6.47-27.2-3.26-10.84-12.64-8.15-13.86 0.84-1.46 10.77-11.54 29.95-13.32 33.33-2.37 4.49-6.67 10.89-8.42 17.95l-4.06 4.23c16.17 10.75 31.38 22.48 44.65 36.14q3.46-5.91 6.96-11.73 2.33-1.76 4.71-3.31 0.09-0.01 0.17-0.03l38.92-9.32c1.06-0.25 2-0.76 2.77-1.42 1.83-1.57 2.74-4.08 2.14-6.58-0.86-3.58-4.44-5.77-8.01-4.91l-7.67 1.84 12.68-7.75q0.62-0.38 1.16-0.85z"/>
		<path id="&lt;Compound Path&gt;" class="s4" d="m749.79 2006.03q-0.35-0.01-0.61-0.26c-11.85-12.2-26.41-23.99-44.51-36.03-0.21-0.14-0.35-0.36-0.38-0.61-0.02-0.25 0.06-0.5 0.24-0.68l3.9-4.06c1.41-5.51 4.3-10.58 6.62-14.66 0.66-1.17 1.29-2.27 1.82-3.27 3.54-6.72 11.92-23.4 13.23-33.05 0.68-5.01 3.95-8.65 7.77-8.65 3.4 0 6.3 2.87 7.74 7.68 2.08 6.91-2.5 17.15-5.23 23.27-0.44 1-0.89 2.01-1.21 2.78 3.6-1.88 6.66-3.45 9.36-4.82l30.96-18.9c1.53-0.93 3.27-1.42 5.05-1.42 3.41 0 6.51 1.74 8.29 4.65 2.49 4.08 1.67 9.3-1.96 12.41q-0.55 0.48-1.25 0.92l-4.43 2.7 8.53-4.29q2.06-1.04 4.36-1.04c3.68 0 7.01 2.05 8.67 5.34 2.01 4 1.04 8.82-2.35 11.73q-0.46 0.39-0.95 0.72c1.08 0.76 1.99 1.73 2.68 2.87 2.49 4.08 1.67 9.3-1.95 12.41q-0.59 0.5-1.27 0.93l-8.09 4.93 2.44-0.58q0.87-0.21 1.75-0.21c3.47 0 6.46 2.36 7.28 5.75 0.65 2.74-0.27 5.59-2.42 7.43-0.91 0.77-1.99 1.32-3.12 1.59l-38.92 9.32q-0.02 0.01-0.05 0.02-2.19 1.42-4.39 3.08c-2.46 4.08-4.85 8.14-6.87 11.58-0.13 0.23-0.36 0.38-0.63 0.41q-0.05 0.01-0.1 0.01zm-43.34-37.14c17.42 11.65 31.56 23.08 43.17 34.9 1.92-3.27 4.13-7.01 6.4-10.78q0.08-0.14 0.22-0.24 2.39-1.8 4.76-3.34 0.16-0.1 0.34-0.13 0.05-0.01 0.09-0.02l38.92-9.32c0.88-0.21 1.72-0.63 2.42-1.23 1.66-1.43 2.38-3.63 1.87-5.74-0.63-2.62-2.94-4.45-5.63-4.45q-0.68 0-1.36 0.16l-7.67 1.84c-0.41 0.1-0.82-0.12-0.98-0.5-0.16-0.39-0.02-0.83 0.34-1.05l12.68-7.74q0.56-0.35 1.05-0.77c2.99-2.57 3.67-6.87 1.61-10.24-0.79-1.29-1.92-2.33-3.3-3-0.28-0.14-0.47-0.43-0.47-0.76 0-0.32 0.17-0.61 0.46-0.76l0.3-0.15q0.89-0.46 1.63-1.09c2.79-2.4 3.59-6.37 1.93-9.68-1.37-2.71-4.11-4.4-7.15-4.4q-1.89 0-3.59 0.86l-27.04 13.6c-0.4 0.2-0.9 0.05-1.12-0.35-0.22-0.4-0.09-0.9 0.3-1.14l22.09-13.48q0.58-0.36 1.04-0.77c3-2.57 3.68-6.87 1.62-10.24-1.46-2.4-4.02-3.83-6.84-3.83-1.47 0-2.91 0.4-4.16 1.17l-31.03 18.94c-3.06 1.54-6.51 3.33-10.62 5.48q-0.35 0.18-0.65 0.18c-0.34 0-0.66-0.17-0.84-0.45-0.45-0.7-0.08-1.61 1.59-5.35 2.47-5.51 7.05-15.79 5.15-22.09-1.21-4.05-3.5-6.47-6.11-6.47-2.54 0-5.45 2.47-6.09 7.18-1.34 9.91-9.83 26.81-13.41 33.61-0.54 1.02-1.17 2.14-1.85 3.32-2.3 4.04-5.16 9.08-6.5 14.45q-0.05 0.22-0.21 0.38z"/>
		<path id="&lt;Path&gt;" class="s4" d="m751.21 1945.76q0.06 0.1 0.05 0.23c-0.03 0.2-0.21 0.34-0.41 0.31l-5.32-0.67c-0.2-0.02-0.34-0.21-0.32-0.4 0.03-0.2 0.21-0.34 0.41-0.32l5.32 0.67q0.18 0.03 0.27 0.18z"/>
		<path id="&lt;Path&gt;" class="s4" d="m750.9 1946.73l-0.1-0.01-5.32-0.67q-0.32-0.04-0.53-0.29-0.19-0.26-0.16-0.59c0.05-0.39 0.39-0.69 0.79-0.69l0.09 0.01 5.33 0.67c0.24 0.03 0.45 0.17 0.58 0.38q0.13 0.23 0.1 0.5c-0.05 0.39-0.39 0.69-0.78 0.69z"/>
		<path id="&lt;Path&gt;" class="s4" d="m746.92 1948.28q0.07 0.11 0.18 0.15c0.19 0.08 0.4-0.01 0.48-0.2l1.99-4.98c0.08-0.19-0.01-0.4-0.2-0.47-0.19-0.08-0.4 0.01-0.47 0.2l-2 4.98q-0.06 0.17 0.02 0.32z"/>
		<path id="&lt;Path&gt;" class="s4" d="m747.24 1948.88q-0.15 0-0.3-0.05-0.24-0.1-0.38-0.33-0.19-0.34-0.05-0.7l1.99-4.98c0.16-0.39 0.63-0.59 1.03-0.43q0.3 0.12 0.43 0.42 0.13 0.3 0.01 0.6l-2 4.98c-0.12 0.3-0.41 0.49-0.73 0.49z"/>
		<path id="&lt;Path&gt;" class="s4" d="m756.86 1960.35q0.06 0.1 0.04 0.23c-0.02 0.2-0.2 0.34-0.4 0.31l-5.32-0.66c-0.21-0.03-0.35-0.21-0.32-0.41 0.03-0.2 0.21-0.34 0.41-0.32l5.32 0.67q0.18 0.03 0.27 0.18z"/>
		<path id="&lt;Path&gt;" class="s4" d="m756.54 1961.32h-0.09l-5.33-0.67q-0.32-0.05-0.52-0.3-0.2-0.26-0.16-0.59c0.05-0.39 0.38-0.68 0.78-0.68h0.1l5.32 0.67c0.25 0.03 0.46 0.17 0.58 0.38q0.14 0.24 0.11 0.51c-0.05 0.38-0.39 0.68-0.79 0.68z"/>
		<path id="&lt;Path&gt;" class="s4" d="m752.57 1962.87q0.06 0.11 0.18 0.16c0.19 0.07 0.4-0.02 0.47-0.21l2-4.98c0.08-0.18-0.02-0.4-0.2-0.47-0.19-0.07-0.4 0.02-0.48 0.2l-1.99 4.98q-0.07 0.18 0.02 0.32z"/>
		<path id="&lt;Path&gt;" class="s4" d="m752.88 1963.48q-0.15 0-0.29-0.06-0.25-0.1-0.38-0.33c-0.13-0.21-0.15-0.47-0.06-0.7l2-4.98c0.16-0.39 0.63-0.59 1.03-0.43q0.29 0.12 0.43 0.42 0.12 0.3 0 0.6l-1.99 4.98c-0.13 0.3-0.41 0.5-0.74 0.5z"/>
		<path id="&lt;Path&gt;" class="s4" d="m763.81 1972.59q0.06 0.1 0.04 0.23c-0.02 0.2-0.2 0.34-0.4 0.31l-5.32-0.67c-0.21-0.02-0.35-0.21-0.32-0.4 0.02-0.2 0.21-0.34 0.41-0.32l5.32 0.67q0.18 0.03 0.27 0.18z"/>
		<path id="&lt;Path&gt;" class="s4" d="m763.49 1973.56l-0.09-0.01-5.33-0.66q-0.32-0.05-0.52-0.3-0.2-0.26-0.16-0.59c0.05-0.39 0.38-0.69 0.78-0.69l0.1 0.01 5.32 0.67c0.25 0.03 0.46 0.17 0.58 0.38q0.14 0.24 0.1 0.5c-0.04 0.39-0.38 0.69-0.78 0.69z"/>
		<path id="&lt;Path&gt;" class="s4" d="m759.52 1975.11q0.06 0.11 0.18 0.15c0.18 0.08 0.4-0.01 0.47-0.2l2-4.98c0.08-0.18-0.02-0.4-0.2-0.47-0.19-0.07-0.4 0.02-0.48 0.2l-1.99 4.98q-0.07 0.17 0.02 0.32z"/>
		<path id="&lt;Path&gt;" class="s4" d="m759.83 1975.72q0 0 0 0-0.15 0-0.29-0.06-0.25-0.1-0.39-0.34c-0.12-0.2-0.14-0.46-0.05-0.69l2-4.98c0.16-0.39 0.63-0.59 1.03-0.43q0.29 0.12 0.43 0.42 0.12 0.3 0 0.6l-1.99 4.98c-0.13 0.3-0.41 0.5-0.74 0.5z"/>
		<path id="&lt;Path&gt;" class="s4" d="m735.44 1917.88c-1.28-0.31-2.71-0.71-2.8-0.74-0.24-0.07-0.37-0.31-0.3-0.54 0.06-0.24 0.28-0.39 0.54-0.3 0.03 0.01 3.11 0.88 4.21 1.03 0.44-0.67 0.93-4.97 0.08-7.07-0.21-0.53-0.46-0.82-0.75-0.79-0.26 0-0.44-0.2-0.45-0.44 0-0.24 0.2-0.44 0.44-0.44 0.4 0 0.96 0.16 1.4 0.97 1.09 1.98 0.79 7.06-0.01 8.27-0.24 0.37-0.53 0.4-0.68 0.39-0.36-0.04-1-0.18-1.68-0.34z"/>
		<path id="&lt;Compound Path&gt;" class="s4" d="m737.17 1918.64h-0.08q-0.53-0.05-1.75-0.35c-1.16-0.27-2.44-0.63-2.81-0.74q-0.35-0.1-0.53-0.41-0.17-0.32-0.07-0.66c0.13-0.47 0.61-0.73 1.08-0.59 0.19 0.06 2.62 0.74 3.82 0.97 0.33-1.05 0.67-4.66-0.05-6.44-0.19-0.47-0.33-0.53-0.33-0.53q-0.01 0-0.01 0c-0.51 0-0.89-0.38-0.89-0.85q0-0.36 0.24-0.61 0.26-0.26 0.61-0.26c0.52 0 1.25 0.2 1.79 1.18 1.16 2.14 0.83 7.4-0.03 8.71-0.33 0.51-0.76 0.58-0.99 0.58zm-4.44-1.95c0.4 0.15 1.67 0.5 2.81 0.78 0.96 0.23 1.41 0.3 1.62 0.32l0.01 0.43v-0.43q0.03 0.01 0.09-0.01l-0.23-0.03c-1.14-0.15-4.27-1.05-4.3-1.06zm3.68-7.67q0.74 0.03 1.16 1.08c0.85 2.11 0.44 6.61-0.13 7.46l-0.11 0.17q0.05-0.04 0.12-0.14c0.73-1.11 1-5.99-0.01-7.83q-0.41-0.74-1.03-0.74z"/>
		<path id="&lt;Path&gt;" class="s4" d="m802.3 1946.09q0.03 0.04 0.06 0.08c0.08 0.17 0.01 0.36-0.15 0.44l-26.54 13.4c-0.16 0.09-0.36 0-0.44-0.14-0.08-0.17-0.02-0.37 0.14-0.45l26.54-13.39c0.14-0.07 0.29-0.04 0.39 0.06z"/>
		<path id="&lt;Path&gt;" class="s4" d="m775.53 1960.47c-0.27 0-0.53-0.16-0.67-0.39q-0.15-0.31-0.05-0.61 0.1-0.29 0.38-0.43l26.53-13.39c0.25-0.14 0.65-0.09 0.88 0.14q0.09 0.1 0.12 0.16 0.16 0.32 0.06 0.61-0.11 0.3-0.38 0.43l-26.54 13.4q-0.14 0.07-0.33 0.08z"/>
		<path id="&lt;Path&gt;" class="s4" d="m790.05 1968.91q0.04 0.05 0.07 0.1c0.07 0.16-0.01 0.36-0.17 0.44l-11.28 5.12c-0.18 0.08-0.35-0.01-0.44-0.16-0.07-0.17 0-0.36 0.16-0.44l11.29-5.13q0.21-0.08 0.37 0.07z"/>
		<path id="&lt;Path&gt;" class="s4" d="m778.54 1975.02c-0.27 0-0.52-0.14-0.67-0.39-0.19-0.42-0.03-0.87 0.34-1.04l11.29-5.13c0.34-0.15 0.64-0.06 0.85 0.16q0.08 0.08 0.12 0.14c0.2 0.45 0.03 0.89-0.33 1.07l-11.29 5.13q-0.17 0.07-0.31 0.06z"/>
		<path id="&lt;Path&gt;" class="s4" d="m790.82 1925.91q-0.14 0.12-0.33 0.07c-0.19-0.05-0.29-0.24-0.25-0.43 1.03-3.79-2.91-6.04-3.81-6.5l-7.11 4.54c-0.22 2.72 3.73 6.96 3.77 7 0.13 0.15 0.13 0.37-0.02 0.5l-0.01 0.02c-0.14 0.12-0.36 0.11-0.49-0.03-0.18-0.19-4.37-4.71-3.94-7.75q0.03-0.16 0.16-0.25l7.43-4.73q0.16-0.1 0.34-0.02c0.05 0.02 5.66 2.65 4.37 7.4q-0.03 0.11-0.11 0.18z"/>
		<path id="&lt;Path&gt;" class="s4" d="m782.83 1931.62q-0.33-0.01-0.57-0.25c-0.18-0.19-4.52-4.81-4.05-8.1q0.09-0.39 0.36-0.56l7.42-4.72c0.23-0.14 0.52-0.16 0.76-0.04 0.03 0.01 5.98 2.76 4.59 7.89q-0.06 0.23-0.25 0.39c-0.19 0.17-0.46 0.23-0.71 0.16-0.41-0.12-0.65-0.53-0.55-0.95 0.87-3.19-2.13-5.21-3.38-5.9l-6.72 4.29c0.01 2.52 3.63 6.43 3.66 6.47 0.3 0.32 0.29 0.81-0.02 1.1q-0.26 0.22-0.54 0.22z"/>
		<path id="&lt;Path&gt;" class="s4" d="m803.1 1942.35q-0.13 0.12-0.32 0.07c-0.19-0.05-0.3-0.24-0.25-0.43 1.03-3.79-2.92-6.04-3.81-6.5l-7.12 4.54c-0.21 2.72 3.73 6.96 3.77 7 0.14 0.15 0.13 0.37-0.01 0.51l-0.01 0.01c-0.15 0.12-0.36 0.11-0.49-0.03-0.18-0.19-4.38-4.71-3.94-7.75q0.03-0.16 0.16-0.25l7.42-4.73q0.17-0.1 0.34-0.02c0.06 0.02 5.67 2.65 4.37 7.41q-0.03 0.1-0.11 0.17z"/>
		<path id="&lt;Path&gt;" class="s4" d="m795.11 1948.06q-0.33-0.01-0.56-0.25c-0.19-0.19-4.53-4.8-4.05-8.1q0.08-0.39 0.36-0.56l7.42-4.72c0.22-0.14 0.52-0.16 0.75-0.04 0.04 0.01 5.99 2.76 4.59 7.9q-0.05 0.22-0.24 0.38c-0.2 0.17-0.47 0.23-0.72 0.16-0.41-0.12-0.65-0.53-0.54-0.95 0.86-3.19-2.13-5.21-3.38-5.9l-6.72 4.29c0.01 2.52 3.62 6.43 3.66 6.47 0.3 0.32 0.28 0.81-0.03 1.1q-0.26 0.22-0.54 0.22z"/>
		<path id="&lt;Path&gt;" class="s4" d="m804.53 1959.41q-0.15 0.1-0.33 0.03c-0.18-0.08-0.26-0.29-0.18-0.47 1.56-3.6-2.02-6.39-2.84-6.97l-7.7 3.46c-0.6 2.67 2.7 7.43 2.7 7.43 0.15 0.21 0.11 0.43-0.05 0.54l-0.01 0.01c-0.17 0.1-0.38 0.06-0.49-0.09-0.15-0.22-3.65-5.29-2.78-8.24q0.05-0.15 0.19-0.23l8.03-3.61q0.17-0.08 0.33 0.03c0.05 0.03 5.23 3.43 3.27 7.95q-0.05 0.11-0.14 0.16z"/>
		<path id="&lt;Path&gt;" class="s4" d="m795.92 1963.92c-0.25 0-0.49-0.12-0.63-0.33-0.16-0.22-3.79-5.41-2.85-8.6q0.14-0.37 0.44-0.5l8.01-3.61c0.25-0.11 0.54-0.08 0.76 0.07 0.03 0.02 5.52 3.59 3.41 8.47q-0.09 0.21-0.3 0.35c-0.21 0.14-0.5 0.16-0.73 0.05-0.39-0.17-0.57-0.62-0.4-1.01 1.31-3.04-1.36-5.47-2.5-6.33l-7.27 3.28c-0.28 2.07 1.81 5.65 2.67 6.89q0.21 0.3 0.15 0.64-0.05 0.31-0.31 0.49-0.23 0.14-0.45 0.14z"/>
		<path id="&lt;Path&gt;" class="s4" d="m802.29 1980.02q-0.15 0.06-0.29-0.03c-0.14-0.1-0.18-0.29-0.08-0.43 1.93-2.85-0.69-5.83-1.3-6.47l-7.19 1.72c-0.96 2.19 1.1 6.83 1.12 6.88 0.07 0.16 0 0.34-0.16 0.41l-0.01 0.01c-0.16 0.06-0.33-0.01-0.4-0.16-0.09-0.21-2.28-5.16-1.05-7.55q0.07-0.12 0.21-0.16l7.5-1.8q0.16-0.03 0.29 0.08c0.03 0.04 3.93 3.82 1.5 7.39q-0.05 0.08-0.14 0.11z"/>
		<path id="&lt;Path&gt;" class="s4" d="m794.26 1982.55c-0.28 0-0.55-0.17-0.66-0.43-0.1-0.21-2.39-5.31-1.04-7.91q0.19-0.32 0.49-0.39l7.66-1.81q0.3 0 0.52 0.22c0.02 0.02 4.18 4.05 1.55 7.91q-0.11 0.18-0.33 0.27c-0.23 0.09-0.49 0.06-0.69-0.07-0.33-0.23-0.42-0.68-0.2-1.02 1.6-2.34-0.24-4.83-1.09-5.76l-6.73 1.61c-0.57 1.77 0.69 5.23 1.19 6.34 0.17 0.38 0.01 0.81-0.36 0.98q-0.17 0.07-0.31 0.06z"/>
		<path id="&lt;Path&gt;" class="s4" d="m651.35 2028.14q-0.31 0-0.57-0.21c-0.35-0.32-0.38-0.85-0.06-1.2l32.25-35.87c0.31-0.35 0.85-0.38 1.2-0.06 0.35 0.31 0.38 0.85 0.06 1.2l-32.25 35.86q-0.27 0.28-0.63 0.28z"/>
		<path id="&lt;Path&gt;" class="s4" d="m658.64 2083.75c-2.86 0-6.1-0.82-8.8-2.06-5.5-2.53-8.85-6.64-8.96-10.99-0.01-0.47 0.36-0.86 0.82-0.87 0.47 0.01 0.86 0.36 0.87 0.83 0.1 3.68 3.08 7.23 7.98 9.48 4.85 2.23 10.17 2.56 12.37 0.77 0.94-0.77 1.23-1.89 0.88-3.41-0.81-3.49-9.05-9.29-13.56-8.73-0.97 0.12-2.25 0.57-2.2 3.09 0.02 1.17 0.71 2.38 1.84 3.22 0.97 0.72 2.21 1.21 3.91 1.54 1.57 0.3 3.6 0.2 4.2-1.06 0.11-0.25 0.12-0.59 0.02-0.83q-0.08-0.18-0.21-0.22c-0.44-0.15-0.69-0.62-0.55-1.07 0.14-0.45 0.62-0.7 1.07-0.55 0.55 0.18 0.99 0.59 1.24 1.16 0.3 0.69 0.29 1.54-0.04 2.23-1 2.15-3.78 2.44-6.05 2-1.97-0.38-3.43-0.96-4.6-1.84-1.55-1.15-2.5-2.85-2.53-4.54-0.08-3.78 2.28-4.64 3.69-4.82 4.99-0.63 14.36 5.48 15.42 10.04 0.63 2.72-0.44 4.28-1.46 5.1-1.31 1.07-3.22 1.53-5.35 1.53z"/>
		<path id="&lt;Path&gt;" class="s4" d="m682.79 1991.41l-12.06 13.62-24.01-13.89 3.21-0.49z"/>
		<path id="&lt;Compound Path&gt;" class="s4" d="m670.73 2005.87q-0.22 0-0.42-0.11l-24.01-13.89c-0.32-0.17-0.48-0.53-0.41-0.89 0.06-0.35 0.35-0.62 0.7-0.68l3.21-0.48q0.08-0.02 0.15-0.01l32.86 0.75c0.33 0.01 0.62 0.21 0.75 0.51 0.14 0.3 0.08 0.65-0.14 0.9l-12.05 13.62c-0.17 0.19-0.4 0.28-0.64 0.28zm-21.49-14.25l21.32 12.32 10.38-11.72-30.95-0.71z"/>
		<path id="&lt;Path&gt;" class="s1" d="m729.35 2002.16c-4.76 1.39-9.74-1.35-11.12-6.11-1.39-4.76 1.35-9.74 6.11-11.13 4.76-1.38 9.74 1.36 11.13 6.12 1.38 4.76-1.35 9.74-6.12 11.12z"/>
		<path id="&lt;Compound Path&gt;" class="s4" d="m726.84 2003.37c-4.34 0-8.21-2.91-9.43-7.08-1.51-5.21 1.49-10.67 6.69-12.18q1.36-0.39 2.75-0.39c4.34 0 8.22 2.91 9.43 7.08 1.52 5.2-1.49 10.67-6.69 12.18q-1.35 0.39-2.75 0.39zm0.01-17.96q-1.15 0-2.27 0.33c-4.31 1.25-6.79 5.77-5.54 10.07 1.01 3.45 4.21 5.86 7.8 5.86q1.16 0 2.28-0.32c4.3-1.25 6.79-5.77 5.53-10.08-1-3.45-4.21-5.86-7.8-5.86z"/>
		<path id="&lt;Path&gt;" class="s1" d="m723.66 1993.66l5.55-0.32-1.6 4.5"/>
		<path id="&lt;Path&gt;" class="s4" d="m727.61 1998.68q-0.14 0-0.28-0.04c-0.44-0.16-0.67-0.65-0.52-1.09l1.17-3.29-4.27 0.25c-0.47 0.03-0.87-0.33-0.9-0.8-0.03-0.46 0.33-0.87 0.8-0.89l5.55-0.33c0.29-0.01 0.56 0.12 0.73 0.34 0.17 0.23 0.21 0.53 0.12 0.8l-1.6 4.49c-0.12 0.35-0.45 0.56-0.8 0.56z"/>
		<path id="&lt;Path&gt;" class="s1" d="m866.44 1992.63l-1.42-34.8"/>
		<path id="&lt;Path&gt;" class="s4" d="m866.44 1993.48c-0.46 0-0.83-0.36-0.85-0.81l-1.42-34.8c-0.01-0.47 0.35-0.87 0.82-0.89 0.45-0.05 0.86 0.35 0.88 0.82l1.42 34.8c0.01 0.47-0.35 0.86-0.82 0.88q-0.02 0-0.03 0z"/>
		<path id="&lt;Path&gt;" class="s1" d="m683.53 1991.14l-0.87-25.17"/>
		<path id="&lt;Path&gt;" class="s4" d="m683.53 1991.99c-0.46 0-0.83-0.36-0.85-0.82l-0.87-25.17c-0.01-0.47 0.35-0.86 0.82-0.88 0.46-0.04 0.86 0.36 0.88 0.82l0.87 25.17c0.01 0.47-0.35 0.86-0.82 0.88q-0.02 0-0.03 0z"/>
		<path id="&lt;Path&gt;" class="s1" d="m674.63 1970.53l8.47 8.68"/>
		<path id="&lt;Path&gt;" class="s4" d="m683.1 1980.05q-0.35 0-0.61-0.25l-8.46-8.68c-0.33-0.33-0.32-0.87 0.01-1.2 0.34-0.33 0.88-0.32 1.2 0.02l8.46 8.67c0.33 0.34 0.32 0.88-0.01 1.2q-0.26 0.24-0.59 0.24z"/>
		<path id="&lt;Path&gt;" class="s1" d="m668.42 1886.86l11.71 23.43"/>
		<path id="&lt;Path&gt;" class="s4" d="m680.13 1911.14c-0.31 0-0.61-0.17-0.76-0.47l-11.71-23.43c-0.21-0.42-0.04-0.93 0.38-1.14 0.42-0.21 0.93-0.04 1.13 0.38l11.72 23.43c0.21 0.42 0.04 0.93-0.38 1.14q-0.19 0.09-0.38 0.09z"/>
		<path id="&lt;Path&gt;" class="s1" d="m873.64 1881.22l-11.71 27.33"/>
		<path id="&lt;Path&gt;" class="s4" d="m861.93 1909.4q-0.17 0-0.34-0.07c-0.43-0.18-0.63-0.68-0.44-1.11l11.71-27.33c0.19-0.44 0.69-0.64 1.12-0.45 0.43 0.18 0.63 0.68 0.44 1.11l-11.71 27.34c-0.14 0.32-0.45 0.51-0.78 0.51z"/>
		<path id="&lt;Path&gt;" class="s1" d="m1053.55 1928.04c-0.22 0.16-0.08 0.72-0.08 0.72 0 0 1.02 2.47-0.79 7.57-1.52 4.31-7.39 10.49-9.19 12.33q-0.01 0.01-0.01 0.01-0.51 0.5-0.52 0.51 0 0.01-0.14 0.19c-0.83 1.04-4.96 6.16-7.34 8.7q-0.01 0.01-0.38 0.52-0.27 0.38-0.74 0.98c-3.13 4.08-12.4 14.98-21.74 14.91-5.59-0.05-12.64-1.38-18.9-3.08-14.47 29.87-59.48 91.27-95.73 86.67-14.35-1.82-24.63-12.75-31.93-26.31l-0.08-40.91c0 0 26.71 1.76 51.93-1.22l0.08 0.34 0.3-0.39 7.79-10.16 35.26-45.98 8.28-13.02 0.02-0.03 2.47-3.46c0 0 5.9-6.82 12.78-8.11 6.88-1.29 17.71 0.23 20.73-0.74 3.01-0.96 13.91-7.29 17.17-7.14 3.27 0.16 7.96 2.48 4.74 8.89-3.21 6.41-14.49 13.08-14.49 13.08 0 0 17.83 2.22 21.01 1.46 3.18-0.77 13.95-11.32 19.49-8.55 5.55 2.77 2.65 10.18 0.01 12.22z"/>
		<path id="&lt;Compound Path&gt;" class="s4" d="m901.91 2059.5c-1.36 0-2.72-0.25-4.03-0.42-12.94-1.64-23.89-10.73-32.57-26.83-0.07-0.13-0.1-0.31-0.1-0.45l-0.08-40.93c0-0.23 0.1-0.47 0.27-0.63q0.27-0.24 0.63-0.23c0.08 0 7.93 0.51 18.94 0.51 12.07 0 23.12-0.59 32.85-1.73q0-0.01 0.01-0.01l42.83-55.86 8.25-12.96 2.51-3.52c0.3-0.35 6.22-7.12 13.31-8.45 2.07-0.39 4.62-0.57 8.04-0.57q2.53 0.01 4.94 0.09c1.39 0.03 2.69 0.06 3.85 0.06 1.22 0 2.94-0.03 3.8-0.3 1-0.32 3.11-1.36 5.35-2.46 4.49-2.21 9.58-4.72 11.96-4.72h0.16c2.04 0.1 4.67 0.98 5.92 3.13 1.09 1.86 0.93 4.21-0.46 6.99-2.47 4.92-9.31 9.86-12.77 12.14 4.01 0.46 12.1 1.33 16.28 1.33 1.23 0 1.79-0.08 2.05-0.14 0.86-0.21 2.7-1.48 4.65-2.83 3.98-2.76 8.94-6.2 12.93-6.2q1.38 0 2.49 0.55c2.12 1.06 3.37 2.85 3.6 5.17 0.31 3.21-1.4 6.72-3.23 8.3 0.18 0.53 0.92 3.22-0.81 8.09-1.53 4.33-7.07 10.28-9.38 12.63l-0.61 0.64c-1.48 1.85-5.13 6.35-7.35 8.72q-0.09 0.12-0.36 0.48c-0.16 0.24-0.41 0.66-0.72 1.06-3.54 4.61-12.77 15.35-22.34 15.35h-0.11c-6.55 0-14.11-1.7-18.44-2.84-15.03 30.62-57.01 86.84-92.26 86.84q0 0 0 0zm-35.01-27.96c8.39 15.48 18.88 24.14 31.19 25.71q1.88 0.24 3.82 0.25 0 0 0 0c19.35 0 39.7-17.63 53.37-32.4 17.81-19.26 31.42-41.16 37.67-54.06 0.18-0.36 0.59-0.63 0.99-0.51 7.07 1.91 13.71 2.97 18.69 2.97h0.09c9.06 0 18.34-11.09 20.97-14.51 0.31-0.4 0.55-0.68 0.72-0.92q0.36-0.49 0.37-0.49 0.03-0.06 0.08-0.1c2.17-2.31 5.83-6.81 7.3-8.64l0.13-0.17q0.03-0.05 0.07-0.09l0.52-0.52c1.75-1.77 7.55-7.89 9-12.01 1.65-4.66 0.81-6.95 0.8-6.97q-0.02-0.06-0.03-0.12c-0.08-0.33-0.21-1.15 0.38-1.6 1.53-1.17 3.05-4.33 2.8-6.96q-0.26-2.62-2.67-3.82-0.74-0.38-1.73-0.37c-3.46 0-8.37 3.4-11.96 5.89-2.27 1.57-4.05 2.81-5.22 3.09q-0.76 0.19-2.45 0.18c-5.77 0-18.33-1.55-18.86-1.61-0.36-0.05-0.65-0.32-0.73-0.67-0.07-0.36 0.09-0.72 0.4-0.91 0.11-0.06 11.1-6.62 14.16-12.73 1.12-2.23 1.3-3.68 0.52-5.02-0.92-1.57-3.02-1.93-4.54-1.93q-0.01 0-0.01 0c-2.06 0-7.39 2.27-11.28 4.19-2.39 1.18-4.46 2.02-5.59 2.38-0.84 0.27-2.13 0.29-4.31 0.29-1.17 0-2.49-0.08-3.89-0.11-1.59-0.04-3.24-0.11-4.9-0.11-3.31 0-5.77 0.16-7.72 0.53-6.51 1.22-12.24 7.76-12.3 7.82l-2.42 3.4-8.28 13.01-43.39 56.59c-0.2 0.26-0.53 0.38-0.85 0.31q-0.26-0.07-0.44-0.25c-9.63 1.1-20.53 1.66-32.4 1.66-8.91 0-15.76-0.33-18.14-0.46z"/>
		<path id="&lt;Path&gt;" class="s4" d="m1032.01 1948.66c-3.3-1.23-8.1 2.21-11.13 6.25q-0.95 1.28-1.55 2.15c-1.56-1.13-8.77-2.97-9.64-3.19-0.13-0.03-0.27 0.05-0.3 0.18-0.03 0.13 0.05 0.26 0.18 0.29 3.29 0.83 8.58 2.37 9.49 3.12-1.17 1.77-1.27 2.29-1.28 2.36-0.01 0.13 0.09 0.25 0.22 0.26 0.14 0.02 0.26-0.08 0.27-0.21 0-0.03 0.19-0.93 3-4.67 2.85-3.8 7.53-7.22 10.57-6.08 3.29 1.22 4.18 4.88 2.52 10.31-0.04 0.12 0.04 0.26 0.16 0.3q0.11 0.03 0.2-0.03 0.08-0.04 0.11-0.13c1.75-5.71 0.75-9.58-2.82-10.91z"/>
		<path id="&lt;Path&gt;" class="s7" d="m1018.03 1960.51q-0.04 0-0.07 0-0.27-0.03-0.45-0.25-0.17-0.21-0.15-0.49c0.02-0.21 0.2-0.76 1.11-2.18-1.3-0.68-5.39-1.92-9.01-2.84-0.35-0.09-0.57-0.45-0.48-0.8 0.08-0.3 0.34-0.51 0.65-0.51 0.03 0 0.13 0.01 0.16 0.02 0.78 0.19 7.26 1.84 9.42 3.03q0.59-0.85 1.33-1.84c2.5-3.32 6.56-6.67 10-6.67q0.87 0 1.62 0.28c3.81 1.42 4.9 5.48 3.07 11.43q-0.07 0.24-0.28 0.37-0.17 0.11-0.35 0.11c-0.05 0-0.16-0.02-0.2-0.03-0.35-0.11-0.55-0.49-0.44-0.84 1.58-5.17 0.78-8.65-2.26-9.79q-0.53-0.19-1.15-0.19c-2.98 0-6.72 3.18-8.94 6.13-2.66 3.55-2.92 4.47-2.93 4.51-0.02 0.29-0.31 0.55-0.65 0.55z"/>
		<path id="&lt;Path&gt;" class="s4" d="m1043.3 1936.22c-5.46-2.65-10.26 1.32-11.62 3.54-1.32 2.18-6.99 6.77-7.8 7.42-1.75-0.49-6.86-1.89-7.49-1.72-0.13 0.04-0.2 0.18-0.17 0.31 0.04 0.13 0.18 0.2 0.3 0.16 0.42-0.08 4.1 0.84 7.35 1.75q0.12 0.04 0.22-0.04c0.26-0.21 6.54-5.22 8.01-7.63 1.28-2.09 5.83-5.85 10.99-3.35q1.3 0.64 1.79 2.09c1.24 3.74-2.1 10.26-2.14 10.32-0.06 0.12-0.01 0.27 0.11 0.33q0.13 0.06 0.24-0.01 0.05-0.03 0.09-0.09c0.14-0.28 3.46-6.77 2.16-10.71q-0.55-1.64-2.04-2.37z"/>
		<path id="&lt;Path&gt;" class="s7" d="m1042.96 1949.85q-0.16 0-0.31-0.07-0.24-0.13-0.32-0.39-0.09-0.27 0.04-0.51c0.03-0.07 3.27-6.47 2.1-10q-0.42-1.28-1.57-1.84-1.62-0.78-3.31-0.78c-3.42 0-6.19 2.44-7.13 3.98-1.47 2.41-7.43 7.19-8.11 7.73q-0.18 0.14-0.41 0.15c-0.04 0-0.15-0.02-0.19-0.03-3.46-0.97-6.61-1.74-7.15-1.74q-0.04 0.01-0.14 0.02c-0.3 0-0.56-0.2-0.64-0.49-0.1-0.35 0.1-0.72 0.45-0.82q0.12-0.04 0.28-0.04c1.06 0 5.26 1.14 7.23 1.69 1.16-0.93 6.32-5.16 7.54-7.17 1.09-1.79 4.3-4.62 8.27-4.62q1.99 0 3.89 0.92 1.66 0.81 2.26 2.62c1.36 4.11-2.04 10.75-2.19 11.03q-0.08 0.16-0.24 0.26-0.16 0.1-0.35 0.1z"/>
		<path id="&lt;Path&gt;" class="s4" d="m1052.99 1928.06c-1.07-1.39-3.2-2.33-5.58-2.45-2.95-0.15-5.77 0.95-7.73 3.03-3.64 3.83-6.09 5.29-6.53 5.54l-8.6-1.74c-0.14-0.03-0.26 0.06-0.29 0.19-0.03 0.13 0.06 0.26 0.19 0.29l8.69 1.75q0.08 0.02 0.16-0.02c0.11-0.06 2.65-1.38 6.73-5.68 1.87-1.97 4.55-3.01 7.36-2.87 2.23 0.11 4.23 0.98 5.22 2.25 0.07 0.1 0.21 0.13 0.32 0.06q0.01-0.01 0.02-0.01c0.11-0.09 0.13-0.24 0.04-0.34z"/>
		<path id="&lt;Path&gt;" class="s7" d="m1033.19 1935.1c-0.03 0-0.11-0.01-0.14-0.02l-8.68-1.75q-0.27-0.05-0.43-0.28-0.15-0.23-0.1-0.5c0.06-0.31 0.34-0.54 0.66-0.54 0.03 0 0.1 0.01 0.13 0.01l8.45 1.71c0.68-0.41 2.98-1.9 6.29-5.39 2.03-2.14 4.99-3.32 8.06-3.15 2.5 0.13 4.76 1.12 5.9 2.61q0.16 0.22 0.13 0.49-0.04 0.27-0.25 0.44c-0.43 0.28-0.73 0.15-0.94-0.12-0.91-1.18-2.79-1.98-4.9-2.09-2.68-0.13-5.27 0.88-7.03 2.74-4.03 4.25-6.57 5.62-6.84 5.77q-0.15 0.07-0.31 0.07z"/>
		<path id="&lt;Path&gt;" class="s4" d="m984.07 1946.21c-5.65 0.02-10.28 1.15-10.33 1.16-0.13 0.03-0.21 0.16-0.18 0.29 0.04 0.13 0.17 0.21 0.3 0.18 0.18-0.05 18.31-4.4 26.9 4.34 0.09 0.08 0.21 0.09 0.31 0.03q0.02-0.01 0.04-0.03c0.09-0.1 0.1-0.25 0-0.35-4.6-4.67-11.81-5.64-17.04-5.62z"/>
		<path id="&lt;Path&gt;" class="s7" d="m1000.94 1952.67q-0.28 0-0.48-0.2c-4.34-4.41-11.25-5.33-16.29-5.33-5.61 0-10.16 1.1-10.21 1.11-0.03 0.01-0.13 0.02-0.16 0.02-0.31 0-0.57-0.21-0.65-0.51q-0.06-0.26 0.08-0.5c0.09-0.15 0.24-0.4 0.41-0.45 0.04-0.01 4.73-1.31 10.43-1.31h0.12c5.27 0 12.54 1.14 17.22 5.89 0.26 0.27 0.26 0.76 0 1.02-0.03 0.02-0.1 0.11-0.13 0.13-0.1 0.06-0.22 0.13-0.34 0.13z"/>
		<path id="&lt;Path&gt;" class="s8" d="m989.99 2087.93h-98.23c-4.11 0-7.39-3.33-7.39-7.4v-50.79c0-4.12 3.33-7.39 7.39-7.39h98.23c4.11 0 7.39 3.32 7.39 7.39v50.79c0.05 4.07-3.28 7.4-7.39 7.4z"/>
		<path id="&lt;Path&gt;" class="s3" d="m914.61 2070.12h-17.8v11.7h17.8z"/>
		<path id="&lt;Path&gt;" class="s3" d="m939.98 2060.52h-17.8v21.11h17.8z"/>
		<path id="&lt;Path&gt;" class="s3" d="m964.43 2047.99h-17.8v33.64h17.8z"/>
		<path id="&lt;Path&gt;" class="s3" d="m988.94 2035.24h-17.8v46.39h17.8z"/>
		<path id="&lt;Path&gt;" class="s3" d="m894.83 2065.94c-0.92 0-1.8-0.53-2.21-1.42-0.56-1.21-0.02-2.66 1.19-3.22l60.31-27.76c1.21-0.56 2.66-0.02 3.22 1.19 0.56 1.22 0.03 2.66-1.19 3.22l-60.3 27.77q-0.5 0.22-1.02 0.22z"/>
		<path id="&lt;Path&gt;" class="s3" d="m955.51 2045.12q-0.47 0.01-0.94-0.18c-1.23-0.52-1.81-1.95-1.29-3.18l2.59-6.17-6.53-1.28c-1.32-0.26-2.18-1.53-1.92-2.85 0.26-1.31 1.53-2.17 2.85-1.91l9.45 1.84c0.72 0.14 1.34 0.6 1.68 1.24 0.35 0.65 0.38 1.41 0.1 2.08l-3.75 8.93c-0.39 0.93-1.29 1.48-2.24 1.48z"/>
		<path id="&lt;Path&gt;" class="s1" d="m917.91 1989.63l-15.4 16.16"/>
		<path id="&lt;Path&gt;" class="s4" d="m902.51 2006.64q-0.33 0-0.59-0.24c-0.34-0.32-0.35-0.86-0.02-1.2l15.4-16.16c0.32-0.34 0.86-0.35 1.2-0.03 0.34 0.33 0.35 0.86 0.03 1.2l-15.41 16.16q-0.26 0.27-0.61 0.27z"/>
	</g>
</svg>