<svg version="1.2" xmlns="http://www.w3.org/2000/svg" viewBox="0 0 1080 1080" width="1080" height="1080">
	<style>
		.s0 { fill: #f2c9cc } 
		.s1 { fill: #ffffff } 
		.s2 { fill: #333333 } 
		.s3 { fill: #f2cf63 } 
		.s4 { fill: #a2bff9 } 
		.s5 { fill: #363636 } 
		.s6 { fill: #2b2b2b } 
		.s7 { fill: #fc5e71 } 
	</style>
	<g id="Layer 1">
		<path id="&lt;Path&gt;" class="s0" d="m435.2 95.49c-31.6 21.76-46.39 61-74.58 87.04-27.97 25.81-66.5 36.38-103.83 43.79-37.33 7.41-75.95 12.82-109.34 31.08-33.4 18.26-61 53.23-57.65 91.14 1.88 21.21 13.09 41.24 11.95 62.5-1.37 25.68-20.05 46.5-35.27 67.22-39.34 53.54-59.43 129.66-24.19 185.98 29.34 46.9 90.63 70.44 109.94 122.28 16.04 43.05-1.65 95.28 21.86 134.74 25.17 42.24 85.24 48 132.56 34.63 119.71-33.83 201.67-151.92 321.75-184.41 122.1-33.04 263.85 28.19 373.36-35.1 11.32-6.54 22.15-14.49 29.58-25.24 8.12-11.74 11.68-26.05 13.4-40.21 5.44-44.87-6.74-91.64-33.37-128.15-36.78-50.45-100.32-83.41-117.28-143.5-7.18-25.47-4.73-52.52-6.9-78.9-6.72-81.65-62.13-157.42-137.9-188.58-41.86-17.21-87.76-21.32-131.79-31.78-61.15-14.52-130.53-40.18-182.3-4.53z"/>
		<path id="&lt;Path&gt;" class="s1" d="m1011.81 541.85l21.56-6.84-21.56-7.36c-6.45-1.7-11.39-6.89-12.77-13.42l-6.84-32.37-7.35 31.67c-1.55 6.68-6.83 11.86-13.54 13.28l-20.3 6.98 19.59 6.91c6.87 1.59 12.12 7.12 13.38 14.05l5.66 31.32 8.25-31.35c1.74-6.63 7.17-11.65 13.92-12.87z"/>
		<path id="&lt;Compound Path&gt;" class="s2" d="m989.64 588.21q-0.04 0-0.09 0c-1-0.04-1.84-0.77-2.02-1.76l-5.66-31.32c-1.1-6.1-5.71-10.95-11.75-12.34q-0.12-0.03-0.23-0.07l-19.59-6.91c-0.85-0.3-1.43-1.12-1.42-2.03 0-0.91 0.58-1.71 1.44-2.01l20.3-6.98q0.12-0.05 0.25-0.07c5.87-1.24 10.54-5.82 11.9-11.67l7.34-31.68c0.23-0.97 1.09-1.65 2.09-1.65q0.01 0 0.02 0c1 0.01 1.86 0.71 2.07 1.69l6.84 32.38c1.22 5.77 5.52 10.29 11.22 11.79l21.71 7.4c0.87 0.3 1.46 1.13 1.45 2.05-0.01 0.92-0.61 1.73-1.49 2.01l-21.56 6.85q-0.13 0.04-0.27 0.07c-5.9 1.06-10.71 5.5-12.23 11.31l-8.25 31.35c-0.25 0.94-1.1 1.59-2.07 1.59zm-18.43-49.56c7.64 1.82 13.47 7.98 14.87 15.72l3.95 21.83 5.79-22.02c1.94-7.36 8-13 15.47-14.41l15.25-4.84-15.42-5.26c-7.13-1.87-12.62-7.63-14.17-14.99l-4.85-22.94-5.17 22.28c-1.72 7.41-7.61 13.23-15.04 14.85l-14.38 4.95z"/>
		<path id="&lt;Path&gt;" class="s2" d="m882.85 159.8l18.9-6-18.91-6.45c-5.65-1.49-9.98-6.04-11.19-11.76l-6-28.4-6.44 27.78c-1.36 5.86-5.99 10.4-11.87 11.64l-17.8 6.12 17.17 6.06c6.02 1.4 10.63 6.24 11.73 12.32l4.96 27.47 7.24-27.49c1.53-5.82 6.29-10.22 12.21-11.29z"/>
		<path id="&lt;Path&gt;" class="s2" d="m693.84 493.91c7.73-12.37 1.59-28.7 4.59-42.98 5.44-25.88 36.28-35.33 60.4-46.19 22.29-10.03 42.73-25.56 55.01-46.69 12.29-21.13 15.45-48.27 4.82-70.28-13.9-28.76-46.94-43.16-65.39-69.22-19.5-27.56-20.27-64.39-36.26-94.12-18.27-33.97-57.29-55.62-95.78-53.15-33.91-20.64-78.11-12.46-114.33 3.81-28.41 12.76-55.44 30.7-72.96 56.45-30 44.07-27.81 103.52-55.02 149.36-6.06 10.21-13.84 19.87-24.41 25.28-19.03 9.72-41.84 3.66-62.74-0.76-16.88-3.57-34.61-5.91-51.23-1.25-16.61 4.65-31.85 17.82-34.2 34.91-3.24 23.53 14.84 44.31 4.6 67.78-9.28 21.26-34.02 23.71-52.15 33.61-27.39 14.95-26.51 44.46-13.73 70.78 6.22 12.79 17.89 23.79 32.02 25.42 22.22 2.58 44.28-21.09 66-10.62 19.25 9.28 15.56 33.07 4.91 47.67-8.82 12.1-20.36 23.93-20.86 38.89-0.22 6.63 1.88 13.21 5.24 18.93 9.66 16.46 29.08 25.33 48.12 26.72 19.04 1.4 37.93-3.62 56.13-9.35 18.33-5.78 36.64-12.46 52.51-23.3 38.53-26.36 61.07-76.02 105.72-89.68 26.4-8.08 54.75-1.43 82.35-0.89 36.64 0.71 73.43-9.81 104.15-29.79 4.75-3.09 9.48-6.53 12.49-11.34z"/>
		<path id="&lt;Compound Path&gt;" class="s3" d="m701.04 416.57c-17.72-1.6-30.83-17.33-29.22-35.04 1.6-17.72 17.33-30.83 35.04-29.22 17.72 1.6 30.83 17.33 29.22 35.04-1.6 17.72-17.33 30.83-35.04 29.22zm5.2-57.41c-13.94-1.26-26.31 9.05-27.57 22.99-1.26 13.94 9.05 26.3 22.99 27.57 13.93 1.26 26.3-9.05 27.57-22.99 1.26-13.94-9.05-26.3-22.99-27.57z"/>
		<path id="&lt;Path&gt;" class="s1" d="m672.9 293.84c0 0 34.04-28.98 59.36-17.2 25.31 11.77 23.71 68.54-5.42 76.96-29.14 8.42-60.91-16.68-60.91-16.68z"/>
		<path id="&lt;Compound Path&gt;" class="s2" d="m714.22 357.46c-25.44 0-48.64-18.09-49.61-18.86-0.61-0.48-0.91-1.26-0.79-2.02l6.97-43.08c0.08-0.5 0.34-0.95 0.72-1.28 0.99-0.84 24.38-20.54 47.38-20.54 5.17 0 9.97 1.02 14.27 3.02 14.79 6.88 20.12 26.73 18.84 43.35-1.16 15.08-8.23 32.88-24.57 37.6-4.16 1.2-8.6 1.81-13.21 1.81zm-45.97-21.48c4.64 3.39 24.87 17.21 45.97 17.21 4.2 0 8.25-0.56 12.02-1.65 14.24-4.11 20.44-20.17 21.5-33.82 1.38-17.92-5.36-34.02-16.38-39.15-3.74-1.73-7.93-2.61-12.47-2.61-19.48 0-40.26 16-44.01 19.02z"/>
		<path id="&lt;Path&gt;" class="s2" d="m714.83 313.68c-0.52 0-1.04-0.19-1.45-0.57-0.87-0.8-0.92-2.15-0.12-3.02 0.59-0.64 14.57-15.6 24.63-7.73 0.93 0.73 1.09 2.07 0.37 3-0.73 0.93-2.08 1.09-3.01 0.37-6.85-5.37-18.73 7.13-18.85 7.26-0.42 0.46-0.99 0.69-1.57 0.69z"/>
		<path id="&lt;Path&gt;" class="s1" d="m895.13 631.93c-3.83 22.96-4.55 83.6-4.05 147.43 0.74 92.98 4.05 192.73 4.05 192.73l-185.17 0.42-123.07 0.27-387.78 0.88c0 0 9.59-104.9 27.26-207.95 15.09-87.99 36.12-174.6 62.1-193.38 28.21-20.38 72.11-37.23 112.08-50.95 32.5-11.13 62.39-20.22 79.19-27.44 3.87-1.66 7.04-3.23 9.4-4.72 5.51-4.5 10.28-7.96 12.03-10.23 4.93-6.39 1.19-119.86 0.88-129.12-4.19-9.27-7.45-18.96-9.81-28.91-8.27 3-38.84 12.46-60.95-1.23-25.77-15.99-11.96-71.08 15.59-75.57 12.01-1.96 23.48 4 32.65 11.33q2.23 3.48 4.46 6.93c1.3 2.05 2.79 4.23 5.1 5.02 3.17 1.05 6.46-0.93 9.29-2.73 46.42-29.55 122.35-55.12 141.45-108.38 5.29 19.88 37.31 48.6 48.85 60.77 6.1 6.45 26.32 26.11 30.99 41.5-0.24 4-1.03 14.23-1.1 15.06-6.18 73.91-12.84 134.48-81.08 149.35-0.16 12.12-0.2 31.84 0.68 47.5 0.94-0.02 1.46-0.05 1.46-0.05 0.38 2.12 1.71 3.6 3.8 4.55 22.78 10.32 138.77-41.75 189.01-20.22 54.86 23.52 72.11 120.71 62.69 177.14z"/>
		<path id="&lt;Compound Path&gt;" class="s2" d="m199.11 976.18c-0.6 0-1.17-0.45-1.57-0.89-0.41-0.44-0.61-1.13-0.56-1.73 0.1-1.05 9.8-106.21 27.29-208.17 19.39-113.04 40.57-178.59 62.95-194.77 29.38-21.23 75.62-38.54 112.63-51.25 10.56-3.61 20.69-6.97 30.49-10.21 20.01-6.62 37.29-12.34 48.55-17.18 3.81-1.63 6.83-3.15 9-4.5q2.2-1.79 4.18-3.35c3.37-2.68 6.29-5 7.41-6.45 2.94-4.94 2.46-67.72 0.45-127.32-3.78-8.44-6.88-17.38-9.21-26.61-6.16 2.05-18.08 5.33-31.1 5.33-11.47 0-21.38-2.54-29.46-7.53-14.45-8.97-16.44-28.02-13.48-42.86 3.25-16.34 13.75-34.01 29.85-36.65 10.77-1.75 22.4 2.24 34.34 11.78q0.27 0.22 0.47 0.52 2.22 3.47 4.44 6.92c1.2 1.88 2.41 3.61 4 4.15 2.16 0.71 5.31-1.14 7.46-2.5 11.83-7.53 25.37-14.7 39.7-22.3 40.74-21.57 86.9-46.02 100.88-85 0.31-0.89 1.16-1.49 2.1-1.42 0.94 0.04 1.74 0.69 1.98 1.59 4.19 15.79 26.9 38.39 40.47 51.9 3.11 3.09 5.79 5.77 7.86 7.95q0.98 1.03 2.38 2.48c8.05 8.31 24.78 25.63 29.11 39.86q0.11 0.37 0.09 0.76c-0.25 4.03-1.04 14.31-1.11 15.11-5.79 69.24-11.27 134.67-81.09 150.88-0.12 10.61-0.17 28.64 0.58 43.68 0.78 0.22 1.39 0.85 1.54 1.68 0.15 0.85 0.59 2.08 2.58 2.98 1.73 0.78 4.3 1.18 7.64 1.18 11.89 0 31.55-4.88 54.32-10.53 30.87-7.65 65.86-16.33 94.75-16.33 13.17 0 23.72 1.78 32.27 5.44 32.15 13.79 48.56 49.81 56.65 77.6 9.53 32.7 12.33 71.73 7.3 101.86-3.27 19.64-4.63 69.12-4.02 147.06 0.73 91.89 4.01 191.68 4.04 192.68 0.02 0.57-0.19 1.14-0.59 1.55-0.41 0.42-0.96 0.84-1.54 0.84l-696.01 1.77q0 0-0.01 0zm293.13-657.35q0.54 0 1.02 0.25c0.53 0.29 0.92 0.8 1.06 1.39 2.36 9.92 5.61 19.52 9.68 28.52q0.17 0.38 0.19 0.8c1.25 37.09 3.64 124.06-1.33 130.5-1.44 1.87-4.39 4.22-8.13 7.19q-2.01 1.58-4.24 3.4-0.1 0.08-0.21 0.15c-2.4 1.51-5.57 3.1-9.7 4.88-11.43 4.91-28.79 10.65-48.9 17.3-9.78 3.24-19.9 6.59-30.44 10.2-36.73 12.6-82.59 29.75-111.52 50.65-21.14 15.28-42.32 81.68-61.24 192.01-16.02 93.36-25.48 189.38-27.02 205.45l691.46-1.57c-0.49-15.2-3.3-106.22-3.98-190.57-0.6-78.19 0.77-127.92 4.08-147.8 9.66-57.86-9.03-152.36-61.42-174.83-7.89-3.38-18.18-5.09-30.58-5.09-28.37 0-63.09 8.61-93.72 16.2-23.04 5.72-42.94 10.66-55.35 10.66-4.01 0-7.09-0.52-9.4-1.57-2.15-0.96-3.67-2.43-4.49-4.31-1.08-0.05-1.97-0.91-2.03-2.01-0.91-16.35-0.82-36.87-0.68-47.65 0.02-1 0.71-1.85 1.69-2.06 68.31-14.88 73.7-79.27 79.4-147.43 0.06-0.76 0.8-10.39 1.08-14.64-4.22-13.19-20.24-29.77-27.98-37.77q-1.42-1.47-2.41-2.51c-2.03-2.14-4.69-4.79-7.78-7.86-13.23-13.17-32.51-32.36-39.62-48.37-16.56 37.45-61.2 61.08-100.78 82.05-14.26 7.55-27.73 14.68-39.42 22.13-2.78 1.76-5.53 3.35-8.58 3.35q-1.32 0-2.53-0.41c-3.16-1.07-5.01-3.97-6.23-5.89q-2.13-3.29-4.26-6.63c-10.87-8.6-21.23-12.22-30.71-10.67-12 1.95-22.84 15.63-26.35 33.26-2.68 13.43-1.05 30.57 11.55 38.38 7.38 4.58 16.53 6.89 27.2 6.89 14.18 0 27.03-4.09 31.9-5.85q0.35-0.12 0.72-0.12z"/>
		<path id="&lt;Path&gt;" class="s4" d="m895.13 632.11c-3.83 22.96-4.55 84.64-4.05 147.61h-183.13v193.94h-378.84l5.24-99.04c-29.24-31.49-18.73-96.57-18.73-96.57l-89.25-12.23c15.09-87.99 36.12-174.66 62.1-193.44 28.21-20.38 72.11-37.25 112.08-50.97 32.5-11.13 62.39-20.23 79.19-27.45 8.25 9.85 23.43 18.61 49.55 24.12 73.61 15.55 103.99-23.88 114.14-43.07 22.78 10.32 138.77-41.66 189.01-20.13 54.86 23.52 72.11 120.8 62.69 177.23z"/>
		<path id="&lt;Compound Path&gt;" class="s2" d="m710.46 976.18h-383.6l5.31-100.59c-26.22-29.18-20.55-83.89-18.98-95.62l-89.3-12.29 0.38-2.2c19.39-113.09 40.57-178.64 62.95-194.82 29.45-21.28 75.66-38.58 112.63-51.26 10.51-3.6 20.59-6.94 30.34-10.17 20.07-6.64 37.41-12.38 48.7-17.23l1.46-0.63 1.03 1.22c8.91 10.64 25.18 18.51 48.35 23.4 11 2.33 21.57 3.5 31.4 3.5 49.04 0 71.43-28.49 80.41-45.48l0.94-1.78 1.83 0.83c1.73 0.79 4.3 1.18 7.64 1.18 11.88 0 31.55-4.88 54.32-10.54 30.88-7.66 65.88-16.36 94.77-16.36 13.16 0 23.71 1.78 32.25 5.44 32.16 13.79 48.56 49.8 56.65 77.58 9.53 32.69 12.33 71.71 7.3 101.84-4.1 24.59-4.45 93.95-4.02 147.43l0.01 2.6h-182.77zm-379.09-5.03h376.58v-193.94h180.98c-0.41-52.9 0-121.07 4.09-145.64 9.66-57.84-9.03-152.35-61.42-174.81-7.88-3.38-18.17-5.11-30.56-5.11-28.37 0-63.1 8.61-93.74 16.22-23.04 5.72-42.95 10.66-55.35 10.66-3.01 0-5.49-0.29-7.52-0.87-9.98 17.96-33.56 46.12-83.3 46.12-10.13 0-21-1.21-32.29-3.6-23.27-4.91-39.97-12.86-49.7-23.64-11.45 4.79-28.26 10.36-47.61 16.76-9.74 3.22-19.81 6.55-30.29 10.14-36.69 12.6-82.52 29.74-111.52 50.69-20.99 15.17-42.03 80.82-60.86 189.89l89.22 12.23-0.35 2.16c-0.1 0.65-9.99 64.45 18.19 94.8l0.62 0.43z"/>
		<path id="&lt;Compound Path&gt;" class="s3" d="m456.95 385.8c-17.71-1.6-30.82-17.33-29.22-35.04 1.61-17.73 17.34-30.84 35.05-29.24 17.73 1.61 30.84 17.34 29.23 35.06-1.6 17.72-17.33 30.83-35.06 29.22zm5.21-57.42c-13.94-1.27-26.31 9.05-27.57 23-1.27 13.93 9.05 26.3 22.98 27.57 13.96 1.26 26.32-9.05 27.59-22.99 1.26-13.95-9.05-26.32-23-27.58z"/>
		<path id="&lt;Path&gt;" class="s2" d="m708.2 777.48c-1.17 0-2.11-0.95-2.11-2.12v-99.93c0-1.17 0.94-2.12 2.11-2.12 1.17 0 2.12 0.95 2.12 2.12v99.93c0 1.17-0.95 2.12-2.12 2.12z"/>
		<path id="&lt;Path&gt;" class="s2" d="m707.61 704q-0.48 0-0.94-0.23c-5.12-2.56-11.52-16.49-12.75-19.25-0.47-1.07 0.01-2.32 1.08-2.8 1.07-0.47 2.32 0.01 2.79 1.08 2.8 6.3 8 15.8 10.77 17.19 1.05 0.52 1.47 1.79 0.95 2.84-0.37 0.74-1.12 1.17-1.9 1.17z"/>
		<path id="&lt;Path&gt;" class="s2" d="m640.61 420.25c-13.12 2.62-53.23 3-87.72-22.12 0 0 41.24 67.1 89.59 61.48 48.36-5.63-1.87-39.36-1.87-39.36z"/>
		<path id="&lt;Path&gt;" class="s1" d="m608.34 362.44c4.89 4.5 11.32 7.19 19.72 6.39 7.38-0.7 14.16-4.13 19.24-8.71 4.88-4.39 8.83-10.05 11.1-15.76 0.38-0.95 3.46-11.95 4.12-11.92-21.71-1.28-43.42-2.95-64.79-6.4-1.1-0.18-2.42-0.31-3.18 0.39-0.63 0.57-0.58 1.46-0.49 2.24 1.24 10.17 5 25.23 14.28 33.77z"/>
		<path id="&lt;Compound Path&gt;" class="s2" d="m625.18 371.11h-0.01c-7.01 0-13.16-2.39-18.28-7.09-10.84-9.98-14.07-27.86-14.95-35.09-0.09-0.74-0.33-2.71 1.17-4.08q1.19-1.09 3.18-1.09c0.59 0 1.21 0.08 1.78 0.17 22.03 3.55 44.02 5.17 64.51 6.38 1.17 0.01 2.12 0.96 2.12 2.13 0 0.63-0.27 1.19-0.7 1.58-0.64 1.39-2.11 6.27-2.76 8.43-0.42 1.38-0.75 2.43-0.85 2.7-2.43 6.1-6.56 11.98-11.66 16.56-5.85 5.27-13.12 8.55-20.47 9.25q-1.57 0.15-3.08 0.15zm-29.03-43.07q0 0.14 0.03 0.37c0.83 6.76 3.81 23.45 13.6 32.46 4.31 3.96 9.48 5.96 15.39 5.96h0.01q1.3 0 2.68-0.13c6.44-0.61 12.84-3.51 18.01-8.16 4.61-4.16 8.36-9.47 10.54-14.97 0.11-0.27 0.38-1.18 0.74-2.37 0.91-3.02 1.58-5.22 2.13-6.81-19.73-1.2-40.77-2.83-61.89-6.24-0.4-0.07-0.91-0.12-1.24-0.11z"/>
		<path id="&lt;Path&gt;" class="s1" d="m640.23 257.19c-0.75 7.49 4.88 30.36 7.88 38.23 3 7.87-11.62 13.12-11.62 13.12"/>
		<path id="&lt;Path&gt;" class="s2" d="m636.49 310.68c-0.88 0-1.7-0.54-2.01-1.41-0.4-1.11 0.17-2.34 1.28-2.74 2.29-0.83 8.58-3.75 10.23-7.35 0.47-1.02 0.51-1.98 0.12-3-2.82-7.39-8.84-30.87-8-39.21 0.12-1.17 1.16-1.99 2.34-1.91 1.17 0.12 2.03 1.16 1.91 2.34-0.71 7.07 4.83 29.61 7.74 37.26 0.8 2.08 0.72 4.26-0.22 6.31-2.7 5.86-11.66 9.22-12.67 9.58q-0.36 0.13-0.72 0.13z"/>
		<path id="&lt;Path&gt;" class="s2" d="m481.67 297.93c-0.89 0-1.73-0.56-2.03-1.46-4.51-13.54-10.84-21.46-18.82-23.53-11.68-3.03-23.32 7.46-23.44 7.57-0.87 0.79-2.22 0.73-3.02-0.14-0.8-0.87-0.74-2.22 0.14-3.02 0.54-0.49 13.5-12.15 27.4-8.55 9.46 2.46 16.8 11.31 21.8 26.32 0.37 1.12-0.23 2.33-1.35 2.7q-0.34 0.12-0.68 0.11z"/>
		<path id="&lt;Path&gt;" class="s2" d="m459.93 291.19q-0.6 0-1.14-0.33c-1-0.63-1.3-1.95-0.67-2.95l8.25-13.12c0.63-1 1.95-1.3 2.94-0.67 1 0.63 1.31 1.95 0.68 2.95l-8.25 13.12c-0.41 0.64-1.1 1-1.81 1z"/>
		<path id="&lt;Path&gt;" class="s1" d="m663.85 274.8c0 0 15.74-17.61 30.36 1.88"/>
		<path id="&lt;Path&gt;" class="s2" d="m694.22 278.82c-0.65 0-1.3-0.3-1.72-0.86-3.98-5.3-8.35-8.1-13-8.31-7.74-0.35-14 6.51-14.06 6.58-0.79 0.88-2.14 0.95-3.02 0.16-0.87-0.78-0.95-2.13-0.16-3.01 0.3-0.34 7.65-8.42 17.4-8 6 0.26 11.47 3.63 16.26 10.02 0.71 0.94 0.52 2.28-0.42 2.99-0.39 0.29-0.84 0.43-1.28 0.43z"/>
		<path id="&lt;Path&gt;" class="s1" d="m694.21 275.37l7.13-3.56"/>
		<path id="&lt;Path&gt;" class="s2" d="m694.22 277.5c-0.79 0-1.54-0.43-1.92-1.18-0.53-1.05-0.1-2.34 0.96-2.87l7.12-3.56c1.06-0.52 2.34-0.1 2.87 0.96 0.53 1.05 0.1 2.34-0.96 2.87l-7.12 3.56q-0.47 0.23-0.95 0.22z"/>
		<path id="&lt;Path&gt;" class="s1" d="m688.22 270.12l5.99-4.31"/>
		<path id="&lt;Path&gt;" class="s2" d="m688.22 272.26c-0.67 0-1.32-0.31-1.74-0.89-0.69-0.96-0.47-2.3 0.49-2.99l6-4.31c0.95-0.69 2.29-0.47 2.98 0.49 0.69 0.96 0.47 2.29-0.49 2.98l-6 4.31c-0.37 0.27-0.81 0.41-1.24 0.41z"/>
		<path id="&lt;Path&gt;" class="s1" d="m597.88 270.31c0 0-15.75-17.62-30.37 1.87"/>
		<path id="&lt;Path&gt;" class="s2" d="m567.51 274.32c-0.45 0-0.9-0.14-1.28-0.43-0.95-0.71-1.14-2.05-0.43-2.99 4.79-6.39 10.27-9.76 16.27-10.02 9.69-0.42 17.09 7.66 17.4 8 0.79 0.88 0.71 2.23-0.17 3.02-0.88 0.79-2.23 0.71-3.01-0.17-0.07-0.07-6.33-6.94-14.06-6.58-4.65 0.21-9.03 3.01-13.01 8.31-0.42 0.56-1.06 0.86-1.71 0.86z"/>
		<path id="&lt;Path&gt;" class="s1" d="m567.51 270.87l-7.12-3.56"/>
		<path id="&lt;Path&gt;" class="s2" d="m567.51 273.01q-0.49 0-0.95-0.23l-7.13-3.56c-1.05-0.53-1.48-1.81-0.95-2.87 0.53-1.05 1.81-1.48 2.87-0.95l7.12 3.56c1.05 0.52 1.48 1.81 0.95 2.86-0.37 0.75-1.12 1.19-1.91 1.19z"/>
		<path id="&lt;Path&gt;" class="s1" d="m573.51 265.62l-6-4.31"/>
		<path id="&lt;Path&gt;" class="s2" d="m573.51 267.76c-0.43 0-0.87-0.13-1.25-0.4l-5.99-4.32c-0.96-0.68-1.18-2.02-0.49-2.98 0.69-0.95 2.03-1.18 2.98-0.48l6 4.3c0.96 0.7 1.18 2.03 0.49 2.99-0.42 0.58-1.08 0.89-1.74 0.89z"/>
		<path id="&lt;Path&gt;" class="s2" d="m567.89 248.77c-3.26-1.13-5.14-5.2-3.89-8.41 9.73-5.14 21.13-7.04 32-5.32 2.83 0.45 5.76 1.2 7.84 3.16 2.09 1.96 2.98 5.45 1.27 7.74-1.86 2.5-5.54 2.44-8.65 2.26-7.49-0.45-15.01-0.21-22.46 0.7-2.04 0.25-4.17 0.54-6.11-0.13z"/>
		<path id="&lt;Path&gt;" class="s2" d="m693.95 253.27c3.26-1.13 5.14-5.2 3.89-8.41-9.73-5.14-21.13-7.04-32-5.32-2.83 0.44-5.76 1.2-7.84 3.16-2.09 1.96-2.98 5.45-1.27 7.74 1.86 2.5 5.54 2.44 8.65 2.25 7.49-0.44 15.02-0.21 22.46 0.71 2.04 0.25 4.17 0.54 6.11-0.13z"/>
		<path id="&lt;Path&gt;" class="s1" d="m485.46 156.7c-5.4-5.49-6.37-13.86-6.63-21.55-0.08-2.58-0.12-5.22 0.72-7.66 0.82-2.39 2.43-4.43 4.11-6.31 11.67-13.05 28.8-21.05 46.29-21.62 4.96-0.17 10.36 0.41 14.03 3.76 2.34 2.14 3.67 5.14 4.93 8.05 1.5 3.45 3.04 7.12 2.52 10.85-0.69 5.04-4.98 8.99-5.84 14.01-1.49 8.71 7.51 15.4 15.66 18.83 8.14 3.43 17.8 7.09 20.25 15.58 1.89 6.58-1.7 13.75-7.01 18.08-5.31 4.32-12.04 6.41-18.6 8.4-6.38 1.93-14.43 3.43-18.77-1.63-4.23-4.93-1.82-12.63-3.91-18.78-2.91-8.56-13.33-11.66-22.33-12.5-9-0.84-19.07-1.08-25.42-7.51z"/>
		<path id="&lt;Path&gt;" class="s2" d="m520.72 320.15q-0.35 0-0.7-0.03c-2.85-0.19-5.59-1.57-7.33-3.69-2.91-3.55-3.5-8.96-1.5-13.8 0.83-2 2.01-3.83 3.15-5.6 1.91-2.96 3.71-5.75 3.37-8.67-0.44-3.79-4.43-6.54-7.85-8.51l-0.32-0.19c-4.21-2.42-8.97-5.16-10.71-10.21-1.82-5.27 0.81-11.47 5.86-13.83 1.07-0.49 2.34-0.04 2.84 1.03 0.5 1.07 0.04 2.34-1.03 2.84-3.02 1.41-4.72 5.42-3.63 8.57 1.22 3.54 5.07 5.75 8.8 7.9l0.33 0.19c4.28 2.46 9.29 6.03 9.96 11.71 0.52 4.45-1.79 8.03-4.03 11.49-1.08 1.68-2.11 3.28-2.79 4.92-1.38 3.34-1.04 7.14 0.85 9.45 1 1.2 2.65 2.02 4.32 2.14 1.38 0.08 2.61-0.29 3.47-1.08 0.86-0.81 2.21-0.75 3.02 0.12 0.8 0.86 0.74 2.22-0.12 3.02-1.57 1.45-3.67 2.23-5.96 2.23z"/>
		<path id="&lt;Path&gt;" class="s2" d="m114.05 550.89c-4.05 0-7.61-1.58-10.05-4.56-0.75-0.91-0.62-2.26 0.3-3.01 0.91-0.75 2.26-0.61 3 0.3 2.79 3.39 6.89 3.19 9.09 2.77 5.25-1.01 9.95-4.95 11.43-9.6 2.4-7.52 0.02-16.66-7.07-27.15-1.3-1.91-2.66-3.79-4.02-5.68-4.77-6.6-9.7-13.44-11.83-21.57-4.88-18.66 6.94-37.54 19.63-48.99 6.48-5.84 13.75-10.85 20.78-15.7 7.35-5.07 14.96-10.31 21.52-16.44 11.59-10.81 22.07-28.34 16.74-45.12-1.27-3.98-3.33-7.61-5.51-11.46-1.89-3.33-3.84-6.77-5.24-10.47-7.67-20.29 3.48-42.6 18.47-54.15 13.67-10.54 32.68-16.15 56.51-16.66 23.03-0.48 45.72 3.18 67.42 10.93q2.66 0.96 5.32 1.96c6.4 2.39 13.01 4.87 19.75 5.86 31.05 4.59 57.87-23.24 62.5-51.11 0.35-2.13 0.62-4.35 0.88-6.5 0.66-5.46 1.35-11.1 3.51-16.39 0.44-1.09 1.69-1.63 2.78-1.17 1.1 0.44 1.62 1.69 1.17 2.79-1.94 4.75-2.56 9.87-3.21 15.29-0.27 2.19-0.55 4.46-0.92 6.69-4.95 29.81-33.83 59.59-67.34 54.63-7.18-1.06-14.01-3.61-20.62-6.09q-2.63-0.99-5.26-1.94c-21.2-7.57-43.36-11.14-65.89-10.68-22.89 0.5-41.06 5.81-53.99 15.77-13.74 10.59-24.02 30.91-17.08 49.26 1.28 3.39 3.07 6.54 4.96 9.87 2.19 3.87 4.46 7.87 5.86 12.28 5.94 18.67-5.35 37.83-17.89 49.54-6.8 6.34-14.53 11.68-22.02 16.83-6.91 4.77-14.06 9.7-20.34 15.36-11.76 10.6-22.75 27.92-18.35 44.73 1.92 7.36 6.41 13.57 11.16 20.15 1.39 1.92 2.77 3.84 4.09 5.79 7.86 11.62 10.42 22 7.6 30.84-1.96 6.17-7.87 11.19-14.7 12.5q-1.61 0.31-3.14 0.3z"/>
		<path id="&lt;Path&gt;" class="s2" d="m610.59 852.36c-39.07 0-67.16-11.53-85.42-22.97-27.06-16.96-38.69-36.88-39.17-37.72-0.59-1.03-0.23-2.33 0.79-2.92 1.03-0.59 2.33-0.23 2.92 0.79 0.11 0.2 11.69 19.97 37.93 36.35 24.2 15.11 66.23 30.35 129.02 17.16 1.16-0.23 2.29 0.5 2.53 1.66 0.25 1.15-0.49 2.29-1.65 2.53-17.13 3.6-32.77 5.12-46.95 5.12z"/>
		<path id="&lt;Path&gt;" class="s2" d="m315.62 779.97q-0.28 0-0.57-0.08c-1.14-0.32-1.81-1.49-1.49-2.63 9.62-34.8 26.8-99.76 26.97-100.41 0.3-1.14 1.47-1.82 2.62-1.52 1.14 0.3 1.82 1.47 1.52 2.61-0.18 0.66-17.36 65.64-26.99 100.46-0.26 0.95-1.12 1.57-2.06 1.57z"/>
		<path id="&lt;Path&gt;" class="s2" d="m559.13 540.38c-37.68 0-64.15-13.06-64.55-13.26-1.06-0.54-1.48-1.82-0.95-2.88 0.54-1.05 1.83-1.48 2.88-0.94 0.61 0.31 62.15 30.58 130.79-3.01 1.06-0.52 2.34-0.08 2.86 0.98 0.52 1.06 0.08 2.34-0.98 2.86-25.09 12.28-49.28 16.25-70.05 16.25z"/>
		<path id="&lt;Path&gt;" class="s1" d="m284.02 880.42l1.98-83.73 1.58-70.45 0.27-14.61c0 0-2.99-30.89-20.36-47.75-16.86-17.17-50.26-33.74-57-42.16-6.74-8.43-25.15-47.53-34.6-53.54-9.44-6-27.48-8.33-30.78 15.96-3.3 24.3 15.56 65.23 15.56 65.23 0 0-54.94-28.31-62.5-36.92-7.66-8.2-17.36-59.16-38.68-62.22-20.92-2.98-27.33 23.64-23.8 34.8 0.23 0.91-1.37 2.28-1.37 2.28 0 0-7.65 5.19-12.53 23.08-4.89 17.9 2.65 55.43 2.65 55.43 0 0 1.77 26.73 4.02 39.75 0 0 0.11 68.67 33.14 90.76 16.1 10.96 39.33 20.93 60.96 28.38l-1.12 151.07c53.28 0.15 109.08-1.87 162.42-1.26z"/>
		<path id="&lt;Compound Path&gt;" class="s2" d="m126.98 977.93l-5.55-0.01c-0.57 0-1.11-0.23-1.51-0.64-0.4-0.4-0.63-0.95-0.62-1.52l1.11-149.53c-24.71-8.61-45.98-18.58-60.02-28.13-33.04-22.11-34.04-87.56-34.07-92.34-2.17-12.69-3.84-37.34-4-39.66-0.58-2.92-7.45-38.47-2.59-56.27 4.74-17.37 12.13-23.37 13.25-24.19 0.18-0.16 0.37-0.37 0.5-0.54-2.07-7.22-0.55-19.64 5.73-28.22 5.03-6.87 12.24-9.94 20.58-8.77 15.71 2.26 25.14 27.18 32.02 45.38 2.96 7.8 5.74 15.17 7.92 17.5 5.42 6.16 38.85 24.4 56.58 33.71-5.05-12.16-15.97-41.34-13.32-60.84 2.58-18.98 13.55-21.81 19.85-21.81 4.7 0 9.88 1.58 14.2 4.33 6.44 4.1 15.9 20.97 24.24 35.86 4.38 7.81 8.52 15.2 10.88 18.14 2.79 3.49 11.04 8.83 20.59 15.01 12.54 8.11 26.76 17.31 36.27 26.99 17.69 17.17 20.83 47.75 20.95 49.04q0.02 0.12 0.01 0.24l-0.26 14.62-1.58 70.45-1.99 83.74-0.15 94.06c0 0.57-0.23 1.11-0.64 1.51-0.4 0.41-0.94 0.69-1.53 0.62q-10.63-0.12-21.37-0.12c-22.47 0-45.61 0.36-68 0.7-22.25 0.34-45.27 0.69-67.48 0.69zm-3.39-4.28h3.39c22.18 0 45.18-0.35 67.42-0.69 22.4-0.34 45.56-0.69 68.06-0.69q9.68 0 19.27 0.09l0.15-91.94 1.98-83.78 1.85-84.92c-0.23-2.05-3.64-30.71-19.71-46.3-9.21-9.38-23.83-18.84-35.57-26.44-10.28-6.65-18.39-11.9-21.61-15.93-2.58-3.22-6.6-10.4-11.27-18.72-7.29-13.01-17.27-30.82-22.8-34.34-3.66-2.33-8-3.67-11.91-3.67-8.6 0-14 6.27-15.61 18.11-3.18 23.4 15.2 63.65 15.38 64.05 0.38 0.83 0.2 1.81-0.46 2.44-0.66 0.63-1.65 0.78-2.46 0.35-2.26-1.16-55.38-28.6-63.13-37.41-2.71-2.9-5.37-9.94-8.75-18.86-6.5-17.2-15.42-40.76-28.63-42.66-6.78-0.97-12.4 1.43-16.52 7.06-5.36 7.33-6.88 18.83-4.93 24.98 0.53 2.12-1.24 3.88-2.03 4.55q-0.09 0.08-0.18 0.15c-0.06 0.04-7.1 5.15-11.67 21.88-4.69 17.2 2.62 54.06 2.69 54.43q0.03 0.14 0.04 0.29c0.02 0.26 1.78 26.76 3.99 39.53q0.03 0.17 0.03 0.36c0 0.67 0.5 67.78 32.18 88.99 14.02 9.54 35.5 19.53 60.48 28.13 0.87 0.3 1.45 1.12 1.44 2.04z"/>
		<path id="&lt;Path&gt;" class="s2" d="m28.9 711.28l0.1-0.41c6.17-19.76 16.38-28.69 29.02-25.42 11.83 3.09 18.82 21.93 19.23 39.29 0.6 16.54-0.55 19.73-0.64 20.14-0.09 0.41-0.59 0.73-0.91 0.23-0.41-0.09-0.73-0.6-0.23-0.91 0 0 1.15-3.2 0.37-18.92-0.7-16.13-7.28-34.87-18.28-37.78-11.82-3.09-21.12 5.62-27.01 24.15-0.09 0.41-0.6 0.73-1.01 0.64-0.73-0.6-0.64-1.01-0.64-1.01z"/>
		<path id="&lt;Path&gt;" class="s5" d="m76.09 746.44q-0.59-0.01-1.03-0.43c-0.47-0.24-0.81-0.67-0.89-1.17-0.08-0.44 0.05-0.88 0.35-1.23 0.21-0.94 0.9-5.17 0.25-18.27-0.68-15.79-7.04-34.04-17.48-36.8-11-2.88-19.96 5.32-25.72 23.44-0.17 0.76-0.99 1.39-1.88 1.39-0.08 0-0.3-0.02-0.38-0.04q-0.25-0.05-0.44-0.21c-1.16-0.94-1.06-1.82-1.01-2.07l0.09-0.41c5.51-17.64 14.17-26.92 25.08-26.92q2.57 0 5.26 0.69c12.6 3.29 19.61 22.77 20.03 40.3 0.37 10.17 0.14 17.4-0.65 20.36-0.19 0.81-0.84 1.37-1.58 1.37z"/>
		<path id="&lt;Path&gt;" class="s2" d="m75.86 734.79c-0.32-0.51 0.18-0.83 0.69-1.14 4.25-1.64 31.36 8.34 34.56 9.49 0.41 0.09 0.73 0.59 0.63 1.01-0.09 0.41-0.59 0.72-1 0.63-11.55-4.32-30.91-10.4-33.65-9.72q-0.75 0.48-1.23-0.27z"/>
		<path id="&lt;Path&gt;" class="s5" d="m110.89 745.87c-0.08 0-0.31-0.03-0.39-0.04-11.88-4.44-29.09-9.75-32.85-9.75q-0.13 0-0.2 0-0.45 0.24-0.9 0.24c-0.37 0-1.07-0.13-1.59-0.96q-0.89-1.41 1.01-2.62c0.63-0.26 1.19-0.34 1.91-0.34 5.55 0 21.01 5.18 33 9.52l0.59 0.21c0.34 0.07 0.77 0.38 1.05 0.82 0.27 0.44 0.37 0.96 0.27 1.43-0.19 0.85-1.01 1.49-1.9 1.49z"/>
		<path id="&lt;Path&gt;" class="s2" d="m24.95 665.5c-0.14-1.33 3.35-26.45 14.79-35.1 3.11-2.32 6.77-3.23 10.56-2.81 20.51 2.88 26.63 23.69 25.92 32.59-0.71 8.91 6.5 32.55 7.82 36.3 5.98 2.2 23.28 7.82 24.55 9.83q0.48 0.76-0.28 1.23-0.75 0.48-1.23-0.27c-1.05-1.1-13.42-5.61-24.24-9.34-0.41-0.09-0.41-0.09-0.73-0.59-0.22-0.92-8.52-27.39-8.04-37.21 0.62-8.49-4.96-27.88-24.55-30.99-3.38-0.32-6.53 0.26-9.14 2.27-10.94 8.33-13.92 33.13-14.02 33.54-0.09 0.41-0.59 0.73-1 0.64-0.09 0.41-0.09 0.41-0.41-0.09z"/>
		<path id="&lt;Compound Path&gt;" class="s5" d="m107.77 708.8c-0.35 0-0.98-0.11-1.5-0.82-1.05-0.79-8.74-3.86-23.77-9.04-0.66-0.13-0.88-0.38-1.29-1.03q-0.09-0.15-0.13-0.31-0.05-0.17-0.31-1.05c-5.37-17.99-8.05-30.6-7.77-36.47 0.59-8.11-4.56-26.85-23.65-29.88-0.48-0.04-1.01-0.07-1.54-0.07-2.66 0-4.94 0.71-6.78 2.13-9.27 7.06-12.73 26.71-13.57 32.56q-0.04 0.32-0.05 0.37c-0.15 0.65-0.69 1.2-1.35 1.4q-0.3 0.37-0.81 0.37c-0.64 0-0.93-0.45-1.2-0.89q-0.14-0.21-0.17-0.47c-0.13-1.37 3.33-27.06 15.22-36.05 3.24-2.42 7.2-3.48 11.32-3.02 20.65 2.9 27.68 23.4 26.86 33.74-0.63 8.05 5.63 29.55 7.6 35.38 1.24 0.45 2.85 1.01 4.66 1.64 12.71 4.44 18.93 6.84 19.95 8.45 0.64 1 0.4 2.07-0.6 2.71q-0.56 0.35-1.12 0.35zm-0.12-1.94l-0.39 0.63 0.76-0.75c-0.03-0.02-0.12-0.08-0.25-0.08l-0.07 0.11q0 0.09 0.02 0.17-0.03-0.04-0.07-0.08zm-32.65-51.02c0.19 1.63 0.23 3.12 0.14 4.37q-0.01 0.15-0.01 0.31 0.01-0.22 0.02-0.42c0.09-1.13 0.05-2.59-0.15-4.26z"/>
		<path id="&lt;Path&gt;" class="s2" d="m37.79 587.22c0 0 0.09-0.41 0 0-0.32-0.5 0.18-0.82 0.69-1.14 5.57-1.77 13.47-0.42 20.73 3.8 8.71 5.41 14.54 14.06 15.89 23.43 2.88 17.91 6.97 26.6 7.83 28.52l27.57 11.81c0.41 0.09 0.73 0.6 0.64 1.01-0.1 0.41-0.6 0.73-1.01 0.63l-27.98-11.89c0 0-0.41-0.1-0.32-0.51-0.31-0.5-4.91-8.87-8.15-29.03-1.35-9.37-6.86-17.51-15.25-22.42-6.43-4.03-13.92-5.29-19-3.84-0.91 0.23-1.23-0.27-1.64-0.37z"/>
		<path id="&lt;Path&gt;" class="s5" d="m110.28 656.37c-0.08 0-0.31-0.02-0.38-0.04l-28.17-11.96c0.04 0.03-0.45-0.11-0.76-0.6q-0.17-0.29-0.21-0.62c-0.89-1.65-5.08-10.13-8.14-29.13-1.3-9.06-6.67-16.95-14.73-21.67-4.34-2.72-9.41-4.27-13.94-4.27q-2.33 0-4.22 0.54c-1.09 0.27-1.74-0.1-2.1-0.3q-0.34-0.08-0.58-0.34-0.09-0.07-0.16-0.18c-0.31-0.48-0.3-0.92-0.23-1.21 0.16-0.73 0.79-1.12 1.25-1.41q0.11-0.07 0.24-0.11c5.91-1.88 14.29-0.36 21.6 3.88 9.03 5.61 15 14.43 16.41 24.21 1.25 7.79 3.58 18.93 7.58 27.86l27.18 11.64c0.28 0.04 0.71 0.35 0.99 0.79 0.28 0.44 0.37 0.96 0.27 1.43-0.19 0.84-1.02 1.49-1.9 1.49z"/>
		<path id="&lt;Path&gt;" class="s2" d="m138.58 755.36c-0.32-0.51 0.28-1.24 0.69-1.14 22.17-4.52 44.62 7 59.17 17.18 16.1 10.95 26.71 23.27 27.12 23.36q0.48 0.76-0.28 1.23-0.75 0.48-1.23-0.27c-0.32-0.51-43.15-48.12-84.65-40.18-0.09 0.41-0.5 0.32-0.82-0.18z"/>
		<path id="&lt;Path&gt;" class="s5" d="m224.74 797.25c-0.37 0-1.06-0.13-1.59-0.96-0.28-0.34-36.29-40.57-74.16-40.57-3.05 0-6.05 0.26-8.95 0.79-0.62 0.59-1.75 0.39-2.36-0.58-0.34-0.53-0.34-1.2-0.02-1.8 0.33-0.6 0.93-0.99 1.53-0.99h0.01c3.31-0.66 6.77-1 10.27-1 19.25 0 37.59 10 49.58 18.38 13.05 8.88 22.4 18.53 25.92 22.16q0.89 0.93 1.16 1.18 0.2 0.12 0.33 0.33c0.4 0.62 0.39 1.16 0.31 1.49-0.07 0.34-0.29 0.82-0.91 1.22q-0.56 0.35-1.12 0.35z"/>
		<path id="&lt;Path&gt;" class="s1" d="m368.68 241.55l-53.34-14.5c-7.8 6.81-17.04 12.29-27.56 15.92-44.96 15.5-95.76-8.31-113.48-53.19-17.72-44.88 4.36-93.83 49.31-109.34 44.96-15.5 95.76 8.31 113.48 53.19 7.31 18.52 7.83 37.72 2.78 54.99z"/>
		<path id="&lt;Compound Path&gt;" class="s6" d="m259.43 249.84c-38.11 0-73.12-23.82-87.12-59.28-8.87-22.47-8.36-46.6 1.46-67.92 9.62-20.9 27.07-36.61 49.15-44.22 9.33-3.22 19.1-4.85 29.04-4.85 38.11 0 73.12 23.82 87.12 59.27 7.15 18.12 8.22 37.3 3.09 55.53l28.21 51.82c0.3 0.37 0.48 1.87 0.48 2.39 0 1.18-0.96 3.17-2.14 3.17q-0.02 0-0.04 0c-0.19 0-0.38-1.06-0.56-1.11l-52.24-14.71c-8.05 6.84-17.27 11.82-27.41 15.32-9.33 3.22-19.1 4.59-29.04 4.59zm-7.47-172c-9.46 0-18.76 1.56-27.65 4.62-20.96 7.23-37.53 22.13-46.66 41.96-9.32 20.26-9.81 43.28-1.36 64.66 13.35 33.84 46.77 56.67 83.14 56.67q0 0 0 0c9.46 0 18.76-1.65 27.65-4.71 9.98-3.45 19.02-8.71 26.86-15.56 0.53-0.47 1.27-0.66 1.96-0.47l48.51 13.17-26.42-48.53c-0.27-0.5-0.33-1.08-0.17-1.63 5.14-17.56 4.2-36.1-2.72-53.6-13.35-33.84-46.77-56.58-83.14-56.58z"/>
		<path id="&lt;Path&gt;" class="s2" d="m294.23 175.45c-7.69 0-13.9-5.81-13.9-12.99 0-7.19 6.21-12.99 13.9-12.99 7.68 0 13.9 5.8 13.9 12.99 0 7.18-6.22 12.99-13.9 12.99z"/>
		<path id="&lt;Path&gt;" class="s2" d="m252.53 175.45c-7.68 0-13.89-5.81-13.89-12.99 0-7.19 6.21-12.99 13.89-12.99 7.69 0 13.9 5.8 13.9 12.99 0 7.18-6.21 12.99-13.9 12.99z"/>
		<path id="&lt;Path&gt;" class="s2" d="m210.84 175.45c-7.69 0-13.9-5.81-13.9-12.99 0-7.19 6.21-12.99 13.9-12.99 7.69 0 13.9 5.8 13.9 12.99 0 7.18-6.21 12.99-13.9 12.99z"/>
		<path id="&lt;Path&gt;" class="s1" d="m1044.89 714.61c-2.72-37.63-161.1-84.51-161.1-84.51 0 0-17.21 16.28-34.46 37.77-7.92-28.41-16.6-54.19-24.45-65.77-7.92-11.67-23.8-14.73-35.48-6.82-11.68 7.92-14.72 23.8-6.81 35.49 6.82 10.05 19.7 56.05 31.11 104.74-4.61 23.45 4.41 88.99 18.59 105.35l2.19 134.19c66.09-0.8 108.35-0.67 174.56-2.18-0.01-9.91 1.23-98.68 1.09-106.92 15.74-43.45 36.27-130.38 34.76-151.34z"/>
		<path id="&lt;Compound Path&gt;" class="s2" d="m834.48 977.19c-1.17 0-2.12-0.93-2.14-2.1l-2.17-133.44c-14.64-18.14-23.03-82.44-18.66-106.09-12.71-54.19-24.75-94.82-30.69-103.59-8.56-12.64-5.25-29.89 7.38-38.46 4.6-3.11 9.97-4.76 15.51-4.76 9.2 0 17.78 4.54 22.94 12.15 6.73 9.93 14.67 30.92 23.62 62.42 16.25-19.77 31.89-34.62 32.06-34.78 0.55-0.52 1.34-0.71 2.07-0.5 6.53 1.94 159.83 47.75 162.62 86.41 1.59 22.03-19.31 109.09-34.75 151.87 0.06 5.93-0.31 36.64-0.64 63.81-0.23 19.83-0.46 38.57-0.45 42.74 0 1.16-0.93 2.11-2.09 2.14-43.67 0.99-77.56 1.28-113.45 1.58-18.87 0.16-38.62 0.33-61.14 0.6q-0.01 0-0.02 0zm-30.77-384.17c-4.69 0-9.22 1.4-13.11 4.03-10.68 7.24-13.48 21.83-6.24 32.52 7.56 11.15 21.19 61.78 31.42 105.45q0.1 0.45 0.02 0.9c-4.8 24.39 4.88 88.28 18.11 103.54 0.33 0.38 0.51 0.86 0.52 1.36l2.15 132.07c21.64-0.26 40.75-0.42 59.03-0.57 35.29-0.3 68.66-0.58 111.3-1.54 0.04-6.45 0.23-22.48 0.45-40.7 0.33-27.82 0.71-59.36 0.63-64.09q-0.01-0.39 0.13-0.76c16.31-45.01 36.05-130.79 34.64-150.47-2.12-29.39-113.88-68.97-158.38-82.26-3.73 3.61-18.62 18.33-33.38 36.7-0.51 0.63-1.32 0.92-2.1 0.76-0.79-0.16-1.41-0.75-1.63-1.52-9.28-33.26-17.41-55.18-24.16-65.14-4.36-6.43-11.62-10.28-19.4-10.28z"/>
		<path id="&lt;Path&gt;" class="s2" d="m896.99 818.27q-0.15-0.03-0.3-0.09c-1.1-0.41-1.65-1.65-1.24-2.75 29.74-78.7-38.13-112.89-41.04-114.31-1.05-0.52-1.49-1.79-0.98-2.85 0.52-1.05 1.82-1.5 2.84-0.98 0.75 0.36 74.29 37.26 43.16 119.66-0.38 0.99-1.42 1.54-2.44 1.32z"/>
		<path id="&lt;Path&gt;" class="s2" d="m798.84 625.93c-40.43 0-73.1-32.67-73.1-73.09 0-40.43 32.67-73.1 73.1-73.1 40.42 0 73.09 32.67 73.09 73.1 0 40.42-32.67 73.09-73.09 73.09z"/>
		<path id="&lt;Path&gt;" class="s7" d="m869.38 574.44l-55.58 47.96 48.13 50.08c17.39-14.07 34.78-28.22 52.18-41.28z"/>
		<path id="&lt;Compound Path&gt;" class="s2" d="m861.93 674.62c-0.57 0-1.13-0.23-1.55-0.66l-48.13-50.07c-0.4-0.43-0.62-1-0.59-1.58 0.03-0.59 0.3-1.14 0.74-1.52l55.58-47.97c0.44-0.38 1.02-0.57 1.6-0.51 0.58 0.05 1.12 0.34 1.48 0.8l44.73 56.76c0.35 0.46 0.51 1.03 0.44 1.6-0.08 0.57-0.38 1.09-0.84 1.44-16.18 12.15-32.66 25.48-48.58 38.37l-3.54 2.86c-0.39 0.32-0.87 0.48-1.34 0.48zm-45.03-52.07l45.21 47.03 2.01-1.62c15.38-12.46 31.27-25.32 46.95-37.16l-41.99-53.29z"/>
		<path id="&lt;Path&gt;" class="s2" d="m1060.24 816.65l-146.13-185.45c-17.4 13.06-34.79 27.21-52.18 41.28l165.66 172.35z"/>
		<path id="&lt;Path&gt;" class="s1" d="m904.79 578.78l-55.9 58.48c-9.98 10.45-8.69 28.25 2.87 39.8 9.58 9.58 23.18 11.72 33.25 6.24-5.76 10.52-3.45 24.93 6.43 34.81 7.55 7.56 17.61 10.46 26.48 8.71-2.24 9.5 0.71 20.53 8.74 28.56 9.72 9.72 23.57 11.8 33.67 6.04-2.12 8.58 0.51 18.59 7.79 25.87 10.35 10.35 25.99 11.17 34.93 1.82l50.12-52.43c2.32-2.43 3.96-5.31 4.93-8.41 2.78-8.86 0.16-19.6-7.5-27.27-7.24-7.24-17.03-9.7-25.34-7.4 0.69-1.31 1.34-2.64 1.78-4.05 3.1-9.88 0.18-21.86-8.37-30.42-7.59-7.58-17.69-10.48-26.57-8.69 2.25-9.5-0.62-20.54-8.66-28.58-9.58-9.59-23.17-11.72-33.23-6.26 0.76-1.4 1.45-2.85 1.92-4.38 3.1-9.87 0.18-21.86-8.37-30.41-11.55-11.55-28.99-12.46-38.97-2.03z"/>
		<path id="&lt;Compound Path&gt;" class="s2" d="m987.38 797.76c-7.51 0-15.08-3.27-20.77-8.96-6.48-6.47-9.75-15.27-9.03-23.75-3.01 1.11-6.26 1.69-9.58 1.69-8.26 0-16.59-3.59-22.85-9.84-7.47-7.47-11.1-17.79-9.86-27.56-9.04 0.77-18.49-2.85-25.37-9.72-8.93-8.94-12.24-21.6-8.9-32.36-2.54 0.75-5.22 1.14-7.95 1.14-8.25 0-16.57-3.58-22.82-9.83-12.35-12.34-13.65-31.54-2.91-42.79l55.91-58.48c4.89-5.11 11.64-7.92 19.03-7.92 8.31 0 16.69 3.61 22.99 9.92 8.78 8.78 12.29 21.45 8.97 32.34 2.52-0.75 5.18-1.13 7.89-1.13 8.25 0 16.57 3.58 22.82 9.83 7.44 7.44 11.04 17.77 9.78 27.57 9.07-0.8 18.56 2.82 25.45 9.71 8.84 8.85 12.34 21.63 8.9 32.57q-0.09 0.29-0.19 0.57c8.22-0.83 16.94 2.45 23.22 8.73 7.98 7.99 11.14 19.53 8.03 29.42-1.1 3.52-2.93 6.63-5.42 9.25l-50.12 52.43c-4.43 4.62-10.54 7.17-17.22 7.17zm-27.05-38.48c0.46 0 0.91 0.15 1.29 0.43 0.68 0.52 0.99 1.39 0.79 2.22-2.03 8.22 0.73 17.36 7.22 23.85 4.89 4.89 11.36 7.7 17.75 7.7 5.5 0 10.52-2.08 14.13-5.85l50.11-52.43c2.04-2.13 3.54-4.68 4.45-7.57 2.63-8.39-0.11-18.24-6.98-25.12-4.84-4.83-11.26-7.6-17.61-7.6q-2.92 0-5.65 0.75c-0.82 0.22-1.7-0.06-2.23-0.72-0.54-0.67-0.63-1.58-0.23-2.34 0.61-1.16 1.23-2.4 1.63-3.69 2.96-9.44-0.11-20.53-7.84-28.26-5.45-5.45-12.69-8.58-19.86-8.58q-2.44 0-4.78 0.47c-0.71 0.14-1.45-0.08-1.96-0.61-0.51-0.52-0.71-1.27-0.54-1.98 2.18-9.22-0.92-19.41-8.09-26.58-5.45-5.46-12.67-8.58-19.8-8.58-3.89 0-7.65 0.93-10.9 2.69-0.84 0.45-1.87 0.3-2.54-0.37-0.67-0.67-0.81-1.7-0.36-2.53 0.82-1.5 1.38-2.77 1.76-4 2.97-9.44-0.11-20.53-7.84-28.26-5.51-5.51-12.79-8.67-19.97-8.67-6.21 0-11.87 2.35-15.94 6.61l-55.91 58.48c-9.15 9.58-7.88 26.09 2.84 36.81 5.45 5.45 12.67 8.58 19.8 8.58 3.89 0 7.66-0.94 10.91-2.71 0.84-0.45 1.87-0.3 2.54 0.37 0.67 0.68 0.82 1.71 0.36 2.54-5.45 9.97-2.96 23.23 6.07 32.26 5.45 5.46 12.69 8.58 19.86 8.58q2.39 0 4.69-0.45c0.71-0.15 1.45 0.09 1.96 0.61 0.5 0.52 0.71 1.27 0.54 1.97-2.16 9.19 0.97 19.37 8.18 26.57 5.46 5.46 12.69 8.6 19.82 8.6 4.04 0 7.94-1.01 11.27-2.91q0.51-0.28 1.06-0.28z"/>
		<path id="&lt;Path&gt;" class="s2" d="m885.57 684.29c-0.39 0.19-0.9 0.1-1.26-0.26-0.45-0.45-0.49-1.13-0.11-1.53l65.21-67.7c0.38-0.4 1.05-0.36 1.5 0.08 0.44 0.45 0.49 1.13 0.1 1.53l-65.2 67.7q-0.11 0.11-0.24 0.18z"/>
		<path id="&lt;Path&gt;" class="s2" d="m918.48 727.81c-0.37 0.18-0.87 0.1-1.22-0.23-0.47-0.43-0.54-1.12-0.17-1.54l38.14-43.34c0.36-0.43 1.04-0.4 1.49 0.03 0.47 0.43 0.54 1.11 0.17 1.54l-38.14 43.33q-0.12 0.13-0.27 0.21z"/>
		<path id="&lt;Path&gt;" class="s2" d="m977.33 746.16c-0.36 0.19-0.85 0.11-1.21-0.22-0.47-0.42-0.55-1.11-0.18-1.53l42.64-49.69c0.35-0.44 1.03-0.42 1.5 0.01 0.46 0.42 0.54 1.11 0.18 1.53l-42.65 49.69q-0.12 0.14-0.28 0.21z"/>
		<path id="&lt;Path&gt;" class="s2" d="m960.89 762.41c-0.35 0.17-0.81 0.12-1.17-0.19-0.48-0.4-0.6-1.09-0.26-1.53l5.62-7.31c0.36-0.45 1.01-0.48 1.49-0.07 0.48 0.4 0.59 1.09 0.25 1.53l-5.62 7.31q-0.13 0.17-0.31 0.26z"/>
		<path id="&lt;Path&gt;" class="s2" d="m891.86 657.79q-0.05 0.15-0.14 0.27l-12.45 17.32c-0.19 0.27-0.49 0.41-0.82 0.39-0.52-0.01-12.84-0.59-22.47-11.46-0.42-0.49-0.41-1.21 0-1.58 0.43-0.39 1.12-0.3 1.56 0.19 7.82 8.82 17.84 10.32 20.2 10.56l11.86-16.51c-4.14-16.01-20.06-22.16-23.52-23.33l-10.56 14.18c-0.34 0.47-1.03 0.51-1.53 0.1-0.51-0.41-0.62-1.14-0.29-1.59l10.97-14.73c0.23-0.32 0.65-0.45 1.07-0.34 0.21 0.07 21.37 6.15 26.13 25.93q0.08 0.31-0.01 0.6z"/>
		<path id="&lt;Path&gt;" class="s2" d="m927.2 702.71q-0.07 0.14-0.17 0.26l-13.84 16.13c-0.2 0.24-0.52 0.36-0.85 0.32-0.52-0.06-12.88-1.59-21.75-13.08-0.39-0.52-0.33-1.22 0.11-1.56 0.47-0.35 1.16-0.21 1.56 0.31 7.21 9.32 17.18 11.59 19.53 12.01l13.2-15.38c-2.97-16.13-18.53-23.45-21.93-24.88l-11.69 13.18c-0.38 0.44-1.08 0.42-1.55-0.03-0.48-0.44-0.54-1.17-0.17-1.59l12.15-13.68c0.26-0.3 0.69-0.4 1.1-0.25 0.21 0.08 21.05 7.75 24.35 27.65q0.05 0.31-0.05 0.59z"/>
		<path id="&lt;Path&gt;" class="s2" d="m966.96 739.87q-0.06 0.14-0.16 0.26l-13.84 16.13c-0.21 0.24-0.52 0.36-0.85 0.32-0.53-0.06-12.88-1.59-21.76-13.08-0.39-0.52-0.32-1.23 0.12-1.56 0.46-0.35 1.15-0.21 1.55 0.3 7.21 9.33 17.18 11.6 19.54 12.02l13.19-15.38c-2.97-16.13-18.53-23.45-21.92-24.88l-11.7 13.18c-0.38 0.43-1.07 0.42-1.55-0.03-0.47-0.44-0.54-1.17-0.16-1.59l12.14-13.68c0.26-0.3 0.69-0.4 1.1-0.25 0.22 0.08 21.05 7.75 24.36 27.65q0.05 0.31-0.06 0.59z"/>
		<path id="&lt;Path&gt;" class="s2" d="m1008.85 773.13q-0.06 0.13-0.16 0.24l-13.11 15.28c-0.19 0.23-0.49 0.34-0.8 0.3-0.5-0.05-12.2-1.5-20.61-12.38-0.37-0.5-0.3-1.16 0.11-1.48 0.44-0.33 1.1-0.2 1.48 0.29 6.82 8.83 16.27 10.98 18.5 11.38l12.49-14.56c-2.81-15.29-17.54-22.22-20.76-23.57l-11.08 12.48c-0.36 0.41-1.02 0.4-1.47-0.03-0.45-0.42-0.51-1.11-0.15-1.5l11.5-12.96c0.25-0.29 0.65-0.38 1.04-0.24 0.2 0.07 19.94 7.34 23.07 26.19q0.05 0.29-0.05 0.56z"/>
		<path id="&lt;Path&gt;" class="s1" d="m800.38 533.2c-11.61 0-21-9.39-21-21 0-11.62 9.39-21.01 21-21.01 11.62 0 21 9.39 21 21.01 0 11.61-9.38 21-21 21z"/>
		<path id="&lt;Path&gt;" class="s1" d="m825.75 533.2c-7.54 0-13.64-6.1-13.64-13.64 0-7.54 6.1-13.64 13.64-13.64 7.54 0 13.64 6.1 13.64 13.64 0 7.54-6.1 13.64-13.64 13.64z"/>
		<path id="&lt;Path&gt;" class="s2" d="m98.86 974.94c-7.53 0-14.77-1.1-21.5-3.3-14.8-4.84-27.1-15.44-32.9-28.37-7.39-16.47-5.18-37.76 6.06-58.41 5.17-9.48 12.17-17.99 18.94-26.22 7.62-9.27 15.51-18.86 20.5-29.63 7.31-15.77 4.36-40.39 1.5-64.2-3.66-30.46-7.44-61.96 8.75-79.7 9.19-10.07 23.68-14.68 44.3-14.11 21.46 0.6 43.12 12.12 57.93 30.82 8.57 10.82 14.59 23.4 20.42 35.56 4.03 8.42 8.2 17.13 13.16 25.11 33.34 53.66 109.83 77.5 167.03 52.03 18.26-8.12 33.29-21.56 47.83-34.55 11.05-9.87 22.47-20.07 35.34-28.05 28.09-17.41 64.68-25.45 103-22.65 64.08 4.69 125.47 36.63 160.2 83.37 7.71 10.37 15.06 21.7 22.17 32.66 20.95 32.31 42.62 65.71 77.9 82.58 27.3 13.05 59.28 13.83 89.77 12.73 19.76-0.72 42.52-2.21 62.49-10.84 21.53-9.3 37.57-29.26 42.92-53.39 5.24-23.69-0.53-47.14-15.83-64.33-0.78-0.89-0.7-2.24 0.18-3.02 0.88-0.79 2.23-0.71 3.02 0.17 16.22 18.24 22.34 43.06 16.8 68.1-5.64 25.47-22.61 46.55-45.39 56.4-20.65 8.92-43.88 10.45-64.04 11.18-31.04 1.12-63.63 0.31-91.76-13.14-36.37-17.39-58.37-51.31-79.65-84.12-7.07-10.9-14.38-22.17-22.01-32.43-33.5-45.08-95.16-77.13-157.08-81.66-37.44-2.73-73.11 5.09-100.44 22.03-12.55 7.78-23.83 17.86-34.74 27.6-14.78 13.21-30.07 26.87-48.94 35.27-59.05 26.27-138 1.7-172.4-53.69-5.08-8.17-9.3-16.99-13.38-25.51-5.73-11.95-11.65-24.31-19.92-34.76-14.04-17.71-34.48-28.63-54.7-29.19-19.31-0.54-32.72 3.61-41.03 12.71-14.86 16.3-11.2 46.81-7.65 76.31 3.06 25.53 5.95 49.63-1.87 66.51-5.22 11.27-13.28 21.06-21.08 30.54-6.64 8.08-13.51 16.43-18.48 25.56-10.6 19.46-12.76 39.37-5.92 54.61 5.32 11.85 16.66 21.59 30.33 26.06 12.34 4.03 26.57 4.12 41.14 0.24 1.14-0.29 2.32 0.38 2.62 1.52 0.3 1.14-0.38 2.31-1.52 2.62-7.49 1.99-14.91 2.98-22.07 2.98z"/>
		<path id="&lt;Path&gt;" class="s3" d="m955.38 269.94l13.91 49.83c0.31 1.09 1.13 1.96 2.2 2.33l48.94 16.79c2.7 0.93 3.17 4.55 0.79 6.13l-43.1 28.63c-0.94 0.63-1.52 1.68-1.54 2.81l-0.84 51.73c-0.05 2.86-3.35 4.42-5.59 2.64l-40.54-32.13c-0.89-0.71-2.07-0.93-3.15-0.6l-49.46 15.18c-2.73 0.84-5.24-1.82-4.24-4.49l18.03-48.49c0.4-1.07 0.25-2.26-0.41-3.18l-29.72-42.35c-1.64-2.34 0.12-5.54 2.97-5.42l51.69 2.17c1.13 0.04 2.22-0.47 2.9-1.38l31.09-41.35c1.71-2.28 5.3-1.6 6.07 1.15z"/>
		<path id="&lt;Compound Path&gt;" class="s2" d="m972.28 433.72c-1.26 0-2.46-0.42-3.46-1.21l-40.54-32.14c-0.33-0.26-0.79-0.34-1.2-0.22l-49.45 15.18c-2.32 0.71-4.86-0.19-6.24-2.17-1.05-1.51-1.28-3.38-0.64-5.12l18.04-48.49c0.15-0.4 0.09-0.85-0.16-1.21l-29.72-42.34c-1.2-1.71-1.34-3.93-0.38-5.78 0.97-1.86 2.86-3.02 4.95-3.02 0.03 0 0.21 0.01 0.24 0.01l51.69 2.17q0 0 0 0c0.47 0 0.85-0.19 1.1-0.52l31.09-41.35c1.06-1.42 2.69-2.23 4.45-2.23 2.54 0 4.71 1.64 5.39 4.08l13.91 49.83c0.12 0.42 0.43 0.75 0.84 0.89l48.93 16.79c2.03 0.69 3.45 2.44 3.73 4.57 0.27 2.12-0.67 4.18-2.45 5.36l-43.09 28.63c-0.36 0.24-0.58 0.64-0.59 1.07l-0.84 51.73c-0.06 3.08-2.51 5.49-5.6 5.49zm-44.81-37.9c1.25 0 2.48 0.42 3.47 1.2l40.54 32.14q0.36 0.29 0.8 0.29c0.54 0 1.31-0.4 1.32-1.3l0.85-51.72c0.03-1.84 0.96-3.55 2.49-4.56l43.09-28.63c0.61-0.41 0.61-1.01 0.58-1.26-0.03-0.24-0.18-0.83-0.88-1.07l-48.93-16.79c-1.74-0.59-3.07-2.01-3.57-3.78l-13.91-49.83c-0.19-0.71-0.81-0.96-1.27-0.96-0.29 0-0.71 0.09-1.03 0.53l-31.09 41.35c-1.05 1.39-2.72 2.22-4.46 2.22-0.04 0-0.21 0-0.24 0l-51.69-2.17c-0.77 0-1.11 0.5-1.22 0.71-0.11 0.21-0.32 0.77 0.09 1.35l29.72 42.35c1.06 1.5 1.31 3.43 0.67 5.15l-18.04 48.49c-0.2 0.53-0.03 0.94 0.14 1.2 0.34 0.47 0.9 0.68 1.47 0.51l49.46-15.18q0.8-0.24 1.64-0.24z"/>
		<path id="&lt;Path&gt;" class="s3" d="m88.86 292.94l20.58 22.27c0.45 0.49 1.11 0.72 1.77 0.63l30.01-4.33c1.65-0.23 2.87 1.53 2.05 2.99l-14.83 26.45c-0.32 0.58-0.34 1.28-0.05 1.88l13.39 27.2c0.74 1.51-0.57 3.2-2.21 2.88l-29.73-5.93c-0.66-0.13-1.33 0.07-1.81 0.54l-21.74 21.13c-1.2 1.17-3.21 0.45-3.41-1.21l-3.55-30.11c-0.08-0.66-0.48-1.24-1.07-1.55l-26.82-14.14c-1.48-0.78-1.42-2.92 0.1-3.63l27.54-12.68c0.6-0.28 1.03-0.84 1.15-1.49l5.16-29.88c0.28-1.65 2.34-2.25 3.47-1.02z"/>
		<path id="&lt;Compound Path&gt;" class="s2" d="m84.9 391.36c-2.12 0-3.9-1.58-4.14-3.67l-3.56-30.11-26.75-14.05c-1.41-0.75-2.26-2.2-2.22-3.79 0.04-1.59 0.97-3 2.42-3.67l27.54-12.68 5.09-29.79c0.35-2 2.07-3.45 4.11-3.45 1.16 0 2.25 0.47 3.04 1.34l20.58 22.27 29.9-4.36c1.71-0.24 3.34 0.57 4.19 2.02 0.75 1.28 0.76 2.83 0.03 4.13l-14.82 26.45 13.39 27.09c0.63 1.3 0.56 2.8-0.2 4.03-0.91 1.46-2.56 2.25-4.34 1.88l-29.74-5.92-21.64 21.1c-0.78 0.76-1.8 1.18-2.88 1.18zm2.39-96.97l-4.96 29.81c-0.23 1.35-1.11 2.49-2.35 3.07l-27.54 12.69 26.82 13.93c1.21 0.64 2.03 1.83 2.19 3.19l3.53 29.87 21.56-20.97c0.98-0.95 2.36-1.36 3.72-1.09l29.73 5.92-13.52-27.04c-0.6-1.22-0.56-2.67 0.11-3.86l14.7-26.24-29.77 4.28c-1.37 0.2-2.73-0.3-3.64-1.29z"/>
		<path id="&lt;Path&gt;" class="s0" d="m1258.21 1765.84c-12.54 8.64-18.41 24.22-29.61 34.56-11.1 10.25-26.4 14.45-41.22 17.39-14.82 2.94-30.16 5.09-43.41 12.34-13.26 7.25-24.22 21.13-22.89 36.18 0.75 8.42 5.2 16.38 4.75 24.82-0.55 10.19-7.97 18.46-14.01 26.69-15.62 21.25-23.59 51.47-9.6 73.83 11.65 18.62 35.98 27.97 43.65 48.55 6.36 17.09-0.66 37.83 8.68 53.5 9.99 16.77 33.84 19.06 52.62 13.75 47.53-13.43 80.07-60.32 127.75-73.22 48.47-13.12 104.75 11.19 148.23-13.93 4.5-2.6 8.8-5.76 11.75-10.03 3.22-4.66 4.63-10.34 5.32-15.96 2.16-17.81-2.68-36.38-13.25-50.88-14.61-20.03-39.83-33.12-46.56-56.97-2.86-10.11-1.88-20.86-2.74-31.33-2.67-32.42-24.67-62.5-54.76-74.87-16.62-6.83-34.84-8.46-52.32-12.62-24.28-5.76-51.82-15.95-72.38-1.8z"/>
		<path id="&lt;Path&gt;" class="s1" d="m1487.14 1943.06l8.56-2.72-8.56-2.92c-2.56-0.67-4.52-2.73-5.07-5.32l-2.72-12.86-2.91 12.58c-0.62 2.65-2.71 4.71-5.38 5.27l-8.06 2.77 7.78 2.75c2.73 0.63 4.81 2.82 5.31 5.57l2.25 12.44 3.28-12.45c0.69-2.63 2.84-4.62 5.52-5.11z"/>
		<path id="&lt;Compound Path&gt;" class="s2" d="m1478.34 1961.47q-0.02 0-0.03 0c-0.4-0.02-0.74-0.31-0.81-0.7l-2.24-12.44c-0.44-2.42-2.27-4.34-4.67-4.9q-0.05-0.01-0.09-0.02l-7.78-2.75c-0.34-0.12-0.57-0.44-0.56-0.8 0-0.36 0.23-0.68 0.57-0.8l8.06-2.77q0.05-0.02 0.1-0.03c2.33-0.49 4.18-2.31 4.72-4.63l2.92-12.58c0.09-0.39 0.43-0.66 0.83-0.66q0 0 0 0c0.4 0.01 0.74 0.29 0.83 0.68l2.71 12.85c0.49 2.29 2.19 4.09 4.46 4.68l8.62 2.94c0.34 0.12 0.57 0.45 0.57 0.81 0 0.37-0.24 0.69-0.59 0.8l-8.56 2.72q-0.05 0.02-0.11 0.03c-2.34 0.42-4.25 2.18-4.85 4.49l-3.28 12.44c-0.1 0.38-0.44 0.64-0.82 0.64zm-7.32-19.68c3.04 0.72 5.35 3.17 5.91 6.24l1.56 8.67 2.3-8.75c0.77-2.92 3.18-5.15 6.15-5.71l6.05-1.92-6.12-2.1c-2.83-0.74-5.01-3.03-5.63-5.95l-1.92-9.11-2.06 8.85c-0.68 2.94-3.02 5.25-5.97 5.9l-5.71 1.96z"/>
		<path id="&lt;Path&gt;" class="s2" d="m1435.94 1791.38l7.51-2.38-7.51-2.57c-2.25-0.59-3.97-2.4-4.45-4.67l-2.38-11.27-2.56 11.03c-0.54 2.32-2.37 4.13-4.71 4.62l-7.07 2.43 6.82 2.41c2.39 0.55 4.22 2.47 4.66 4.89l1.97 10.9 2.87-10.91c0.61-2.31 2.5-4.06 4.85-4.48z"/>
		<path id="&lt;Path&gt;" class="s2" d="m1360.9 1924.03c3.07-4.91 0.63-11.4 1.82-17.07 2.16-10.27 14.41-14.02 23.98-18.33 8.85-3.99 16.97-10.15 21.84-18.54 4.88-8.39 6.14-19.17 1.92-27.91-5.52-11.41-18.64-17.13-25.96-27.48-7.75-10.94-8.05-25.56-14.4-37.37-7.26-13.48-22.75-22.08-38.03-21.1-13.46-8.19-31.01-4.94-45.39 1.51-11.28 5.07-22.01 12.19-28.97 22.42-11.91 17.49-11.04 41.1-21.84 59.3-2.41 4.05-5.5 7.89-9.7 10.03-7.55 3.86-16.6 1.46-24.9-0.3-6.7-1.41-13.75-2.34-20.34-0.5-6.6 1.85-12.65 7.08-13.58 13.87-1.29 9.34 5.89 17.59 1.82 26.91-3.68 8.44-13.5 9.41-20.7 13.34-10.87 5.94-10.52 17.65-5.45 28.1 2.47 5.08 7.1 9.45 12.71 10.1 8.83 1.02 17.58-8.38 26.21-4.22 7.64 3.68 6.17 13.13 1.94 18.93-3.5 4.8-8.08 9.5-8.27 15.43-0.09 2.64 0.74 5.25 2.07 7.52 3.84 6.54 11.55 10.06 19.11 10.61 7.56 0.56 15.06-1.44 22.28-3.71 7.28-2.3 14.55-4.95 20.85-9.26 15.3-10.46 24.25-30.18 41.98-35.6 10.48-3.21 21.73-0.57 32.69-0.35 14.55 0.28 29.15-3.9 41.35-11.83 1.89-1.23 3.77-2.59 4.96-4.5z"/>
		<path id="&lt;Compound Path&gt;" class="s3" d="m1363.76 1893.32c-7.04-0.63-12.24-6.88-11.6-13.91 0.63-7.03 6.88-12.24 13.91-11.6 7.03 0.64 12.24 6.88 11.6 13.91-0.64 7.03-6.88 12.24-13.91 11.6zm2.06-22.79c-5.53-0.5-10.44 3.59-10.94 9.13-0.5 5.53 3.59 10.44 9.12 10.94 5.54 0.5 10.45-3.59 10.95-9.12 0.5-5.54-3.59-10.45-9.13-10.95z"/>
		<path id="&lt;Path&gt;" class="s1" d="m1352.59 1844.6c0 0 13.51-11.51 23.56-6.84 10.05 4.68 9.42 27.22-2.15 30.56-11.57 3.34-24.18-6.62-24.18-6.62z"/>
		<path id="&lt;Compound Path&gt;" class="s2" d="m1368.99 1869.85c-10.1 0-19.31-7.18-19.7-7.49-0.24-0.19-0.36-0.49-0.31-0.8l2.77-17.1q0.05-0.31 0.29-0.51c0.39-0.33 9.68-8.15 18.81-8.15q3.09 0 5.66 1.19c5.87 2.74 7.99 10.62 7.48 17.21-0.46 5.99-3.27 13.06-9.75 14.94q-2.49 0.71-5.25 0.71zm-18.25-8.52c1.84 1.34 9.87 6.83 18.25 6.83q2.52 0 4.77-0.66c5.66-1.63 8.12-8 8.54-13.43 0.55-7.11-2.13-13.5-6.51-15.54q-2.23-1.03-4.94-1.03c-7.74 0-15.99 6.35-17.48 7.55z"/>
		<path id="&lt;Path&gt;" class="s2" d="m1369.23 1852.47q-0.32 0-0.57-0.22c-0.35-0.32-0.37-0.86-0.05-1.2 0.23-0.26 5.78-6.2 9.78-3.07 0.37 0.29 0.43 0.82 0.14 1.19-0.29 0.37-0.82 0.43-1.19 0.14-2.72-2.13-7.44 2.84-7.48 2.89q-0.27 0.27-0.63 0.27z"/>
		<path id="&lt;Path&gt;" class="s1" d="m1440.82 1978.82c-1.52 9.12-1.81 33.2-1.61 58.54 0.29 36.91 1.61 76.52 1.61 76.52l-73.52 0.17-48.86 0.1-153.96 0.35c0 0 3.8-41.65 10.82-82.56 5.99-34.93 14.34-69.32 24.66-76.78 11.2-8.09 28.63-14.78 44.49-20.22 12.91-4.42 24.77-8.03 31.45-10.9q2.31-0.99 3.73-1.87c2.19-1.79 4.08-3.17 4.78-4.07 1.95-2.53 0.47-47.58 0.34-51.26-1.66-3.68-2.95-7.53-3.89-11.48-3.29 1.19-15.42 4.95-24.2-0.49-10.23-6.35-4.75-28.22 6.19-30 4.77-0.78 9.32 1.59 12.96 4.5q0.89 1.38 1.77 2.75c0.52 0.81 1.11 1.68 2.03 1.99 1.26 0.42 2.56-0.37 3.69-1.08 18.43-11.73 48.58-21.89 56.16-43.03 2.09 7.89 14.81 19.3 19.39 24.13 2.42 2.56 10.45 10.36 12.31 16.47-0.1 1.59-0.41 5.65-0.44 5.98-2.46 29.35-5.1 53.39-32.19 59.3-0.07 4.81-0.08 12.64 0.27 18.86q0.57-0.02 0.58-0.02c0.15 0.84 0.67 1.43 1.5 1.8 9.05 4.1 55.1-16.57 75.05-8.03 21.78 9.35 28.63 47.93 24.89 70.33z"/>
		<path id="&lt;Compound Path&gt;" class="s2" d="m1164.48 2115.5c-0.24 0-0.46-0.18-0.63-0.35-0.16-0.18-0.24-0.45-0.22-0.69 0.04-0.42 3.89-42.17 10.84-82.65 7.69-44.88 16.1-70.9 24.99-77.33 11.66-8.42 30.03-15.3 44.72-20.34 4.19-1.44 8.21-2.77 12.1-4.06 7.95-2.63 14.81-4.9 19.28-6.82q2.27-0.98 3.57-1.78 0.88-0.71 1.66-1.34c1.34-1.06 2.5-1.98 2.94-2.56 1.17-1.96 0.98-26.88 0.18-50.55-1.5-3.35-2.73-6.89-3.65-10.56-2.45 0.81-7.18 2.12-12.35 2.12-4.56 0-8.49-1.01-11.7-3-5.74-3.56-6.53-11.12-5.35-17.01 1.29-6.49 5.46-13.51 11.85-14.55 4.28-0.69 8.89 0.89 13.63 4.68q0.11 0.08 0.19 0.2 0.88 1.38 1.77 2.75c0.47 0.75 0.95 1.43 1.58 1.65 0.86 0.28 2.11-0.46 2.96-1 4.7-2.99 10.08-5.83 15.77-8.85 16.17-8.56 34.5-18.27 40.05-33.75 0.12-0.35 0.46-0.59 0.83-0.56 0.37 0.02 0.69 0.27 0.79 0.63 1.66 6.27 10.68 15.24 16.07 20.61 1.23 1.22 2.3 2.29 3.12 3.15q0.39 0.41 0.94 0.99c3.2 3.3 9.84 10.17 11.56 15.82q0.04 0.15 0.03 0.3c-0.1 1.6-0.41 5.69-0.44 6-2.3 27.49-4.47 53.47-32.19 59.91-0.05 4.21-0.07 11.37 0.23 17.34 0.31 0.09 0.55 0.34 0.61 0.67 0.06 0.33 0.23 0.82 1.02 1.18q1.04 0.47 3.04 0.47c4.72 0 12.53-1.94 21.57-4.18 12.25-3.04 26.14-6.49 37.61-6.49 5.23 0 9.42 0.71 12.81 2.16 12.77 5.48 19.28 19.78 22.5 30.81 3.78 12.99 4.89 28.48 2.89 40.44-1.29 7.8-1.83 27.45-1.59 58.39 0.29 36.48 1.59 76.1 1.6 76.5q0.01 0.36-0.23 0.62c-0.16 0.16-0.38 0.33-0.61 0.33l-276.34 0.7q0 0 0 0zm116.38-260.99q0.21 0 0.4 0.11 0.33 0.18 0.43 0.55c0.93 3.94 2.22 7.75 3.84 11.32q0.07 0.15 0.07 0.32c0.5 14.73 1.45 49.25-0.52 51.81-0.57 0.74-1.75 1.67-3.23 2.85q-0.8 0.63-1.69 1.35-0.04 0.04-0.08 0.06c-0.95 0.6-2.21 1.24-3.85 1.94-4.54 1.95-11.43 4.23-19.41 6.87-3.89 1.29-7.91 2.61-12.09 4.05-14.58 5-32.79 11.81-44.28 20.11-8.39 6.07-16.8 32.43-24.31 76.23-6.36 37.07-10.12 75.19-10.73 81.57l274.53-0.62c-0.19-6.04-1.31-42.17-1.58-75.67-0.24-31.04 0.3-50.78 1.62-58.67 3.84-22.98-3.59-60.49-24.38-69.42-3.14-1.34-7.22-2.02-12.15-2.02-11.26 0-25.04 3.42-37.21 6.44-9.14 2.27-17.05 4.23-21.97 4.23-1.59 0-2.81-0.21-3.74-0.62q-1.28-0.59-1.77-1.72c-0.44-0.02-0.79-0.36-0.81-0.8-0.37-6.49-0.33-14.64-0.27-18.91 0-0.4 0.28-0.74 0.67-0.82 27.12-5.91 29.26-31.47 31.52-58.54 0.03-0.3 0.32-4.12 0.43-5.81-1.67-5.23-8.04-11.82-11.11-14.99q-0.56-0.59-0.96-1c-0.8-0.85-1.86-1.9-3.08-3.12-5.25-5.23-12.91-12.85-15.73-19.21-6.58 14.87-24.3 24.26-40.02 32.58-5.66 3-11.01 5.83-15.65 8.79-1.1 0.7-2.19 1.33-3.4 1.33q-0.53 0-1.01-0.16c-1.25-0.43-1.99-1.58-2.47-2.34q-0.85-1.31-1.69-2.63c-4.32-3.42-8.43-4.86-12.19-4.24-4.77 0.77-9.07 6.2-10.47 13.2-1.06 5.33-0.41 12.14 4.59 15.24 2.93 1.82 6.56 2.74 10.8 2.74 5.63 0 10.73-1.63 12.66-2.32q0.14-0.06 0.29-0.06z"/>
		<path id="&lt;Path&gt;" class="s4" d="m1440.82 1978.9c-1.52 9.11-1.81 33.6-1.61 58.6h-72.71v77h-150.41l2.08-39.32c-11.6-12.5-7.43-38.34-7.43-38.34l-35.44-4.86c5.99-34.93 14.34-69.34 24.66-76.8 11.2-8.09 28.63-14.79 44.49-20.23 12.91-4.42 24.77-8.04 31.45-10.9 3.27 3.91 9.3 7.39 19.67 9.58 29.22 6.17 41.29-9.49 45.31-17.11 9.05 4.1 55.1-16.53 75.05-7.99 21.78 9.34 28.63 47.96 24.89 70.37z"/>
		<path id="&lt;Compound Path&gt;" class="s2" d="m1367.5 2115.5h-152.3l2.11-39.94c-10.41-11.58-8.16-33.3-7.54-37.96l-35.45-4.88 0.15-0.87c7.7-44.9 16.11-70.93 24.99-77.35 11.69-8.45 30.04-15.32 44.72-20.35 4.17-1.43 8.17-2.76 12.04-4.04 7.97-2.64 14.86-4.92 19.34-6.84l0.58-0.25 0.41 0.48c3.54 4.23 9.99 7.35 19.19 9.29 4.37 0.93 8.57 1.39 12.47 1.39 19.47 0 28.36-11.31 31.92-18.05l0.38-0.71 0.73 0.33q1.03 0.47 3.03 0.47c4.71 0 12.52-1.94 21.57-4.19 12.26-3.04 26.15-6.49 37.62-6.49 5.23 0 9.41 0.71 12.8 2.16 12.77 5.47 19.28 19.77 22.5 30.8 3.78 12.98 4.89 28.47 2.89 40.43-1.62 9.77-1.76 37.3-1.59 58.54v1.03h-72.56zm-150.51-2h149.51v-77h71.85c-0.16-21 0.01-48.07 1.63-57.82 3.83-22.96-3.59-60.49-24.38-69.41-3.14-1.34-7.22-2.03-12.14-2.03-11.26 0-25.05 3.42-37.22 6.45-9.15 2.27-17.05 4.23-21.97 4.23q-1.79 0-2.99-0.35c-3.96 7.13-13.32 18.31-33.07 18.31-4.02 0-8.34-0.48-12.82-1.42-9.24-1.95-15.87-5.11-19.73-9.39-4.55 1.9-11.22 4.11-18.9 6.65-3.87 1.28-7.87 2.6-12.03 4.03-14.57 5-32.76 11.81-44.28 20.12-8.33 6.03-16.68 32.09-24.16 75.39l35.42 4.86-0.14 0.86c-0.04 0.25-3.96 25.59 7.23 37.64l0.24 0.17z"/>
		<path id="&lt;Compound Path&gt;" class="s3" d="m1266.85 1881.11c-7.03-0.64-12.24-6.89-11.6-13.92 0.64-7.04 6.88-12.24 13.91-11.6 7.04 0.63 12.25 6.88 11.61 13.92-0.64 7.03-6.88 12.23-13.92 11.6zm2.07-22.8c-5.54-0.5-10.45 3.59-10.95 9.13-0.5 5.53 3.59 10.44 9.13 10.94 5.53 0.51 10.45-3.59 10.95-9.12 0.5-5.54-3.59-10.45-9.13-10.95z"/>
		<path id="&lt;Path&gt;" class="s2" d="m1366.6 2036.61c-0.46 0-0.84-0.37-0.84-0.84v-39.67c0-0.47 0.38-0.84 0.84-0.84 0.47 0 0.84 0.37 0.84 0.84v39.67c0 0.47-0.37 0.84-0.84 0.84z"/>
		<path id="&lt;Path&gt;" class="s2" d="m1366.37 2007.44q-0.19 0-0.38-0.09c-2.03-1.02-4.57-6.55-5.06-7.65-0.18-0.42 0.01-0.92 0.43-1.11 0.42-0.18 0.92 0.01 1.11 0.43 1.11 2.5 3.17 6.28 4.27 6.83 0.42 0.2 0.59 0.71 0.38 1.12-0.15 0.3-0.44 0.47-0.75 0.47z"/>
		<path id="&lt;Path&gt;" class="s2" d="m1339.77 1894.78c-5.21 1.04-21.14 1.19-34.83-8.78 0 0 16.37 26.64 35.57 24.41 19.2-2.23-0.74-15.63-0.74-15.63z"/>
		<path id="&lt;Path&gt;" class="s1" d="m1326.95 1871.83c1.94 1.79 4.5 2.85 7.83 2.54 2.94-0.28 5.62-1.64 7.64-3.46 1.94-1.74 3.51-3.99 4.41-6.26 0.15-0.37 1.37-4.74 1.63-4.73-8.61-0.51-17.23-1.17-25.72-2.54-0.44-0.07-0.96-0.12-1.26 0.15-0.25 0.23-0.23 0.58-0.2 0.89 0.5 4.04 1.99 10.02 5.67 13.41z"/>
		<path id="&lt;Compound Path&gt;" class="s2" d="m1333.64 1875.27c-2.79 0-5.23-0.95-7.26-2.81-4.31-3.96-5.59-11.06-5.94-13.94-0.03-0.29-0.13-1.07 0.47-1.61q0.47-0.44 1.26-0.44 0.36 0.01 0.71 0.07c8.74 1.41 17.48 2.05 25.61 2.53 0.46 0.01 0.84 0.39 0.84 0.85q-0.01 0.38-0.28 0.63c-0.25 0.55-0.84 2.48-1.09 3.34-0.17 0.55-0.3 0.97-0.34 1.08-0.96 2.42-2.61 4.75-4.63 6.57-2.32 2.09-5.21 3.4-8.13 3.67q-0.62 0.06-1.22 0.06zm-11.53-17.1q0.01 0.06 0.02 0.15c0.33 2.68 1.51 9.31 5.4 12.89q2.57 2.36 6.11 2.36 0.52 0 1.06-0.05c2.56-0.24 5.1-1.39 7.16-3.24 1.83-1.65 3.31-3.76 4.18-5.94 0.04-0.11 0.15-0.47 0.29-0.94 0.36-1.2 0.63-2.07 0.85-2.71-7.83-0.47-16.19-1.12-24.57-2.47-0.16-0.03-0.37-0.05-0.5-0.05z"/>
		<path id="&lt;Path&gt;" class="s1" d="m1339.62 1830.04c-0.3 2.98 1.93 12.06 3.12 15.18 1.19 3.13-4.61 5.21-4.61 5.21"/>
		<path id="&lt;Path&gt;" class="s2" d="m1338.13 1851.28c-0.35 0-0.68-0.22-0.8-0.56-0.16-0.44 0.07-0.93 0.51-1.09 0.91-0.32 3.41-1.49 4.06-2.92q0.28-0.59 0.05-1.19c-1.12-2.93-3.51-12.25-3.18-15.56 0.05-0.47 0.46-0.8 0.93-0.76 0.47 0.04 0.81 0.46 0.76 0.93-0.28 2.8 1.92 11.75 3.08 14.79 0.31 0.83 0.28 1.69-0.1 2.5-1.07 2.33-4.62 3.67-5.02 3.81q-0.15 0.05-0.29 0.05z"/>
		<path id="&lt;Path&gt;" class="s2" d="m1276.66 1846.22c-0.35 0-0.68-0.22-0.8-0.58-1.79-5.38-4.31-8.52-7.47-9.34-4.64-1.21-9.26 2.96-9.31 3-0.35 0.32-0.88 0.29-1.2-0.05-0.32-0.35-0.29-0.89 0.05-1.2 0.22-0.2 5.37-4.83 10.88-3.4 3.76 0.98 6.67 4.49 8.66 10.45 0.15 0.45-0.09 0.93-0.54 1.08q-0.13 0.04-0.27 0.04z"/>
		<path id="&lt;Path&gt;" class="s2" d="m1268.03 1843.54q-0.24 0-0.45-0.13c-0.4-0.25-0.52-0.77-0.27-1.17l3.28-5.21c0.25-0.39 0.77-0.51 1.17-0.27 0.39 0.25 0.51 0.78 0.26 1.17l-3.27 5.21c-0.16 0.26-0.44 0.4-0.72 0.4z"/>
		<path id="&lt;Path&gt;" class="s1" d="m1348.99 1837.04c0 0 6.25-7 12.06 0.74"/>
		<path id="&lt;Path&gt;" class="s2" d="m1361.05 1838.63c-0.26 0-0.51-0.12-0.68-0.34q-2.38-3.17-5.16-3.3c-3.08-0.14-5.56 2.59-5.59 2.61-0.31 0.35-0.85 0.38-1.19 0.07-0.35-0.31-0.38-0.85-0.07-1.2 0.12-0.13 3.04-3.34 6.91-3.18 2.38 0.11 4.55 1.45 6.46 3.98 0.28 0.38 0.2 0.91-0.17 1.19q-0.24 0.17-0.51 0.17z"/>
		<path id="&lt;Path&gt;" class="s1" d="m1361.05 1837.26l2.83-1.41"/>
		<path id="&lt;Path&gt;" class="s2" d="m1361.05 1838.11c-0.31 0-0.61-0.17-0.76-0.47-0.21-0.42-0.04-0.93 0.38-1.14l2.83-1.41c0.42-0.21 0.93-0.04 1.13 0.38 0.21 0.42 0.04 0.93-0.37 1.14l-2.83 1.41q-0.19 0.09-0.38 0.09z"/>
		<path id="&lt;Path&gt;" class="s1" d="m1358.67 1835.18l2.38-1.71"/>
		<path id="&lt;Path&gt;" class="s2" d="m1358.67 1836.03c-0.27 0-0.53-0.13-0.69-0.36-0.28-0.38-0.19-0.91 0.19-1.18l2.38-1.71c0.38-0.28 0.91-0.19 1.19 0.19 0.27 0.38 0.18 0.91-0.2 1.18l-2.38 1.72q-0.23 0.16-0.49 0.16z"/>
		<path id="&lt;Path&gt;" class="s1" d="m1322.8 1835.25c0 0-6.25-6.99-12.06 0.75"/>
		<path id="&lt;Path&gt;" class="s2" d="m1310.74 1836.84q-0.27 0-0.51-0.17c-0.37-0.28-0.45-0.81-0.16-1.18 1.9-2.54 4.07-3.88 6.45-3.98 3.85-0.17 6.79 3.04 6.91 3.18 0.31 0.34 0.28 0.88-0.06 1.19-0.35 0.32-0.89 0.29-1.2-0.06-0.03-0.03-2.51-2.76-5.58-2.61q-2.78 0.13-5.17 3.29c-0.16 0.23-0.42 0.34-0.68 0.34z"/>
		<path id="&lt;Path&gt;" class="s1" d="m1310.74 1835.47l-2.82-1.41"/>
		<path id="&lt;Path&gt;" class="s2" d="m1310.74 1836.32q-0.19 0-0.38-0.09l-2.82-1.41c-0.42-0.21-0.59-0.72-0.38-1.14 0.21-0.42 0.72-0.59 1.14-0.38l2.82 1.41c0.42 0.21 0.59 0.72 0.38 1.14-0.15 0.3-0.44 0.47-0.76 0.47z"/>
		<path id="&lt;Path&gt;" class="s1" d="m1313.13 1833.39l-2.39-1.71"/>
		<path id="&lt;Path&gt;" class="s2" d="m1313.12 1834.24q-0.26 0-0.49-0.16l-2.38-1.71c-0.38-0.28-0.47-0.8-0.19-1.19 0.27-0.38 0.8-0.46 1.18-0.19l2.38 1.71c0.38 0.28 0.47 0.81 0.19 1.19-0.16 0.23-0.42 0.35-0.69 0.35z"/>
		<path id="&lt;Path&gt;" class="s2" d="m1310.89 1826.7c-1.29-0.45-2.04-2.06-1.54-3.34 3.86-2.04 8.39-2.79 12.7-2.11 1.13 0.18 2.29 0.48 3.12 1.25 0.83 0.78 1.18 2.17 0.5 3.08-0.74 0.99-2.2 0.97-3.43 0.89q-4.47-0.26-8.92 0.28c-0.81 0.1-1.65 0.22-2.43-0.05z"/>
		<path id="&lt;Path&gt;" class="s2" d="m1360.94 1828.49c1.3-0.45 2.04-2.07 1.55-3.34-3.86-2.04-8.39-2.8-12.71-2.11-1.12 0.17-2.28 0.47-3.11 1.25-0.83 0.78-1.18 2.16-0.5 3.07 0.74 1 2.2 0.97 3.43 0.9q4.47-0.27 8.92 0.28c0.81 0.1 1.65 0.21 2.42-0.05z"/>
		<path id="&lt;Path&gt;" class="s1" d="m1278.17 1790.15c-2.15-2.18-2.53-5.51-2.63-8.56-0.04-1.02-0.05-2.07 0.28-3.04 0.33-0.95 0.96-1.76 1.63-2.51 4.64-5.18 11.44-8.35 18.38-8.58 1.97-0.07 4.11 0.16 5.57 1.49 0.93 0.85 1.46 2.04 1.96 3.2 0.59 1.37 1.2 2.83 1 4.31-0.28 2-1.98 3.57-2.32 5.56-0.59 3.46 2.98 6.11 6.22 7.48 3.23 1.36 7.07 2.81 8.04 6.18 0.75 2.61-0.68 5.46-2.78 7.18-2.11 1.72-4.79 2.54-7.39 3.33-2.53 0.77-5.73 1.37-7.45-0.64-1.68-1.96-0.72-5.02-1.56-7.46-1.15-3.4-5.29-4.63-8.86-4.96-3.57-0.34-7.57-0.43-10.09-2.98z"/>
		<path id="&lt;Path&gt;" class="s2" d="m1292.17 1855.04q-0.14 0-0.28-0.01c-1.13-0.08-2.22-0.63-2.91-1.47-1.16-1.4-1.39-3.56-0.6-5.48 0.33-0.79 0.8-1.51 1.25-2.22 0.76-1.17 1.48-2.28 1.34-3.44-0.17-1.51-1.76-2.6-3.11-3.38l-0.13-0.07c-1.67-0.96-3.56-2.05-4.25-4.06-0.73-2.09 0.32-4.55 2.32-5.49 0.43-0.2 0.93-0.02 1.13 0.41 0.2 0.42 0.02 0.93-0.41 1.13-1.2 0.56-1.87 2.15-1.44 3.4 0.48 1.4 2.01 2.28 3.49 3.13l0.13 0.08c1.71 0.98 3.69 2.39 3.96 4.65 0.21 1.77-0.71 3.19-1.6 4.56-0.43 0.67-0.84 1.3-1.11 1.95-0.55 1.33-0.41 2.84 0.34 3.76 0.39 0.47 1.05 0.8 1.71 0.85 0.55 0.03 1.04-0.12 1.38-0.43 0.34-0.32 0.88-0.3 1.2 0.04 0.32 0.35 0.3 0.89-0.05 1.2-0.62 0.58-1.45 0.89-2.36 0.89z"/>
		<path id="&lt;Path&gt;" class="s2" d="m1130.71 1946.65c-1.61 0-3.02-0.63-3.99-1.81-0.3-0.36-0.25-0.9 0.11-1.2 0.37-0.29 0.9-0.24 1.2 0.12 1.1 1.35 2.73 1.27 3.61 1.1 2.08-0.4 3.95-1.96 4.53-3.81 0.96-2.99 0.01-6.61-2.8-10.78q-0.78-1.13-1.6-2.25c-1.89-2.62-3.85-5.34-4.69-8.56-1.94-7.42 2.75-14.91 7.79-19.46 2.57-2.32 5.46-4.31 8.25-6.23 2.92-2.01 5.94-4.09 8.54-6.53 4.6-4.29 8.77-11.25 6.65-17.91-0.5-1.58-1.32-3.02-2.19-4.55-0.75-1.32-1.52-2.69-2.08-4.16-3.05-8.05 1.38-16.91 7.33-21.5 5.43-4.18 12.98-6.41 22.44-6.61 9.14-0.19 18.15 1.26 26.77 4.34q1.05 0.38 2.11 0.78c2.54 0.95 5.17 1.93 7.84 2.32 12.33 1.83 22.98-9.23 24.81-20.29 0.14-0.84 0.25-1.73 0.36-2.58 0.26-2.17 0.53-4.41 1.39-6.51 0.17-0.43 0.67-0.64 1.1-0.46 0.44 0.17 0.64 0.67 0.47 1.1-0.77 1.89-1.02 3.92-1.28 6.08q-0.15 1.31-0.36 2.65c-1.97 11.84-13.44 23.66-26.74 21.69-2.85-0.42-5.56-1.43-8.19-2.41q-1.04-0.4-2.08-0.77c-8.42-3.01-17.22-4.43-26.16-4.25-9.09 0.2-16.31 2.31-21.44 6.27-5.45 4.2-9.54 12.27-6.78 19.55 0.51 1.35 1.22 2.6 1.97 3.92 0.87 1.54 1.77 3.13 2.33 4.88 2.35 7.41-2.13 15.02-7.11 19.67-2.7 2.51-5.77 4.63-8.74 6.68-2.74 1.89-5.58 3.85-8.08 6.1-4.66 4.21-9.03 11.08-7.28 17.76 0.76 2.92 2.54 5.38 4.43 8q0.83 1.14 1.62 2.29c3.13 4.62 4.14 8.74 3.02 12.25-0.78 2.45-3.12 4.44-5.83 4.96q-0.64 0.12-1.25 0.12z"/>
		<path id="&lt;Path&gt;" class="s2" d="m1327.85 2066.34c-15.51 0-26.67-4.58-33.92-9.12-10.74-6.73-15.36-14.64-15.55-14.98-0.23-0.4-0.09-0.92 0.32-1.15 0.4-0.24 0.92-0.1 1.15 0.31 0.05 0.08 4.65 7.93 15.06 14.43 9.61 6 26.3 12.05 51.23 6.82 0.46-0.1 0.91 0.19 1 0.65 0.1 0.46-0.19 0.91-0.65 1.01-6.8 1.43-13.01 2.03-18.64 2.03z"/>
		<path id="&lt;Path&gt;" class="s2" d="m1210.74 2037.6q-0.12 0-0.23-0.03c-0.45-0.13-0.72-0.59-0.59-1.05 3.82-13.81 10.64-39.6 10.71-39.86 0.12-0.45 0.58-0.72 1.03-0.6 0.46 0.12 0.73 0.58 0.61 1.03-0.07 0.26-6.89 26.06-10.72 39.89-0.1 0.37-0.44 0.62-0.81 0.62z"/>
		<path id="&lt;Path&gt;" class="s2" d="m1307.42 1942.48c-14.96 0-25.47-5.19-25.63-5.27-0.42-0.21-0.59-0.72-0.38-1.14 0.21-0.42 0.73-0.59 1.14-0.37 0.25 0.12 24.68 12.14 51.93-1.2 0.42-0.21 0.93-0.03 1.14 0.39 0.2 0.42 0.03 0.93-0.39 1.14-9.96 4.87-19.57 6.45-27.81 6.45z"/>
		<path id="&lt;Path&gt;" class="s1" d="m1198.19 2077.48l0.79-33.24 0.62-27.97 0.11-5.8c0 0-1.19-12.27-8.08-18.96-6.7-6.82-19.96-13.4-22.63-16.74-2.68-3.34-9.99-18.87-13.74-21.25-3.75-2.39-10.91-3.31-12.22 6.33-1.31 9.65 6.18 25.9 6.18 25.9 0 0-21.81-11.24-24.82-14.66-3.04-3.25-6.89-23.49-15.36-24.7-8.3-1.18-10.85 9.38-9.44 13.81 0.09 0.37-0.55 0.91-0.55 0.91 0 0-3.03 2.06-4.97 9.16-1.94 7.11 1.05 22.01 1.05 22.01 0 0 0.7 10.61 1.6 15.78 0 0 0.04 27.26 13.15 36.04 6.39 4.35 15.62 8.31 24.21 11.27l-0.45 59.97c21.15 0.06 43.31-0.74 64.49-0.5z"/>
		<path id="&lt;Compound Path&gt;" class="s2" d="m1135.84 2116.2l-2.2-0.01q-0.35 0-0.6-0.25-0.25-0.25-0.25-0.6l0.44-59.37c-9.81-3.42-18.25-7.38-23.83-11.17-13.11-8.78-13.51-34.76-13.52-36.66-0.86-5.04-1.53-14.83-1.59-15.75-0.23-1.16-2.96-15.27-1.03-22.34 1.88-6.9 4.81-9.28 5.26-9.6q0.11-0.11 0.2-0.22c-0.82-2.86-0.22-7.8 2.27-11.2 2-2.73 4.87-3.95 8.17-3.48 6.24 0.89 9.99 10.79 12.72 18.01 1.17 3.1 2.28 6.03 3.14 6.95 2.15 2.45 15.43 9.69 22.47 13.38-2.01-4.82-6.34-16.41-5.29-24.15 1.02-7.53 5.38-8.66 7.88-8.66 1.87 0 3.92 0.63 5.64 1.72 2.56 1.63 6.31 8.33 9.62 14.24 1.74 3.1 3.38 6.03 4.32 7.2 1.11 1.38 4.38 3.5 8.17 5.96 4.99 3.22 10.63 6.87 14.4 10.72 7.03 6.81 8.27 18.95 8.32 19.46q0.01 0.05 0.01 0.1l-0.11 5.81-0.63 27.97-0.78 33.24-0.06 37.35q-0.01 0.35-0.26 0.6c-0.16 0.16-0.37 0.27-0.6 0.24q-4.22-0.05-8.49-0.04c-8.92 0-18.11 0.14-27 0.27-8.83 0.14-17.97 0.28-26.79 0.28zm-1.34-1.7h1.34c8.81 0 17.94-0.14 26.77-0.28 8.89-0.13 18.09-0.27 27.02-0.27q3.84 0 7.65 0.04l0.06-36.51 0.79-33.26 0.73-33.72c-0.09-0.81-1.44-12.19-7.82-18.38-3.66-3.72-9.46-7.48-14.13-10.5-4.08-2.64-7.3-4.72-8.58-6.32-1.02-1.28-2.62-4.13-4.47-7.43-2.89-5.17-6.86-12.24-9.05-13.64-1.46-0.92-3.18-1.45-4.73-1.45-3.42 0-5.56 2.48-6.2 7.19-1.26 9.29 6.03 25.27 6.11 25.43 0.15 0.32 0.08 0.71-0.19 0.96-0.26 0.25-0.65 0.31-0.97 0.15-0.9-0.47-21.99-11.36-25.06-14.86-1.08-1.15-2.14-3.95-3.48-7.49-2.58-6.83-6.12-16.18-11.37-16.93-2.69-0.39-4.92 0.56-6.56 2.8-2.12 2.91-2.73 7.48-1.95 9.92 0.21 0.84-0.5 1.54-0.81 1.8q-0.03 0.03-0.07 0.06c-0.02 0.02-2.82 2.05-4.63 8.69-1.87 6.83 1.04 21.46 1.06 21.61q0.02 0.06 0.02 0.11c0.01 0.11 0.71 10.63 1.58 15.7q0.02 0.07 0.02 0.14c0 0.27 0.19 26.91 12.77 35.33 5.57 3.79 14.09 7.76 24.01 11.17 0.35 0.12 0.58 0.45 0.58 0.81z"/>
		<path id="&lt;Path&gt;" class="s2" d="m1096.9 2010.33l0.04-0.16c2.45-7.85 6.5-11.4 11.52-10.1 4.7 1.23 7.47 8.71 7.64 15.6 0.24 6.57-0.22 7.84-0.26 8-0.03 0.16-0.23 0.29-0.36 0.09-0.16-0.04-0.29-0.24-0.09-0.36 0 0 0.46-1.27 0.15-7.51-0.28-6.4-2.89-13.85-7.26-15-4.69-1.23-8.39 2.23-10.72 9.59-0.04 0.16-0.24 0.29-0.4 0.25-0.29-0.24-0.26-0.4-0.26-0.4z"/>
		<path id="&lt;Path&gt;" class="s5" d="m1115.64 2024.29q-0.24-0.01-0.41-0.17c-0.19-0.1-0.32-0.27-0.36-0.47q-0.04-0.27 0.14-0.48c0.09-0.38 0.36-2.06 0.1-7.26-0.27-6.27-2.79-13.52-6.94-14.61-4.36-1.14-7.92 2.11-10.21 9.31-0.07 0.3-0.39 0.55-0.74 0.55-0.04 0-0.13-0.01-0.16-0.02q-0.09-0.02-0.17-0.08c-0.46-0.37-0.42-0.72-0.4-0.82l0.04-0.17c2.18-7 5.62-10.68 9.95-10.68q1.02 0 2.09 0.27c5 1.31 7.79 9.04 7.95 16 0.15 4.04 0.06 6.91-0.26 8.08-0.07 0.33-0.33 0.55-0.62 0.55z"/>
		<path id="&lt;Path&gt;" class="s2" d="m1115.54 2019.66c-0.12-0.2 0.08-0.32 0.28-0.45 1.69-0.65 12.45 3.31 13.72 3.77 0.16 0.03 0.29 0.23 0.25 0.4-0.03 0.16-0.23 0.29-0.4 0.25-4.58-1.72-12.27-4.13-13.36-3.86q-0.3 0.19-0.49-0.11z"/>
		<path id="&lt;Path&gt;" class="s5" d="m1129.45 2024.06c-0.03 0-0.12-0.01-0.15-0.01-4.72-1.77-11.55-3.87-13.04-3.87q-0.05-0.01-0.08 0-0.18 0.09-0.36 0.09c-0.15 0-0.42-0.05-0.63-0.38q-0.35-0.56 0.4-1.04c0.25-0.1 0.47-0.14 0.76-0.14 2.2 0 8.34 2.06 13.1 3.78l0.23 0.09c0.14 0.03 0.31 0.15 0.42 0.32q0.17 0.28 0.11 0.57c-0.08 0.34-0.4 0.59-0.76 0.59z"/>
		<path id="&lt;Path&gt;" class="s2" d="m1095.33 1992.15c-0.05-0.52 1.33-10.5 5.88-13.93 1.23-0.92 2.68-1.28 4.19-1.12 8.14 1.15 10.57 9.41 10.29 12.94-0.28 3.54 2.58 12.92 3.1 14.41 2.38 0.88 9.24 3.11 9.75 3.91q0.19 0.3-0.11 0.49-0.3 0.19-0.49-0.11c-0.42-0.44-5.33-2.23-9.62-3.71-0.16-0.04-0.16-0.04-0.29-0.24-0.09-0.36-3.39-10.87-3.19-14.77 0.24-3.37-1.97-11.07-9.75-12.3-1.34-0.13-2.6 0.1-3.63 0.9-4.34 3.31-5.53 13.15-5.57 13.32-0.03 0.16-0.23 0.29-0.4 0.25-0.03 0.16-0.03 0.16-0.16-0.04z"/>
		<path id="&lt;Compound Path&gt;" class="s5" d="m1128.21 2009.34c-0.13 0-0.39-0.04-0.59-0.32-0.42-0.31-3.47-1.53-9.44-3.59-0.26-0.05-0.35-0.15-0.51-0.41q-0.04-0.06-0.05-0.12-0.02-0.07-0.13-0.42c-2.13-7.14-3.19-12.15-3.08-14.48 0.23-3.22-1.81-10.66-9.39-11.86q-0.29-0.03-0.61-0.03-1.59 0-2.69 0.84c-3.68 2.81-5.06 10.61-5.39 12.93q-0.02 0.13-0.02 0.15c-0.06 0.26-0.28 0.47-0.54 0.56q-0.12 0.14-0.32 0.14c-0.25 0-0.37-0.18-0.48-0.35q-0.05-0.09-0.06-0.19c-0.06-0.54 1.32-10.74 6.04-14.31 1.29-0.96 2.86-1.38 4.49-1.2 8.21 1.15 11 9.29 10.67 13.4-0.25 3.19 2.23 11.73 3.02 14.04 0.49 0.18 1.13 0.4 1.85 0.66 5.04 1.76 7.51 2.71 7.92 3.35 0.25 0.4 0.16 0.82-0.24 1.07q-0.22 0.14-0.45 0.14zm-0.04-0.77l-0.16 0.26 0.3-0.3q-0.02-0.03-0.09-0.04l-0.03 0.05q0 0.04 0 0.07-0.01-0.02-0.02-0.04zm-12.97-20.25q0.12 0.98 0.06 1.73 0 0.06-0.01 0.13 0.01-0.09 0.01-0.17 0.06-0.69-0.06-1.69z"/>
		<path id="&lt;Path&gt;" class="s2" d="m1100.43 1961.08c0 0 0.04-0.17 0 0-0.13-0.2 0.07-0.33 0.27-0.46 2.22-0.7 5.35-0.17 8.23 1.51 3.46 2.15 5.78 5.58 6.31 9.3 1.15 7.11 2.77 10.56 3.11 11.33l10.95 4.68c0.16 0.04 0.29 0.24 0.25 0.4-0.04 0.17-0.24 0.29-0.4 0.26l-11.11-4.73c0 0-0.16-0.03-0.12-0.2-0.13-0.2-1.95-3.52-3.24-11.52-0.54-3.72-2.72-6.96-6.06-8.9-2.55-1.61-5.52-2.1-7.54-1.53-0.36 0.09-0.49-0.11-0.65-0.14z"/>
		<path id="&lt;Path&gt;" class="s5" d="m1129.21 1988.53c-0.03 0-0.12-0.01-0.15-0.02l-11.18-4.75c0.01 0.01-0.18-0.04-0.3-0.24q-0.08-0.11-0.09-0.24c-0.35-0.65-2.02-4.02-3.23-11.56-0.52-3.6-2.65-6.74-5.85-8.61-1.72-1.08-3.73-1.69-5.53-1.69q-0.93 0-1.68 0.21c-0.43 0.11-0.69-0.04-0.83-0.12q-0.14-0.03-0.23-0.13-0.04-0.03-0.07-0.08c-0.12-0.19-0.11-0.36-0.09-0.48 0.07-0.28 0.31-0.44 0.5-0.56q0.04-0.02 0.1-0.04c2.34-0.74 5.67-0.14 8.57 1.54 3.58 2.23 5.95 5.73 6.51 9.61 0.5 3.09 1.43 7.52 3.01 11.06l10.79 4.62c0.12 0.02 0.29 0.15 0.4 0.32q0.17 0.27 0.1 0.57c-0.07 0.33-0.4 0.59-0.75 0.59z"/>
		<path id="&lt;Path&gt;" class="s2" d="m1140.45 2027.83c-0.13-0.2 0.11-0.49 0.27-0.45 8.8-1.8 17.71 2.78 23.49 6.82 6.39 4.35 10.61 9.24 10.77 9.27q0.19 0.3-0.11 0.49-0.3 0.19-0.49-0.11c-0.12-0.2-17.13-19.1-33.61-15.95-0.03 0.17-0.2 0.13-0.32-0.07z"/>
		<path id="&lt;Path&gt;" class="s5" d="m1174.66 2044.46c-0.15 0-0.43-0.05-0.64-0.38-0.11-0.13-14.41-16.11-29.44-16.11q-1.82 0-3.55 0.32c-0.25 0.23-0.7 0.15-0.94-0.23-0.14-0.22-0.14-0.48-0.01-0.72 0.13-0.24 0.37-0.39 0.61-0.39q1.99-0.4 4.08-0.4c7.64 0 14.92 3.97 19.68 7.3 5.18 3.52 8.9 7.35 10.29 8.8q0.36 0.37 0.47 0.46 0.08 0.06 0.13 0.14c0.16 0.24 0.15 0.46 0.12 0.59-0.03 0.13-0.12 0.33-0.36 0.48q-0.22 0.14-0.44 0.14z"/>
		<path id="&lt;Path&gt;" class="s1" d="m1231.8 1823.83l-21.17-5.75c-3.1 2.7-6.77 4.88-10.95 6.32-17.85 6.15-38.02-3.3-45.05-21.12-7.04-17.82 1.73-37.25 19.58-43.41 17.85-6.16 38.02 3.3 45.05 21.12 2.9 7.35 3.11 14.97 1.11 21.83z"/>
		<path id="&lt;Compound Path&gt;" class="s6" d="m1188.43 1827.13c-15.13 0-29.03-9.46-34.59-23.54-3.53-8.92-3.32-18.5 0.58-26.97 3.82-8.3 10.75-14.53 19.51-17.55 3.71-1.28 7.59-1.93 11.53-1.93 15.13 0 29.03 9.46 34.59 23.53 2.84 7.2 3.26 14.81 1.23 22.05l11.2 20.58c0.12 0.14 0.19 0.74 0.19 0.94 0 0.47-0.38 1.26-0.85 1.26q-0.01 0-0.02 0c-0.07 0-0.15-0.42-0.22-0.44l-20.74-5.84c-3.2 2.72-6.86 4.69-10.88 6.08-3.71 1.28-7.59 1.83-11.53 1.83zm-2.97-68.29c-3.75 0-7.45 0.61-10.98 1.83-8.32 2.87-14.9 8.79-18.52 16.66-3.7 8.04-3.89 17.18-0.54 25.67 5.3 13.44 18.57 22.5 33.01 22.5q0 0 0 0c3.75 0 7.45-0.65 10.98-1.87 3.96-1.37 7.55-3.46 10.66-6.17 0.21-0.19 0.5-0.27 0.78-0.19l19.26 5.23-10.49-19.27q-0.16-0.31-0.07-0.65c2.04-6.97 1.67-14.33-1.08-21.28-5.3-13.44-18.57-22.46-33.01-22.46z"/>
		<path id="&lt;Path&gt;" class="s2" d="m1196.73 1792.43c0-2.85 2.47-5.16 5.51-5.16 3.05 0 5.52 2.31 5.52 5.16 0 2.85-2.47 5.16-5.52 5.16-3.04 0-5.51-2.31-5.51-5.16z"/>
		<path id="&lt;Path&gt;" class="s2" d="m1180.17 1792.43c0-2.85 2.47-5.16 5.52-5.16 3.05 0 5.52 2.31 5.52 5.16 0 2.85-2.47 5.16-5.52 5.16-3.05 0-5.52-2.31-5.52-5.16z"/>
		<path id="&lt;Path&gt;" class="s2" d="m1163.62 1792.43c0-2.85 2.47-5.16 5.52-5.16 3.04 0 5.51 2.31 5.51 5.16 0 2.85-2.47 5.16-5.51 5.16-3.05 0-5.52-2.31-5.52-5.16z"/>
		<path id="&lt;Path&gt;" class="s1" d="m1500.28 2011.65c-1.08-14.94-63.96-33.55-63.96-33.55 0 0-6.84 6.46-13.69 14.99-3.14-11.27-6.59-21.51-9.7-26.11-3.15-4.63-9.45-5.84-14.09-2.7-4.64 3.14-5.85 9.44-2.71 14.08 2.71 4 7.83 22.26 12.36 41.59-1.83 9.31 1.75 35.33 7.38 41.83l0.87 53.27c26.24-0.32 43.01-0.26 69.3-0.86 0-3.94 0.49-39.18 0.43-42.45 6.25-17.25 14.4-51.77 13.81-60.09z"/>
		<path id="&lt;Compound Path&gt;" class="s2" d="m1416.74 2115.9c-0.47 0-0.85-0.37-0.85-0.83l-0.86-52.98c-5.82-7.2-9.15-32.73-7.41-42.12-5.05-21.52-9.83-37.65-12.19-41.13-3.4-5.02-2.08-11.87 2.93-15.27 1.83-1.24 3.96-1.89 6.16-1.89 3.65 0 7.06 1.8 9.11 4.82 2.67 3.95 5.83 12.28 9.38 24.79 6.45-7.85 12.66-13.75 12.72-13.81 0.22-0.21 0.54-0.28 0.83-0.2 2.59 0.77 63.45 18.96 64.56 34.31 0.63 8.74-7.67 43.31-13.79 60.29 0.02 2.36-0.13 14.55-0.26 25.34-0.09 7.87-0.18 15.31-0.18 16.97 0 0.46-0.37 0.84-0.83 0.85-17.34 0.39-30.79 0.5-45.04 0.62-7.49 0.07-15.33 0.13-24.27 0.24q-0.01 0-0.01 0zm-12.22-152.52c-1.86 0-3.66 0.55-5.21 1.6-4.23 2.87-5.35 8.66-2.47 12.91 3 4.42 8.41 24.53 12.47 41.87q0.04 0.17 0.01 0.35c-1.9 9.69 1.94 35.05 7.19 41.11q0.2 0.23 0.21 0.54l0.85 52.44c8.59-0.11 16.18-0.17 23.44-0.23 14.01-0.12 27.26-0.23 44.19-0.61 0.01-2.56 0.09-8.93 0.18-16.16 0.13-11.05 0.28-23.57 0.25-25.45q-0.01-0.15 0.05-0.3c6.47-17.87 14.31-51.93 13.75-59.74-0.84-11.67-45.21-27.38-62.88-32.66-1.48 1.44-7.4 7.28-13.26 14.57-0.19 0.25-0.52 0.37-0.83 0.3-0.31-0.06-0.56-0.29-0.64-0.6-3.69-13.21-6.92-21.91-9.6-25.86-1.73-2.56-4.61-4.08-7.7-4.08z"/>
		<path id="&lt;Path&gt;" class="s2" d="m1441.56 2052.81q-0.06-0.02-0.12-0.04c-0.44-0.16-0.66-0.65-0.49-1.09 11.8-31.25-15.14-44.82-16.3-45.38-0.42-0.21-0.59-0.71-0.39-1.14 0.21-0.41 0.73-0.59 1.13-0.39 0.3 0.15 29.49 14.8 17.13 47.51-0.15 0.4-0.56 0.61-0.96 0.53z"/>
		<path id="&lt;Path&gt;" class="s2" d="m1431.61 1947.42c0-16.03-13-29.02-29.02-29.02-16.03 0-29.03 12.99-29.03 29.02 0 16.03 13 29.02 29.03 29.02 16.02 0 29.02-12.99 29.02-29.02z"/>
		<path id="&lt;Path&gt;" class="s7" d="m1430.59 1956l-22.06 19.04 19.1 19.88c6.91-5.58 13.82-11.2 20.72-16.39z"/>
		<path id="&lt;Compound Path&gt;" class="s2" d="m1427.63 1995.77q-0.35 0-0.61-0.26l-19.11-19.88q-0.24-0.26-0.23-0.63 0.02-0.36 0.29-0.6l22.07-19.04q0.27-0.24 0.63-0.21 0.36 0.04 0.59 0.32l17.76 22.54q0.21 0.28 0.17 0.63-0.05 0.36-0.33 0.57c-6.42 4.83-12.96 10.12-19.29 15.24l-1.4 1.13q-0.25 0.19-0.54 0.19zm-17.87-20.67l17.95 18.67 0.79-0.64c6.11-4.95 12.42-10.05 18.65-14.75l-16.67-21.16z"/>
		<path id="&lt;Path&gt;" class="s2" d="m1506.37 2052.16l-58.02-73.63c-6.9 5.19-13.81 10.81-20.72 16.39l65.78 68.43z"/>
		<path id="&lt;Path&gt;" class="s1" d="m1444.65 1957.72l-22.19 23.22c-3.96 4.15-3.45 11.22 1.14 15.8 3.8 3.81 9.2 4.66 13.2 2.48-2.29 4.18-1.37 9.9 2.55 13.82 3 3 7 4.15 10.51 3.46-0.88 3.77 0.29 8.15 3.48 11.34 3.86 3.86 9.35 4.68 13.36 2.4-0.84 3.4 0.2 7.38 3.09 10.27 4.11 4.11 10.32 4.43 13.87 0.72l19.9-20.82c0.92-0.96 1.58-2.1 1.96-3.34 1.11-3.51 0.06-7.78-2.98-10.82-2.87-2.88-6.76-3.85-10.06-2.94 0.28-0.52 0.53-1.05 0.71-1.61 1.23-3.92 0.07-8.68-3.33-12.07-3.01-3.02-7.02-4.17-10.54-3.45 0.89-3.78-0.25-8.16-3.44-11.35-3.81-3.81-9.2-4.66-13.2-2.49q0.47-0.83 0.77-1.74c1.23-3.92 0.07-8.68-3.33-12.07-4.58-4.59-11.51-4.95-15.47-0.81z"/>
		<path id="&lt;Compound Path&gt;" class="s2" d="m1477.44 2044.66c-2.98 0-5.99-1.29-8.25-3.55-2.57-2.57-3.87-6.07-3.58-9.43-1.19 0.44-2.48 0.67-3.8 0.67-3.28 0-6.59-1.43-9.07-3.91-2.97-2.96-4.41-7.06-3.92-10.94-3.59 0.3-7.34-1.13-10.07-3.86-3.55-3.55-4.86-8.57-3.53-12.85q-1.53 0.45-3.16 0.46c-3.28 0-6.58-1.43-9.06-3.91-4.9-4.9-5.42-12.52-1.16-16.99l22.2-23.21c1.94-2.03 4.62-3.15 7.56-3.15 3.3 0 6.62 1.44 9.12 3.94 3.49 3.49 4.88 8.52 3.57 12.84q1.51-0.45 3.13-0.45c3.27 0 6.58 1.42 9.06 3.9 2.95 2.96 4.38 7.06 3.88 10.95 3.6-0.32 7.37 1.12 10.1 3.86 3.52 3.51 4.9 8.58 3.54 12.93q-0.04 0.11-0.08 0.22c3.27-0.33 6.73 0.97 9.22 3.47 3.17 3.17 4.42 7.75 3.19 11.68q-0.66 2.1-2.15 3.67l-19.9 20.82c-1.76 1.83-4.19 2.84-6.84 2.84zm-10.74-15.27q0.28 0 0.52 0.17c0.27 0.2 0.39 0.55 0.31 0.88-0.81 3.26 0.29 6.89 2.86 9.47 1.95 1.94 4.52 3.06 7.05 3.06 2.19 0 4.18-0.83 5.61-2.33l19.9-20.81q1.22-1.28 1.76-3.01c1.05-3.33-0.04-7.24-2.77-9.97-1.92-1.92-4.47-3.02-6.99-3.02q-1.16 0-2.24 0.3c-0.33 0.09-0.68-0.03-0.89-0.29-0.21-0.26-0.25-0.63-0.09-0.93 0.24-0.46 0.49-0.95 0.65-1.46 1.18-3.75-0.05-8.15-3.12-11.22-2.16-2.17-5.03-3.41-7.88-3.41q-0.97 0-1.9 0.19c-0.28 0.05-0.57-0.04-0.77-0.24-0.21-0.21-0.29-0.51-0.22-0.79 0.87-3.66-0.36-7.71-3.21-10.55-2.17-2.17-5.03-3.41-7.86-3.41-1.54 0-3.04 0.37-4.33 1.07-0.33 0.18-0.74 0.12-1.01-0.15-0.26-0.26-0.32-0.67-0.14-1 0.32-0.6 0.55-1.1 0.7-1.59 1.18-3.75-0.05-8.15-3.12-11.22-2.18-2.19-5.07-3.44-7.92-3.44-2.47 0-4.72 0.93-6.33 2.62l-22.2 23.22c-3.63 3.8-3.13 10.36 1.13 14.61 2.16 2.17 5.03 3.41 7.86 3.41 1.54 0 3.04-0.37 4.33-1.07 0.33-0.18 0.74-0.12 1.01 0.14 0.26 0.27 0.32 0.68 0.14 1.01-2.16 3.96-1.17 9.22 2.41 12.81 2.16 2.16 5.04 3.41 7.89 3.41q0.95 0 1.86-0.18c0.28-0.06 0.57 0.03 0.78 0.24 0.2 0.21 0.28 0.5 0.21 0.78-0.86 3.65 0.39 7.69 3.25 10.55 2.17 2.17 5.04 3.41 7.87 3.41 1.6 0 3.15-0.4 4.47-1.15q0.2-0.11 0.42-0.11z"/>
		<path id="&lt;Path&gt;" class="s2" d="m1437.02 1999.61c-0.15 0.08-0.36 0.04-0.5-0.1-0.18-0.18-0.19-0.45-0.04-0.61l25.89-26.88c0.15-0.16 0.42-0.14 0.59 0.03 0.18 0.18 0.2 0.45 0.04 0.61l-25.88 26.88q-0.05 0.05-0.1 0.07z"/>
		<path id="&lt;Path&gt;" class="s2" d="m1450.09 2016.89c-0.15 0.07-0.35 0.04-0.49-0.09-0.18-0.17-0.21-0.44-0.06-0.61l15.14-17.21c0.14-0.17 0.41-0.16 0.59 0.01 0.19 0.17 0.21 0.45 0.07 0.61l-15.14 17.21q-0.05 0.05-0.11 0.08z"/>
		<path id="&lt;Path&gt;" class="s2" d="m1473.45 2024.18c-0.14 0.07-0.33 0.04-0.48-0.09-0.18-0.17-0.22-0.44-0.07-0.61l16.93-19.72c0.14-0.18 0.41-0.17 0.59 0 0.19 0.17 0.22 0.44 0.08 0.61l-16.94 19.72q-0.04 0.06-0.11 0.09z"/>
		<path id="&lt;Path&gt;" class="s2" d="m1466.93 2030.63c-0.14 0.07-0.33 0.05-0.47-0.07-0.19-0.17-0.24-0.44-0.1-0.62l2.23-2.9c0.14-0.17 0.4-0.19 0.59-0.03 0.19 0.16 0.23 0.44 0.1 0.61l-2.23 2.91q-0.05 0.06-0.12 0.1z"/>
		<path id="&lt;Path&gt;" class="s2" d="m1439.52 1989.09q-0.02 0.06-0.06 0.11l-4.94 6.88q-0.12 0.16-0.33 0.15c-0.2 0-5.09-0.23-8.92-4.55-0.16-0.2-0.16-0.48 0-0.63 0.17-0.15 0.45-0.11 0.62 0.08 3.11 3.5 7.08 4.1 8.02 4.19l4.71-6.55c-1.64-6.36-7.96-8.8-9.34-9.26l-4.19 5.63c-0.13 0.18-0.41 0.2-0.61 0.03-0.2-0.16-0.24-0.45-0.11-0.63l4.35-5.84c0.1-0.13 0.26-0.18 0.43-0.14 0.08 0.03 8.48 2.44 10.37 10.29q0.03 0.13 0 0.24z"/>
		<path id="&lt;Path&gt;" class="s2" d="m1453.55 2006.93q-0.03 0.05-0.07 0.1l-5.49 6.4q-0.13 0.15-0.34 0.13c-0.21-0.02-5.11-0.63-8.64-5.19-0.15-0.21-0.13-0.49 0.05-0.62 0.18-0.14 0.46-0.08 0.62 0.12 2.86 3.7 6.82 4.6 7.75 4.77l5.24-6.1c-1.18-6.41-7.36-9.32-8.7-9.88l-4.65 5.23c-0.15 0.17-0.42 0.17-0.61-0.01-0.19-0.18-0.22-0.47-0.07-0.63l4.82-5.44c0.11-0.12 0.28-0.15 0.44-0.1 0.09 0.03 8.36 3.08 9.67 10.98q0.02 0.13-0.02 0.24z"/>
		<path id="&lt;Path&gt;" class="s2" d="m1469.34 2021.68q-0.03 0.06-0.07 0.1l-5.49 6.41q-0.13 0.15-0.34 0.12c-0.21-0.02-5.12-0.63-8.64-5.19-0.15-0.21-0.13-0.49 0.05-0.62 0.18-0.14 0.46-0.08 0.62 0.12 2.86 3.71 6.82 4.61 7.75 4.77l5.24-6.1c-1.18-6.41-7.36-9.31-8.71-9.88l-4.64 5.23c-0.15 0.17-0.43 0.17-0.61-0.01-0.19-0.18-0.22-0.47-0.07-0.63l4.82-5.43c0.11-0.12 0.28-0.16 0.44-0.1 0.08 0.03 8.36 3.07 9.67 10.98q0.02 0.12-0.02 0.23z"/>
		<path id="&lt;Path&gt;" class="s2" d="m1485.97 2034.88q-0.03 0.06-0.07 0.1l-5.2 6.07q-0.12 0.14-0.32 0.12c-0.2-0.02-4.84-0.6-8.18-4.92-0.15-0.2-0.12-0.46 0.04-0.59 0.18-0.13 0.44-0.08 0.59 0.12 2.71 3.51 6.46 4.36 7.34 4.52l4.96-5.79c-1.11-6.06-6.96-8.82-8.24-9.35l-4.4 4.95c-0.14 0.17-0.4 0.16-0.58-0.01-0.18-0.16-0.2-0.44-0.06-0.6l4.56-5.14c0.1-0.11 0.26-0.15 0.42-0.1 0.08 0.03 7.91 2.92 9.16 10.4q0.02 0.12-0.02 0.22z"/>
		<path id="&lt;Path&gt;" class="s1" d="m1411.54 1931.29c0-4.61-3.73-8.34-8.34-8.34-4.61 0-8.34 3.73-8.34 8.34 0 4.6 3.73 8.34 8.34 8.34 4.61 0 8.34-3.74 8.34-8.34z"/>
		<path id="&lt;Path&gt;" class="s1" d="m1418.69 1934.21c0-2.99-2.43-5.41-5.42-5.41-2.99 0-5.41 2.42-5.41 5.41 0 2.99 2.42 5.42 5.41 5.42 2.99 0 5.42-2.43 5.42-5.42z"/>
		<path id="&lt;Path&gt;" class="s2" d="m1124.68 2115.01c-2.99 0-5.87-0.44-8.54-1.31-5.87-1.92-10.76-6.13-13.06-11.27-2.94-6.53-2.06-14.99 2.41-23.18 2.05-3.77 4.83-7.15 7.51-10.42 3.03-3.68 6.16-7.48 8.14-11.76 2.91-6.26 1.73-16.03 0.6-25.49-1.45-12.09-2.96-24.6 3.47-31.64 3.65-4 9.41-5.83 17.59-5.6 8.52 0.24 17.12 4.81 23 12.23 3.4 4.3 5.8 9.29 8.11 14.12 1.6 3.34 3.26 6.8 5.22 9.97 13.24 21.31 43.61 30.77 66.32 20.66 7.25-3.23 13.22-8.56 18.99-13.72 4.38-3.92 8.92-7.97 14.03-11.13 11.15-6.92 25.68-10.11 40.89-9 25.44 1.86 49.82 14.54 63.61 33.1 3.06 4.12 5.98 8.62 8.8 12.97 8.32 12.82 16.92 26.09 30.93 32.79 10.83 5.18 23.53 5.49 35.64 5.05 7.84-0.29 16.88-0.88 24.81-4.3 8.55-3.7 14.92-11.62 17.04-21.2 2.08-9.41-0.21-18.72-6.29-25.54-0.31-0.35-0.28-0.89 0.07-1.2 0.35-0.32 0.89-0.28 1.2 0.07 6.44 7.24 8.88 17.09 6.67 27.03-2.23 10.11-8.97 18.48-18.02 22.39-8.2 3.55-17.42 4.15-25.42 4.44-12.33 0.45-25.27 0.13-36.43-5.21-14.44-6.91-23.18-20.37-31.63-33.4-2.8-4.33-5.71-8.8-8.73-12.88-13.31-17.89-37.79-30.62-62.37-32.42-14.87-1.08-29.03 2.02-39.88 8.75-4.98 3.09-9.46 7.09-13.79 10.96-5.87 5.24-11.94 10.67-19.43 14-23.44 10.43-54.79 0.67-68.45-21.31-2.02-3.25-3.69-6.75-5.31-10.13-2.28-4.75-4.63-9.66-7.91-13.8-5.57-7.04-13.69-11.37-21.72-11.6-7.66-0.21-12.99 1.44-16.28 5.05-5.91 6.47-4.45 18.59-3.05 30.3 1.22 10.13 2.37 19.71-0.74 26.41-2.07 4.47-5.27 8.36-8.36 12.12-2.64 3.21-5.37 6.52-7.34 10.15-4.21 7.73-5.07 15.63-2.35 21.68 2.11 4.7 6.61 8.57 12.04 10.35 4.9 1.6 10.55 1.63 16.33 0.09 0.46-0.11 0.92 0.15 1.04 0.61 0.12 0.45-0.15 0.91-0.6 1.03-2.98 0.79-5.92 1.19-8.76 1.19z"/>
		<path id="&lt;Path&gt;" class="s3" d="m1464.74 1835.1l5.52 19.79c0.12 0.43 0.45 0.78 0.88 0.92l19.42 6.67c1.08 0.37 1.26 1.81 0.32 2.43l-17.11 11.37c-0.38 0.25-0.61 0.67-0.61 1.12l-0.34 20.54c-0.02 1.13-1.33 1.75-2.22 1.05l-16.09-12.76c-0.36-0.28-0.83-0.37-1.26-0.24l-19.63 6.03c-1.09 0.33-2.08-0.73-1.69-1.79l7.17-19.25c0.15-0.42 0.09-0.89-0.17-1.26l-11.8-16.82c-0.65-0.92 0.05-2.2 1.18-2.15l20.52 0.86c0.45 0.02 0.88-0.18 1.15-0.54l12.35-16.42c0.68-0.91 2.1-0.64 2.41 0.45z"/>
		<path id="&lt;Compound Path&gt;" class="s2" d="m1471.45 1900.13q-0.77 0-1.37-0.48l-16.1-12.76c-0.13-0.1-0.32-0.14-0.48-0.09l-19.63 6.03c-0.92 0.28-1.93-0.08-2.48-0.86-0.42-0.6-0.51-1.34-0.25-2.03l7.16-19.26q0.09-0.25-0.06-0.48l-11.8-16.81c-0.48-0.68-0.54-1.56-0.15-2.29 0.38-0.74 1.13-1.2 1.96-1.2 0.01 0 0.08 0 0.1 0l20.52 0.86q0 0 0 0 0.28 0 0.44-0.2l12.34-16.42c0.42-0.56 1.07-0.88 1.76-0.88 1.01 0 1.88 0.65 2.15 1.62l5.52 19.78q0.08 0.26 0.33 0.35l19.43 6.67c0.8 0.27 1.37 0.97 1.48 1.81 0.11 0.85-0.27 1.66-0.97 2.13l-17.11 11.37q-0.22 0.15-0.23 0.42l-0.34 20.54c-0.02 1.22-1 2.18-2.22 2.18zm-17.79-15.05c0.49 0 0.98 0.17 1.37 0.48l16.1 12.76q0.14 0.11 0.32 0.11c0.21 0 0.52-0.15 0.52-0.51l0.34-20.54c0.01-0.73 0.38-1.4 0.99-1.81l17.11-11.36c0.24-0.16 0.24-0.41 0.22-0.5-0.01-0.1-0.07-0.33-0.34-0.43l-19.43-6.66c-0.69-0.24-1.22-0.8-1.42-1.5l-5.52-19.79c-0.08-0.28-0.32-0.38-0.51-0.38-0.11 0-0.28 0.04-0.4 0.21l-12.35 16.42c-0.41 0.55-1.08 0.88-1.77 0.88-0.01 0-0.08 0-0.09 0l-20.52-0.86h-0.01c-0.3 0-0.43 0.2-0.48 0.28-0.04 0.08-0.13 0.3 0.04 0.54l11.8 16.81c0.42 0.6 0.51 1.36 0.26 2.05l-7.16 19.25c-0.08 0.21-0.01 0.37 0.06 0.47 0.13 0.19 0.35 0.27 0.58 0.21l19.64-6.03q0.31-0.1 0.65-0.1z"/>
		<path id="&lt;Path&gt;" class="s3" d="m1120.71 1844.24l8.17 8.84c0.17 0.19 0.44 0.29 0.7 0.25l11.91-1.72c0.66-0.09 1.14 0.61 0.82 1.19l-5.89 10.5c-0.13 0.23-0.13 0.51-0.02 0.74l5.32 10.81c0.29 0.59-0.23 1.27-0.88 1.14l-11.81-2.36c-0.25-0.05-0.52 0.03-0.71 0.22l-8.63 8.39c-0.48 0.46-1.28 0.18-1.36-0.48l-1.41-11.96c-0.03-0.26-0.19-0.49-0.42-0.61l-10.65-5.62c-0.59-0.31-0.56-1.16 0.04-1.44l10.93-5.03c0.24-0.11 0.41-0.33 0.46-0.59l2.05-11.87c0.11-0.65 0.93-0.89 1.38-0.4z"/>
		<path id="&lt;Compound Path&gt;" class="s2" d="m1119.13 1883.31c-0.84 0-1.54-0.62-1.64-1.45l-1.41-11.96-10.62-5.58c-0.56-0.29-0.9-0.87-0.88-1.5 0.01-0.63 0.38-1.19 0.95-1.46l10.94-5.03 2.02-11.83c0.14-0.79 0.82-1.37 1.63-1.37 0.47 0 0.89 0.19 1.21 0.53l8.17 8.84 11.87-1.73c0.68-0.09 1.33 0.23 1.66 0.8 0.3 0.51 0.31 1.13 0.02 1.64l-5.89 10.5 5.32 10.76c0.25 0.52 0.22 1.11-0.08 1.6-0.36 0.58-1.02 0.89-1.72 0.75l-11.81-2.35-8.59 8.38c-0.31 0.3-0.72 0.46-1.15 0.46zm0.95-38.5l-1.97 11.84c-0.09 0.53-0.44 0.99-0.93 1.22l-10.93 5.03 10.64 5.53c0.49 0.26 0.81 0.73 0.87 1.27l1.4 11.86 8.57-8.32c0.38-0.38 0.93-0.54 1.47-0.44l11.81 2.35-5.37-10.73c-0.24-0.49-0.22-1.06 0.04-1.54l5.84-10.41-11.82 1.7c-0.54 0.08-1.08-0.12-1.45-0.52z"/>
	</g>
</svg>