<svg version="1.2" xmlns="http://www.w3.org/2000/svg" viewBox="0 0 1080 1080" width="1080" height="1080">
	<style>
		.s0 { fill: #f2c9cc } 
		.s1 { fill: #ffffff } 
		.s2 { fill: #333333 } 
		.s3 { fill: #2b2b2b } 
		.s4 { fill: #f2cf63 } 
		.s5 { fill: #a2bff9 } 
		.s6 { fill: #fc5e71 } 
		.s7 { fill: #f29199 } 
		.s8 { fill: #4a253f } 
		.s9 { fill: #e50513 } 
		.s10 { fill: #ccd7f2 } 
	</style>
	<g id="Layer 1">
		<path id="&lt;Path&gt;" class="s0" d="m411.95 63.47c-19.41-1.2-38.8-0.85-58.11 1.98-36.9 5.43-73.87 21.86-99.61 49.35-33.12 35.38-23.44 88.98-64.81 119.73-19.5 14.48-43.56 21.14-65.3 31.96-90.24 44.94-90.61 156.33-50.75 237.15 17.3 35.08 37.31 72.85 42.11 113.17 5.33 44.83-15.94 88.15 4.21 131.73 20.19 43.7 62.39 78.18 110.79 84.13 32.72 4.02 66.04-3.51 98.75 0.51 93.59 11.49 156.36 111.59 249.4 126.86 49.92 8.19 103.52-11.62 136.11-50.32 23.99-28.49 36.98-65.86 64.83-90.6 27.51-24.44 62.06-29.27 95.72-40.49 35.09-11.69 69.51-27.64 96.59-53.4 31.56-30.02 51.09-72.25 53.93-115.72 2.83-43.46-10.98-87.74-37.72-122.12-29.73-38.24-83.88-55.45-107.33-96.36-23.14-40.39-19.1-89.93-15.09-134.5 4.78-53.03 5.43-114.26-34.12-149.9-24.1-21.72-58.32-28.5-90.77-28.44-36.1 0.06-69.78 10.33-105.42 12.52-38.6 2.38-77.23-3.71-115.06-10.76-35.84-6.67-72.11-14.26-108.35-16.48z"/>
		<path id="&lt;Path&gt;" class="s1" d="m195.92 417.52c-3.07 7.99-10.66 13.49-14.2 21.28-3.54 7.78-2.62 16.77-1.63 25.26q2.42 0.39 4.85 0.78c-2.25-8.4 3.59-17.07 10.84-21.87 7.24-4.81 15.87-7.05 23.55-11.14 14.39-7.65 25-22.07 28.02-38.09 3.02-16.02-1.6-33.31-12.22-45.68-11.27-13.13-28.27-20.4-39.24-33.78-16.56-20.2-15.59-50.24-5.52-74.33 7.32-17.51 19.01-33.83 20.51-52.74 0.44-5.59-0.19-11.64-3.75-15.97-4.84-5.9-13.4-6.84-21.03-6.94-9.38-0.12-18.88 0.36-27.91 2.93-17.23 4.9-31.36 16.9-45.98 27.25-17.52 12.41-36.62 22.95-51.65 38.28-17.68 18.03-28.96 42.9-28.07 68.14 0.89 25.23 14.89 50.25 37.28 61.93 27.7 14.45 61.52 7.17 92.07 13.75 9.89 2.13 19.77 5.94 26.87 13.15 7.11 7.2 10.84 18.35 7.21 27.79z"/>
		<path id="&lt;Path&gt;" class="s2" d="m953.56 644.4l17.82-5.66-17.82-6.08c-5.33-1.41-9.41-5.69-10.55-11.09l-5.65-26.75-6.07 26.18c-1.28 5.51-5.64 9.79-11.19 10.96l-16.77 5.77 16.19 5.71c5.67 1.32 10.01 5.88 11.05 11.61l4.67 25.88 6.82-25.9c1.44-5.48 5.93-9.63 11.5-10.63z"/>
		<path id="&lt;Path&gt;" class="s2" d="m737.23 84.42l12.83-4.08-12.83-4.38c-3.84-1.01-6.79-4.1-7.61-7.98l-4.07-19.28-4.38 18.86c-0.92 3.98-4.06 7.06-8.05 7.9l-12.09 4.16 11.66 4.12c4.09 0.94 7.22 4.23 7.97 8.36l3.37 18.65 4.91-18.67c1.04-3.95 4.27-6.93 8.29-7.66z"/>
		<path id="&lt;Path&gt;" class="s1" d="m739.37 293.66l75.87-20.62c11.09 9.69 24.25 17.48 39.21 22.64 63.95 22.06 136.22-11.81 161.42-75.65 25.2-63.84-6.2-133.47-70.15-155.53-63.94-22.06-136.21 11.82-161.42 75.66-10.4 26.34-11.14 53.66-3.95 78.22z"/>
		<path id="&lt;Compound Path&gt;" class="s3" d="m894.77 304.8c-14.06 0-27.88-2.31-41.09-6.87-14.46-4.98-27.58-12.47-39.04-22.26l-74.64 20.29c-0.92 0.25-1.9-0.08-2.49-0.82-0.6-0.75-0.68-1.78-0.23-2.61l40.51-74.43c-7.33-25.86-5.86-53.09 4.3-78.82 19.81-50.18 69.37-83.9 123.31-83.9 14.06 0 27.89 2.32 41.1 6.87 31.22 10.77 55.92 32.99 69.52 62.55 13.89 30.17 14.62 64.3 2.06 96.1-19.81 50.18-69.37 83.9-123.31 83.9zm-79.53-34.14c0.57 0 1.13 0.21 1.57 0.59 11.21 9.8 24.14 17.26 38.42 22.19 12.71 4.38 26.01 6.6 39.54 6.6 52.01 0 99.79-32.5 118.89-80.89 12.07-30.58 11.38-63.38-1.96-92.36-13.06-28.38-36.76-49.7-66.75-60.04-12.72-4.39-26.02-6.61-39.55-6.61-52.01 0-99.78 32.51-118.89 80.89-9.88 25.05-11.23 51.56-3.88 76.68 0.18 0.6 0.11 1.25-0.19 1.81l-38.32 70.39 70.5-19.16q0.31-0.09 0.62-0.09z"/>
		<path id="&lt;Path&gt;" class="s2" d="m845.27 199.64c-10.93 0-19.76-8.26-19.76-18.48 0-10.22 8.83-18.48 19.76-18.48 10.94 0 19.77 8.26 19.77 18.48 0 10.22-8.83 18.48-19.77 18.48z"/>
		<path id="&lt;Path&gt;" class="s2" d="m904.58 199.64c-10.93 0-19.77-8.26-19.77-18.48 0-10.22 8.84-18.48 19.77-18.48 10.94 0 19.77 8.26 19.77 18.48 0 10.22-8.83 18.48-19.77 18.48z"/>
		<path id="&lt;Path&gt;" class="s2" d="m963.89 199.64c-10.93 0-19.77-8.26-19.77-18.48 0-10.22 8.84-18.48 19.77-18.48 10.93 0 19.77 8.26 19.77 18.48 0 10.22-8.84 18.48-19.77 18.48z"/>
		<path id="&lt;Path&gt;" class="s2" d="m284.35 461.34c1.88 3.07 3.84 6.23 6.8 8.29 3.08 2.14 6.91 2.85 10.63 3.42 64.97 9.96 130.72-7.82 196.41-9.85 36.09-1.12 72.18 2.53 108.29 2.01 37.05-0.54 73.88-5.47 110.61-10.39q7.02-26.88 14.04-53.76c2.14-8.21 4.26-17.04 1.3-24.98-4.08-10.89-16.47-16.76-21.2-27.38-5.53-12.41 1.01-26.86-0.65-40.34-1.8-14.67-13.02-26.57-16.43-40.95-3.44-14.5 1.33-30.42-4.1-44.3-3.45-8.83-10.68-15.8-13.88-24.72-2.41-6.69-2.37-13.96-2.83-21.05-1.16-17.6-5.59-34.79-9.99-51.86-3.31-12.81-6.68-25.77-13.08-37.34-16.35-29.57-50.18-45.58-83.49-51.29-16.55-2.83-33.36-3.61-50.13-4.37-12.42-0.57-25-1.12-37.17 1.41-22.9 4.77-43.12 21.02-52.7 42.36-5.37 11.98-7.82 25.78-16.86 35.3-5.38 5.66-12.91 9.57-16.35 16.59-4.16 8.5-1.01 18.91-3.8 27.96-6.11 19.85-37.2 25.3-39.61 45.92-1.36 11.54 7.56 22.05 7.9 33.67 0.42 14.81-12.61 26.02-24.05 35.45-4.51 3.72-9.11 7.71-11.47 13.06-3.45 7.8-1.52 16.9-3.28 25.25-3.86 18.27-24.2 29.27-28.89 47.35-2.7 10.42 0.28 21.63-2.13 32.12-2.99 13.07-13.96 23.48-15.78 36.76-1.74 12.68 5.21 24.75 11.89 35.66z"/>
		<path id="&lt;Compound Path&gt;" class="s4" d="m640.17 298.09c-15.28 0-27.64-12.35-27.64-27.63 0-15.29 12.36-27.64 27.64-27.64 15.29 0 27.64 12.35 27.64 27.64 0 15.28-12.35 27.63-27.64 27.63zm0-4.75c-12.65 0-22.88-10.23-22.88-22.88 0-12.66 10.23-22.89 22.88-22.89 12.66 0 22.88 10.23 22.88 22.89 0 12.65-10.22 22.88-22.88 22.88z"/>
		<path id="&lt;Path&gt;" class="s4" d="m620.78 289.02c-0.74 0-1.47-0.34-1.93-0.99-0.77-1.07-0.52-2.56 0.55-3.32l19.39-13.86c0.77-0.55 1.79-0.59 2.6-0.11l18.5 11.01c1.13 0.67 1.5 2.13 0.83 3.26-0.67 1.12-2.13 1.5-3.26 0.82l-17.17-10.21-18.12 12.96c-0.42 0.3-0.91 0.44-1.39 0.44z"/>
		<path id="&lt;Path&gt;" class="s4" d="m642.43 298.65c-1.31 0-2.8-1.06-2.8-2.37v-49.94c0-1.32 1.49-2.38 2.8-2.38 1.31 0 2.8 1.06 2.8 2.38v49.94c0 1.31-1.49 2.37-2.8 2.37z"/>
		<path id="&lt;Path&gt;" class="s5" d="m678.83 1058.05h107.2c-1.06-53.71-3.86-110.35-10.57-136.42-14.64-56.86-61.24-129.92-61.24-129.92l-305.52 4.96c0 0-52.64 58.96-81.87 117.02-37.27 74.05-18.64 113.72-18.64 113.72l-1.93 28.13c40.66 2.09 81.39 1.47 122.1 0.93 45.34-0.59 90.62 0.37 135.96 0.75 36.56 0.3 73.14 0.44 109.68 1.74 1.4-0.57 3.01-0.91 4.83-0.91z"/>
		<path id="&lt;Compound Path&gt;" class="s2" d="m674.43 1061.36l-0.51-0.02c-31.83-1.14-64.23-1.39-95.57-1.63l-14.05-0.11q-18.63-0.17-37.26-0.4c-22.28-0.27-45.31-0.54-67.96-0.54-10.96 0-21 0.06-30.69 0.19l-3.55 0.05c-17.6 0.23-35.81 0.47-53.72 0.47-24.96 0-45.61-0.46-64.99-1.46l-2.41-0.12 2.06-29.96c-2.27-5.42-16.45-44.93 18.93-115.2 29.03-57.68 81.69-116.95 82.22-117.55l0.69-0.78 1.04-0.01 306.85-4.98 0.72 1.12c0.46 0.73 46.96 74.03 61.53 130.6 5.71 22.15 9.29 68.23 10.64 136.97l0.05 2.43h-109.62q-2.13 0-3.92 0.73zm-215.35-7.45c22.68 0 45.72 0.27 68.01 0.54q18.62 0.23 37.25 0.39l14.05 0.11c31.21 0.25 63.47 0.5 95.2 1.62q2.45-0.9 5.24-0.9h104.77c-1.39-67.03-4.9-111.92-10.45-133.45-13.4-52.03-54.34-118.69-60.23-128.11l-303.13 4.92c-6.27 7.15-53.89 62.2-80.84 115.73-36.33 72.19-18.79 111.26-18.6 111.65l0.26 0.55-1.82 26.32c18.6 0.92 38.49 1.34 62.33 1.34 17.88 0 36.07-0.24 53.65-0.48l3.56-0.04c9.71-0.13 19.77-0.19 30.75-0.19z"/>
		<path id="&lt;Path&gt;" class="s2" d="m408.51 1055.56q-0.02 0-0.04 0c-1.31-0.02-2.36-1.11-2.34-2.42 0.06-3.72 0.19-7.46 0.33-11.22 0.32-9.15 0.65-18.61-0.14-27.68-2.42-27.69-0.34-56.54 6.19-85.73 6.47-28.95 17.06-57.88 31.48-85.98 0.6-1.17 2.04-1.64 3.2-1.03 1.17 0.6 1.63 2.03 1.03 3.2-14.23 27.74-24.68 56.29-31.07 84.85-6.42 28.71-8.47 57.07-6.09 84.28 0.82 9.36 0.48 18.97 0.15 28.26-0.13 3.72-0.27 7.44-0.32 11.13-0.02 1.3-1.09 2.34-2.38 2.34z"/>
		<path id="&lt;Path&gt;" class="s6" d="m741.05 828.57l-277.39-1.21"/>
		<path id="&lt;Path&gt;" class="s2" d="m741.05 829.67q0 0-0.01 0l-277.39-0.57c-1.32-0.01-2.38-2.62-2.37-3.93 0-1.31 1.07-3.91 2.38-3.91q0 0 0 0l277.4 3.07c1.31 0.01 2.37 1.37 2.37 2.68-0.01 1.31-1.07 2.66-2.38 2.66z"/>
		<path id="&lt;Path&gt;" class="s6" d="m667.65 793.24v33.63"/>
		<path id="&lt;Path&gt;" class="s2" d="m667.65 831.33c-1.32 0-2.81-1.06-2.81-2.38v-35.67c0-1.31 1.49-2.37 2.81-2.37 1.31 0 2.8 1.06 2.8 2.37v35.67c0 1.32-1.49 2.38-2.8 2.38z"/>
		<path id="&lt;Path&gt;" class="s6" d="m636.83 829.67v226.94"/>
		<path id="&lt;Path&gt;" class="s2" d="m636.83 1059.62c-1.32 0-2.81-1.06-2.81-2.38v-225.91c0-1.31 1.49-2.38 2.81-2.38 1.31 0 2.8 1.07 2.8 2.38v225.91c0 1.32-1.49 2.38-2.8 2.38z"/>
		<path id="&lt;Path&gt;" class="s5" d="m677.46 831l0.6 144.75-41.18 61.17 36.34-1.21"/>
		<path id="&lt;Path&gt;" class="s2" d="m636.88 1037c-0.87 0-1.66 0.68-2.08-0.08-0.44-0.78-0.39-1.16 0.11-1.9l40.77-60.28-0.6-144.76c-0.01-1.31 1.05-3.11 2.37-3.11q0 0 0.01 0c1.31 0 2.37 1.93 2.38 3.24l0.6 145.19c0 0.48-0.14 1.16-0.41 1.56l-38.58 57.42 31.69-1c1.25-0.15 2.41 1.01 2.45 2.32 0.05 1.32-0.98 1.28-2.29 1.32l-36.34 0.08q-0.04 0-0.08 0z"/>
		<path id="&lt;Path&gt;" class="s2" d="m732.39 672.7c0 0 56.53 21.82 90.75-25.79l-69.42-12.89z"/>
		<path id="&lt;Path&gt;" class="s6" d="m843.41 601.45l17.97-15.95c-14.89-26.1-68.07-130.3-75.1-139.91-18.86-25.79-51.91-57.85-80.33-61.83-28.44-3.95-109.1-38.66-121-40.32 0 0-82.35 1.47-110.07 2.99-30.54 1.67-165.07 65.79-172.33 70.29-50.88 31.49-26.35 89.04-53.3 143.54-27.25 55.12-32.1 122.35-32.1 122.35l165.49 26.78c0 0 19.83 29.77 24.8 52.58 4.94 22.81 24.77 34.71 24.77 34.71l303.48-4.97c2.75-1.96 4.92-4.34 6.54-6.99 10.88-17.42 0.7-47.13 2.38-57.46 1.99-11.9 14.32-66.05 14.32-66.05 0 0 46.68 11.08 56.1-6.36 21.31-39.47 28.38-53.4 28.38-53.4z"/>
		<path id="&lt;Compound Path&gt;" class="s2" d="m432.21 798.85c-0.43 0-0.86-0.01-1.22-0.24-0.85-0.5-20.77-12.65-25.87-36.19-4.36-19.98-20.65-45.86-23.89-50.88l-164.46-26.6c-1.22-0.2-2.08-1.28-1.99-2.51 0.05-0.68 5.19-68.33 32.34-123.23 10.54-21.31 13.05-42.95 15.48-63.88 3.64-31.4 7.09-61.05 38.7-80.62 8.37-5.18 142.26-68.94 173.45-70.65 27.45-1.51 109.33-2.97 110.15-2.98q0.18-0.02 0.37 0.02c4.94 0.69 19.96 6.34 38.99 13.5 28.96 10.89 65 24.45 82.02 26.81 27.72 3.88 61.12 34.33 81.92 62.79 4.06 5.55 21.96 39.65 40.92 75.74 14.32 27.27 27.85 53.04 34.32 64.39 0.56 0.98 0.36 2.21-0.48 2.96l-17.64 15.65c-1.31 2.57-9.05 17.59-28.2 53.05-3.97 7.35-13.74 11.08-29.04 11.08q0 0 0 0c-11.36 0-22.6-2.04-27.36-3.02-2.37 10.44-12.04 53.31-13.76 63.61-0.49 3 0.2 8.28 0.99 14.4 1.73 13.27 4.1 31.44-3.7 43.93-1.84 3-4.26 5.58-7.17 7.66-0.4 0.28-0.87 0.33-1.35 0.34l-303.48 4.87q-0.02 0-0.04 0zm-212.5-118.24l163.32 26.43c0.65 0.11 1.23 0.48 1.59 1.03 0.82 1.23 20.14 30.41 25.15 53.39 4.22 19.48 19.97 30.75 23.12 32.83l302-4.95q3.22-2.46 5.32-5.87c6.9-11.05 4.66-28.25 3.03-40.8-0.85-6.49-1.58-12.1-0.97-15.79 1.97-11.85 13.83-63.98 14.34-66.2 0.14-0.62 0.52-1.15 1.06-1.49 0.54-0.33 1.19-0.44 1.8-0.29 0.15 0.03 14.54 3.4 28.61 3.4 9.22 0 21.03-1.49 24.86-8.58 21.04-38.98 28.28-53.21 28.35-53.35q0.2-0.4 0.54-0.7l16.53-14.67c-6.82-12.14-19.78-36.81-33.46-62.86-18.03-34.35-36.68-69.87-40.54-75.15-20.21-27.64-52.4-57.19-78.74-60.88-17.54-2.43-53.85-16.09-83.04-27.07-17.77-6.69-33.16-12.48-37.79-13.22-4.52 0.09-83.07 1.52-109.78 2.98-29.34 1.61-162.15 64.34-171.21 69.94-29.65 18.36-32.82 45.59-36.48 77.13-2.47 21.33-5.03 43.39-15.94 65.45-24.02 48.58-30.56 107.37-31.67 119.29z"/>
		<path id="&lt;Path&gt;" class="s1" d="m603.5 193.41c0 0 24.11-24.61 44.36-17.34 20.25 7.28 22.97 50.96 1.2 59.45-21.78 8.49-47.91-8.56-47.91-8.56z"/>
		<path id="&lt;Compound Path&gt;" class="s2" d="m635.76 239.21c-18.04 0-34.63-10.69-35.33-11.15l-0.65-0.42 2.44-34.81 0.34-0.34c0.77-0.78 18.9-19.09 37.35-19.09 2.94 0 5.77 0.48 8.4 1.43 11.69 4.2 17.09 18.93 17.26 31.66 0.15 11.54-3.98 25.56-16.03 30.26-4.19 1.63-8.82 2.46-13.78 2.46zm-33.23-12.96c3.23 1.96 17.93 10.31 33.23 10.31 4.63 0 8.94-0.76 12.82-2.28 10.8-4.2 14.49-17.1 14.35-27.76-0.16-11.82-5.02-25.43-15.51-29.2-2.34-0.85-4.87-1.27-7.51-1.27-16.02 0-32.56 15.46-35.12 17.95z"/>
		<path id="&lt;Path&gt;" class="s1" d="m581.24 283.48c0 0 0.73 58.26 5.83 61.18 5.1 2.91 21.89 9.2 21.89 9.2 0 0 36.69 65.63-37.02 68.12-53.82 1.81-120.57-68.26-120.57-68.26 0 0 26.45-11.25 30.09-16.35 3.64-5.1-3.05-96.68-3.05-96.68z"/>
		<path id="&lt;Compound Path&gt;" class="s2" d="m569.87 424.39c-53.85 0-117.54-66.21-120.22-69.03-0.54-0.56-0.77-1.35-0.61-2.12 0.15-0.76 0.68-1.4 1.39-1.7 10-4.26 26.73-12.23 29.1-15.55 2.14-4.89-1-60.96-3.49-95.12-0.06-0.83 0.31-1.63 0.98-2.11 0.67-0.48 1.54-0.58 2.3-0.26l102.84 42.78c0.88 0.37 1.45 1.22 1.46 2.17 0.33 26.45 2.22 55.66 4.81 59.24 5.08 2.83 21.2 8.88 21.36 8.94 0.53 0.2 0.97 0.58 1.24 1.07 0.71 1.25 17.04 30.95 5.13 52.07-6.91 12.24-21.76 18.83-44.14 19.58q-1.07 0.04-2.15 0.04zm-114.37-69.87c12.21 12.12 68.25 65.11 114.37 65.11q1 0 1.99-0.03c20.6-0.7 34.11-6.47 40.15-17.16 9.64-17.07-2.35-42.05-4.73-46.67-3.53-1.34-16.79-6.43-21.39-9.05-5.09-2.91-6.63-34.76-7-61.65l-97.83-40.7c2.11 29.53 5.91 89.38 2.34 94.39-3.26 4.55-20.09 12.33-27.9 15.76z"/>
		<path id="&lt;Path&gt;" class="s2" d="m599.28 310.69l-0.48-32.19-58.93 2.33-22.96-17.99-18.67-9.26c25.35 72.05 84.5 63.61 101.04 57.11z"/>
		<path id="&lt;Path&gt;" class="s1" d="m629 100.34c0 0-1.66-74.06-102.04-60.91q-1.83 0.24-3.6 0.53c-51.31 8.49-85.36 47.33-75.1 98.32l8.21 42.03c-8.13-6.26-19.11-12.07-29.89-9.3-20.84 5.37-27.6 48.61-6.71 59.08 17.93 8.98 40.73-0.43 46.87-3.29 6.32 18.88 16.93 36.15 31.86 49.45 16.98 15.13 40.71 27.51 70.88 22.5 67.03-11.14 68.11-61.47 67.67-124-0.25-34.73-2.99-57.55-8.15-74.41z"/>
		<path id="&lt;Path&gt;" class="s2" d="m461.9 198.75c4.91-18.03 96.6-75.08 94.41-106.22 0 0 27.86 26.22 37.15 30.59 9.28 4.37 45.45 29.4 45.01 54.27 0 0 24.91-37.88 19.99-66.29-4.91-28.4-31.21-77.59-97.63-78.36-63.99-0.74-110.13 21.74-122.69 69.26-12.56 47.52 23.76 96.75 23.76 96.75z"/>
		<path id="&lt;Path&gt;" class="s1" d="m463.99 79.58c-4.52-3.89-11.64-1.68-16.42 1.87-6.51 4.83-11.36 11.84-13.61 19.62-0.5 1.73-0.83 3.73 0.17 5.22 0.62 0.92 1.64 1.47 2.66 1.89 12.34 5.13 28.2-4.13 39.19 3.47 6.82 4.71 8.93 14.36 15.88 18.87 6.5 4.2 15.76 2.32 21.24-3.14 5.48-5.47 7.51-13.71 6.87-21.42-0.14-1.61-0.41-3.29-1.39-4.57-0.9-1.18-2.28-1.88-3.63-2.49-7.83-3.51-16.38-5.42-24.96-5.57-7.15-0.13-15.49 0.48-20.13-4.96-2.29-2.7-3.18-6.48-5.87-8.79z"/>
		<path id="&lt;Path&gt;" class="s2" d="m758.92 663.58q-0.37 0-0.74-0.12c-1.24-0.4-1.93-1.74-1.52-2.99 8.24-25.43 14.58-60.39-2.04-82.54-18.05-24.07-20.22-47.83-20.3-48.84-0.11-1.3 0.86-2.45 2.17-2.56 1.28-0.12 2.46 0.86 2.57 2.17 0.02 0.23 2.17 23.45 19.37 46.37 17.84 23.79 11.34 60.36 2.75 86.86-0.32 1.01-1.26 1.65-2.26 1.65z"/>
		<path id="&lt;Path&gt;" class="s2" d="m461.97 697.89c-1.22 0-2.26-0.94-2.36-2.17-0.12-1.31 0.85-2.46 2.16-2.58 66.98-5.82 109.44-36.91 109.86-37.22 1.05-0.79 2.55-0.57 3.33 0.49 0.78 1.05 0.56 2.54-0.49 3.32-0.43 0.32-43.97 32.21-112.29 38.15q-0.1 0.01-0.21 0.01z"/>
		<path id="&lt;Path&gt;" class="s2" d="m325.11 580.86c-1.04 0-2-0.69-2.29-1.75l-21.75-80.48c-0.34-1.27 0.41-2.58 1.68-2.92 1.26-0.34 2.57 0.41 2.92 1.68l21.74 80.48c0.35 1.26-0.41 2.57-1.67 2.91q-0.31 0.08-0.63 0.08z"/>
		<path id="&lt;Path&gt;" class="s2" d="m313.21 568.96c-1.08 0-2.06-0.74-2.31-1.84l-10.91-47.61c-0.3-1.28 0.5-2.56 1.78-2.85 1.28-0.3 2.56 0.51 2.85 1.79l10.91 47.6c0.3 1.28-0.5 2.56-1.78 2.85q-0.27 0.06-0.54 0.06z"/>
		<path id="&lt;Path&gt;" class="s2" d="m743.64 558.05q-0.1 0-0.2-0.01c-1.31-0.1-2.28-1.25-2.18-2.56l1.99-23.81c0.11-1.3 1.23-2.29 2.56-2.17 1.31 0.11 2.28 1.26 2.18 2.57l-1.99 23.8c-0.1 1.24-1.14 2.18-2.36 2.18z"/>
		<path id="&lt;Path&gt;" class="s2" d="m823.63 707.81c-1.31 0-2.37-1.07-2.37-2.38v-66.12c0-1.31 1.06-2.38 2.37-2.38 1.32 0 2.38 1.07 2.38 2.38v66.12c0 1.31-1.06 2.38-2.38 2.38z"/>
		<path id="&lt;Path&gt;" class="s2" d="m563.94 256.51c-17.45 0-29.88-12.66-30.04-12.83-0.91-0.94-0.88-2.44 0.07-3.36 0.94-0.91 2.44-0.88 3.36 0.06 0.71 0.74 17.77 18.02 39.49 8.64 1.21-0.53 2.61 0.04 3.13 1.24 0.52 1.21-0.04 2.61-1.24 3.13-5.19 2.24-10.15 3.12-14.77 3.12z"/>
		<path id="&lt;Path&gt;" class="s2" d="m532.88 247.46c-1.31 0-2.37-1.14-2.37-2.45 0-3.25 4.12-5.99 5.9-7.02 1.13-0.66 2.59-0.27 3.24 0.87 0.66 1.13 0.28 2.59-0.86 3.25-1.62 0.94-3.34 2.42-3.54 3.05 0 1.31-1.06 2.3-2.37 2.3z"/>
		<path id="&lt;Path&gt;" class="s2" d="m612.86 285.25c-0.73 0-1.44-0.33-1.91-0.95-0.79-1.05-0.57-2.55 0.48-3.33 26.1-19.63 26.58-87.25 26.1-107.51-0.03-1.31 1.01-2.4 2.32-2.43 1.35-0.12 2.4 1.01 2.44 2.32 0.62 26.69-0.85 91-28.01 111.42-0.43 0.32-0.93 0.48-1.42 0.48z"/>
		<path id="&lt;Path&gt;" class="s2" d="m449.65 213.95c-1.2 0-2.23-0.01-2.36-1.23-1.14-10.7-15.45-24.66-22.53-24.66q-0.1 0-0.21 0c-1.28 0-2.34-1.44-2.38-2.73-0.04-1.31 1-2.87 2.31-2.87q0.12 0 0.25 0c10 0 25.96 16.89 27.29 29.33 0.14 1.3-0.81 2.24-2.11 2.38-0.09 0.01-0.17-0.22-0.26-0.22z"/>
		<path id="&lt;Path&gt;" class="s2" d="m429.69 200.11c-1.16 0-2.17-0.85-2.35-2.03-0.19-1.3 0.71-2.51 2-2.7l12.42-1.85c1.3-0.17 2.51 0.71 2.7 2.01 0.19 1.3-0.7 2.51-2 2.7l-12.41 1.84q-0.18 0.03-0.36 0.03z"/>
		<path id="&lt;Path&gt;" class="s2" d="m566.41 223.44c-1.12 0-2.12-0.81-2.33-1.96-0.24-1.29 0.62-2.52 1.91-2.76 1.94-0.35 9.14-5.38 9.1-8.97-0.03-2.52-2.05-7.59-3.82-12.06-1.46-3.68-2.84-7.15-3.41-9.77-0.28-1.28 0.53-2.55 1.82-2.83 1.29-0.28 2.55 0.53 2.83 1.82 0.48 2.24 1.85 5.68 3.18 9.02 2.11 5.33 4.11 10.37 4.15 13.77 0.08 6.74-9.73 13.1-13 13.7q-0.21 0.04-0.43 0.04z"/>
		<path id="&lt;Compound Path&gt;" class="s4" d="m434.24 298.09c-15.28 0-27.63-12.35-27.63-27.63 0-15.29 12.35-27.64 27.63-27.64 15.29 0 27.64 12.35 27.64 27.64 0 15.28-12.35 27.63-27.64 27.63zm0-4.75c-12.65 0-22.88-10.23-22.88-22.88 0-12.66 10.23-22.89 22.88-22.89 12.66 0 22.89 10.23 22.89 22.89 0 12.65-10.23 22.88-22.89 22.88z"/>
		<path id="&lt;Path&gt;" class="s4" d="m414.86 289.02c-0.75 0-1.47-0.34-1.94-0.99-0.76-1.07-0.52-2.56 0.55-3.32l19.39-13.86c0.77-0.55 1.79-0.59 2.6-0.11l18.51 11.01c1.13 0.67 1.5 2.13 0.83 3.26-0.67 1.12-2.14 1.5-3.26 0.82l-17.18-10.21-18.12 12.96c-0.42 0.3-0.9 0.44-1.38 0.44z"/>
		<path id="&lt;Path&gt;" class="s4" d="m435.1 298.65c-1.31 0-2.8-1.06-2.8-2.37v-49.94c0-1.32 1.49-2.38 2.8-2.38 1.31 0 2.8 1.06 2.8 2.38v49.94c0 1.31-1.49 2.37-2.8 2.37z"/>
		<path id="&lt;Path&gt;" class="s7" d="m523.58 221.06c-14.35 0-25.95-15.08-25.95-33.74 0-18.65 11.6-33.73 25.95-33.73 14.35 0 25.95 15.08 25.95 33.73 0 18.66-11.6 33.74-25.95 33.74z"/>
		<path id="&lt;Compound Path&gt;" class="s2" d="m523.58 223.44c-15.66 0-28.33-16.15-28.33-36.12 0-19.97 12.67-36.11 28.33-36.11 15.67 0 28.33 16.14 28.33 36.11 0 19.97-12.66 36.12-28.33 36.12zm0-4.76c-13.03 0-23.57-14.02-23.57-31.36 0-17.34 10.54-31.36 23.57-31.36 13.04 0 23.57 14.02 23.57 31.36 0 17.34-10.53 31.36-23.57 31.36z"/>
		<path id="&lt;Path&gt;" class="s7" d="m605.95 221.06c-14.35 0-25.95-15.08-25.95-33.74 0-18.65 11.6-33.73 25.95-33.73 14.35 0 25.95 15.08 25.95 33.73 0 18.66-11.6 33.74-25.95 33.74z"/>
		<path id="&lt;Compound Path&gt;" class="s2" d="m605.95 223.44c-15.66 0-28.32-16.15-28.32-36.12 0-19.97 12.66-36.11 28.32-36.11 15.67 0 28.33 16.14 28.33 36.11 0 19.97-12.66 36.12-28.33 36.12zm0-4.76c-13.03 0-23.57-14.02-23.57-31.36 0-17.34 10.54-31.36 23.57-31.36 13.04 0 23.57 14.02 23.57 31.36 0 17.34-10.53 31.36-23.57 31.36z"/>
		<path id="&lt;Path&gt;" class="s2" d="m550.88 185.86l-2.69-3.93c22.27-15.24 33.77 0.43 33.89 0.59l-3.88 2.75 1.94-1.37-1.93 1.38c-0.36-0.49-9.04-11.95-27.33 0.58z"/>
		<path id="&lt;Path&gt;" class="s2" d="m497.39 189.69l-34.92-3.63 0.49-4.73 34.92 3.63z"/>
		<path id="&lt;Path&gt;" class="s2" d="m634.05 185.86l-2.69-3.93 13.41-9.17 2.69 3.93z"/>
		<path id="&lt;Path&gt;" class="s1" d="m757.4 662.62l-4.67 13.2-42.54-59.53c-2.19-22.85-7.13-44.44-9.18-52.73 0.52-24.83 0.35-54.13-2.76-65.51-2.5-9.11-11.91-14.51-21.01-11.99-2.02 0.55-3.84 1.46-5.45 2.61l-0.74-37.75c-0.18-9.45-7.99-16.95-17.43-16.77-3.92 0.08-7.46 1.45-10.28 3.67l-0.01-2.14c-0.09-9.45-7.81-17.04-17.25-16.96-7.11 0.1-13.31 4.64-15.8 11q-1.99-0.75-4.19-0.99c-9.39-0.97-17.8 5.87-18.76 15.26l-0.79 7.66-0.51 1.11c0 0 0.15 0.02 0.39 0.05l-9.31 90.72c-5.96 9.46-11.6 24.83-10.9 29.67l9.48 65.13c0 0 25.96 19.82 54.96 34.35l-16.13 15.52c0 0 128.08 225.28 217.33 187.35 104.7-44.5 20.52-255.02 13.38-275.52-18.26 19.09-71.54 55.33-87.83 62.59z"/>
		<path id="&lt;Compound Path&gt;" class="s3" d="m810.43 882.23c-87.33 0-193.49-184.99-197.97-192.86-0.54-0.95-0.37-2.13 0.42-2.89l13.71-13.2c-27.65-14.29-52.09-32.86-52.34-33.06-0.5-0.37-0.82-0.93-0.91-1.55l-9.48-65.13c-0.85-5.79 5.25-21.57 10.94-30.8l9.12-88.88c-0.34-0.65-0.36-1.42-0.05-2.09l0.35-0.76 0.74-7.26c1.09-10.63 10.5-18.5 21.37-17.39q1.32 0.14 2.66 0.47c3.32-6.25 9.92-10.39 17.05-10.49 10.14 0 18.45 7.59 19.54 17.31 2.47-1.18 5.18-1.82 7.99-1.88h0.39c10.52 0 19.26 8.57 19.47 19.1l0.66 33.78q1.23-0.53 2.52-0.89 2.54-0.7 5.17-0.7c8.73 0 16.44 5.9 18.76 14.36 2.6 9.51 3.56 31.67 2.86 65.87 2.06 8.42 6.88 29.61 9.1 52.13l39.51 55.3 3.15-8.89c0.22-0.62 0.68-1.12 1.28-1.38 16.36-7.29 69.21-43.4 87.07-62.06 0.57-0.6 1.41-0.85 2.22-0.68 0.81 0.18 1.47 0.76 1.74 1.54 0.38 1.09 0.98 2.71 1.75 4.82 54.65 148.74 48.81 245.93-16.44 273.66-7.02 2.99-14.54 4.5-22.35 4.5zm-192.91-193.61c10.76 18.42 112.5 188.85 192.91 188.85 7.17 0 14.06-1.38 20.49-4.11 84.41-35.88 44.9-183.09 13.84-267.65q-0.26-0.71-0.5-1.35c-19.88 19.19-68.12 52.07-84.95 60l-4.34 12.25c-0.29 0.84-1.03 1.44-1.91 1.56-0.89 0.12-1.75-0.25-2.26-0.97l-42.54-59.53q-0.37-0.52-0.43-1.16c-2.19-22.72-7.11-44.2-9.13-52.39q-0.07-0.3-0.07-0.61c0.7-33.45-0.23-55.87-2.68-64.84-1.75-6.39-7.58-10.85-14.17-10.85q-1.98 0-3.91 0.53-2.51 0.69-4.7 2.25c-0.72 0.52-1.66 0.59-2.45 0.19-0.79-0.39-1.29-1.19-1.31-2.08l-0.74-37.75c-0.15-7.96-6.76-14.43-14.71-14.43h-0.3c-3.25 0.07-6.31 1.16-8.85 3.16-0.71 0.56-1.68 0.67-2.5 0.27-0.81-0.39-1.34-1.21-1.35-2.12l-0.01-2.14c-0.07-8.05-6.68-14.6-14.73-14.6-6.07 0.08-11.54 3.9-13.72 9.48-0.48 1.21-1.82 1.83-3.04 1.37q-1.83-0.68-3.61-0.86c-8.27-0.85-15.33 5.11-16.16 13.15l-0.78 7.65q-0.03 0.29-0.13 0.57 0.04 0.29 0.01 0.59l-9.31 90.72q-0.06 0.56-0.36 1.03c-6.01 9.53-11.13 24.13-10.56 28.06l9.34 64.16c4.51 3.36 28.11 20.65 53.82 33.53 0.69 0.35 1.17 1.01 1.28 1.77 0.12 0.77-0.14 1.54-0.7 2.07z"/>
		<path id="&lt;Path&gt;" class="s2" d="m215.74 682.81c6.46-12.92 49.26-15.34 62.99-19.38 13.72-4.04 119.11 10.5 131.63 17.76 12.51 7.27 13.32 16.15 5.65 18.58-7.67 2.42-175.24-12.52-175.24-12.52z"/>
		<path id="&lt;Path&gt;" class="s1" d="m666.87 489.41c-2.63-9.58-12.52-15.26-22.1-12.61-2.13 0.58-4.04 1.53-5.73 2.75l-0.78-39.71c-0.19-9.93-8.4-17.83-18.34-17.64-4.12 0.09-7.84 1.53-10.8 3.86l-0.02-2.25c-0.08-9.94-8.21-17.92-18.14-17.84-7.47 0.11-14 4.88-16.62 11.57-1.39-0.51-2.86-0.88-4.41-1.04-9.87-1.02-18.72 6.17-19.73 16.06l-10.74 104.69c-6.28 9.95-13.42 29.47-12.68 34.57l-7.13 61.65c-0.32 2.8-3.44 20.95-5.49 22.88l-109.84 88.98 5.97-62.13c-32.31-25.54-85.83-35.78-165.87-10.88-9.71 90.84 6.03 208.82 56.92 244.68 142.13 100.14 337.72-213.04 338.47-213.32 54.55-19.74 34.82-125.67 29.97-145.36 0.54-26.12 0.36-56.93-2.91-68.91z"/>
		<path id="&lt;Compound Path&gt;" class="s3" d="m362.5 939.13q0 0 0 0c-22.48 0-43.52-6.79-62.53-20.19-50.92-35.87-67.84-153.97-57.91-246.88 0.1-0.94 0.75-1.73 1.66-2.01 30.69-9.55 59.03-14.39 84.24-14.39 34.06 0 62.26 8.64 83.81 25.67 0.63 0.5 0.97 1.29 0.89 2.09l-5.43 56.49 105.25-85.27c1.47-2.29 4.36-17.54 4.81-21.44l7.1-61.39c-0.56-6.38 6.78-25.63 12.76-35.35l10.68-104.15c1.14-11.11 10.99-19.35 22.34-18.18q1.44 0.15 2.88 0.52c3.46-6.59 10.38-10.95 17.87-11.06 10.67 0 19.39 8.03 20.45 18.27 2.63-1.28 5.51-1.97 8.51-2.04h0.4c11.01 0 20.14 8.96 20.36 19.97l0.7 35.71q1.37-0.6 2.8-0.99 2.66-0.74 5.41-0.74c9.12 0 17.19 6.17 19.61 15.01 2.73 10 3.74 33.3 3 69.28 1.65 6.98 28.44 125.14-30.83 147.6q-0.37 0.55-1.07 1.63c-35.87 54.38-161.9 231.84-277.76 231.84zm-115.87-265c-9.44 91.31 6.93 206.3 56.08 240.93 18.19 12.81 38.31 19.31 59.79 19.31 113.48 0.01 238.25-175.81 273.79-229.7 1.93-2.94 1.93-2.94 2.72-3.22 47.9-17.34 36.78-108.79 28.46-142.56q-0.08-0.31-0.07-0.62c0.73-35.2-0.24-58.79-2.83-68.23-1.85-6.78-8.03-11.51-15.02-11.51q-2.1 0-4.15 0.56-2.66 0.73-4.97 2.39c-0.72 0.51-1.67 0.59-2.46 0.19-0.79-0.39-1.29-1.19-1.31-2.08l-0.78-39.7c-0.16-8.45-7.16-15.31-15.6-15.31h-0.31c-3.44 0.07-6.69 1.23-9.38 3.35-0.71 0.56-1.68 0.67-2.5 0.28-0.82-0.4-1.34-1.22-1.35-2.13l-0.02-2.25c-0.07-8.54-7.07-15.48-15.61-15.48-6.44 0.09-12.24 4.13-14.55 10.05-0.47 1.22-1.82 1.83-3.04 1.37q-1.93-0.71-3.83-0.9c-8.71-0.91-16.25 5.4-17.13 13.93l-10.74 104.69q-0.06 0.56-0.35 1.03c-6.32 10.02-12.95 28.75-12.34 32.95q0.05 0.31 0.01 0.62l-7.13 61.66c-0.02 0.21-3.04 21.35-6.23 24.33l-109.96 89.1c-0.75 0.6-1.78 0.7-2.63 0.24-0.84-0.45-1.33-1.36-1.24-2.32l5.85-60.83c-20.56-15.83-47.41-23.85-79.84-23.85-24.32 0-51.68 4.61-81.33 13.71z"/>
		<path id="&lt;Path&gt;" class="s2" d="m567.04 520.21q-0.11 0-0.22-0.02c-1.31-0.12-2.27-1.28-2.14-2.59 0.07-0.82 7.83-82.77 7.33-99.86-0.04-1.31 1-2.41 2.31-2.45q0.03 0 0.07 0c1.28 0 2.34 1.02 2.38 2.31 0.5 17.38-7.04 97.07-7.36 100.45-0.12 1.23-1.15 2.16-2.37 2.16z"/>
		<path id="&lt;Path&gt;" class="s2" d="m607.2 533.8l-4.76-0.18c0 0 3.66-92.99 4.26-107.67 0.05-1.31 1.08-2.39 2.47-2.28 1.32 0.06 2.34 1.16 2.28 2.48-0.59 14.67-4.25 107.65-4.25 107.65z"/>
		<path id="&lt;Path&gt;" class="s2" d="m634.71 551.9q-0.03 0-0.06 0c-1.32-0.04-2.35-1.13-2.32-2.45 0.18-6.5 1.82-63.72 4.02-71.08 0.38-1.26 1.7-1.97 2.96-1.59 1.26 0.37 1.98 1.7 1.6 2.96-1.53 5.11-3.13 44.57-3.82 69.84-0.04 1.3-1.09 2.32-2.38 2.32z"/>
		<path id="&lt;Path&gt;" class="s2" d="m560.69 445c-5.01 0-11.22-0.75-12.15-0.86-1.3-0.17-2.23-1.35-2.06-2.66 0.16-1.3 1.34-2.23 2.65-2.06 3.77 0.46 10.09 1 13.6 0.78 0.25-6.42 0.05-13.42-0.7-14.77-1.14-1.18-3.48-2.03-4.2-2.23-1.27-0.33-2.03-1.64-1.69-2.91 0.34-1.27 1.65-2.02 2.91-1.68 0.42 0.11 4.16 1.16 6.56 3.71 2.24 2.37 2.2 12.23 1.78 20.09-0.06 1.05-0.79 1.93-1.81 2.18-1.21 0.3-2.96 0.41-4.89 0.41z"/>
		<path id="&lt;Path&gt;" class="s2" d="m586.51 442.77c-6.35 0-12.27-1.29-12.63-1.37-1.29-0.29-2.09-1.56-1.81-2.84 0.29-1.28 1.57-2.08 2.84-1.81 0.11 0.03 10.37 2.26 17.45 0.74 0.25-8.45 0.33-17.36 0.08-20.02-1.76-0.71-6.87-1.58-9.85-1.12-1.3 0.18-2.51-0.7-2.71-1.99-0.2-1.3 0.7-2.52 1.99-2.72 3.89-0.59 12.94 0.45 14.68 3.11 0.47 0.71 1.25 1.89 0.51 24.65-0.03 1-0.68 1.87-1.63 2.19-2.69 0.88-5.85 1.18-8.92 1.18z"/>
		<path id="&lt;Path&gt;" class="s2" d="m616.62 448.93c-4.89 0-8.55-1.17-8.79-1.25-1.24-0.42-1.92-1.76-1.51-3.01 0.41-1.25 1.75-1.92 3-1.51 0.07 0.02 6.8 2.16 13.58 0.15l-1.25-12.77c-1.27-1.18-2.76-2.23-3.33-2.31-1.29 0.1-2.39-0.91-2.47-2.23-0.08-1.31 0.96-2.43 2.27-2.52 2.78-0.14 6.2 2.96 7.52 4.31 0.37 0.39 0.61 0.89 0.66 1.43l1.52 15.49c0.1 1.05-0.5 2.04-1.48 2.44-3.37 1.35-6.77 1.78-9.72 1.78z"/>
		<path id="&lt;Path&gt;" class="s2" d="m648.97 505.4c-4.91 0-11.15-0.52-12.1-0.6-1.31-0.11-2.28-1.26-2.17-2.57 0.11-1.3 1.28-2.28 2.57-2.17 4.54 0.39 12.37 0.81 15.18 0.44 1.13-2.41 0.53-12.38-0.37-15.5-1.73-0.46-5.45-1.34-8.05-1.93-1.28-0.29-2.09-1.56-1.79-2.84 0.29-1.28 1.54-2.09 2.84-1.8 1.33 0.31 8.02 1.83 9.43 2.34 3.8 1.36 3.24 16.49 3.23 16.64-0.19 2.96-0.78 6.98-3.8 7.65-1.11 0.25-2.92 0.34-4.97 0.34z"/>
		<path id="&lt;Path&gt;" class="s2" d="m545.49 578.8q-0.47 0-0.93-0.19c-1.21-0.51-1.77-1.91-1.25-3.12l8.19-19.28c0.51-1.21 1.91-1.77 3.12-1.26 1.21 0.52 1.77 1.91 1.26 3.12l-8.2 19.28c-0.38 0.91-1.26 1.45-2.19 1.45z"/>
		<path id="&lt;Path&gt;" class="s2" d="m555.34 580.07c-0.86 0-1.68-0.46-2.11-1.27l-11.49-21.82c-0.61-1.17-0.16-2.6 1-3.21 1.16-0.61 2.6-0.17 3.21 0.99l11.49 21.83c0.61 1.16 0.16 2.6-1 3.21q-0.53 0.27-1.1 0.27z"/>
		<path id="&lt;Path&gt;" class="s2" d="m582.54 588.91q-0.47 0-0.93-0.19c-1.21-0.51-1.77-1.91-1.26-3.12l8.2-19.28c0.51-1.21 1.91-1.78 3.12-1.26 1.21 0.52 1.77 1.91 1.26 3.12l-8.2 19.28c-0.39 0.91-1.27 1.45-2.19 1.45z"/>
		<path id="&lt;Path&gt;" class="s2" d="m592.38 590.18c-0.85 0-1.68-0.46-2.1-1.27l-11.49-21.82c-0.61-1.17-0.16-2.6 1-3.21 1.16-0.61 2.6-0.17 3.21 0.99l11.49 21.82c0.61 1.17 0.16 2.61-1 3.22q-0.54 0.27-1.11 0.27z"/>
		<path id="&lt;Path&gt;" class="s2" d="m617.91 596.12q-0.47 0-0.93-0.19c-1.21-0.52-1.77-1.91-1.26-3.12l8.2-19.28c0.51-1.21 1.91-1.78 3.12-1.26 1.21 0.51 1.77 1.91 1.26 3.12l-8.2 19.28c-0.39 0.9-1.27 1.45-2.19 1.45z"/>
		<path id="&lt;Path&gt;" class="s2" d="m627.75 597.39c-0.85 0-1.68-0.46-2.1-1.27l-11.49-21.82c-0.61-1.17-0.16-2.6 1-3.22 1.16-0.61 2.6-0.16 3.21 1l11.48 21.82c0.62 1.17 0.17 2.6-0.99 3.21q-0.54 0.28-1.11 0.28z"/>
		<path id="&lt;Path&gt;" class="s2" d="m378.15 764.7c-0.78 0-1.54-0.39-2-1.09-0.71-1.1-0.39-2.58 0.71-3.29l30.56-19.7c1.1-0.71 2.57-0.4 3.28 0.71 0.72 1.1 0.4 2.58-0.71 3.29l-30.55 19.7q-0.61 0.38-1.29 0.38z"/>
		<path id="&lt;Path&gt;" class="s5" d="m752.73 675.82c32.74 29.2 86.04 58.27 98.96 77.65"/>
		<path id="&lt;Path&gt;" class="s3" d="m851.69 755.85c-0.77 0-1.52-0.37-1.98-1.06-7-10.5-27.14-24.55-48.47-39.43-17.5-12.22-35.61-24.85-50.09-37.77-0.98-0.87-1.07-2.38-0.19-3.36 0.87-0.97 2.37-1.06 3.36-0.19 14.27 12.73 32.25 25.28 49.64 37.42 22.65 15.8 42.21 29.45 49.71 40.69 0.72 1.09 0.43 2.57-0.66 3.3q-0.63 0.4-1.32 0.4z"/>
		<path id="&lt;Compound Path&gt;" class="s2" d="m559.75 734.45q0 0 0 0c-4.28 0-8.49-1.47-11.84-4.13-8.23-6.54-9.61-18.55-3.07-26.78 3.63-4.58 9.08-7.21 14.93-7.21 4.28 0 8.48 1.47 11.84 4.14 3.99 3.16 6.5 7.69 7.08 12.75 0.58 5.06-0.84 10.04-4.01 14.02-3.63 4.58-9.08 7.21-14.93 7.21zm0.02-33.36c-4.4 0-8.48 1.97-11.21 5.41-4.9 6.17-3.87 15.19 2.3 20.09 2.56 2.03 5.63 3.1 8.89 3.1q0 0 0 0c4.39 0 8.48-1.97 11.21-5.4 2.37-3 3.44-6.73 3.01-10.53-0.44-3.79-2.33-7.19-5.32-9.57-2.55-2.03-5.62-3.1-8.88-3.1z"/>
		<path id="&lt;Path&gt;" class="s2" d="m563.85 732.27c-0.96 0-1.86-0.59-2.22-1.54l-4.5-11.84-14.17-0.71c-1.31-0.07-2.32-1.19-2.25-2.5 0.07-1.31 1.21-2.32 2.5-2.26l15.71 0.8c0.95 0.05 1.77 0.65 2.1 1.53l5.05 13.29c0.47 1.23-0.15 2.61-1.37 3.07q-0.43 0.16-0.85 0.16z"/>
		<path id="&lt;Path&gt;" class="s2" d="m550.18 730.53c-0.51 0-1.04-0.17-1.47-0.52-1.03-0.81-1.2-2.31-0.39-3.34l19.59-24.66c0.82-1.02 2.32-1.2 3.34-0.38 1.03 0.81 1.2 2.31 0.39 3.34l-19.59 24.66c-0.47 0.59-1.16 0.9-1.87 0.9z"/>
		<path id="&lt;Path&gt;" class="s4" d="m544.66 704.72c2.39-3.02 1.89-7.4-1.13-9.79-3.01-2.39-7.39-1.89-9.78 1.12-2.39 3.01-1.89 7.4 1.12 9.79 3.01 2.39 7.39 1.89 9.79-1.12z"/>
		<path id="&lt;Compound Path&gt;" class="s2" d="m539.2 709.73c-2.1 0-4.16-0.72-5.81-2.03-1.95-1.55-3.18-3.77-3.47-6.25-0.28-2.48 0.42-4.92 1.97-6.88 1.78-2.24 4.45-3.53 7.32-3.53 2.09 0 4.16 0.72 5.8 2.03 4.04 3.2 4.71 9.09 1.51 13.13-1.79 2.24-4.45 3.53-7.32 3.53zm0.01-13.93c-1.41 0-2.72 0.63-3.6 1.73-0.76 0.96-1.1 2.16-0.96 3.37 0.13 1.22 0.74 2.31 1.7 3.07 0.82 0.66 1.8 1 2.85 1 1.41 0 2.72-0.63 3.59-1.73 1.58-1.98 1.25-4.88-0.73-6.45-0.82-0.65-1.81-0.99-2.85-0.99z"/>
		<path id="&lt;Path&gt;" class="s4" d="m533.27 695.68c2.4-3.02 1.89-7.4-1.12-9.79-3.01-2.39-7.39-1.89-9.78 1.12-2.4 3.01-1.89 7.39 1.12 9.79 3.01 2.39 7.39 1.89 9.78-1.12z"/>
		<path id="&lt;Compound Path&gt;" class="s2" d="m527.82 700.69h-0.01c-2.1 0-4.16-0.72-5.8-2.03-4.04-3.21-4.71-9.09-1.51-13.13 1.79-2.24 4.45-3.53 7.32-3.53 2.1 0 4.16 0.72 5.81 2.03 1.95 1.55 3.19 3.77 3.47 6.25 0.29 2.48-0.41 4.92-1.96 6.87-1.79 2.25-4.46 3.54-7.32 3.54zm0-13.93c-1.41 0-2.72 0.63-3.59 1.73-1.58 1.98-1.24 4.87 0.74 6.44 0.82 0.66 1.8 1 2.84 1q0.01 0 0.01 0c1.41 0 2.72-0.63 3.59-1.73 0.76-0.96 1.11-2.16 0.97-3.38-0.14-1.22-0.75-2.31-1.71-3.07-0.82-0.65-1.8-0.99-2.85-0.99z"/>
		<path id="&lt;Path&gt;" class="s4" d="m519.99 685.13c2.4-3.01 1.89-7.4-1.12-9.79-3.01-2.39-7.39-1.89-9.78 1.12-2.4 3.02-1.89 7.4 1.12 9.79 3.01 2.39 7.39 1.89 9.78-1.12z"/>
		<path id="&lt;Compound Path&gt;" class="s2" d="m514.54 690.14h-0.01c-2.09 0-4.16-0.72-5.8-2.03-4.03-3.2-4.71-9.09-1.51-13.13 1.79-2.24 4.46-3.53 7.32-3.53 2.1 0 4.17 0.72 5.81 2.03 4.03 3.21 4.71 9.09 1.51 13.13-1.79 2.24-4.45 3.53-7.32 3.53zm0-13.93c-1.41 0-2.72 0.63-3.59 1.73-1.57 1.98-1.24 4.87 0.74 6.45 0.82 0.65 1.8 0.99 2.84 0.99q0.01 0 0.01 0c1.41 0 2.72-0.63 3.59-1.73 1.57-1.98 1.24-4.87-0.74-6.45-0.82-0.65-1.8-0.99-2.85-0.99z"/>
		<path id="&lt;Path&gt;" class="s4" d="m506.71 674.58c2.4-3.01 1.89-7.39-1.12-9.79-3.01-2.39-7.39-1.89-9.78 1.13-2.4 3.01-1.89 7.39 1.12 9.78 3.01 2.39 7.39 1.89 9.78-1.12z"/>
		<path id="&lt;Compound Path&gt;" class="s2" d="m501.26 679.59c-2.1 0-4.16-0.72-5.81-2.02-4.03-3.21-4.71-9.1-1.5-13.13 1.78-2.25 4.45-3.53 7.32-3.53 2.09 0 4.16 0.71 5.8 2.02 4.03 3.21 4.71 9.09 1.51 13.13-1.79 2.24-4.45 3.53-7.32 3.53zm0.01-13.93c-1.41 0-2.72 0.63-3.6 1.74-1.57 1.98-1.24 4.87 0.74 6.44 0.82 0.65 1.8 1 2.85 1 1.41 0 2.72-0.64 3.59-1.74 1.58-1.98 1.24-4.87-0.74-6.44-0.82-0.65-1.8-1-2.84-1z"/>
		<path id="&lt;Path&gt;" class="s4" d="m584.5 736.36c2.39-3.01 1.89-7.4-1.13-9.79-3.01-2.39-7.39-1.89-9.78 1.12-2.4 3.02-1.89 7.4 1.12 9.79 3.01 2.39 7.39 1.89 9.79-1.12z"/>
		<path id="&lt;Compound Path&gt;" class="s2" d="m579.04 741.37c-2.1 0-4.16-0.72-5.81-2.03-4.03-3.2-4.71-9.09-1.51-13.12 1.79-2.25 4.46-3.54 7.33-3.54 2.09 0 4.16 0.72 5.8 2.03 1.96 1.55 3.19 3.77 3.47 6.25 0.29 2.48-0.41 4.92-1.96 6.88-1.79 2.24-4.46 3.53-7.32 3.53zm0.01-13.93c-1.41 0-2.73 0.63-3.6 1.73-1.57 1.99-1.24 4.88 0.74 6.45 1.93 1.53 4.92 1.18 6.44-0.74 0.77-0.96 1.11-2.16 0.97-3.37-0.14-1.22-0.75-2.31-1.71-3.07-0.82-0.66-1.8-1-2.84-1z"/>
		<path id="&lt;Path&gt;" class="s4" d="m597.77 746.91c2.4-3.02 1.89-7.4-1.12-9.79-3.01-2.39-7.39-1.89-9.78 1.12-2.4 3.01-1.89 7.4 1.12 9.79 3.01 2.39 7.39 1.89 9.78-1.12z"/>
		<path id="&lt;Compound Path&gt;" class="s2" d="m592.32 751.92c-2.1 0-4.16-0.72-5.81-2.03-4.03-3.2-4.71-9.09-1.51-13.13 1.79-2.24 4.46-3.53 7.33-3.53 2.09 0 4.16 0.72 5.8 2.03 4.03 3.2 4.71 9.09 1.51 13.13-1.79 2.24-4.45 3.53-7.32 3.53zm0.01-13.93c-1.42 0-2.73 0.63-3.6 1.73-1.57 1.98-1.24 4.87 0.74 6.45 1.92 1.53 4.92 1.18 6.44-0.74 1.57-1.98 1.24-4.87-0.74-6.45-0.82-0.65-1.8-0.99-2.84-0.99z"/>
		<path id="&lt;Path&gt;" class="s4" d="m611.05 757.45c2.4-3.01 1.89-7.39-1.12-9.78-3.01-2.4-7.39-1.89-9.78 1.12-2.4 3.01-1.89 7.39 1.12 9.79 3.01 2.39 7.39 1.89 9.78-1.13z"/>
		<path id="&lt;Compound Path&gt;" class="s2" d="m605.6 762.47h-0.01c-2.09 0-4.16-0.72-5.8-2.03-4.03-3.21-4.71-9.09-1.51-13.13 1.79-2.24 4.46-3.53 7.33-3.53 2.09 0 4.15 0.72 5.8 2.02 4.03 3.21 4.71 9.1 1.51 13.13-1.78 2.25-4.46 3.54-7.32 3.54zm0.01-13.94c-1.41 0-2.73 0.64-3.6 1.74-1.57 1.98-1.24 4.87 0.74 6.44 0.82 0.65 1.8 1 2.84 1h0.01c1.41 0 2.72-0.63 3.59-1.74 1.57-1.98 1.24-4.87-0.74-6.44-0.82-0.65-1.8-1-2.84-1z"/>
		<path id="&lt;Path&gt;" class="s2" d="m523.83 198.35c-4.69 0-9.27-2.94-13.62-8.74-0.79-1.05-0.58-2.54 0.47-3.33 1.05-0.79 2.54-0.58 3.33 0.47q5.38 7.16 10.32 6.83c5.08-0.39 8.66-6.86 8.69-6.92 0.62-1.16 2.06-1.59 3.22-0.98 1.16 0.62 1.6 2.06 0.98 3.22-0.19 0.36-4.79 8.82-12.52 9.42q-0.43 0.03-0.87 0.03z"/>
		<path id="&lt;Path&gt;" class="s2" d="m608.62 198.35c-4.68 0-9.26-2.94-13.62-8.74-0.79-1.05-0.57-2.54 0.48-3.33 1.05-0.79 2.54-0.58 3.33 0.47 3.57 4.78 7.06 7.06 10.3 6.83 5.13-0.38 8.68-6.86 8.71-6.93 0.63-1.15 2.07-1.59 3.22-0.96 1.16 0.62 1.59 2.05 0.98 3.21-0.2 0.36-4.8 8.82-12.53 9.42q-0.43 0.03-0.87 0.03z"/>
		<path id="&lt;Path&gt;" class="s2" d="m526.74 172.33c-4.03 1.66-8.32 2.84-12.67 2.75-1.16-0.02-2.37-0.15-3.37-0.76-4.47-2.71 0.86-6.3 3.41-7.2 3.74-1.33 9.95-2.93 13.73-0.99 1.04 0.54 1.9 1.53 2.06 2.69 0.23 1.83-1.34 2.75-2.78 3.36q-0.19 0.08-0.38 0.15z"/>
		<path id="&lt;Path&gt;" class="s2" d="m599.38 172.33c4.02 1.66 8.31 2.84 12.66 2.75 1.17-0.02 2.38-0.15 3.37-0.76 4.47-2.71-0.86-6.3-3.4-7.2-3.75-1.33-9.95-2.93-13.73-0.99-1.05 0.54-1.91 1.53-2.06 2.69-0.24 1.83 1.33 2.75 2.77 3.36q0.19 0.08 0.39 0.15z"/>
		<path id="&lt;Path&gt;" class="s2" d="m181.94 980.83c-1.32 0-2.38-1.06-2.38-2.38v-468.31c0-1.32 1.06-2.38 2.38-2.38 1.31 0 2.38 1.06 2.38 2.38v468.31c0 1.32-1.07 2.38-2.38 2.38z"/>
		<path id="&lt;Path&gt;" class="s2" d="m186.19 459.92h-8.51c-0.23 0-0.41 0.18-0.41 0.41v253.77c0 0.23 0.18 0.41 0.41 0.41h8.51c0.23 0 0.42-0.18 0.42-0.41v-253.77c0-0.23-0.19-0.41-0.42-0.41z"/>
		<path id="&lt;Path&gt;" class="s7" d="m329.43 955.79c-5.77-11.26-33.87-9.66-62.66-3.97 0.17-30.21-3.66-59.54-16.16-63.09-10.07-2.85-24.13 11.49-37.44 30.65-7.47-31.02-19.09-61.5-32.79-61.79-13.03-0.27-25.3 26.77-34 55.78-11.97-16.04-24.13-27.19-33.12-24.64-12.5 3.55-16.32 32.88-16.16 63.09-28.78-5.69-56.89-7.29-62.66 3.97-11.14 21.74 65.27 83.15 87.01 94.29 20.71 10.62 100.26 10.62 120.98 0 21.74-11.14 98.14-72.55 87-94.29z"/>
		<path id="&lt;Compound Path&gt;" class="s2" d="m181.94 1060.42c-22.01 0-49.74-2.16-61.58-8.22-18.81-9.64-100.75-72.68-88.03-97.49 3.28-6.42 12.46-9.67 27.28-9.67 9.6 0 21.4 1.31 35.11 3.9 0.08-26.89 3.36-58.37 17.89-62.49 8.46-2.42 19.55 4.91 32.85 21.81 7.93-25.18 20.02-53.05 34.72-53.05l0.24 0.01c15.45 0.32 26.75 30.91 33.81 58.56 15.17-20.81 27.69-29.99 37.03-27.33 14.53 4.12 17.82 35.6 17.9 62.49 13.7-2.59 25.5-3.9 35.1-3.9 14.82 0 24 3.25 27.29 9.67 12.72 24.81-69.23 87.85-88.04 97.49-11.83 6.06-39.56 8.22-61.57 8.22zm-122.33-110.62c-12.71 0-20.68 2.44-23.05 7.07-9.84 19.21 62.44 79.04 85.97 91.1 9.13 4.68 32.45 7.7 59.41 7.7 26.96 0 50.27-3.02 59.4-7.7 23.53-12.06 95.82-71.89 85.98-91.1-2.38-4.63-10.35-7.07-23.06-7.07-9.95 0-22.4 1.46-37.02 4.36l-2.86 0.56 0.02-2.91c0.19-35.45-5.21-58.17-14.44-60.79-7.62-2.17-20.17 8.61-34.84 29.71l-3.02 4.35-1.24-5.15c-8.99-37.33-20.41-59.75-30.53-59.96-9.73 0-21.51 20.22-31.67 54.08l-1.36 4.53-2.82-3.79c-12.77-17.1-23.74-25.69-30.57-23.77-9.22 2.62-14.62 25.34-14.43 60.79l0.01 2.91-2.85-0.56c-14.62-2.9-27.08-4.36-37.03-4.36z"/>
		<path id="&lt;Path&gt;" class="s8" d="m193.72 1060.42c-1.11 0-2.1-0.78-2.33-1.91-0.26-1.29 0.58-2.54 1.87-2.8 7.58-1.51 13.45-5.61 17.95-12.54 17.8-27.44 7.42-89.01-0.36-123.27-0.29-1.28 0.51-2.55 1.79-2.84 1.29-0.28 2.56 0.51 2.85 1.79 7.94 34.99 18.46 98-0.29 126.91-5.16 7.95-12.23 12.87-21.01 14.62q-0.24 0.04-0.47 0.04z"/>
		<path id="&lt;Path&gt;" class="s8" d="m222.27 977.34c-1.22 0-2.26-0.93-2.36-2.18-0.55-6.52 41.49-23.91 46.05-25.57 1.22-0.44 2.6 0.18 3.05 1.42 0.45 1.23-0.19 2.59-1.42 3.05-17.29 6.31-40.33 18.48-43.03 21.56-0.26 0.92-1.07 1.63-2.09 1.71q-0.1 0.01-0.2 0.01z"/>
		<path id="&lt;Path&gt;" class="s9" d="m895.84 83.42c-1.57 0.09-3.11 0.32-4.66 0.49q2.3-0.37 4.66-0.49z"/>
		<path id="&lt;Path&gt;" class="s8" d="m942.76 216.08c0 24.14-19.22 43.81-43.17 44.55q-3.92-0.02-7.69-0.4-0.52-0.07-1.04-0.15c-21.19-3.5-37.3-21.83-37.3-44 0-22.13 16.11-40.56 37.25-44.06-21.14-3.5-37.25-21.88-37.25-44 0-1.38 1.98-2.76 2.13-4.14 0.1-1.33 2.48-2.62 2.48-3.9v-0.14c0-0.89-1.59-1.78-1.35-2.62 0-0.09-0.96-0.14-0.91-0.19 0.09-0.55-0.24-1.09-0.09-1.58 0.34-1.18 0.49-2.32 0.94-3.4 0.34-0.99 0.62-1.92 1.06-2.81 1.82-3.89 4.08-7.49 6.89-10.69 0.79-0.89 1.5-1.68 2.33-2.47q0.96-0.97 2.06-1.87c0.44-0.44 0.93-0.84 1.37-1.18 1.82-1.48 3.79-2.81 5.86-3.94 0.99-0.6 1.97-1.09 3-1.58 0.15-0.05 0.4-0.15 0.6-0.25q1.62-0.74 3.25-1.33c0.19-0.05 0.39-0.15 0.59-0.2q1.55-0.5 3.1-0.93c0.2-0.05 0.45-0.1 0.64-0.15 1.14-0.3 2.32-0.54 3.5-0.69q0.08-0.06 0.15-0.05c0.1 0 0.2-0.05 0.35-0.05 1.47-0.15 2.85-0.34 4.33-0.44 0.79-0.05 1.53-0.05 2.32-0.05 24.64 0 44.6 20.01 44.6 44.65 0 22.12-16.12 40.5-37.26 44 21.14 3.5 37.26 21.93 37.26 44.06z"/>
		<path id="&lt;Path&gt;" class="s2" d="m900.97 83.27c-0.94 0-1.88 0-2.81 0.1 24.64 0 44.6 20.01 44.6 44.65 0 22.12-16.12 40.5-37.26 44q-3.56-0.59-7.34-0.59-3.78 0-7.35 0.59c-21.14 3.5-37.25 21.93-37.25 44.06 0 22.17 16.11 40.5 37.3 44q0.52 0.08 1.04 0.15 3.09 0.45 6.26 0.45c0.49 0 0.93 0 1.43-0.05 0.44 0.05 0.93 0.05 1.38 0.05 48.98 0 88.7-39.72 88.7-88.71 0-48.98-39.72-88.7-88.7-88.7z"/>
		<path id="&lt;Compound Path&gt;" class="s2" d="m900.97 261.86c-0.45 0-0.94 0-1.39-0.04-2.62 0.23-5.21-0.03-7.85-0.41l-1.04-0.15c-22.21-3.67-38.32-22.67-38.32-45.18 0-22.54 16.09-41.56 38.25-45.23 4.75-0.79 10.11-0.81 14.88-0.03 20.91-3.56 36.07-21.53 36.07-42.8 0-23.97-19.48-43.46-43.41-43.46l-0.12-2.37c0.97-0.11 1.95-0.11 2.93-0.11 49.56 0 89.89 40.33 89.89 89.89 0 49.57-40.33 89.89-89.89 89.89zm-1.38-2.43l0.13 0.01c0.4 0.05 0.83 0.05 1.25 0.05 48.25 0 87.51-39.26 87.51-87.52 0-43.2-31.47-79.19-72.68-86.25 16.51 6.93 28.14 23.28 28.14 42.3 0 22.51-16.08 41.51-38.25 45.17l-0.19 0.04-0.2-0.04c-4.56-0.76-9.73-0.75-14.29 0-21.01 3.48-36.26 21.52-36.26 42.89 0 21.34 15.27 39.36 36.31 42.83l1 0.14c2.08 0.3 4.05 0.35 6.2 0.44 0.41 0 0.79-0.01 1.21-0.05z"/>
		<path id="&lt;Compound Path&gt;" class="s1" d="m898.16 83.37c-0.79 0-1.53 0-2.32 0.05-1.48 0.1-2.86 0.29-4.33 0.44-0.15 0-0.25 0.05-0.35 0.05q-0.01 0.01-0.03 0.01c-44.31 4.92-78.87 42.41-78.87 88.05 0 45.59 34.35 83.14 78.6 88.11-21.19-3.5-37.3-21.83-37.3-44 0-22.13 16.11-40.56 37.25-44.06q3.57 0.59 7.35 0.59 3.78 0 7.34-0.59c21.14-3.5 37.26-21.88 37.26-44 0-24.64-19.96-44.65-44.6-44.65zm-9.19 0.99c0.72-0.15 1.42-0.32 2.14-0.43q-0.05-0.01-0.1 0.03c-0.69 0.09-1.36 0.26-2.04 0.4z"/>
		<path id="&lt;Compound Path&gt;" class="s2" d="m890.87 262.46q-0.14 0-0.27-0.01c-46.01-5.18-80.71-44.07-80.71-90.48 0-46.38 34.74-85.21 80.84-90.4q0.06-0.01 0.13-0.02 0.17-0.04 0.47-0.06l1.43-0.16c0.97-0.11 1.92-0.22 2.93-0.28 0.84-0.06 1.63-0.06 2.47-0.06 25.9 0 46.97 21.1 46.97 47.03 0 23.09-16.5 42.58-39.24 46.35-4.83 0.81-10.21 0.83-15.07 0.06-20.24 3.54-34.88 20.99-34.88 41.65 0 20.71 14.78 38.2 35.17 41.63 1.22 0.1 2.18 1.13 2.18 2.37 0 1.32-1.07 2.38-2.38 2.38q-0.02 0.01-0.04 0zm-2.47-175.79c-42.26 6.16-73.76 42.31-73.76 85.3 0 35.46 21.38 66.3 52.52 79.48-9.89-8.65-15.98-21.35-15.98-35.37 0-23.13 16.51-42.64 39.25-46.4q0.38-0.07 0.78 0c4.44 0.74 9.45 0.74 13.9 0 20.44-3.39 35.27-20.91 35.27-41.66 0-23.31-18.94-42.27-42.22-42.27-0.77 0-1.43 0-2.17 0.04q-1.36 0.1-2.69 0.27l-1.56 0.17q-0.01 0-0.03 0-0.2 0.06-0.4 0.09-0.26 0.03-0.51 0.08l-1.34 0.29q-0.55 0.11-1.06-0.02z"/>
		<path id="&lt;Path&gt;" class="s2" d="m896.67 135.63c-7.33 0-13.25-5.92-13.25-13.24 0-7.33 5.92-13.25 13.25-13.25 7.32 0 13.24 5.92 13.24 13.25 0 7.32-5.92 13.24-13.24 13.24z"/>
		<path id="&lt;Path&gt;" class="s1" d="m896.67 224.33c-7.33 0-13.25-5.92-13.25-13.24 0-7.33 5.92-13.25 13.25-13.25 7.32 0 13.24 5.92 13.24 13.25 0 7.32-5.92 13.24-13.24 13.24z"/>
		<path id="&lt;Path&gt;" class="s1" d="m257.18 107.67c0-12.86-10.42-23.28-23.27-23.28-12.86 0-23.28 10.42-23.28 23.28 0 12.85 10.42 46.14 23.28 46.14 12.85 0 23.27-33.29 23.27-46.14z"/>
		<path id="&lt;Compound Path&gt;" class="s2" d="m233.91 156.19c-15.58 0-25.65-36.05-25.65-48.52 0-14.15 11.5-25.66 25.65-25.66 14.14 0 25.65 11.51 25.65 25.66 0 12.47-10.08 48.52-25.65 48.52zm0-69.42c-11.52 0-20.9 9.37-20.9 20.9 0 13.39 10.71 43.76 20.9 43.76 10.18 0 20.89-30.37 20.89-43.76 0-11.53-9.37-20.9-20.89-20.9z"/>
		<path id="&lt;Path&gt;" class="s1" d="m257.18 223.83c0 12.85-10.42 23.27-23.27 23.27-12.86 0-23.28-10.42-23.28-23.27 0-12.86 10.42-46.15 23.28-46.15 12.85 0 23.27 33.29 23.27 46.15z"/>
		<path id="&lt;Compound Path&gt;" class="s2" d="m233.91 249.48c-14.15 0-25.65-11.51-25.65-25.66 0-12.47 10.07-48.51 25.65-48.51 15.57 0 25.65 36.04 25.65 48.51 0 14.15-11.51 25.66-25.65 25.66zm0-69.42c-10.19 0-20.9 30.37-20.9 43.76 0 11.53 9.38 20.9 20.9 20.9 11.52 0 20.89-9.37 20.89-20.9 0-13.39-10.71-43.76-20.89-43.76z"/>
		<path id="&lt;Path&gt;" class="s1" d="m292.79 189.02c12.85 0 23.27-10.42 23.27-23.27 0-12.86-10.42-23.28-23.27-23.28-12.85 0-46.14 10.42-46.14 23.28 0 12.85 33.29 23.27 46.14 23.27z"/>
		<path id="&lt;Compound Path&gt;" class="s2" d="m292.79 191.4c-12.47 0-48.52-10.08-48.52-25.65 0-15.58 36.05-25.66 48.52-25.66 14.14 0 25.65 11.51 25.65 25.66 0 14.14-11.51 25.65-25.65 25.65zm0-46.55c-13.4 0-43.77 10.71-43.77 20.9 0 10.18 30.37 20.89 43.77 20.89 11.52 0 20.89-9.37 20.89-20.89 0-11.53-9.37-20.9-20.89-20.9z"/>
		<path id="&lt;Path&gt;" class="s1" d="m176.63 189.02c-12.85 0-23.27-10.42-23.27-23.27 0-12.86 10.42-23.28 23.27-23.28 12.85 0 46.14 10.42 46.14 23.28 0 12.85-33.29 23.27-46.14 23.27z"/>
		<path id="&lt;Compound Path&gt;" class="s2" d="m176.63 191.4c-14.15 0-25.65-11.51-25.65-25.65 0-14.15 11.5-25.66 25.65-25.66 12.47 0 48.52 10.08 48.52 25.66 0 15.57-36.05 25.65-48.52 25.65zm0-46.55c-11.52 0-20.9 9.37-20.9 20.9 0 11.52 9.38 20.89 20.9 20.89 13.4 0 43.76-10.71 43.76-20.89 0-10.19-30.36-20.9-43.76-20.9z"/>
		<path id="&lt;Path&gt;" class="s1" d="m292.23 139.93c9.09-9.09 9.09-23.82 0-32.91-9.08-9.09-23.82-9.09-32.91 0-9.09 9.09-25.26 39.99-16.17 49.08 9.09 9.09 40-7.08 49.08-16.17z"/>
		<path id="&lt;Compound Path&gt;" class="s2" d="m251.23 161.16q0 0 0 0c-4.23 0-7.52-1.13-9.76-3.38-11.01-11.01 7.35-43.62 16.17-52.44 4.84-4.85 11.29-7.52 18.14-7.52 6.85 0 13.29 2.67 18.13 7.52 4.85 4.84 7.52 11.28 7.52 18.13 0 6.85-2.67 13.3-7.52 18.14-7.87 7.87-29.26 19.55-42.68 19.55zm24.55-58.58c-5.58 0-10.83 2.17-14.78 6.12-9.47 9.47-23.37 38.52-16.17 45.72q1.99 1.98 6.4 1.99c11.68 0 32.15-10.99 39.32-18.16 3.95-3.95 6.12-9.2 6.12-14.78 0-5.58-2.17-10.82-6.12-14.77-3.94-3.95-9.19-6.12-14.77-6.12z"/>
		<path id="&lt;Path&gt;" class="s1" d="m210.1 222.07c-9.09 9.09-23.83 9.09-32.92 0-9.08-9.09-9.08-23.83 0-32.91 9.09-9.09 40-25.27 49.09-16.18 9.09 9.09-7.09 40-16.17 49.09z"/>
		<path id="&lt;Compound Path&gt;" class="s2" d="m193.64 231.26c-6.85 0-13.29-2.67-18.14-7.51-4.84-4.85-7.51-11.29-7.51-18.14 0-6.85 2.67-13.29 7.51-18.14 7.87-7.87 29.26-19.55 42.68-19.55 4.24 0 7.53 1.14 9.77 3.38 11.01 11.01-7.35 43.63-16.17 52.45-4.85 4.84-11.29 7.51-18.14 7.51zm24.54-58.58c-11.68 0-32.14 10.99-39.31 18.16-3.95 3.94-6.12 9.19-6.12 14.77 0 5.58 2.17 10.83 6.12 14.78 3.94 3.94 9.19 6.12 14.77 6.12 5.58 0 10.83-2.18 14.77-6.12 9.48-9.48 23.38-38.52 16.18-45.73-1.32-1.31-3.48-1.98-6.41-1.98z"/>
		<path id="&lt;Path&gt;" class="s1" d="m177.18 139.93c-9.08-9.09-9.08-23.82 0-32.91 9.09-9.09 23.83-9.09 32.92 0 9.08 9.09 25.26 39.99 16.17 49.08-9.09 9.09-40-7.08-49.09-16.17z"/>
		<path id="&lt;Compound Path&gt;" class="s2" d="m218.19 161.16c-13.42 0-34.81-11.68-42.69-19.55-4.84-4.84-7.51-11.29-7.51-18.14 0-6.85 2.67-13.29 7.51-18.13 4.85-4.85 11.29-7.52 18.14-7.52 6.85 0 13.29 2.67 18.14 7.52 8.82 8.81 27.18 41.43 16.17 52.44-2.24 2.25-5.53 3.38-9.76 3.38zm-24.55-58.58c-5.58 0-10.83 2.17-14.77 6.12-3.95 3.95-6.12 9.19-6.12 14.77 0 5.58 2.17 10.83 6.12 14.78 7.17 7.17 27.64 18.16 39.32 18.16q4.4-0.01 6.4-1.99c3.16-3.16 2.49-11.37-1.8-21.97-4.17-10.33-10.39-19.77-14.38-23.75-3.94-3.95-9.19-6.12-14.77-6.12z"/>
		<path id="&lt;Path&gt;" class="s1" d="m259.32 222.07c9.09 9.09 23.83 9.09 32.91 0 9.09-9.09 9.09-23.83 0-32.91-9.08-9.09-39.99-25.27-49.08-16.18-9.09 9.09 7.08 40 16.17 49.09z"/>
		<path id="&lt;Compound Path&gt;" class="s2" d="m275.78 231.26c-6.85 0-13.3-2.67-18.14-7.51-8.82-8.82-27.18-41.44-16.17-52.45 2.24-2.24 5.53-3.38 9.76-3.38 13.42 0 34.81 11.68 42.68 19.55 4.85 4.85 7.52 11.29 7.52 18.14 0 6.85-2.67 13.29-7.52 18.14-4.84 4.84-11.28 7.51-18.13 7.51zm-24.55-58.58c-2.93 0-5.08 0.67-6.4 1.98-7.2 7.21 6.7 36.25 16.17 45.73 3.95 3.94 9.2 6.12 14.78 6.12 5.58 0 10.83-2.18 14.77-6.12 3.95-3.95 6.12-9.2 6.12-14.78 0-5.58-2.17-10.83-6.12-14.77-7.17-7.17-27.63-18.16-39.32-18.16z"/>
		<path id="&lt;Path&gt;" class="s4" d="m233.91 187.11c-12.87 0-23.28-10.4-23.28-23.27 0-12.87 10.41-23.27 23.28-23.27 12.87 0 23.27 10.4 23.27 23.27 0 12.87-10.4 23.27-23.27 23.27z"/>
		<path id="&lt;Compound Path&gt;" class="s2" d="m233.91 189.49c-14.19 0-25.65-11.47-25.65-25.65 0-14.18 11.46-25.65 25.65-25.65 14.18 0 25.65 11.47 25.65 25.65 0 14.18-11.47 25.65-25.65 25.65zm0-4.76c-11.56 0-20.9-9.34-20.9-20.89 0-11.55 9.34-20.89 20.9-20.89 11.55 0 20.89 9.34 20.89 20.89 0 11.55-9.34 20.89-20.89 20.89z"/>
		<path id="&lt;Path&gt;" class="s1" d="m954.77 402.5c0-13.62-11.04-24.66-24.65-24.66-13.62 0-24.66 11.04-24.66 24.66 0 13.61 11.04 48.88 24.66 48.88 13.61 0 24.65-35.27 24.65-48.88z"/>
		<path id="&lt;Compound Path&gt;" class="s3" d="m930.12 453.76c-16.12 0-27.04-38.48-27.04-51.26 0-14.91 12.13-27.03 27.04-27.03 14.9 0 27.03 12.12 27.03 27.03 0 12.78-10.92 51.26-27.03 51.26zm0-73.54c-12.29 0-22.28 9.99-22.28 22.28 0 14.23 11.42 46.5 22.28 46.5 10.85 0 22.27-32.27 22.27-46.5 0-12.29-9.99-22.28-22.27-22.28z"/>
		<path id="&lt;Path&gt;" class="s1" d="m954.77 525.55c0 13.62-11.04 24.66-24.65 24.66-13.62 0-24.66-11.04-24.66-24.66 0-13.61 11.04-48.88 24.66-48.88 13.61 0 24.65 35.27 24.65 48.88z"/>
		<path id="&lt;Compound Path&gt;" class="s3" d="m930.12 552.58c-14.91 0-27.04-12.12-27.04-27.03 0-12.78 10.92-51.26 27.04-51.26 16.11 0 27.03 38.48 27.03 51.26 0 14.91-12.13 27.03-27.03 27.03zm0-73.53c-10.86 0-22.28 32.27-22.28 46.5 0 12.29 9.99 22.28 22.28 22.28 12.28 0 22.27-9.99 22.27-22.28 0-14.23-11.42-46.5-22.27-46.5z"/>
		<path id="&lt;Path&gt;" class="s1" d="m992.49 488.68c13.62 0 24.66-11.04 24.66-24.65 0-13.62-11.04-24.66-24.66-24.66-13.61 0-48.88 11.04-48.88 24.66 0 13.61 35.27 24.65 48.88 24.65z"/>
		<path id="&lt;Compound Path&gt;" class="s3" d="m992.49 491.06c-12.78 0-51.26-10.92-51.26-27.03 0-16.12 38.48-27.04 51.26-27.04 14.91 0 27.03 12.13 27.03 27.04 0 14.9-12.12 27.03-27.03 27.03zm0-49.31c-14.23 0-46.5 11.42-46.5 22.28 0 10.86 32.27 22.27 46.5 22.27 12.28 0 22.28-9.99 22.28-22.27 0-12.29-10-22.28-22.28-22.28z"/>
		<path id="&lt;Path&gt;" class="s1" d="m869.44 488.68c-13.62 0-24.66-11.04-24.66-24.65 0-13.62 11.04-24.66 24.66-24.66 13.61 0 48.88 11.04 48.88 24.66 0 13.61-35.27 24.65-48.88 24.65z"/>
		<path id="&lt;Compound Path&gt;" class="s3" d="m869.44 491.06c-14.91 0-27.03-12.13-27.03-27.03 0-14.91 12.12-27.04 27.03-27.04 12.78 0 51.26 10.92 51.26 27.04 0 16.11-38.48 27.03-51.26 27.03zm0-49.31c-12.28 0-22.28 9.99-22.28 22.28 0 12.28 10 22.27 22.28 22.27 14.23 0 46.5-11.41 46.5-22.27 0-10.86-32.27-22.28-46.5-22.28z"/>
		<path id="&lt;Path&gt;" class="s1" d="m991.9 436.68c9.63-9.63 9.63-25.24 0-34.87-9.62-9.63-25.23-9.63-34.86 0-9.63 9.63-26.76 42.37-17.13 52 9.63 9.63 42.37-7.51 51.99-17.13z"/>
		<path id="&lt;Compound Path&gt;" class="s3" d="m948.47 459.03q0 0 0 0c-4.45 0-7.9-1.19-10.25-3.54-6.31-6.32-3.03-19.02 0.83-28.57 4.19-10.36 10.89-21.38 16.31-26.79 5.11-5.11 11.89-7.92 19.11-7.92 7.22 0 14.01 2.81 19.12 7.92 5.1 5.11 7.91 11.89 7.91 19.11 0 7.22-2.81 14.01-7.91 19.12-8.33 8.32-30.94 20.67-45.12 20.67zm26-62.06c-5.95 0-11.54 2.32-15.75 6.52-4.23 4.23-10.83 14.25-15.26 25.21-4.56 11.28-5.26 20.04-1.87 23.43 1.42 1.42 3.74 2.14 6.88 2.14 12.41 0 34.14-11.66 41.75-19.27 4.21-4.21 6.53-9.81 6.53-15.76 0-5.95-2.32-11.54-6.53-15.75-4.2-4.2-9.8-6.52-15.75-6.52z"/>
		<path id="&lt;Path&gt;" class="s1" d="m904.89 523.69c-9.63 9.63-25.24 9.63-34.86 0-9.63-9.63-9.63-25.24 0-34.87 9.62-9.62 42.37-26.76 51.99-17.13 9.63 9.63-7.5 42.37-17.13 52z"/>
		<path id="&lt;Compound Path&gt;" class="s3" d="m887.46 533.29c-7.22 0-14.01-2.81-19.12-7.92-10.54-10.54-10.54-27.69 0-38.23 8.33-8.32 30.94-20.67 45.12-20.67 4.45 0 7.9 1.19 10.25 3.54 11.39 11.4-8.1 46.33-17.14 55.36-5.1 5.11-11.89 7.92-19.11 7.92zm26-62.06c-12.41 0-34.14 11.66-41.75 19.28-8.69 8.68-8.69 22.81 0 31.5 4.21 4.21 9.8 6.53 15.75 6.53 5.95 0 11.54-2.32 15.75-6.53 10.06-10.07 24.81-40.96 17.13-48.64-1.42-1.42-3.74-2.14-6.88-2.14z"/>
		<path id="&lt;Path&gt;" class="s1" d="m870.03 436.68c-9.63-9.63-9.63-25.24 0-34.87 9.62-9.63 25.23-9.63 34.86 0 9.63 9.63 26.76 42.37 17.13 52-9.62 9.63-42.37-7.51-51.99-17.13z"/>
		<path id="&lt;Compound Path&gt;" class="s3" d="m913.46 459.03c-14.18 0-36.79-12.35-45.12-20.67-5.1-5.11-7.91-11.9-7.91-19.12 0-7.22 2.81-14 7.91-19.11 5.11-5.11 11.9-7.92 19.12-7.92 7.22 0 14.01 2.81 19.11 7.92 5.42 5.41 12.12 16.43 16.31 26.79 3.86 9.55 7.14 22.25 0.83 28.57-2.35 2.35-5.8 3.54-10.25 3.54zm-26-62.06c-5.95 0-11.54 2.32-15.75 6.52-4.21 4.21-6.53 9.8-6.53 15.75 0 5.95 2.32 11.55 6.53 15.76 7.61 7.61 29.34 19.27 41.75 19.27 3.14 0 5.46-0.72 6.88-2.14 3.39-3.39 2.69-12.15-1.87-23.43-4.43-10.96-11.03-20.98-15.26-25.21-4.21-4.2-9.8-6.52-15.75-6.52z"/>
		<path id="&lt;Path&gt;" class="s1" d="m957.04 523.69c9.63 9.63 25.24 9.63 34.86 0 9.63-9.63 9.63-25.24 0-34.87-9.62-9.62-42.36-26.76-51.99-17.13-9.63 9.63 7.5 42.37 17.13 52z"/>
		<path id="&lt;Compound Path&gt;" class="s3" d="m974.47 533.29c-7.22 0-14-2.81-19.11-7.92-9.04-9.03-28.53-43.96-17.14-55.36 2.35-2.35 5.8-3.54 10.25-3.54 14.18 0 36.79 12.35 45.12 20.67 10.54 10.54 10.54 27.69 0 38.23-5.11 5.11-11.9 7.92-19.12 7.92zm-26-62.06c-3.14 0-5.46 0.72-6.88 2.14-7.68 7.68 7.07 38.57 17.13 48.64 4.21 4.21 9.8 6.53 15.75 6.53 5.95 0 11.55-2.32 15.75-6.53 8.69-8.69 8.69-22.82 0-31.5-7.61-7.62-29.34-19.28-41.75-19.28z"/>
		<path id="&lt;Path&gt;" class="s4" d="m930.12 486.66c-13.64 0-24.66-11.02-24.66-24.65 0-13.64 11.02-24.66 24.66-24.66 13.63 0 24.65 11.02 24.65 24.66 0 13.63-11.02 24.65-24.65 24.65z"/>
		<path id="&lt;Compound Path&gt;" class="s2" d="m930.12 489.04c-14.95 0-27.04-12.09-27.04-27.03 0-14.95 12.09-27.04 27.04-27.04 14.94 0 27.03 12.09 27.03 27.04 0 14.94-12.09 27.03-27.03 27.03zm0-4.76c-12.32 0-22.28-9.96-22.28-22.27 0-12.32 9.96-22.28 22.28-22.28 12.31 0 22.27 9.96 22.27 22.28 0 12.31-9.96 22.27-22.27 22.27z"/>
		<path id="&lt;Path&gt;" class="s2" d="m870.29 767.71c-13.88-9.04-14.93-11.77-7.15-21.87 7.78-10.09 27.34-18.08 40.8-12.2 13.46 5.89 19.14 14.09 10.72 22.51-8.41 8.41-6.31 9.25-24.18 11.35-17.88 2.1-20.19 0.21-20.19 0.21z"/>
		<path id="&lt;Path&gt;" class="s10" d="m950.83 905.03c17.04-5.04 49.84-14.51 43.53-42.9-6.3-28.39-24.6-39.11-61.19-41-36.59-1.9-128.32 3.5-121.76 66.87 3.78 36.59 139.42 17.03 139.42 17.03z"/>
		<path id="&lt;Compound Path&gt;" class="s2" d="m879.1 912.63q0.01 0 0 0c-44.81 0-68.38-8.2-70.06-24.39-1.62-15.65 2.47-29.03 12.15-39.77 24.44-27.09 78.01-30.02 99.91-30.02 4.22 0 8.32 0.1 12.19 0.3 38.71 2.01 57.07 14.42 63.4 42.87 6.73 30.31-28.04 40.62-44.75 45.57l-0.43 0.12q-0.17 0.05-0.34 0.08c-0.36 0.05-36.78 5.24-72.07 5.24zm42-89.42c-21.26 0-73.22 2.77-96.38 28.45-8.74 9.69-12.42 21.83-10.94 36.1 1.36 13.16 23.95 20.12 65.32 20.12 33.73 0 68.51-4.79 71.22-5.18l0.27-0.07c16.51-4.89 47.23-14 41.45-39.98-5.84-26.28-22.38-37.25-58.99-39.15-3.79-0.19-7.81-0.29-11.95-0.29z"/>
		<path id="&lt;Path&gt;" class="s2" d="m769.35 994.41c2.44-38.95 75.71-89.17 164.87-92.53 89.16-3.37 114.4 42.06 114.4 74.02 0 31.97-45.42 75.71-117.76 80.75-72.34 5.05-163.19-35.32-161.51-62.24z"/>
		<path id="&lt;Path&gt;" class="s1" d="m936.79 997.61q1.25-2.19 2.53-4.35c20.96-35.28 56.28-58.47 92.48-60.89q-1.06-1.19-2.19-2.35c-36.31 3.2-71.47 26.62-92.46 61.94q-1.29 2.19-2.55 4.4c-3.51 6.12-7.13 12.45-12.29 17.2-13.43 12.4-34.4 11.89-48.98 10.44-8.28-0.83-16.7-2.35-22.25-7.72-5.07-4.91-5.81-11.19-5.54-15.6 0.53-8.72 5.47-17.82 12.57-23.2 10.36-7.85 23.71-10.49 36.62-13.05q3.55-0.69 7.05-1.43c26.83-5.71 45.2-15.7 56.19-30.55 5.65-7.65 10.17-19.83 5.37-29.89q-1.43-0.14-2.88-0.25 0.03 0.03 0.05 0.06c5.39 9.26 0.9 21.18-4.58 28.58-10.59 14.33-28.48 24.01-54.67 29.58q-3.49 0.74-7.02 1.42c-13.19 2.62-26.83 5.32-37.65 13.52-7.67 5.8-12.99 15.64-13.57 25.06-0.43 7.07 1.75 13.15 6.31 17.57 6.09 5.91 15.01 7.53 23.75 8.41 15.06 1.5 36.75 2 50.94-11.09 5.45-5.02 9.17-11.52 12.77-17.81z"/>
		<path id="&lt;Path&gt;" class="s1" d="m785.96 1017.8c2.36-1.85 4.67-3.81 6.85-6.02 11.66-11.83 19.29-26.67 26.67-41.03l25.19-48.97q-1.85 0.8-3.68 1.63l-23.75 46.19c-7.29 14.19-14.84 28.86-26.22 40.4-2.27 2.31-4.68 4.33-7.15 6.22 0.66 0.52 1.38 1.05 2.09 1.58z"/>
		<path id="&lt;Path&gt;" class="s1" d="m1039.05 1003.22c3.92-5.89 6.64-11.8 8.14-17.54 0.4-2.64 0.62-5.33 0.32-8.03-0.84-7.46-5.24-13.66-11.21-15.8-4.27-1.53-8.92-0.92-12.9-0.13-17.75 3.55-34.39 12.74-46.84 25.87-6.51 6.87-11.88 14.75-17.08 22.37l-31.95 46.86q1.59-0.06 3.17-0.16l30.87-45.28c5.14-7.54 10.45-15.33 16.83-22.05 12.09-12.76 28.25-21.69 45.49-25.13 3.65-0.73 7.86-1.3 11.56 0.03 5.76 2.06 8.95 8.37 9.55 13.7 0.7 6.17-1.09 12.3-3.13 18.01q-1.31 3.68-2.82 7.28z"/>
		<path id="&lt;Path&gt;" class="s1" d="m978.63 1046.41c-0.3 0.24-0.62 0.44-0.93 0.67 2.42-0.85 4.74-1.77 7.05-2.71 8.8-8.63 14.65-20.13 16.28-32.39 0.04-0.35-0.06-0.7-0.29-0.97-0.22-0.28-0.55-0.44-0.9-0.46-10.19-0.49-20.88 4.59-29.57 13.89-6.29 6.72-10.99 14.78-15.54 22.58q-1.36 2.35-2.74 4.67c-0.5 0.84-1.01 1.63-1.51 2.45 1.1-0.19 2.23-0.37 3.32-0.59q0.18-0.28 0.36-0.57 1.38-2.33 2.75-4.69c4.48-7.68 9.1-15.61 15.21-22.13 7.78-8.32 17.25-13.04 26.2-13.11-2.1 13.09-9.22 25.19-19.69 33.36z"/>
		<path id="&lt;Path&gt;" class="s1" d="m996.66 985.78c-6.91-0.32-14.04-1.09-20.13-4.83-2.65-1.63-5.02-3.77-7.51-5.7-8.01-6.18-17.35-10.11-26.96-11.36-9.09-1.18-19.11-0.27-26.46-6.47-9.01-7.58-9.21-25.22-0.38-33.07 2.92-2.6 6.47-4.12 10.01-5.39 28.73-10.24 61.41-4.98 86.52 13.93 6.68 5.04 13.14 11.46 15.59 20.15 3.05 10.84-1.55 23.79-10.37 29.16-6.11 3.73-13.38 3.89-20.31 3.58z"/>
		<path id="&lt;Path&gt;" class="s5" d="m945.16 807.25c6.12-11.77-17.67-45.43-58.68-43.53-41 1.89-54.25 34.06-30.28 51.1 23.98 17.03 80.75 8.2 88.96-7.57z"/>
		<path id="&lt;Compound Path&gt;" class="s2" d="m893.61 826.45q-0.01 0-0.01 0c-16.21 0-29.98-3.44-38.78-9.69-10.65-7.57-15.1-18.58-11.91-29.45 4.34-14.76 21.4-24.95 43.47-25.97 29.15-1.35 49.43 14.56 57.64 28.08 4.48 7.38 5.66 14.28 3.25 18.92-6.12 11.76-32.21 18.11-53.66 18.11zm-3.82-60.43q-1.58 0-3.2 0.07c-20 0.93-35.36 9.78-39.12 22.56-2.59 8.83 1.19 17.89 10.11 24.23 8 5.68 20.79 8.81 36.02 8.81q0.01 0 0.01 0c22.8 0 44.98-6.97 49.44-15.54 1.58-3.05 0.4-8.51-3.09-14.26-7.25-11.93-24.74-25.87-50.17-25.87z"/>
		<path id="&lt;Path&gt;" class="s2" d="m866.59 797.35l1.22 0.23c12.04 2.22 24.26 3.24 35.75 4.09 1.12 0.09 2.41 0.18 3.62-0.27 1.31-0.5 2.16-1.43 2.46-2.71 0.8-3.4-2.47-8.74-4.31-10.72-3.26-3.5-7.75-5.73-12.06-7.71-3.53-1.63-7.23-3.01-10.79-4.35-3.26-1.22-6.62-2.48-9.84-3.92-2.46-1.09-6.15-2.39-10.1-2.74q-1.95 0.93-3.71 1.99c2.47 0.72 4.95 1.55 6.95 3.13 2.03 1.61 3.74 4.49 2.97 7.27-0.9 3.22-4.94 4.78-8.08 4.26-3.71-0.64-6.79-3.43-8.79-5.48-0.63-0.64-1.21-1.35-1.57-2.14-0.28 0.33-0.61 0.65-0.88 0.99 0.44 0.76 0.99 1.46 1.55 2.03 2.12 2.17 5.4 5.14 9.47 5.84 3.7 0.62 8.39-1.16 9.51-5.16 0.93-3.34-1.04-6.73-3.4-8.59-1.84-1.46-4.06-2.33-6.22-3.01q0.12 0 0.25 0c4.43 0 8.78 1.54 11.54 2.77 3.25 1.45 6.63 2.72 9.9 3.94 3.55 1.33 7.22 2.7 10.71 4.31 4.37 2.02 8.56 4.1 11.66 7.43 1.75 1.87 4.66 6.81 4.02 9.57q-0.31 1.3-1.69 1.81c-0.94 0.36-2.03 0.28-3.09 0.2-11.44-0.85-23.62-1.86-35.6-4.07l-1.23-0.23c-7.62-1.39-16.94-3.17-21.31-9.98-0.19 0.47-0.44 0.93-0.59 1.41 4.82 6.67 14.07 8.42 21.68 9.81z"/>
		<path id="&lt;Path&gt;" class="s2" d="m916.14 812.74q1.28 0.08 2.75 0.09c2.47 0 5.21-0.31 7.42-1.79 2.53-1.69 4.22-4.9 4.63-8.8 0.65-6-1.56-12.6-6.05-18.11-4.45-5.46-10.41-9.23-15.1-11.9-6.03-3.43-12.29-6.23-18.69-8.48-1.31-0.03-2.62-0.07-3.98-0.03 7.57 2.38 14.96 5.58 22.05 9.61 4.59 2.61 10.42 6.3 14.74 11.6 4.28 5.25 6.38 11.51 5.78 17.17-0.38 3.53-1.87 6.4-4.08 7.89-2.53 1.7-5.75 1.69-9.4 1.49-13.46-0.7-27.38-1.42-40.95-3.8-11.79-2.07-21.96-5.19-30.91-9.42 0.1 0.52 0.13 1.04 0.27 1.56 8.85 4.08 18.89 7.07 30.42 9.1 13.65 2.39 27.6 3.12 41.1 3.82z"/>
		<path id="&lt;Path&gt;" class="s1" d="m903.16 859.38c1.3 4.13 3.48 7.89 6.18 10.36 4.3 3.93 10.53 4.8 16.35 4.89 13.62 0.22 28.73-3.57 36.77-15.47 7-10.35 5.39-22.91-7.89-26.35-13.37-3.45-39.72-4.78-49.5 7.72-3.78 4.84-3.95 12.32-1.91 18.85z"/>
		<path id="&lt;Path&gt;" class="s1" d="m909.13 805.07c5.39 0.07 10.84 0.04 16.11-1.1 1.39-0.3 2.79-0.69 4.02-1.41 4.1-2.37 5.28-8.59 2.35-12.31-0.02-2.81-1.37-5.58-3.57-7.33-1.08-0.86-2.34-1.48-3.61-2.03-5.24-2.26-11.11-3.46-16.71-2.31-5.6 1.14-10.83 4.92-12.73 10.31-1.9 5.39 0.25 12.19 5.37 14.72 2.68 1.32 5.78 1.42 8.77 1.46z"/>
		<path id="&lt;Path&gt;" class="s1" d="m891.4 751.16c3.78 0.74 7.69 0.5 11.54 0.24 4.22-0.29 7.65-2.88 6.86-7.58-1.07-6.31-13.93-7.11-18.63-6.88-2.02 0.09-4.07 0.39-5.89 1.29-9.17 4.53-0.09 11.66 5.87 12.89q0.12 0.02 0.25 0.04z"/>
	</g>
</svg>