<svg version="1.2" xmlns="http://www.w3.org/2000/svg" viewBox="0 0 1080 1080" width="1080" height="1080">
	<style>
		.s0 { fill: #f2c9cc } 
		.s1 { fill: #ffffff } 
		.s2 { fill: #333333 } 
		.s3 { fill: #290a43 } 
		.s4 { fill: #d6876b } 
		.s5 { fill: #fc5e71 } 
		.s6 { fill: #f9eddd } 
		.s7 { fill: #f2cf63 } 
		.s8 { fill: #f29199 } 
		.s9 { fill: #ccd7f2 } 
	</style>
	<g id="Layer 1">
		<path id="&lt;Path&gt;" class="s0" d="m464.72 179.96c-45.42-30.7-108.44-18.93-161.36-1.33-42.5 14.12-87.46 33.84-108.5 73.37-19.43 36.52-13.53 80.95-4.47 121.31 9.07 40.36 20.85 82.09 11.6 122.4-7.92 34.56-30.38 63.71-45.2 95.91-27.21 59.16-24.58 136.7 22.63 181.56 30.14 28.64 73 39.71 114.43 43.3 82.52 7.15 165.09-14.78 247.08-6.93 76.27 7.3 154.32 40.05 230.95 17.78 122.98-35.72 173.9-190.27 144.53-304.67-11.66-45.38-29.47-88.75-44.06-133.19-18.91-57.6-10.64-160.53-66.84-196-24.81-15.66-55.02-19.99-84.32-21.75-68.14-4.1-136.99 3.78-202.44 23.18-8.88 2.63-18.31 5.49-27.24 3.01-8.08-2.24-14.31-8.46-20.9-13.65q-2.89-2.28-5.89-4.3z"/>
		<path id="&lt;Path&gt;" class="s1" d="m15.79 447.25c-5.12-5.09-9.32-21.82 3.35-26.25 12.68-4.43 32.93 21.18 39.55 23.69 6.62 2.51 45.53 2.61 45.53 2.61 0 0-22.38-17.42-27.55-32.07-5.17-14.66 5.55-18.36 12.61-17.81 7.06 0.56 28.74 17.14 34.96 20.03 6.22 2.89 29.9 2.6 44.34 7.25 14.43 4.65 25.25 20.92 25.25 20.92l4.37 8.1 0.03 0.06 14.25 30.24 74.38 130.3 91.23-132.22 65.9 111.69c0 0-65.9 153.38-157.13 153.38-79.17 0-131.38-122.25-154.33-190.39-13.93 1.93-29.45 2.86-41.45 1.44-24.7-2.92-44.65-41.49-44.65-41.49-4.95-6.8-13.66-21.14-13.66-21.14 0 0-14.9-18.81-17.39-30.27-2.49-11.45 0.37-16.49 0.37-16.49 0 0 0.46-1.16 0.04-1.58z"/>
		<path id="&lt;Compound Path&gt;" class="s2" d="m286.86 748.95c-79.08 0-131.24-118.49-155.54-190.2-15.31 2.02-29.9 2.49-40.45 1.24-24.89-2.94-44.47-39.48-45.96-42.32-4.79-6.6-12.79-19.71-13.61-21.07-1.25-1.58-15.18-19.46-17.66-30.9-2.39-10.97-0.04-16.54 0.47-17.58q0.01-0.02 0.01-0.03c-3.5-3.87-6.22-11.86-4.68-18.68 1.12-4.91 4.27-8.4 9.11-10.1q1.76-0.61 3.74-0.61c8.96 0 19.41 9.41 27.81 16.96 3.82 3.44 7.43 6.68 9.22 7.36 4.51 1.71 27.04 2.31 39.89 2.46-6.77-5.79-20.23-18.36-24.22-29.66-2.16-6.13-1.94-11.1 0.65-14.77 2.43-3.42 7.02-5.46 12.29-5.46q0.76 0 1.49 0.05c4.66 0.37 13.58 6.06 24.77 13.46 4.49 2.97 8.73 5.77 10.8 6.73 2.57 1.2 9.27 1.88 16.36 2.6 9.26 0.93 19.76 1.99 27.77 4.58 14.86 4.78 25.74 20.94 26.19 21.62l4.46 8.25 14.32 30.38 72.91 127.72 89.62-129.89c0.35-0.5 0.94-0.82 1.53-0.77 0.61 0.02 1.16 0.35 1.47 0.88l65.91 111.68c0.29 0.49 0.33 1.09 0.1 1.61-0.16 0.39-16.87 38.97-44.55 77.04-36.83 50.65-76.32 77.42-114.22 77.42zm-154.33-193.95c0.76 0 1.45 0.48 1.69 1.21 23.8 70.65 75.27 189.17 152.64 189.17 85.58 0 149.74-139.4 155.13-151.47l-64.02-108.5-89.64 129.93c-0.35 0.5-0.88 0.8-1.54 0.76-0.62-0.02-1.17-0.36-1.48-0.89l-74.38-130.3-14.32-30.37-4.35-8.07c-0.02-0.02-10.57-15.67-24.23-20.07-7.66-2.47-17.95-3.51-27.04-4.43-8.04-0.81-14.38-1.45-17.5-2.9-2.32-1.08-6.47-3.82-11.27-7-8-5.3-18.97-12.55-23.08-12.87q-0.59-0.05-1.21-0.05c-1.54 0-6.77 0.29-9.37 3.96-1.89 2.67-1.96 6.55-0.21 11.52 4.94 14.01 26.75 31.09 26.97 31.26 0.6 0.47 0.84 1.03 0.59 1.75-0.25 0.72-0.93 0.97-1.69 0.97q0 0 0 0c-4.02 0-39.43 0.06-46.16-2.49-2.42-0.91-5.92-3.94-10.35-7.92-7.52-6.78-17.83-15.99-25.42-15.99-0.91 0-1.78 0.17-2.56 0.44-3.68 1.29-5.97 3.83-6.81 7.54-1.27 5.62 1.15 12.83 4.13 15.79 1.12 1.12 0.63 2.82 0.37 3.49q-0.05 0.12-0.12 0.24c-0.01 0.02-2.46 4.75-0.18 15.23 2.38 10.93 16.9 29.35 17.04 29.54q0.07 0.08 0.13 0.18c0.09 0.14 8.73 14.36 13.58 21.02q0.08 0.11 0.15 0.23c0.19 0.37 19.8 37.77 43.27 40.54 10.57 1.25 25.48 0.71 41-1.43q0.12-0.02 0.24-0.02z"/>
		<path id="&lt;Path&gt;" class="s2" d="m56.43 497.45c7.44-1.75 16.81 6.96 22.22 16.46 1.15 2.02 2.04 3.68 2.75 5.06 3.66-2 19.66-3.99 21.59-4.23 0.29-0.03 0.56 0.17 0.59 0.46 0.04 0.29-0.17 0.55-0.46 0.59-7.29 0.89-19.08 2.74-21.25 4.12 2.04 4.12 2.1 5.25 2.1 5.4-0.01 0.29-0.25 0.52-0.54 0.52-0.29-0.01-0.52-0.25-0.52-0.54 0-0.06-0.16-2.05-5.18-10.85-5.09-8.95-14.2-17.58-21.05-15.96-7.4 1.73-10.32 9.36-8.23 21.47 0.05 0.28-0.14 0.56-0.43 0.6q-0.24 0.04-0.42-0.11-0.15-0.12-0.19-0.31c-2.2-12.74 1.01-20.8 9.02-22.68z"/>
		<path id="&lt;Path&gt;" class="s3" d="m83.44 526.34q-0.01 0-0.03 0c-0.78 0-1.4-0.48-1.39-1.26-0.01 0-0.33-1.98-5.06-10.3-4.44-7.8-12.25-15.66-18.56-15.66q-0.79 0.02-1.52 0.2c-6.87 1.61-9.55 8.89-7.55 20.46 0.06 0.37-0.02 0.76-0.24 1.07-0.22 0.31-0.55 0.52-0.92 0.58-0.05 0.01-0.19 0.02-0.24 0.02-0.32 0-0.64-0.11-0.89-0.31q-0.41-0.34-0.51-0.86c-2.29-13.27 1.16-21.69 9.7-23.7q1.06-0.25 2.19-0.25c7.77 0 16.15 8.61 21.01 17.14q1.32 2.33 2.37 4.34c4.93-1.96 19.36-3.74 21.09-3.95 0.86-0.03 1.49 0.52 1.58 1.23 0.09 0.78-0.47 1.49-1.24 1.58-8.04 0.98-17.2 2.54-20.17 3.66 1.64 3.43 1.81 4.44 1.8 4.81-0.02 0.76-0.65 1.2-1.42 1.2z"/>
		<path id="&lt;Path&gt;" class="s2" d="m35.58 467.65c12.45-4.21 21.69 5.63 23.99 10.77 2.26 5.04 13.18 16.44 14.75 18.07 3.9-0.58 15.26-2.2 16.56-1.64 0.27 0.11 0.39 0.42 0.28 0.69-0.12 0.27-0.42 0.39-0.69 0.28-0.88-0.3-9.04 0.68-16.26 1.75q-0.27 0.04-0.46-0.15c-0.51-0.53-12.64-12.99-15.14-18.57-2.18-4.86-10.92-14.18-22.69-10.21q-2.99 1.02-4.42 3.99c-3.69 7.72 1.71 22.63 1.76 22.77 0.1 0.28-0.04 0.58-0.31 0.68-0.18 0.07-0.38 0.03-0.52-0.08q-0.1-0.09-0.16-0.23c-0.23-0.63-5.6-15.48-1.72-23.59 1.07-2.24 2.77-3.77 5.03-4.53z"/>
		<path id="&lt;Path&gt;" class="s3" d="m74.12 498.47c-0.38 0-0.75-0.15-1.01-0.43-1.31-1.35-12.82-13.28-15.31-18.83-1.56-3.47-7.57-10.64-16.21-10.64q-2.68 0.01-5.39 0.92-2.63 0.89-3.89 3.53c-3.52 7.35 1.74 21.93 1.79 22.08 0.27 0.73-0.11 1.55-0.84 1.82-0.48 0.17-1.01 0.08-1.39-0.23q-0.3-0.24-0.44-0.61c-0.23-0.65-5.72-15.85-1.68-24.29 1.18-2.47 3.05-4.15 5.55-4.99q3.15-1.06 6.29-1.07c9.67 0 16.66 7.56 18.8 12.32 2.09 4.67 12.05 15.19 14.25 17.49 3.82-0.56 11.97-1.7 15.12-1.7 0.73 0 1.17 0.06 1.47 0.19 0.72 0.31 1.05 1.15 0.75 1.86-0.3 0.7-1.16 1.04-1.86 0.75 0.01 0.02-0.13 0.01-0.31 0.01-2.23 0-9.47 0.91-15.47 1.8-0.04 0.01-0.18 0.02-0.22 0.02z"/>
		<path id="&lt;Path&gt;" class="s2" d="m16.97 447.44c2.68-2.68 7.53-4.11 12.67-3.72 6.38 0.48 12.14 3.62 15.8 8.6 6.77 9.23 11.63 13.04 12.51 13.69l18.96-1.38c0.29-0.02 0.55 0.19 0.57 0.48 0.02 0.3-0.2 0.55-0.49 0.57l-19.16 1.4q-0.18 0.01-0.33-0.09c-0.22-0.15-5.32-3.7-12.91-14.04-3.48-4.74-8.96-7.72-15.03-8.18-4.84-0.37-9.37 0.94-11.84 3.42-0.19 0.19-0.5 0.2-0.7 0.04q-0.02-0.02-0.04-0.04c-0.21-0.21-0.21-0.54-0.01-0.75z"/>
		<path id="&lt;Path&gt;" class="s3" d="m57.79 467.97q-0.43 0-0.8-0.25c-0.56-0.38-5.64-4.04-13.12-14.24-3.33-4.53-8.56-7.38-14.38-7.82-4.6-0.36-8.88 0.89-11.14 3.16-0.5 0.5-1.35 0.54-1.9 0.1-0.37-0.37-0.52-0.72-0.52-1.1 0-0.38 0.15-0.74 0.41-1.01 2.83-2.84 7.96-4.39 13.36-3.98 6.65 0.5 12.64 3.77 16.46 8.97 6.15 8.39 10.71 12.03 12.06 13.09l18.63-1.58q0 0 0.01 0c0.84 0 1.46 0.79 1.51 1.53 0.05 0.78-0.54 1.56-1.32 1.62l-19.15 1.45c-0.02 0.01-0.09 0.06-0.11 0.06z"/>
		<path id="&lt;Path&gt;" class="s2" d="m160.14 505.27c12.13 1.58 21.78 5.27 21.88 5.31 0.27 0.1 0.4 0.41 0.3 0.68-0.11 0.27-0.41 0.41-0.68 0.3-0.38-0.14-38.15-14.45-59.01 1.97-0.19 0.16-0.47 0.15-0.65 0q-0.05-0.04-0.09-0.08c-0.18-0.23-0.14-0.56 0.09-0.74 11.17-8.8 26.92-8.9 38.16-7.44z"/>
		<path id="&lt;Path&gt;" class="s3" d="m122.31 514.54q-0.51-0.01-0.9-0.32c-0.06-0.05-0.19-0.19-0.23-0.25-0.22-0.27-0.33-0.64-0.28-1.02 0.04-0.38 0.23-0.71 0.53-0.95 7.02-5.52 16.53-8.33 28.26-8.33 3.38 0 6.94 0.24 10.56 0.71 12.08 1.58 21.68 5.21 22.08 5.37 0.36 0.13 0.64 0.4 0.8 0.75 0.15 0.34 0.16 0.73 0.02 1.08-0.27 0.7-1.12 1.09-1.83 0.81-0.16-0.06-15.35-5.85-31.8-5.85-10.99 0-19.85 2.59-26.33 7.69q-0.39 0.3-0.88 0.31z"/>
		<path id="&lt;Path&gt;" class="s2" d="m710.14 214.58l9.66-3.41-9.87-3.02c-2.94-0.68-5.26-2.95-5.98-5.89l-3.57-14.55-2.86 14.44c-0.6 3.05-2.92 5.47-5.93 6.21l-9.09 3.46 8.97 2.84c3.13 0.62 5.59 3.05 6.26 6.17l3.02 14.09 3.27-14.31c0.7-3.03 3.08-5.38 6.12-6.03z"/>
		<path id="&lt;Path&gt;" class="s2" d="m290.48 481.55l14.65-5.18-14.97-4.58c-4.46-1.02-7.97-4.47-9.06-8.92l-5.42-22.09-4.34 21.92c-0.92 4.62-4.43 8.29-9 9.41l-13.79 5.25 13.61 4.31c4.75 0.94 8.48 4.62 9.49 9.35l4.58 21.38 4.98-21.71c1.05-4.59 4.66-8.16 9.27-9.14z"/>
		<path id="&lt;Path&gt;" class="s1" d="m810.62 475.28l18.47-6.53-18.87-5.77c-5.63-1.29-10.05-5.64-11.43-11.25l-6.83-27.83-5.47 27.62c-1.15 5.83-5.58 10.45-11.35 11.87l-17.37 6.61 17.15 5.44c5.98 1.18 10.69 5.81 11.97 11.78l5.77 26.95 6.27-27.36c1.32-5.79 5.88-10.29 11.69-11.53z"/>
		<path id="&lt;Path&gt;" class="s1" d="m405.06 216.48l10.77-3.81-11-3.36c-3.28-0.75-5.86-3.29-6.66-6.56l-3.98-16.22-3.19 16.1c-0.67 3.39-3.25 6.09-6.61 6.92l-10.13 3.85 10 3.17c3.48 0.69 6.23 3.39 6.97 6.87l3.37 15.7 3.65-15.95c0.77-3.37 3.43-5.99 6.81-6.71z"/>
		<path id="&lt;Path&gt;" class="s1" d="m1064.21 447.25c5.12-5.09 9.33-21.82-3.35-26.25-12.68-4.43-32.93 21.18-39.55 23.69-6.62 2.51-45.53 2.61-45.53 2.61 0 0 22.38-17.42 27.55-32.07 5.17-14.66-5.55-18.36-12.61-17.81-7.06 0.56-28.74 17.14-34.96 20.03-6.22 2.89-29.9 2.6-44.34 7.25-14.43 4.65-25.25 20.92-25.25 20.92l-4.37 8.1-0.03 0.06-14.25 30.24-74.38 130.3-91.23-132.22-65.9 111.69c0 0 65.9 153.38 157.13 153.38 79.17 0 131.38-122.25 154.33-190.39 13.93 1.93 29.45 2.86 41.45 1.44 24.7-2.92 44.65-41.49 44.65-41.49 4.95-6.8 13.66-21.14 13.66-21.14 0 0 14.9-18.81 17.39-30.27 2.49-11.45-0.37-16.49-0.37-16.49 0 0-0.46-1.16-0.04-1.58z"/>
		<path id="&lt;Compound Path&gt;" class="s2" d="m793.14 748.95c-37.9 0-77.39-26.77-114.22-77.42-27.68-38.07-44.39-76.65-44.55-77.04-0.23-0.52-0.19-1.12 0.1-1.61l65.91-111.68c0.31-0.53 0.86-0.86 1.47-0.88 0.62-0.05 1.18 0.27 1.53 0.77l89.61 129.89 72.98-127.84 14.19-30.12 4.44-8.24c0.54-0.83 11.42-16.99 26.28-21.77 8.01-2.59 18.51-3.65 27.77-4.58 7.09-0.72 13.79-1.4 16.36-2.59 2.07-0.97 6.31-3.77 10.8-6.74 11.18-7.4 20.11-13.09 24.77-13.46q0.73-0.05 1.49-0.05c5.27 0 9.86 2.04 12.29 5.46 2.59 3.67 2.81 8.64 0.65 14.77-3.98 11.3-17.45 23.87-24.22 29.66 12.85-0.15 35.38-0.75 39.89-2.46 1.79-0.68 5.4-3.92 9.22-7.36 8.4-7.55 18.85-16.96 27.81-16.96q1.98 0 3.74 0.61c4.84 1.7 7.99 5.19 9.11 10.1 1.54 6.82-1.18 14.81-4.68 18.68q0 0.01 0.01 0.03c0.51 1.05 2.86 6.62 0.47 17.58-2.48 11.44-16.41 29.32-17.66 30.9-0.82 1.36-8.82 14.47-13.61 21.07-1.49 2.84-21.07 39.38-45.96 42.32-3.92 0.47-8.37 0.7-13.23 0.7-8.22 0-17.6-0.67-27.21-1.94-24.31 71.71-76.47 190.2-155.55 190.2zm-155.13-155.04c5.39 12.07 69.55 151.47 155.13 151.47 77.37 0 128.84-118.52 152.64-189.17 0.27-0.81 1.1-1.32 1.93-1.19 9.97 1.37 19.71 2.1 28.19 2.1 4.72 0 9.03-0.22 12.82-0.67 23.48-2.78 43.07-40.17 43.26-40.54q0.07-0.12 0.15-0.23c4.85-6.66 13.49-20.88 13.58-21.02q0.06-0.1 0.12-0.18c0.15-0.19 14.68-18.62 17.05-29.54 2.28-10.47-0.17-15.2-0.19-15.25q-0.06-0.1-0.11-0.22c-0.26-0.67-0.75-2.36 0.37-3.48 2.98-2.96 5.41-10.17 4.13-15.79-0.84-3.7-3.13-6.23-6.81-7.52q-1.18-0.41-2.56-0.41c-7.59 0-17.9 9.27-25.43 16.04-4.42 3.99-7.92 6.9-10.34 7.81-6.73 2.55-42.14 2.49-46.16 2.49q0 0 0 0c-0.76 0-1.44-0.25-1.69-0.97-0.25-0.72-0.01-1.4 0.59-1.87 0.22-0.17 22.03-17.2 26.97-31.2q2.63-7.47-0.2-11.49c-2.61-3.67-7.84-3.94-9.38-3.94q-0.62 0-1.21 0.05c-4.11 0.32-15.08 7.58-23.08 12.88-4.81 3.18-8.95 5.92-11.27 7-3.12 1.45-9.46 2.09-17.5 2.9-9.09 0.92-19.38 1.96-27.04 4.43-13.68 4.41-24.21 20.05-24.32 20.21l-4.28 7.96-14.24 30.21-74.44 130.43c-0.31 0.53-0.86 0.87-1.48 0.89-0.65 0.05-1.19-0.26-1.54-0.76l-89.64-129.93z"/>
		<path id="&lt;Path&gt;" class="s2" d="m548.85 147.35c0 0 22.31-11.15 48.86 0.65 11.57 5.14 43.07 28.93 48.86 68.14 5.78 39.21 52.07 122.78 52.07 122.78 0 0-21.22 21.86-41.15 30.22-19.92 8.35-39.21 15.43-39.21 15.43l-15.43-32.15 4.5 32.79c0 0-115.71 9-142.07 3.86-26.35-5.15-34.71-10.29-34.71-10.29l13.5-30.86-18 27.65-37.29-26.36c0 0 41.15-43.71 51.43-75.21 10.29-31.5 9-163.29 108.64-126.65z"/>
		<path id="&lt;Path&gt;" class="s4" d="m434.83 567.52c-13.33 19.77-26.32 40.75-37.78 60.69-0.39 0.02-0.8 0.02-1.19 0.05-56.68 2.41-97.02-38.22-111.94-56.08 22.98-40.44 45.31-73.64 46.35-75.18l52.27 35.27z"/>
		<path id="&lt;Path&gt;" class="s1" d="m487.49 272.07c0 0-18.22-18.6-33.53-13.1-15.3 5.5-17.36 38.51-0.9 44.93 16.46 6.42 36.21-6.47 36.21-6.47z"/>
		<path id="&lt;Compound Path&gt;" class="s2" d="m463.11 307.47c-3.84 0-7.44-0.64-10.7-1.91-9.49-3.7-12.74-14.62-12.62-23.61 0.14-9.9 4.38-21.36 13.57-24.66q3.12-1.12 6.62-1.12c14.27 0 28.2 14.06 28.79 14.66 0.29 0.3 0.47 0.7 0.5 1.12l1.78 25.35c0.04 0.65-0.26 1.27-0.8 1.62-0.54 0.35-13.27 8.55-27.14 8.55zm-3.13-47.74q-2.88 0-5.41 0.91c-6.47 2.32-11.07 11.1-11.21 21.35-0.1 7.8 2.56 17.21 10.35 20.25 2.84 1.11 6 1.67 9.4 1.67 10.82 0 21.27-5.65 24.31-7.44l-1.66-23.6c-2.45-2.35-14.35-13.14-25.78-13.14z"/>
		<path id="&lt;Path&gt;" class="s5" d="m680.52 646.2c0 0 79.65-17.26 118.14-69.69 0 0-86.54-158.07-125.11-168.86-9.95-2.79-79.7-16.97-79.7-16.97l-109.02 4.63c-5.93 0.74-102.74 27.16-117.26 38.05-22.62 16.97-33.95 63.76-56.57 91.02-22.62 27.25-33.43 39.59-33.43 39.59 0 0 2.17 3.21 6.35 8.21 14.92 17.86 55.26 58.49 111.94 56.08 0.39-0.03 0.8-0.03 1.19-0.05q3.36-0.14 7.04-0.28c0.32 0.55 0.51 0.84 0.51 0.84 0 0-11.83 63.26-18 92.06-6.17 28.79-17.49 102.19-17.49 102.19 0 0 8.29 6.84 40.18-1.39 31.88-8.23 12.79-23.67 62.16-23.67 49.37 0 113.58 39.25 228.77 4.28 0 0-23.96-162.75-21.04-182.03z"/>
		<path id="&lt;Compound Path&gt;" class="s2" d="m382.54 827.47c-10.53 0-14.18-2.76-14.56-3.08-0.49-0.4-0.73-1.02-0.63-1.64 0.11-0.74 11.39-73.78 17.5-102.3 5.6-26.14 16.01-81.42 17.74-90.68q-2.83 0.11-5.47 0.22-0.28 0.02-0.63 0.03l-0.52 0.02q-2.52 0.11-4.94 0.11c-55.08 0-94.21-39.74-108.48-56.83-4.19-5.01-6.37-8.22-6.46-8.35-0.46-0.67-0.4-1.57 0.14-2.18 0.1-0.12 11.06-12.63 33.4-39.55 9.96-12 17.76-27.97 25.31-43.42 9.61-19.66 18.69-38.23 31.56-47.89 14.85-11.14 110.82-37.48 118.11-38.39l109.17-4.64q0.21-0.02 0.43 0.03c2.85 0.58 69.93 14.23 79.82 17 38.85 10.87 122.65 163.24 126.2 169.72 0.33 0.61 0.28 1.35-0.13 1.91-35.83 48.8-107.68 67.61-117.97 70.09 4.73 51.33 19.67 153.04 19.86 154.33 0.12 0.87-0.4 1.71-1.25 1.96-32.33 9.82-62.93 14.59-93.56 14.59-34.61 0-62.57-6.06-87.24-11.41-18.26-3.96-34.02-7.37-48.49-7.37-28.39 0-33.38 5.07-39.16 10.94-4.22 4.3-9.01 9.17-22.55 12.67-10.58 2.73-19.73 4.11-27.2 4.11zm-11.48-5.39c1.43 0.66 4.89 1.82 11.48 1.82 7.17 0 16.02-1.34 26.3-4 12.59-3.24 16.82-7.55 20.91-11.71 6.34-6.44 11.81-12.01 41.7-12.01 14.85 0 30.79 3.46 49.24 7.46 24.5 5.3 52.26 11.32 86.49 11.32 29.81 0 59.61-4.58 91.06-13.99-2.58-17.56-23.63-162.49-20.82-181.03 0.14-0.9 0.95-1.56 1.85-1.51 0.92 0.04 1.65 0.77 1.7 1.69l1.22 23.85c12.59-3.13 79.92-21.66 114.36-67.61-7.45-13.45-87.64-156.97-123.49-166.99-9.49-2.66-75.07-16.03-79.35-16.9l-108.81 4.62c-7.68 0.96-102.47 27.35-116.26 37.7-12.19 9.14-21.08 27.33-30.49 46.6-7.64 15.63-15.55 31.8-25.78 44.12-18.72 22.56-29.47 35.03-32.54 38.57 0.97 1.33 2.81 3.79 5.45 6.95 14.36 17.2 54.47 57.82 110.51 55.45q0.26-0.02 0.59-0.03 0.27 0 0.55-0.02 3.42-0.14 7.1-0.28c0.66-0.05 1.28 0.31 1.61 0.89 0.29 0.5 0.47 0.79 0.47 0.8 0.23 0.38 0.32 0.83 0.24 1.26-0.12 0.64-11.9 63.61-18.01 92.1-5.66 26.4-15.78 91.23-17.28 100.88z"/>
		<path id="&lt;Path&gt;" class="s1" d="m637.21 255.14c-8.15-2.1-16.46 2.31-22.6 7.04l0.04-0.21q-0.1 0.19-0.15 0.3-0.07 0.05-0.14 0.11c-1.21-1.18-67.45-78.73-69.99-81.91l-71.85 80.54c3.17 28.89 5.64 64.5 32.33 81.71l-0.53 0.1c0 0-0.55 44.04-4.4 46.24-3.86 2.2-17.07 6.06-17.07 6.06 0 0 6.61 36.89 62.21 33.58 55.61-3.3 54.51-38.54 54.51-38.54 0 0-17.07-2.75-19.82-6.6-2.06-2.88-0.74-31.87 0.06-46.35q1.53-1.24 2.97-2.51c11.27-10.06 19.29-23.12 24.08-37.39 4.64 2.17 21.87 9.28 35.42 2.49 15.79-7.92 10.68-40.6-5.07-44.66z"/>
		<path id="&lt;Compound Path&gt;" class="s2" d="m538.18 430.69c-50.19 0-57.02-34.9-57.09-35.26-0.16-0.89 0.39-1.77 1.26-2.02 3.57-1.04 13.39-4.09 16.55-5.82 1.94-2.67 3.36-24.4 3.63-44.27-24.79-17.03-28.24-49.17-31.29-77.58l-0.49-4.54c-0.06-0.5 0.1-1 0.44-1.38l71.85-80.53c0.35-0.4 0.86-0.63 1.38-0.6 0.52 0.02 1.02 0.26 1.34 0.67 2.62 3.28 60.25 70.74 68.84 80.6 8.28-6.09 16.15-8.32 23.05-6.55 9.46 2.44 14.75 13.46 15.8 23.29 0.95 8.95-1.27 20.13-10.37 24.69-4.05 2.03-8.74 3.06-13.93 3.06q0 0 0 0c-8.71 0-16.88-2.87-21.24-4.72-5.14 14.35-13.39 26.87-23.94 36.3q-1.18 1.05-2.42 2.06c-1.64 30.13-1.21 42.8-0.32 44.48 1.57 2.19 11.84 4.74 18.62 5.83 0.84 0.14 1.47 0.85 1.5 1.71 0.01 0.37 0.5 37.01-56.18 40.37-2.38 0.14-4.73 0.21-6.99 0.21zm-53.2-34.35c1.84 6.5 11.52 30.79 53.2 30.79 2.19 0 4.47-0.07 6.78-0.21 47.35-2.81 52.29-28.73 52.78-35.26-4.85-0.86-16.78-3.33-19.44-7.07-0.74-1.02-2.68-3.75-0.27-47.48 0.03-0.51 0.27-0.97 0.66-1.29q1.49-1.21 2.91-2.45c10.54-9.42 18.69-22.08 23.57-36.63 0.16-0.48 0.52-0.87 0.98-1.07 0.47-0.2 1-0.19 1.46 0.02 3.34 1.57 12.14 5.19 21.54 5.19q0 0 0 0c4.63 0 8.78-0.9 12.33-2.68 7.47-3.74 9.25-13.36 8.42-21.12-1.08-10.19-6.49-18.5-13.14-20.21-6.12-1.58-13.29 0.73-21.07 6.72q-0.02 0.02-0.04 0.04-0.03 0.02-0.06 0.04c-0.7 0.55-1.84 0.61-2.47-0.02-1.09-1.05-58.89-68.67-68.8-80.45l-69.94 78.41 0.4 3.75c3.02 28.13 6.44 60.01 31.03 75.86 0.62 0.4 0.93 1.13 0.78 1.85q-0.11 0.55-0.5 0.93c-0.29 20.33-1.45 44.41-5.29 46.61-3.2 1.83-12.11 4.62-15.82 5.73z"/>
		<path id="&lt;Path&gt;" class="s2" d="m608.91 783.98c8.06 0 16.06-0.49 23.72-1.69 0.51-0.08 0.86-0.56 0.78-1.08-0.08-0.51-0.54-0.86-1.08-0.79-49.15 7.67-113.1-13.37-113.74-13.59-0.53-0.15-1.03 0.11-1.2 0.6-0.17 0.5 0.1 1.03 0.59 1.2 0.55 0.18 46.7 15.35 90.93 15.35z"/>
		<path id="&lt;Path&gt;" class="s2" d="m506.47 341.24c13.19 8.88 47 8.25 58.69 0 0 0-18.97 24.66-61.47 21.45z"/>
		<path id="&lt;Path&gt;" class="s2" d="m612.61 285.67q-0.49 0-0.93-0.27c-0.84-0.51-1.1-1.61-0.59-2.45 5.01-8.11 10.69-12.75 16.9-13.8 7.09-1.19 12.13 2.84 12.34 3.01 0.76 0.63 0.88 1.75 0.25 2.51-0.62 0.76-1.74 0.88-2.5 0.26-0.04-0.04-4.08-3.19-9.55-2.25-5.13 0.89-9.98 4.97-14.4 12.14-0.34 0.55-0.92 0.85-1.52 0.85z"/>
		<path id="&lt;Path&gt;" class="s2" d="m626.41 283.67c-0.57 0-1.13-0.28-1.48-0.78l-5.3-7.79c-0.55-0.81-0.34-1.92 0.48-2.47 0.81-0.56 1.92-0.35 2.47 0.47l5.3 7.78c0.55 0.81 0.34 1.92-0.47 2.48q-0.47 0.31-1 0.31z"/>
		<path id="&lt;Path&gt;" class="s2" d="m475.39 286.91c-0.67 0-1.32-0.38-1.62-1.04-2.58-5.65-5.94-9.1-9.97-10.25-5.64-1.61-10.94 1.85-10.99 1.89-0.82 0.54-1.93 0.33-2.47-0.49-0.55-0.82-0.34-1.92 0.48-2.47 0.27-0.18 6.66-4.41 13.92-2.37 5.1 1.44 9.23 5.54 12.27 12.21 0.41 0.89 0.02 1.95-0.88 2.36q-0.36 0.16-0.74 0.16z"/>
		<path id="&lt;Path&gt;" class="s2" d="m539.32 289.69q-0.42 0.01-0.81-0.19-2.58-1.32-4.88-3.77c-2.15-2.31-2.67-5.69-1.32-8.63 2.68-5.83 5.28-14.02 5.31-14.11 0.3-0.93 1.29-1.46 2.24-1.16 0.94 0.3 1.46 1.3 1.16 2.24-0.11 0.35-2.7 8.49-5.47 14.52-0.73 1.59-0.45 3.48 0.69 4.7q1.87 2 3.89 3.03c0.88 0.45 1.22 1.53 0.78 2.4-0.32 0.62-0.94 0.97-1.59 0.97z"/>
		<path id="&lt;Path&gt;" class="s2" d="m580.77 241.12c-0.73-0.62-1.6-1.09-2.45-1.26-4.31-0.9-8.74-1.66-13.09-1.04-1.95 0.27-6.52 1.67-5.35 4.42 0.62 1.45 3.54 1.95 4.84 2.27 4.03 0.96 8.22 1.16 12.34 1.42 1.13 0.08 2.31 0.11 3.36-0.32 3.13-1.3 2.22-3.9 0.35-5.49z"/>
		<path id="&lt;Path&gt;" class="s2" d="m499.5 238.17c0.76-0.58 1.66-1 2.51-1.12 4.35-0.66 8.82-1.17 13.14-0.32 1.92 0.38 6.41 2.04 5.09 4.71-0.7 1.42-3.65 1.76-4.96 2-4.08 0.74-8.27 0.71-12.4 0.74-1.14 0.01-2.31-0.02-3.34-0.51-3.05-1.47-2-4.02-0.04-5.5z"/>
		<path id="&lt;Path&gt;" class="s2" d="m919.86 505.27c-12.13 1.58-21.78 5.27-21.88 5.31-0.27 0.1-0.4 0.41-0.3 0.68 0.11 0.27 0.41 0.41 0.68 0.3 0.38-0.14 38.15-14.45 59.01 1.97 0.19 0.16 0.47 0.15 0.65 0q0.05-0.04 0.09-0.08c0.18-0.23 0.14-0.56-0.09-0.74-11.17-8.8-26.92-8.9-38.16-7.44z"/>
		<path id="&lt;Path&gt;" class="s3" d="m957.69 514.54q-0.49-0.01-0.88-0.31c-6.48-5.1-15.34-7.69-26.32-7.69-16.42 0-31.66 5.79-31.81 5.85-0.71 0.28-1.55-0.1-1.83-0.81-0.14-0.35-0.13-0.74 0.02-1.08 0.16-0.35 0.44-0.62 0.79-0.75 0.41-0.16 10.01-3.79 22.09-5.37 3.62-0.47 7.18-0.71 10.56-0.71 11.73 0 21.24 2.81 28.26 8.34 0.3 0.23 0.49 0.56 0.53 0.94 0.05 0.38-0.06 0.75-0.29 1.05-0.05 0.05-0.18 0.19-0.24 0.24-0.23 0.18-0.55 0.3-0.88 0.3z"/>
		<path id="&lt;Path&gt;" class="s2" d="m404.6 630.56q-0.09 0-0.18-0.01c-0.98-0.1-1.7-0.97-1.6-1.95 1.08-11.09-0.45-19.83-2.06-29.09-1.89-10.88-3.85-22.12-2.23-38.62 3-30.49 12.05-59.1 12.15-59.39 0.29-0.94 1.3-1.45 2.24-1.16 0.93 0.3 1.45 1.31 1.15 2.25-0.09 0.28-9.03 28.55-11.99 58.65-1.58 16.02 0.34 27.02 2.19 37.65 1.66 9.51 3.23 18.49 2.1 30.06-0.09 0.92-0.87 1.61-1.77 1.61z"/>
		<path id="&lt;Path&gt;" class="s2" d="m679.18 622.97c-0.98 0-1.78-1.29-1.78-2.27-0.01-6.73 0.48-12.44 0.95-17.72 0.92-10.26 1.87-21-0.93-41.55-4.18-30.66-22.06-72.08-22.24-72.5-0.39-0.9 0.02-1.98 0.92-2.37 0.91-0.4 1.96 0.01 2.35 0.91 0.18 0.42 18.26 42.22 22.5 73.36 2.86 20.95 1.89 31.77 0.95 42.23-0.46 5.2-0.94 11.07-0.93 17.64 0 0.98-0.8 2.27-1.78 2.27q0 0-0.01 0z"/>
		<path id="&lt;Path&gt;" class="s6" d="m673.11 497l-5.11 20.5"/>
		<path id="&lt;Path&gt;" class="s3" d="m668 519.29q-0.21 0-0.43-0.05c-0.96-0.24-1.54-1.21-1.3-2.17l5.11-20.5c0.24-0.96 1.21-1.53 2.16-1.3 0.96 0.24 1.54 1.2 1.3 2.16l-5.11 20.51c-0.2 0.81-0.93 1.35-1.73 1.35z"/>
		<path id="&lt;Path&gt;" class="s6" d="m399.71 507.25l6.34 10.25"/>
		<path id="&lt;Path&gt;" class="s3" d="m406.05 519.29c-0.6 0-1.19-0.3-1.52-0.85l-6.33-10.25c-0.52-0.84-0.26-1.94 0.58-2.45 0.84-0.52 1.93-0.26 2.45 0.58l6.33 10.25c0.52 0.84 0.26 1.93-0.58 2.45q-0.44 0.27-0.93 0.27z"/>
		<path id="&lt;Path&gt;" class="s2" d="m547.6 443.42c-31.64 0-57.42-16.32-57.75-16.53-0.83-0.54-1.06-1.64-0.53-2.47 0.53-0.83 1.63-1.06 2.46-0.53 0.42 0.27 42 26.55 83.51 11.13 0.93-0.35 1.95 0.13 2.3 1.05 0.34 0.92-0.13 1.95-1.05 2.29-9.82 3.65-19.64 5.06-28.94 5.06z"/>
		<path id="&lt;Path&gt;" class="s2" d="m385.71 610.01c-42.88 0-76.12-36.17-76.46-36.54-0.66-0.73-0.6-1.86 0.13-2.52 0.73-0.66 1.86-0.61 2.52 0.12 0.33 0.37 33.85 36.76 76.31 35.33 1.05-0.08 1.81 0.74 1.85 1.72 0.03 0.98-0.74 1.81-1.72 1.84q-1.32 0.05-2.63 0.05z"/>
		<path id="&lt;Path&gt;" class="s2" d="m575.92 583.85q-0.21 0-0.42-0.05c-7.15-1.7-25.1-7.1-40.84-12.31-31.57-10.43-31.34-12-31.08-13.82 0.3-2.08 2.81-1.94 4.03-1.88 14.78 0.79 92.86-3.34 93.65-3.39 0.98-0.05 1.82 0.71 1.87 1.69 0.05 0.98-0.7 1.82-1.69 1.88-2.92 0.15-65.92 3.49-88.57 3.49q-0.67 0-1.3-0.01c13.63 5.67 51.76 17.8 64.76 20.88 0.95 0.23 1.55 1.19 1.32 2.14-0.19 0.82-0.93 1.38-1.73 1.38z"/>
		<path id="&lt;Path&gt;" class="s2" d="m713.62 617.89c-0.85 0-1.6-0.6-1.76-1.47-0.17-0.97 0.47-1.89 1.44-2.07 21.76-3.88 55.09-35.43 55.42-35.75 0.71-0.67 1.84-0.65 2.52 0.07 0.68 0.71 0.65 1.84-0.06 2.52-1.4 1.33-34.45 32.6-57.25 36.67q-0.16 0.03-0.31 0.03z"/>
		<path id="&lt;Path&gt;" class="s1" d="m592.07 190.93c-2.24 3.19-0.08 7.78-1.5 11.41-1.7 4.35-7.85 5.23-12.06 3.2-4.21-2.03-7.11-5.96-10.42-9.26-2.29-2.27-4.85-4.31-6.62-7-1.78-2.69-2.63-6.28-1.15-9.14 2.09-4.02 7.5-4.71 12.02-4.47 3.57 0.2 7.65 0.5 10.21-1.99 2.57-2.49 2.39-6.64 1.57-10.12-0.82-3.49-2.09-7.11-1.08-10.54 12.31 5.4 23.3 13.79 31.76 24.24 2.42 2.99 4.41 7.95 1.25 10.16-1.6 1.12-3.76 0.79-5.7 0.58-6.21-0.67-12.59 0.35-18.28 2.93z"/>
		<path id="&lt;Path&gt;" class="s1" d="m497.22 190.93c2.24 3.19 0.09 7.78 1.5 11.41 1.7 4.35 7.85 5.23 12.06 3.2 4.21-2.03 7.11-5.96 10.42-9.26 2.29-2.27 4.85-4.31 6.63-7 1.77-2.69 2.63-6.28 1.14-9.14-2.09-4.02-7.5-4.71-12.02-4.47-3.57 0.2-7.64 0.5-10.21-1.99-2.57-2.49-2.39-6.64-1.57-10.12 0.82-3.49 2.09-7.11 1.08-10.54-12.31 5.4-23.3 13.79-31.76 24.24-2.42 2.99-4.41 7.95-1.25 10.16 1.6 1.12 3.76 0.79 5.71 0.58 6.2-0.67 12.58 0.35 18.27 2.93z"/>
		<path id="&lt;Path&gt;" class="s2" d="m704.23 644.48h-349.9c-10.25 0-18.56 8.31-18.56 18.56v191.76c0 10.25 8.31 18.56 18.56 18.56h349.9c10.25 0 18.56-8.31 18.56-18.56v-191.76c0-10.25-8.31-18.56-18.56-18.56z"/>
		<path id="&lt;Path&gt;" class="s1" d="m558.9 765.4c1.87-8.32 1.15-17.74-4.23-24.36-13.9-17.07-56.55-15.65-51 13.59 1.11 5.88 4.18 11.25 7.91 15.94 4.09 5.13 9.13 9.66 15.17 12.23 7.92 3.36 17.95 2.89 24.56-3.06 4.09-3.67 6.38-8.98 7.59-14.34z"/>
		<path id="&lt;Path&gt;" class="s7" d="m625.52 292.21h-2.62c-2.51 0-4.57 2.05-4.57 4.56v13.01c0 2.51 2.06 4.56 4.57 4.56h2.62c2.51 0 4.56-2.05 4.56-4.56v-13.01c0-2.51-2.05-4.56-4.56-4.56z"/>
		<path id="&lt;Path&gt;" class="s7" d="m463.78 292.21h-2.62c-2.51 0-4.57 2.05-4.57 4.56v13.01c0 2.51 2.06 4.56 4.57 4.56h2.62c2.51 0 4.56-2.05 4.56-4.56v-13.01c0-2.51-2.05-4.56-4.56-4.56z"/>
		<path id="&lt;Path&gt;" class="s2" d="m540.94 316.62c-7.57 0-13.28-2.47-13.4-2.52-0.9-0.4-1.3-1.46-0.9-2.36 0.4-0.89 1.45-1.29 2.35-0.9 0.83 0.36 20.28 8.7 33.53-8.65 0.6-0.78 1.72-0.93 2.5-0.33 0.78 0.59 0.93 1.71 0.34 2.5-7.49 9.8-16.87 12.26-24.42 12.26z"/>
		<path id="&lt;Path&gt;" class="s2" d="m567.94 307.27q-0.55 0-1.03-0.33l-7.67-5.45c-0.8-0.57-0.99-1.68-0.42-2.48 0.57-0.81 1.68-1 2.49-0.42l7.66 5.44c0.8 0.57 0.99 1.69 0.42 2.49-0.35 0.49-0.9 0.75-1.45 0.75z"/>
		<path id="&lt;Path&gt;" class="s2" d="m841.21 235.31v9.93h100.85v142.15h-201.84v-23.45-118.7-9.93c0-3.63 2.94-6.57 6.57-6.57h87.85c3.63 0 6.57 2.94 6.57 6.57z"/>
		<path id="&lt;Path&gt;" class="s7" d="m835.07 241.45v9.93h100.86v135.2h-201.85v-16.51-118.69-9.93c0-3.63 2.94-6.57 6.57-6.57h87.85c3.63 0 6.57 2.94 6.57 6.57z"/>
		<path id="&lt;Compound Path&gt;" class="s2" d="m935.93 388.36h-201.85c-0.98 0-1.78-0.8-1.78-1.78v-145.13c0-4.61 3.75-8.36 8.35-8.36h87.85c4.61 0 8.36 3.75 8.36 8.36v8.15h99.07c0.98 0 1.78 0.8 1.78 1.78v135.2c0 0.98-0.8 1.78-1.78 1.78zm-200.06-3.56h198.28v-131.64h-99.08c-0.98 0-1.78-0.79-1.78-1.78v-9.93c0-2.64-2.15-4.79-4.79-4.79h-87.85c-2.64 0-4.78 2.15-4.78 4.79z"/>
		<path id="&lt;Path&gt;" class="s5" d="m890.47 229.49l46.44-26.82 46.49 26.82v53.64l-46.49 26.85-46.44-26.85z"/>
		<path id="&lt;Compound Path&gt;" class="s2" d="m936.91 312.04l-48.23-27.88v-55.7l48.23-27.84 48.27 27.84v55.7zm-44.66-29.94l44.66 25.82 44.7-25.82v-51.58l-44.7-25.79-44.66 25.79z"/>
		<path id="&lt;Path&gt;" class="s1" d="m933.16 283.57c-2.67 0-5.22-1.17-6.97-3.22l-19.45-22.95c-3.25-3.83-2.77-9.59 1.06-12.88 3.86-3.24 9.59-2.77 12.88 1.06l12.22 14.45 21.2-26.82c3.14-3.97 8.86-4.63 12.81-1.49 3.94 3.14 4.63 8.86 1.49 12.8l-28.13 35.58c-1.68 2.15-4.27 3.43-7.01 3.47 0 0-0.07 0-0.1 0z"/>
		<path id="&lt;Compound Path&gt;" class="s3" d="m933.28 285.35h-0.13c-3.19 0-6.23-1.4-8.32-3.83l-19.45-22.96c-3.88-4.57-3.31-11.48 1.26-15.39 1.99-1.67 4.49-2.58 7.06-2.58 3.21 0 6.24 1.39 8.33 3.83l10.82 12.8 19.85-25.11c2.08-2.64 5.2-4.16 8.55-4.16 2.45 0 4.85 0.85 6.77 2.37 2.27 1.82 3.72 4.41 4.06 7.29 0.34 2.9-0.47 5.75-2.28 8.03l-28.13 35.56c-1.99 2.55-5.12 4.1-8.38 4.15zm-19.58-41.2c-1.73 0-3.42 0.62-4.76 1.74-3.06 2.63-3.45 7.28-0.84 10.36l19.45 22.95c1.4 1.64 3.45 2.58 5.61 2.58l0.11 1.79-0.03-1.79c2.19-0.03 4.29-1.07 5.63-2.78l28.14-35.58c1.22-1.53 1.76-3.45 1.53-5.39-0.23-1.95-1.2-3.69-2.74-4.92-1.31-1.04-2.88-1.59-4.55-1.59-2.25 0-4.35 1.02-5.75 2.8l-22.55 28.53-13.63-16.12c-1.41-1.63-3.46-2.58-5.62-2.58z"/>
		<path id="&lt;Path&gt;" class="s8" d="m515.33 835.67l0.15 77.91-327.35 0.59-0.14-77.91z"/>
		<path id="&lt;Compound Path&gt;" class="s2" d="m186.35 915.96l-0.15-81.47 330.91-0.61 0.15 81.48zm3.43-77.92l0.13 74.35 323.78-0.59-0.13-74.34z"/>
		<path id="&lt;Path&gt;" class="s2" d="m477.37 895.51c-11.64 0-21.05-9.3-21.05-20.82 0-11.51 9.41-20.82 21.05-20.82 11.65 0 21.06 9.31 21.06 20.82 0 11.52-9.41 20.82-21.06 20.82z"/>
		<path id="&lt;Path&gt;" class="s1" d="m412.82 855.33l0.07 38.96-128.36 0.23-0.07-38.95z"/>
		<path id="&lt;Compound Path&gt;" class="s2" d="m284.53 896.3c-0.98 0-1.78-0.79-1.78-1.78l-0.07-38.95c0-0.47 0.19-0.93 0.52-1.26 0.33-0.34 0.79-0.53 1.26-0.53l128.36-0.23q0 0 0 0c0.98 0 1.78 0.8 1.78 1.78l0.08 38.95c0 0.48-0.19 0.93-0.53 1.27-0.33 0.33-0.78 0.52-1.25 0.52l-128.36 0.23q0 0-0.01 0zm1.72-38.95l0.06 35.38 124.8-0.22-0.07-35.39z"/>
		<path id="&lt;Path&gt;" class="s2" d="m413.05 855.33l0.07 38.96-29.88 0.05-0.08-38.95z"/>
		<path id="&lt;Path&gt;" class="s9" d="m321.49 867.14v1.47c0 0.92 0.75 1.67 1.68 1.67l50.65-0.09c0.92-0.01 1.67-0.76 1.67-1.68v-1.47c0-0.92-0.76-1.67-1.68-1.67l-50.65 0.09c-0.92 0-1.68 0.75-1.67 1.68z"/>
		<path id="&lt;Path&gt;" class="s9" d="m338.56 880.15l0.01 1.48c0 0.92 0.75 1.67 1.67 1.67l33.61-0.06c0.92-0.01 1.67-0.76 1.67-1.68l-0.01-1.47c0-0.92-0.75-1.67-1.67-1.67l-33.61 0.06c-0.92 0-1.67 0.75-1.67 1.67z"/>
		<path id="&lt;Path&gt;" class="s9" d="m294.59 867.18v1.48c0 0.92 0.75 1.67 1.68 1.67l16.37-0.03c0.93-0.01 1.68-0.76 1.68-1.68l-0.01-1.47c0-0.92-0.75-1.67-1.67-1.67l-16.38 0.03c-0.92 0-1.68 0.75-1.67 1.67z"/>
		<path id="&lt;Path&gt;" class="s7" d="m463.78 775.89l0.1 58.74-246.81 0.44-0.11-58.74z"/>
		<path id="&lt;Compound Path&gt;" class="s2" d="m217.07 836.86c-0.98 0-1.78-0.8-1.78-1.78l-0.11-58.74c0-0.48 0.18-0.93 0.52-1.27 0.33-0.33 0.78-0.52 1.26-0.52l246.81-0.45q0 0 0.01 0c0.98 0 1.78 0.8 1.78 1.78l0.11 58.74c0 0.48-0.19 0.93-0.52 1.27-0.33 0.33-0.79 0.52-1.26 0.52l-246.82 0.45zm1.68-58.75l0.1 55.18 243.25-0.44-0.1-55.18z"/>
		<path id="&lt;Path&gt;" class="s2" d="m435.15 821.01c-8.77 0-15.87-7.02-15.87-15.7 0-8.68 7.1-15.7 15.87-15.7 8.78 0 15.88 7.02 15.88 15.7 0 8.68-7.1 15.7-15.88 15.7z"/>
		<path id="&lt;Path&gt;" class="s1" d="m386.48 790.71l0.06 29.37-96.79 0.18-0.05-29.37z"/>
		<path id="&lt;Compound Path&gt;" class="s2" d="m289.75 822.04c-0.98 0-1.78-0.8-1.78-1.78l-0.05-29.37c0-0.47 0.18-0.93 0.52-1.26 0.33-0.34 0.78-0.53 1.26-0.53l96.78-0.17q0 0 0 0c0.98 0 1.78 0.79 1.78 1.78l0.06 29.37c0 0.47-0.19 0.92-0.52 1.26-0.34 0.33-0.79 0.52-1.26 0.52l-96.78 0.18q0 0-0.01 0zm1.74-29.38l0.04 25.81 93.22-0.17-0.05-25.8z"/>
		<path id="&lt;Path&gt;" class="s2" d="m386.65 790.71l0.06 29.37-22.53 0.04-0.06-29.37z"/>
		<path id="&lt;Path&gt;" class="s9" d="m317.62 800.02v0.29c0 0.92 0.75 1.67 1.67 1.67l37.37-0.07c0.92 0 1.68-0.76 1.67-1.68v-0.28c0-0.92-0.75-1.68-1.67-1.67l-37.37 0.06c-0.92 0.01-1.68 0.76-1.67 1.68z"/>
		<path id="&lt;Path&gt;" class="s9" d="m330.49 809.84v0.28c0.01 0.92 0.76 1.67 1.68 1.67l24.51-0.04c0.92 0 1.67-0.76 1.67-1.68v-0.28c0-0.92-0.75-1.68-1.67-1.67l-24.52 0.04c-0.92 0-1.67 0.76-1.67 1.68z"/>
		<path id="&lt;Path&gt;" class="s9" d="m297.33 800.06l0.01 0.28c0 0.92 0.75 1.68 1.67 1.67l11.53-0.02c0.92 0 1.67-0.75 1.67-1.67v-0.29c0-0.92-0.76-1.67-1.68-1.67l-11.53 0.02c-0.92 0-1.67 0.76-1.67 1.68z"/>
		<path id="&lt;Path&gt;" class="s2" d="m361.79 216.02v179.66h-218.5v-179.66z"/>
		<path id="&lt;Path&gt;" class="s1" d="m355.5 209.58v179.66h-218.5v-179.66z"/>
		<path id="&lt;Compound Path&gt;" class="s2" d="m355.5 391.03h-218.5c-0.99 0-1.78-0.8-1.78-1.79v-179.66c0-0.98 0.79-1.78 1.78-1.78h218.5c0.99 0 1.78 0.8 1.78 1.78v179.66c0 0.99-0.79 1.79-1.78 1.79zm-1.78-179.66v176.09h-214.94v-176.09z"/>
		<path id="&lt;Path&gt;" class="s8" d="m175.37 263.11c-11.51 0-20.81-9.3-20.81-20.8 0-11.5 9.3-20.8 20.81-20.8 11.5 0 20.8 9.3 20.8 20.8 0 11.5-9.3 20.8-20.8 20.8z"/>
		<path id="&lt;Path&gt;" class="s1" d="m172.8 253.55q-0.03 0-0.05 0c-0.81 0.04-1.6-0.35-2.17-0.93l-8.56-8.74c-1.12-1.15-1.1-3 0.04-4.12 1.14-1.12 2.98-1.12 4.1 0.03l6.35 6.46 10.17-11.77c1.05-1.21 2.88-1.35 4.1-0.3 1.21 1.05 1.34 2.88 0.3 4.09l-12.23 14.21c-0.52 0.61-1.26 1.03-2.05 1.07z"/>
		<path id="&lt;Path&gt;" class="s8" d="m175.37 318.04c-11.51 0-20.81-9.3-20.81-20.81 0-11.5 9.3-20.8 20.81-20.8 11.5 0 20.8 9.3 20.8 20.8 0 11.51-9.3 20.81-20.8 20.81z"/>
		<path id="&lt;Path&gt;" class="s1" d="m172.8 308.47q-0.03 0-0.05 0c-0.81 0.04-1.6-0.35-2.17-0.93l-8.56-8.74c-1.12-1.14-1.1-2.99 0.04-4.12 1.14-1.12 2.98-1.11 4.1 0.03l6.35 6.46 10.17-11.77c1.05-1.21 2.88-1.34 4.1-0.3 1.21 1.05 1.34 2.88 0.3 4.1l-12.23 14.21c-0.52 0.6-1.26 1.02-2.05 1.06z"/>
		<path id="&lt;Path&gt;" class="s8" d="m175.37 375.35c-11.51 0-20.81-9.3-20.81-20.8 0-11.51 9.3-20.81 20.81-20.81 11.5 0 20.8 9.3 20.8 20.81 0 11.5-9.3 20.8-20.8 20.8z"/>
		<path id="&lt;Path&gt;" class="s1" d="m172.8 365.78q-0.03 0-0.05 0c-0.81 0.04-1.6-0.35-2.17-0.92l-8.56-8.75c-1.12-1.14-1.1-2.99 0.04-4.12 1.14-1.12 2.98-1.11 4.1 0.03l6.35 6.47 10.17-11.78c1.05-1.21 2.88-1.34 4.1-0.29 1.21 1.04 1.34 2.88 0.3 4.09l-12.23 14.21c-0.52 0.6-1.26 1.02-2.05 1.06z"/>
		<path id="&lt;Path&gt;" class="s2" d="m257.55 238.54h-49.92c-0.99 0-1.78-1.12-1.78-2.1 0-0.99 0.79-2.11 1.78-2.11h49.92c0.99 0 1.79 1.12 1.79 2.11 0 0.98-0.8 2.1-1.79 2.1z"/>
		<path id="&lt;Path&gt;" class="s2" d="m275.38 253.24h-67.75c-0.99 0-1.78-1.11-1.78-2.1 0-0.99 0.79-2.1 1.78-2.1h67.75c0.99 0 1.79 1.11 1.79 2.1 0 0.99-0.8 2.1-1.79 2.1z"/>
		<path id="&lt;Path&gt;" class="s2" d="m327.09 238.54h-62.4c-0.99 0-1.79-1.12-1.79-2.1 0-0.99 0.8-2.11 1.79-2.11h62.4c0.99 0 1.78 1.12 1.78 2.11 0 0.98-0.79 2.1-1.78 2.1z"/>
		<path id="&lt;Path&gt;" class="s2" d="m257.55 291.05h-49.92c-0.99 0-1.78-0.06-1.78-1.05 0-0.98 0.79-1.05 1.78-1.05h49.92c0.99 0 1.79 0.07 1.79 1.05 0 0.99-0.8 1.05-1.79 1.05z"/>
		<path id="&lt;Path&gt;" class="s2" d="m275.38 312.06h-67.75c-0.99 0-1.78-1.11-1.78-2.1 0-0.98 0.79-2.1 1.78-2.1h67.75c0.99 0 1.79 1.12 1.79 2.1 0 0.99-0.8 2.1-1.79 2.1z"/>
		<path id="&lt;Path&gt;" class="s2" d="m327.09 291.05h-62.4c-0.99 0-1.79-0.06-1.79-1.05 0-0.98 0.8-1.05 1.79-1.05h62.4c0.99 0 1.78 0.07 1.78 1.05 0 0.99-0.79 1.05-1.78 1.05z"/>
		<path id="&lt;Path&gt;" class="s2" d="m257.55 349.87h-49.92c-0.99 0-1.78-1.11-1.78-2.1 0-0.98 0.79-2.1 1.78-2.1h49.92c0.99 0 1.79 1.12 1.79 2.1 0 0.99-0.8 2.1-1.79 2.1z"/>
		<path id="&lt;Path&gt;" class="s2" d="m275.38 366.68h-67.75c-0.99 0-1.78-1.12-1.78-2.1 0-0.99 0.79-2.1 1.78-2.1h67.75c0.99 0 1.79 1.11 1.79 2.1 0 0.98-0.8 2.1-1.79 2.1z"/>
		<path id="&lt;Path&gt;" class="s2" d="m327.09 349.87h-62.4c-0.99 0-1.79-1.11-1.79-2.1 0-0.98 0.8-2.1 1.79-2.1h62.4c0.99 0 1.78 1.12 1.78 2.1 0 0.99-0.79 2.1-1.78 2.1z"/>
		<path id="&lt;Path&gt;" class="s1" d="m744.37 935.62c-45.69 0-82.62-36.93-82.62-82.62 0-45.7 36.93-82.63 82.62-82.63 45.7 0 82.63 36.93 82.63 82.63 0 45.69-36.93 82.62-82.63 82.62z"/>
		<path id="&lt;Compound Path&gt;" class="s2" d="m744.37 939.19c-47.66 0-86.19-38.53-86.19-86.19 0-47.67 38.53-86.2 86.19-86.2 47.67 0 86.2 38.53 86.2 86.2 0 47.66-38.53 86.19-86.2 86.19zm0-7.13c-43.72 0-79.06-35.34-79.06-79.06 0-43.72 35.34-79.06 79.06-79.06 43.72 0 79.06 35.34 79.06 79.06 0 43.72-35.34 79.06-79.06 79.06z"/>
		<path id="&lt;Path&gt;" class="s8" d="m746.95 857.57l63.76-23.26c0 0-17.72-51.74-65.34-50.47z"/>
		<path id="&lt;Path&gt;" class="s2" d="m744.91 789.14h-1.07c-1.63 0-2.96 1.32-2.96 2.95v79.19c0 1.63 1.33 2.96 2.96 2.96h1.07c1.63 0 2.95-1.33 2.95-2.96v-79.19c0-1.63-1.32-2.95-2.95-2.95z"/>
		<path id="&lt;Path&gt;" class="s2" d="m776.59 847.99c-0.66-1.8-2.68-2.73-4.48-2.07l-42.48 15.57c-1.8 0.66-2.74 2.67-2.08 4.48l0.43 1.16c0.43 1.17 1.72 1.77 2.89 1.34l43.64-16c1.81-0.66 2.74-2.67 2.08-4.48z"/>
		<path id="&lt;Path&gt;" class="s2" d="m814.03 858.68c0.02-0.48-0.35-0.88-0.83-0.9l-17.01-0.73c-0.48-0.02-0.88 0.35-0.9 0.82-0.02 0.48 0.35 0.88 0.82 0.9l17.02 0.73c0.47 0.02 0.88-0.35 0.9-0.82z"/>
		<path id="&lt;Path&gt;" class="s2" d="m809.85 840.45c-0.08-0.31-0.4-0.5-0.71-0.41l-11.11 3.03c-0.31 0.09-0.49 0.41-0.41 0.72 0.09 0.31 0.41 0.49 0.72 0.41l11.11-3.03c0.31-0.09 0.49-0.41 0.4-0.72z"/>
		<path id="&lt;Path&gt;" class="s2" d="m811.23 850.11c0-0.32-0.27-0.58-0.59-0.57l-11.51 0.23c-0.32 0-0.58 0.27-0.57 0.59 0 0.32 0.27 0.58 0.59 0.57l11.51-0.22c0.32-0.01 0.58-0.28 0.57-0.6z"/>
		<path id="&lt;Path&gt;" class="s2" d="m800.43 894.07c0.28-0.39 0.18-0.93-0.2-1.2l-13.9-9.84c-0.39-0.27-0.93-0.18-1.21 0.21-0.27 0.39-0.18 0.93 0.21 1.2l13.9 9.84c0.39 0.27 0.93 0.18 1.2-0.21z"/>
		<path id="&lt;Path&gt;" class="s2" d="m809.3 867.4c0.05-0.32-0.17-0.62-0.48-0.67l-11.37-1.82c-0.32-0.05-0.62 0.17-0.67 0.49-0.05 0.32 0.17 0.62 0.49 0.67l11.36 1.81c0.32 0.05 0.62-0.17 0.67-0.48z"/>
		<path id="&lt;Path&gt;" class="s2" d="m806.81 876.49c0.1-0.3-0.08-0.63-0.38-0.73l-10.98-3.47c-0.3-0.1-0.63 0.07-0.73 0.38-0.1 0.3 0.07 0.63 0.38 0.73l10.98 3.47c0.3 0.1 0.63-0.07 0.73-0.38z"/>
		<path id="&lt;Path&gt;" class="s2" d="m802.73 885.36c0.17-0.27 0.08-0.63-0.19-0.8l-9.79-6.05c-0.28-0.17-0.64-0.08-0.81 0.19-0.17 0.27-0.08 0.63 0.19 0.8l9.8 6.05c0.27 0.17 0.63 0.08 0.8-0.19z"/>
		<path id="&lt;Path&gt;" class="s2" d="m770.45 918.55c0.43-0.19 0.63-0.7 0.44-1.13l-6.82-15.61c-0.19-0.43-0.7-0.63-1.13-0.44-0.44 0.19-0.64 0.7-0.45 1.13l6.82 15.61c0.19 0.43 0.7 0.63 1.14 0.44z"/>
		<path id="&lt;Path&gt;" class="s2" d="m791.82 900.3c0.21-0.25 0.18-0.62-0.07-0.83l-8.79-7.42c-0.25-0.21-0.62-0.18-0.83 0.07-0.2 0.24-0.17 0.61 0.07 0.82l8.8 7.43c0.25 0.2 0.62 0.17 0.82-0.07z"/>
		<path id="&lt;Path&gt;" class="s2" d="m784.99 906.8c0.24-0.21 0.26-0.58 0.05-0.83l-7.6-8.64c-0.21-0.24-0.58-0.26-0.83-0.05-0.24 0.21-0.26 0.58-0.05 0.82l7.6 8.65c0.22 0.24 0.59 0.26 0.83 0.05z"/>
		<path id="&lt;Path&gt;" class="s2" d="m776.91 912.28c0.29-0.14 0.4-0.5 0.26-0.78l-5.26-10.24c-0.15-0.29-0.5-0.4-0.79-0.26-0.29 0.15-0.4 0.51-0.25 0.79l5.26 10.24c0.14 0.29 0.5 0.4 0.78 0.25z"/>
		<path id="&lt;Path&gt;" class="s2" d="m730.54 922.11c0.46 0.1 0.92-0.2 1.02-0.67l3.54-16.66c0.09-0.46-0.21-0.92-0.67-1.02-0.47-0.1-0.93 0.2-1.02 0.66l-3.54 16.66c-0.1 0.47 0.2 0.93 0.67 1.03z"/>
		<path id="&lt;Path&gt;" class="s2" d="m758.55 919.69c0.31-0.08 0.5-0.39 0.42-0.71l-2.83-11.15c-0.08-0.31-0.4-0.5-0.71-0.43-0.32 0.08-0.51 0.4-0.43 0.71l2.84 11.16c0.08 0.31 0.4 0.5 0.71 0.42z"/>
		<path id="&lt;Path&gt;" class="s2" d="m749.21 921.01c0.32-0.04 0.55-0.32 0.52-0.64l-1.16-11.46c-0.03-0.32-0.32-0.55-0.64-0.52-0.32 0.03-0.55 0.32-0.52 0.64l1.16 11.45c0.03 0.32 0.32 0.56 0.64 0.53z"/>
		<path id="&lt;Path&gt;" class="s2" d="m707.47 794.9c0.41-0.24 0.94-0.11 1.19 0.29l8.85 14.55c0.24 0.41 0.11 0.94-0.29 1.19-0.41 0.25-0.94 0.12-1.19-0.29l-8.85-14.55c-0.25-0.41-0.12-0.94 0.29-1.19z"/>
		<path id="&lt;Path&gt;" class="s2" d="m734.7 787.91c0.32-0.03 0.6 0.21 0.63 0.53l1.02 11.46c0.03 0.32-0.21 0.61-0.53 0.64-0.32 0.02-0.6-0.21-0.63-0.53l-1.02-11.47c-0.03-0.32 0.21-0.61 0.53-0.63z"/>
		<path id="&lt;Path&gt;" class="s2" d="m725.45 789.76c0.31-0.07 0.63 0.12 0.7 0.43l2.71 11.19c0.07 0.31-0.12 0.63-0.43 0.71-0.32 0.07-0.63-0.12-0.71-0.43l-2.7-11.19c-0.08-0.32 0.12-0.63 0.43-0.71z"/>
		<path id="&lt;Path&gt;" class="s2" d="m716.32 793.22c0.28-0.15 0.64-0.04 0.79 0.24l5.35 10.19c0.15 0.29 0.04 0.64-0.24 0.79-0.29 0.15-0.64 0.04-0.79-0.25l-5.36-10.19c-0.14-0.28-0.03-0.63 0.25-0.78z"/>
		<path id="&lt;Path&gt;" class="s2" d="m682.47 822.28c0.22-0.42 0.74-0.58 1.16-0.36l15.1 7.87c0.43 0.22 0.59 0.74 0.37 1.16-0.22 0.42-0.74 0.59-1.16 0.37l-15.11-7.87c-0.42-0.22-0.58-0.75-0.36-1.17z"/>
		<path id="&lt;Path&gt;" class="s2" d="m702.15 802.21c0.25-0.19 0.62-0.14 0.81 0.12l6.81 9.28c0.19 0.26 0.13 0.63-0.13 0.82-0.26 0.19-0.62 0.13-0.81-0.12l-6.81-9.29c-0.19-0.26-0.13-0.62 0.13-0.81z"/>
		<path id="&lt;Path&gt;" class="s2" d="m695.19 808.58c0.23-0.23 0.6-0.23 0.83 0l8.1 8.18c0.23 0.23 0.22 0.6 0 0.83-0.23 0.22-0.6 0.22-0.83-0.01l-8.1-8.18c-0.23-0.22-0.23-0.59 0-0.82z"/>
		<path id="&lt;Path&gt;" class="s2" d="m689.17 816.26c0.16-0.28 0.52-0.36 0.8-0.2l9.85 5.95c0.28 0.17 0.37 0.53 0.2 0.8-0.16 0.28-0.52 0.37-0.8 0.2l-9.85-5.95c-0.28-0.16-0.37-0.53-0.2-0.8z"/>
		<path id="&lt;Path&gt;" class="s2" d="m675.12 859.3c-0.02-0.47 0.35-0.88 0.82-0.9l17.01-0.89c0.47-0.02 0.88 0.35 0.91 0.82 0.02 0.48-0.35 0.89-0.82 0.91l-17.01 0.88c-0.47 0.03-0.88-0.34-0.91-0.82z"/>
		<path id="&lt;Path&gt;" class="s2" d="m681.89 832.02c0.12-0.3 0.47-0.43 0.76-0.31l10.58 4.55c0.3 0.12 0.43 0.47 0.31 0.76-0.13 0.3-0.47 0.44-0.77 0.31l-10.58-4.54c-0.29-0.13-0.43-0.48-0.3-0.77z"/>
		<path id="&lt;Path&gt;" class="s2" d="m679.13 841.04c0.08-0.31 0.4-0.5 0.72-0.42l11.13 2.94c0.31 0.08 0.49 0.4 0.41 0.71-0.08 0.31-0.4 0.5-0.71 0.42l-11.13-2.94c-0.31-0.08-0.5-0.4-0.42-0.71z"/>
		<path id="&lt;Path&gt;" class="s2" d="m677.84 850.72c0-0.33 0.27-0.59 0.59-0.58l11.51 0.12c0.32 0 0.58 0.27 0.58 0.59-0.01 0.32-0.27 0.58-0.59 0.58l-11.51-0.12c-0.32-0.01-0.58-0.27-0.58-0.59z"/>
		<path id="&lt;Path&gt;" class="s2" d="m689.04 894.58c-0.28-0.39-0.19-0.93 0.19-1.21l13.81-9.96c0.39-0.28 0.93-0.19 1.21 0.19 0.28 0.39 0.19 0.93-0.19 1.21l-13.82 9.96c-0.38 0.28-0.92 0.19-1.2-0.19z"/>
		<path id="&lt;Path&gt;" class="s2" d="m679.93 867.98c-0.06-0.32 0.16-0.62 0.48-0.67l11.35-1.92c0.31-0.05 0.62 0.16 0.67 0.48 0.05 0.32-0.16 0.62-0.48 0.67l-11.35 1.92c-0.32 0.05-0.62-0.16-0.67-0.48z"/>
		<path id="&lt;Path&gt;" class="s2" d="m682.5 877.05c-0.1-0.3 0.07-0.63 0.38-0.73l10.94-3.57c0.31-0.1 0.64 0.07 0.74 0.37 0.1 0.31-0.07 0.64-0.38 0.74l-10.94 3.57c-0.31 0.1-0.64-0.07-0.74-0.38z"/>
		<path id="&lt;Path&gt;" class="s2" d="m686.66 885.89c-0.17-0.28-0.09-0.64 0.18-0.81l9.74-6.14c0.28-0.17 0.64-0.09 0.81 0.19 0.17 0.27 0.09 0.63-0.18 0.8l-9.74 6.14c-0.27 0.17-0.64 0.09-0.81-0.18z"/>
		<path id="&lt;Path&gt;" class="s2" d="m697.7 900.72c-0.21-0.24-0.18-0.61 0.06-0.82l8.73-7.51c0.25-0.21 0.62-0.18 0.83 0.07 0.21 0.24 0.18 0.61-0.06 0.82l-8.73 7.5c-0.25 0.21-0.62 0.19-0.83-0.06z"/>
		<path id="&lt;Path&gt;" class="s2" d="m704.6 907.16c-0.25-0.21-0.27-0.58-0.06-0.82l7.52-8.71c0.21-0.25 0.58-0.27 0.82-0.06 0.25 0.21 0.27 0.58 0.06 0.82l-7.52 8.71c-0.21 0.24-0.58 0.27-0.82 0.06z"/>
		<path id="&lt;Path&gt;" class="s2" d="m712.72 912.57c-0.29-0.14-0.4-0.49-0.26-0.78l5.17-10.29c0.14-0.28 0.49-0.4 0.78-0.26 0.29 0.15 0.41 0.5 0.26 0.79l-5.17 10.28c-0.14 0.29-0.49 0.41-0.78 0.26z"/>
		<path id="&lt;Path&gt;" class="s2" d="m720.69 917c-0.29-0.13-0.43-0.48-0.3-0.77l4.62-10.54c0.13-0.3 0.48-0.43 0.77-0.3 0.3 0.13 0.43 0.47 0.3 0.77l-4.62 10.54c-0.13 0.29-0.48 0.43-0.77 0.3z"/>
		<path id="&lt;Path&gt;" class="s2" d="m740.51 921.04c-0.32-0.02-0.56-0.31-0.53-0.63l1.05-11.46c0.03-0.32 0.31-0.56 0.63-0.53 0.32 0.03 0.56 0.31 0.53 0.63l-1.05 11.47c-0.03 0.32-0.31 0.55-0.63 0.52z"/>
		<path id="&lt;Path&gt;" class="s2" d="m567.16 269.14c-1.96 0-3.55-2.92-3.55-6.53 0-3.6 1.59-6.52 3.55-6.52 1.97 0 3.55 2.92 3.55 6.52 0 3.61-1.58 6.53-3.55 6.53z"/>
		<path id="&lt;Path&gt;" class="s2" d="m508.53 269.14c-1.97 0-3.55-2.92-3.55-6.53 0-3.6 1.58-6.52 3.55-6.52 1.96 0 3.55 2.92 3.55 6.52 0 3.61-1.59 6.53-3.55 6.53z"/>
		<path id="&lt;Path&gt;" class="s0" d="m1779.04 255.61c-21.62-14.61-51.62-9-76.82-0.63-20.22 6.73-41.63 16.11-51.64 34.93-9.25 17.38-6.45 38.53-2.13 57.75 4.32 19.21 9.92 39.07 5.52 58.26-3.77 16.45-14.46 30.33-21.52 45.66-12.95 28.16-11.7 65.07 10.77 86.42 14.35 13.64 34.76 18.91 54.48 20.62 39.28 3.4 78.58-7.04 117.61-3.3 36.31 3.47 73.46 19.06 109.94 8.46 58.55-17 82.78-90.57 68.8-145.03-5.55-21.6-14.02-42.24-20.97-63.4-9-27.42-5.07-76.42-31.82-93.3-11.81-7.46-26.19-9.52-40.13-10.36-32.44-1.95-65.22 1.81-96.38 11.04-4.22 1.25-8.71 2.61-12.96 1.43-3.85-1.06-6.81-4.03-9.95-6.5q-1.38-1.08-2.8-2.05z"/>
		<path id="&lt;Path&gt;" class="s1" d="m1565.33 382.86c-2.43-2.43-4.44-10.4 1.6-12.5 6.03-2.11 15.67 10.08 18.83 11.28 3.15 1.19 21.67 1.24 21.67 1.24 0 0-10.66-8.29-13.12-15.27-2.46-6.98 2.65-8.74 6.01-8.48 3.36 0.27 13.68 8.16 16.64 9.54 2.96 1.38 14.23 1.24 21.1 3.45 6.88 2.21 12.03 9.96 12.03 9.96l2.08 3.85 0.01 0.03 6.78 14.4 35.41 62.02 43.43-62.94 31.37 53.17c0 0-31.37 73.01-74.8 73.01-37.69 0-62.54-58.19-73.46-90.63-6.64 0.92-14.02 1.36-19.74 0.69-11.75-1.39-21.25-19.75-21.25-19.75-2.36-3.24-6.5-10.07-6.5-10.07 0 0-7.1-8.95-8.28-14.4-1.19-5.46 0.18-7.86 0.18-7.86 0 0 0.21-0.55 0.01-0.74z"/>
		<path id="&lt;Compound Path&gt;" class="s2" d="m1694.37 526.47c-37.64 0-62.47-56.41-74.04-90.54-7.29 0.96-14.23 1.18-19.26 0.59-11.84-1.4-21.16-18.79-21.87-20.15-2.29-3.14-6.09-9.38-6.48-10.02-0.6-0.76-7.23-9.27-8.41-14.71-1.14-5.22-0.02-7.88 0.23-8.37q0-0.01 0-0.02c-1.67-1.84-2.96-5.64-2.23-8.89 0.53-2.34 2.03-4 4.34-4.8q0.83-0.3 1.78-0.3c4.26 0 9.24 4.48 13.24 8.08 1.81 1.63 3.53 3.18 4.39 3.5 2.14 0.82 12.87 1.1 18.98 1.17-3.22-2.76-9.63-8.74-11.53-14.12-1.02-2.92-0.92-5.28 0.32-7.03 1.15-1.63 3.34-2.6 5.84-2.6q0.37 0 0.71 0.03c2.22 0.17 6.47 2.88 11.79 6.4 2.14 1.41 4.16 2.75 5.15 3.21 1.22 0.57 4.41 0.89 7.78 1.23 4.41 0.45 9.41 0.95 13.22 2.18 7.08 2.28 12.26 9.97 12.47 10.3l2.12 3.92 6.82 14.47 34.71 60.79 42.66-61.83c0.16-0.24 0.44-0.39 0.73-0.36 0.29 0.01 0.55 0.16 0.7 0.41l31.37 53.17c0.14 0.23 0.16 0.52 0.05 0.76-0.08 0.19-8.03 18.55-21.21 36.67-17.53 24.12-36.33 36.86-54.37 36.86zm-73.46-92.32c0.36 0 0.68 0.22 0.8 0.57 11.33 33.63 35.83 90.05 72.66 90.05 40.74 0 71.28-66.36 73.85-72.1l-30.48-51.65-42.67 61.85c-0.17 0.24-0.42 0.38-0.74 0.36-0.29-0.01-0.55-0.17-0.7-0.42l-35.4-62.03-6.82-14.46-2.07-3.84c-0.01-0.01-5.03-7.46-11.54-9.55-3.64-1.18-8.54-1.67-12.87-2.11-3.82-0.39-6.84-0.69-8.33-1.38-1.1-0.51-3.08-1.82-5.36-3.33-3.81-2.52-9.03-5.98-10.99-6.13q-0.28-0.02-0.58-0.02c-0.73 0-3.22 0.13-4.46 1.88q-1.35 1.92-0.1 5.49c2.36 6.66 12.74 14.8 12.84 14.88 0.29 0.22 0.4 0.49 0.28 0.83-0.11 0.34-0.44 0.46-0.8 0.46q0 0 0 0c-1.91 0-18.77 0.03-21.97-1.18-1.16-0.44-2.82-1.88-4.93-3.78-3.58-3.22-8.49-7.61-12.1-7.61q-0.66 0.01-1.22 0.21-2.63 0.93-3.24 3.59c-0.61 2.68 0.55 6.11 1.96 7.52 0.54 0.53 0.3 1.34 0.18 1.66q-0.02 0.06-0.06 0.11c0 0.02-1.17 2.27-0.08 7.26 1.13 5.2 8.04 13.97 8.11 14.06q0.03 0.04 0.06 0.08c0.04 0.07 4.16 6.84 6.47 10.01q0.03 0.05 0.06 0.11c0.1 0.18 9.43 17.98 20.6 19.3 5.03 0.59 12.13 0.34 19.52-0.69q0.06-0.01 0.12 0z"/>
		<path id="&lt;Path&gt;" class="s2" d="m1584.68 406.75c3.54-0.83 8 3.31 10.58 7.84q0.81 1.43 1.31 2.41c1.74-0.96 9.36-1.91 10.28-2.02 0.13-0.02 0.26 0.08 0.27 0.22 0.02 0.14-0.08 0.26-0.21 0.28-3.48 0.42-9.09 1.3-10.12 1.96 0.97 1.96 1 2.5 1 2.57 0 0.14-0.12 0.25-0.26 0.25-0.14-0.01-0.25-0.12-0.24-0.26-0.01-0.03-0.08-0.97-2.47-5.16-2.42-4.26-6.76-8.37-10.02-7.6-3.52 0.83-4.91 4.46-3.92 10.22 0.02 0.14-0.07 0.26-0.2 0.29q-0.12 0.02-0.21-0.05-0.07-0.06-0.08-0.16c-1.05-6.06 0.48-9.89 4.29-10.79z"/>
		<path id="&lt;Path&gt;" class="s3" d="m1597.54 420.5q-0.01 0-0.02 0c-0.37 0-0.67-0.23-0.66-0.6 0 0-0.15-0.94-2.41-4.9-2.11-3.72-5.83-7.45-8.83-7.45q-0.38 0-0.73 0.09c-3.26 0.77-4.54 4.23-3.59 9.74q0.04 0.28-0.11 0.51-0.17 0.22-0.44 0.28c-0.03 0-0.09 0.01-0.12 0.01q-0.23-0.01-0.42-0.15-0.2-0.17-0.24-0.41c-1.09-6.32 0.55-10.33 4.61-11.28q0.51-0.12 1.05-0.12c3.7 0 7.68 4.1 10 8.16q0.63 1.1 1.13 2.06c2.34-0.93 9.21-1.78 10.03-1.88 0.41-0.01 0.71 0.25 0.76 0.59 0.04 0.37-0.22 0.71-0.59 0.75-3.83 0.47-8.19 1.21-9.6 1.74 0.78 1.63 0.86 2.12 0.85 2.29-0.01 0.37-0.31 0.57-0.67 0.57z"/>
		<path id="&lt;Path&gt;" class="s2" d="m1574.75 392.56c5.93-2 10.33 2.68 11.43 5.13 1.07 2.4 6.27 7.83 7.02 8.6 1.85-0.27 7.26-1.04 7.88-0.78 0.13 0.06 0.19 0.2 0.13 0.33-0.05 0.13-0.2 0.19-0.33 0.13-0.42-0.14-4.3 0.33-7.74 0.84q-0.12 0.02-0.22-0.07c-0.24-0.26-6.01-6.19-7.2-8.85-1.04-2.31-5.2-6.75-10.8-4.85q-1.43 0.48-2.11 1.9c-1.75 3.67 0.81 10.77 0.84 10.84 0.05 0.13-0.02 0.27-0.15 0.32q-0.14 0.04-0.24-0.04-0.06-0.04-0.08-0.11c-0.11-0.3-2.67-7.37-0.82-11.23q0.77-1.61 2.39-2.16z"/>
		<path id="&lt;Path&gt;" class="s3" d="m1593.1 407.24q-0.28-0.01-0.48-0.21c-0.62-0.64-6.1-6.32-7.29-8.96-0.74-1.65-3.6-5.07-7.71-5.07q-1.28 0.01-2.57 0.44-1.25 0.43-1.85 1.68c-1.68 3.5 0.82 10.44 0.85 10.51 0.13 0.35-0.05 0.74-0.4 0.87-0.23 0.08-0.48 0.04-0.66-0.11q-0.14-0.12-0.21-0.29c-0.11-0.31-2.73-7.55-0.8-11.56q0.85-1.77 2.64-2.38 1.5-0.51 3-0.51c4.6 0 7.93 3.6 8.94 5.87 1 2.22 5.74 7.23 6.79 8.32 1.82-0.27 5.7-0.81 7.2-0.81 0.34 0 0.55 0.03 0.7 0.09 0.34 0.15 0.5 0.55 0.35 0.89-0.14 0.33-0.55 0.49-0.88 0.35q-0.01 0.01-0.15 0.01c-1.06 0-4.51 0.43-7.37 0.86-0.02 0-0.08 0.01-0.1 0.01z"/>
		<path id="&lt;Path&gt;" class="s2" d="m1565.9 382.94c1.27-1.27 3.58-1.95 6.03-1.77 3.03 0.23 5.77 1.72 7.52 4.1 3.22 4.39 5.53 6.2 5.95 6.51l9.03-0.65c0.14-0.01 0.26 0.09 0.27 0.23 0.01 0.14-0.1 0.26-0.23 0.27l-9.12 0.66q-0.09 0.01-0.16-0.04c-0.1-0.07-2.54-1.76-6.15-6.68-1.65-2.26-4.26-3.68-7.15-3.9-2.3-0.17-4.46 0.45-5.64 1.63-0.09 0.09-0.23 0.1-0.33 0.02q-0.01-0.01-0.02-0.02c-0.1-0.1-0.1-0.26 0-0.36z"/>
		<path id="&lt;Path&gt;" class="s3" d="m1585.33 392.72q-0.21 0-0.38-0.12c-0.27-0.19-2.69-1.93-6.25-6.78-1.58-2.16-4.08-3.52-6.84-3.72-2.2-0.18-4.23 0.42-5.31 1.5-0.23 0.24-0.64 0.26-0.9 0.05q-0.26-0.26-0.25-0.53 0-0.28 0.2-0.47c1.34-1.36 3.78-2.09 6.36-1.9 3.16 0.24 6.01 1.79 7.83 4.27 2.93 3.99 5.1 5.73 5.74 6.23l8.87-0.75q0 0 0 0c0.4 0 0.7 0.38 0.72 0.73 0.03 0.37-0.25 0.74-0.62 0.77l-9.12 0.69c-0.01 0-0.04 0.03-0.05 0.03z"/>
		<path id="&lt;Path&gt;" class="s2" d="m1634.05 410.47c5.77 0.75 10.37 2.51 10.41 2.53 0.13 0.05 0.2 0.19 0.15 0.32-0.05 0.13-0.2 0.2-0.33 0.15-0.18-0.07-18.16-6.88-28.09 0.94-0.09 0.07-0.22 0.07-0.31-0.01q-0.02-0.01-0.04-0.04c-0.08-0.1-0.07-0.26 0.04-0.35 5.32-4.18 12.82-4.23 18.17-3.54z"/>
		<path id="&lt;Path&gt;" class="s3" d="m1616.04 414.88q-0.24 0-0.43-0.15c-0.03-0.02-0.09-0.09-0.11-0.11q-0.16-0.21-0.13-0.49 0.03-0.28 0.25-0.45c3.34-2.63 7.87-3.97 13.45-3.97q2.43 0 5.03 0.34c5.75 0.75 10.32 2.48 10.51 2.55q0.27 0.11 0.38 0.36 0.11 0.26 0.01 0.52c-0.13 0.33-0.53 0.51-0.87 0.38-0.07-0.02-7.31-2.78-15.14-2.78-5.23 0-9.45 1.23-12.53 3.66q-0.19 0.14-0.42 0.14z"/>
		<path id="&lt;Path&gt;" class="s2" d="m1895.86 272.1l4.6-1.63-4.7-1.43c-1.4-0.33-2.5-1.41-2.84-2.81l-1.7-6.93-1.36 6.88c-0.29 1.45-1.39 2.6-2.83 2.96l-4.33 1.64 4.27 1.36c1.49 0.29 2.67 1.44 2.98 2.93l1.44 6.71 1.56-6.81c0.33-1.44 1.47-2.56 2.91-2.87z"/>
		<path id="&lt;Path&gt;" class="s2" d="m1696.09 399.18l6.98-2.47-7.13-2.17c-2.12-0.49-3.79-2.14-4.31-4.25l-2.58-10.51-2.07 10.43c-0.43 2.2-2.11 3.94-4.28 4.48l-6.56 2.5 6.47 2.05c2.26 0.45 4.04 2.2 4.52 4.45l2.18 10.18 2.37-10.34c0.5-2.18 2.22-3.88 4.41-4.35z"/>
		<path id="&lt;Path&gt;" class="s1" d="m1943.69 396.2l8.79-3.11-8.98-2.75c-2.68-0.61-4.78-2.68-5.44-5.35l-3.25-13.25-2.6 13.15c-0.55 2.77-2.66 4.97-5.4 5.65l-8.27 3.14 8.16 2.59c2.85 0.56 5.09 2.77 5.7 5.61l2.74 12.83 2.99-13.03c0.63-2.75 2.8-4.89 5.56-5.48z"/>
		<path id="&lt;Path&gt;" class="s1" d="m1750.64 273l5.12-1.81-5.23-1.6c-1.56-0.36-2.79-1.57-3.17-3.12l-1.9-7.73-1.52 7.67c-0.32 1.61-1.54 2.9-3.14 3.29l-4.82 1.83 4.75 1.51c1.66 0.33 2.97 1.62 3.32 3.27l1.61 7.48 1.73-7.59c0.37-1.61 1.64-2.86 3.25-3.2z"/>
		<path id="&lt;Path&gt;" class="s1" d="m2064.41 382.86c2.44-2.43 4.44-10.4-1.6-12.5-6.03-2.11-15.67 10.08-18.82 11.28-3.16 1.19-21.68 1.24-21.68 1.24 0 0 10.66-8.29 13.12-15.27 2.46-6.98-2.64-8.74-6-8.48-3.37 0.27-13.68 8.16-16.65 9.54-2.96 1.38-14.23 1.24-21.1 3.45-6.87 2.21-12.02 9.96-12.02 9.96l-2.08 3.85-0.02 0.03-6.78 14.4-35.41 62.02-43.42-62.94-31.38 53.17c0 0 31.38 73.01 74.8 73.01 37.69 0 62.54-58.19 73.47-90.63 6.63 0.92 14.02 1.36 19.73 0.69 11.76-1.39 21.25-19.75 21.25-19.75 2.36-3.24 6.51-10.07 6.51-10.07 0 0 7.09-8.95 8.28-14.4 1.18-5.46-0.18-7.86-0.18-7.86 0 0-0.22-0.55-0.02-0.74z"/>
		<path id="&lt;Compound Path&gt;" class="s2" d="m1935.37 526.47c-18.04 0-36.84-12.74-54.37-36.86-13.17-18.12-21.13-36.48-21.21-36.67-0.1-0.24-0.08-0.53 0.05-0.76l31.38-53.17c0.14-0.25 0.41-0.4 0.7-0.41 0.29-0.03 0.56 0.12 0.73 0.36l42.65 61.83 34.74-60.85 6.76-14.34 2.11-3.92c0.26-0.4 5.44-8.09 12.51-10.37 3.81-1.23 8.81-1.73 13.22-2.18 3.37-0.34 6.56-0.66 7.79-1.23 0.98-0.46 3-1.8 5.14-3.21 5.32-3.52 9.57-6.23 11.79-6.4q0.35-0.03 0.71-0.03c2.51 0 4.69 0.97 5.85 2.6 1.23 1.75 1.34 4.11 0.31 7.03-1.9 5.38-8.31 11.36-11.53 14.12 6.12-0.07 16.84-0.35 18.99-1.17 0.85-0.32 2.57-1.87 4.39-3.5 3.99-3.6 8.97-8.08 13.24-8.08q0.94 0 1.77 0.3c2.31 0.8 3.81 2.46 4.34 4.8 0.74 3.25-0.56 7.05-2.23 8.89q0.01 0.01 0.01 0.02c0.24 0.5 1.36 3.15 0.22 8.37-1.18 5.44-7.81 13.95-8.4 14.71-0.39 0.64-4.2 6.88-6.48 10.02-0.71 1.36-10.03 18.75-21.88 20.15q-2.81 0.33-6.3 0.33c-3.91 0-8.38-0.32-12.95-0.92-11.57 34.13-36.4 90.54-74.05 90.54zm-73.84-73.8c2.56 5.74 33.1 72.1 73.84 72.1 36.83 0 61.33-56.42 72.66-90.05 0.13-0.38 0.53-0.63 0.92-0.57 4.75 0.66 9.39 1.01 13.42 1.01q3.39 0 6.1-0.32c11.18-1.33 20.51-19.12 20.6-19.3q0.03-0.06 0.07-0.11c2.31-3.17 6.42-9.94 6.46-10.01q0.03-0.04 0.06-0.08c0.07-0.09 6.99-8.87 8.12-14.06 1.08-4.99-0.08-7.24-0.1-7.27q-0.02-0.04-0.04-0.1c-0.13-0.32-0.36-1.12 0.17-1.66 1.42-1.41 2.57-4.84 1.97-7.51q-0.61-2.66-3.25-3.58-0.56-0.2-1.21-0.2c-3.62 0-8.53 4.42-12.11 7.64-2.1 1.89-3.77 3.28-4.92 3.72-3.21 1.21-20.06 1.18-21.97 1.18q-0.01 0-0.01 0c-0.36 0-0.68-0.12-0.8-0.46-0.12-0.34 0-0.67 0.28-0.89 0.11-0.08 10.49-8.19 12.84-14.85q1.25-3.56-0.1-5.47c-1.24-1.75-3.73-1.88-4.46-1.88q-0.3 0-0.58 0.03c-1.95 0.15-7.17 3.61-10.99 6.13-2.28 1.51-4.26 2.81-5.36 3.33-1.48 0.69-4.5 0.99-8.33 1.38-4.32 0.44-9.23 0.93-12.87 2.11-6.51 2.1-11.53 9.54-11.58 9.62l-2.04 3.79-6.77 14.38-35.44 62.09c-0.15 0.25-0.41 0.41-0.7 0.42-0.31 0.02-0.57-0.12-0.74-0.36l-42.67-61.85z"/>
		<path id="&lt;Path&gt;" class="s2" d="m1819.09 240.1c0 0 10.62-5.31 23.25 0.3 5.51 2.45 20.51 13.77 23.26 32.44 2.75 18.67 24.79 58.45 24.79 58.45 0 0-10.1 10.4-19.59 14.38-9.48 3.98-18.66 7.34-18.66 7.34l-7.35-15.3 2.14 15.61c0 0-55.08 4.28-67.63 1.84-12.54-2.45-16.52-4.9-16.52-4.9l6.43-14.69-8.57 13.16-17.75-12.55c0 0 19.58-20.81 24.48-35.8 4.9-15 4.28-77.73 51.72-60.28z"/>
		<path id="&lt;Path&gt;" class="s4" d="m1764.81 440.1c-6.35 9.42-12.53 19.4-17.99 28.9q-0.28 0.01-0.56 0.02c-26.99 1.15-46.19-18.19-53.29-26.7 10.94-19.25 21.57-35.05 22.06-35.79l24.88 16.8z"/>
		<path id="&lt;Path&gt;" class="s1" d="m1789.88 299.46c0 0-8.68-8.85-15.96-6.23-7.29 2.61-8.27 18.33-0.43 21.39 7.83 3.05 17.23-3.09 17.23-3.09z"/>
		<path id="&lt;Compound Path&gt;" class="s2" d="m1778.27 316.32q-2.76-0.01-5.09-0.91c-4.52-1.77-6.07-6.97-6.01-11.25 0.06-4.71 2.09-10.16 6.46-11.73q1.49-0.54 3.15-0.54c6.79 0 13.42 6.7 13.7 6.98q0.22 0.23 0.24 0.53l0.85 12.07c0.02 0.31-0.12 0.61-0.38 0.78-0.26 0.16-6.32 4.07-12.92 4.07zm-1.49-22.73q-1.37 0-2.58 0.43c-3.07 1.11-5.27 5.29-5.33 10.17-0.05 3.71 1.22 8.19 4.92 9.63q2.04 0.8 4.48 0.8c5.15 0 10.12-2.69 11.57-3.54l-0.79-11.23c-1.17-1.12-6.83-6.26-12.27-6.26z"/>
		<path id="&lt;Path&gt;" class="s5" d="m1881.76 477.56c0 0 37.92-8.22 56.24-33.18 0 0-41.19-75.24-59.56-80.38-4.73-1.32-37.93-8.08-37.93-8.08l-51.9 2.21c-2.82 0.35-48.91 12.93-55.82 18.11-10.77 8.08-16.16 30.35-26.93 43.33-10.77 12.97-15.91 18.84-15.91 18.84 0 0 1.03 1.53 3.02 3.91 7.1 8.51 26.3 27.85 53.29 26.7q0.28-0.01 0.56-0.02 1.6-0.07 3.36-0.14 0.23 0.4 0.24 0.4c0 0-5.63 30.11-8.57 43.82-2.94 13.71-8.33 48.65-8.33 48.65 0 0 3.95 3.26 19.13-0.66 15.18-3.92 6.09-11.27 29.59-11.27 23.5 0 54.07 18.68 108.9 2.04 0 0-11.4-77.48-10.01-86.65z"/>
		<path id="&lt;Compound Path&gt;" class="s2" d="m1739.92 563.85c-5.02 0-6.75-1.32-6.94-1.47-0.23-0.19-0.34-0.48-0.29-0.78 0.05-0.35 5.42-35.12 8.33-48.7 2.66-12.44 7.62-38.75 8.44-43.16q-1.35 0.05-2.6 0.1-0.13 0.01-0.3 0.02l-0.25 0.01q-1.2 0.05-2.35 0.05c-26.22 0-44.85-18.92-51.64-27.05-2-2.39-3.03-3.92-3.08-3.98-0.21-0.32-0.19-0.74 0.07-1.03 0.05-0.06 5.27-6.02 15.9-18.84 4.74-5.71 8.46-13.31 12.05-20.66 4.57-9.36 8.89-18.2 15.02-22.8 7.07-5.3 52.76-17.84 56.22-18.27l51.97-2.21q0.1-0.01 0.21 0.01c1.35 0.28 33.28 6.78 37.99 8.09 18.5 5.18 58.39 77.71 60.08 80.79 0.15 0.29 0.13 0.65-0.06 0.91-17.06 23.23-51.26 32.19-56.16 33.37 2.25 24.43 9.36 72.85 9.45 73.46 0.06 0.42-0.19 0.82-0.59 0.94-15.39 4.67-29.96 6.94-44.54 6.94-16.48 0-29.79-2.88-41.53-5.43-8.69-1.88-16.19-3.51-23.08-3.51-13.52 0-15.89 2.42-18.64 5.21-2.01 2.05-4.29 4.37-10.74 6.03-5.03 1.3-9.39 1.96-12.94 1.96zm-5.47-2.57c0.68 0.32 2.33 0.87 5.47 0.87 3.41 0 7.62-0.64 12.52-1.9 5.99-1.55 8-3.6 9.95-5.58 3.02-3.07 5.62-5.72 19.85-5.72 7.07 0 14.66 1.65 23.44 3.55 11.66 2.53 24.88 5.39 41.17 5.39 14.19 0 28.38-2.18 43.35-6.65-1.23-8.37-11.25-77.36-9.91-86.18 0.06-0.43 0.45-0.74 0.88-0.72 0.43 0.02 0.78 0.37 0.81 0.8l0.58 11.36c5.99-1.49 38.04-10.31 54.43-32.18-3.54-6.41-41.71-74.73-58.78-79.5-4.52-1.27-35.74-7.63-37.77-8.04l-51.8 2.2c-3.65 0.45-48.78 13.02-55.34 17.94-5.8 4.35-10.03 13.01-14.52 22.18-3.63 7.45-7.39 15.14-12.26 21.01-8.92 10.74-14.03 16.67-15.5 18.36 0.46 0.63 1.34 1.8 2.6 3.31 6.83 8.18 25.93 27.52 52.6 26.39q0.13-0.01 0.28-0.01 0.14 0 0.26-0.01 1.64-0.07 3.38-0.14c0.32-0.02 0.61 0.15 0.77 0.43q0.22 0.36 0.23 0.38 0.17 0.28 0.11 0.6c-0.06 0.3-5.67 30.28-8.57 43.84-2.7 12.57-7.51 43.43-8.23 48.02z"/>
		<path id="&lt;Path&gt;" class="s1" d="m1861.15 291.4c-3.88-1-7.84 1.1-10.76 3.36l0.02-0.11q-0.05 0.1-0.08 0.15-0.03 0.02-0.06 0.05c-0.58-0.56-32.11-37.48-33.32-38.99l-34.2 38.34c1.51 13.75 2.68 30.7 15.39 38.89l-0.25 0.05c0 0-0.26 20.97-2.1 22.01-1.83 1.05-8.12 2.89-8.12 2.89 0 0 3.14 17.56 29.61 15.98 26.47-1.57 25.95-18.34 25.95-18.34 0 0-8.13-1.31-9.44-3.15-0.98-1.37-0.35-15.16 0.03-22.06q0.73-0.59 1.42-1.19c5.36-4.79 9.18-11.01 11.46-17.8 2.21 1.03 10.41 4.41 16.86 1.18 7.52-3.77 5.08-19.32-2.41-21.26z"/>
		<path id="&lt;Compound Path&gt;" class="s2" d="m1814 374.97c-23.88 0-27.14-16.62-27.17-16.78-0.08-0.43 0.18-0.85 0.6-0.97 1.7-0.49 6.37-1.94 7.88-2.77 0.92-1.27 1.6-11.61 1.73-21.07-11.81-8.11-13.45-23.41-14.9-36.93l-0.24-2.16q-0.03-0.37 0.22-0.66l34.2-38.33c0.16-0.19 0.41-0.3 0.66-0.29 0.25 0.01 0.48 0.13 0.64 0.32 1.24 1.56 28.68 33.68 32.76 38.37 3.94-2.9 7.69-3.96 10.98-3.12 4.5 1.16 7.02 6.41 7.52 11.09 0.45 4.26-0.61 9.58-4.94 11.75-1.93 0.97-4.16 1.46-6.63 1.46q0 0 0 0c-4.15 0-8.03-1.37-10.11-2.25-2.45 6.83-6.37 12.79-11.4 17.28q-0.56 0.5-1.15 0.98c-0.78 14.34-0.57 20.37-0.15 21.17 0.74 1.05 5.63 2.26 8.86 2.78 0.4 0.07 0.7 0.41 0.72 0.81 0 0.18 0.23 17.62-26.75 19.22q-1.7 0.1-3.33 0.1zm-25.32-16.35c0.88 3.1 5.49 14.65 25.32 14.65q1.58 0 3.23-0.09c22.54-1.34 24.89-13.68 25.13-16.79-2.31-0.41-7.99-1.59-9.26-3.36-0.35-0.49-1.27-1.79-0.12-22.61q0.02-0.37 0.31-0.61 0.71-0.57 1.38-1.17c5.02-4.48 8.9-10.51 11.22-17.43 0.08-0.23 0.25-0.42 0.47-0.51q0.35-0.14 0.7 0.01c1.59 0.74 5.77 2.47 10.25 2.47q0 0 0 0 3.32 0 5.87-1.28c3.56-1.78 4.4-6.36 4.01-10.05-0.52-4.85-3.09-8.81-6.26-9.62-2.91-0.76-6.32 0.34-10.03 3.2q-0.01 0.01-0.02 0.02-0.01 0.01-0.02 0.02c-0.34 0.26-0.88 0.28-1.18-0.01-0.52-0.51-28.04-32.7-32.75-38.3l-33.3 37.32 0.2 1.79c1.43 13.39 3.06 28.56 14.77 36.11 0.29 0.19 0.44 0.54 0.37 0.88q-0.06 0.26-0.24 0.44c-0.14 9.68-0.69 21.15-2.52 22.19-1.52 0.87-5.77 2.2-7.53 2.73z"/>
		<path id="&lt;Path&gt;" class="s2" d="m1847.67 543.15c3.84 0 7.65-0.24 11.29-0.81 0.25-0.04 0.42-0.27 0.38-0.51-0.04-0.25-0.26-0.41-0.52-0.38-23.39 3.65-53.84-6.36-54.14-6.47-0.25-0.07-0.49 0.05-0.57 0.29-0.08 0.23 0.05 0.49 0.28 0.57 0.26 0.08 22.23 7.31 43.28 7.31z"/>
		<path id="&lt;Path&gt;" class="s2" d="m1798.91 332.39c6.28 4.22 22.37 3.93 27.94 0 0 0-9.03 11.74-29.26 10.21z"/>
		<path id="&lt;Path&gt;" class="s2" d="m1849.44 305.94q-0.24 0-0.45-0.13c-0.4-0.25-0.52-0.77-0.28-1.17 2.39-3.86 5.09-6.07 8.05-6.57 3.37-0.56 5.77 1.36 5.87 1.44 0.36 0.29 0.42 0.83 0.12 1.19-0.29 0.36-0.83 0.42-1.19 0.12-0.02-0.01-1.94-1.51-4.55-1.07-2.44 0.42-4.75 2.37-6.85 5.78-0.16 0.26-0.44 0.41-0.72 0.41z"/>
		<path id="&lt;Path&gt;" class="s2" d="m1856 304.98c-0.27 0-0.53-0.13-0.7-0.37l-2.52-3.7c-0.26-0.39-0.16-0.92 0.22-1.18 0.39-0.27 0.92-0.17 1.18 0.22l2.53 3.71c0.26 0.38 0.16 0.91-0.23 1.18q-0.22 0.14-0.48 0.14z"/>
		<path id="&lt;Path&gt;" class="s2" d="m1784.12 306.53c-0.33 0-0.63-0.19-0.78-0.5-1.23-2.69-2.82-4.33-4.74-4.88-2.69-0.76-5.21 0.89-5.23 0.9-0.39 0.26-0.92 0.16-1.18-0.23-0.26-0.39-0.16-0.91 0.23-1.18 0.13-0.08 3.17-2.1 6.63-1.12 2.42 0.68 4.39 2.63 5.84 5.81 0.19 0.42 0.01 0.93-0.42 1.12q-0.17 0.08-0.35 0.08z"/>
		<path id="&lt;Path&gt;" class="s2" d="m1814.55 307.85q-0.2 0-0.39-0.09-1.23-0.63-2.32-1.8c-1.02-1.09-1.27-2.7-0.63-4.1 1.27-2.78 2.52-6.68 2.53-6.72 0.14-0.44 0.62-0.69 1.06-0.55 0.45 0.14 0.7 0.62 0.56 1.07-0.06 0.16-1.29 4.04-2.61 6.91-0.34 0.75-0.21 1.65 0.33 2.24q0.89 0.95 1.85 1.44c0.42 0.21 0.59 0.72 0.37 1.14-0.15 0.29-0.44 0.46-0.75 0.46z"/>
		<path id="&lt;Path&gt;" class="s2" d="m1834.28 284.73c-0.35-0.3-0.76-0.52-1.16-0.6-2.06-0.43-4.17-0.79-6.24-0.5-0.92 0.13-3.1 0.8-2.54 2.11 0.29 0.69 1.68 0.93 2.3 1.08 1.92 0.46 3.91 0.55 5.87 0.68 0.54 0.03 1.1 0.05 1.6-0.16 1.49-0.62 1.06-1.86 0.17-2.61z"/>
		<path id="&lt;Path&gt;" class="s2" d="m1795.59 283.32c0.36-0.27 0.79-0.47 1.2-0.53 2.07-0.31 4.19-0.55 6.25-0.15 0.92 0.18 3.05 0.97 2.42 2.24-0.33 0.68-1.73 0.84-2.36 0.96-1.94 0.35-3.93 0.33-5.9 0.35-0.54 0-1.1-0.01-1.59-0.25-1.45-0.7-0.95-1.91-0.02-2.62z"/>
		<path id="&lt;Path&gt;" class="s2" d="m1995.7 410.47c-5.78 0.75-10.37 2.51-10.42 2.53-0.13 0.05-0.19 0.19-0.14 0.32 0.05 0.13 0.19 0.2 0.32 0.15 0.18-0.07 18.16-6.88 28.09 0.94 0.09 0.07 0.22 0.07 0.31-0.01q0.02-0.01 0.04-0.04c0.09-0.1 0.07-0.26-0.04-0.35-5.32-4.18-12.81-4.23-18.16-3.54z"/>
		<path id="&lt;Path&gt;" class="s3" d="m2013.7 414.88q-0.23 0-0.41-0.14c-3.09-2.43-7.31-3.66-12.54-3.66-7.81 0-15.06 2.76-15.14 2.78-0.34 0.13-0.73-0.04-0.87-0.38q-0.1-0.26 0.01-0.52 0.12-0.25 0.38-0.36c0.19-0.07 4.76-1.8 10.51-2.55q2.6-0.34 5.03-0.34c5.59 0 10.11 1.34 13.45 3.97q0.22 0.17 0.26 0.45 0.03 0.28-0.14 0.5c-0.03 0.02-0.09 0.09-0.12 0.11q-0.17 0.14-0.42 0.14z"/>
		<path id="&lt;Path&gt;" class="s2" d="m1750.42 470.11q-0.04 0-0.09 0c-0.46-0.05-0.8-0.46-0.76-0.93 0.51-5.28-0.21-9.44-0.98-13.85-0.9-5.17-1.83-10.52-1.06-18.38 1.43-14.52 5.74-28.14 5.78-28.27 0.14-0.45 0.62-0.69 1.07-0.55 0.44 0.14 0.69 0.62 0.55 1.06-0.05 0.14-4.3 13.6-5.71 27.93-0.75 7.62 0.16 12.86 1.04 17.92 0.79 4.52 1.54 8.8 1 14.31-0.04 0.43-0.41 0.76-0.84 0.76z"/>
		<path id="&lt;Path&gt;" class="s2" d="m1881.13 466.5c-0.47 0-0.85-0.61-0.85-1.08-0.01-3.2 0.22-5.92 0.45-8.43 0.44-4.89 0.89-10-0.44-19.78-1.99-14.6-10.5-34.32-10.59-34.51-0.19-0.43 0.01-0.95 0.44-1.13 0.43-0.19 0.93 0 1.12 0.43 0.08 0.2 8.69 20.1 10.71 34.92 1.36 9.98 0.9 15.12 0.45 20.1-0.22 2.48-0.45 5.27-0.44 8.4 0 0.47-0.38 1.08-0.85 1.08q0 0 0 0z"/>
		<path id="&lt;Path&gt;" class="s6" d="m1878.24 406.53l-2.44 9.77"/>
		<path id="&lt;Path&gt;" class="s3" d="m1875.8 417.14q-0.1 0-0.2-0.02c-0.46-0.11-0.73-0.57-0.62-1.03l2.43-9.76c0.12-0.46 0.58-0.73 1.03-0.62 0.46 0.11 0.73 0.58 0.62 1.03l-2.43 9.76c-0.1 0.39-0.45 0.64-0.83 0.64z"/>
		<path id="&lt;Path&gt;" class="s6" d="m1748.09 411.42l3.02 4.88"/>
		<path id="&lt;Path&gt;" class="s3" d="m1751.11 417.14c-0.29 0-0.57-0.14-0.73-0.4l-3.01-4.88c-0.25-0.4-0.12-0.92 0.28-1.17 0.39-0.24 0.92-0.12 1.16 0.28l3.02 4.88c0.24 0.4 0.12 0.92-0.28 1.17q-0.21 0.13-0.44 0.12z"/>
		<path id="&lt;Path&gt;" class="s2" d="m1818.49 381.03c-15.06 0-27.33-7.77-27.49-7.87-0.39-0.25-0.51-0.78-0.25-1.17 0.25-0.4 0.77-0.51 1.17-0.26 0.2 0.13 19.99 12.64 39.75 5.3 0.44-0.16 0.93 0.06 1.09 0.5 0.17 0.44-0.06 0.93-0.5 1.09-4.67 1.74-9.34 2.41-13.77 2.41z"/>
		<path id="&lt;Path&gt;" class="s2" d="m1741.42 460.33c-20.41 0-36.23-17.22-36.39-17.39-0.31-0.35-0.29-0.89 0.06-1.2 0.35-0.32 0.88-0.29 1.2 0.06 0.16 0.17 16.11 17.49 36.33 16.81 0.49-0.04 0.86 0.35 0.87 0.82 0.02 0.47-0.35 0.86-0.81 0.88q-0.63 0.02-1.26 0.02z"/>
		<path id="&lt;Path&gt;" class="s2" d="m1831.97 447.88q-0.1 0-0.2-0.03c-3.41-0.8-11.95-3.38-19.44-5.85-15.03-4.97-14.92-5.72-14.79-6.59 0.14-0.98 1.33-0.92 1.91-0.89 7.04 0.38 44.21-1.59 44.58-1.61 0.47-0.03 0.87 0.33 0.89 0.8 0.03 0.47-0.33 0.87-0.8 0.9-1.39 0.07-31.38 1.66-42.16 1.66q-0.32 0-0.62 0c6.49 2.69 24.64 8.47 30.82 9.93 0.46 0.11 0.74 0.57 0.63 1.02-0.09 0.39-0.44 0.66-0.82 0.66z"/>
		<path id="&lt;Path&gt;" class="s2" d="m1897.52 464.08c-0.41 0-0.76-0.28-0.84-0.7-0.08-0.46 0.23-0.9 0.69-0.98 10.35-1.85 26.22-16.87 26.38-17.02 0.34-0.32 0.87-0.31 1.2 0.03 0.32 0.34 0.31 0.88-0.03 1.2-0.67 0.63-16.4 15.52-27.25 17.46q-0.08 0.01-0.15 0.01z"/>
		<path id="&lt;Path&gt;" class="s1" d="m1839.66 260.84c-1.07 1.52-0.04 3.7-0.72 5.43-0.81 2.07-3.73 2.49-5.74 1.52-2-0.97-3.38-2.83-4.96-4.4-1.08-1.08-2.31-2.06-3.15-3.34-0.84-1.28-1.25-2.99-0.54-4.35 0.99-1.91 3.56-2.24 5.72-2.12 1.7 0.09 3.64 0.23 4.86-0.95 1.22-1.19 1.13-3.17 0.74-4.82-0.39-1.66-0.99-3.39-0.51-5.02 5.86 2.57 11.09 6.56 15.12 11.54 1.15 1.42 2.1 3.79 0.59 4.84-0.76 0.53-1.78 0.37-2.71 0.27-2.96-0.31-5.99 0.17-8.7 1.4z"/>
		<path id="&lt;Path&gt;" class="s1" d="m1794.51 260.84c1.06 1.52 0.04 3.7 0.71 5.43 0.81 2.07 3.74 2.49 5.74 1.52 2.01-0.97 3.39-2.83 4.96-4.4 1.09-1.08 2.31-2.06 3.16-3.34 0.84-1.28 1.25-2.99 0.54-4.35-0.99-1.91-3.57-2.24-5.72-2.12-1.7 0.09-3.64 0.23-4.86-0.95-1.22-1.19-1.14-3.17-0.75-4.82 0.39-1.66 1-3.39 0.52-5.02-5.86 2.57-11.1 6.56-15.12 11.54-1.16 1.42-2.1 3.79-0.6 4.84 0.77 0.53 1.79 0.37 2.72 0.27 2.95-0.31 5.99 0.17 8.7 1.4z"/>
		<path id="&lt;Path&gt;" class="s2" d="m1893.05 476.74h-166.56c-4.88 0-8.84 3.95-8.84 8.83v91.29c0 4.88 3.96 8.83 8.84 8.83h166.56c4.88 0 8.83-3.95 8.83-8.83v-91.29c0-4.88-3.95-8.83-8.83-8.83z"/>
		<path id="&lt;Path&gt;" class="s1" d="m1823.87 534.3c0.89-3.96 0.55-8.44-2.02-11.59-6.61-8.13-26.91-7.46-24.27 6.46 0.53 2.81 1.99 5.36 3.76 7.59 1.95 2.44 4.35 4.6 7.22 5.82 3.77 1.61 8.55 1.38 11.7-1.45 1.94-1.75 3.03-4.28 3.61-6.83z"/>
		<path id="&lt;Path&gt;" class="s7" d="m1855.58 309.05h-1.25c-1.19 0-2.17 0.98-2.17 2.17v6.19c0 1.2 0.98 2.18 2.17 2.18h1.25c1.19 0 2.17-0.98 2.17-2.18v-6.19c0-1.19-0.98-2.17-2.17-2.17z"/>
		<path id="&lt;Path&gt;" class="s7" d="m1778.59 309.05h-1.25c-1.19 0-2.17 0.98-2.17 2.17v6.19c0 1.2 0.98 2.18 2.17 2.18h1.25c1.19 0 2.17-0.98 2.17-2.18v-6.19c0-1.19-0.98-2.17-2.17-2.17z"/>
		<path id="&lt;Path&gt;" class="s2" d="m1815.32 320.67c-3.6 0-6.32-1.18-6.38-1.2-0.43-0.19-0.62-0.69-0.43-1.12 0.19-0.43 0.69-0.62 1.12-0.43 0.39 0.17 9.66 4.14 15.96-4.12 0.29-0.37 0.82-0.44 1.19-0.16 0.37 0.29 0.45 0.82 0.16 1.19-3.56 4.67-8.03 5.84-11.62 5.84z"/>
		<path id="&lt;Path&gt;" class="s2" d="m1828.17 316.22q-0.26 0-0.49-0.16l-3.65-2.59c-0.38-0.27-0.47-0.8-0.2-1.18 0.27-0.39 0.8-0.48 1.19-0.2l3.64 2.59c0.38 0.27 0.47 0.8 0.2 1.18-0.16 0.24-0.42 0.36-0.69 0.36z"/>
		<path id="&lt;Path&gt;" class="s2" d="m1958.26 281.96v4.73h48.01v67.67h-96.09v-11.17-56.5-4.73c0-1.72 1.4-3.12 3.13-3.12h41.82c1.73 0 3.13 1.4 3.13 3.12z"/>
		<path id="&lt;Path&gt;" class="s7" d="m1955.33 284.89v4.72h48.01v64.36h-96.08v-7.85-56.51-4.72c0-1.73 1.4-3.13 3.13-3.13h41.82c1.72 0 3.12 1.4 3.12 3.13z"/>
		<path id="&lt;Compound Path&gt;" class="s2" d="m2003.34 354.82h-96.08c-0.47 0-0.85-0.38-0.85-0.85v-69.09c0-2.19 1.78-3.97 3.98-3.97h41.82c2.19 0 3.97 1.78 3.97 3.97v3.89h47.16c0.47 0 0.85 0.38 0.85 0.84v64.36c0 0.47-0.38 0.85-0.85 0.85zm-95.23-1.7h94.39v-62.66h-47.17c-0.46 0-0.84-0.38-0.84-0.85v-4.73c0-1.25-1.03-2.27-2.28-2.27h-41.82c-1.26 0-2.28 1.02-2.28 2.27z"/>
		<path id="&lt;Path&gt;" class="s5" d="m1981.7 279.19l22.11-12.76 22.13 12.76v25.54l-22.13 12.78-22.11-12.78z"/>
		<path id="&lt;Compound Path&gt;" class="s2" d="m2003.81 318.49l-22.96-13.27v-26.52l22.96-13.25 22.98 13.25v26.52zm-21.26-14.26l21.26 12.3 21.28-12.3v-24.55l-21.28-12.27-21.26 12.27z"/>
		<path id="&lt;Path&gt;" class="s1" d="m2002.02 304.94c-1.26 0-2.48-0.56-3.31-1.53l-9.26-10.93c-1.55-1.82-1.32-4.57 0.5-6.13 1.84-1.55 4.57-1.32 6.13 0.5l5.82 6.88 10.09-12.76c1.5-1.9 4.22-2.21 6.1-0.72 1.88 1.5 2.21 4.22 0.71 6.1l-13.39 16.94c-0.8 1.02-2.03 1.63-3.33 1.65q-0.02 0-0.06 0z"/>
		<path id="&lt;Compound Path&gt;" class="s3" d="m2002.08 305.78h-0.06c-1.52 0-2.96-0.66-3.96-1.82l-9.26-10.93c-1.84-2.17-1.57-5.46 0.6-7.32 0.95-0.8 2.14-1.23 3.36-1.23 1.53 0 2.97 0.66 3.97 1.82l5.15 6.09 9.45-11.95c0.99-1.26 2.47-1.98 4.07-1.98 1.16 0 2.3 0.4 3.22 1.13 1.08 0.86 1.77 2.1 1.93 3.47 0.17 1.38-0.22 2.73-1.08 3.82l-13.39 16.93c-0.95 1.21-2.44 1.95-3.99 1.97zm-9.32-19.61c-0.83 0-1.63 0.3-2.27 0.83-1.46 1.25-1.64 3.47-0.4 4.93l9.26 10.93c0.67 0.78 1.64 1.23 2.67 1.23l0.05 0.85-0.01-0.85c1.04-0.02 2.04-0.51 2.68-1.33l13.39-16.94c0.58-0.73 0.84-1.64 0.73-2.56-0.11-0.93-0.57-1.76-1.3-2.34-0.63-0.5-1.37-0.76-2.17-0.76-1.07 0-2.07 0.49-2.73 1.33l-10.74 13.58-6.49-7.67c-0.67-0.78-1.64-1.23-2.67-1.23z"/>
		<path id="&lt;Path&gt;" class="s8" d="m1803.13 567.75l0.07 37.09-155.83 0.28-0.07-37.09z"/>
		<path id="&lt;Compound Path&gt;" class="s2" d="m1646.53 605.97l-0.08-38.78 157.53-0.29 0.07 38.79zm1.63-37.09l0.06 35.38 154.13-0.27-0.06-35.39z"/>
		<path id="&lt;Path&gt;" class="s2" d="m1785.04 576.42c5.54-0.01 10.03 4.42 10.04 9.89 0.01 5.47-4.47 9.92-10 9.93-5.54 0.01-10.03-4.42-10.04-9.89-0.01-5.48 4.47-9.92 10-9.93z"/>
		<path id="&lt;Path&gt;" class="s1" d="m1754.33 577.11l0.04 18.55-61.11 0.11-0.03-18.55z"/>
		<path id="&lt;Compound Path&gt;" class="s2" d="m1693.26 596.61c-0.47 0-0.84-0.37-0.85-0.84l-0.03-18.55q0-0.35 0.25-0.6 0.25-0.24 0.6-0.25l61.1-0.11q0 0 0 0c0.47 0 0.85 0.38 0.85 0.85l0.03 18.54q0 0.35-0.24 0.6-0.25 0.25-0.6 0.25l-61.11 0.11q0 0 0 0zm0.82-18.54l0.03 16.85 59.4-0.11-0.03-16.85z"/>
		<path id="&lt;Path&gt;" class="s2" d="m1754.44 577.11l0.03 18.54-14.22 0.03-0.04-18.54z"/>
		<path id="&lt;Path&gt;" class="s9" d="m1710.85 582.73v0.7c0.01 0.44 0.36 0.8 0.8 0.8l24.12-0.05c0.43 0 0.79-0.36 0.79-0.8v-0.7c0-0.43-0.36-0.79-0.8-0.79l-24.11 0.04c-0.44 0-0.8 0.36-0.8 0.8z"/>
		<path id="&lt;Path&gt;" class="s9" d="m1718.98 588.93v0.7c0 0.44 0.36 0.79 0.8 0.79l16-0.03c0.44 0 0.79-0.36 0.79-0.79v-0.7c0-0.44-0.36-0.8-0.8-0.8l-15.99 0.03c-0.44 0-0.8 0.36-0.8 0.8z"/>
		<path id="&lt;Path&gt;" class="s9" d="m1698.05 582.75v0.7c0 0.44 0.36 0.8 0.8 0.8l7.79-0.02c0.44 0 0.8-0.36 0.8-0.79v-0.7c0-0.44-0.36-0.8-0.8-0.8l-7.8 0.01c-0.43 0.01-0.79 0.36-0.79 0.8z"/>
		<path id="&lt;Path&gt;" class="s7" d="m1778.59 539.29l0.05 27.96-117.49 0.22-0.05-27.96z"/>
		<path id="&lt;Compound Path&gt;" class="s2" d="m1661.15 568.32c-0.47 0-0.85-0.38-0.85-0.85l-0.05-27.96q0-0.35 0.24-0.6 0.26-0.25 0.6-0.25l117.5-0.22q0 0 0 0c0.47 0 0.84 0.38 0.85 0.85l0.05 27.96q-0.01 0.35-0.25 0.6-0.25 0.25-0.6 0.25l-117.49 0.22zm0.8-27.97l0.05 26.27 115.79-0.21-0.05-26.27z"/>
		<path id="&lt;Path&gt;" class="s2" d="m1764.95 545.83c4.17-0.01 7.56 3.33 7.57 7.45 0.01 4.13-3.37 7.48-7.54 7.49-4.18 0.01-7.57-3.33-7.57-7.46-0.01-4.13 3.37-7.48 7.54-7.48z"/>
		<path id="&lt;Path&gt;" class="s1" d="m1741.79 546.35l0.03 13.98-46.07 0.08-0.03-13.98z"/>
		<path id="&lt;Compound Path&gt;" class="s2" d="m1695.75 561.26c-0.47 0-0.85-0.38-0.85-0.84l-0.03-13.99q0.01-0.35 0.25-0.6 0.25-0.24 0.6-0.25l46.07-0.08q0 0 0 0c0.47 0 0.85 0.38 0.85 0.85l0.03 13.98q-0.01 0.35-0.25 0.6-0.25 0.24-0.6 0.25l-46.07 0.08q0 0 0 0zm0.82-13.98l0.03 12.28 44.37-0.08-0.02-12.28z"/>
		<path id="&lt;Path&gt;" class="s2" d="m1741.87 546.35l0.03 13.98-10.73 0.02-0.02-13.98z"/>
		<path id="&lt;Path&gt;" class="s9" d="m1709.01 550.78v0.14c0 0.44 0.36 0.79 0.8 0.79l17.79-0.03c0.44 0 0.8-0.36 0.79-0.8v-0.13c0-0.44-0.36-0.8-0.79-0.8l-17.79 0.03c-0.44 0-0.8 0.36-0.8 0.8z"/>
		<path id="&lt;Path&gt;" class="s9" d="m1715.14 555.45v0.14c0 0.44 0.36 0.8 0.8 0.8l11.67-0.03c0.44 0 0.79-0.36 0.79-0.79v-0.14c0-0.44-0.36-0.8-0.8-0.8l-11.66 0.03c-0.44 0-0.8 0.36-0.8 0.79z"/>
		<path id="&lt;Path&gt;" class="s9" d="m1699.36 550.8v0.14c0 0.43 0.36 0.79 0.79 0.79l5.49-0.01c0.44 0 0.8-0.36 0.8-0.8v-0.13c0-0.44-0.36-0.8-0.8-0.8l-5.49 0.01c-0.44 0-0.79 0.36-0.79 0.8z"/>
		<path id="&lt;Path&gt;" class="s2" d="m1730.04 272.78h-104.01v85.52h104.01z"/>
		<path id="&lt;Path&gt;" class="s1" d="m1727.04 269.72h-104.01v85.52h104.01z"/>
		<path id="&lt;Compound Path&gt;" class="s2" d="m1727.04 356.09h-104.01c-0.47 0-0.85-0.38-0.85-0.85v-85.52c0-0.47 0.38-0.85 0.85-0.85h104.01c0.47 0 0.85 0.38 0.85 0.85v85.52c0 0.47-0.38 0.85-0.85 0.85zm-103.16-1.7h102.32v-83.82h-102.32z"/>
		<path id="&lt;Path&gt;" class="s8" d="m1651.19 285.66c0.21-5.46-4.06-10.06-9.53-10.26-5.46-0.2-10.06 4.06-10.26 9.53-0.2 5.46 4.06 10.06 9.53 10.26 5.46 0.21 10.06-4.06 10.26-9.53z"/>
		<path id="&lt;Path&gt;" class="s1" d="m1640.07 290.64q-0.01 0.01-0.02 0.01c-0.39 0.01-0.76-0.17-1.03-0.45l-4.08-4.16c-0.53-0.54-0.52-1.42 0.02-1.96 0.55-0.53 1.42-0.53 1.96 0.02l3.02 3.07 4.84-5.6c0.5-0.58 1.37-0.64 1.95-0.14 0.58 0.49 0.64 1.37 0.14 1.94l-5.82 6.77c-0.25 0.29-0.6 0.49-0.98 0.5z"/>
		<path id="&lt;Path&gt;" class="s8" d="m1651.19 311.81c0.21-5.47-4.06-10.06-9.53-10.26-5.46-0.21-10.06 4.06-10.26 9.52-0.2 5.47 4.06 10.06 9.53 10.27 5.46 0.2 10.06-4.06 10.26-9.53z"/>
		<path id="&lt;Path&gt;" class="s1" d="m1640.07 316.79q-0.01 0-0.02 0c-0.39 0.02-0.76-0.17-1.03-0.44l-4.08-4.16c-0.53-0.55-0.52-1.43 0.02-1.96 0.55-0.54 1.42-0.53 1.96 0.01l3.02 3.08 4.84-5.61c0.5-0.57 1.37-0.64 1.95-0.14 0.58 0.5 0.64 1.37 0.14 1.95l-5.82 6.77c-0.25 0.28-0.6 0.48-0.98 0.5z"/>
		<path id="&lt;Path&gt;" class="s8" d="m1651.19 339.09c0.21-5.46-4.06-10.06-9.53-10.26-5.46-0.21-10.06 4.06-10.26 9.53-0.2 5.46 4.06 10.06 9.53 10.26 5.46 0.2 10.06-4.06 10.26-9.53z"/>
		<path id="&lt;Path&gt;" class="s1" d="m1640.07 344.07q-0.01 0-0.02 0c-0.39 0.02-0.76-0.16-1.03-0.44l-4.08-4.16c-0.53-0.54-0.52-1.43 0.02-1.96 0.55-0.54 1.42-0.53 1.96 0.01l3.02 3.08 4.84-5.6c0.5-0.58 1.37-0.65 1.95-0.15 0.58 0.5 0.64 1.37 0.14 1.95l-5.82 6.77c-0.25 0.28-0.6 0.48-0.98 0.5z"/>
		<path id="&lt;Path&gt;" class="s2" d="m1680.42 283.5h-23.77c-0.46 0-0.84-0.53-0.84-1 0-0.47 0.38-1 0.84-1h23.77c0.47 0 0.85 0.53 0.85 1 0 0.47-0.38 1-0.85 1z"/>
		<path id="&lt;Path&gt;" class="s2" d="m1688.91 290.5h-32.26c-0.46 0-0.84-0.53-0.84-1 0-0.47 0.38-1 0.84-1h32.26c0.47 0 0.85 0.53 0.85 1 0 0.47-0.38 1-0.85 1z"/>
		<path id="&lt;Path&gt;" class="s2" d="m1713.52 283.5h-29.71c-0.46 0-0.84-0.53-0.84-1 0-0.47 0.38-1 0.84-1h29.71c0.47 0 0.85 0.53 0.85 1 0 0.47-0.38 1-0.85 1z"/>
		<path id="&lt;Path&gt;" class="s2" d="m1680.42 308.5h-23.77c-0.46 0-0.84-0.03-0.84-0.5 0-0.47 0.38-0.5 0.84-0.5h23.77c0.47 0 0.85 0.03 0.85 0.5 0 0.47-0.38 0.5-0.85 0.5z"/>
		<path id="&lt;Path&gt;" class="s2" d="m1688.91 318.5h-32.26c-0.46 0-0.84-0.53-0.84-1 0-0.47 0.38-1 0.84-1h32.26c0.47 0 0.85 0.53 0.85 1 0 0.47-0.38 1-0.85 1z"/>
		<path id="&lt;Path&gt;" class="s2" d="m1713.52 308.5h-29.71c-0.46 0-0.84-0.03-0.84-0.5 0-0.47 0.38-0.5 0.84-0.5h29.71c0.47 0 0.85 0.03 0.85 0.5 0 0.47-0.38 0.5-0.85 0.5z"/>
		<path id="&lt;Path&gt;" class="s2" d="m1680.42 336.5h-23.77c-0.46 0-0.84-0.53-0.84-1 0-0.47 0.38-1 0.84-1h23.77c0.47 0 0.85 0.53 0.85 1 0 0.47-0.38 1-0.85 1z"/>
		<path id="&lt;Path&gt;" class="s2" d="m1688.91 344.5h-32.26c-0.46 0-0.84-0.53-0.84-1 0-0.47 0.38-1 0.84-1h32.26c0.47 0 0.85 0.53 0.85 1 0 0.47-0.38 1-0.85 1z"/>
		<path id="&lt;Path&gt;" class="s2" d="m1713.52 336.5h-29.71c-0.46 0-0.84-0.53-0.84-1 0-0.47 0.38-1 0.84-1h29.71c0.47 0 0.85 0.53 0.85 1 0 0.47-0.38 1-0.85 1z"/>
		<path id="&lt;Path&gt;" class="s1" d="m1951.49 576c0-21.72-17.61-39.33-39.33-39.33-21.72 0-39.33 17.61-39.33 39.33 0 21.72 17.61 39.33 39.33 39.33 21.72 0 39.33-17.61 39.33-39.33z"/>
		<path id="&lt;Compound Path&gt;" class="s2" d="m1912.16 617.03c-22.62 0-41.03-18.41-41.03-41.03 0-22.62 18.41-41.03 41.03-41.03 22.62 0 41.03 18.41 41.03 41.03 0 22.62-18.41 41.03-41.03 41.03zm0-78.67c-20.75 0-37.64 16.89-37.64 37.64 0 20.75 16.89 37.64 37.64 37.64 20.75 0 37.63-16.89 37.63-37.64 0-20.75-16.88-37.64-37.63-37.64z"/>
		<path id="&lt;Path&gt;" class="s8" d="m1913.39 578.18l30.35-11.07c0 0-8.44-24.63-31.11-24.03z"/>
		<path id="&lt;Path&gt;" class="s2" d="m1912.41 545.6h-0.51c-0.77 0-1.4 0.63-1.4 1.41v37.69c0 0.78 0.63 1.41 1.4 1.41h0.51c0.78 0 1.41-0.63 1.41-1.41v-37.69c0-0.78-0.63-1.41-1.41-1.41z"/>
		<path id="&lt;Path&gt;" class="s2" d="m1927.49 573.62c-0.31-0.86-1.27-1.3-2.13-0.99l-20.22 7.41c-0.86 0.32-1.3 1.28-0.99 2.13l0.21 0.56c0.2 0.55 0.82 0.84 1.37 0.64l20.78-7.62c0.85-0.31 1.3-1.27 0.98-2.13z"/>
		<path id="&lt;Path&gt;" class="s2" d="m1945.32 578.7c0.01-0.22-0.17-0.42-0.4-0.42l-8.1-0.35c-0.22-0.01-0.41 0.17-0.42 0.39-0.01 0.23 0.16 0.42 0.39 0.43l8.1 0.35c0.22 0.01 0.42-0.17 0.43-0.4z"/>
		<path id="&lt;Path&gt;" class="s2" d="m1943.33 570.03c-0.04-0.15-0.19-0.24-0.34-0.2l-5.29 1.45c-0.15 0.04-0.23 0.19-0.19 0.34 0.04 0.14 0.19 0.23 0.34 0.19l5.28-1.44c0.15-0.04 0.24-0.2 0.2-0.34z"/>
		<path id="&lt;Path&gt;" class="s2" d="m1943.99 574.63c-0.01-0.16-0.13-0.28-0.29-0.28l-5.48 0.11c-0.15 0.01-0.27 0.13-0.27 0.29 0 0.15 0.13 0.27 0.29 0.27l5.47-0.11c0.16 0 0.28-0.13 0.28-0.28z"/>
		<path id="&lt;Path&gt;" class="s2" d="m1938.84 595.55c0.14-0.18 0.09-0.44-0.09-0.57l-6.62-4.68c-0.19-0.13-0.44-0.09-0.57 0.09-0.13 0.19-0.09 0.45 0.09 0.58l6.62 4.68c0.19 0.13 0.44 0.09 0.57-0.1z"/>
		<path id="&lt;Path&gt;" class="s2" d="m1943.07 582.85c0.02-0.15-0.08-0.29-0.23-0.31l-5.42-0.87c-0.15-0.02-0.29 0.08-0.31 0.23-0.03 0.15 0.08 0.3 0.23 0.32l5.41 0.86c0.15 0.03 0.29-0.08 0.32-0.23z"/>
		<path id="&lt;Path&gt;" class="s2" d="m1941.88 587.18c0.05-0.14-0.04-0.3-0.18-0.34l-5.23-1.66c-0.14-0.04-0.3 0.04-0.35 0.18-0.04 0.15 0.04 0.31 0.19 0.35l5.22 1.66c0.15 0.04 0.3-0.04 0.35-0.19z"/>
		<path id="&lt;Path&gt;" class="s2" d="m1939.94 591.41c0.08-0.13 0.04-0.31-0.09-0.39l-4.66-2.88c-0.13-0.08-0.31-0.04-0.39 0.09-0.08 0.13-0.04 0.31 0.09 0.39l4.67 2.88c0.13 0.08 0.3 0.04 0.38-0.09z"/>
		<path id="&lt;Path&gt;" class="s2" d="m1924.57 607.21c0.21-0.09 0.3-0.34 0.21-0.54l-3.24-7.43c-0.09-0.21-0.34-0.31-0.55-0.21-0.2 0.09-0.3 0.33-0.21 0.54l3.25 7.42c0.09 0.21 0.33 0.31 0.54 0.22z"/>
		<path id="&lt;Path&gt;" class="s2" d="m1934.75 598.52c0.09-0.12 0.08-0.3-0.04-0.4l-4.18-3.53c-0.12-0.1-0.3-0.08-0.4 0.03-0.09 0.12-0.08 0.3 0.04 0.39l4.18 3.54c0.12 0.1 0.3 0.08 0.4-0.03z"/>
		<path id="&lt;Path&gt;" class="s2" d="m1931.49 601.61c0.12-0.1 0.13-0.28 0.03-0.39l-3.62-4.12c-0.1-0.11-0.28-0.12-0.39-0.02-0.12 0.1-0.13 0.28-0.03 0.39l3.62 4.12c0.1 0.11 0.28 0.12 0.39 0.02z"/>
		<path id="&lt;Path&gt;" class="s2" d="m1927.65 604.22c0.14-0.07 0.19-0.24 0.12-0.37l-2.5-4.88c-0.07-0.13-0.24-0.19-0.38-0.12-0.13 0.07-0.19 0.24-0.12 0.38l2.5 4.87c0.07 0.14 0.24 0.19 0.38 0.12z"/>
		<path id="&lt;Path&gt;" class="s2" d="m1905.57 608.9c0.22 0.04 0.44-0.1 0.49-0.32l1.68-7.93c0.05-0.22-0.09-0.44-0.31-0.49-0.23-0.04-0.45 0.1-0.49 0.32l-1.68 7.93c-0.05 0.22 0.09 0.44 0.31 0.49z"/>
		<path id="&lt;Path&gt;" class="s2" d="m1918.91 607.75c0.14-0.04 0.23-0.19 0.2-0.34l-1.35-5.31c-0.04-0.15-0.19-0.24-0.34-0.2-0.15 0.04-0.24 0.19-0.2 0.34l1.35 5.31c0.04 0.15 0.19 0.24 0.34 0.2z"/>
		<path id="&lt;Path&gt;" class="s2" d="m1914.46 608.37c0.15-0.01 0.26-0.15 0.25-0.3l-0.55-5.45c-0.02-0.16-0.15-0.27-0.31-0.25-0.15 0.01-0.26 0.15-0.25 0.3l0.55 5.45c0.02 0.16 0.16 0.27 0.31 0.25z"/>
		<path id="&lt;Path&gt;" class="s2" d="m1894.59 548.35c0.2-0.12 0.45-0.06 0.57 0.13l4.21 6.93c0.12 0.19 0.06 0.45-0.14 0.56-0.19 0.12-0.45 0.06-0.56-0.13l-4.22-6.93c-0.11-0.19-0.05-0.45 0.14-0.56z"/>
		<path id="&lt;Path&gt;" class="s2" d="m1907.55 545.01c0.16-0.01 0.29 0.1 0.3 0.26l0.49 5.45c0.01 0.16-0.1 0.29-0.25 0.31-0.15 0.01-0.29-0.1-0.3-0.26l-0.49-5.45c-0.01-0.16 0.1-0.29 0.25-0.31z"/>
		<path id="&lt;Path&gt;" class="s2" d="m1903.15 545.9c0.15-0.04 0.3 0.05 0.34 0.2l1.28 5.33c0.04 0.15-0.05 0.3-0.2 0.34-0.15 0.03-0.3-0.06-0.34-0.21l-1.28-5.33c-0.04-0.15 0.05-0.3 0.2-0.33z"/>
		<path id="&lt;Path&gt;" class="s2" d="m1898.8 547.54c0.14-0.07 0.31-0.02 0.38 0.12l2.55 4.85c0.07 0.14 0.02 0.3-0.12 0.38-0.13 0.07-0.3 0.01-0.37-0.12l-2.55-4.85c-0.07-0.14-0.02-0.31 0.11-0.38z"/>
		<path id="&lt;Path&gt;" class="s2" d="m1882.69 561.38c0.1-0.2 0.35-0.28 0.55-0.18l7.19 3.75c0.2 0.11 0.28 0.36 0.18 0.56-0.11 0.2-0.36 0.27-0.56 0.17l-7.19-3.75c-0.2-0.1-0.27-0.35-0.17-0.55z"/>
		<path id="&lt;Path&gt;" class="s2" d="m1892.06 551.82c0.12-0.09 0.3-0.06 0.39 0.06l3.24 4.42c0.09 0.12 0.06 0.3-0.06 0.39-0.13 0.09-0.3 0.06-0.39-0.06l-3.24-4.42c-0.09-0.12-0.07-0.3 0.06-0.39z"/>
		<path id="&lt;Path&gt;" class="s2" d="m1888.75 554.86c0.11-0.11 0.28-0.11 0.39 0l3.86 3.89c0.11 0.11 0.1 0.29 0 0.39-0.11 0.11-0.29 0.11-0.4 0l-3.85-3.89c-0.11-0.11-0.11-0.29 0-0.39z"/>
		<path id="&lt;Path&gt;" class="s2" d="m1885.88 558.51c0.08-0.13 0.25-0.17 0.38-0.09l4.69 2.83c0.13 0.08 0.18 0.25 0.1 0.38-0.08 0.13-0.25 0.17-0.38 0.09l-4.7-2.83c-0.13-0.08-0.17-0.25-0.09-0.38z"/>
		<path id="&lt;Path&gt;" class="s2" d="m1879.19 579c-0.01-0.22 0.17-0.42 0.39-0.43l8.1-0.42c0.22-0.01 0.42 0.16 0.43 0.39 0.01 0.23-0.16 0.42-0.39 0.43l-8.09 0.42c-0.23 0.01-0.42-0.16-0.44-0.39z"/>
		<path id="&lt;Path&gt;" class="s2" d="m1882.41 566.01c0.06-0.14 0.23-0.2 0.37-0.14l5.03 2.16c0.14 0.06 0.21 0.23 0.15 0.37-0.06 0.14-0.22 0.2-0.37 0.14l-5.03-2.16c-0.14-0.06-0.21-0.23-0.15-0.37z"/>
		<path id="&lt;Path&gt;" class="s2" d="m1881.1 570.31c0.04-0.15 0.19-0.24 0.34-0.2l5.3 1.4c0.15 0.03 0.24 0.19 0.2 0.34-0.04 0.14-0.19 0.23-0.34 0.19l-5.3-1.39c-0.15-0.04-0.24-0.19-0.2-0.34z"/>
		<path id="&lt;Path&gt;" class="s2" d="m1880.49 574.91c0-0.15 0.12-0.27 0.28-0.27l5.48 0.06c0.15 0 0.27 0.13 0.27 0.28 0 0.15-0.13 0.27-0.28 0.27l-5.48-0.06c-0.15 0-0.28-0.12-0.27-0.28z"/>
		<path id="&lt;Path&gt;" class="s2" d="m1885.82 595.79c-0.13-0.18-0.09-0.44 0.09-0.57l6.58-4.74c0.18-0.14 0.44-0.09 0.57 0.09 0.13 0.18 0.09 0.44-0.09 0.57l-6.58 4.75c-0.18 0.13-0.44 0.09-0.57-0.1z"/>
		<path id="&lt;Path&gt;" class="s2" d="m1881.48 583.13c-0.02-0.15 0.08-0.29 0.23-0.32l5.4-0.91c0.15-0.03 0.3 0.08 0.32 0.23 0.03 0.15-0.07 0.29-0.23 0.32l-5.4 0.91c-0.15 0.03-0.29-0.08-0.32-0.23z"/>
		<path id="&lt;Path&gt;" class="s2" d="m1882.71 587.45c-0.05-0.14 0.03-0.3 0.17-0.35l5.21-1.7c0.15-0.05 0.31 0.03 0.35 0.18 0.05 0.14-0.03 0.3-0.17 0.35l-5.21 1.7c-0.15 0.05-0.31-0.03-0.35-0.18z"/>
		<path id="&lt;Path&gt;" class="s2" d="m1884.69 591.66c-0.08-0.13-0.05-0.31 0.08-0.39l4.64-2.92c0.13-0.08 0.3-0.04 0.38 0.09 0.08 0.13 0.05 0.3-0.08 0.38l-4.64 2.92c-0.13 0.08-0.3 0.04-0.38-0.08z"/>
		<path id="&lt;Path&gt;" class="s2" d="m1889.94 598.72c-0.1-0.12-0.08-0.29 0.03-0.39l4.16-3.58c0.11-0.1 0.29-0.08 0.39 0.03 0.1 0.12 0.09 0.3-0.03 0.4l-4.16 3.57c-0.11 0.1-0.29 0.08-0.39-0.03z"/>
		<path id="&lt;Path&gt;" class="s2" d="m1893.22 601.78c-0.11-0.1-0.13-0.27-0.03-0.39l3.59-4.15c0.1-0.11 0.27-0.12 0.39-0.02 0.11 0.1 0.13 0.27 0.03 0.39l-3.58 4.14c-0.1 0.12-0.28 0.13-0.4 0.03z"/>
		<path id="&lt;Path&gt;" class="s2" d="m1897.09 604.36c-0.14-0.07-0.19-0.24-0.12-0.37l2.46-4.9c0.07-0.14 0.23-0.19 0.37-0.12 0.14 0.06 0.19 0.23 0.12 0.37l-2.46 4.9c-0.06 0.13-0.23 0.19-0.37 0.12z"/>
		<path id="&lt;Path&gt;" class="s2" d="m1900.88 606.47c-0.14-0.07-0.2-0.23-0.14-0.37l2.2-5.02c0.06-0.14 0.23-0.2 0.37-0.14 0.14 0.06 0.2 0.22 0.14 0.36l-2.2 5.02c-0.06 0.14-0.23 0.21-0.37 0.15z"/>
		<path id="&lt;Path&gt;" class="s2" d="m1910.32 608.39c-0.15-0.01-0.27-0.15-0.25-0.3l0.5-5.46c0.01-0.15 0.15-0.26 0.3-0.25 0.15 0.02 0.26 0.15 0.25 0.3l-0.5 5.46c-0.01 0.15-0.15 0.27-0.3 0.25z"/>
		<path id="&lt;Path&gt;" class="s2" d="m1829.49 294.96c0-1.71-0.75-3.11-1.69-3.11-0.93 0-1.69 1.4-1.69 3.11 0 1.72 0.76 3.11 1.69 3.11 0.94 0 1.69-1.39 1.69-3.11z"/>
		<path id="&lt;Path&gt;" class="s2" d="m1801.58 294.96c0-1.71-0.76-3.11-1.69-3.11-0.93 0-1.69 1.4-1.69 3.11 0 1.72 0.76 3.11 1.69 3.11 0.93 0 1.69-1.39 1.69-3.11z"/>
	</g>
</svg>