<svg version="1.2" xmlns="http://www.w3.org/2000/svg" viewBox="0 0 1080 1080" width="1080" height="1080">
	<style>
		.s0 { fill: #ffecbb } 
		.s1 { fill: #ffffff } 
		.s2 { fill: #333333 } 
		.s3 { fill: #ecb3ad } 
		.s4 { fill: #42210b } 
		.s5 { fill: #382621 } 
		.s6 { fill: #f29199 } 
		.s7 { fill: #f2cf63 } 
		.s8 { fill: #251d1b } 
		.s9 { fill: #ffe6a1 } 
		.s10 { fill: #fc5e71 } 
		.s11 { fill: #ffaf5f } 
		.s12 { fill: #ccd7f2 } 
	</style>
	<g id="Layer 1">
		<path id="&lt;Path&gt;" class="s0" d="m924.26 187.62c17.57 28.58 30.04 60.65 38.98 93.09 36.19 131.29 5.2 249.97-93.1 344.37-54.69 52.52-115.85 97.17-169.16 151.27-45.3 45.96-83.51 109.07-148.29 129.73-53.7 17.13-111.62-0.47-165.2-17.99q-72.7-23.77-145.4-47.54c-19.61-6.41-39.38-12.9-57.27-23.17-30.33-17.41-53.67-44.77-73.83-73.35-74.1-105.04-109.14-237.15-63.69-360.96 22.24-60.61 58.3-137.76 112.77-175.63 51.6-35.87 118.63-41.37 179.61-41.45 72.42-0.09 148.45 5.2 213.56-26.52 58.12-28.31 102.04-58.29 169.75-59.17 58.5-0.76 118 17.7 161.34 57.99 15.62 14.52 28.8 31.23 39.93 49.33z"/>
		<path id="&lt;Path&gt;" class="s1" d="m729.77 231.7l28.8-9.15-28.8-9.83c-8.62-2.27-15.22-9.2-17.06-17.91l-9.14-43.26-9.82 42.32c-2.06 8.92-9.12 15.84-18.08 17.73l-27.11 9.33 26.16 9.23c9.17 2.13 16.19 9.5 17.87 18.76l7.56 41.85 11.02-41.88c2.33-8.86 9.59-15.56 18.6-17.19z"/>
		<path id="&lt;Path&gt;" class="s1" d="m122.06 557.61l19.13-6.07-19.14-6.54c-5.72-1.51-10.11-6.11-11.33-11.9l-6.08-28.75-6.52 28.12c-1.37 5.93-6.06 10.53-12.02 11.79l-18.02 6.2 17.39 6.13c6.1 1.41 10.76 6.32 11.88 12.47l5.02 27.81 7.33-27.83c1.55-5.89 6.37-10.34 12.36-11.43z"/>
		<path id="&lt;Path&gt;" class="s2" d="m975.13 619.24l17.04-5.41-17.04-5.82c-5.1-1.34-9-5.44-10.09-10.6l-5.41-25.58-5.81 25.03c-1.22 5.28-5.39 9.37-10.69 10.49l-16.05 5.52 15.48 5.46c5.43 1.26 9.58 5.62 10.57 11.1l4.48 24.76 6.52-24.78c1.38-5.24 5.67-9.21 11-10.17z"/>
		<path id="&lt;Path&gt;" class="s2" d="m227.01 210.98l24.75-7.86-24.76-8.45c-7.4-1.95-13.07-7.9-14.65-15.39l-7.86-37.17-8.43 36.36c-1.78 7.67-7.84 13.61-15.54 15.24l-23.3 8.02 22.49 7.93c7.87 1.83 13.91 8.16 15.35 16.12l6.5 35.96 9.47-35.99c2-7.61 8.23-13.37 15.98-14.77z"/>
		<path id="&lt;Path&gt;" class="s3" d="m821.13 633.92c0 0-44.15 44.47-60.32 56.61-16.19 12.13-57.05 6.48-57.05 6.48 0 0-12.46 55.2-14.49 67.33-1.73 10.49 8.63 40.63-2.24 58.39-39.17-66.08-51.28-159.49-51.28-159.49l84.24-93.03 92.7 49.52q0 0.04 0 0.03c5.39 8.78 8.44 14.16 8.44 14.16z"/>
		<path id="&lt;Compound Path&gt;" class="s4" d="m687.04 823.87c-0.47 0.05-0.78-0.21-0.99-0.56-38.84-65.52-51.31-158.99-51.43-159.92-0.04-0.34 0.06-0.67 0.29-0.92l84.32-93.03c0.36-0.39 0.93-0.48 1.39-0.24l92.78 49.52q0.31 0.17 0.47 0.47c6.84 8.78 8.39 14.2 8.45 14.43 0.11 0.39 0 0.82-0.29 1.11-0.44 0.44-44.43 44.67-60.48 56.71-7.11 5.33-19.42 8.03-36.59 8.03-9.39 0-17.49-0.86-20.29-1.2-1.71 7.58-12.41 55.2-14.26 66.26-0.54 3.25 0.18 8.75 1.02 15.11 1.74 13.24 4.12 31.38-3.42 43.69-0.2 0.33-0.57 0.54-0.97 0.54zm-50.08-160.26c1.05 7.55 13.73 94.36 50.06 156.82 5.93-11.59 3.75-28.2 2.14-40.49-0.86-6.54-1.6-12.19-1.01-15.78 2.01-12.03 14.39-66.85 14.51-67.41 0.13-0.58 0.7-0.95 1.27-0.88 0.1 0.02 9.58 1.31 21.03 1.31 11.46 0 26.87-1.32 35.21-7.57 15-11.25 54.81-51.05 59.74-55.99-0.6-1.61-2.61-6.29-7.83-13.01l-91.75-48.97z"/>
		<path id="&lt;Path&gt;" class="s5" d="m676.9 708.73c0 0 57.63 22.25 92.51-26.29l-70.77-13.14z"/>
		<path id="&lt;Path&gt;" class="s5" d="m238.09 532.48l1.4-1.85c-7.33-5.58-15.31-9.24-23.02-12.78-14.49-6.67-28.18-12.95-34.47-30.97-6.6-18.93-5.47-45.79 12.63-60.03 2.67-2.09 5.69-4.06 8.63-5.96 8.73-5.68 17.75-11.54 20.68-22.38 2.81-10.39-2.27-20.25-7.18-29.79-2.05-3.99-4.17-8.12-5.67-12.21-8.16-22.27 2.67-50.08 24.66-63.32 12.29-7.39 25.88-9.73 39.02-11.99 10.17-1.75 20.69-3.56 30.68-7.67 22.62-9.33 25.88-28.42 29.34-48.63q0.66-3.95 1.41-7.97c4.01-21.37 7.08-43.23 9.1-64.97l-2.32-0.22c-2.01 21.67-5.06 43.46-9.07 64.76q-0.75 4.04-1.42 8.01c-3.48 20.41-6.49 38.03-27.93 46.87-9.74 4.02-20.14 5.8-30.18 7.53-13.36 2.29-27.17 4.67-39.83 12.29-22.91 13.79-34.18 42.83-25.64 66.11 1.54 4.22 3.7 8.42 5.79 12.47 4.92 9.57 9.57 18.6 7 28.12-2.7 9.98-11.35 15.61-19.71 21.04-2.97 1.93-6.05 3.93-8.8 6.09-19.09 15.02-20.48 42.27-13.38 62.61 6.61 18.95 20.74 25.44 35.7 32.32 7.59 3.49 15.45 7.1 22.58 12.52z"/>
		<path id="&lt;Path&gt;" class="s2" d="m475.19 55.15c0 0-97.87 0.45-130.19 82.61-32.32 82.15 13.47 148.15-26.94 161.61-40.4 13.47-52.52 9.43-82.15 37.71-29.63 28.29 37.71 67.34-4.04 88.89-41.75 21.55-39.06 75.42-10.78 91.59 28.29 16.16 350.17-39.06 350.17-39.06 0 0-32.77 0.22-1.79-18.63 30.97-18.86 88.88-41.75 76.76-64.65-12.12-22.89-74.07-30.3-37.71-66.67 28.14-28.13 8.08-93.6-4.04-120.53-12.12-26.94 58.14-126.38-129.29-152.87z"/>
		<path id="&lt;Path&gt;" class="s6" d="m821.13 633.92c0 0-44.15 44.47-60.32 56.61-16.19 12.13-57.05 6.48-57.05 6.48 0 0-12.46 55.2-14.49 67.33-1.73 10.49 8.63 40.63-2.24 58.39-1.7 2.77-8.71 41.53-11.59 43.59l-304.58-31.18c0 0-20.22-12.16-25.27-35.42-5.05-23.25-11.12-90.99-11.12-90.99l-14.16 37.41c0 0-40.44 13.15-81.91-9.08-41.45-22.27-60.67-53.62-83.92-68.77-23.25-15.18-17.18-31.35-17.18-31.35 0 0 3.02 3.05 37.41-48.53 34.37-51.58 64.7-134.48 83.92-148.64 19.21-14.14 87.98-29.32 104.15-38.41 16.16-9.11 23.25-26.3 51.58-25.28 28.3 1.02 112.21-3.05 112.21-3.05 12.14 1.7 32.37 3.71 42.14 14.5 9.77 10.79 52.24 22.59 81.23 26.62 28.98 4.07 61.99 36.76 81.18 63.03 15.32 20.95 65.39 108.05 81.57 142.55q0 0.04 0 0.03c2.69 8.78 8.44 14.16 8.44 14.16z"/>
		<path id="&lt;Compound Path&gt;" class="s2" d="m676.05 868.68l-0.86-0.09-305.08-31.23-0.43-0.26c-0.86-0.52-21.13-12.95-26.33-36.89-3.92-18.02-8.36-61.71-10.24-81.43l-11.05 29.2-1.05 0.34c-0.49 0.16-12.42 3.97-30.05 3.97-19.23 0-37.28-4.45-53.65-13.22-25.44-13.67-42.36-30.48-57.29-45.31-9.57-9.51-17.84-17.72-26.79-23.55-24.51-16-18.35-33.34-18.07-34.07l1.25-3.34 1.37 1.38c2.45-2.03 10.76-10.65 35.03-47.04 15.77-23.67 30.84-54.28 44.14-81.29 15.84-32.17 29.52-59.96 40.32-67.92 11.57-8.51 39.9-17.18 64.89-24.82 16.98-5.19 33.01-10.1 39.5-13.74 4.7-2.66 8.57-6 12.68-9.53 9.56-8.25 19.46-16.8 40.1-16.05 2.99 0.11 6.76 0.17 11.22 0.17 34.16 0 100.14-3.18 100.8-3.21l0.22-0.01 2.95 0.4c12.41 1.69 31.15 4.23 40.78 14.85 8.77 9.68 49.38 21.66 79.84 25.9 29.19 4.09 61.61 35.71 82.23 63.94 15.71 21.47 65.86 109.64 81.32 142.94l0.08 0.19c4.36 8.3 8.51 13.47 8.55 13.52l1.28 1.6-1.44 1.45c-1.79 1.82-44.2 44.73-60.32 56.83-7.31 5.47-19.83 8.25-37.2 8.25-8.56 0-15.89-0.69-19.33-1.08-2.25 10.06-12.18 54.57-13.96 65.19-0.51 3.08 0.21 8.51 1.04 14.78 1.77 13.41 4.2 31.77-3.55 44.42-0.55 1.13-2.23 8.66-3.71 15.3-4.92 22.13-6.5 27.54-8.49 28.96zm-304.42-35.77l302.64 30.99c1.63-3.74 4.65-17.29 6.51-25.67 2.46-11.08 3.47-15.39 4.28-16.7 6.89-11.27 4.59-28.7 2.91-41.43-0.88-6.64-1.64-12.37-1.02-16.13 2.02-12.07 13.95-65.21 14.46-67.47l0.46-2.05 2.08 0.29c0.1 0.01 9.48 1.29 20.8 1.29 16.14 0 28.05-2.54 34.46-7.34 14.23-10.68 50.81-47.31 58.42-54.97-1.65-2.26-4.73-6.76-7.93-12.91l-0.26-0.57c-15.63-33.49-65.12-120.48-80.65-141.71-19.15-26.22-51.37-58.22-79.17-62.11-27.73-3.86-71.87-15.52-82.6-27.36-8.51-9.39-26.25-11.79-38-13.38l-2.54-0.36c-4.17 0.21-67.51 3.21-100.81 3.21-4.52 0-8.35-0.06-11.39-0.17-18.83-0.65-27.63 6.9-36.95 14.94-4.09 3.53-8.32 7.18-13.43 10.05-6.92 3.89-22.43 8.64-40.4 14.13-24.64 7.54-52.58 16.08-63.51 24.13-9.9 7.3-23.36 34.62-38.93 66.26-13.36 27.14-28.51 57.89-44.44 81.81-25.73 38.58-34.23 47.14-37.44 49.04-0.77 3.5-1.79 15.67 16.55 27.65 9.34 6.09 17.77 14.46 27.52 24.15 14.71 14.61 31.37 31.17 56.23 44.52 15.69 8.41 33.01 12.67 51.48 12.67 13.99 0 24.41-2.55 27.61-3.45l17.29-45.67 0.89 9.93c0.06 0.67 6.11 67.87 11.07 90.72 4.4 20.23 20.99 31.83 23.81 33.67z"/>
		<path id="&lt;Path&gt;" class="s5" d="m394.38 388.49c0 0-3.04-1.04 1-4.58 4.05-3.54 129.43-7.58 142.07-5.56 12.63 2.02 12.49 10.81 12.49 10.81z"/>
		<path id="&lt;Path&gt;" class="s1" d="m552.11 219.65c0 0 20.91-21.35 38.47-15.04 17.56 6.31 19.92 44.19 1.04 51.55-18.89 7.37-41.55-7.42-41.55-7.42z"/>
		<path id="&lt;Compound Path&gt;" class="s2" d="m580.08 260.51c-15.98 0-30.64-9.45-31.26-9.85-0.69-0.46-1.09-1.25-1.03-2.08l2.04-29.09c0.03-0.54 0.26-1.06 0.64-1.44 0.68-0.69 16.74-16.89 33.21-16.89 2.69 0 5.27 0.43 7.67 1.3 10.65 3.82 15.58 17.07 15.73 28.51 0.14 10.4-3.63 23.04-14.63 27.33-3.77 1.46-7.93 2.21-12.37 2.21zm-27.63-13c3.63 2.12 15.43 8.42 27.63 8.42 3.87 0 7.47-0.64 10.71-1.9 8.82-3.44 11.83-14.13 11.71-23-0.15-11.66-5.37-21.64-12.69-24.27q-2.88-1.03-6.13-1.03c-12.92 0-26.41 12.14-29.35 14.95z"/>
		<path id="&lt;Compound Path&gt;" class="s7" d="m577.23 312.25c-14.02 0-25.35-11.33-25.35-25.35 0-14.02 11.33-25.35 25.35-25.35 14.01 0 25.35 11.33 25.35 25.35 0 14.02-11.34 25.35-25.35 25.35zm0-5.41c-11.03 0-19.95-8.91-19.95-19.94 0-11.03 8.92-19.94 19.95-19.94 11.02 0 19.94 8.91 19.94 19.94 0 11.03-8.92 19.94-19.94 19.94z"/>
		<path id="&lt;Path&gt;" class="s1" d="m528.73 374.28c-3.64-2.08-5.09-31.83-5.63-49.48 56.17-15.3 57.11-64.08 56.7-123.74-0.03-2.26-0.03-4.45-0.08-6.62-6.78-22.02-36.15-42.11-44.47-46.01-9.47-4.47-29.51-30.08-29.51-30.08-0.58 20.78 31.04 44.77 32.25 45.65-0.66-0.22-11.42-4.18-21.68-13.34-10.57-9.47-18.94-33.44-18.94-33.44 2.25 31.76-91.25 89.93-96.25 108.29 0 0-7.02-9.52-13.91-24.29-6.78-3.71-14.5-5.93-22.1-3.98-21.25 5.46-28.14 49.55-6.84 60.23 18.29 9.16 41.51-0.44 47.77-3.35 3.19 9.52 7.46 18.65 12.8 27.08 1.72 25.81 5.07 81.67 2.22 85.66-3.71 5.19-26.68 21.63-26.68 21.63 0 0 136.38 190.33 141.8 184.25 50.05-56.12 13.76-183.58 13.76-183.58 0 0-16.01-11.91-21.21-14.88z"/>
		<path id="&lt;Compound Path&gt;" class="s2" d="m535.83 575.17q0 0 0 0c-2.44 0-6.99-0.01-76.06-93.13-33.82-45.58-66.92-91.76-67.25-92.22-0.35-0.49-0.5-1.11-0.4-1.71 0.1-0.6 0.44-1.13 0.93-1.48 6.3-4.51 23.29-17.1 26.15-21.1 1.2-2.68 1.21-26.16-2.6-83.6-4.78-7.63-8.78-15.93-11.91-24.71-5.87 2.5-16.95 6.41-28.71 6.41-6.98 0-13.29-1.39-18.73-4.12-12.23-6.13-15.21-21.16-13.93-33.19 1.42-13.23 8.53-28.03 21.22-31.3 7.24-1.85 15.32-0.42 23.76 4.19 0.43 0.24 0.77 0.6 0.98 1.04 4.41 9.45 8.91 16.77 11.49 20.7 5-7.95 18.33-19.35 34.55-33.22 27.2-23.26 61.05-52.21 59.76-70.35-0.08-1.14 0.7-2.17 1.82-2.4 1.13-0.23 2.25 0.4 2.62 1.49 0.09 0.23 8.31 23.52 18.31 32.48q1.31 1.17 2.62 2.22c-8.58-9.17-17.32-21.38-17-32.89 0.03-0.96 0.66-1.81 1.57-2.11 0.92-0.29 1.93 0 2.52 0.77 5.48 7 21.32 25.95 28.69 29.42 8 3.75 38.56 24.3 45.67 47.41q0.1 0.3 0.1 0.61 0.06 2.22 0.07 4.48l0.02 2.17c0.38 55.94 0.74 108.81-56.65 125.49 1.01 30.68 3.07 43.85 4.58 45.86 5.4 3.14 20.63 14.46 21.28 14.95 0.41 0.3 0.7 0.72 0.84 1.21 1.49 5.25 36.06 129.31-14.25 185.72-0.52 0.59-1.25 0.91-2.06 0.91zm-138.26-186.16c50.16 69.96 125.89 172.63 137.82 181.16 45.38-52.87 15.37-169.21 12.55-179.64-3.01-2.23-15.9-11.72-20.34-14.26-1.72-0.99-5.3-3.03-6.79-51.4-0.03-1.06 0.66-2 1.68-2.28 55.75-15.18 55.42-64.46 55.02-121.52l-0.02-2.17q-0.01-2.06-0.05-4.08c-6.75-21.23-35.89-40.91-43.16-44.32-6.77-3.19-18.17-16.01-24.91-24.07 5.96 17.59 29.69 35.52 29.97 35.72 0.91 0.66 1.2 1.89 0.69 2.89-0.52 1-1.69 1.48-2.76 1.13-0.11-0.04-11.5-4-22.49-13.81-7.02-6.29-12.98-18.35-16.42-26.4-6.41 19.36-34.7 43.55-60.07 65.25-17.06 14.59-33.18 28.37-34.96 34.91-0.23 0.84-0.92 1.48-1.78 1.64-0.87 0.16-1.75-0.18-2.27-0.89-0.28-0.39-7.02-9.58-13.82-23.99-7.17-3.77-13.86-4.94-19.78-3.42-9.01 2.31-16.33 13.56-17.81 27.35-1.12 10.5 1.29 23.53 11.43 28.61 4.8 2.41 10.41 3.63 16.68 3.63 12.65 0 24.56-4.9 29.09-7.01 0.59-0.27 1.28-0.28 1.87-0.02 0.6 0.25 1.06 0.75 1.27 1.37 3.18 9.5 7.41 18.45 12.57 26.59q0.3 0.49 0.35 1.07c5.45 82.02 2.79 85.73 1.79 87.13-3.31 4.65-19.54 16.61-25.35 20.83z"/>
		<path id="&lt;Path&gt;" class="s2" d="m465.26 227.01c-3.13 0-5.66-4.66-5.66-10.43 0-5.77 2.53-10.44 5.66-10.44 3.14 0 5.67 4.67 5.67 10.44 0 5.77-2.53 10.43-5.67 10.43z"/>
		<path id="&lt;Path&gt;" class="s2" d="m543.95 227.01c-3.13 0-5.66-4.66-5.66-10.43 0-5.77 2.53-10.44 5.66-10.44 3.14 0 5.67 4.67 5.67 10.44 0 5.77-2.53 10.43-5.67 10.43z"/>
		<path id="&lt;Compound Path&gt;" class="s7" d="m383.05 307.36c-14.02 0-25.36-11.34-25.36-25.36 0-14.02 11.34-25.35 25.36-25.35 14.02 0 25.35 11.33 25.35 25.35 0 14.02-11.33 25.36-25.35 25.36zm0-5.41c-11.03 0-19.95-8.92-19.95-19.95 0-11.03 8.92-19.95 19.95-19.95 11.03 0 19.94 8.92 19.94 19.95 0 11.03-8.91 19.95-19.94 19.95z"/>
		<path id="&lt;Path&gt;" class="s2" d="m147.74 656.15c-5.73-6.4-9.43-13.81-3.03-17.86 6.4-4.04 112.91 34.04 168.86 97.41 0 0 3.7 12.8-29.66-0.34-33.37-13.15-136.17-79.21-136.17-79.21z"/>
		<path id="&lt;Path&gt;" class="s2" d="m565 832.36q-0.47 0-0.93-0.2c-1.15-0.52-1.67-1.87-1.16-3.02 14.28-32.14 0.34-69.69-7.15-89.86q-1.15-3.08-2.02-5.52c-3.72-10.54-0.69-26.42 2.82-44.81 2.49-13.07 5.31-27.88 6.15-43.03 1.86-33.35-20.17-62.85-22.54-65.93l-129.13-86.75c-0.63-0.42-1.01-1.14-1.01-1.9v-48.21l-61.52-34.73c-1.1-0.62-1.49-2.02-0.87-3.12 0.62-1.1 2.02-1.48 3.12-0.86l62.68 35.38c0.72 0.41 1.17 1.17 1.17 2v48.32l128.41 86.28q0.29 0.19 0.5 0.46c1.06 1.31 25.81 32.45 23.76 69.31-0.86 15.46-3.71 30.43-6.23 43.64-3.38 17.73-6.3 33.05-2.99 42.43q0.85 2.4 1.99 5.45c7.17 19.3 22.08 59.46 7.04 93.31-0.38 0.85-1.22 1.36-2.09 1.36z"/>
		<path id="&lt;Path&gt;" class="s2" d="m541.74 580.59c-0.69 0-1.37-0.32-1.82-0.91-0.76-1.01-0.56-2.44 0.44-3.21 39.46-29.82 49-100.64 49.92-108.29l-19.9-38.48c-0.41-0.79-0.32-1.75 0.23-2.45l21.57-27.64c0.78-1 2.22-1.17 3.21-0.4 1 0.78 1.17 2.22 0.4 3.21l-20.67 26.49 19.55 37.79q0.31 0.61 0.24 1.28c-0.33 3.24-8.68 79.56-51.79 112.14-0.41 0.32-0.89 0.47-1.38 0.47z"/>
		<path id="&lt;Path&gt;" class="s2" d="m703.94 699.3q-0.35 0-0.71-0.12c-1.2-0.38-1.86-1.68-1.47-2.88 8.42-25.95 14.88-61.64-2.09-84.27-18.38-24.51-20.59-48.7-20.67-49.72-0.11-1.26 0.83-2.36 2.09-2.47 1.28-0.1 2.36 0.83 2.47 2.09 0.02 0.24 2.21 23.94 19.77 47.35 18.15 24.2 11.53 61.45 2.79 88.43-0.32 0.97-1.21 1.59-2.18 1.59z"/>
		<path id="&lt;Path&gt;" class="s2" d="m334.46 711.02q-0.5 0-0.99-0.23c-1.14-0.54-1.62-1.91-1.07-3.05l25.28-52.58c0.55-1.13 1.92-1.61 3.05-1.07 1.14 0.55 1.62 1.92 1.07 3.06l-25.27 52.57c-0.4 0.82-1.22 1.3-2.07 1.3z"/>
		<path id="&lt;Path&gt;" class="s2" d="m401.2 734.28c-1.18 0-2.18-0.9-2.28-2.09-0.11-1.26 0.82-2.37 2.08-2.48 68.25-5.93 111.65-37.66 112.08-37.98 1.01-0.75 2.44-0.54 3.2 0.47 0.75 1.01 0.54 2.45-0.47 3.2-0.44 0.33-44.8 32.81-114.41 38.87q-0.1 0.01-0.2 0.01z"/>
		<path id="&lt;Path&gt;" class="s2" d="m261.66 614.96c-1.01 0-1.93-0.67-2.21-1.69l-22.17-82.05c-0.32-1.22 0.4-2.47 1.62-2.8 1.22-0.34 2.47 0.39 2.8 1.61l22.17 82.05c0.33 1.22-0.39 2.48-1.61 2.81q-0.3 0.08-0.6 0.07z"/>
		<path id="&lt;Path&gt;" class="s2" d="m249.53 602.83c-1.04 0-1.99-0.72-2.23-1.77l-11.12-48.54c-0.28-1.23 0.48-2.46 1.72-2.74 1.22-0.28 2.46 0.49 2.74 1.72l11.12 48.53c0.28 1.24-0.49 2.46-1.72 2.74q-0.26 0.06-0.51 0.06z"/>
		<path id="&lt;Compound Path&gt;" class="s2" d="m540.9 622.72c-5.27 0-9.53-4.72-9.53-10.55 0-5.83 4.26-10.55 9.53-10.55 5.27 0 9.53 4.72 9.53 10.55 0 5.83-4.26 10.55-9.53 10.55zm0-4.58c-2.74 0-4.96-2.67-4.96-5.97 0-3.3 2.22-5.97 4.96-5.97 2.74 0 4.96 2.67 4.96 5.97 0 3.3-2.22 5.97-4.96 5.97z"/>
		<path id="&lt;Compound Path&gt;" class="s2" d="m545.79 687.6c-5.27 0-9.54-4.72-9.54-10.55 0-5.83 4.27-10.54 9.54-10.54 5.27 0 9.53 4.71 9.53 10.54 0 5.83-4.26 10.55-9.53 10.55zm0-4.58c-2.74 0-4.96-2.67-4.96-5.97 0-3.3 2.22-5.97 4.96-5.97 2.74 0 4.96 2.67 4.96 5.97 0 3.3-2.22 5.97-4.96 5.97z"/>
		<path id="&lt;Compound Path&gt;" class="s2" d="m552.53 823.76c-5.27 0-9.54-4.71-9.54-10.54 0-5.84 4.27-10.55 9.54-10.55 5.27 0 9.53 4.71 9.53 10.55 0 5.83-4.26 10.54-9.53 10.54zm0-4.57c-2.74 0-4.96-2.67-4.96-5.97 0-3.31 2.22-5.97 4.96-5.97 2.74 0 4.96 2.66 4.96 5.97 0 3.3-2.22 5.97-4.96 5.97z"/>
		<path id="&lt;Compound Path&gt;" class="s2" d="m540.23 762.76c-5.28 0-9.54-4.72-9.54-10.55 0-5.83 4.26-10.54 9.54-10.54 5.27 0 9.53 4.71 9.53 10.54 0 5.83-4.26 10.55-9.53 10.55zm0-4.58c-2.75 0-4.96-2.67-4.96-5.97 0-3.3 2.21-5.97 4.96-5.97 2.74 0 4.96 2.67 4.96 5.97 0 3.3-2.22 5.97-4.96 5.97z"/>
		<path id="&lt;Path&gt;" class="s2" d="m688.36 591.71q-0.1 0-0.19-0.01c-1.26-0.1-2.2-1.21-2.09-2.47l2.02-24.27c0.1-1.26 1.21-2.21 2.47-2.09 1.26 0.11 2.19 1.21 2.09 2.47l-2.02 24.27c-0.1 1.2-1.11 2.1-2.28 2.1z"/>
		<path id="&lt;Path&gt;" class="s1" d="m908.82 503.74c10.98-31.14 26.63-86.16 25.77-105.85-0.81-18.81-58.93-34.92-97.37-43.52 6.95-22.99 14.9-50.19 19.09-68.81l8.39-37.02c2.3-10.26-4.11-20.44-14.36-22.75-10.31-2.37-20.43 4.14-22.73 14.39l-8.33 37.02c-4.57 20.31-14.08 52.53-21.49 76.71-5.08 4.94-12.46 12.46-19.89 21.19-5.3-21.32-11.21-40.69-16.8-49.49-5.65-8.86-17.41-11.47-26.28-5.83-8.87 5.65-11.47 17.41-5.83 26.28 4.86 7.64 13.48 42.16 20.94 78.67-10.39 45.88 18.42 85.66 18.42 85.66l1.01 173.4c-3.14 2.73-5.95 5.05-8.19 6.74-16.2 12.13-57.24 6.48-57.24 6.48 0 0-12.54 55.2-14.57 67.33-1.73 10.49 8.59 40.63-2.28 58.39 20.75 35 49.08 61.8 87.21 63.45 126.26 5.49 134.9-82.8 135.4-184.37z"/>
		<path id="&lt;Compound Path&gt;" class="s2" d="m785.22 888.83q0 0-0.01 0c-3.58 0-7.28-0.14-11.02-0.3-34.59-1.5-64.56-23.25-89.08-64.61-0.43-0.72-0.43-1.65 0.02-2.37 6.9-11.28 4.62-28.73 2.96-41.47-0.87-6.62-1.61-12.35-0.99-16.11 2.02-12.06 14.09-65.21 14.6-67.47 0.26-1.16 1.37-1.93 2.54-1.76 0.1 0.01 9.55 1.29 20.95 1.29 16.23 0 28.2-2.53 34.6-7.33 1.9-1.43 4.34-3.42 7.28-5.95l-1.01-171.63c-3.72-5.39-28.1-42.81-18.47-86.41-8.29-40.48-16.34-70.83-20.53-77.42-6.31-9.92-3.38-23.12 6.53-29.43 3.43-2.19 7.38-3.34 11.43-3.34 7.34 0 14.07 3.69 18 9.86 4.76 7.46 10.14 22.9 16.02 45.9 6.36-7.23 12.43-13.4 16.73-17.6 7.23-23.6 16.72-55.73 21.28-75.98l8.32-37.02c2.21-9.81 10.72-16.67 20.69-16.67q2.41 0.01 4.79 0.55c11.44 2.58 18.66 14.01 16.08 25.48l-8.39 37.02c-4.27 19-12.39 46.62-18.42 66.62 63.53 14.4 96.08 29.58 96.76 45.12 0.87 20.11-14.81 75.16-25.77 106.32l0.86 197.74c-0.5 102.27-10.39 186.97-126.75 186.97zm-95.49-66.12c23.55 39.19 52.03 59.43 84.66 60.84 3.67 0.16 7.31-0.11 10.82-0.11q0.01 0 0.01 0c52.5 0 85.37-16.83 103.44-53.71 16.88-34.46 18.51-82.09 18.74-128.11l-0.86-197.96c-0.01-0.26 0.04-0.48 0.13-0.73 11.27-31.97 26.45-86.21 25.64-104.96-0.56-12.84-35.4-27.91-95.59-41.38-0.62-0.13-1.15-0.52-1.47-1.07-0.32-0.55-0.4-1.2-0.22-1.81 6.06-20.08 14.63-49.04 19.05-68.66l8.38-37.02c2.03-9.01-3.64-17.98-12.63-20.01q-1.88-0.43-3.77-0.43c-7.82 0-14.49 5.38-16.22 13.09l-8.32 37.02c-4.63 20.55-14.27 53.16-21.55 76.88q-0.17 0.56-0.59 0.97c-4.88 4.75-12.26 12.25-19.74 21.03-0.56 0.65-1.43 0.94-2.27 0.75-0.83-0.2-1.49-0.85-1.69-1.68-6.19-24.89-11.74-41.31-16.51-48.81-3.1-4.85-8.39-7.75-14.15-7.75-3.18 0-6.28 0.91-8.98 2.63-7.78 4.95-10.08 15.32-5.12 23.11 5.44 8.55 14.55 46.64 21.25 79.44q0.1 0.48-0.01 0.96c-10.04 44.36 17.76 83.43 18.04 83.82 0.28 0.39 0.43 0.85 0.44 1.33l1.01 173.4c0 0.66-0.29 1.3-0.79 1.74-3.37 2.92-6.17 5.22-8.32 6.84-7.31 5.47-19.88 8.25-37.35 8.25-8.63 0-16.02-0.7-19.48-1.08-2.28 10.04-12.32 54.57-14.1 65.19-0.51 3.08 0.2 8.5 1.02 14.76 1.69 12.99 3.99 30.64-2.9 43.23z"/>
		<path id="&lt;Path&gt;" class="s2" d="m828.26 498.66q-0.11-0.03-0.23-0.07c-0.8-0.33-1.19-1.26-0.86-2.07 23.82-57.98-25.99-84.89-28.13-86.01-0.77-0.4-1.07-1.36-0.67-2.14 0.41-0.77 1.39-1.08 2.14-0.67 0.55 0.29 54.53 29.33 29.59 90.03-0.3 0.73-1.09 1.12-1.84 0.93z"/>
		<path id="&lt;Path&gt;" class="s2" d="m910.97 405.49q-0.23-0.02-0.46-0.11c-0.7-0.28-70.35-28.04-96.4-35.64-0.84-0.25-1.32-1.13-1.07-1.97 0.24-0.84 1.1-1.31 1.97-1.08 26.19 7.65 95.98 35.46 96.68 35.74 0.81 0.33 1.21 1.25 0.89 2.06-0.27 0.67-0.93 1.05-1.61 1z"/>
		<path id="&lt;Path&gt;" class="s1" d="m867.13 330.67c7.81 2.68 13.19 8.96 14.75 15.87 5.22-4 12.73-5.33 20.09-2.8 8.29 2.84 14.02 9.72 15.15 17.15 0.16 1.06 0.16 2.13 0.13 3.2 4.68-4.14 11.84-5.66 18.87-3.25 7.43 2.55 12.57 8.72 13.58 15.38 0.35 2.33 0.2 4.73-0.54 7.05l-15.95 50.14c-2.84 8.94-13.29 13.39-23.34 9.95-7.06-2.43-11.97-8.12-13.32-14.38-4.75 6.98-14.43 10.03-23.86 6.8-7.8-2.68-13.23-8.93-14.8-15.83-5.22 3.97-12.7 5.28-20.03 2.76-8.5-2.91-13.97-10.08-14.89-17.71 3.82-24.82 10.57-42.46 21.1-73.87 4.48-1.63 17.87-2.24 23.06-0.46z"/>
		<path id="&lt;Compound Path&gt;" class="s2" d="m916.75 446.81c-2.56 0-5.13-0.44-7.62-1.29-6.11-2.1-10.99-6.52-13.47-12-3.95 3.71-9.43 5.83-15.36 5.83-2.8 0-5.62-0.47-8.35-1.41-7.16-2.46-12.82-7.84-15.36-14.44-5.67 3.09-12.89 3.63-19.48 1.38-8.9-3.06-15.35-10.75-16.41-19.61q-0.04-0.31 0.01-0.62c3.3-21.47 8.72-37.43 16.92-61.58 1.35-3.98 2.77-8.18 4.27-12.67 0.23-0.66 0.74-1.18 1.39-1.42 3.17-1.16 9.37-1.68 14.11-1.68 3.17 0 7.57 0.21 10.47 1.21 7.14 2.45 12.78 7.84 15.32 14.47 5.67-3.12 12.92-3.67 19.52-1.41 8.61 2.96 15.05 10.11 16.56 18.33 5.09-2.76 11.62-3.27 17.59-1.22 8 2.75 13.93 9.5 15.1 17.19 0.42 2.76 0.21 5.49-0.62 8.09l-15.95 50.14c-2.42 7.6-9.91 12.71-18.64 12.71zm-20.2-20.12q0.22 0 0.44 0.04c0.9 0.18 1.61 0.87 1.8 1.76 1.24 5.76 5.77 10.63 11.82 12.7q3.04 1.04 6.14 1.04c6.84 0 12.44-3.74 14.28-9.52l15.95-50.13q0.92-2.92 0.46-6.02c-0.92-6.03-5.65-11.35-12.07-13.56-5.93-2.03-12.42-0.9-16.61 2.81-0.68 0.6-1.66 0.74-2.48 0.36-0.83-0.39-1.35-1.23-1.32-2.14 0.03-0.92 0.03-1.89-0.1-2.8-1.04-6.82-6.39-12.84-13.64-15.33-6.27-2.15-13.2-1.18-17.94 2.46-0.62 0.48-1.44 0.6-2.17 0.33-0.74-0.26-1.28-0.88-1.46-1.64-1.46-6.46-6.54-11.91-13.26-14.21-1.78-0.61-5.05-0.96-8.99-0.96-4.39 0-8.96 0.45-11.53 1.1q-2.05 6.09-3.91 11.56c-8.08 23.81-13.43 39.57-16.68 60.49 0.97 6.99 6.16 13.07 13.32 15.52 6.25 2.15 13.16 1.19 17.9-2.42 0.62-0.48 1.44-0.6 2.17-0.33 0.73 0.26 1.28 0.88 1.45 1.64 1.46 6.43 6.56 11.86 13.31 14.17 2.26 0.78 4.57 1.17 6.87 1.17 5.97 0 11.34-2.65 14.36-7.09 0.43-0.63 1.14-1 1.89-1z"/>
		<path id="&lt;Path&gt;" class="s8" d="m858.57 420.42c-0.18 0.23-0.53 0.34-0.87 0.24-0.44-0.14-0.71-0.56-0.6-0.95l11.04-40.4c0.1-0.39 0.55-0.59 0.98-0.46 0.44 0.14 0.71 0.56 0.6 0.95l-11.04 40.4q-0.04 0.12-0.11 0.22z"/>
		<path id="&lt;Path&gt;" class="s8" d="m902.77 413.62c-0.18 0.24-0.52 0.34-0.86 0.24-0.44-0.13-0.72-0.55-0.61-0.94l11.95-45.96c0.09-0.41 0.54-0.61 0.98-0.48 0.43 0.13 0.71 0.55 0.61 0.95l-11.96 45.96q-0.03 0.13-0.11 0.23z"/>
		<path id="&lt;Path&gt;" class="s8" d="m897.23 429.44c-0.17 0.23-0.49 0.34-0.82 0.26-0.44-0.11-0.74-0.52-0.66-0.92l1.33-6.56c0.09-0.4 0.51-0.63 0.95-0.51 0.44 0.11 0.73 0.52 0.66 0.92l-1.34 6.55q-0.03 0.15-0.12 0.26z"/>
		<path id="&lt;Path&gt;" class="s8" d="m856.25 401.28q0 0.12-0.02 0.22l-3.88 14.93c-0.06 0.22-0.23 0.4-0.46 0.48-0.35 0.13-8.9 3.07-18.34-1.59-0.42-0.22-0.6-0.7-0.42-1.06 0.19-0.37 0.69-0.5 1.11-0.29 7.67 3.78 14.89 2.08 16.56 1.6l3.7-14.22c-7.08-9.57-19.55-9.38-22.22-9.23l-3.42 12.31c-0.11 0.41-0.57 0.62-1.02 0.48-0.45-0.14-0.72-0.59-0.61-0.98l3.55-12.79c0.07-0.28 0.32-0.48 0.64-0.52 0.16-0.01 16.18-1.65 24.68 10.26q0.13 0.19 0.15 0.4z"/>
		<path id="&lt;Path&gt;" class="s8" d="m894 412.82q0.01 0.12-0.02 0.22l-3.88 14.93c-0.05 0.22-0.22 0.4-0.45 0.48-0.36 0.13-8.9 3.07-18.34-1.59-0.42-0.22-0.6-0.7-0.43-1.06 0.2-0.37 0.69-0.5 1.12-0.29 7.67 3.78 14.89 2.08 16.55 1.6l3.7-14.22c-7.08-9.57-19.55-9.38-22.21-9.23l-3.43 12.31c-0.11 0.41-0.56 0.62-1.01 0.48-0.46-0.14-0.73-0.59-0.62-0.98l3.55-12.79c0.08-0.28 0.33-0.48 0.64-0.52 0.16-0.01 16.19-1.65 24.69 10.26q0.13 0.19 0.14 0.4z"/>
		<path id="&lt;Path&gt;" class="s8" d="m931.9 421.15q0 0.1-0.03 0.21l-3.67 14.13c-0.05 0.21-0.21 0.38-0.43 0.45-0.34 0.13-8.43 2.91-17.37-1.5-0.4-0.21-0.57-0.66-0.4-1 0.18-0.36 0.65-0.48 1.05-0.28 7.27 3.58 14.1 1.97 15.69 1.52l3.5-13.47c-6.71-9.07-18.52-8.89-21.04-8.74l-3.25 11.66c-0.1 0.38-0.53 0.59-0.96 0.45-0.43-0.13-0.69-0.56-0.58-0.93l3.36-12.11c0.07-0.27 0.31-0.45 0.61-0.49 0.15-0.01 15.33-1.57 23.38 9.72q0.12 0.17 0.14 0.38z"/>
		<path id="&lt;Path&gt;" class="s2" d="m769.92 744.39c-1.26 0-2.29-1.03-2.29-2.29v-67.41c0-1.26 1.03-2.29 2.29-2.29 1.26 0 2.29 1.03 2.29 2.29v67.41c0 1.26-1.03 2.29-2.29 2.29z"/>
		<path id="&lt;Compound Path&gt;" class="s9" d="m763.02 749.42c-167.07-20.63-150.4 72-192.82 91.05-132.1 59.34-153.86 164.78-46.73 190.6 190.39 45.89 328.13-36.44 368.24-85.71 36.91-45.34 67.78-171.69-128.69-195.94zm-100.95 91.48c-1.47 5.96-6.02 10.86-11.44 13.74-5.42 2.89-11.64 3.95-17.78 4.17-10.66 0.39-21.82-1.86-30.13-8.54-2.91-2.34-5.56-5.5-5.72-9.23-0.09-2.15 0.67-4.26 1.72-6.14 1.86-3.35 4.66-6.11 7.81-8.28 11.66-8.03 27.13-7.73 41.03-5.04 3.05 0.59 6.15 1.31 8.75 3.03 5.12 3.38 7.22 10.33 5.76 16.29z"/>
		<path id="&lt;Compound Path&gt;" class="s2" d="m633.8 1046.81q-0.01 0-0.01 0c-36.37 0-73.66-4.55-110.86-13.51-42.04-10.14-66.78-32.73-69.66-63.62-4.3-46.18 41.23-97.71 115.99-131.29 11.75-5.28 18.86-16.73 27.09-29.98 17.77-28.63 39.89-64.26 122.14-64.26 13.64 0 28.72 1.01 44.81 3 102.01 12.59 138.43 52.56 151.03 83.86 16.67 41.48 0.88 89.1-20.85 115.79-28.15 34.59-118.67 100.01-259.68 100.01zm84.69-298.08c-79.71 0-101.08 34.43-118.26 62.09-8.62 13.89-16.07 25.89-29.09 31.74-72.95 32.76-117.43 82.5-113.31 126.7 2.68 28.78 26.18 49.95 66.18 59.59 36.84 8.88 73.78 13.38 109.78 13.38 129.21 0 223.97-58.79 256.15-98.31 20.9-25.69 36.13-71.45 20.14-111.2-17.4-43.26-68.35-71.28-147.34-81.03-15.91-1.97-30.8-2.96-44.25-2.96zm-87.93 112.41c-8.2 0-19.93-1.58-29.28-9.09-4.13-3.32-6.4-7.09-6.56-10.91-0.1-2.32 0.57-4.8 2-7.36 1.91-3.43 4.78-6.47 8.51-9.04 10.28-7.09 24.62-8.91 42.76-5.41 3.22 0.63 6.6 1.4 9.58 3.37 5.74 3.79 8.5 11.5 6.72 18.75-1.53 6.22-6.12 11.77-12.59 15.21-5.09 2.71-11.23 4.16-18.77 4.44q-1.18 0.04-2.37 0.04zm0.69-38.98c-9.43 0-17.31 2.14-23.42 6.34-3.16 2.18-5.55 4.7-7.12 7.51q-1.51 2.73-1.42 4.93c0.13 3.12 2.72 5.82 4.86 7.55 8.31 6.67 18.95 8.08 26.41 8.08q1.11-0.01 2.21-0.04c6.83-0.25 12.32-1.53 16.78-3.9 5.24-2.8 9.09-7.38 10.29-12.28 1.31-5.31-0.71-11.13-4.79-13.83-2.28-1.51-5.17-2.16-7.93-2.69-5.7-1.11-11.04-1.67-15.87-1.67z"/>
		<path id="&lt;Path&gt;" class="s2" d="m669.23 775c5.68-3.78 12-7.32 18.82-7.15 9.75 0.25 17.83 7.94 27.45 9.59 8.94 1.53 19.3-2.04 26.51 3.45 5.91 4.5 6.6 13.79 2.79 20.17-3.82 6.37-11.05 10.06-18.35 11.45-7.3 1.4-14.81 0.81-22.23 0.52-6.45-0.25-13.89-0.75-17.71-5.96-0.79-1.09-1.38-2.34-2.31-3.32-1.31-1.39-3.16-2.1-4.94-2.78-4.62-1.76-9.38-3.62-12.84-7.15-3.46-3.53-5.24-9.21-2.84-13.52 1.27-2.28 3.48-3.86 5.65-5.3z"/>
		<path id="&lt;Path&gt;" class="s2" d="m510.84 927.29c5.68-3.78 12-7.32 18.82-7.15 9.75 0.25 17.84 7.94 27.45 9.59 8.94 1.53 19.3-2.04 26.51 3.45 5.92 4.5 6.61 13.79 2.79 20.17-3.81 6.37-11.05 10.06-18.35 11.45-7.3 1.4-14.8 0.81-22.23 0.52-6.45-0.25-13.88-0.75-17.7-5.96-0.8-1.09-1.39-2.34-2.32-3.32-1.31-1.39-3.16-2.1-4.94-2.78-4.62-1.76-9.38-3.62-12.84-7.15-3.46-3.53-5.24-9.21-2.83-13.52 1.26-2.28 3.47-3.86 5.64-5.3z"/>
		<path id="&lt;Path&gt;" class="s6" d="m804.68 790.64c-4.25-0.56-8.37-1.94-12.65-2.23-4.27-0.3-8.98 0.73-11.67 4.06-3.07 3.8-2.63 9.24-3.79 13.99-1.22 5.04-4.31 9.4-6.47 14.12-2.16 4.72-3.32 10.49-0.67 14.95 2.9 4.88 9.39 6.44 15.02 5.72 5.63-0.72 10.87-3.2 16.38-4.54 10.45-2.55 21.4-0.93 32.14-1.3 2.16-0.08 4.55-0.35 5.98-1.96 1.06-1.2 1.34-2.88 1.54-4.46 0.88-6.94 1.02-14.12-1.1-20.78-2.12-6.66-6.77-12.77-13.27-15.35-6.71-2.65-14.28-1.28-21.44-2.22z"/>
		<path id="&lt;Compound Path&gt;" class="s2" d="m781.84 843.7c-6.39 0-11.76-2.61-14.37-7-2.65-4.45-2.45-10.52 0.55-17.07 0.75-1.65 1.61-3.25 2.44-4.8 1.62-3.01 3.15-5.85 3.89-8.91 0.33-1.36 0.52-2.8 0.72-4.33 0.49-3.66 0.99-7.44 3.51-10.56 2.59-3.2 6.87-4.96 12.06-4.96q0.78 0 1.55 0.05c2.59 0.19 5.1 0.73 7.52 1.25 1.81 0.4 3.53 0.77 5.27 1 2.47 0.32 4.99 0.36 7.65 0.39 4.76 0.07 9.67 0.13 14.33 1.98 6.64 2.63 12.1 8.9 14.61 16.78 1.93 6.07 2.31 12.98 1.19 21.75-0.24 1.88-0.62 4.02-2.1 5.69-1.98 2.24-4.95 2.64-7.6 2.73q-1.9 0.07-3.81 0.06-3.42-0.01-6.84-0.11-3.36-0.1-6.71-0.11c-3.99 0-9.22 0.16-14.33 1.4-2.08 0.51-4.11 1.18-6.25 1.89-3.32 1.1-6.75 2.23-10.38 2.7q-1.44 0.19-2.9 0.18zm8.8-53.05c-2.19 0-6.21 0.42-8.5 3.26-1.71 2.11-2.11 5.11-2.53 8.28-0.21 1.58-0.42 3.21-0.81 4.81-0.89 3.64-2.62 6.87-4.31 10-0.83 1.55-1.62 3.01-2.31 4.53-1.37 2.98-3.28 8.62-0.78 12.83 1.78 2.99 5.68 4.77 10.44 4.77q1.17 0 2.32-0.15c3.19-0.41 6.27-1.43 9.52-2.51 2.14-0.7 4.35-1.43 6.61-1.99 5.58-1.35 11.17-1.53 15.41-1.53q3.41 0.02 6.83 0.12 3.36 0.09 6.72 0.11 1.83 0 3.64-0.06c1.68-0.06 3.51-0.25 4.34-1.19 0.63-0.7 0.83-1.98 0.99-3.23 1.03-8.09 0.71-14.38-1.01-19.79-2.1-6.59-6.56-11.79-11.93-13.92-3.88-1.53-8.17-1.59-12.71-1.65-2.68-0.04-5.45-0.08-8.18-0.43-1.94-0.26-3.83-0.67-5.65-1.06-2.37-0.52-4.6-1-6.86-1.16q-0.62-0.04-1.24-0.04z"/>
		<path id="&lt;Path&gt;" class="s10" d="m809.92 899.63c2.8-3.7 4.66-8.01 7-12.02 5.89-10.07 15.95-18.61 27.61-19.02 11.66-0.4 23.6 10.11 21.64 21.61-1.48 8.68-9.47 14.53-14.19 21.97-3.61 5.69-5.32 12.41-8.69 18.25-6.35 11.05-19.78 18.38-32.15 15.32-12.37-3.07-21-18.12-15.45-29.58 3.19-6.57 9.82-10.72 14.23-16.53z"/>
		<path id="&lt;Compound Path&gt;" class="s2" d="m816.94 948.73q-3.25 0-6.35-0.77c-7.06-1.75-13.26-7.03-16.58-14.11-2.95-6.29-3.08-13.1-0.37-18.69 2.09-4.31 5.45-7.58 8.7-10.75 2.11-2.05 4.1-3.98 5.75-6.17 1.75-2.3 3.11-4.86 4.55-7.58 0.75-1.41 1.5-2.83 2.31-4.2 7.15-12.23 18.18-19.76 29.5-20.15 7.11-0.26 14.58 3.18 19.35 8.84 3.89 4.61 5.53 10.09 4.62 15.43-1.08 6.34-5.16 11.16-9.11 15.83-1.9 2.25-3.87 4.58-5.4 6.98-1.83 2.89-3.14 6.05-4.53 9.4-1.21 2.92-2.47 5.93-4.11 8.78-5.9 10.26-17.29 17.16-28.33 17.16zm28.25-77.86l-0.58 0.01c-11.47 0.4-20.81 9.5-25.71 17.89-0.78 1.32-1.5 2.68-2.22 4.04-1.46 2.75-2.97 5.6-4.94 8.2-1.86 2.46-4.07 4.6-6.2 6.68-3.11 3.02-6.05 5.88-7.79 9.47-2.1 4.34-1.96 9.71 0.4 14.74 2.7 5.77 7.89 10.22 13.54 11.62q2.55 0.63 5.25 0.63c9.46 0 19.25-5.97 24.37-14.87 1.49-2.59 2.63-5.34 3.84-8.25 1.41-3.38 2.86-6.87 4.9-10.09 1.7-2.67 3.77-5.12 5.77-7.48 3.71-4.39 7.22-8.54 8.09-13.65 0.68-3.99-0.6-8.15-3.61-11.71-3.76-4.46-9.55-7.23-15.11-7.23z"/>
		<path id="&lt;Path&gt;" class="s11" d="m722.52 976.33c-9.08 2.8-18.57 5.62-27.93 3.97-9.35-1.66-18.37-9.33-18.14-18.82 0.24-9.49 8.92-16.29 16.77-21.64q13.88-9.46 27.76-18.91c6.68-4.56 13.61-9.22 21.55-10.77 7.94-1.54 17.22 0.83 21.43 7.75 3.34 5.5 2.81 12.43 2.17 18.83-0.96 9.54-2.35 20-9.44 26.45-4.26 3.89-9.97 5.69-15.48 7.39q-9.34 2.87-18.69 5.75z"/>
		<path id="&lt;Compound Path&gt;" class="s2" d="m700.38 983.08q-3.21 0-6.18-0.53c-10.07-1.78-20.31-10.17-20.03-21.13 0.25-10.16 8.69-17.28 17.76-23.47l27.76-18.92c6.51-4.43 13.88-9.45 22.4-11.11q2.54-0.49 5.17-0.5c8.14 0 15.11 3.48 18.65 9.3 3.88 6.38 3.08 14.4 2.49 20.25-1.04 10.38-2.68 21.09-10.17 27.91-4.72 4.31-10.9 6.21-16.34 7.88l-18.7 5.76c-6.94 2.14-14.81 4.56-22.81 4.56zm46.88-71.08q-2.19 0-4.29 0.41c-7.6 1.48-14.56 6.22-20.7 10.4l-27.76 18.92c-8.07 5.5-15.56 11.71-15.77 19.81-0.21 8.38 8.27 15.09 16.25 16.51q2.58 0.45 5.39 0.45c7.31 0 14.83-2.31 21.47-4.35l18.69-5.76c4.99-1.53 10.64-3.27 14.61-6.89 6.3-5.74 7.71-15.09 8.7-24.99 0.68-6.75 1.01-12.72-1.85-17.42-2.7-4.44-8.21-7.09-14.74-7.09z"/>
		<path id="&lt;Path&gt;" class="s1" d="m630.56 980.3c-15.32-12.14-23.48-15.99-49.24-46.53q-2.18-2.59-4.1-5c-1.23-10.96 8.89-21.15 25.68-1.87 21.98 25.23 34.19 23.6 39.89 22.79 5.69-0.82 12.2-10.58 1.62-25.23-10.4-14.41-44.54-55.42-80.57-67.56 0 0-37.13-15.49-94.64-17.35l-193.38-46.89 24.27-63.37c0 0-31.01-48.53-138.86-78.19 0 0-47 85.25-59.68 164.05-4.49 27.92-4.71 55.05 3.05 77.27 5.87 16.8 28.9 29.79 60.89 39.84 36.82 11.57 85.52 19.23 133.66 24.32l0.26 0.55c0 0 125.15 19.93 135.25 20.85 10.11 0.92 61.07 57.73 72.65 68.75 11.59 11.02 25.99 3.75 25.99 3.75 0 0 33.59 24.76 42.82-13.33 0 0 23.15 15.42 36.47 8.7 13.32-6.73 11.47-18.44 11.47-18.44 0 0 21.51 11.28 33.54-4.28 12.02-15.56-11.35-30.39-27.04-42.83z"/>
		<path id="&lt;Compound Path&gt;" class="s2" d="m555.03 1060.68c-9.64 0-18.86-5.53-21.98-7.6-1.93 0.77-5.83 2.04-10.56 2.04-6.42 0-12.06-2.27-16.75-6.74-3-2.85-8.45-8.56-15.34-15.8-16-16.78-49.28-51.71-55.95-52.32-10.06-0.92-130.29-20.06-135.4-20.87-0.49-0.08-0.93-0.31-1.27-0.66-55.84-5.94-100.58-14.11-132.97-24.29-35.74-11.22-56.73-25.11-62.37-41.27-7.15-20.49-8.21-46.87-3.14-78.39 12.59-78.28 59.45-163.93 59.92-164.78 0.51-0.93 1.6-1.39 2.61-1.11 107.47 29.55 138.9 77.16 140.18 79.17 0.39 0.61 0.47 1.37 0.21 2.05l-23.34 60.93 190.63 46.23c57.14 1.89 94.83 17.37 95.21 17.52 42.06 14.16 79.96 66.12 81.55 68.33 7.81 10.81 6.42 18.43 4.9 22.02-1.58 3.72-4.67 6.33-8.06 6.81-1.15 0.17-2.72 0.39-4.64 0.39-11.06 0-23.26-7.83-37.29-23.94-7.61-8.74-12.79-10.04-15.19-10.04q-2.65 0-4.37 1.92c-1.59 1.78-2.38 4.58-2.18 7.6q1.71 2.14 3.63 4.42c21.04 24.94 29.97 31.73 41.28 40.32 2.41 1.83 4.91 3.73 7.63 5.89q2.63 2.08 5.46 4.24c11.35 8.71 24.22 18.59 25.63 29.5 0.56 4.28-0.68 8.41-3.66 12.28-4.68 6.05-11.13 9.12-19.17 9.12q0 0 0 0c-5.61-0.01-10.72-1.54-13.9-2.76-0.47 4.52-2.84 12.01-12.72 17-2.55 1.29-5.56 1.94-8.94 1.94-10.36 0-22.01-6.09-27.16-9.12-4.95 16.41-14.84 19.97-22.49 19.97zm-21.73-12.49c0.48 0 0.96 0.15 1.36 0.44 0.1 0.08 10.28 7.47 20.37 7.47 9.38 0 15.73-6.56 18.87-19.49 0.17-0.73 0.69-1.32 1.39-1.59 0.69-0.28 1.48-0.19 2.1 0.22 0.15 0.1 15.19 10.02 27.29 10.02 2.66 0 4.97-0.49 6.88-1.46 11.7-5.9 10.26-15.94 10.24-16.04-0.13-0.85 0.23-1.7 0.93-2.21 0.7-0.5 1.63-0.57 2.39-0.17 0.07 0.04 7.18 3.69 15.12 3.69 6.55 0 11.78-2.47 15.55-7.34 2.24-2.91 3.14-5.82 2.74-8.89-1.17-9.02-13.23-18.29-23.87-26.46-1.9-1.46-3.76-2.89-5.52-4.29-2.7-2.13-5.17-4.01-7.56-5.83-11.08-8.41-20.65-15.69-42.01-41.01q-2.2-2.62-4.14-5.05-0.4-0.52-0.48-1.17c-0.51-4.53 0.71-8.94 3.26-11.79 2.02-2.27 4.71-3.46 7.78-3.46 5.57 0 12.02 4.02 18.64 11.62 12.93 14.84 24.31 22.36 33.84 22.36 1.6 0 2.93-0.19 3.99-0.34 1.36-0.19 3.35-1.37 4.49-4.07 1.95-4.59 0.35-10.98-4.39-17.55-1.56-2.16-38.61-52.98-79.45-66.73-0.52-0.21-37.61-15.41-93.99-17.24q-0.23 0-0.46-0.06l-193.38-46.89c-0.64-0.16-1.18-0.58-1.49-1.16-0.3-0.58-0.34-1.27-0.11-1.88l23.83-62.23c-4.93-6.74-39.03-48.99-135.14-75.82-6.42 12.03-47.03 90.07-58.56 161.72-4.95 30.76-3.95 56.38 2.95 76.15 5.14 14.72 25.13 27.65 59.42 38.42 32.32 10.15 77.14 18.3 133.21 24.22 0.57 0.06 1.09 0.33 1.46 0.74 12.28 1.96 124.6 19.8 134.02 20.66 7.75 0.71 31.23 24.75 58.84 53.73 6.85 7.19 12.26 12.86 15.18 15.64 3.82 3.63 8.39 5.47 13.6 5.47 5.49 0 9.74-2.09 9.79-2.11q0.49-0.24 1.02-0.24z"/>
		<path id="&lt;Path&gt;" class="s2" d="m572.14 954.18q-0.38 0-0.68-0.26l-11.11-10.06c-0.41-0.38-0.44-1.02-0.07-1.43 0.38-0.41 1.02-0.44 1.43-0.07l11.11 10.06c0.41 0.37 0.44 1.01 0.07 1.43-0.21 0.22-0.48 0.33-0.75 0.33z"/>
		<path id="&lt;Path&gt;" class="s2" d="m564.93 956.61q-0.11 0-0.23-0.02c-0.54-0.13-0.88-0.67-0.76-1.22l3.2-13.96c0.13-0.54 0.67-0.86 1.21-0.76 0.54 0.13 0.88 0.67 0.76 1.21l-3.19 13.96c-0.12 0.48-0.53 0.79-0.99 0.79z"/>
		<path id="&lt;Path&gt;" class="s2" d="m434.82 831.08c0 0-35.14 62.69-40.95 140.29l-18.96-2.78c0 0 9.1-100.1 43.98-142.06z"/>
		<path id="&lt;Path&gt;" class="s1" d="m391.93 942.3c-13.28 0-24.01-10.73-24.01-24.01 0-13.28 10.73-24.02 24.01-24.02 13.28 0 24.01 10.74 24.01 24.02 0 13.28-10.73 24.01-24.01 24.01z"/>
		<path id="&lt;Compound Path&gt;" class="s2" d="m391.93 943.31c-13.84 0-25.03-11.18-25.03-25.02 0-13.84 11.19-25.03 25.03-25.03 13.84 0 25.02 11.19 25.02 25.03 0 13.84-11.18 25.02-25.02 25.02zm0-2.02c-12.72 0-23.01-10.28-23.01-23 0-12.72 10.29-23.01 23.01-23.01 12.72 0 23 10.29 23 23.01 0 12.72-10.28 23-23 23z"/>
		<path id="&lt;Path&gt;" class="s1" d="m374.23 914.66l17.7 3.63-1.85-8.01"/>
		<path id="&lt;Path&gt;" class="s2" d="m391.93 919.3q-0.1 0-0.2-0.02l-17.7-3.62c-0.55-0.12-0.9-0.65-0.79-1.2 0.12-0.55 0.66-0.88 1.19-0.79l16.16 3.31-1.5-6.47c-0.12-0.54 0.22-1.09 0.76-1.21 0.57-0.14 1.09 0.21 1.21 0.75l1.85 8.01c0.08 0.33-0.02 0.69-0.26 0.93-0.19 0.2-0.45 0.31-0.72 0.31z"/>
		<path id="&lt;Path&gt;" class="s2" d="m527.95 320.25c-21.62 4.46-47.01 4.8-77.21-12.01 0 0 31.23 44.6 72.75 43.92l-0.35-23.68z"/>
		<path id="&lt;Path&gt;" class="s2" d="m512.16 250.48c-1.09 0-2.05-0.78-2.25-1.88-0.22-1.25 0.6-2.44 1.85-2.66 1.37-0.25 2.79-1.45 3.79-3.2 1.1-1.93 1.49-4.16 0.97-5.55-1.47-3.96-6.27-17.34-6.47-23.24-0.04-1.26 0.95-2.32 2.21-2.36 1.26-0.07 2.32 0.95 2.36 2.21 0.14 4.14 3.42 14.33 6.19 21.8 0.99 2.67 0.5 6.27-1.29 9.41-1.69 2.96-4.22 4.94-6.95 5.43q-0.21 0.04-0.41 0.04z"/>
		<path id="&lt;Path&gt;" class="s2" d="m392.41 241.21c-0.94 0-1.83-0.58-2.16-1.52-4.43-12.53-11.31-19.87-18.6-19.6-4.64 0.17-8.55 3.62-9.98 8.8-0.33 1.22-1.59 1.94-2.81 1.6-1.22-0.33-1.93-1.59-1.6-2.81 1.97-7.15 7.55-11.92 14.23-12.16 9.31-0.3 17.94 8.13 23.08 22.64 0.42 1.19-0.21 2.5-1.4 2.92q-0.38 0.13-0.76 0.13z"/>
		<path id="&lt;Path&gt;" class="s2" d="m374.22 236.06c-0.51 0-1.03-0.17-1.46-0.53-0.97-0.8-1.1-2.25-0.29-3.22l8.57-10.29c0.81-0.97 2.26-1.1 3.23-0.3 0.97 0.81 1.1 2.26 0.29 3.23l-8.58 10.29c-0.45 0.54-1.1 0.82-1.76 0.82z"/>
		<path id="&lt;Path&gt;" class="s2" d="m580.1 233.32q-0.55 0-1.07-0.27c-1.12-0.6-1.54-2.44-0.95-3.55 1.43-2.67 6.46-11.82 11.5-11.82q0.01 0 0.01 0c1.09 0 3.12 0.87 4.55 3.6 0.58 1.12 0.15 2.73-0.97 3.31-1.12 0.6-2.5 0.27-3.08-0.85-0.31-0.58-0.53-0.63-0.53-0.63-1.15-0.02-4.72 3.88-7.44 8.97-0.41 0.77-1.2 1.24-2.02 1.24z"/>
		<path id="&lt;Path&gt;" class="s2" d="m510.26 279.39c-18.49 0-30.74-13.2-31.36-13.88-0.85-0.93-0.78-2.38 0.15-3.23 0.93-0.85 2.38-0.78 3.23 0.15 0.67 0.73 16.51 17.7 38.8 10.68 1.21-0.37 2.49 0.3 2.87 1.5 0.38 1.2-0.29 2.49-1.49 2.87-4.3 1.35-8.38 1.91-12.2 1.91z"/>
		<path id="&lt;Path&gt;" class="s2" d="m476.82 270.72q-0.64 0-1.22-0.36c-1.07-0.67-1.39-2.08-0.71-3.15l6.52-10.29c0.67-1.07 2.09-1.39 3.15-0.71 1.07 0.67 1.39 2.09 0.71 3.15l-6.52 10.3c-0.43 0.68-1.18 1.06-1.93 1.06z"/>
		<path id="&lt;Path&gt;" class="s2" d="m470.82 196.61c-4.15-0.02-8.31-1.11-12.41-0.48-1.14 0.17-2.27 0.48-3.42 0.5-1.16 0.01-2.38-0.3-3.15-1.17-1.24-1.43-0.7-3.79 0.68-5.09 1.38-1.3 3.32-1.79 5.18-2.15 4.38-0.87 9.04-1.34 13.2 0.26 1.5 0.57 2.96 1.47 3.75 2.87 0.79 1.39 0.7 3.37-0.53 4.4-0.89 0.75-2.14 0.86-3.3 0.86z"/>
		<path id="&lt;Path&gt;" class="s2" d="m535.1 196.61c4.15-0.02 8.3-1.11 12.4-0.48 1.15 0.17 2.27 0.48 3.43 0.5 1.15 0.01 2.38-0.3 3.14-1.17 1.25-1.43 0.7-3.79-0.68-5.09-1.38-1.3-3.31-1.79-5.17-2.15-4.38-0.87-9.04-1.34-13.21 0.26-1.5 0.57-2.96 1.47-3.75 2.87-0.79 1.39-0.7 3.37 0.54 4.4 0.89 0.75 2.14 0.86 3.3 0.86z"/>
		<path id="&lt;Path&gt;" class="s2" d="m826.64 339.45c77.56-39.08 137.36-76.86 133.57-84.4-3.8-7.53-69.75 18.04-147.32 57.11-77.56 39.07-137.36 76.86-133.57 84.39 3.8 7.54 69.75-18.03 147.32-57.1z"/>
		<path id="&lt;Compound Path&gt;" class="s2" d="m683.18 400.16q0 0 0 0c-1.14 0-4.6 0-5.9-2.58-1.23-2.44-3.78-7.5 37.09-33.33 25.29-15.98 59.91-35.2 97.49-54.13 67.48-34 128.25-58.67 144.49-58.67 1.14 0 4.6 0 5.9 2.57 1.23 2.44 3.78 7.51-37.1 33.33-25.29 15.98-59.91 35.21-97.48 54.14-68.57 34.54-127.99 58.67-144.49 58.67zm-1.67-4.74c0.29 0.07 0.8 0.16 1.67 0.16 15.6 0 75.51-24.47 142.43-58.18 83.19-41.91 130.36-74.13 132.41-81.21-0.29-0.08-0.8-0.16-1.67-0.16-15.61 0-75.51 24.46-142.43 58.17-83.19 41.91-130.37 74.14-132.41 81.22z"/>
		<path id="&lt;Path&gt;" class="s12" d="m886.24 307.77c46.3-26.07 76.71-47.28 73.97-52.72-2.74-5.44-37.88 6.38-86.39 28.07z"/>
		<path id="&lt;Compound Path&gt;" class="s2" d="m886.24 310.05q-0.34 0-0.67-0.09c-0.59-0.19-1.09-0.61-1.37-1.16l-12.42-24.65c-0.28-0.56-0.32-1.21-0.11-1.8 0.21-0.59 0.65-1.07 1.22-1.32 42.04-18.8 72.47-29.58 83.47-29.58 1.13 0 4.59 0 5.89 2.57 1.51 3 0.22 7.69-19.32 21.52-13.19 9.35-32.41 21.18-55.57 34.22q-0.53 0.29-1.12 0.29zm-9.29-25.82l10.25 20.37c50-28.29 69.48-44.16 70.82-48.42-0.29-0.07-0.81-0.16-1.66-0.16-10.05 0-39.65 10.53-79.41 28.21z"/>
		<path id="&lt;Path&gt;" class="s2" d="m933.32 259.05l7.63 15.12c0 0 14.65 9.47 31.57 0.95 16.93-8.53 32.2-47.73 32.2-47.73 0 0-43.14-2.07-57.64 5.24-14.51 7.31-13.76 26.42-13.76 26.42z"/>
		<path id="&lt;Path&gt;" class="s10" d="m1004.72 227.39c0 0-38.36-1.83-54.89 4.09 0.54 3.31 3 6.43 6.19 7.74 4.46 1.85 9.67 0.81 13.94-1.45 0.86-0.46 1.82-0.98 2.76-0.69 1.5 0.47 1.63 2.72 0.68 3.98-0.95 1.25-2.5 1.88-3.79 2.78-2.17 1.53-3.68 4.12-3.49 6.77 0.18 2.65 2.31 5.15 4.96 5.36 4.63 0.37 8.3-5.62 12.8-4.48 2.95 0.75 3.92 3.81 4.77 7.04 9.39-14.07 16.07-31.14 16.07-31.14z"/>
		<path id="&lt;Compound Path&gt;" class="s2" d="m988.65 260.82q-0.19 0-0.38-0.03c-0.89-0.15-1.61-0.81-1.84-1.68-0.85-3.27-1.57-5.01-3.11-5.4-1.41-0.36-3.05 0.7-4.86 1.85-2.14 1.36-4.61 2.94-7.56 2.7-3.69-0.3-6.79-3.59-7.07-7.49-0.23-3.32 1.48-6.69 4.46-8.8q0.67-0.46 1.38-0.87c0.81-0.49 1.51-0.91 1.9-1.42q0.07-0.1 0.1-0.23c-0.2 0.11-0.44 0.24-0.62 0.33-5.44 2.88-11.28 3.47-15.91 1.56-3.93-1.63-6.9-5.35-7.56-9.49-0.18-1.09 0.45-2.15 1.48-2.52 10.36-3.71 28.67-4.49 42.2-4.49 7.82 0 13.52 0.27 13.57 0.27 0.74 0.03 1.41 0.42 1.81 1.04 0.4 0.62 0.48 1.39 0.21 2.08-0.27 0.7-6.87 17.46-16.3 31.57-0.43 0.64-1.15 1.02-1.9 1.02zm-16.49-26.11q0.63 0 1.23 0.19c1.26 0.39 2.23 1.37 2.66 2.69 0.51 1.6 0.19 3.5-0.83 4.84-0.93 1.23-2.13 1.95-3.2 2.6q-0.56 0.32-1.09 0.68c-1.66 1.17-2.65 3.03-2.53 4.74 0.11 1.61 1.45 3.13 2.86 3.24l0.23 0.01c1.37 0 2.9-0.97 4.51-2 1.95-1.24 4.15-2.64 6.72-2.64q0.87 0 1.72 0.22c2.41 0.61 3.86 2.22 4.81 4.05 5.65-9.22 10.06-18.98 12.1-23.77-2.39-0.07-5.93-0.15-10.09-0.15-17.05 0-30.59 1.26-38.59 3.56 0.84 1.81 2.41 3.39 4.22 4.14 3.36 1.39 7.81 0.86 11.99-1.36 0.84-0.45 1.96-1.04 3.28-1.04z"/>
		<path id="&lt;Path&gt;" class="s10" d="m595.13 72.21c16-16.52-7.19-45.79-47.75-36.61-40.55 9.19-166.18 34.42-192.35 31.82-26.17-2.6-42.94 41.34-9.64 66.24l-2.42 11.36c0 0 49.5 4.6 58.02 6.41 8.52 1.81 116.9 0.58 194.14-79.22z"/>
		<path id="&lt;Compound Path&gt;" class="s2" d="m408.13 154.11q0 0-0.01 0c-3.52 0-6.29-0.16-7.6-0.44-8.3-1.77-57.27-6.32-57.76-6.37-0.65-0.06-1.25-0.39-1.63-0.92-0.39-0.53-0.53-1.19-0.4-1.83l2.12-9.95c-18.84-14.84-20.58-35.1-16.25-48.15 4.63-13.92 16-22.55 28.65-21.31q1.78 0.18 4.28 0.18c32.99 0 145.84-22.55 187.35-31.95 5.27-1.2 10.48-1.8 15.48-1.8 18.09 0 33.18 8.03 38.45 20.45 3.3 7.79 1.83 15.73-4.03 21.78-75.56 78.05-177.28 80.31-188.65 80.31zm-62.39-11.12c10.36 0.97 48.2 4.6 55.73 6.2 0.74 0.16 2.92 0.34 6.65 0.34 40.48 0.01 125.06-16.61 185.37-78.91 4.59-4.74 5.69-10.71 3.1-16.81-3.72-8.79-15.75-17.67-34.23-17.67-4.66 0-9.53 0.57-14.47 1.69-41.65 9.44-155.01 32.06-188.36 32.06q-2.73 0-4.73-0.2c-10.48-1.04-19.9 6.33-23.85 18.21-4.14 12.43-2.15 30.5 15.81 43.93 0.71 0.53 1.05 1.44 0.87 2.31z"/>
		<path id="&lt;Path&gt;" class="s10" d="m436.18 69.82c-1.28-0.28-2.43-1.13-3.03-2.42-1.34-2.88-12.84-28.55-6.4-43.49 0.96-2.2 3.52-3.22 5.69-2.26 2.2 0.95 3.21 3.49 2.27 5.69-4.17 9.67 3.13 29.57 6.3 36.42 1 2.17 0.06 4.74-2.11 5.75-0.88 0.41-1.84 0.5-2.72 0.31z"/>
		<path id="&lt;Compound Path&gt;" class="s2" d="m437.08 72.2q-0.7 0-1.37-0.14c-2.03-0.44-3.76-1.82-4.64-3.7-1.38-2.97-13.27-29.45-6.42-45.35 1.06-2.44 3.44-4.01 6.09-4.01q1.37 0 2.62 0.55c3.33 1.44 4.89 5.34 3.45 8.69-3.41 7.92 2.04 25.4 6.28 34.56 1.52 3.32 0.08 7.25-3.23 8.78q-1.32 0.62-2.78 0.62zm-6.34-48.62c-0.82 0-1.56 0.48-1.89 1.24-4.92 11.43 1.69 31.53 6.37 41.61 0.28 0.6 0.8 1.01 1.43 1.15 0.43 0.09 0.88 0.04 1.29-0.15 1.02-0.47 1.47-1.69 1-2.71-0.12-0.25-11.76-25.69-6.33-38.28 0.44-1.04-0.04-2.25-1.07-2.69q-0.4-0.18-0.8-0.17z"/>
	</g>
</svg>