<svg version="1.2" xmlns="http://www.w3.org/2000/svg" viewBox="0 0 1080 1080" width="1080" height="1080">
	<style>
		.s0 { fill: #ffecbb } 
		.s1 { fill: #333333 } 
		.s2 { fill: #fc5e71 } 
		.s3 { fill: #ffffff } 
		.s4 { fill: #1a194e } 
		.s5 { fill: #f29c50 } 
		.s6 { fill: #f2cf63 } 
		.s7 { fill: #290a43 } 
		.s8 { fill: #f29199 } 
		.s9 { fill: #2b2b2b } 
	</style>
	<g id="Layer 1">
		<path id="&lt;Path&gt;" class="s0" d="m115.57 747.98q-3.96 3.39-7.53 7.33c-39.9 44.26-43.26 132.92-10.59 181.58 15.64 23.29 39.72 39.72 65.03 51.8 74 35.33 162.85 33.57 237.57 1.31 83.47-36.04 129.88-123.1 221.03-145.73 27.94-6.94 57.05-7.02 85.61-10.58 92.31-11.51 177.36-63.4 234.38-136.23 63.03-80.5 85.51-196.34 72.81-297.34-9.66-76.8-47.37-163.51-113.48-208.46-73.25-49.81-177.21-34.55-260.81-32.96-41.47 0.79-63.2-6.96-92.2-34.37-71.34-67.43-198.18-64.53-282.78-24.79-72.07 33.86-118.02 104.36-116.5 184.12 2.12 110.62 95.82 190.81 92.39 302.52-1.23 40.07-16 81.25-44.04 110.42-22.66 23.56-56.71 30.57-80.89 51.38z"/>
		<path id="&lt;Path&gt;" class="s1" d="m446.51 307.24c-1.08 0-2.14-0.57-2.7-1.59-0.82-1.49-0.28-3.36 1.21-4.18 5.59-3.1 19.55-13.18 16.94-22.48-0.79-2.82-1.68-5.52-2.56-8.13-3.47-10.45-6.76-20.33-0.87-30.79 2.86-5.08 5.78-8.06 8.36-10.69 3.69-3.78 6.88-7.03 9.83-16.06 0.52-1.61 2.26-2.5 3.88-1.98 1.62 0.53 2.5 2.27 1.97 3.89-3.39 10.4-7.4 14.49-11.28 18.46-2.54 2.59-4.93 5.03-7.39 9.4-4.55 8.09-1.95 15.91 1.35 25.83 0.9 2.7 1.83 5.5 2.64 8.41 4.45 15.89-18.9 28.98-19.9 29.53q-0.72 0.39-1.48 0.38z"/>
		<path id="&lt;Path&gt;" class="s1" d="m660.5 323.45c-1.51 0-2.83-1.11-3.05-2.64-0.24-1.68 0.93-3.24 2.61-3.49 1.53-0.21 2.44-0.86 3.04-2.15 2.94-6.35-2.83-23.91-13.43-40.85-8.05-12.89-5.49-18.56-0.64-26.75 2.63-4.44 5.91-9.97 7.65-19.16 0.31-1.66 1.91-2.76 3.6-2.45 1.67 0.32 2.77 1.93 2.45 3.61-1.95 10.24-5.52 16.28-8.4 21.14-4.06 6.86-5.91 9.98 0.56 20.33 7.57 12.1 18.98 35.54 13.8 46.72-1.48 3.18-4.16 5.14-7.75 5.66q-0.23 0.03-0.44 0.03z"/>
		<path id="&lt;Path&gt;" class="s1" d="m328.35 580.24c-25.72-1.92-61.89-38.95-68.03-51.41-6.15-12.45 81.11 12.88 81.11 12.88z"/>
		<path id="&lt;Path&gt;" class="s1" d="m708.05 198.6c31.95-1.82 63.98-17.61 95.02 25.16 31.04 42.76-6.45 81.82 16.69 109.23 23.14 27.41 53.27-5.69 96.43 12.52 43.15 18.21 71.96 102.22-6.76 135.72-78.71 33.5-192.07-45.66-210.48-84.37-18.42-38.7-23.72-43.39-4.24-75.22 19.48-31.83 34.1-28.42 28.94-57.73-5.16-29.31-33.73-37.46-33.73-37.46z"/>
		<path id="&lt;Path&gt;" class="s1" d="m628.25 31.09c0 0 27.15-2.79 46.24 10.32 19.09 13.11 59.05 85.86 43.64 148.73-15.4 62.86-74.98 70.74-88.14 98.72l-154.09-102.14c0 0-15.34-67.14-4.88-101.29 10.45-34.16 88.56-91.46 157.23-54.34z"/>
		<path id="&lt;Path&gt;" class="s2" d="m927.93 627.07c0 0-3.68 1.93-9.71 4.91-15.16 7.5-45.18 21.78-69.01 29.25-33.36 10.46-75.12 21.77-87.13 27.03-4.85 2.11-10.14 3.95-14.7 5.37-6.75 2.13-11.95 3.36-11.95 3.36l-2.75 71.14-3.74 96.73 1.55 3.12c-65.7-1.44-131.42-8.16-197.12-15.26-67.94-7.34-135.85-15.1-203.79-17.85 2.27-4.41 4.38-7.87 6.27-10.14l2.19-151.7c0 0-24.45-32.77-21.64-56.71 2.8-23.94 14.27-53.16 14.27-53.16 0 0-28.6-2.16-49.82-16.91-21.21-14.76-39.12-25.51-39.12-25.51 0 0 71.2-115.39 99.24-135.19 19.75-13.95 109.3-30.13 160.7-38.48 21.45 46.27 109.7 46.99 148.63 5.29 65.67 22.54 153.49 50.14 196.11 93.26 46.32 46.83 81.52 181.45 81.52 181.45z"/>
		<path id="&lt;Compound Path&gt;" class="s1" d="m730.53 871.28q-0.02 0-0.04 0-0.03 0-0.05 0c-64.8-2.66-130.31-8.55-197.31-15.79l-16.06-2c-61.49-6.67-125.07-13.7-187.58-16.23-0.78-0.03-1.48-0.52-1.87-1.19-0.39-0.67-0.41-1.52-0.05-2.21 2.24-4.35 4.22-7.62 6.03-9.93l2.16-150.17c-3.49-4.83-24.3-34.71-21.61-57.7 2.33-19.93 10.43-43.05 13.36-50.95-7.99-0.98-30.28-4.71-47.95-17-20.9-14.54-38.81-25.33-38.99-25.43-0.52-0.31-0.89-0.82-1.04-1.41-0.14-0.59-0.04-1.21 0.28-1.72 2.91-4.73 71.76-116.01 99.86-135.85 20.14-14.23 109.91-30.46 161.63-38.86 1.01-0.16 2 0.36 2.42 1.28 9.83 21.19 36.17 34.36 68.75 34.36 30.36 0 58.83-11.09 76.18-29.67 0.61-0.65 1.54-0.88 2.39-0.6q7.37 2.53 15.07 5.15c63.31 21.56 142.1 48.39 181.91 88.67 46.22 46.72 80.65 176.95 82.1 182.47 0.27 1.02-0.21 2.09-1.14 2.58 0 0-3.7 1.93-9.76 4.93-15.74 7.79-45.67 21.96-69.33 29.38-12.49 3.92-25.95 7.89-38.97 11.74-20.85 6.16-40.54 11.97-47.93 15.21-5.47 2.37-11.14 4.27-14.94 5.45-4.54 1.43-8.35 2.46-10.43 2.99l-6.39 165.59 1.11 2.24c0.29 0.38 0.46 1.38 0.46 1.89 0 1.25-1.02 2.78-2.27 2.78zm-397.25-38.52c61.5 2.64 123.89 9.42 184.28 15.97l16.05 1.74c65.62 7.09 129.79 13.58 193.2 15.16q-0.15-0.41-0.13-0.86l6.48-167.87c0.04-1.02 0.76-1.88 1.75-2.12 0.05-0.01 5.2-1.23 11.79-3.31 3.7-1.15 9.2-3 14.48-5.28 7.65-3.35 26.56-8.94 48.46-15.41 13-3.84 26.44-7.81 38.89-11.71 23.37-7.33 53.06-21.39 68.68-29.12 3.65-1.8 6.43-3.22 8.06-4.05-4.33-15.94-37.95-135.7-80.47-178.69-39.06-39.52-117.29-66.16-180.15-87.56q-6.99-2.38-13.71-4.68c-18.26 18.83-47.46 30.04-78.47 30.04-33.58 0-61-13.53-72.1-35.43-51.58 8.41-138.9 24.26-158.09 37.82-25.38 17.92-87.95 117.41-97.42 132.59 5.24 3.21 20.28 12.57 37.29 24.4 20.47 14.24 48.41 16.49 48.69 16.52 0.72 0.05 1.37 0.44 1.75 1.05 0.38 0.61 0.45 1.36 0.19 2.03-0.11 0.29-11.4 29.23-14.13 52.59-2.67 22.76 20.96 54.77 21.2 55.09 0.3 0.4 0.46 0.89 0.45 1.39l-2.19 151.7c0 0.52-0.19 1.02-0.52 1.42q-1.92 2.29-4.31 6.58z"/>
		<path id="&lt;Path&gt;" class="s1" d="m499.3 345.05c22.18-3.92 38.44-8.16 38.44-8.16l97.97 5.72c5.44 2.09 11.76 5.84 17.58 8-39.94 46.31-132 45.76-153.99-5.56z"/>
		<path id="&lt;Compound Path&gt;" class="s1" d="m572.48 383.72c-33.86 0-61.33-13.89-71.71-36.24-0.13-0.28-0.12-0.6 0.03-0.87 0.14-0.27 0.4-0.46 0.7-0.51 21.4-3.48 36.42-5.65 36.57-5.67l95.77 5.18q0.14 0.01 0.28 0.06c5.3 1.88 10.83 3.8 16.51 5.75 0.31 0.11 0.55 0.37 0.63 0.69 0.08 0.32-0.01 0.66-0.23 0.9-17.95 19.23-47.32 30.71-78.55 30.71zm-69.38-35.9c10.46 20.97 36.88 33.95 69.38 33.95 30.11 0 58.41-10.82 76.08-29-5.13-1.76-10.15-3.51-14.97-5.22l-95.43-5.18c0.04 0.01-14.36 2.09-35.06 5.45z"/>
		<path id="&lt;Path&gt;" class="s3" d="m501.65 177.5c0 0-24.39-25.78-45.38-18.64-20.99 7.13-24.57 52.08-2.29 61.21 22.28 9.13 49.5-7.97 49.5-7.97z"/>
		<path id="&lt;Compound Path&gt;" class="s4" d="m468.42 225.02q0 0 0 0c-5.53 0-10.68-0.96-15.3-2.85-12.76-5.23-16.91-20.13-16.53-32.33 0.41-13.42 6.43-28.87 18.95-33.13 2.67-0.91 5.52-1.37 8.48-1.37 19.56 0 38.48 19.77 39.28 20.61 0.37 0.39 0.59 0.9 0.61 1.43l1.83 34.6c0.05 0.82-0.36 1.6-1.05 2.04-0.72 0.45-17.73 11-36.27 11zm-4.4-65.15c-2.46 0-4.82 0.38-7.02 1.13-8.93 3.03-15.46 14.95-15.89 28.98-0.33 10.68 3.11 23.64 13.73 28 4.07 1.66 8.64 2.51 13.58 2.51 14.62 0 28.72-7.36 32.73-9.64l-1.71-32.37c-3.23-3.21-19.58-18.61-35.42-18.61z"/>
		<path id="&lt;Path&gt;" class="s1" d="m528.52 317.43c1.87-18.31 3.25-38.44 3.25-38.44l89.67-26.85c-15.9 37-53.4 52.17-92.92 65.29z"/>
		<path id="&lt;Path&gt;" class="s1" d="m597.54 162.6c-0.88-0.04-1.74-0.38-2.41-1.04-0.35-0.33-7.75-7.19-21.57-5.29-1.99 0.26-3.86-1.13-4.13-3.13-0.28-2.01 1.13-3.86 3.13-4.14 17.59-2.42 27.29 6.92 27.7 7.32 1.44 1.42 1.46 3.75 0.04 5.19-0.76 0.77-1.77 1.13-2.76 1.09z"/>
		<path id="&lt;Path&gt;" class="s1" d="m516.42 151.65c-0.83 0.26-1.76 0.21-2.62-0.18-0.43-0.2-9.67-4.25-22.1 2.08-1.8 0.91-4.02 0.2-4.93-1.6-0.93-1.8-0.21-4.01 1.6-4.93 15.81-8.07 28.05-2.43 28.56-2.19 1.83 0.87 2.61 3.06 1.74 4.89-0.46 0.97-1.3 1.64-2.25 1.93z"/>
		<path id="&lt;Path&gt;" class="s1" d="m684.14 175.54l-6.7 18.18-14.78-1.02-15.32-1.04c0 0-3.55-2.99-9.63-9.26 9.31-7.18 25-16.49 39.01-11.55 2.77 0.98 5.26 2.59 7.42 4.69z"/>
		<path id="&lt;Path&gt;" class="s3" d="m678.37 234.41c-10.8 4.3-22.63 2.69-32.2-0.27-2.73 5.85-6.28 11.5-10.25 16.79-2.19 15.21-11.48 84.4-2.14 95.66 10.52 12.65-117.28 30.61-106.68-1.87 1.28-3.97 2.91-15.47 4.16-27.88 27.91-9.26 54.78-19.59 73.78-37.87q-1 0.57-1.97 1.02c-26.31 12.19-52.62 19.64-86.78 9.87-49.95-14.25-46.91-85.15-40.61-120.37 1.12-6.19 13.93-35.73 24.07-40 13.21-5.58 69.94-46.68 69.94-46.68 28.31 54.74 56.41 87.56 70.68 102.26 9.32-7.18 25.01-16.49 39.02-11.55 2.29 0.8 4.37 2.05 6.24 3.62 13.16 15.24 12.28 49.53-7.26 57.27z"/>
		<path id="&lt;Compound Path&gt;" class="s1" d="m566.31 365.35c-14.78 0-33.7-1.81-39.97-10.45-2.26-3.12-2.73-6.78-1.39-10.88 1.14-3.55 2.74-14.31 4.06-27.41 0.09-0.89 0.69-1.64 1.54-1.92 19.98-6.63 42.03-14.58 59.9-26.83-12.64 4.88-27.09 8.76-43.43 8.76-10.31 0-20.56-1.5-31.35-4.58-58.14-16.59-45.37-105.33-42.22-122.95 1.04-5.78 13.84-36.82 25.42-41.69 12.82-5.41 68.92-46.01 69.49-46.42 0.53-0.38 1.21-0.52 1.85-0.37 0.64 0.16 1.18 0.58 1.49 1.16 27.35 52.87 54.4 85.08 68.91 100.28 7.9-5.82 19.12-12.18 30.44-12.18 3.18 0 6.24 0.51 9.09 1.51 2.45 0.86 4.79 2.21 6.95 4.03q0.14 0.12 0.26 0.26c8.19 9.48 11.49 25.98 8.02 40.12-2.51 10.23-8.25 17.59-16.16 20.73-9.03 3.59-19.94 3.7-31.84 0.34-2.45 4.94-5.57 9.97-9.29 14.96-5.87 41.02-8.92 85.65-2.55 93.33 1.21 1.46 1.46 3.24 0.69 4.9-3.98 8.47-41.5 15.3-69.91 15.3zm-32.95-46.82c-1.07 10.36-2.68 22.45-4.11 26.89-0.87 2.69-0.63 4.92 0.75 6.82 3.96 5.45 17.19 8.58 36.31 8.58 33.67 0 64.8-8.55 65.83-12.75-9.89-11.83-1.32-77.59 1.54-97.46q0.08-0.58 0.43-1.04c4.13-5.5 7.5-11.01 10-16.38 0.48-1.03 1.64-1.55 2.72-1.21 11.62 3.59 22.17 3.72 30.71 0.33 6.51-2.58 11.28-8.83 13.43-17.6 3.07-12.53 0.16-27.61-6.93-35.95q-2.56-2.11-5.4-3.11-3.57-1.25-7.59-1.25c-10.84 0-21.91 6.78-29.29 12.46-0.91 0.71-2.21 0.61-3.01-0.21-14.1-14.53-41.77-46.75-69.86-100.46-10.6 7.63-56.28 40.32-68.26 45.38-9 3.79-21.69 32.59-22.73 38.32-3.02 16.94-15.38 102.28 39.01 117.79 10.38 2.97 20.23 4.41 30.11 4.41 21.63 0 39.99-7.15 55.1-14.16q0.9-0.41 1.82-0.93c1-0.56 2.25-0.29 2.92 0.63 0.68 0.91 0.57 2.19-0.25 2.98-19.57 18.83-47.93 29.48-73.25 37.92z"/>
		<path id="&lt;Path&gt;" class="s1" d="m735.42 698.52c-0.75 0-1.4-0.54-1.52-1.3l-15.41-99.47c-0.13-0.84 0.44-1.62 1.28-1.76 0.84-0.13 1.63 0.45 1.76 1.29l15.41 99.47c0.13 0.84-0.44 1.62-1.29 1.76q-0.11 0.01-0.23 0.01z"/>
		<path id="&lt;Path&gt;" class="s1" d="m725.99 639.02h-0.01c-7.64-0.04-17.15-29.45-19.88-38.47-0.25-0.81 0.21-1.67 1.02-1.92 0.83-0.24 1.68 0.22 1.92 1.03 5.29 17.43 13.28 36.26 16.96 36.28 0.85 0 1.54 0.7 1.53 1.54 0 0.85-0.69 1.54-1.54 1.54z"/>
		<path id="&lt;Path&gt;" class="s1" d="m731.99 518.38q-0.46 0-0.86-0.27c-0.71-0.48-0.89-1.43-0.41-2.14 29.44-43.18 83.02-66.4 83.56-66.63 0.79-0.34 1.69 0.02 2.02 0.8 0.33 0.79-0.03 1.69-0.81 2.03-0.53 0.22-53.3 23.11-82.23 65.53-0.29 0.44-0.78 0.68-1.27 0.68z"/>
		<path id="&lt;Path&gt;" class="s1" d="m330.67 564.71q-0.25 0-0.5-0.08c-0.81-0.28-1.24-1.15-0.96-1.96 7.08-20.64 9.91-43.55 9.94-43.77 0.1-0.85 0.91-1.41 1.71-1.35 0.84 0.11 1.44 0.87 1.34 1.72-0.03 0.23-2.89 23.45-10.08 44.4-0.22 0.64-0.81 1.04-1.45 1.04z"/>
		<path id="&lt;Path&gt;" class="s1" d="m350.03 435.49h-0.01c-0.85-0.01-1.54-0.7-1.53-1.55 0.03-5.55-9.99-29.01-13.85-37.59-0.35-0.78-0.01-1.68 0.77-2.03 0.77-0.36 1.68-0.01 2.03 0.77 1.45 3.21 14.16 31.64 14.12 38.87 0 0.84-0.69 1.53-1.53 1.53z"/>
		<path id="&lt;Path&gt;" class="s1" d="m607.45 681.53c-19.71 0-44.14-4.92-71.79-20.71-0.73-0.42-0.99-1.36-0.57-2.1 0.42-0.74 1.37-0.99 2.1-0.57 71.3 40.71 120.28 7.74 120.77 7.41 0.69-0.48 1.65-0.32 2.14 0.39 0.49 0.7 0.31 1.66-0.39 2.14-0.31 0.22-19.94 13.44-52.26 13.44z"/>
		<path id="&lt;Path&gt;" class="s1" d="m939.79 459.06c-0.79 0-1.57-0.31-2.18-0.9-1.2-1.2-1.2-3.15 0-4.36 31.52-31.65 25.47-65.22 19.06-82.41-9.38-25.15-30.63-45.16-49.42-46.55-11.4-0.85-22.16-0.33-31.65 0.1-16.01 0.74-28.64 1.32-35.57-5.08-3.3-3.07-5-7.38-5.17-13.18-0.67-22.34-6.97-62.84-21.56-82.82-14.46-19.78-36.28-35.83-97.56-19.42-1.64 0.43-3.32-0.54-3.77-2.17-0.44-1.65 0.54-3.33 2.18-3.78 64.84-17.37 88.37 0.18 104.12 21.74 16.62 22.76 22.14 66.38 22.74 86.27 0.12 4.06 1.17 6.95 3.21 8.83 5.03 4.67 16.53 4.14 31.09 3.46 9.66-0.45 20.62-0.96 32.39-0.09 21.04 1.55 44.58 23.28 54.74 50.54 11.78 31.6 4.32 64.01-20.47 88.91-0.6 0.6-1.39 0.91-2.18 0.91z"/>
		<path id="&lt;Path&gt;" class="s1" d="m578.76 186.24c-2.72 0-4.91-4.8-4.91-10.75 0-5.95 2.19-10.76 4.91-10.76 2.71 0 4.9 4.81 4.9 10.76 0 5.95-2.19 10.75-4.9 10.75z"/>
		<path id="&lt;Path&gt;" class="s1" d="m503.65 183.98c-2.71 0-4.9-4.81-4.9-10.76 0-5.94 2.19-10.75 4.9-10.75 2.72 0 4.91 4.81 4.91 10.75 0 5.95-2.19 10.76-4.91 10.76z"/>
		<path id="&lt;Path&gt;" class="s1" d="m537.08 243.14c-8.62 0-15.2-1.92-15.76-2.09-1.19-0.36-1.87-1.62-1.51-2.82 0.36-1.2 1.62-1.88 2.82-1.52 0.25 0.08 25.89 7.51 41.29-8.19 0.87-0.89 2.31-0.91 3.2-0.03 0.89 0.87 0.91 2.31 0.03 3.2-9.01 9.19-20.73 11.45-30.07 11.45z"/>
		<path id="&lt;Path&gt;" class="s1" d="m567.49 233.99c-0.89 0-1.74-0.52-2.1-1.4-0.7-1.7-2.28-2.26-2.35-2.28-1.17-0.41-1.81-1.68-1.43-2.86 0.39-1.17 1.63-1.82 2.81-1.46 0.37 0.12 3.66 1.24 5.16 4.88 0.47 1.15-0.08 2.48-1.23 2.95q-0.43 0.18-0.86 0.17z"/>
		<path id="&lt;Path&gt;" class="s3" d="m644.6 84.92c-1.79 1.51-2.68 3.8-3.5 5.99q-3.35 8.94-6.7 17.88c-0.6 1.6-1.23 3.25-2.4 4.5-1.17 1.24-2.77 1.96-4.33 2.66-3.73 1.66-7.84 3.36-11.78 2.28-4.11-1.13-6.82-4.94-9.15-8.52-2.76-4.21-5.52-8.55-6.77-13.43-1.25-4.87-0.77-10.47 2.45-14.34 3.86-4.65 10.57-5.73 16.62-5.49 6.04 0.25 12.18 1.47 18.08 0.15 1.96-0.44 3.96-1.22 5.22-2.8 1.49-1.87 1.64-4.43 2.21-6.75 1.69-6.82 7.86-12.29 14.83-13.15 6.97-0.86 14.29 2.96 17.58 9.17 1.45 2.74 2.14 5.8 2.82 8.83 0.27 1.22 0.55 2.47 0.37 3.7-0.48 3.31-4.06 5.33-7.39 5.6-3.33 0.27-6.64-0.68-9.98-0.83-4.37-0.19-8.67 1.01-12.88 2.2-1.88 0.53-3.82 1.09-5.3 2.35z"/>
		<path id="&lt;Path&gt;" class="s1" d="m535.63 206.33q-0.61 0.01-1.16-0.32c-1.84-1.11-7.94-4.96-9.25-8.07-0.91-2.18 0.51-5.38 3.53-11.83 2-4.25 4.26-9.07 4.64-12.02 0.16-1.24 1.29-2.11 2.53-1.95 1.25 0.16 2.12 1.29 1.96 2.53-0.47 3.65-2.79 8.59-5.03 13.36-1.39 2.98-3.29 7.02-3.37 8.31 0.72 1.26 4.34 4 7.32 5.79 1.07 0.65 1.42 2.04 0.77 3.11-0.42 0.7-1.17 1.09-1.94 1.09z"/>
		<path id="&lt;Path&gt;" class="s1" d="m567.55 152.81c-0.48 1.03-0.64 2.36 0.1 3.24 0.39 0.47 0.98 0.73 1.57 0.9 1.61 0.48 3.32 0.43 5 0.38q8.36-0.27 16.71-0.54c0.38-0.01 0.77-0.03 1.09-0.23 0.55-0.33 0.69-1.05 0.78-1.69 0.16-1.1 0.27-2.38-0.5-3.18-0.28-0.29-0.63-0.48-0.99-0.66-4.18-2.1-8.86-3.19-13.54-3.15-4 0.03-8.53 1.3-10.22 4.93z"/>
		<path id="&lt;Path&gt;" class="s1" d="m515.12 152.81c0.48 1.03 0.64 2.36-0.09 3.24-0.39 0.47-0.98 0.73-1.57 0.9-1.61 0.48-3.32 0.43-5 0.38q-8.36-0.27-16.72-0.54c-0.37-0.01-0.76-0.03-1.09-0.23-0.54-0.33-0.69-1.05-0.78-1.69-0.16-1.1-0.26-2.38 0.51-3.18 0.27-0.29 0.63-0.48 0.98-0.66 4.18-2.1 8.87-3.19 13.55-3.15 3.99 0.03 8.53 1.3 10.21 4.93z"/>
		<path id="&lt;Path&gt;" class="s1" d="m646.85 213.46q-0.34 0-0.67-0.1c-1.2-0.37-1.87-1.64-1.5-2.83 3.08-9.97 8.28-16.57 15.44-19.6 11.16-4.73 22.81 1.07 23.3 1.31 1.12 0.57 1.56 1.93 1 3.04-0.56 1.12-1.92 1.57-3.04 1-0.11-0.05-10.32-5.09-19.53-1.17-5.86 2.5-10.18 8.13-12.84 16.75-0.3 0.98-1.2 1.6-2.16 1.6z"/>
		<path id="&lt;Path&gt;" class="s1" d="m667.19 208.67c-0.53 0-1.06-0.18-1.48-0.56l-9.96-8.67c-0.94-0.82-1.04-2.25-0.22-3.2 0.82-0.94 2.25-1.04 3.2-0.21l9.95 8.67c0.94 0.82 1.04 2.25 0.22 3.19-0.45 0.52-1.08 0.78-1.71 0.78z"/>
		<path id="&lt;Path&gt;" class="s1" d="m472.23 192.44c-0.91 0-1.76-0.54-2.11-1.44-1.81-4.65-4.43-7.61-7.77-8.81-5.51-1.97-11.46 1.34-11.52 1.37-1.08 0.61-2.47 0.23-3.08-0.85-0.62-1.09-0.24-2.47 0.84-3.09 0.31-0.18 7.76-4.36 15.24-1.71 4.66 1.65 8.2 5.5 10.51 11.45 0.45 1.16-0.12 2.48-1.29 2.93q-0.41 0.16-0.82 0.15z"/>
		<path id="&lt;Path&gt;" class="s5" d="m305.88 330.15c-56.8 36.66-122.45 57.29-190.01 59.7l-52.94 1.89v314.95c0 72.39 42.3 141.13 115.7 188.01l127.25 81.29 127.25-81.29c73.4-46.88 115.7-115.62 115.7-188.01v-314.95l-52.94-1.89c-67.56-2.41-133.21-23.04-190.01-59.7z"/>
		<path id="&lt;Compound Path&gt;" class="s1" d="m305.88 978.26q-0.65 0-1.22-0.36l-127.25-81.29c-74.19-47.39-116.75-116.61-116.75-189.92v-314.95c0-1.22 0.97-2.22 2.19-2.26l52.94-1.89c67.12-2.4 132.43-22.92 188.86-59.34 0.75-0.49 1.71-0.49 2.46 0 56.43 36.42 121.74 56.94 188.86 59.34l52.94 1.89c1.22 0.04 2.18 1.04 2.18 2.26v314.95c0 73.31-42.55 142.53-116.74 189.92l-127.25 81.29q-0.57 0.36-1.22 0.36zm-240.69-584.33v312.76c0 71.73 41.79 139.56 114.66 186.11l126.03 80.5 126.03-80.5c72.87-46.55 114.66-114.38 114.66-186.11v-312.76l-50.76-1.82c-67.46-2.41-133.09-22.9-189.93-59.27-56.84 36.37-122.48 56.86-189.93 59.27z"/>
		<path id="&lt;Path&gt;" class="s6" d="m305.88 416.93c-42.44 27.39-91.5 42.81-141.99 44.61l-39.56 1.41v235.35c0 54.09 31.61 105.46 86.46 140.5l95.09 60.74 95.09-60.74c54.85-35.04 86.46-86.41 86.46-140.5v-235.35l-39.56-1.41c-50.49-1.8-99.55-17.22-141.99-44.61z"/>
		<path id="&lt;Compound Path&gt;" class="s1" d="m305.88 901.8q-0.65 0-1.22-0.35l-95.09-60.74c-55.61-35.52-87.5-87.43-87.5-142.41v-235.35c0-1.21 0.96-2.22 2.18-2.26l39.56-1.41c50.05-1.79 98.76-17.09 140.84-44.26 0.75-0.48 1.71-0.48 2.46 0 42.08 27.17 90.78 42.47 140.84 44.26l39.56 1.41c1.21 0.04 2.18 1.05 2.18 2.26v235.35c0 54.98-31.89 106.89-87.5 142.41l-95.09 60.74q-0.57 0.35-1.22 0.35zm-179.28-436.66v233.16c0 53.41 31.13 103.92 85.41 138.59l93.87 59.96 93.87-59.96c54.28-34.67 85.41-85.18 85.41-138.59v-233.16l-37.38-1.34c-50.38-1.8-99.41-17.07-141.9-44.18-42.49 27.11-91.53 42.38-141.91 44.18z"/>
		<path id="&lt;Path&gt;" class="s3" d="m45.73 523.91l73.96 1.53c13.21 0.28 23.66 11.19 23.38 24.38-0.22 10.94-7.82 19.92-17.93 22.53 10.47 2.72 18.1 12.27 17.87 23.55-0.18 8.63-4.96 16.03-11.91 20.08 7.51 4.16 12.57 12.14 12.38 21.32-0.23 11.09-8.03 20.18-18.34 22.65 6.84 3.69 11.47 10.91 11.3 19.22-0.24 11.82-10.03 21.2-21.85 20.96l-66.31-1.37c-3.07-0.06-5.98-0.77-8.59-1.99-7.45-3.47-12.55-11.11-12.37-19.86 0.17-8.26 5.05-15.25 11.99-18.68-1.29-0.36-2.56-0.74-3.75-1.3-8.31-3.87-14-12.39-13.8-22.15 0.18-8.66 4.99-16.08 11.98-20.12-7.52-4.15-12.64-12.09-12.45-21.28 0.22-10.94 7.82-19.91 17.92-22.52-1.4-0.37-2.77-0.81-4.05-1.41-8.32-3.87-14-12.39-13.8-22.15 0.27-13.19 11.18-23.65 24.37-23.39z"/>
		<path id="&lt;Compound Path&gt;" class="s4" d="m115.03 702.4h-0.49l-66.3-1.37c-3.32-0.07-6.52-0.81-9.51-2.21-8.5-3.96-13.87-12.58-13.68-21.96 0.15-7.17 3.55-13.75 9.13-18.08-9.15-4.46-14.89-13.85-14.68-24.05 0.16-7.96 3.89-15.22 10.12-20.03-6.78-5.02-10.77-12.93-10.59-21.36 0.19-9.54 5.68-18.09 13.91-22.46-8.66-4.62-14.05-13.74-13.85-23.63 0.29-14.12 12.02-25.61 26.15-25.61l0.54 0.01 73.95 1.53c14.42 0.3 25.91 12.28 25.61 26.68-0.2 9.56-5.71 18.13-13.97 22.49 8.61 4.53 14.11 13.54 13.9 23.6-0.16 7.93-3.86 15.18-10.07 19.99 6.75 5.02 10.72 12.93 10.54 21.4-0.21 10.23-6.41 19.24-15.56 23.28 5.49 4.56 8.67 11.34 8.52 18.59-0.26 12.79-10.88 23.19-23.67 23.19zm-69.79-176.23c-11.68 0-21.38 9.5-21.62 21.17-0.17 8.57 4.73 16.44 12.49 20.06 1.02 0.48 2.18 0.88 3.67 1.26 1 0.26 1.69 1.17 1.69 2.2 0 1.03-0.7 1.93-1.7 2.19-9.35 2.42-16.02 10.8-16.22 20.38-0.16 7.94 4.16 15.31 11.29 19.24 0.71 0.4 1.16 1.15 1.17 1.96 0.01 0.82-0.43 1.58-1.13 1.98-6.64 3.85-10.7 10.65-10.85 18.21-0.18 8.57 4.72 16.44 12.49 20.06 1.06 0.49 2.26 0.85 3.39 1.17 0.9 0.25 1.56 1.03 1.65 1.97 0.09 0.93-0.41 1.82-1.25 2.24-6.47 3.19-10.58 9.59-10.73 16.7-0.15 7.58 4.19 14.55 11.07 17.76 2.41 1.12 5 1.72 7.68 1.78l66.7 1.37c10.34 0 18.93-8.41 19.14-18.75 0.15-7.15-3.72-13.74-10.11-17.18-0.83-0.45-1.29-1.36-1.17-2.29 0.12-0.93 0.81-1.69 1.72-1.91 9.57-2.29 16.4-10.72 16.61-20.49 0.16-7.98-4.14-15.37-11.22-19.28-0.71-0.4-1.16-1.15-1.17-1.96-0.01-0.81 0.42-1.57 1.13-1.98 6.6-3.85 10.63-10.64 10.78-18.17 0.21-10.02-6.44-18.79-16.17-21.32-1-0.26-1.69-1.16-1.69-2.19 0-1.03 0.7-1.94 1.7-2.19 9.36-2.42 16.03-10.81 16.23-20.39 0.25-11.91-9.25-21.81-21.17-22.06z"/>
		<path id="&lt;Path&gt;" class="s4" d="m125.4 573.23c0.38-0.11 0.65-0.45 0.66-0.86 0.01-0.51-0.39-0.93-0.9-0.94l-85.94-1.49c-0.5-0.01-0.92 0.4-0.94 0.9 0 0.51 0.4 0.93 0.91 0.94l85.93 1.49q0.15 0 0.28-0.04z"/>
		<path id="&lt;Compound Path&gt;" class="s4" d="m125.15 574.4h-0.05l-85.93-1.49c-1.12-0.02-2.03-0.95-2.02-2.08 0.03-1.13 0.95-2.02 2.05-2.02l85.98 1.49c1.12 0.02 2.03 0.95 2.02 2.08-0.03 0.92-0.62 1.69-1.49 1.94q-0.25 0.08-0.56 0.08zm0-2.26v1.13-1.13q0 0 0 0z"/>
		<path id="&lt;Path&gt;" class="s4" d="m131.36 616.87c0.36-0.1 0.64-0.43 0.66-0.83 0.03-0.51-0.36-0.94-0.87-0.97l-52.64-3.01c-0.51-0.04-0.94 0.36-0.97 0.87-0.03 0.51 0.36 0.94 0.87 0.97l52.64 3.01q0.16 0.01 0.31-0.04z"/>
		<path id="&lt;Path&gt;" class="s4" d="m131.1 618.04h-0.12l-52.63-3.01c-0.56-0.03-1.06-0.27-1.42-0.68-0.37-0.41-0.55-0.94-0.52-1.49 0.07-1.09 0.96-1.93 2.03-1.93l52.77 3c1.14 0.07 2.01 1.05 1.94 2.18-0.05 0.86-0.64 1.6-1.47 1.85q-0.29 0.08-0.58 0.08z"/>
		<path id="&lt;Path&gt;" class="s4" d="m104.25 660.93c0.36-0.11 0.63-0.43 0.66-0.82 0.04-0.51-0.35-0.95-0.85-0.98l-59.64-4.07c-0.52-0.05-0.95 0.35-0.98 0.86-0.04 0.5 0.35 0.95 0.85 0.98l59.64 4.06q0.17 0.02 0.32-0.03z"/>
		<path id="&lt;Path&gt;" class="s4" d="m104.01 662.1l-0.21-0.02-59.58-4.05c-0.54-0.04-1.05-0.28-1.41-0.7-0.36-0.41-0.54-0.94-0.5-1.5 0.06-1.06 0.95-1.91 2.02-1.91l59.8 4.08c0.55 0.03 1.05 0.28 1.41 0.69 0.36 0.42 0.54 0.95 0.5 1.49-0.06 0.86-0.65 1.6-1.47 1.84q-0.29 0.08-0.56 0.08z"/>
		<path id="&lt;Path&gt;" class="s4" d="m125.4 660.83c0.34-0.1 0.61-0.39 0.65-0.77 0.06-0.51-0.3-0.97-0.8-1.03l-8.35-0.97c-0.52-0.05-0.97 0.3-1.02 0.81-0.06 0.5 0.3 0.96 0.81 1.02l8.34 0.97q0.19 0.02 0.37-0.03z"/>
		<path id="&lt;Path&gt;" class="s4" d="m125.14 662l-0.25-0.01-8.34-0.97c-1.12-0.14-1.93-1.17-1.8-2.28 0.12-1.04 1-1.82 2.05-1.82l0.23 0.01 8.35 0.98c1.12 0.14 1.93 1.16 1.8 2.28-0.09 0.81-0.67 1.49-1.47 1.73q-0.28 0.08-0.57 0.08z"/>
		<path id="&lt;Path&gt;" class="s4" d="m111.46 559.93q0.12 0.03 0.24 0.03l16.5-0.49c0.24-0.01 0.47-0.13 0.62-0.33 0.23-0.3 5.64-7.6 3.44-17.33-0.11-0.43-0.55-0.7-0.97-0.61-0.44 0.1-0.71 0.54-0.61 0.97 1.78 7.9-1.98 14.23-2.94 15.68l-15.73 0.47c-7.92-8.55-4.27-20.07-3.37-22.51l13.68-0.61c0.44-0.01 0.79-0.39 0.77-0.84-0.02-0.45-0.41-0.8-0.84-0.78l-14.21 0.64c-0.31 0.01-0.58 0.2-0.71 0.48-0.06 0.15-6.2 14.66 3.76 25.01q0.16 0.16 0.37 0.22z"/>
		<path id="&lt;Path&gt;" class="s4" d="m111.67 561.09l-0.49-0.06q-0.51-0.14-0.89-0.52c-10.33-10.73-4.27-25.61-4-26.24 0.31-0.71 0.98-1.16 1.72-1.19l14.18-0.63q0.01 0 0.01 0c1.11 0 1.98 0.84 2.02 1.86 0.03 0.52-0.15 1.01-0.51 1.4-0.35 0.38-0.83 0.61-1.36 0.62l-12.89 0.58c-1.04 3.19-3.42 12.88 3.04 20.26l14.6-0.43c1.14-1.9 4-7.54 2.47-14.32-0.23-1.05 0.43-2.09 1.47-2.32l0.42-0.05c0.9 0 1.68 0.62 1.9 1.49 2.35 10.39-3.59 18.22-3.65 18.3-0.34 0.46-0.9 0.75-1.49 0.76z"/>
		<path id="&lt;Path&gt;" class="s4" d="m108.88 606.12q0.12 0.03 0.24 0.02l16.5-0.49c0.24 0 0.47-0.12 0.62-0.32 0.23-0.3 5.64-7.61 3.44-17.33-0.11-0.43-0.55-0.7-0.97-0.61-0.44 0.1-0.71 0.53-0.62 0.97 1.79 7.89-1.97 14.23-2.93 15.68l-15.73 0.47c-7.92-8.55-4.27-20.07-3.37-22.51l13.67-0.61c0.45-0.02 0.8-0.4 0.78-0.85-0.02-0.44-0.41-0.79-0.85-0.77l-14.2 0.63c-0.31 0.01-0.58 0.2-0.71 0.49-0.06 0.14-6.2 14.65 3.76 25.01q0.16 0.16 0.37 0.22z"/>
		<path id="&lt;Path&gt;" class="s4" d="m109.13 607.27h-0.01c-0.13 0-0.33 0-0.55-0.07-0.31-0.08-0.62-0.25-0.87-0.51-10.29-10.7-4.26-25.6-4-26.23 0.32-0.71 0.99-1.16 1.72-1.19l14.19-0.63q0.01 0 0.01 0c1.12 0 1.98 0.84 2.02 1.86 0.03 0.51-0.15 1.01-0.51 1.39-0.35 0.38-0.83 0.61-1.35 0.63l-12.9 0.58c-1.04 3.19-3.42 12.88 3.04 20.26l14.6-0.43c1.14-1.9 4-7.54 2.47-14.32-0.23-1.05 0.43-2.09 1.47-2.32l0.42-0.05c0.9 0 1.68 0.61 1.9 1.49 2.34 10.35-3.4 17.97-3.64 18.29-0.35 0.46-0.91 0.75-1.51 0.76z"/>
		<path id="&lt;Path&gt;" class="s4" d="m109.08 647.97q0.11 0.03 0.23 0.03l16.5-0.49c0.25-0.01 0.48-0.13 0.62-0.33 0.24-0.3 5.64-7.61 3.45-17.33-0.11-0.43-0.55-0.7-0.97-0.61-0.45 0.1-0.72 0.54-0.62 0.97 1.78 7.9-1.98 14.23-2.94 15.68l-15.72 0.47c-7.93-8.55-4.28-20.07-3.38-22.51l13.68-0.61c0.45-0.01 0.8-0.39 0.77-0.84-0.01-0.45-0.41-0.8-0.84-0.78l-14.2 0.64c-0.31 0.01-0.59 0.2-0.71 0.48-0.06 0.15-6.21 14.66 3.75 25.01q0.16 0.16 0.38 0.22z"/>
		<path id="&lt;Path&gt;" class="s4" d="m109.33 649.13h-0.02c-0.13 0-0.32-0.01-0.54-0.07-0.31-0.08-0.62-0.26-0.87-0.51-10.33-10.74-4.26-25.62-4-26.25 0.31-0.69 0.98-1.15 1.72-1.18l14.19-0.63q0 0 0 0c1.12 0 1.99 0.84 2.03 1.86 0.02 0.51-0.16 1.01-0.51 1.39-0.35 0.39-0.83 0.61-1.36 0.63l-12.9 0.58c-1.04 3.19-3.41 12.88 3.05 20.26l14.6-0.43c1.14-1.9 3.99-7.54 2.47-14.32-0.24-1.04 0.42-2.08 1.46-2.32l0.42-0.05c0.9 0 1.69 0.61 1.9 1.49 2.35 10.38-3.58 18.22-3.64 18.3-0.35 0.46-0.9 0.75-1.5 0.76z"/>
		<path id="&lt;Path&gt;" class="s4" d="m103.06 692.39q0.11 0.03 0.23 0.03l16.5-0.49c0.25-0.01 0.48-0.13 0.62-0.32 0.24-0.31 5.64-7.61 3.45-17.33-0.11-0.44-0.55-0.7-0.97-0.61-0.45 0.1-0.72 0.53-0.62 0.97 1.78 7.89-1.98 14.23-2.94 15.67l-15.72 0.47c-7.93-8.55-4.28-20.07-3.38-22.51l13.68-0.61c0.45-0.01 0.8-0.39 0.77-0.84-0.01-0.45-0.41-0.8-0.84-0.78l-14.2 0.64c-0.31 0.01-0.59 0.2-0.71 0.48-0.07 0.15-6.21 14.66 3.75 25.01q0.16 0.16 0.38 0.22z"/>
		<path id="&lt;Path&gt;" class="s4" d="m103.26 693.55l-0.51-0.07q-0.49-0.13-0.88-0.52c-10.32-10.73-4.25-25.6-3.99-26.23 0.31-0.7 0.98-1.16 1.72-1.18l14.19-0.64q0 0 0 0c1.12 0 1.99 0.84 2.02 1.87 0.03 0.5-0.15 1-0.5 1.39-0.35 0.38-0.83 0.6-1.36 0.63l-12.9 0.57c-1.04 3.19-3.42 12.88 3.05 20.26l14.6-0.43c1.14-1.9 4-7.53 2.47-14.32-0.24-1.04 0.42-2.08 1.47-2.32l0.41-0.04c0.9 0 1.69 0.61 1.9 1.48 2.35 10.38-3.58 18.22-3.64 18.3-0.35 0.47-0.9 0.75-1.5 0.76z"/>
		<path id="&lt;Path&gt;" class="s1" d="m203.73 551.39l99.91-57.69 99.99 57.69v115.37l-99.99 57.77-99.91-57.77z"/>
		<path id="&lt;Path&gt;" class="s3" d="m295.55 667.7c-5.72 0-11.22-2.51-14.99-6.9l-41.83-49.37c-6.98-8.24-5.96-20.64 2.28-27.71 8.32-6.98 20.64-5.96 27.7 2.28l26.3 31.08 45.6-57.69c6.75-8.55 19.07-9.97 27.54-3.22 8.48 6.75 9.97 19.08 3.22 27.55l-60.51 76.53c-3.61 4.63-9.18 7.37-15.07 7.45 0 0-0.16 0-0.24 0z"/>
		<path id="&lt;Compound Path&gt;" class="s7" d="m295.8 669.97h-0.24c-6.43 0-12.52-2.81-16.72-7.7l-41.84-49.38c-7.77-9.17-6.64-23.03 2.53-30.89 3.99-3.34 9.02-5.18 14.17-5.18 6.44 0 12.53 2.81 16.73 7.71l24.52 28.97 43.88-55.51c4.18-5.3 10.44-8.34 17.17-8.34 4.97 0 9.66 1.64 13.57 4.75 9.46 7.54 11.07 21.33 3.57 30.73l-60.5 76.52c-3.99 5.12-10.28 8.23-16.82 8.32zm-42.1-88.62c-4.09 0-8.09 1.46-11.24 4.1-7.27 6.23-8.17 17.23-2.01 24.51l41.84 49.37c3.32 3.88 8.16 6.11 13.26 6.11h0.22c5.17-0.07 10.14-2.54 13.3-6.59l60.52-76.53c5.94-7.46 4.66-18.39-2.85-24.38-3.1-2.46-6.81-3.76-10.75-3.76-5.33 0-10.29 2.41-13.61 6.61l-47.32 59.86-28.08-33.19c-3.33-3.88-8.17-6.11-13.28-6.11z"/>
		<path id="&lt;Path&gt;" class="s3" d="m915.69 631.98c-15.16 7.5-45.18 21.78-69.01 29.25-33.35 10.46-75.12 21.77-87.12 27.03-4.86 2.11-10.14 3.95-14.71 5.37l26.07 92.14-40.77-17.64-89.29-38.61c-6.57-6-28.2-24.68-55.39-37.08-37.4-21.55-75.27-45.63-81.8-53.82-6.78-8.49-19.16-9.9-27.66-3.12-8.5 6.78-9.89 19.16-3.12 27.67 6.73 8.44 23.76 20.76 42.88 33.13q-0.49 0.18-1.03 0.36c-7.95 2.55-16.48 3.55-27.57 4.23l-107.34 0.83c-11.35 0.08-20.51 9.35-20.39 20.7 0.07 8.94 5.85 16.48 13.85 19.24l-13.97 0.31c-11.35 0.26-20.32 9.8-20.08 21 0.26 11.35 9.66 20.34 21 20.08l6.51-0.15c-6.44 3.52-10.78 10.36-10.7 18.19 0.09 11.35 9.36 20.47 20.7 20.39l35.14-0.28c-6.14 3.64-10.21 10.37-10.07 18.12 0.24 11.35 9.63 20.34 20.97 20.11l62.21-1.3q0.11 0.02 0.22 0.03c14.33 1.07 32.59 0.03 50.95-1.89 82.75 39.6 296.07 182.11 389.23 96.2 52.54-48.46 32.48-197.82-9.71-320.49z"/>
		<path id="&lt;Compound Path&gt;" class="s4" d="m847.26 980.66q0 0 0 0c-82.76 0-190.57-57.9-261.92-96.58-19.36-10.51-36.13-19.31-49.58-25.78-20.81 2.16-37.95 2.92-50.71 1.98-0.05 0-0.13 0.06-0.22 0.05l-62.47 1.33c-12.31 0-22.54-10-22.8-22.31-0.11-5.93 2.08-11.58 5.95-15.84l-28.74 0.23c-12.66 0-22.89-9.85-22.98-22.33-0.07-5.96 2.2-12.82 6.17-15.49h-0.19c-12.29 0-22.51-10.3-22.79-22.6-0.27-12.57 9.73-23.18 22.29-23.46l5.91-0.21c-4.93-4.21-7.95-10.46-8-17.18-0.07-6.07 2.25-11.82 6.51-16.16 4.28-4.36 10.01-6.8 16.12-6.85l107.34-0.83c8.86-0.55 16.42-1.32 23.31-3.09-20.43-13.42-33.66-23.83-39.34-30.96-7.54-9.46-5.98-23.3 3.48-30.85 3.93-3.13 8.65-4.79 13.66-4.79 6.73 0 12.99 3.02 17.18 8.27 5.66 7.1 39.03 29 81.16 53.27 27.06 12.33 48.99 31.2 55.5 37.11l125.35 54.21-24.78-87.56c-0.33-1.18 0.34-2.41 1.51-2.78 3.69-1.14 9.2-2.99 14.48-5.27 7.64-3.35 26.55-8.94 48.45-15.4 13-3.84 26.44-7.82 38.89-11.72 23.38-7.33 53.07-21.39 68.68-29.12 0.59-0.28 1.27-0.31 1.87-0.06 0.6 0.25 1.07 0.74 1.28 1.36 43.05 125.19 62.57 273 9.11 322.31-19.92 18.36-46.72 27.1-79.68 27.1zm-311.09-126.66q0.51 0.01 0.97 0.23c13.65 6.53 30.67 15.75 50.36 26.43 70.95 38.48 178.15 96.61 259.76 96.62 31.78 0 57.56-8.91 76.61-26.48 51.32-47.34 31.15-196.26-9.49-315.65-16.23 7.97-44.47 21.17-67.02 28.24-12.49 3.92-25.95 7.89-38.97 11.74-20.85 6.16-40.54 11.97-47.93 15.21-4.53 1.96-9.2 3.61-12.83 4.78l25.47 90.03c0.24 0.84-0.03 1.74-0.68 2.32-0.66 0.58-1.59 0.72-2.4 0.38l-130.06-56.26q-0.35-0.15-0.63-0.4c-6.01-5.49-27.74-24.35-54.8-36.69-36.18-20.83-75.63-45.68-82.63-54.47-3.32-4.16-8.3-6.56-13.64-6.56-3.97 0-7.72 1.32-10.84 3.8-7.5 5.99-8.74 16.98-2.76 24.49 5.75 7.21 19.99 18.19 42.34 32.63 0.73 0.47 1.12 1.31 1.02 2.16-0.09 0.85-0.66 1.58-1.47 1.87q-0.54 0.2-1.12 0.39c-8.3 2.67-17.24 3.67-28.12 4.34l-107.47 0.83c-4.9 0.04-9.49 1.98-12.92 5.48-3.41 3.48-5.26 8.07-5.21 12.93 0.06 7.73 5.01 14.61 12.32 17.13 1.03 0.36 1.66 1.41 1.49 2.49-0.17 1.08-1.09 1.89-2.18 1.91l-13.97 0.32c-10.07 0.23-18.08 8.61-17.86 18.69 0.22 9.85 8.41 17.86 18.26 17.86l6.93-0.15c1.02 0.05 1.96 0.67 2.24 1.68 0.26 1.01-0.19 2.07-1.11 2.57-5.94 3.25-9.59 9.45-9.51 16.18 0.07 10.01 8.27 17.64 18.27 17.64l35.28-0.78q0.01 0 0.02 0c1.02 0 1.91 1.18 2.18 2.16 0.28 0.99-0.15 2.29-1.03 2.81-5.64 3.34-9.07 9.64-8.95 16.25 0.2 9.87 8.4 17.96 18.27 17.96l0.39 0.02 62.21-1.28q0.16-0.01 0.32 0.02c0.07 0.01 0.23 0.04 0.29 0.06 3.57 0.25 7.76 0.39 12.28 0.39 10.65 0 23.46-0.77 38.08-2.3q0.12-0.02 0.24-0.02z"/>
		<path id="&lt;Path&gt;" class="s4" d="m461.34 742.9c-0.02 0.56-0.45 1.03-1.03 1.09-15.98 1.58-65.56 0.62-86.4-0.86-0.61-0.04-1.08-0.57-1.06-1.19l0.01-0.03c0.04-0.63 0.59-1.1 1.21-1.06 20.77 1.48 70.13 2.44 86.02 0.87 0.63-0.06 1.18 0.39 1.25 1.02q0.01 0.08 0 0.16z"/>
		<path id="&lt;Compound Path&gt;" class="s4" d="m432.52 745.94c-20 0-45.23-0.72-58.69-1.68-1.23-0.09-2.16-1.13-2.11-2.37 0.09-1.24 1.09-2.17 2.27-2.17 13.57 0.96 38.69 1.67 58.59 1.67 12.63 0 22.1-0.27 27.4-0.8 1.34-0.08 2.37 0.87 2.48 2.04l0.01 0.34c-0.04 1.1-0.92 2.04-2.05 2.14-6.84 0.68-18.95 0.83-27.9 0.83zm-58.53-3.96c13.42 0.97 38.58 1.69 58.53 1.69 12.76 0 22.33-0.28 27.68-0.81-6.78 0.66-18.76 0.8-27.62 0.8-19.94 0-45.13-0.72-58.59-1.68z"/>
		<path id="&lt;Path&gt;" class="s4" d="m468.27 780.9c-0.02 0.57-0.47 1.04-1.06 1.09-20.85 1.47-72.34 3.18-100.74 2.51-0.63-0.01-1.13-0.53-1.11-1.16v-0.03c0.03-0.61 0.54-1.1 1.17-1.09 28.33 0.67 79.71-1.04 100.52-2.51 0.63-0.04 1.17 0.43 1.22 1.06 0 0 0 0.09 0 0.13z"/>
		<path id="&lt;Compound Path&gt;" class="s4" d="m380.99 785.78c-5.44 0-10.33-0.04-14.54-0.14-0.61-0.02-1.18-0.27-1.6-0.71-0.41-0.44-0.64-1.01-0.62-1.62 0.05-1.26 1.05-2.22 2.27-2.22 4.23 0.1 9.08 0.15 14.48 0.15 28.57 0 68.25-1.4 85.99-2.66q0.01 0 0.01 0c1.35 0 2.34 0.93 2.42 2.11v0.24c-0.05 1.17-0.96 2.1-2.11 2.19-17.8 1.26-57.63 2.66-86.3 2.66zm-14.49-2.43c4.2 0.12 9.07 0.17 14.49 0.17 28.63 0 68.37-1.4 86.14-2.66-17.78 1.24-57.53 2.64-86.15 2.64-5.41 0-10.28-0.05-14.48-0.15z"/>
		<path id="&lt;Path&gt;" class="s4" d="m486.68 817.67c-0.03 0.58-0.49 1.06-1.08 1.1-16.42 0.98-73.26 3.08-73.84 3.1-0.63 0.02-1.15-0.47-1.18-1.1-0.08-0.62 0.47-1.16 1.1-1.18 0.58-0.02 57.38-2.12 73.79-3.11 0.63-0.03 1.17 0.45 1.21 1.08q0 0.06 0 0.11z"/>
		<path id="&lt;Compound Path&gt;" class="s4" d="m411.72 823c-1.23 0-2.22-0.97-2.27-2.19-0.07-0.49 0.11-1.06 0.5-1.53 0.42-0.5 1.03-0.8 1.69-0.83 0.53-0.01 57.35-2.11 73.76-3.1q0.01 0 0.01 0c1.33 0 2.32 0.94 2.4 2.14v0.06 0.17c-0.05 1.17-0.97 2.1-2.13 2.18-16.5 0.99-73.35 3.08-73.88 3.1zm73.82-5.36c-16.44 0.97-73.29 3.06-73.82 3.08v1.14-1.13c0.53-0.02 57.35-2.1 73.82-3.09z"/>
		<path id="&lt;Path&gt;" class="s4" d="m516.87 748.72q0 0.19-0.07 0.37c-0.23 0.58-0.89 0.88-1.48 0.65l-18.72-7.29c-0.59-0.23-0.88-0.89-0.65-1.47 0.23-0.59 0.89-0.88 1.47-0.65l18.73 7.28c0.47 0.18 0.74 0.64 0.72 1.11z"/>
		<path id="&lt;Compound Path&gt;" class="s4" d="m515.73 750.95q-0.42 0-0.82-0.16l-18.72-7.28c-0.57-0.22-1.02-0.66-1.27-1.22-0.24-0.56-0.25-1.18-0.02-1.73 0.43-1.11 1.81-1.73 2.94-1.28l18.72 7.28c0.9 0.35 1.49 1.24 1.45 2.21q-0.02 0.4-0.17 0.75c-0.32 0.84-1.17 1.43-2.11 1.43zm-18.72-9.56l18.72 7.29v1.14-1.13q0.01-0.01 0.01-0.01z"/>
		<path id="&lt;Path&gt;" class="s4" d="m515.72 740.3c-0.02 0.37-0.22 0.73-0.57 0.93l-16.41 9.58c-0.54 0.32-1.24 0.13-1.55-0.41-0.32-0.53-0.15-1.25 0.41-1.56l16.4-9.57c0.54-0.33 1.24-0.14 1.56 0.41q0.17 0.29 0.16 0.62z"/>
		<path id="&lt;Compound Path&gt;" class="s4" d="m498.17 752.09c-0.8 0-1.56-0.43-1.96-1.13-0.3-0.5-0.39-1.13-0.24-1.72 0.16-0.59 0.54-1.08 1.07-1.38l16.39-9.57c1.02-0.61 2.5-0.23 3.11 0.82 0.22 0.36 0.33 0.79 0.31 1.23-0.04 0.79-0.46 1.49-1.14 1.88l-16.4 9.57q-0.52 0.3-1.14 0.3zm16.41-11.83l-16.41 9.56v1.14-1.13q0 0 0 0z"/>
		<path id="&lt;Path&gt;" class="s4" d="m526.95 788.76q0 0.18-0.07 0.36c-0.23 0.59-0.89 0.88-1.48 0.65l-18.72-7.28c-0.59-0.22-0.89-0.89-0.65-1.47 0.22-0.59 0.89-0.88 1.47-0.65l18.73 7.28c0.47 0.18 0.75 0.63 0.72 1.11z"/>
		<path id="&lt;Compound Path&gt;" class="s4" d="m525.82 790.99q-0.43 0-0.83-0.16l-18.72-7.28c-0.58-0.22-1.03-0.66-1.27-1.22-0.24-0.56-0.25-1.18-0.02-1.74 0.42-1.11 1.8-1.73 2.93-1.28l18.73 7.28c0.91 0.36 1.49 1.25 1.45 2.22q-0.02 0.39-0.17 0.75c-0.32 0.84-1.17 1.43-2.1 1.43zm-18.73-9.57l18.72 7.3 0.01 1.13v-1.13q0 0 0 0z"/>
		<path id="&lt;Path&gt;" class="s4" d="m525.79 780.33c-0.01 0.37-0.21 0.73-0.56 0.94l-16.41 9.57c-0.54 0.32-1.24 0.13-1.56-0.41-0.31-0.53-0.14-1.24 0.41-1.56l16.41-9.57c0.54-0.32 1.24-0.14 1.56 0.41q0.17 0.29 0.15 0.62z"/>
		<path id="&lt;Compound Path&gt;" class="s4" d="m508.25 792.13c-0.81 0-1.56-0.44-1.97-1.13-0.3-0.51-0.39-1.14-0.23-1.72 0.15-0.59 0.53-1.09 1.06-1.39l16.4-9.57c1.02-0.61 2.49-0.23 3.1 0.82 0.22 0.36 0.33 0.79 0.31 1.24-0.03 0.78-0.45 1.48-1.13 1.87l-16.4 9.57q-0.52 0.31-1.14 0.31zm16.4-11.84l-16.41 9.56 0.01 0.01z"/>
		<path id="&lt;Path&gt;" class="s4" d="m537.55 834.53q-0.01 0.18-0.08 0.36c-0.23 0.59-0.89 0.88-1.47 0.65l-18.73-7.28c-0.59-0.22-0.9-0.89-0.65-1.47 0.22-0.59 0.88-0.88 1.47-0.65l18.73 7.28c0.47 0.18 0.75 0.63 0.73 1.11z"/>
		<path id="&lt;Compound Path&gt;" class="s4" d="m536.41 836.75q-0.43 0-0.83-0.16l-18.72-7.27c-0.57-0.22-1.04-0.67-1.28-1.24-0.24-0.56-0.24-1.18-0.01-1.73 0.43-1.1 1.8-1.71 2.94-1.26l18.72 7.27c0.91 0.35 1.49 1.24 1.45 2.22q-0.02 0.4-0.17 0.75c-0.32 0.83-1.17 1.42-2.1 1.42zm-18.73-9.56l18.72 7.29 0.01 1.14v-1.13-0.01z"/>
		<path id="&lt;Path&gt;" class="s4" d="m536.38 826.1c-0.01 0.38-0.21 0.73-0.56 0.94l-16.41 9.57c-0.54 0.32-1.24 0.13-1.56-0.41-0.31-0.54-0.14-1.24 0.42-1.56l16.4-9.57c0.54-0.32 1.24-0.14 1.56 0.41q0.17 0.29 0.15 0.62z"/>
		<path id="&lt;Compound Path&gt;" class="s4" d="m518.84 837.9c-0.81 0-1.56-0.44-1.96-1.13-0.31-0.52-0.39-1.14-0.24-1.72 0.16-0.59 0.53-1.08 1.06-1.39l16.4-9.57c1.02-0.61 2.5-0.22 3.11 0.82 0.22 0.36 0.33 0.79 0.3 1.24-0.03 0.78-0.45 1.47-1.13 1.87l-16.4 9.57q-0.52 0.3-1.14 0.31zm16.41-11.84l-16.41 9.56v0.01z"/>
		<path id="&lt;Path&gt;" class="s4" d="m374.6 765.16c-0.12 2.73-0.8 5.37-2.47 7.38q-0.26 0.31-0.66 0.34l-13.9 0.98q-0.24 0.01-0.46-0.08c-0.08-0.04-8.44-3.92-7.54-14.15 0.04-0.53 0.49-0.91 1.01-0.88 0.52 0.05 0.87 0.52 0.87 1.02q-0.02 0.27-0.03 0.54c-0.34 7.79 5.12 11.05 6.27 11.65l13.23-0.93c3.9-5.26 0.43-15.69-0.55-18.31l-11.63 0.39c-0.52 0.02-0.96-0.38-0.98-0.91-0.1-0.57 0.39-0.96 0.91-0.97l12.31-0.42c0.4-0.01 0.76 0.22 0.91 0.58 0.17 0.41 2.98 7.34 2.71 13.77z"/>
		<path id="&lt;Path&gt;" class="s4" d="m357.5 774.99q-0.44 0-0.84-0.18c-0.09-0.03-9.19-4.23-8.22-15.28 0.08-1.07 0.99-1.91 2.07-1.91 1.23 0.09 2.07 1.03 2.07 2.15l-0.03 0.59c-0.29 6.6 3.98 9.63 5.39 10.44l12.36-0.86c2.83-4.55 0.33-13.03-0.71-16.06l-10.81 0.37q0 0 0 0c-1.2 0-2.11-0.88-2.15-2.01-0.08-0.39 0.05-0.93 0.41-1.37 0.37-0.47 0.97-0.76 1.61-0.77l12.29-0.42h0.01c0.91 0 1.66 0.5 1.98 1.28 0.13 0.31 3.09 7.54 2.8 14.25-0.15 3.35-1.07 6.06-2.73 8.06-0.36 0.44-0.9 0.71-1.46 0.74z"/>
		<path id="&lt;Path&gt;" class="s4" d="m395.95 724.73c-0.12 2.73-0.8 5.37-2.47 7.38q-0.26 0.31-0.66 0.34l-13.9 0.97q-0.24 0.02-0.46-0.08c-0.08-0.03-8.44-3.91-7.55-14.15 0.05-0.52 0.5-0.91 1.02-0.87 0.52 0.04 0.87 0.52 0.87 1.01q-0.02 0.28-0.04 0.55c-0.33 7.78 5.13 11.04 6.28 11.64l13.23-0.93c3.9-5.26 0.43-15.68-0.55-18.3l-11.63 0.39c-0.52 0.02-0.96-0.39-0.98-0.91-0.1-0.57 0.39-0.96 0.91-0.98l12.31-0.41c0.4-0.01 0.76 0.22 0.91 0.58 0.17 0.41 2.98 7.34 2.71 13.77z"/>
		<path id="&lt;Path&gt;" class="s4" d="m378.84 734.56q-0.43-0.01-0.83-0.18c-0.11-0.05-9.18-4.29-8.22-15.28 0.08-1.07 0.99-1.91 2.07-1.91 1.23 0.09 2.07 1.03 2.07 2.14l-0.03 0.59c-0.29 6.62 3.98 9.64 5.39 10.45l12.36-0.87c2.83-4.55 0.33-13.02-0.72-16.05l-10.8 0.36q0 0 0 0c-1.2 0-2.11-0.88-2.15-2-0.08-0.39 0.05-0.94 0.4-1.37 0.38-0.47 0.98-0.76 1.61-0.78l12.3-0.41h0.01c0.91 0 1.66 0.5 1.98 1.28 0.13 0.3 3.09 7.5 2.8 14.25-0.15 3.34-1.06 6.06-2.73 8.06-0.37 0.44-0.9 0.7-1.46 0.74z"/>
		<path id="&lt;Path&gt;" class="s4" d="m389.48 804.2c-0.12 2.73-0.79 5.37-2.47 7.38q-0.26 0.31-0.66 0.34l-13.9 0.98q-0.24 0.01-0.46-0.08c-0.08-0.04-8.43-3.92-7.54-14.15 0.04-0.53 0.49-0.91 1.01-0.88 0.52 0.05 0.87 0.52 0.87 1.02q-0.02 0.27-0.03 0.54c-0.34 7.79 5.12 11.05 6.27 11.65l13.23-0.93c3.9-5.26 0.43-15.69-0.54-18.31l-11.64 0.39c-0.52 0.02-0.96-0.38-0.97-0.91-0.11-0.57 0.39-0.96 0.91-0.97l12.3-0.42c0.4-0.01 0.76 0.22 0.91 0.58 0.17 0.41 2.99 7.34 2.71 13.77z"/>
		<path id="&lt;Path&gt;" class="s4" d="m372.38 814.03q-0.44 0-0.84-0.18c-0.1-0.04-9.18-4.24-8.22-15.28 0.08-1.07 0.99-1.91 2.07-1.91 1.23 0.09 2.07 1.03 2.07 2.15l-0.03 0.59c-0.29 6.61 3.98 9.63 5.39 10.44l12.36-0.86c2.83-4.55 0.33-13.03-0.71-16.06l-10.81 0.36c-1.2 0-2.11-0.88-2.14-2-0.09-0.39 0.04-0.93 0.4-1.37 0.37-0.47 0.97-0.76 1.6-0.78l12.3-0.41q0.01 0 0.01 0c0.91 0 1.66 0.51 1.98 1.28 0.13 0.3 3.09 7.46 2.8 14.25-0.14 3.35-1.06 6.06-2.73 8.06-0.37 0.44-0.91 0.71-1.47 0.74z"/>
		<path id="&lt;Path&gt;" class="s4" d="m435.64 844.29c-0.11 2.73-0.79 5.37-2.46 7.38q-0.27 0.31-0.66 0.34l-13.91 0.97q-0.23 0.02-0.45-0.07c-0.08-0.04-8.44-3.92-7.55-14.15 0.04-0.53 0.5-0.91 1.01-0.88 0.53 0.04 0.88 0.52 0.88 1.02q-0.03 0.27-0.04 0.54c-0.33 7.78 5.12 11.04 6.28 11.64l13.23-0.92c3.9-5.26 0.42-15.69-0.55-18.31l-11.63 0.39c-0.52 0.02-0.96-0.39-0.98-0.91-0.11-0.57 0.39-0.96 0.91-0.97l12.31-0.42c0.39-0.01 0.75 0.22 0.9 0.58 0.17 0.41 2.99 7.34 2.71 13.77z"/>
		<path id="&lt;Path&gt;" class="s4" d="m418.55 854.12q-0.44 0-0.84-0.18c-0.1-0.04-9.19-4.24-8.23-15.28 0.09-1.07 1-1.91 2.08-1.91 1.23 0.09 2.07 1.03 2.07 2.15l-0.04 0.59c-0.28 6.61 3.99 9.63 5.4 10.44l12.35-0.87c2.84-4.54 0.34-13.02-0.71-16.05l-10.8 0.36q0 0-0.01 0c-1.19 0-2.1-0.88-2.14-2-0.09-0.38 0.05-0.93 0.4-1.37 0.38-0.47 0.98-0.76 1.61-0.78l12.3-0.41q0 0 0 0c0.92 0 1.67 0.5 1.99 1.28 0.12 0.3 3.09 7.46 2.8 14.25-0.15 3.35-1.07 6.06-2.73 8.06-0.37 0.44-0.91 0.71-1.48 0.74z"/>
		<path id="&lt;Path&gt;" class="s4" d="m510.97 647.35c-0.06 1.28-0.72 7.45-8.23 12.94-0.37 0.27-0.88 0.29-1.27 0.04l-16.32-10.22q-0.38-0.24-0.5-0.68c-0.12-0.43-2.72-10.68 2.05-15.83 0.42-0.47 1.14-0.5 1.61-0.07 0.47 0.42 0.49 1.15 0.06 1.61-3.43 3.73-2.02 11.39-1.61 13.28l15.25 9.56c6.59-5.14 6.74-10.55 6.68-10.83 0.1-0.66 0.51-1.15 1.13-1.16 0.63 0 1.14 0.5 1.15 1.13q0 0.04 0 0.23z"/>
		<path id="&lt;Compound Path&gt;" class="s4" d="m502.07 661.64q-0.65-0.01-1.2-0.35l-16.32-10.22c-0.51-0.32-0.86-0.81-1-1.36-0.02-0.09-3.03-11.1 2.32-16.88 0.81-0.88 2.32-0.95 3.21-0.13 0.44 0.4 0.7 0.96 0.73 1.57 0.02 0.61-0.19 1.2-0.61 1.65-2.83 3.06-1.85 9.63-1.43 11.8l14.16 8.87c5.56-4.65 5.64-9.29 5.63-9.33l-0.04-0.2 0.05-0.09c0.2-1.25 1.1-2.1 2.24-2.11 1.27 0 2.27 0.98 2.3 2.23l-0.01 0.31c-0.06 1.28-0.73 7.98-8.69 13.8q-0.61 0.43-1.34 0.44zm-14.53-27.27c-4.37 4.7-1.83 14.65-1.8 14.75l16.33 10.25q0.01 0 0.01 0c2.66-1.95 4.41-3.97 5.56-5.79-1.08 1.68-2.65 3.51-4.93 5.29l-0.63 0.49-16.33-10.23-0.1-0.47c-0.5-2.32-1.85-10.22 1.89-14.29z"/>
		<path id="&lt;Path&gt;" class="s1" d="m865.86 943.53c-5.83 0-11.63-0.82-17.27-2.43-7.4-2.12-12.11-5.63-14-10.42-2.15-5.46-0.35-12.24 4.95-18.59 10.18-12.21 27.13-18.8 45.32-17.64 1.25 0.08 2.2 1.16 2.12 2.4-0.08 1.25-1.15 2.2-2.41 2.12-16.77-1.06-32.29 4.92-41.55 16.02-1.99 2.39-6.38 8.53-4.22 14.03 1.35 3.42 5.06 6.02 11.04 7.73 6.34 1.81 12.87 2.54 19.45 2.15 7.43-0.43 13.08-2.43 16.77-5.95 3.82-3.63 5.71-10.47 2.43-14.86-1.72-2.3-4.75-3.84-8.3-4.22-3.58-0.38-7.34 0.38-10.54 1.17-2.38 0.59-5.08 1.35-6.91 2.99-2.05 1.83-2.33 4.49-0.75 7.13 0.64 1.07 0.29 2.46-0.79 3.1-1.07 0.64-2.46 0.29-3.1-0.78-2.69-4.5-2.06-9.54 1.62-12.82 2.61-2.34 5.93-3.3 8.84-4.02 3.59-0.89 7.83-1.73 12.11-1.27 4.8 0.51 8.98 2.7 11.45 6.01 4.88 6.52 2.27 15.9-2.94 20.86-4.49 4.27-11.09 6.69-19.63 7.18q-1.85 0.11-3.69 0.11z"/>
		<path id="&lt;Path&gt;" class="s3" d="m409.41 277.71l20-6.36-20-6.83c-5.99-1.57-10.57-6.39-11.85-12.44l-6.35-30.04-6.82 29.39c-1.43 6.2-6.33 11-12.56 12.32l-18.83 6.48 18.18 6.41c6.36 1.47 11.24 6.6 12.4 13.03l5.26 29.07 7.65-29.09c1.62-6.16 6.66-10.81 12.92-11.94z"/>
		<path id="&lt;Path&gt;" class="s1" d="m517.79 931.27l17.75-5.64-17.76-6.06c-5.31-1.4-9.37-5.67-10.51-11.04l-5.63-26.66-6.05 26.08c-1.28 5.5-5.62 9.76-11.15 10.93l-16.71 5.75 16.13 5.69c5.65 1.31 9.98 5.86 11.01 11.57l4.66 25.79 6.79-25.82c1.44-5.46 5.91-9.59 11.47-10.59z"/>
		<path id="&lt;Path&gt;" class="s1" d="m891.65 199.02l17.75-5.64-17.75-6.06c-5.31-1.4-9.38-5.67-10.52-11.04l-5.63-26.66-6.05 26.08c-1.27 5.5-5.62 9.76-11.14 10.93l-16.72 5.75 16.13 5.69c5.65 1.31 9.98 5.86 11.01 11.56l4.66 25.8 6.8-25.82c1.44-5.46 5.91-9.59 11.46-10.59z"/>
		<path id="&lt;Path&gt;" class="s8" d="m285.55 98.11c-25.66 0.06-47.76 14.24-59.65 35.02-11.99-20.73-34.16-34.81-59.81-34.75-38.2 0.09-69.1 31.13-69.01 69.32 0.09 38.2 56.01 88.69 129.28 169.47 69-74.03 128.6-131.86 128.51-170.06-0.09-38.19-31.13-69.09-69.32-69z"/>
		<path id="&lt;Path&gt;" class="s9" d="m222.95 270.5q-0.01 0-0.03 0c-1.06-0.01-1.96-0.76-2.18-1.79l-23-108.8-13.77 86.33c-0.18 1.12-1.14 1.96-2.28 1.91l-97.11-1.79c-1.26-0.02-2.25-1.06-2.23-2.31 0.03-1.23 1.04-2.22 2.27-2.22q0.02 0 0.04 0l95.15 1.76 15.38-96.46c0.17-1.08 1.09-1.88 2.18-1.91 1.03 0.07 2.05 0.73 2.27 1.8l23.48 111.06 17.64-71.74c0.25-1 1.13-1.7 2.15-1.73 1.01-0.03 1.94 0.65 2.23 1.63l14.03 48.02 101.62 1.87c1.25 0.03 2.25 1.06 2.22 2.31-0.02 1.25-1.01 2.34-2.3 2.22l-103.29-1.9c-0.99-0.02-1.85-0.68-2.13-1.63l-12.14-41.54-18 73.19c-0.25 1.01-1.15 1.72-2.2 1.72z"/>
	</g>
</svg>