<svg version="1.2" xmlns="http://www.w3.org/2000/svg" viewBox="0 0 1080 1080" width="1080" height="1080">
	<style>
		.s0 { fill: #ffecbb } 
		.s1 { fill: #ffffff } 
		.s2 { fill: #333333 } 
		.s3 { fill: #ccd7f2 } 
		.s4 { fill: #fc5e71 } 
		.s5 { fill: #f2cf63 } 
		.s6 { fill: #f29c50 } 
		.s7 { fill: #f29199 } 
		.s8 { fill: #2b2b2b } 
	</style>
	<g id="Layer 1">
		<path id="&lt;Path&gt;" class="s0" d="m949.02 203.94c54.66 86.5 50.83 197.96-3.53 284.99-38.12 61.02-91.53 110.29-136.98 165.63-49.24 59.96-75.93 127.05-100.84 199.54-20.37 59.24-46.67 117.98-107.84 144.47-38.79 16.79-81.92 20.57-124.22 22.11-140.32 5.12-356.51-20.62-407.87-176-15.09-45.64-16.27-94.54-15.6-142.56 1.24-88.11 8.59-177.52 39.75-260.03 31.16-82.51 88.73-158.18 169.07-195.7 84.95-39.67 166.04-20.28 254.8-24.54 59.45-2.86 109.76-21.3 160.05-51.85 44.55-27.06 91.94-60.74 146.96-55.94 41.58 3.63 78.32 29.64 105.23 61.3 7.78 9.15 14.78 18.71 21.02 28.58z"/>
		<path id="&lt;Path&gt;" class="s1" d="m204.55 448.86l36.72-11.66-36.73-12.54c-10.99-2.89-19.4-11.73-21.75-22.85l-11.66-55.15-12.51 53.96c-2.64 11.38-11.64 20.2-23.06 22.61l-34.58 11.9 33.37 11.77c11.69 2.72 20.65 12.12 22.78 23.93l9.64 53.37 14.06-53.41c2.97-11.3 12.22-19.85 23.72-21.93z"/>
		<path id="&lt;Path&gt;" class="s2" d="m949.74 993.65l14.61-4.64-14.62-4.99c-4.37-1.15-7.72-4.67-8.65-9.09l-4.64-21.95-4.98 21.48c-1.05 4.52-4.63 8.03-9.18 8.99l-13.76 4.74 13.28 4.68c4.65 1.08 8.22 4.83 9.07 9.53l3.83 21.23 5.6-21.25c1.18-4.5 4.86-7.9 9.44-8.73z"/>
		<path id="&lt;Path&gt;" class="s2" d="m750.58 312.49l19.46-6.17-19.46-6.65c-5.82-1.53-10.28-6.21-11.52-12.1l-6.18-29.22-6.63 28.59c-1.4 6.03-6.16 10.7-12.21 11.98l-18.32 6.3 17.68 6.23c6.19 1.44 10.93 6.42 12.06 12.68l5.11 28.27 7.45-28.29c1.57-5.99 6.47-10.52 12.56-11.62z"/>
		<path id="&lt;Path&gt;" class="s3" d="m759.36 405.54c69.1 65.56 109.78 201.99 109.78 201.99 0 0-7.18 69.41-64.62 90.95-57.44 21.54-122.07-141.21-122.07-141.21z"/>
		<path id="&lt;Compound Path&gt;" class="s2" d="m793.76 702.7c-55.35 0-111.05-138.7-113.4-144.6-0.24-0.6-0.21-1.28 0.09-1.85l76.9-151.73c0.32-0.63 0.92-1.08 1.62-1.2 0.71-0.13 1.42 0.09 1.94 0.58 68.74 65.23 109.99 201.62 110.39 202.99q0.13 0.43 0.09 0.87c-0.08 0.71-8 71.05-66.08 92.83-3.73 1.4-7.62 2.11-11.55 2.11zm-108.83-145.33c5.03 12.32 58.77 140.82 108.83 140.82 3.39 0 6.75-0.61 9.97-1.82 53.1-19.91 62.37-82.77 63.12-88.64-2.61-8.52-42.23-135.16-106.86-198.45z"/>
		<path id="&lt;Path&gt;" class="s2" d="m610.11 191.07l-0.25-1.99 12.27-1.62 0.26 1.99z"/>
		<path id="&lt;Path&gt;" class="s2" d="m609.14 192.33l-0.54-4.22 14.51-1.91 0.54 4.22z"/>
		<path id="&lt;Path&gt;" class="s1" d="m589.08 212.05c0 0 17.24-20.06 33.11-15.49 15.87 4.56 20.13 37.88 3.88 45.46-16.25 7.59-37.12-4.16-37.12-4.16z"/>
		<path id="&lt;Compound Path&gt;" class="s2" d="m613.72 246.83c-13.28 0-25.36-6.73-25.87-7.01-0.71-0.4-1.15-1.16-1.15-1.98l0.13-25.8c0-0.54 0.2-1.05 0.54-1.46 0.6-0.69 14.75-16.95 29.93-16.95q2.86 0 5.51 0.76c9.73 2.8 14.89 14.31 15.69 24.48 0.73 9.25-1.9 20.73-11.48 25.19-3.92 1.84-8.4 2.77-13.3 2.77zm-22.51-10.34c3.22 1.6 12.66 5.83 22.51 5.83 4.24 0 8.07-0.79 11.4-2.34 7.48-3.49 9.5-13.01 8.89-20.76-0.8-10.19-5.92-18.62-12.44-20.5q-2.05-0.58-4.27-0.59c-11.63 0-23.35 11.95-25.97 14.79z"/>
		<path id="&lt;Path&gt;" class="s2" d="m467.05 301.45c-0.63-7.44 19.99 5.6 58.73 3.88 38.74-1.71 66.03-4.7 67.07-2.24 1.04 2.47-2.61 20.43-2.61 20.43l-102.21 10.35z"/>
		<path id="&lt;Path&gt;" class="s2" d="m610.03 111.68c9.52 13.08 7.75 42.28 2.26 68.23-5.48 25.95-9.2-49.54-9.2-49.54l-18.29-21.2z"/>
		<path id="&lt;Path&gt;" class="s1" d="m614.44 188.16c-4.52-28.75 1.06-49.73-4.17-63.56 0 0-18.52-61.13-101.73-44.67q-1.51 0.29-2.98 0.64c-42.43 9.89-68.78 44.21-57.44 86.28l9.3 34.46c-5.29-2.14-11.05-3.12-16.56-1.32-17.12 5.63-20.42 42.14-2.39 49.76 10.93 4.61 23.39 1.42 31.53-1.82l1.19 4.41 3.77 80.91c53.46 2.28 109.21-16.87 109.21-16.87l-2.95-27.37c50.01-15.2 37.59-72.94 33.22-100.85z"/>
		<path id="&lt;Compound Path&gt;" class="s2" d="m484.02 335.69q0 0-0.01 0c-3.1 0-6.17-0.07-9.15-0.19-1.16-0.05-2.1-0.98-2.15-2.15l-3.76-80.66-0.48-1.78c-11.62 4.16-22.34 4.52-30.87 0.91-10.53-4.44-13.84-16.76-13.42-26.81 0.45-11.06 5.57-23.74 15.98-27.16 4.24-1.39 8.95-1.4 13.99-0.03l-8.2-30.38c-5.18-19.18-2.95-37.61 6.43-53.3 10.53-17.6 29.24-30.3 52.67-35.77q1.5-0.35 3.06-0.66c9.58-1.89 18.79-2.85 27.39-2.85 61.34 0 76.78 48.6 76.93 49.09 2.78 7.32 2.62 16.71 2.43 27.58-0.17 10.51-0.37 22.42 1.8 36.28q0.36 2.26 0.77 4.77c4.71 28.87 13.42 82.31-33.78 98.02l2.76 25.54c0.11 1.05-0.52 2.03-1.51 2.37-0.5 0.18-50.57 17.18-100.88 17.18zm-6.91-4.62q3.41 0.11 6.9 0.11c44.38 0 88.6-13.43 97.72-16.37l-2.75-25.56c-0.12-1.08 0.55-2.08 1.58-2.4 45.43-13.8 37.29-63.72 32.42-93.55q-0.41-2.52-0.77-4.79c-2.23-14.25-2.03-26.37-1.85-37.06 0.18-10.83 0.32-19.39-2.2-26.05-0.62-2.01-14.75-46.03-72.66-46.03-8.3 0-17.23 0.93-26.52 2.77q-1.48 0.28-2.9 0.62c-22.24 5.18-39.93 17.15-49.83 33.69-8.74 14.62-10.8 31.84-5.95 49.81l9.3 34.46c0.22 0.83-0.04 1.71-0.68 2.28-0.65 0.56-1.56 0.71-2.34 0.4-5.59-2.26-10.65-2.7-15.01-1.26-7.13 2.33-12.43 11.82-12.89 23.05-0.35 8.54 2.27 18.93 10.67 22.48 3.35 1.42 7.13 2.13 11.24 2.13 5.62 0 12.04-1.37 18.58-3.97 0.6-0.23 1.27-0.21 1.84 0.09 0.58 0.28 1 0.8 1.17 1.42l1.19 4.42q0.06 0.23 0.07 0.48z"/>
		<path id="&lt;Path&gt;" class="s3" d="m593.01 321.65c-9.76-2.09-13.79 6-13.79 6l-80.88-2.3c-2.55 0.75-11.06-5.71-13.55-4.94 20.86 49.44 42.1 98.88 72.91 148.15 26.41-45.93 28.79-99.38 35.31-146.91z"/>
		<path id="&lt;Path&gt;" class="s2" d="m570.43 337.27l-6.64 21.22 6.87 70.95c0 0-9.11 28.08-15.62 36.46l-21.01-35.41 13.13-70.21-15.23-22.67 13.13-10.61 9.92-4.25 17.26 12.26z"/>
		<path id="&lt;Path&gt;" class="s4" d="m755.24 611.11c-6.7-79.46-20.1-125.68 4.12-205.57-2.86-3.06-5.73-6.17-8.58-8.95-50.83-49.64-127.74-70.58-160.43-77.6-6.52 47.53-8.9 100.98-35.31 146.91-30.81-49.27-52.05-98.71-72.91-148.15-95.61 29.35-149.27 66.03-176.21 89.57 48.05 80.17 90.32 185.14 17.5 268.81 2.37 20.06 4.01 37.99 4.47 51.93 2.95 89.39-10.3 306.54-10.3 306.54l457.22 4.47c4.5-176.37-15.53-394.2-15.53-394.2 1.49-0.2-5.5-33.55-4.04-33.76z"/>
		<path id="&lt;Compound Path&gt;" class="s2" d="m774.81 1041.32q-0.01 0-0.02 0l-457.22-4.47c-0.62-0.01-1.21-0.27-1.63-0.72-0.42-0.45-0.63-1.05-0.6-1.67 0.14-2.17 13.21-218.07 10.29-306.32-0.42-12.94-1.92-30.35-4.44-51.75-0.08-0.63 0.12-1.27 0.53-1.74 56.51-64.92 50.71-151.98-17.73-266.17-0.56-0.94-0.37-2.14 0.45-2.86 28.71-25.09 82.72-61.07 177.02-90.03 1.11-0.34 2.29 0.22 2.74 1.28 22.64 53.65 42.32 98.56 70.74 144.6 20.33-37.23 25.35-78.85 30.2-119.13 0.94-7.82 1.91-15.9 2.97-23.65 0.09-0.62 0.43-1.18 0.94-1.54 0.52-0.36 1.16-0.49 1.77-0.36 31.39 6.73 109.97 27.83 161.53 78.18 2.52 2.46 5.08 5.2 7.55 7.85l1.1 1.18c0.55 0.59 0.75 1.42 0.51 2.19-19.22 63.44-14.5 106.21-8.51 160.35 1.54 13.98 3.14 28.42 4.49 44.38q0.04 0.61-0.2 1.14c-0.02 2.01 1.25 9.73 2.19 15.45 2.13 12.96 2.54 16.34 2.11 17.83 1.22 13.62 19.8 224.17 15.47 393.79-0.03 1.22-1.03 2.19-2.25 2.19zm-454.83-8.95l452.63 4.42c4.23-173.84-15.38-389.54-15.58-391.71q-0.05-0.64 0.21-1.17c0.03-2.05-1.26-9.87-2.21-15.67-2.1-12.78-2.51-16.11-2.09-17.6-1.33-15.64-2.9-29.85-4.42-43.6-6-54.31-10.75-97.28 8.31-160.91l-0.22-0.23c-2.44-2.61-4.96-5.31-7.4-7.7-49.48-48.31-124.52-69.31-156.96-76.48-0.92 6.91-1.76 13.85-2.64 21.15-5.05 41.94-10.27 85.3-32.61 124.15-0.4 0.69-1.12 1.11-1.91 1.13-0.81-0.09-1.54-0.39-1.96-1.06-29.35-46.92-49.37-92.33-72.29-146.59-90.81 28.14-143.49 62.72-172.01 87.28 29.65 49.79 47.13 93.07 53.39 132.28 8.46 52.86-3.8 98.87-36.44 136.79 2.47 21.07 3.93 38.27 4.36 51.14 2.76 83.46-8.73 280.5-10.16 304.38z"/>
		<path id="&lt;Path&gt;" class="s2" d="m761.42 664.7c-4.01 0.48-8.06 1.02-11.87 1.11-16.33 0.67-33.3-3.18-48.84-6.33l-7.14-1.45c-34.89-7.07-70.95-14.4-108.51-15.65-39.88-1.37-78.51 4.24-115.86 9.63-33.1 4.75-64.36 9.13-95.46 9.12-6.35-0.04-12.74-0.27-19.15-0.5-6.17-0.21-12.58-0.41-19.12-0.47-3.53 5.09-7.37 10.12-11.68 15.07 2.37 20.06 4.01 38 4.47 51.94 0.04 1.31 0.07 2.74 0.11 4.1 7.67-0.09 15.59 0.1 23.77 0.4 7.09 0.23 14.17 0.48 21.2 0.51 36.46 0.22 71.79-4.91 106-9.83 35.9-5.2 69.82-10.15 103.35-8.95 31.62 1.06 63.25 7.49 96.73 14.29l7.21 1.46c18.03 3.64 40.41 8.16 63.72 7.72q0.45-0.01 0.91-0.01c5.31-0.13 10.31-0.8 15.39-1.34-2-30.19-3.91-54.76-5.23-70.82z"/>
		<path id="&lt;Path&gt;" class="s2" d="m479.08 586.76c-21.6 2.06-43.93 4.2-65.66 4.6-4.66-0.02-8.56 0.09-12.83 0.1-12.56 0.04-25.63 0.06-38.54 1.79q-0.31 0.05-0.62 0.1-0.95 7.01-2.54 13.95c1.64-0.28 3.27-0.62 4.92-0.84 12.06-1.61 24.66-1.64 36.81-1.67 4.32-0.02 8.62-0.03 12.92-0.11q0.05 0 0.11 0c22.25-0.41 44.84-2.57 66.7-4.65 43.84-4.2 89.16-8.53 131.95 1.55 4.46 1.05 8.89 2.27 13.34 3.47 8.54 2.32 17.39 4.73 26.49 6.05 9.79 1.43 19.67 1.6 29.23 1.75l74.52 1.81c-0.59-4.46-1.84-9.57-2.48-14.02l-71.85-1.12c-9.11-0.15-18.54-0.3-27.5-1.61-8.3-1.22-16.37-3.39-24.92-5.71-4.59-1.26-9.16-2.51-13.78-3.58-44.89-10.59-91.37-6.17-136.27-1.86z"/>
		<path id="&lt;Path&gt;" class="s2" d="m546.18 965.89q-0.21 0-0.41-0.11c-0.37-0.21-0.5-0.69-0.28-1.06 18.61-32.36 79.41-155.75 80.02-156.99 0.19-0.39 0.67-0.54 1.04-0.35 0.39 0.19 0.55 0.66 0.35 1.04-0.6 1.24-61.43 124.67-80.06 157.08-0.15 0.25-0.4 0.38-0.66 0.39z"/>
		<path id="&lt;Path&gt;" class="s2" d="m621.5 903.57q-0.14 0-0.28-0.05c-0.4-0.14-0.61-0.58-0.47-0.99l19.7-56.11c0.15-0.4 0.6-0.58 0.99-0.47 0.41 0.14 0.62 0.59 0.48 0.99l-19.7 56.11c-0.12 0.31-0.41 0.51-0.72 0.52z"/>
		<path id="&lt;Path&gt;" class="s2" d="m525.21 205.18c-2.72 0-4.91-3.83-4.91-8.57 0-4.74 2.19-8.58 4.91-8.58 2.71 0 4.9 3.84 4.9 8.58 0 4.74-2.19 8.57-4.9 8.57z"/>
		<path id="&lt;Path&gt;" class="s2" d="m594.02 203.38c-2.72 0-4.91-3.83-4.91-8.57 0-4.74 2.19-8.57 4.91-8.57 2.71 0 4.91 3.83 4.91 8.57 0 4.74-2.2 8.57-4.91 8.57z"/>
		<path id="&lt;Path&gt;" class="s2" d="m537.6 177.97c-0.12 1.3-1.44 2.11-2.62 2.66-6.04 2.83-12.64 4.47-19.3 4.81-1.18 0.06-2.4 0.07-3.5-0.37-1.88-0.76-3.07-2.96-2.68-4.95 0.32-1.64 1.55-2.98 2.99-3.82 1.44-0.84 3.08-1.25 4.7-1.64 6.03-1.44 12.72-2.65 18.17 0.3 1.17 0.63 2.36 1.69 2.24 3.01z"/>
		<path id="&lt;Path&gt;" class="s2" d="m603.44 181.54c-4.21 0.59-9.86-1.02-12.93-0.74-2.71 0.24-8.12 1.99-8.85-2.01 0.11-2.68 2.24-4.85 4.59-5.87 1.87-0.81 3.93-1.07 5.95-1.31 4.59-0.54 11.84-1.57 15.31 2.38 0.85 0.96 1.32 2.31 1 3.54-0.68 2.61-2.63 3.68-5.07 4.01z"/>
		<path id="&lt;Path&gt;" class="s3" d="m551.78 322.55c-29.09 3.74-74.73-9.05-84.37-19.31l-9.03 22.04c0 0 37.53 66.91 44.96 65.77 7.44-1.13 34.64-62.28 48-65.51 13.36-3.23 44.62 47.39 48.12 48.32 3.5 0.93-3.24-67.55-6.25-68.98-3.01-1.44 3.7 11.86-41.43 17.67z"/>
		<path id="&lt;Compound Path&gt;" class="s2" d="m503.15 393.32c-8.29 0-35.45-46.81-46.74-66.94-0.34-0.6-0.38-1.32-0.12-1.96l9.04-22.04c0.29-0.71 0.92-1.22 1.67-1.36 0.76-0.13 1.53 0.12 2.05 0.67 7.98 8.5 43.23 19.27 71.46 19.27q0.01 0 0.01 0c3.94 0 7.63-0.21 10.97-0.65 33.66-4.33 37.22-12.58 38.39-15.3 0.37-0.87 1.07-2.49 2.94-2.49q0.67 0 1.36 0.32c1.21 0.58 3.23 1.55 6.45 33.25 1.44 14.23 2.74 32.53 1.65 37.33-0.55 2.44-2.11 2.7-2.75 2.7-0.2 0-0.46-0.03-0.65-0.08-1.65-0.44-3.21-2.38-10.46-12.06-9.51-12.69-27.22-36.33-35.79-36.33q-0.41 0-0.76 0.08c-6.63 1.6-19.24 23.02-28.45 38.67-11.21 19.03-15.82 26.28-19.74 26.88-0.11 0.02-0.42 0.04-0.53 0.04zm-42.28-68.2c17.02 30.25 37.19 61.87 42.25 63.66 2.62-1.25 10.26-14.22 16.41-24.67 11.25-19.11 20.17-33.61 27.41-38.84q-3.09 0.2-6.42 0.2 0 0-0.01 0c-25.4 0-59.69-8.98-72.21-18.46zm96.06-1.02c9.61 3.98 22.08 19.81 35.09 37.18 2.24 2.99 4.52 6.04 6.18 8.1 0.36-11.59-3.11-48.16-5.66-59.79-2.84 4.23-10.49 10.65-35.61 14.51z"/>
		<path id="&lt;Path&gt;" class="s2" d="m435.2 146.41c-12.14-11.2-32.81-27.22-9.78-45.05 23.03-17.83 29.33-0.05 43.77-25.17 14.45-25.12 47.82-48.61 72.5-31.17 24.68 17.43 71.91-8.8 86.19 10.33 14.27 19.12 6.27 43.13-6.46 53.8-12.73 10.68-49.9 16.34-88.74 13.08-38.83-3.25-69.46 33.6-69.46 33.6z"/>
		<path id="&lt;Path&gt;" class="s2" d="m572.63 132.56c-11.64 0.22-23.09-1.5-34.28-3.17-13.11-1.96-25.49-3.82-36.78-2.28l-0.27-1.97c11.57-1.58 24.09 0.3 37.34 2.28 15.99 2.4 32.52 4.87 49.17 1.59 30.21-5.94 45.81-31.59 45.04-47.05l1.98-0.1c0.81 16.17-15.34 42.95-46.63 49.1-5.22 1.03-10.42 1.51-15.57 1.6z"/>
		<path id="&lt;Path&gt;" class="s1" d="m465.21 142.96q-0.15 0-0.3-0.06c-0.38-0.17-0.56-0.61-0.4-0.98 12.72-29.51 32.45-40.63 65.95-37.2 26.06 2.66 82.02-5.7 93.22-24.64 2.92-4.93 2.42-10.29-1.48-15.93-0.23-0.34-0.15-0.81 0.19-1.04 0.34-0.23 0.8-0.15 1.04 0.19 4.26 6.17 4.77 12.07 1.54 17.54-11.49 19.42-68.28 28.06-94.66 25.36-32.75-3.35-52.02 7.5-64.43 36.3-0.11 0.28-0.38 0.45-0.67 0.46z"/>
		<path id="&lt;Path&gt;" class="s1" d="m501.91 107.15c-0.28 0-0.56-0.16-0.69-0.44-0.17-0.37-0.01-0.81 0.37-0.99 7.12-3.28 23.01-5.84 39.83-8.55 14.85-2.38 30.21-4.86 38.8-7.84 9.87-3.44 16.75-10.71 17.13-18.11 0.26-5.16-2.76-9.48-8.51-12.16-0.37-0.17-0.53-0.62-0.36-0.99 0.18-0.38 0.62-0.53 1-0.36 6.33 2.95 9.65 7.78 9.36 13.58-0.41 8-7.7 15.81-18.13 19.44-8.71 3.04-24.13 5.52-39.05 7.92-15.98 2.57-32.5 5.23-39.45 8.43q-0.14 0.07-0.3 0.07z"/>
		<path id="&lt;Compound Path&gt;" class="s2" d="m523.77 220.65c-13.88 0-25.11-13.13-25.11-29.38 0-16.24 11.23-29.38 25.11-29.38 13.89 0 25.11 13.14 25.11 29.38 0 16.25-11.22 29.38-25.11 29.38zm0-2.01c-12.77 0-23.1-12.24-23.1-27.37 0-15.13 10.33-27.37 23.1-27.37 12.77 0 23.1 12.24 23.1 27.37 0 15.13-10.33 27.37-23.1 27.37z"/>
		<path id="&lt;Compound Path&gt;" class="s2" d="m523.91 221.78c-14.23 0-26.07-13.47-26.37-30.02-0.15-8.1 2.42-15.79 7.23-21.64 4.86-5.9 11.41-9.22 18.44-9.35l0.42-0.01c14.24 0 26.07 13.47 26.37 30.03 0.15 8.1-2.41 15.78-7.23 21.63-4.85 5.9-11.4 9.22-18.43 9.35zm-0.28-56.75l-0.35 0.01c-5.82 0.1-11.26 2.91-15.32 7.91-4.11 5.05-6.3 11.7-6.17 18.74 0.27 14.24 10.19 25.83 22.12 25.83h0.35c12.11-0.23 21.75-12.18 21.48-26.65-0.27-14.25-10.18-25.84-22.11-25.84z"/>
		<path id="&lt;Compound Path&gt;" class="s2" d="m597.77 219.27c-13.88 0-25.11-13.13-25.11-29.37 0-16.25 11.23-29.38 25.11-29.38 13.89 0 25.12 13.13 25.12 29.38 0 16.24-11.23 29.37-25.12 29.37zm0-2.01c-12.77 0-23.1-12.23-23.1-27.36 0-15.14 10.33-27.37 23.1-27.37 12.78 0 23.11 12.23 23.11 27.37 0 15.13-10.33 27.36-23.11 27.36z"/>
		<path id="&lt;Compound Path&gt;" class="s2" d="m597.92 220.4c-14.24 0-26.08-13.46-26.38-30.01-0.15-8.1 2.42-15.79 7.23-21.64 4.86-5.9 11.41-9.23 18.44-9.36h0.42c14.24 0 26.07 13.47 26.38 30.02 0.15 8.1-2.42 15.79-7.23 21.64-4.86 5.9-11.41 9.22-18.44 9.35zm-0.28-56.75h-0.35c-5.82 0.11-11.26 2.92-15.32 7.91-4.11 5.06-6.29 11.71-6.16 18.75 0.26 14.24 10.18 25.82 22.11 25.83l0.35-0.01c5.82-0.11 11.26-2.91 15.32-7.91 4.11-5.05 6.3-11.7 6.17-18.73-0.27-14.25-10.19-25.84-22.12-25.84z"/>
		<path id="&lt;Path&gt;" class="s2" d="m548.29 194.24l-1.13-1.66c16.13-10.91 26.88-1.89 26.99-1.79l-1.31 1.51c-0.39-0.33-9.72-8.08-24.55 1.94z"/>
		<path id="&lt;Path&gt;" class="s2" d="m547.99 195.8l-2.4-3.52 0.94-0.63c5.48-3.71 10.95-5.58 16.27-5.58 7.25 0 11.6 3.45 12.08 3.85l0.88 0.74-2.8 3.22-0.85-0.72c-0.35-0.3-3.6-2.9-9.2-2.9-4.45 0-9.16 1.65-13.99 4.92z"/>
		<path id="&lt;Path&gt;" class="s2" d="m469.85 200.64l29.8-2.76-0.18-2-29.84 2.76q0.14 1 0.22 2z"/>
		<path id="&lt;Path&gt;" class="s2" d="m468.81 201.87l-0.08-1.15q-0.08-0.97-0.21-1.93l-0.16-1.17 32.13-2.97 0.38 4.25z"/>
		<path id="&lt;Path&gt;" class="s2" d="m759.3 645.65c-0.39 0.01-0.73-0.28-0.79-0.67-6.39-44.74-12.65-102.47-12.72-103.05-0.04-0.42 0.26-0.81 0.69-0.85q0.03-0.01 0.07-0.01c0.39-0.01 0.74 0.29 0.78 0.69 0.07 0.58 6.34 58.28 12.72 103.01 0.06 0.42-0.23 0.81-0.66 0.87q-0.05 0.01-0.09 0.01z"/>
		<path id="&lt;Path&gt;" class="s2" d="m446.2 199.38l-15.66-62.99 57.85-8.07c0 0-12.93 17.68-12.39 46.83 0.21 11.28 1.1 19.42 2.11 25.16 0.9 5.16-4.21 9.32-9.11 7.5z"/>
		<path id="&lt;Path&gt;" class="s2" d="m583.28 285.76c-7.04 2.79-34.87 4.68-58.75 0.56 0 0 29.83 16.12 57.83 15.03z"/>
		<path id="&lt;Path&gt;" class="s2" d="m561.44 246.46c-14.94 0-27.16-8.88-27.83-9.38-1-0.74-1.21-2.15-0.47-3.15 0.75-1 2.16-1.21 3.15-0.47 0.2 0.14 19.8 14.35 38.19 5.59 1.13-0.53 2.47-0.05 3.01 1.07 0.53 1.13 0.06 2.47-1.07 3.01-5.08 2.41-10.17 3.33-14.98 3.33z"/>
		<path id="&lt;Path&gt;" class="s2" d="m533.26 240.43q-0.61 0-1.16-0.32c-1.07-0.64-1.41-2.02-0.77-3.09l3.63-6.06c0.64-1.07 2.03-1.42 3.09-0.78 1.07 0.64 1.42 2.03 0.78 3.1l-3.64 6.06c-0.42 0.7-1.17 1.09-1.93 1.09z"/>
		<path id="&lt;Path&gt;" class="s2" d="m468.24 233.21c-1 0-1.92-0.67-2.18-1.69-3.05-11.77-11.17-12.65-14.54-12.51-5.55 0.26-10.76 3.71-11.37 7.52-0.2 1.23-1.34 2.06-2.58 1.87-1.23-0.2-2.07-1.35-1.87-2.58 0.95-5.98 7.81-10.94 15.61-11.31 9.23-0.47 16.42 5.49 19.11 15.88 0.31 1.21-0.41 2.44-1.61 2.75q-0.29 0.07-0.57 0.07z"/>
		<path id="&lt;Path&gt;" class="s2" d="m453.48 232.01q-0.26 0.01-0.53-0.06c-1.21-0.29-1.95-1.51-1.66-2.72l2.79-11.56c0.3-1.21 1.53-1.96 2.72-1.67 1.21 0.3 1.96 1.51 1.66 2.72l-2.79 11.57c-0.25 1.03-1.17 1.72-2.19 1.72z"/>
		<path id="&lt;Path&gt;" class="s1" d="m984.17 464.21c11-31.18 26.66-86.28 25.81-106-0.82-18.83-59.02-34.97-97.51-43.58 6.95-23.03 14.92-50.26 19.12-68.91l8.39-37.07c2.31-10.28-4.11-20.47-14.38-22.78-10.32-2.38-20.45 4.14-22.76 14.41l-8.33 37.07c-4.58 20.34-14.11 52.6-21.53 76.82-5.09 4.95-12.48 12.47-19.92 21.22-5.3-21.35-11.22-40.75-16.82-49.56-5.66-8.87-17.44-11.48-26.32-5.83-8.88 5.65-11.49 17.43-5.84 26.31 4.87 7.65 13.5 42.22 20.97 78.78-10.4 45.94 18.45 85.78 18.45 85.78l1.01 173.64c-3.15 2.73-5.96 5.06-8.2 6.75-16.22 12.15-57.32 6.49-57.32 6.49 0 0-12.56 55.28-14.6 67.43-1.73 10.5 8.61 40.68-2.28 58.47 20.78 35.04 49.15 61.89 87.34 63.54 126.43 5.49 135.08-82.92 135.58-184.63z"/>
		<path id="&lt;Compound Path&gt;" class="s2" d="m860.4 850.83q-0.01 0-0.02 0c-3.58 0-7.29-0.66-11.03-0.82-34.63-1.49-64.63-23.53-89.18-64.93-0.42-0.72-0.42-1.76 0.02-2.47 6.92-11.3 4.64-28.85 2.98-41.61-0.87-6.64-1.62-12.4-1-16.16 2.02-12.08 14.11-65.32 14.62-67.58 0.26-1.13 1.35-1.91 2.51-1.74 0.09 0.01 9.56 1.3 20.98 1.3 16.26 0 28.25-2.55 34.67-7.36 1.91-1.43 4.36-3.44 7.3-5.97l-1-171.9c-3.71-5.35-28.15-42.84-18.5-86.53-8.3-40.53-16.36-70.94-20.57-77.54-6.31-9.91-3.38-23.11 6.53-29.43 3.43-2.18 7.38-3.33 11.43-3.33 7.33 0 14.06 3.69 17.99 9.86 4.77 7.48 10.16 22.95 16.06 46.02 6.39-7.28 12.49-13.47 16.8-17.68 7.24-23.64 16.75-55.82 21.32-76.11l8.33-37.07c2.21-9.8 10.71-16.65 20.68-16.65q2.41 0 4.79 0.55c11.43 2.57 18.65 13.99 16.07 25.46l-8.4 37.08c-4.28 19.04-12.42 46.71-18.45 66.75 63.62 14.41 96.22 29.6 96.9 45.15 0.87 20.14-14.83 75.27-25.8 106.47l0.86 198.53c-0.51 102.39-10.41 187.71-126.89 187.71zm-95.67-67.2c23.59 39.27 52.12 60.07 84.81 61.48 3.68 0.16 7.33 0.41 10.84 0.41q0.01 0 0.02 0c52.59 0 85.51-17.38 103.61-54.33 16.91-34.51 18.54-82.48 18.77-128.56l-0.86-198.37q-0.01-0.4 0.12-0.78c11.29-32.02 26.5-86.38 25.69-105.16-0.56-12.88-35.46-28-95.75-41.48-0.61-0.14-1.14-0.53-1.46-1.07-0.31-0.54-0.39-1.19-0.21-1.79 6.07-20.11 14.66-49.11 19.08-68.76l8.39-37.07c2.04-9.04-3.65-18.05-12.67-20.08q-1.9-0.44-3.79-0.44c-7.85 0-14.54 5.41-16.28 13.14l-8.34 37.07c-4.63 20.58-14.28 53.23-21.57 76.99q-0.17 0.55-0.58 0.96c-4.88 4.74-12.28 12.25-19.77 21.06-0.55 0.64-1.42 0.92-2.24 0.73-0.82-0.19-1.46-0.83-1.67-1.65-6.19-24.92-11.75-41.37-16.54-48.89-3.1-4.87-8.41-7.77-14.19-7.77-3.19 0-6.31 0.91-9.01 2.63-7.81 4.97-10.12 15.38-5.15 23.2 5.46 8.56 14.57 46.7 21.28 79.53q0.09 0.48-0.01 0.95c-10.06 44.44 17.79 83.58 18.07 83.97 0.28 0.38 0.43 0.84 0.43 1.31l1.01 173.64c0.01 0.66-0.28 1.28-0.77 1.71-3.37 2.93-6.17 5.23-8.33 6.85-7.32 5.48-19.89 8.26-37.38 8.26-8.67 0-16.09-0.7-19.54-1.09-2.26 9.99-12.34 54.67-14.12 65.32-0.51 3.09 0.19 8.51 1.01 14.79 1.7 13.01 4 30.69-2.9 43.29z"/>
		<path id="&lt;Path&gt;" class="s2" d="m903.49 459.12q-0.11-0.02-0.22-0.07c-0.81-0.33-1.2-1.26-0.86-2.07 23.85-58.07-26.04-85.01-28.17-86.13-0.78-0.41-1.08-1.36-0.67-2.14 0.41-0.78 1.39-1.09 2.14-0.68 0.55 0.29 54.6 29.38 29.63 90.16-0.3 0.73-1.1 1.12-1.85 0.93z"/>
		<path id="&lt;Path&gt;" class="s2" d="m986.32 365.82q-0.23-0.02-0.46-0.11c-0.7-0.28-70.45-28.07-96.53-35.69-0.84-0.25-1.32-1.13-1.08-1.98 0.25-0.83 1.1-1.31 1.97-1.07 26.23 7.66 96.12 35.51 96.82 35.79 0.81 0.33 1.21 1.25 0.89 2.06-0.27 0.67-0.93 1.06-1.61 1z"/>
		<path id="&lt;Path&gt;" class="s1" d="m942.42 290.9c7.82 2.68 13.21 8.97 14.77 15.89 5.23-4 12.75-5.34 20.11-2.81 8.31 2.85 14.05 9.74 15.18 17.18 0.16 1.06 0.16 2.13 0.13 3.21 4.69-4.16 11.86-5.67 18.89-3.26 7.45 2.56 12.59 8.73 13.6 15.4 0.36 2.34 0.21 4.74-0.53 7.06l-15.97 50.21c-2.86 8.95-13.32 13.41-23.38 9.96-7.07-2.43-11.98-8.12-13.34-14.4-4.75 6.99-14.45 10.05-23.89 6.81-7.81-2.68-13.25-8.93-14.83-15.85-5.22 3.97-12.71 5.29-20.06 2.77-8.51-2.92-13.98-10.1-14.9-17.74 3.82-24.85 10.59-42.52 21.13-73.97 4.48-1.64 17.9-2.24 23.09-0.46z"/>
		<path id="&lt;Compound Path&gt;" class="s2" d="m992.11 407.16c-2.56 0-5.13-0.43-7.62-1.29-6.13-2.1-11.02-6.54-13.49-12.04-3.95 3.73-9.45 5.87-15.39 5.87-2.8 0-5.62-0.48-8.35-1.42-7.18-2.46-12.84-7.86-15.38-14.47-5.68 3.1-12.92 3.65-19.51 1.39-8.9-3.06-15.34-10.75-16.41-19.6q-0.04-0.31 0.01-0.61c3.31-21.5 8.73-37.48 16.94-61.66q2.03-5.97 4.28-12.69c0.22-0.65 0.72-1.16 1.37-1.4 3.17-1.16 9.38-1.68 14.12-1.68 3.17 0 7.57 0.21 10.47 1.21 7.15 2.45 12.79 7.86 15.33 14.5 5.68-3.13 12.95-3.69 19.56-1.42 8.63 2.96 15.07 10.13 16.57 18.38 5.09-2.79 11.63-3.31 17.62-1.25 8.01 2.74 13.93 9.49 15.1 17.19 0.42 2.76 0.21 5.48-0.61 8.08l-15.98 50.21c-2.42 7.6-9.9 12.7-18.63 12.7zm-20.23-20.07q0.22 0 0.43 0.04c0.89 0.17 1.59 0.86 1.78 1.74 1.24 5.77 5.79 10.66 11.86 12.74q3.05 1.04 6.16 1.04c6.86 0 12.49-3.75 14.34-9.56l15.97-50.2q0.92-2.93 0.46-6.05c-0.93-6.05-5.68-11.39-12.11-13.6-5.95-2.04-12.46-0.91-16.67 2.81-0.67 0.6-1.64 0.74-2.45 0.36-0.82-0.38-1.33-1.21-1.3-2.11 0.03-0.92 0.04-1.89-0.1-2.81-1.04-6.85-6.41-12.88-13.68-15.38-6.3-2.16-13.25-1.18-18.01 2.47-0.6 0.47-1.41 0.59-2.13 0.33-0.73-0.26-1.27-0.87-1.44-1.62-1.46-6.48-6.56-11.95-13.3-14.26-1.78-0.61-5.07-0.96-9.01-0.96-4.42 0-9 0.45-11.58 1.11q-2.06 6.11-3.93 11.6c-8.09 23.84-13.44 39.63-16.7 60.58 0.97 7.02 6.19 13.11 13.36 15.58 6.28 2.15 13.21 1.19 17.97-2.43 0.61-0.47 1.41-0.59 2.13-0.33 0.72 0.26 1.26 0.87 1.43 1.62 1.47 6.45 6.59 11.9 13.36 14.22 2.26 0.78 4.58 1.17 6.89 1.17 5.99 0 11.38-2.66 14.41-7.12 0.42-0.62 1.13-0.98 1.86-0.98z"/>
		<path id="&lt;Path&gt;" class="s2" d="m933.85 380.77c-0.19 0.24-0.54 0.34-0.88 0.24-0.44-0.13-0.7-0.56-0.6-0.95l11.06-40.45c0.1-0.4 0.55-0.6 0.98-0.46 0.44 0.13 0.71 0.55 0.6 0.95l-11.05 40.45q-0.04 0.12-0.11 0.22z"/>
		<path id="&lt;Path&gt;" class="s2" d="m933.24 382.17q-0.31 0.01-0.6-0.09c-1.02-0.31-1.62-1.33-1.36-2.32l11.06-40.45c0.24-0.95 1.37-1.55 2.4-1.25 1.03 0.32 1.63 1.34 1.36 2.33l-11.06 40.46q-0.08 0.32-0.3 0.6c-0.34 0.45-0.91 0.72-1.5 0.72z"/>
		<path id="&lt;Path&gt;" class="s2" d="m978.11 373.96c-0.18 0.24-0.52 0.35-0.87 0.24-0.43-0.12-0.71-0.55-0.61-0.94l11.98-46.03c0.08-0.4 0.53-0.6 0.97-0.47 0.44 0.13 0.71 0.55 0.61 0.94l-11.97 46.03q-0.03 0.13-0.11 0.23z"/>
		<path id="&lt;Path&gt;" class="s2" d="m977.5 375.37q-0.29 0-0.58-0.09c-1.02-0.29-1.64-1.33-1.37-2.31l11.96-46.02c0.22-0.96 1.35-1.59 2.4-1.27 1.01 0.3 1.63 1.34 1.37 2.32l-11.97 46.02q-0.07 0.31-0.31 0.63c-0.34 0.45-0.9 0.72-1.5 0.72z"/>
		<path id="&lt;Path&gt;" class="s2" d="m972.56 389.81c-0.17 0.23-0.49 0.34-0.82 0.25-0.44-0.11-0.74-0.52-0.66-0.92l1.33-6.56c0.09-0.4 0.51-0.63 0.95-0.52 0.44 0.11 0.74 0.52 0.66 0.92l-1.33 6.56q-0.04 0.16-0.13 0.27z"/>
		<path id="&lt;Path&gt;" class="s2" d="m971.96 391.22l-0.5-0.06c-1.03-0.26-1.68-1.24-1.48-2.24l1.33-6.56c0.19-0.87 0.94-1.46 1.83-1.46l0.5 0.07c1.02 0.26 1.68 1.24 1.49 2.22l-1.34 6.58q-0.08 0.39-0.33 0.72c-0.35 0.46-0.91 0.73-1.5 0.73z"/>
		<path id="&lt;Path&gt;" class="s2" d="m931.52 361.61q0.01 0.11-0.02 0.22l-3.88 14.94c-0.06 0.23-0.23 0.4-0.46 0.48-0.36 0.14-8.91 3.08-18.37-1.59-0.42-0.22-0.6-0.69-0.42-1.05 0.19-0.38 0.69-0.51 1.11-0.3 7.68 3.79 14.91 2.08 16.59 1.6l3.7-14.24c-7.09-9.58-19.58-9.39-22.25-9.24l-3.43 12.33c-0.11 0.41-0.56 0.62-1.02 0.48-0.45-0.14-0.72-0.59-0.61-0.98l3.56-12.81c0.07-0.28 0.32-0.48 0.63-0.52 0.17-0.01 16.21-1.66 24.72 10.28q0.13 0.18 0.15 0.4z"/>
		<path id="&lt;Path&gt;" class="s2" d="m920.09 379.42c-4.14 0-8.11-0.93-11.8-2.75-0.97-0.5-1.38-1.65-0.93-2.56 0.47-0.91 1.68-1.28 2.62-0.81 3.08 1.52 6.42 2.29 9.94 2.29 2.33 0 4.18-0.35 5.22-0.6l3.4-13.07c-6.27-8.01-16.62-8.45-20.16-8.39l-3.2 11.53c-0.27 1-1.39 1.59-2.44 1.25-1.03-0.31-1.65-1.37-1.37-2.36l3.56-12.8c0.19-0.72 0.82-1.25 1.6-1.33 0.04-0.01 0.89-0.1 2.28-0.1 4.73 0 16.51 1.06 23.48 10.83q0.31 0.46 0.35 0.97l0.02 0.18-0.07 0.4-3.88 14.96c-0.15 0.58-0.59 1.05-1.17 1.26-0.12 0.04-3.09 1.1-7.45 1.1z"/>
		<path id="&lt;Path&gt;" class="s2" d="m969.33 373.16q0 0.12-0.02 0.22l-3.89 14.95c-0.05 0.22-0.22 0.4-0.45 0.48-0.36 0.13-8.91 3.07-18.37-1.59-0.42-0.22-0.6-0.7-0.42-1.06 0.19-0.37 0.69-0.5 1.11-0.29 7.68 3.78 14.91 2.08 16.58 1.6l3.7-14.24c-7.08-9.58-19.57-9.4-22.24-9.24l-3.43 12.33c-0.11 0.41-0.56 0.62-1.02 0.48-0.45-0.14-0.72-0.6-0.61-0.99l3.55-12.8c0.08-0.28 0.33-0.48 0.64-0.52 0.17-0.02 16.21-1.66 24.72 10.27q0.13 0.19 0.15 0.4z"/>
		<path id="&lt;Path&gt;" class="s2" d="m957.89 390.97c-4.13 0-8.1-0.92-11.79-2.74-0.98-0.51-1.39-1.65-0.93-2.57 0.46-0.91 1.67-1.27 2.61-0.81 3.09 1.52 6.44 2.29 9.96 2.29 2.32 0 4.17-0.34 5.21-0.59l3.4-13.08c-6.27-8.01-16.62-8.48-20.16-8.39l-3.2 11.54c-0.27 1-1.4 1.59-2.45 1.25-1.02-0.31-1.64-1.37-1.36-2.36l3.56-12.8c0.19-0.72 0.81-1.25 1.59-1.34 0.11-0.01 0.94-0.09 2.28-0.09 4.74 0 16.52 1.05 23.49 10.83q0.31 0.45 0.35 0.97l0.02 0.18-0.07 0.4-3.88 14.95c-0.15 0.59-0.6 1.06-1.19 1.26-0.09 0.04-3.03 1.1-7.44 1.1z"/>
		<path id="&lt;Path&gt;" class="s2" d="m1007.28 381.5q0 0.11-0.03 0.21l-3.67 14.15c-0.06 0.22-0.22 0.38-0.43 0.46-0.34 0.12-8.44 2.91-17.4-1.51-0.4-0.21-0.57-0.66-0.4-1 0.18-0.36 0.65-0.48 1.05-0.28 7.28 3.59 14.12 1.97 15.71 1.52l3.5-13.49c-6.71-9.07-18.54-8.9-21.07-8.75l-3.24 11.68c-0.11 0.38-0.54 0.59-0.97 0.45-0.43-0.13-0.69-0.56-0.58-0.93l3.37-12.13c0.07-0.27 0.3-0.46 0.6-0.49 0.16-0.02 15.36-1.57 23.42 9.73q0.12 0.18 0.14 0.38z"/>
		<path id="&lt;Path&gt;" class="s2" d="m996.44 398.43c-3.92 0-7.69-0.88-11.19-2.61-0.96-0.5-1.36-1.62-0.91-2.51 0.45-0.89 1.63-1.25 2.56-0.79 2.91 1.43 6.07 2.16 9.39 2.16 2.17 0 3.9-0.31 4.89-0.55l3.21-12.32c-5.9-7.51-15.64-8.02-18.98-7.91l-3.03 10.89c-0.26 0.97-1.36 1.55-2.38 1.23-1.01-0.31-1.61-1.35-1.34-2.32l3.37-12.12c0.19-0.7 0.8-1.22 1.56-1.31 0.07-0.01 0.87-0.09 2.17-0.09 4.5 0 15.67 1.01 22.29 10.29q0.32 0.45 0.35 0.95l0.01 0.17-0.06 0.37-3.68 14.19c-0.14 0.57-0.58 1.04-1.16 1.23-0.1 0.04-2.91 1.05-7.07 1.05z"/>
		<path id="&lt;Path&gt;" class="s3" d="m305.92 407.32c-68.65 32.67-143.64 213.77-143.64 213.77 0 0-4.79 21.54 36.7 43.88 41.48 22.34 142.01 30.32 153.18 27.13 11.17-3.19 17.55-113.29 17.55-113.29 0 0-1.59-57.45-17.55-106.91-15.96-49.46-46.24-64.58-46.24-64.58z"/>
		<path id="&lt;Compound Path&gt;" class="s2" d="m342.62 696.86q-0.01 0-0.01 0c-27.24 0-107.57-9-144.7-28.99-42.5-22.88-38.04-45.86-37.83-46.81 0.03-0.13 0.07-0.48 0.12-0.6 3.07-7.43 76.11-182.4 144.76-215.06 0.62-0.3 1.35-0.35 1.97-0.04 1.27 0.63 31.31 16.08 47.37 65.88 15.87 49.2 17.65 106.94 17.66 107.52-0.02 0.47-1.63 28.08-4.6 55.74-6.14 57.36-11.84 59.9-14.58 60.68-1.8 0.52-5.12 1.68-10.16 1.68zm-178.16-75.14c-0.25 1.86-1.82 21.64 35.59 41.78 35.91 19.34 116.54 28.05 142.56 28.05q0 0 0.01 0c6.19 0 8.3-0.93 8.92-1.11 6-2.66 12.94-60.08 15.92-111.51-0.02-0.37-1.78-57.63-17.45-106.21-13.87-43.02-39-59.75-44.16-62.8-65.72 32.73-138.32 204.46-141.39 211.8z"/>
		<path id="&lt;Path&gt;" class="s2" d="m190.09 617.88c-15.96-2.39-19.04 5.61-19.83 8-0.8 2.39 1.59 12.76 14.36 18.35 12.76 5.58 149.19 42.28 158.76 42.28 9.58 0 6.18-6.35 0.21-12.58-5.98-6.23-153.5-56.05-153.5-56.05z"/>
		<path id="&lt;Path&gt;" class="s1" d="m787.23 691.81c22.13 4.38 43.27 11.77 65.41 16.2 5.77 1.16 11.83 2.1 17.69 0.8 5.2-1.15 9.76-3.97 14.19-6.74q17-10.61 34.01-21.22c2.15-1.34 4.36-2.73 5.85-4.66 1.58-2.03 2.2-4.48 2.82-6.85 8.23-31.9 19.43-63.32 33.47-93.83-8.23 0.1-16.34-2.37-22.55-6.88q-16.79 20.52-33.59 41.03c-10.62 12.98-21.66 26.92-22.86 42.58-0.88-7.54-10.82-10.89-19.34-11.87-14.7-1.69-29.74-0.77-44.67-0.37-26.72 0.72-53.42-0.25-79.81-2.91-27.27-2.74-53.14-9.24-79.96-13.25-5.44 8.85-5.71 23.67-7.89 33.65-0.16 0.73-0.31 1.52 0.02 2.18 0.54 1.08 2.08 1.39 3.41 1.6 17.48 2.8 32.46 11.84 49.01 17.23 25.04 8.16 52.91 7.76 79.28 12.29q2.76 0.48 5.51 1.02z"/>
		<path id="&lt;Compound Path&gt;" class="s2" d="m864.26 711.69h-0.01c-4.13 0-8.24-0.7-12.05-1.47-11.06-2.21-22.01-5.2-32.61-8.08-10.68-2.92-21.73-5.93-32.8-8.12q-2.72-0.54-5.45-1.01c-9.55-1.64-19.49-2.65-29.1-3.62-16.89-1.72-34.36-3.49-50.49-8.75-6.24-2.03-12.31-4.59-18.18-7.07-9.72-4.11-19.77-8.36-30.5-10.07-1.39-0.23-3.97-0.64-5.06-2.81-0.71-1.43-0.39-2.85-0.21-3.69 0.64-2.91 1.11-6.28 1.61-9.85 1.18-8.39 2.51-17.9 6.56-24.49 0.47-0.77 1.37-1.18 2.25-1.05 10.74 1.6 21.48 3.64 31.86 5.6 15.59 2.95 31.7 6 48 7.64 26.11 2.63 52.93 3.61 79.52 2.9q3.7-0.1 7.4-0.23c5.83-0.19 11.86-0.39 17.8-0.39 7.59 0 13.88 0.32 19.79 1 4.4 0.51 13.13 2.11 17.97 7.02 3.51-14.05 13.76-26.57 22.23-36.92l33.59-41.03c0.75-0.92 2.1-1.09 3.07-0.39 5.73 4.16 13.09 6.44 20.73 6.44h0.46q0.01 0 0.03 0c0.76 0 1.47 0.39 1.89 1.03 0.42 0.65 0.47 1.46 0.15 2.17-13.94 30.31-25.15 61.76-33.33 93.46-0.65 2.49-1.37 5.27-3.22 7.66-1.75 2.27-4.24 3.82-6.44 5.19l-34.01 21.23c-4.33 2.7-9.24 5.77-14.9 7.02-2.06 0.46-4.2 0.68-6.55 0.68zm-212.18-53.06q0.42 0.21 1.71 0.42c11.26 1.8 21.57 6.15 31.54 10.37 5.78 2.44 11.76 4.97 17.81 6.94 15.68 5.1 32.9 6.85 49.56 8.54 9.68 0.99 19.7 2.01 29.4 3.67q2.79 0.48 5.56 1.03c11.23 2.22 22.36 5.25 33.12 8.19 10.52 2.86 21.4 5.83 32.3 8.01 3.59 0.72 7.43 1.39 11.17 1.39 2.02 0 3.85-0.19 5.59-0.58 4.9-1.09 9.27-3.81 13.49-6.45l34-21.22c1.97-1.23 4.01-2.5 5.27-4.13 1.28-1.65 1.83-3.76 2.4-6 7.98-30.91 18.81-61.55 32.21-91.15-6.76-0.48-13.24-2.56-18.65-6.01l-32.29 39.44c-9.43 11.52-21.17 25.86-22.35 41.32-0.09 1.16-1.04 2.05-2.2 2.08-1.22-0.06-2.15-0.84-2.28-1.99-0.7-5.9-9.43-8.98-17.36-9.89-5.74-0.66-11.87-0.97-19.28-0.97-5.86 0-11.86 0.2-17.66 0.39q-3.71 0.12-7.42 0.22c-26.77 0.72-53.79-0.27-80.09-2.92-16.5-1.66-32.71-4.72-48.38-7.69-9.85-1.87-20.02-3.79-30.17-5.34-3.01 5.78-4.17 14.08-5.21 21.47-0.51 3.66-0.99 7.11-1.67 10.2-0.03 0.14-0.1 0.45-0.12 0.66z"/>
		<path id="&lt;Path&gt;" class="s2" d="m908.86 651.59c0 0-8.25-2.01-26.33 3.1-18.08 5.11-27.76 10.66-27.76 10.66l23.26 21.85 37.48-22.39z"/>
		<path id="&lt;Path&gt;" class="s5" d="m844.41 956.57c0 0 35.98 2.41 57.37-19.48l7.03-287.12c0 0-19.43 29.2-54.17 13.6z"/>
		<path id="&lt;Compound Path&gt;" class="s2" d="m847.63 958.9q0 0 0 0c-2.14 0-3.37-0.08-3.37-0.08-1.21-0.09-2.15-1.12-2.1-2.33l10.23-293c0.02-0.75 0.42-1.44 1.06-1.83 0.63-0.4 1.43-0.45 2.11-0.14 6.49 2.91 12.87 4.39 18.97 4.39 20.65-0.01 32.29-17.02 32.41-17.19 0.56-0.83 1.6-1.2 2.55-0.89 0.96 0.3 1.6 1.2 1.57 2.2l-7.03 287.12c-0.01 0.57-0.24 1.11-0.64 1.52-17.84 18.26-44.94 20.23-55.76 20.23zm-0.89-4.51q0.41 0 0.89 0.01c7.9 0 34.77-1.33 51.92-18.26l6.85-279.78c-5.52 5.69-16.29 14.05-31.87 14.05-5.77 0-11.72-1.18-17.75-3.51z"/>
		<path id="&lt;Path&gt;" class="s6" d="m854.64 663.57l-208.75-21.3c-4-0.41-7.49 2.72-7.51 6.75l-1.35 253.94c-0.02 3.19 2.17 5.96 5.28 6.68l202.1 46.93z"/>
		<path id="&lt;Compound Path&gt;" class="s2" d="m844.41 958.82q-0.26 0-0.51-0.06l-202.1-46.93c-4.16-0.96-7.05-4.61-7.02-8.88l1.35-253.94c0.03-5.29 4.6-9.5 9.99-8.98l208.75 21.3c1.18 0.12 2.06 1.13 2.02 2.32l-10.23 293c-0.02 0.67-0.34 1.3-0.88 1.71-0.4 0.3-0.88 0.46-1.37 0.46zm-199.22-314.33c-2.5 0-4.54 2.04-4.56 4.54l-1.34 253.95c-0.02 2.14 1.43 3.98 3.52 4.46l199.44 46.31 10.06-288.15-206.65-21.09q-0.24-0.02-0.47-0.02z"/>
		<path id="&lt;Path&gt;" class="s6" d="m908.81 649.97l54.91-81.67c0.63-0.94 2.11-0.48 2.1 0.66l-4.35 292.74-59.69 75.39z"/>
		<path id="&lt;Compound Path&gt;" class="s2" d="m901.78 939.35q-0.39 0-0.76-0.14c-0.92-0.33-1.51-1.2-1.49-2.17l7.03-287.12q0.02-0.66 0.38-1.2l54.91-81.67c1.15-1.71 3.83-1.93 5.25-0.49 0.64 0.65 0.98 1.52 0.97 2.44l-4.34 292.73c-0.01 0.5-0.18 0.98-0.49 1.37l-59.69 75.39c-0.44 0.55-1.09 0.86-1.77 0.86zm9.27-288.67l-6.85 279.73 55.03-69.51 4.28-288.24z"/>
		<path id="&lt;Path&gt;" class="s2" d="m854.29 682.54l-0.37 10.58c8.25 1.68 20.59 3.19 33.28 0.98 7.15-1.24 14.38-3.71 21.04-7.93l0.33-13.41c-16.51 15.46-42.07 12.44-54.28 9.78z"/>
		<path id="&lt;Path&gt;" class="s2" d="m845.62 915.88l-0.37 10.64c7.96 1.9 22.09 4.24 36.63 1.72 6.81-1.19 13.69-3.46 20.09-7.32l0.32-13.17c-18.33 16.04-46.77 10.69-56.67 8.13z"/>
		<path id="&lt;Path&gt;" class="s2" d="m861.62 891.71q-0.26 0.04-0.54 0.03c-1.43-0.04-2.55-1.24-2.51-2.68l5.45-169.59c0.05-1.44 1.24-2.6 2.68-2.51 1.43 0.04 2.56 1.24 2.51 2.68l-5.45 169.59c-0.04 1.26-0.96 2.27-2.14 2.48z"/>
		<path id="&lt;Path&gt;" class="s2" d="m879.99 895.1q-0.27 0.05-0.56 0.04c-1.43-0.07-2.54-1.29-2.48-2.72l3.71-81.01c0.07-1.43 1.28-2.55 2.71-2.48 1.44 0.07 2.55 1.28 2.48 2.72l-3.71 81.01c-0.06 1.24-0.97 2.24-2.15 2.44z"/>
		<path id="&lt;Path&gt;" class="s1" d="m151.79 799.46c-1.05-83.64 32.18-180.09 32.18-180.09 116.68 11.27 157.41 55.82 157.41 55.82l-13.69 69.78 208.09 13.73c74.28-10.45 103.19 4.25 103.19 4.25l-2.43 31.68c0 0-1.7 13.04 31.92 41.25 32.07 26.9 41.19 29.41 59.19 39.21 18.43 10.03 45.23 21.15 35.6 39.37-9.62 18.22-33.86 10.43-33.86 10.43 0 0 4.02 11.77-8.53 21.1-12.55 9.33-39.22-2.44-39.22-2.44-2.7 40.99-41.82 21.44-41.82 21.44 0 0-13.57 10.1-27.51 0.8-13.94-9.3-76.75-58.81-87.35-57.96-10.6 0.86-143.4 2.74-143.4 2.74l-0.37-0.52c-50.62 3.39-102.28 4.21-142.37-1.13-34.84-4.64-60.95-13.92-70.02-30.22-12-21.55-16.64-49.6-17.01-79.24z"/>
		<path id="&lt;Compound Path&gt;" class="s2" d="m624.98 971.98c-4.94 0-9.63-1.46-13.92-4.32-3.61-2.41-10.25-7.33-18.66-13.55-20.77-15.39-59.44-44.03-67.16-44.03-10.65 0.86-138.22 2.67-143.65 2.75-0.42 0.01-0.99-0.16-1.39-0.46-26.46 1.75-50.97 2.64-72.85 2.64-26.45 0-49.6-1.3-68.83-3.86-38.87-5.17-62.99-15.72-71.69-31.35-11.06-19.85-16.88-46.87-17.3-80.31-1.04-83.07 31.98-179.89 32.31-180.86 0.34-0.98 1.32-1.59 2.35-1.51 116.21 11.23 157.17 54.71 158.85 56.55 0.49 0.53 0.69 1.25 0.55 1.96l-13.19 67.26 205.3 13.54c17.7-2.48 34.34-3.73 49.44-3.73 38.19 0 54.18 7.91 54.85 8.24 0.81 0.42 1.29 1.28 1.22 2.18l-2.42 31.68c-0.02 0.18-0.55 12.79 31.12 39.35 26.21 21.99 36.66 27.4 49.88 34.25 2.82 1.46 5.74 2.97 8.94 4.71 2.05 1.11 4.21 2.25 6.4 3.4 13.26 6.95 28.29 14.82 31.69 25.78 1.33 4.28 0.8 8.73-1.58 13.22-4.59 8.69-12.96 13.29-24.21 13.29-3.51 0-6.64-0.46-8.87-0.91 0.33 4.71-0.69 13.02-9.96 19.91-3.6 2.68-8.49 4.04-14.51 4.04-9.39 0-19.31-3.26-24.08-5.07-2.43 20.68-14.59 25.14-24.61 25.14-8.28 0-16.07-3.05-18.99-4.34-2.33 1.44-7.98 4.41-15.03 4.41zm-99.74-66.41c8.51 0 36.67 20.34 69.84 44.91 8.36 6.2 14.97 11.09 18.48 13.43 3.54 2.36 7.38 3.56 11.42 3.56 7.64 0 13.44-4.24 13.49-4.28 0.69-0.51 1.59-0.59 2.35-0.21 0.09 0.04 8.99 4.42 18.18 4.42 12.48 0 19.34-8.08 20.39-24 0.05-0.73 0.45-1.4 1.08-1.78 0.63-0.38 1.41-0.43 2.08-0.13 0.13 0.06 13.4 5.85 25.14 5.84 5.03 0 9.01-1.06 11.82-3.15 11.1-8.26 7.79-18.46 7.75-18.56-0.27-0.81-0.07-1.7 0.52-2.31 0.6-0.6 1.49-0.83 2.3-0.57 0.05 0.02 4.92 1.55 10.95 1.55 9.61 0 16.41-3.66 20.23-10.88 1.82-3.45 2.23-6.65 1.25-9.79-2.84-9.16-16.99-16.58-29.47-23.12q-3.34-1.74-6.47-3.43c-3.16-1.73-6.06-3.23-8.85-4.67-12.94-6.7-24.12-12.49-50.71-34.8-33.59-28.18-32.89-41.8-32.7-43.26l2.29-29.96c-4.51-1.8-20.57-7.18-51.46-7.18-14.96 0-31.46 1.26-49.05 3.73q-0.23 0.03-0.46 0.02l-208.09-13.73c-0.64-0.04-1.24-0.36-1.63-0.87-0.4-0.52-0.55-1.17-0.43-1.81l13.46-68.61c-6.13-5.92-48.93-43.67-153.4-54.15-4.37 13.22-32.46 101.37-31.5 177.66 0.41 32.67 6.04 58.97 16.73 78.17 7.97 14.32 30.96 24.1 68.34 29.08 19.04 2.53 41.99 3.82 68.24 3.82 22.1 0 46.89-0.92 73.69-2.71 0.57-0.03 1.15 0.15 1.58 0.5 12.78-0.18 132.26-1.91 142.15-2.71q0.23-0.02 0.47-0.02z"/>
		<path id="&lt;Path&gt;" class="s2" d="m729.58 925.93q-0.33 0.06-0.65-0.09c-0.32-0.15-32.21-15.7-52.19-32.25-0.45-0.37-0.51-1.04-0.14-1.49 0.38-0.45 1.04-0.52 1.5-0.14 19.78 16.38 51.44 31.82 51.76 31.97 0.52 0.26 0.74 0.9 0.49 1.42-0.16 0.32-0.45 0.53-0.77 0.58z"/>
		<path id="&lt;Path&gt;" class="s2" d="m681.82 944.59q-0.28 0.05-0.56-0.05c-26.61-10.13-42.31-26.22-42.47-26.38-0.4-0.42-0.39-1.09 0.03-1.5 0.42-0.4 1.09-0.4 1.5 0.03 0.15 0.15 15.55 15.91 41.7 25.87 0.54 0.2 0.82 0.82 0.61 1.37-0.14 0.36-0.45 0.6-0.81 0.66z"/>
		<path id="&lt;Path&gt;" class="s2" d="m640 966.04q-0.37 0.06-0.71-0.13c-20.67-11.83-29.17-19.43-29.52-19.75-0.44-0.39-0.47-1.06-0.08-1.49 0.39-0.44 1.06-0.47 1.5-0.08 0.08 0.08 8.72 7.78 29.15 19.48 0.51 0.29 0.69 0.94 0.4 1.45-0.17 0.28-0.44 0.47-0.74 0.52z"/>
		<path id="&lt;Path&gt;" class="s2" d="m662.64 858.59q-0.39 0.07-0.75-0.14l-13.27-8.4c-0.49-0.31-0.64-0.97-0.33-1.46 0.31-0.49 0.97-0.64 1.46-0.33l13.27 8.39c0.5 0.32 0.65 0.97 0.33 1.47-0.16 0.26-0.43 0.42-0.71 0.47z"/>
		<path id="&lt;Path&gt;" class="s2" d="m655.63 862.4q-0.11 0.02-0.23 0.01c-0.59-0.03-1.04-0.53-1.01-1.11l0.79-14.99c0.04-0.59 0.55-1.02 1.12-1.01 0.59 0.04 1.03 0.53 1.01 1.12l-0.8 14.99c-0.03 0.5-0.4 0.91-0.88 0.99z"/>
		<path id="&lt;Path&gt;" class="s2" d="m627.69 886.69q-0.39 0.07-0.75-0.15l-13.26-8.39c-0.5-0.31-0.64-0.97-0.33-1.46 0.31-0.5 0.97-0.64 1.46-0.33l13.27 8.39c0.49 0.31 0.64 0.97 0.33 1.46-0.17 0.27-0.43 0.43-0.72 0.48z"/>
		<path id="&lt;Path&gt;" class="s2" d="m620.69 890.49q-0.12 0.02-0.24 0.02c-0.58-0.03-1.03-0.53-1-1.12l0.79-14.99c0.04-0.58 0.55-1.02 1.12-1 0.58 0.03 1.03 0.53 1 1.12l-0.79 14.99c-0.03 0.5-0.4 0.9-0.88 0.98z"/>
		<path id="&lt;Path&gt;" class="s2" d="m597.66 911.48q-0.38 0.07-0.74-0.15l-13.27-8.39c-0.49-0.32-0.64-0.97-0.33-1.47 0.32-0.49 0.97-0.64 1.46-0.33l13.27 8.4c0.5 0.31 0.64 0.97 0.33 1.46-0.17 0.27-0.43 0.43-0.72 0.48z"/>
		<path id="&lt;Path&gt;" class="s2" d="m590.66 915.29q-0.11 0.02-0.23 0.01c-0.59-0.03-1.04-0.53-1.01-1.11l0.79-14.99c0.04-0.59 0.55-1.01 1.12-1.01 0.59 0.03 1.03 0.53 1 1.12l-0.79 14.99c-0.03 0.5-0.4 0.9-0.88 0.99z"/>
		<path id="&lt;Path&gt;" class="s2" d="m498.76 756.12c0 0-25.03 71.04-17.11 152.21l-20.08 0.53c0 0-8.56-104.99 19.93-154.58z"/>
		<path id="&lt;Path&gt;" class="s1" d="m494.92 849.56c-2.38-13.7-15.41-22.87-29.11-20.49-13.69 2.38-22.86 15.41-20.48 29.1 2.38 13.7 15.41 22.87 29.1 20.49 13.7-2.38 22.87-15.41 20.49-29.1z"/>
		<path id="&lt;Compound Path&gt;" class="s2" d="m474.61 879.71c-14.25 2.47-27.85-7.11-30.33-21.35-2.47-14.25 7.1-27.86 21.35-30.34 14.25-2.47 27.86 7.11 30.33 21.36 2.48 14.25-7.1 27.85-21.35 30.33zm-8.62-49.6c-13.09 2.28-21.9 14.79-19.62 27.88 2.28 13.1 14.78 21.9 27.88 19.63 13.09-2.28 21.9-14.79 19.62-27.88-2.27-13.1-14.78-21.9-27.88-19.63z"/>
		<path id="&lt;Path&gt;" class="s1" d="m451.2 853.3l18.92 0.56-3.35-7.93"/>
		<path id="&lt;Path&gt;" class="s2" d="m470.3 854.91q-0.1 0.02-0.21 0.01l-18.92-0.56c-0.59-0.02-1.05-0.51-1.03-1.09 0.02-0.59 0.52-1.03 1.09-1.03l17.27 0.52-2.7-6.42c-0.23-0.54 0.02-1.16 0.56-1.38 0.57-0.25 1.16 0.02 1.39 0.56l3.35 7.93c0.14 0.33 0.1 0.72-0.11 1.02-0.16 0.23-0.41 0.39-0.69 0.44z"/>
		<path id="&lt;Path&gt;" class="s1" d="m566.77 194.26c-0.4 5.58 6.38 12.76 7.18 17.15 0.8 4.39-7.18 9.58-7.18 9.58"/>
		<path id="&lt;Path&gt;" class="s2" d="m566.77 223.24c-0.73 0-1.45-0.36-1.89-1.02-0.67-1.05-0.38-2.44 0.66-3.12 2.82-1.84 6.54-5.39 6.19-7.28-0.25-1.41-1.55-3.63-2.81-5.77-2.2-3.73-4.68-7.96-4.39-11.95 0.08-1.24 1.19-2.19 2.4-2.09 1.24 0.09 2.18 1.17 2.09 2.41-0.19 2.6 1.92 6.18 3.78 9.35 1.53 2.59 2.97 5.05 3.37 7.24 1.01 5.58-6.63 10.86-8.17 11.86q-0.58 0.37-1.23 0.37z"/>
		<path id="&lt;Path&gt;" class="s7" d="m373.32 301.7h-225.64c-9.46 0-16.98-7.63-16.98-16.98v-116.69c0-9.46 7.63-16.98 16.98-16.98h225.64c9.46 0 16.98 7.63 16.98 16.98v116.69c0.11 9.35-7.52 16.98-16.98 16.98z"/>
		<path id="&lt;Path&gt;" class="s4" d="m200.16 260.8v26.88h-40.89v-26.88z"/>
		<path id="&lt;Path&gt;" class="s4" d="m258.45 238.74v48.49h-40.89v-48.49z"/>
		<path id="&lt;Path&gt;" class="s4" d="m314.62 209.97v77.26h-40.89v-77.26z"/>
		<path id="&lt;Path&gt;" class="s4" d="m370.92 180.67v106.56h-40.9v-106.56z"/>
		<path id="&lt;Path&gt;" class="s4" d="m154.73 251.19c-2.12 0-4.13-1.2-5.07-3.25-1.29-2.8-0.07-6.11 2.73-7.4l138.53-63.77c2.8-1.29 6.11-0.06 7.4 2.73 1.29 2.8 0.06 6.12-2.74 7.4l-138.53 63.78q-1.14 0.51-2.32 0.51z"/>
		<path id="&lt;Path&gt;" class="s4" d="m294.13 203.38q-1.09 0-2.16-0.44c-2.84-1.19-4.18-4.46-2.98-7.3l5.95-14.18-15-2.93c-3.02-0.59-4.99-3.52-4.4-6.54 0.59-3.02 3.52-4.99 6.54-4.4l21.72 4.24c1.65 0.32 3.06 1.36 3.85 2.84 0.79 1.48 0.88 3.24 0.23 4.79l-8.61 20.5c-0.89 2.13-2.96 3.42-5.14 3.42z"/>
		<path id="&lt;Path&gt;" class="s1" d="m672.82 231.46l49.95-14.52c7.3 6.82 15.96 12.31 25.81 15.94 42.1 15.54 89.67-8.32 106.27-53.28 16.59-44.96-4.09-94.01-46.18-109.54-42.1-15.53-89.68 8.32-106.27 53.28-6.84 18.56-7.33 37.8-2.6 55.1z"/>
		<path id="&lt;Compound Path&gt;" class="s8" d="m775.12 239.88c-9.34 0-18.54-1.64-27.32-4.88-9.48-3.5-18.09-8.73-25.62-15.55l-48.73 14.17c-0.85 0.26-1.79-0.03-2.36-0.72-0.57-0.69-0.68-1.66-0.27-2.46l26.58-52.25c-4.81-18.26-3.81-37.47 2.89-55.63 13.13-35.59 46.02-59.5 81.84-59.5 9.34 0 18.53 1.64 27.31 4.88 43.2 15.94 64.51 66.38 47.52 112.44-13.13 35.59-46.02 59.5-81.84 59.5zm-52.35-25.2c0.56 0 1.12 0.21 1.54 0.61 7.31 6.83 15.74 12.04 25.05 15.48 8.28 3.05 16.95 4.61 25.76 4.61 33.94 0 65.13-22.73 77.61-56.56 16.14-43.73-3.98-91.57-44.85-106.65-8.28-3.05-16.94-4.6-25.75-4.6-33.94 0-65.13 22.73-77.61 56.55-6.48 17.55-7.36 36.13-2.55 53.72 0.15 0.54 0.09 1.12-0.16 1.62l-24.62 48.38 44.95-13.07q0.31-0.09 0.63-0.09z"/>
		<path id="&lt;Path&gt;" class="s2" d="m742.54 165.24c-7.2 0-13.01-5.82-13.01-13.02 0-7.19 5.81-13.01 13.01-13.01 7.2 0 13.02 5.82 13.02 13.01 0 7.2-5.82 13.02-13.02 13.02z"/>
		<path id="&lt;Path&gt;" class="s2" d="m781.58 165.24c-7.19 0-13.01-5.82-13.01-13.02 0-7.19 5.82-13.01 13.01-13.01 7.2 0 13.02 5.82 13.02 13.01 0 7.2-5.82 13.02-13.02 13.02z"/>
		<path id="&lt;Path&gt;" class="s2" d="m820.63 165.24c-7.2 0-13.02-5.82-13.02-13.02 0-7.19 5.82-13.01 13.02-13.01 7.19 0 13.01 5.82 13.01 13.01 0 7.2-5.82 13.02-13.01 13.02z"/>
		<path id="&lt;Compound Path&gt;" class="s5" d="m92.17 605.76v428.01h271.03zm42.92 380v-224.7l139.13 224.7z"/>
		<path id="&lt;Compound Path&gt;" class="s2" d="m363.21 1036.02h-271.04c-1.25 0-2.26-1.01-2.26-2.25v-428.01c0-1.01 0.67-1.89 1.63-2.17 0.96-0.29 1.99 0.11 2.53 0.96l271.04 428.01c0.44 0.7 0.47 1.58 0.07 2.3-0.4 0.72-1.15 1.16-1.97 1.16zm-268.79-4.5h264.69l-264.69-417.99zm179.79-43.51h-139.13c-1.24 0-2.25-1.01-2.25-2.25v-224.7c0-1.01 0.67-1.9 1.64-2.17 0.96-0.27 2 0.12 2.53 0.98l139.13 224.7c0.43 0.7 0.45 1.57 0.05 2.28-0.4 0.72-1.15 1.16-1.97 1.16zm-136.88-4.51h132.84l-132.84-214.52z"/>
		<path id="&lt;Path&gt;" class="s2" d="m119.05 1013.22v1.8h-26.88v-1.8z"/>
		<path id="&lt;Path&gt;" class="s2" d="m120.17 1012.09v4.06h-29.13v-4.06z"/>
		<path id="&lt;Path&gt;" class="s2" d="m107.46 1007.46v-1.81h-15.29v1.81z"/>
		<path id="&lt;Path&gt;" class="s2" d="m108.58 1004.52v4.06h-17.54v-4.06z"/>
		<path id="&lt;Path&gt;" class="s2" d="m107.46 1000.79v-1.8h-15.29v1.8z"/>
		<path id="&lt;Path&gt;" class="s2" d="m108.58 997.86v4.06h-17.54v-4.06z"/>
		<path id="&lt;Path&gt;" class="s2" d="m107.46 994.02v-1.81h-15.29v1.81z"/>
		<path id="&lt;Path&gt;" class="s2" d="m108.58 991.08v4.06h-17.54v-4.06z"/>
		<path id="&lt;Path&gt;" class="s2" d="m107.46 987.47v-1.81h-15.29v1.81z"/>
		<path id="&lt;Path&gt;" class="s2" d="m108.58 984.53v4.06h-17.54v-4.06z"/>
		<path id="&lt;Path&gt;" class="s2" d="m119.05 978.21v1.8h-26.88v-1.8z"/>
		<path id="&lt;Path&gt;" class="s2" d="m120.17 977.08v4.06h-29.13v-4.06z"/>
		<path id="&lt;Path&gt;" class="s2" d="m107.46 972.45v-1.81h-15.29v1.81z"/>
		<path id="&lt;Path&gt;" class="s2" d="m108.58 969.51v4.06h-17.54v-4.06z"/>
		<path id="&lt;Path&gt;" class="s2" d="m107.46 965.78v-1.8h-15.29v1.8z"/>
		<path id="&lt;Path&gt;" class="s2" d="m108.58 962.85v4.06h-17.54v-4.06z"/>
		<path id="&lt;Path&gt;" class="s2" d="m107.46 959.01v-1.81h-15.29v1.81z"/>
		<path id="&lt;Path&gt;" class="s2" d="m108.58 956.08v4.06h-17.54v-4.06z"/>
		<path id="&lt;Path&gt;" class="s2" d="m107.46 952.46v-1.81h-15.29v1.81z"/>
		<path id="&lt;Path&gt;" class="s2" d="m108.58 949.53v4.06h-17.54v-4.06z"/>
		<path id="&lt;Path&gt;" class="s2" d="m119.05 944.1v1.81h-26.88v-1.81z"/>
		<path id="&lt;Path&gt;" class="s2" d="m120.17 942.97v4.06h-29.13v-4.06z"/>
		<path id="&lt;Path&gt;" class="s2" d="m107.46 938.34v-1.8h-15.29v1.8z"/>
		<path id="&lt;Path&gt;" class="s2" d="m108.58 935.41v4.06h-17.54v-4.06z"/>
		<path id="&lt;Path&gt;" class="s2" d="m107.46 931.68v-1.81h-15.29v1.81z"/>
		<path id="&lt;Path&gt;" class="s2" d="m108.58 928.74v4.07h-17.54v-4.07z"/>
		<path id="&lt;Path&gt;" class="s2" d="m107.46 924.9v-1.8h-15.29v1.8z"/>
		<path id="&lt;Path&gt;" class="s2" d="m108.58 921.97v4.06h-17.54v-4.06z"/>
		<path id="&lt;Path&gt;" class="s2" d="m107.46 918.35v-1.8h-15.29v1.8z"/>
		<path id="&lt;Path&gt;" class="s2" d="m108.58 915.42v4.06h-17.54v-4.06z"/>
		<path id="&lt;Path&gt;" class="s2" d="m119.05 909.09v1.81h-26.88v-1.81z"/>
		<path id="&lt;Path&gt;" class="s2" d="m120.17 907.97v4.06h-29.13v-4.06z"/>
		<path id="&lt;Path&gt;" class="s2" d="m107.46 903.33v-1.8h-15.29v1.8z"/>
		<path id="&lt;Path&gt;" class="s2" d="m108.58 900.4v4.06h-17.54v-4.06z"/>
		<path id="&lt;Path&gt;" class="s2" d="m107.46 896.67v-1.81h-15.29v1.81z"/>
		<path id="&lt;Path&gt;" class="s2" d="m108.58 893.74v4.06h-17.54v-4.06z"/>
		<path id="&lt;Path&gt;" class="s2" d="m107.46 889.89v-1.8h-15.29v1.8z"/>
		<path id="&lt;Path&gt;" class="s2" d="m108.58 886.96v4.06h-17.54v-4.06z"/>
		<path id="&lt;Path&gt;" class="s2" d="m107.46 883.34v-1.8h-15.29v1.8z"/>
		<path id="&lt;Path&gt;" class="s2" d="m108.58 880.41v4.06h-17.54v-4.06z"/>
		<path id="&lt;Path&gt;" class="s2" d="m119.05 874.65v1.81h-26.88v-1.81z"/>
		<path id="&lt;Path&gt;" class="s2" d="m120.17 873.52v4.06h-29.13v-4.06z"/>
		<path id="&lt;Path&gt;" class="s2" d="m107.46 868.89v-1.81h-15.29v1.81z"/>
		<path id="&lt;Path&gt;" class="s2" d="m108.58 865.96v4.05h-17.54v-4.05z"/>
		<path id="&lt;Path&gt;" class="s2" d="m107.46 862.23v-1.81h-15.29v1.81z"/>
		<path id="&lt;Path&gt;" class="s2" d="m108.58 859.29v4.06h-17.54v-4.06z"/>
		<path id="&lt;Path&gt;" class="s2" d="m107.46 855.45v-1.81h-15.29v1.81z"/>
		<path id="&lt;Path&gt;" class="s2" d="m108.58 852.51v4.07h-17.54v-4.07z"/>
		<path id="&lt;Path&gt;" class="s2" d="m107.46 848.9v-1.81h-15.29v1.81z"/>
		<path id="&lt;Path&gt;" class="s2" d="m108.58 845.97v4.06h-17.54v-4.06z"/>
		<path id="&lt;Path&gt;" class="s2" d="m119.05 839.64v1.81h-26.88v-1.81z"/>
		<path id="&lt;Path&gt;" class="s2" d="m120.17 838.51v4.06h-29.13v-4.06z"/>
		<path id="&lt;Path&gt;" class="s2" d="m107.46 833.88v-1.81h-15.29v1.81z"/>
		<path id="&lt;Path&gt;" class="s2" d="m108.58 830.95v4.06h-17.54v-4.06z"/>
		<path id="&lt;Path&gt;" class="s2" d="m107.46 827.22v-1.81h-15.29v1.81z"/>
		<path id="&lt;Path&gt;" class="s2" d="m108.58 824.28v4.06h-17.54v-4.06z"/>
		<path id="&lt;Path&gt;" class="s2" d="m107.46 820.44v-1.81h-15.29v1.81z"/>
		<path id="&lt;Path&gt;" class="s2" d="m108.58 817.51v4.06h-17.54v-4.06z"/>
		<path id="&lt;Path&gt;" class="s2" d="m107.46 813.89v-1.81h-15.29v1.81z"/>
		<path id="&lt;Path&gt;" class="s2" d="m108.58 810.96v4.06h-17.54v-4.06z"/>
		<path id="&lt;Path&gt;" class="s2" d="m119.05 805.53v1.81h-26.88v-1.81z"/>
		<path id="&lt;Path&gt;" class="s2" d="m120.17 804.41v4.06h-29.13v-4.06z"/>
		<path id="&lt;Path&gt;" class="s2" d="m107.46 799.77v-1.8h-15.29v1.8z"/>
		<path id="&lt;Path&gt;" class="s2" d="m108.58 796.84v4.06h-17.54v-4.06z"/>
		<path id="&lt;Path&gt;" class="s2" d="m107.46 793.11v-1.81h-15.29v1.81z"/>
		<path id="&lt;Path&gt;" class="s2" d="m108.58 790.18v4.06h-17.54v-4.06z"/>
		<path id="&lt;Path&gt;" class="s2" d="m107.46 786.33v-1.8h-15.29v1.8z"/>
		<path id="&lt;Path&gt;" class="s2" d="m108.58 783.4v4.06h-17.54v-4.06z"/>
		<path id="&lt;Path&gt;" class="s2" d="m107.46 779.78v-1.8h-15.29v1.8z"/>
		<path id="&lt;Path&gt;" class="s2" d="m108.58 776.85v4.06h-17.54v-4.06z"/>
		<path id="&lt;Path&gt;" class="s2" d="m119.05 770.52v1.81h-26.88v-1.81z"/>
		<path id="&lt;Path&gt;" class="s2" d="m120.17 769.4v4.06h-29.13v-4.06z"/>
		<path id="&lt;Path&gt;" class="s2" d="m107.46 764.76v-1.8h-15.29v1.8z"/>
		<path id="&lt;Path&gt;" class="s2" d="m108.58 761.83v4.06h-17.54v-4.06z"/>
		<path id="&lt;Path&gt;" class="s2" d="m107.46 758.1v-1.81h-15.29v1.81z"/>
		<path id="&lt;Path&gt;" class="s2" d="m108.58 755.17v4.06h-17.54v-4.06z"/>
		<path id="&lt;Path&gt;" class="s2" d="m107.46 751.33v-1.81h-15.29v1.81z"/>
		<path id="&lt;Path&gt;" class="s2" d="m108.58 748.39v4.06h-17.54v-4.06z"/>
		<path id="&lt;Path&gt;" class="s2" d="m107.46 744.78v-1.81h-15.29v1.81z"/>
		<path id="&lt;Path&gt;" class="s2" d="m108.58 741.84v4.06h-17.54v-4.06z"/>
		<path id="&lt;Path&gt;" class="s2" d="m119.05 733.71v1.81h-26.88v-1.81z"/>
		<path id="&lt;Path&gt;" class="s2" d="m120.17 732.58v4.06h-29.13v-4.06z"/>
		<path id="&lt;Path&gt;" class="s2" d="m107.46 727.95v-1.81h-15.29v1.81z"/>
		<path id="&lt;Path&gt;" class="s2" d="m108.58 725.02v4.06h-17.54v-4.06z"/>
		<path id="&lt;Path&gt;" class="s2" d="m107.46 721.29v-1.81h-15.29v1.81z"/>
		<path id="&lt;Path&gt;" class="s2" d="m108.58 718.35v4.06h-17.54v-4.06z"/>
		<path id="&lt;Path&gt;" class="s2" d="m107.46 714.51v-1.81h-15.29v1.81z"/>
		<path id="&lt;Path&gt;" class="s2" d="m108.58 711.58v4.06h-17.54v-4.06z"/>
		<path id="&lt;Path&gt;" class="s2" d="m107.46 707.96v-1.81h-15.29v1.81z"/>
		<path id="&lt;Path&gt;" class="s2" d="m108.58 705.03v4.06h-17.54v-4.06z"/>
		<path id="&lt;Path&gt;" class="s2" d="m119.05 698.7v1.81h-26.88v-1.81z"/>
		<path id="&lt;Path&gt;" class="s2" d="m120.17 697.57v4.06h-29.13v-4.06z"/>
		<path id="&lt;Path&gt;" class="s2" d="m107.46 692.94v-1.81h-15.29v1.81z"/>
		<path id="&lt;Path&gt;" class="s2" d="m108.58 690.01v4.06h-17.54v-4.06z"/>
		<path id="&lt;Path&gt;" class="s2" d="m107.46 686.28v-1.81h-15.29v1.81z"/>
		<path id="&lt;Path&gt;" class="s2" d="m108.58 683.34v4.06h-17.54v-4.06z"/>
		<path id="&lt;Path&gt;" class="s2" d="m107.46 679.5v-1.81h-15.29v1.81z"/>
		<path id="&lt;Path&gt;" class="s2" d="m108.58 676.57v4.06h-17.54v-4.06z"/>
		<path id="&lt;Path&gt;" class="s2" d="m107.46 672.95v-1.81h-15.29v1.81z"/>
		<path id="&lt;Path&gt;" class="s2" d="m108.58 670.02v4.06h-17.54v-4.06z"/>
	</g>
</svg>