<svg xmlns="http://www.w3.org/2000/svg" width="1024" height="1024" viewBox="0 0 1024 1024">
<g>
<path d="M 647.00 866.13 C647.00,867.95 643.63,868.00 530.50,868.00 L 414.00 868.00 L 414.00 830.32 C414.00,792.35 413.79,789.71 410.16,782.13 C407.34,776.22 406.02,775.86 383.25,774.88 C356.18,773.70 329.79,771.27 324.62,769.46 C322.35,768.67 319.51,768.02 318.31,768.01 C317.10,768.01 315.84,767.55 315.50,767.00 C315.16,766.45 313.90,765.99 312.69,765.98 C310.24,765.95 301.53,761.56 297.89,758.50 C289.04,751.09 281.99,739.01 280.04,727.93 C279.41,724.39 278.47,719.03 277.94,716.00 C276.36,706.94 274.82,684.76 274.29,663.50 C274.02,652.50 273.38,642.99 272.87,642.36 C272.35,641.73 268.01,639.97 263.22,638.44 C258.42,636.92 254.07,635.29 253.55,634.84 C253.03,634.38 252.05,634.00 251.37,634.00 C248.47,634.00 236.74,627.64 233.52,624.31 C230.59,621.30 230.00,619.97 230.00,616.34 C230.00,613.82 230.98,609.99 232.32,607.25 C235.46,600.80 242.05,588.81 243.36,587.14 C243.94,586.40 244.89,584.95 245.46,583.93 C246.72,581.68 256.68,565.10 258.03,563.00 C264.43,553.06 270.01,543.11 277.36,528.50 C281.11,521.04 281.41,519.81 281.80,510.35 C282.08,503.53 281.70,497.61 280.64,492.35 C277.62,477.34 276.71,462.16 277.93,447.48 C279.18,432.49 281.40,419.36 283.58,414.15 C284.36,412.28 285.00,410.03 285.00,409.15 C285.00,407.68 287.28,401.25 290.54,393.50 C292.49,388.89 298.60,376.75 300.91,372.93 C302.05,371.04 303.28,368.88 303.65,368.11 C306.85,361.48 324.07,340.01 334.22,330.02 C341.63,322.72 356.84,310.90 366.00,305.31 C373.13,300.97 389.63,292.87 397.50,289.86 C400.25,288.81 403.40,287.54 404.50,287.05 C408.51,285.24 425.56,280.00 427.41,280.00 C428.46,280.00 431.61,279.35 434.41,278.56 C437.21,277.77 444.90,276.21 451.50,275.09 C486.38,269.17 522.51,267.79 546.00,271.49 C550.67,272.22 556.97,273.10 560.00,273.44 C568.07,274.35 593.28,280.09 596.64,281.78 C597.66,282.30 600.97,283.49 604.00,284.44 C609.52,286.17 620.99,290.52 623.93,292.00 C624.79,292.43 630.22,295.14 636.00,298.02 C655.56,307.76 672.46,320.31 691.07,338.93 C705.63,353.49 720.43,374.59 729.69,394.00 C732.71,400.33 735.59,406.28 736.09,407.24 C736.59,408.19 737.00,409.45 737.00,410.04 C737.00,410.63 737.85,413.00 738.89,415.30 C739.92,417.61 741.10,421.08 741.50,423.00 C741.90,424.92 742.59,426.95 743.03,427.50 C744.55,429.41 749.57,456.98 750.62,469.22 L 751.28 476.95 L 746.57 478.97 C741.02,481.35 740.70,483.91 745.76,485.55 C747.54,486.13 749.51,487.11 750.14,487.74 C751.52,489.12 751.37,503.62 749.85,516.50 C749.27,521.45 748.42,529.78 747.97,535.00 C747.07,545.50 744.97,556.32 743.17,559.68 C742.53,560.89 742.00,562.88 742.00,564.11 C742.00,566.65 738.44,577.44 733.47,590.00 C728.02,603.74 727.22,604.98 722.38,607.05 C717.60,609.10 716.89,610.83 720.02,612.78 C722.02,614.03 722.02,614.08 719.41,618.77 C717.96,621.37 715.99,624.62 715.05,626.00 C714.10,627.38 713.02,629.17 712.65,630.00 C711.87,631.70 708.19,637.41 702.85,645.19 C698.86,650.99 674.13,679.90 664.95,689.50 C652.89,702.10 643.47,714.97 638.58,725.50 C634.22,734.89 634.46,734.21 631.09,746.25 C629.36,752.44 628.81,770.36 629.95,783.94 C631.38,801.04 632.21,805.94 637.57,829.00 C638.40,832.58 639.54,837.97 640.09,841.00 C640.65,844.03 641.53,846.93 642.05,847.45 C642.57,847.97 643.00,849.15 643.00,850.07 C643.00,850.99 643.90,854.56 645.00,858.00 C646.10,861.44 647.00,865.10 647.00,866.13 ZM 465.76 616.04 C475.58,617.83 497.45,615.91 506.00,612.49 C507.92,611.72 513.78,610.13 519.00,608.96 C541.39,603.91 546.49,602.41 546.81,600.75 C547.04,599.56 545.94,598.80 542.81,597.97 C540.44,597.34 532.64,594.02 525.48,590.59 C510.16,583.26 504.00,578.20 504.00,572.98 C504.00,565.77 510.44,563.81 517.01,569.01 C522.47,573.33 536.25,580.40 545.12,583.43 C562.43,589.34 568.72,590.25 594.61,590.60 C618.31,590.93 618.93,590.99 630.11,594.17 C640.30,597.07 642.87,597.41 654.50,597.41 C674.33,597.42 685.74,593.49 695.96,583.13 C702.19,576.81 706.52,568.73 710.50,556.00 C713.86,545.27 714.86,530.07 713.89,504.87 C713.25,488.17 713.37,485.82 715.22,479.00 C720.76,458.63 714.55,435.76 699.39,420.70 C694.86,416.19 685.47,410.60 683.63,411.31 C682.91,411.59 681.12,414.28 679.64,417.31 C673.72,429.40 658.05,442.23 651.27,440.53 C647.11,439.49 646.00,438.12 646.00,434.03 C646.00,429.86 647.67,427.87 653.10,425.60 C657.62,423.72 663.91,416.89 666.98,410.53 C668.96,406.45 669.46,403.58 669.81,394.41 C670.09,387.18 669.81,381.90 669.01,379.38 C667.03,373.19 662.10,363.87 658.20,359.00 C646.26,344.06 634.18,338.00 616.29,338.00 C606.45,338.00 604.01,339.54 603.99,345.75 C603.98,350.83 601.04,362.21 596.26,375.65 C592.81,385.34 592.39,387.44 593.04,391.65 C593.45,394.32 593.72,396.54 593.64,396.58 C593.56,396.63 591.03,397.53 588.00,398.59 C580.78,401.13 580.88,402.92 588.41,405.59 C591.66,406.74 593.86,407.97 593.30,408.32 C592.73,408.66 591.71,411.10 591.03,413.72 C590.35,416.35 589.58,419.29 589.32,420.26 C589.07,421.23 587.61,422.66 586.09,423.45 C583.62,424.73 583.01,424.68 580.24,423.00 C576.60,420.79 576.23,419.01 577.28,409.00 C577.71,404.88 577.80,400.43 577.48,399.13 C576.96,397.01 576.49,396.82 573.20,397.35 C568.02,398.17 556.40,404.25 550.74,409.10 C544.62,414.33 538.06,423.62 534.18,432.53 C530.38,441.27 528.24,454.77 529.56,461.65 L 530.50 466.50 L 544.45 466.78 C562.75,467.15 568.33,466.00 573.25,460.84 C575.31,458.68 577.00,456.32 577.00,455.59 C577.00,453.55 580.99,448.95 583.64,447.95 C587.28,446.56 590.84,448.65 591.59,452.60 C592.99,460.10 585.27,471.68 575.78,476.31 C568.74,479.75 563.95,480.72 547.97,481.94 C534.60,482.97 531.74,483.48 512.50,488.31 C499.83,491.49 497.62,491.81 480.00,492.96 C461.43,494.17 452.66,496.17 441.55,501.72 C430.41,507.29 425.57,511.22 418.62,520.34 C407.42,535.04 402.90,550.18 405.10,565.68 C408.28,588.19 435.07,610.42 465.76,616.04 ZM 379.10 533.87 C390.82,535.82 394.40,535.00 395.47,530.12 C396.93,523.51 403.57,513.33 412.35,504.24 C429.76,486.25 445.23,479.48 474.62,477.02 C481.70,476.42 489.08,475.69 491.00,475.40 C498.66,474.21 513.57,470.66 514.75,469.73 C515.61,469.06 516.00,465.41 516.00,457.99 C516.00,445.77 518.07,433.24 521.48,424.86 C529.22,405.81 552.17,386.45 572.36,381.94 C577.97,380.69 578.32,380.43 580.20,376.07 C584.66,365.75 588.04,353.70 589.11,344.35 C590.18,334.94 590.12,334.14 588.00,329.23 C584.83,321.85 578.77,316.63 570.35,314.02 C556.07,309.61 540.71,310.36 524.50,316.28 C513.33,320.35 512.75,320.42 508.39,318.22 C494.19,311.05 473.48,310.53 458.55,316.97 C452.74,319.47 444.61,325.13 441.45,328.86 C440.22,330.31 437.96,332.85 436.43,334.50 L 433.63 337.50 L 417.07 337.57 C404.06,337.63 399.32,338.03 395.00,339.43 C375.14,345.85 360.23,358.77 353.44,375.44 C351.97,379.05 350.15,381.36 347.10,383.50 C339.96,388.50 331.18,397.03 327.58,402.44 C320.87,412.56 320.09,419.12 319.71,468.50 C319.60,483.34 321.17,489.50 327.67,499.74 C332.27,506.98 346.02,520.82 352.16,524.38 C357.99,527.76 371.97,532.69 379.10,533.87 ZM 474.17 577.35 C473.17,578.26 470.87,579.00 469.08,579.00 C466.40,579.00 464.67,577.85 459.39,572.58 C452.39,565.58 449.06,559.54 449.02,553.82 C448.98,547.34 454.47,544.87 459.73,549.00 C466.19,554.08 482.95,548.70 499.63,536.18 C512.51,526.51 512.13,526.63 532.00,525.96 C548.28,525.40 550.33,525.11 561.50,521.77 C568.10,519.80 576.88,517.41 581.00,516.47 C595.81,513.10 610.36,504.52 617.64,494.83 C621.69,489.45 626.28,480.04 627.55,474.50 C628.72,469.40 630.77,467.00 633.95,467.00 C637.51,467.00 641.00,471.01 641.00,475.10 C641.00,478.59 637.59,487.98 634.15,494.00 C622.17,514.93 603.37,527.73 579.04,531.55 C576.59,531.93 571.64,533.36 568.04,534.72 C556.43,539.10 545.62,540.95 531.59,540.98 C517.16,541.00 515.91,541.44 504.00,550.53 C497.28,555.66 488.19,560.26 481.50,561.92 C478.75,562.61 475.45,563.59 474.18,564.10 L 471.85 565.02 L 473.93 568.38 C476.48,572.52 476.56,575.19 474.17,577.35 ZM 465.36 462.75 C463.76,465.30 458.00,465.91 456.17,463.71 C453.18,460.11 452.07,443.65 454.05,432.43 C456.59,418.12 464.26,400.01 472.04,389.96 C477.17,383.33 489.36,371.54 497.45,365.38 C508.38,357.05 530.51,348.00 539.94,348.00 C543.86,348.00 547.00,350.64 547.00,353.93 C547.00,357.64 545.64,358.63 536.69,361.47 C526.30,364.77 515.31,369.99 506.92,375.63 C498.73,381.12 486.15,394.14 479.68,403.82 C470.84,417.05 468.24,426.07 467.36,446.50 C466.96,455.88 466.30,461.24 465.36,462.75 ZM 387.69 479.83 C384.68,482.64 381.78,482.58 378.34,479.61 C375.68,477.33 375.54,476.75 375.17,466.61 L 374.77 455.99 L 371.00 453.00 C366.05,449.08 357.81,445.31 351.16,443.93 C344.88,442.63 342.00,440.14 342.00,436.02 C342.00,431.51 345.62,429.56 352.52,430.37 C358.26,431.05 372.68,435.90 376.62,438.49 C377.89,439.32 379.64,440.00 380.50,440.00 C382.64,440.00 393.83,430.88 393.99,429.00 C394.07,428.17 394.86,428.96 395.75,430.75 C396.63,432.54 397.92,434.00 398.61,434.00 C399.30,434.00 400.73,431.64 401.79,428.75 C402.85,425.86 403.98,422.83 404.28,422.00 C404.61,421.12 404.87,421.62 404.92,423.18 C405.00,425.82 405.07,425.85 410.53,425.28 C415.38,424.78 416.37,425.00 418.53,427.03 C421.51,429.83 421.77,434.23 419.11,436.89 C418.06,437.94 415.02,439.08 412.25,439.47 C405.33,440.42 397.23,445.51 393.25,451.41 C390.09,456.10 390.00,456.51 390.00,466.94 C390.00,476.84 389.83,477.82 387.69,479.83 ZM 638.66 567.94 C620.37,574.24 594.43,569.35 581.25,557.13 C575.98,552.24 577.42,545.00 583.66,545.00 C585.04,545.00 588.95,546.54 592.34,548.42 C602.76,554.22 610.23,556.25 621.00,556.22 C636.25,556.18 645.70,551.36 651.06,540.87 C653.30,536.50 657.06,535.16 660.59,537.47 C670.09,543.69 657.23,561.55 638.66,567.94 ZM 470.07 379.96 C466.30,381.98 463.52,381.10 458.96,376.46 C449.93,367.25 437.24,364.25 424.88,368.39 C416.13,371.32 410.74,367.90 413.56,361.19 C417.25,352.42 440.96,349.83 454.94,356.67 C457.97,358.15 463.05,361.90 466.23,364.98 C471.44,370.05 472.00,371.01 472.00,374.76 C472.00,377.86 471.50,379.20 470.07,379.96 ZM 699.11 518.94 C696.91,520.12 685.16,520.20 680.50,519.06 C669.48,516.38 661.00,505.04 661.00,492.97 C661.00,483.19 666.87,477.87 672.00,483.00 C673.47,484.47 674.00,486.33 674.00,490.03 C674.00,496.04 675.78,500.61 679.43,503.98 C682.09,506.44 683.58,506.67 698.72,506.98 C699.40,506.99 700.63,508.32 701.47,509.94 C703.26,513.40 702.25,517.26 699.11,518.94 Z" fill="rgb(24,97,167)"/>
<path d="M 465.76 616.04 C435.07,610.42 408.28,588.19 405.10,565.68 C402.90,550.18 407.42,535.04 418.62,520.34 C425.57,511.22 430.41,507.29 441.55,501.72 C452.66,496.17 461.43,494.17 480.00,492.96 C497.62,491.81 499.83,491.49 512.50,488.31 C531.74,483.48 534.60,482.97 547.97,481.94 C563.95,480.72 568.74,479.75 575.78,476.31 C585.27,471.68 592.99,460.10 591.59,452.60 C590.84,448.65 587.28,446.56 583.64,447.95 C580.99,448.95 577.00,453.55 577.00,455.59 C577.00,456.32 575.31,458.68 573.25,460.84 C568.33,466.00 562.75,467.15 544.45,466.78 L 530.50 466.50 L 529.56 461.65 C528.24,454.77 530.38,441.27 534.18,432.53 C538.06,423.62 544.62,414.33 550.74,409.10 C556.40,404.25 568.02,398.17 573.20,397.35 C576.49,396.82 576.96,397.01 577.48,399.13 C577.80,400.43 577.71,404.88 577.28,409.00 C576.23,419.01 576.60,420.79 580.24,423.00 C583.01,424.68 583.62,424.73 586.09,423.45 C587.61,422.66 589.07,421.23 589.32,420.26 C589.58,419.29 590.35,416.35 591.03,413.72 C591.71,411.10 592.73,408.66 593.30,408.32 C593.86,407.97 591.66,406.74 588.41,405.59 C587.24,405.17 586.25,404.78 585.43,404.40 C587.52,405.30 590.75,406.44 595.58,408.07 C602.21,410.30 608.24,412.96 609.17,414.06 C610.09,415.15 611.84,419.06 613.05,422.77 C614.26,426.47 616.15,431.64 617.25,434.25 C618.35,436.86 619.60,439.00 620.04,439.00 C621.58,439.00 624.84,432.42 626.99,425.00 C630.80,411.82 630.46,412.13 646.00,407.54 C661.40,403.00 661.57,401.17 647.00,396.58 C630.97,391.53 631.50,391.96 627.92,381.07 C626.19,375.81 623.88,369.75 622.80,367.62 C620.13,362.37 619.09,363.60 614.05,377.99 C611.61,384.94 609.20,390.10 607.94,391.04 C606.80,391.90 600.73,394.30 594.46,396.36 C590.66,397.62 587.17,398.90 584.93,399.84 C585.74,399.44 586.76,399.03 588.00,398.59 C591.03,397.53 593.56,396.63 593.64,396.58 C593.72,396.54 593.45,394.32 593.04,391.65 C592.39,387.44 592.81,385.34 596.26,375.65 C601.04,362.21 603.98,350.83 603.99,345.75 C604.01,339.54 606.45,338.00 616.29,338.00 C634.18,338.00 646.26,344.06 658.20,359.00 C662.10,363.87 667.03,373.19 669.01,379.38 C669.81,381.90 670.09,387.18 669.81,394.41 C669.46,403.58 668.96,406.45 666.98,410.53 C663.91,416.89 657.62,423.72 653.10,425.60 C647.67,427.87 646.00,429.86 646.00,434.03 C646.00,438.12 647.11,439.49 651.27,440.53 C658.05,442.23 673.72,429.40 679.64,417.31 C681.12,414.28 682.91,411.59 683.63,411.31 C685.47,410.60 694.86,416.19 699.39,420.70 C714.55,435.76 720.76,458.63 715.22,479.00 C713.37,485.82 713.25,488.17 713.89,504.87 C714.86,530.07 713.86,545.27 710.50,556.00 C706.52,568.73 702.19,576.81 695.96,583.13 C685.74,593.49 674.33,597.42 654.50,597.41 C642.87,597.41 640.30,597.07 630.11,594.17 C618.93,590.99 618.31,590.93 594.61,590.60 C568.72,590.25 562.43,589.34 545.12,583.43 C536.25,580.40 522.47,573.33 517.01,569.01 C510.44,563.81 504.00,565.77 504.00,572.98 C504.00,578.20 510.16,583.26 525.48,590.59 C532.64,594.02 540.44,597.34 542.81,597.97 C545.94,598.80 547.04,599.56 546.81,600.75 C546.49,602.41 541.39,603.91 519.00,608.96 C513.78,610.13 507.92,611.72 506.00,612.49 C497.45,615.91 475.58,617.83 465.76,616.04 ZM 379.10 533.87 C371.97,532.69 357.99,527.76 352.16,524.38 C346.02,520.82 332.27,506.98 327.67,499.74 C321.17,489.50 319.60,483.34 319.71,468.50 C320.09,419.12 320.87,412.56 327.58,402.44 C331.18,397.03 339.96,388.50 347.10,383.50 C350.15,381.36 351.97,379.05 353.44,375.44 C360.23,358.77 375.14,345.85 395.00,339.43 C399.32,338.03 404.06,337.63 417.07,337.57 L 433.63 337.50 L 436.43 334.50 C437.96,332.85 440.22,330.31 441.45,328.86 C444.61,325.13 452.74,319.47 458.55,316.97 C473.48,310.53 494.19,311.05 508.39,318.22 C512.75,320.42 513.33,320.35 524.50,316.28 C540.71,310.36 556.07,309.61 570.35,314.02 C578.77,316.63 584.83,321.85 588.00,329.23 C590.12,334.14 590.18,334.94 589.11,344.35 C588.04,353.70 584.66,365.75 580.20,376.07 C578.32,380.43 577.97,380.69 572.36,381.94 C552.17,386.45 529.22,405.81 521.48,424.86 C518.07,433.24 516.00,445.77 516.00,457.99 C516.00,465.41 515.61,469.06 514.75,469.73 C513.57,470.66 498.66,474.21 491.00,475.40 C489.08,475.69 481.70,476.42 474.62,477.02 C445.23,479.48 429.76,486.25 412.35,504.24 C403.57,513.33 396.93,523.51 395.47,530.12 C394.40,535.00 390.82,535.82 379.10,533.87 ZM 474.17 577.35 C476.56,575.19 476.48,572.52 473.93,568.38 L 471.85 565.02 L 474.18 564.10 C475.45,563.59 478.75,562.61 481.50,561.92 C488.19,560.26 497.28,555.66 504.00,550.53 C515.91,541.44 517.16,541.00 531.59,540.98 C545.62,540.95 556.43,539.10 568.04,534.72 C571.64,533.36 576.59,531.93 579.04,531.55 C603.37,527.73 622.17,514.93 634.15,494.00 C637.59,487.98 641.00,478.59 641.00,475.10 C641.00,471.01 637.51,467.00 633.95,467.00 C630.77,467.00 628.72,469.40 627.55,474.50 C626.28,480.04 621.69,489.45 617.64,494.83 C610.36,504.52 595.81,513.10 581.00,516.47 C576.88,517.41 568.10,519.80 561.50,521.77 C550.33,525.11 548.28,525.40 532.00,525.96 C512.13,526.63 512.51,526.51 499.63,536.18 C482.95,548.70 466.19,554.08 459.73,549.00 C454.47,544.87 448.98,547.34 449.02,553.82 C449.06,559.54 452.39,565.58 459.39,572.58 C464.67,577.85 466.40,579.00 469.08,579.00 C470.87,579.00 473.17,578.26 474.17,577.35 ZM 387.69 479.83 C389.83,477.82 390.00,476.84 390.00,466.94 C390.00,456.51 390.09,456.10 393.25,451.41 C397.23,445.51 405.33,440.42 412.25,439.47 C415.02,439.08 418.06,437.94 419.11,436.89 C421.77,434.23 421.51,429.83 418.53,427.03 C416.37,425.00 415.38,424.78 410.53,425.28 C405.07,425.85 405.00,425.82 404.92,423.18 C404.89,422.12 404.76,421.56 404.58,421.57 C404.93,420.72 405.23,420.00 405.47,419.50 C406.23,417.85 407.13,415.38 407.48,414.00 C408.84,408.69 411.54,406.87 424.50,402.54 C438.83,397.76 438.39,396.08 421.39,390.52 C413.15,387.82 409.99,386.32 409.16,384.69 C407.73,381.87 405.31,374.97 403.29,368.00 C400.04,356.74 397.57,357.61 393.07,371.60 C388.25,386.58 388.60,386.17 376.80,390.26 C371.14,392.22 365.49,394.12 364.25,394.48 C358.45,396.17 363.46,399.65 378.07,404.09 C381.90,405.25 385.85,406.95 386.85,407.85 C387.85,408.76 389.91,413.33 391.42,418.00 C392.93,422.67 394.87,428.19 395.74,430.25 C396.44,431.94 397.43,433.38 398.15,433.84 C397.44,433.42 396.46,432.19 395.75,430.75 C394.86,428.96 394.07,428.17 393.99,429.00 C393.83,430.88 382.64,440.00 380.50,440.00 C379.64,440.00 377.89,439.32 376.62,438.49 C372.68,435.90 358.26,431.05 352.52,430.37 C345.62,429.56 342.00,431.51 342.00,436.02 C342.00,440.14 344.88,442.63 351.16,443.93 C357.81,445.31 366.05,449.08 371.00,453.00 L 374.77 455.99 L 375.17 466.61 C375.54,476.75 375.68,477.33 378.34,479.61 C381.78,482.58 384.68,482.64 387.69,479.83 ZM 465.36 462.75 C466.30,461.24 466.96,455.88 467.36,446.50 C468.24,426.07 470.84,417.05 479.68,403.82 C486.15,394.14 498.73,381.12 506.92,375.63 C515.31,369.99 526.30,364.77 536.69,361.47 C545.64,358.63 547.00,357.64 547.00,353.93 C547.00,350.64 543.86,348.00 539.94,348.00 C530.51,348.00 508.38,357.05 497.45,365.38 C489.36,371.54 477.17,383.33 472.04,389.96 C464.26,400.01 456.59,418.12 454.05,432.43 C452.07,443.65 453.18,460.11 456.17,463.71 C458.00,465.91 463.76,465.30 465.36,462.75 ZM 638.66 567.94 C657.23,561.55 670.09,543.69 660.59,537.47 C657.06,535.16 653.30,536.50 651.06,540.87 C645.70,551.36 636.25,556.18 621.00,556.22 C610.23,556.25 602.76,554.22 592.34,548.42 C588.95,546.54 585.04,545.00 583.66,545.00 C577.42,545.00 575.98,552.24 581.25,557.13 C594.43,569.35 620.37,574.24 638.66,567.94 ZM 470.07 379.96 C471.50,379.20 472.00,377.86 472.00,374.76 C472.00,371.01 471.44,370.05 466.23,364.98 C463.05,361.90 457.97,358.15 454.94,356.67 C440.96,349.83 417.25,352.42 413.56,361.19 C410.74,367.90 416.13,371.32 424.88,368.39 C437.24,364.25 449.93,367.25 458.96,376.46 C463.52,381.10 466.30,381.98 470.07,379.96 ZM 647.00 866.13 C647.00,865.10 646.10,861.44 645.00,858.00 C643.90,854.56 643.00,850.99 643.00,850.07 C643.00,849.15 642.57,847.97 642.05,847.45 C641.53,846.93 640.65,844.03 640.09,841.00 C639.54,837.97 638.40,832.58 637.57,829.00 C632.21,805.94 631.38,801.04 629.95,783.94 C629.48,778.34 629.30,772.01 629.37,766.06 C629.33,772.94 629.67,780.26 630.41,786.17 C632.58,803.44 641.84,845.83 645.24,854.00 C646.53,857.10 648.09,863.67 648.32,867.00 L 648.50 869.50 L 531.42 869.75 C467.03,869.89 414.04,869.71 413.67,869.34 C413.30,868.97 412.98,852.20 412.96,832.08 C412.93,793.09 412.35,787.11 408.03,781.05 C406.84,779.37 404.88,777.81 403.68,777.57 C402.48,777.33 390.52,776.63 377.10,776.02 C334.60,774.08 320.96,771.71 306.22,763.71 C305.25,763.18 304.36,762.68 303.54,762.21 C307.19,764.24 311.16,765.96 312.69,765.98 C313.90,765.99 315.16,766.45 315.50,767.00 C315.84,767.55 317.10,768.01 318.31,768.01 C319.51,768.02 322.35,768.67 324.62,769.46 C329.79,771.27 356.18,773.70 383.25,774.88 C406.02,775.86 407.34,776.22 410.16,782.13 C413.79,789.71 414.00,792.35 414.00,830.32 L 414.00 868.00 L 530.50 868.00 C643.63,868.00 647.00,867.95 647.00,866.13 ZM 699.11 518.94 C702.25,517.26 703.26,513.40 701.47,509.94 C700.63,508.32 699.40,506.99 698.72,506.98 C683.58,506.67 682.09,506.44 679.43,503.98 C675.78,500.61 674.00,496.04 674.00,490.03 C674.00,486.33 673.47,484.47 672.00,483.00 C666.87,477.87 661.00,483.19 661.00,492.97 C661.00,505.04 669.48,516.38 680.50,519.06 C685.16,520.20 696.91,520.12 699.11,518.94 ZM 427.41 280.00 C426.59,280.00 422.79,281.03 418.46,282.33 C420.64,281.59 422.55,280.90 423.50,280.50 C428.89,278.25 437.17,276.00 440.08,276.00 C441.65,276.00 444.86,275.37 447.22,274.59 C449.57,273.82 458.02,272.35 466.00,271.34 C476.00,270.07 493.08,269.46 509.28,269.50 C491.28,269.85 471.19,271.75 451.50,275.09 C444.90,276.21 437.21,277.77 434.41,278.56 C431.61,279.35 428.46,280.00 427.41,280.00 ZM 750.14 487.74 C749.52,487.12 747.61,486.16 745.85,485.58 C747.95,486.26 749.37,486.74 750.31,487.69 C752.29,489.70 752.13,493.82 751.66,506.35 L 751.65 506.50 C751.08,521.66 749.98,530.22 746.07,549.17 C746.87,544.91 747.55,539.92 747.97,535.00 C748.42,529.78 749.27,521.45 749.85,516.50 C751.37,503.62 751.52,489.12 750.14,487.74 ZM 290.30 750.46 C286.04,745.06 281.62,736.32 280.55,731.00 C280.17,729.08 279.12,725.92 278.23,724.00 C276.77,720.83 275.89,709.73 274.88,679.82 C275.61,695.28 276.77,709.27 277.94,716.00 C278.47,719.03 279.41,724.39 280.04,727.93 C281.39,735.58 285.17,743.72 290.30,750.46 ZM 537.46 270.42 C540.64,270.66 543.37,270.95 545.50,271.29 C551.00,272.18 557.75,273.17 560.50,273.50 C563.01,273.80 567.21,274.57 571.87,275.54 C567.00,274.54 562.61,273.74 560.00,273.44 C556.97,273.10 550.67,272.22 546.00,271.49 C543.31,271.06 540.46,270.71 537.46,270.42 ZM 402.36 427.22 C402.17,427.72 401.98,428.24 401.79,428.75 C400.73,431.64 399.30,434.00 398.61,434.00 C398.60,434.00 398.60,434.00 398.59,434.00 C399.30,433.97 400.82,431.39 401.97,428.25 C402.10,427.91 402.22,427.57 402.36,427.22 ZM 634.91 733.70 C635.72,731.62 636.74,729.45 638.58,725.50 C636.73,729.48 635.66,731.82 634.91,733.70 ZM 273.47 646.39 C273.26,644.06 273.05,642.59 272.86,642.36 C272.60,642.04 271.33,641.42 269.52,640.68 C271.34,641.42 272.60,642.04 272.87,642.36 C273.06,642.59 273.27,644.07 273.47,646.39 ZM 632.95 739.67 C632.73,740.45 632.47,741.34 632.21,742.25 C632.48,741.29 632.72,740.44 632.95,739.67 ZM 404.60 287.00 C404.57,287.02 404.53,287.03 404.50,287.05 C404.09,287.23 403.39,287.52 402.53,287.88 C403.39,287.52 404.09,287.23 404.50,287.04 C404.53,287.03 404.56,287.02 404.60,287.00 Z" fill="rgb(42,152,244)"/>
<path d="M 751.28 476.95 L 750.63 469.38 C751.00,473.59 751.56,477.00 751.89,477.00 C753.80,477.00 768.00,471.69 768.75,470.69 C769.24,470.04 770.22,467.48 770.92,465.00 C773.19,457.02 778.12,445.00 779.13,445.00 C780.28,445.00 783.25,451.47 786.94,462.00 C788.39,466.12 789.88,470.00 790.25,470.60 C790.63,471.21 796.32,473.60 802.91,475.93 C815.25,480.28 818.05,481.97 815.76,483.68 C815.07,484.21 809.33,486.58 803.00,488.95 C790.20,493.75 789.00,494.44 789.00,497.09 C789.00,498.10 788.37,500.41 787.60,502.22 C786.83,504.02 784.98,508.79 783.49,512.80 C779.70,523.03 778.56,522.41 772.97,507.00 L 768.44 494.51 L 762.97 491.82 C759.96,490.34 756.33,489.10 754.91,489.06 L 752.31 489.00 L 751.74 504.22 C752.14,493.34 752.17,489.59 750.31,487.69 C749.37,486.74 747.95,486.26 745.85,485.58 L 745.76 485.55 C740.70,483.91 741.02,481.35 746.57,478.97 ZM 585.43 404.40 C581.92,402.76 581.76,401.41 584.93,399.84 C587.17,398.90 590.66,397.62 594.46,396.36 C600.73,394.30 606.80,391.90 607.94,391.04 C609.20,390.10 611.61,384.94 614.05,377.99 C619.09,363.60 620.13,362.37 622.80,367.62 C623.88,369.75 626.19,375.81 627.92,381.07 C631.50,391.96 630.97,391.53 647.00,396.58 C661.57,401.17 661.40,403.00 646.00,407.54 C630.46,412.13 630.80,411.82 626.99,425.00 C624.84,432.42 621.58,439.00 620.04,439.00 C619.60,439.00 618.35,436.86 617.25,434.25 C616.15,431.64 614.26,426.47 613.05,422.77 C611.84,419.06 610.09,415.15 609.17,414.06 C608.24,412.96 602.21,410.30 595.58,408.07 C590.75,406.44 587.52,405.30 585.43,404.40 ZM 755.49 372.25 C754.74,374.11 752.49,374.60 751.56,373.10 C750.70,371.70 745.99,358.05 744.63,353.00 C743.23,347.79 741.74,346.84 726.86,341.71 C714.13,337.32 714.15,335.88 727.00,331.29 C742.90,325.61 742.39,325.97 744.91,318.85 C752.45,297.53 753.10,296.70 756.33,304.06 C757.64,307.05 759.73,312.65 760.97,316.50 C762.21,320.35 763.97,324.25 764.87,325.16 C765.76,326.07 771.90,328.60 778.50,330.79 C786.00,333.27 790.50,335.27 790.50,336.11 C790.50,337.81 787.06,339.48 775.14,343.59 C770.00,345.36 765.41,347.19 764.95,347.66 C764.49,348.12 762.33,353.45 760.15,359.50 C757.97,365.55 755.87,371.29 755.49,372.25 ZM 728.02 602.37 C728.01,602.49 728.00,602.60 728.00,602.70 C728.00,605.94 741.83,601.72 743.67,597.92 C744.32,596.59 746.50,590.78 748.53,585.00 C750.56,579.22 752.63,574.07 753.12,573.54 C754.73,571.82 756.68,575.20 760.90,587.00 C765.06,598.64 766.68,601.00 770.49,601.00 C771.65,601.00 773.03,601.39 773.55,601.88 C774.07,602.36 777.65,603.77 781.50,605.01 C794.73,609.27 794.34,610.64 778.33,616.15 C771.36,618.54 765.33,621.17 764.93,622.00 C764.52,622.83 762.27,628.81 759.93,635.30 C757.58,641.78 755.24,647.35 754.72,647.67 C753.39,648.50 752.49,646.74 749.04,636.51 C743.89,621.25 743.87,621.21 733.05,617.33 C727.85,615.47 723.12,614.13 722.53,614.35 C722.09,614.52 721.32,615.42 720.63,616.53 C721.95,614.02 721.64,613.79 720.02,612.78 C716.89,610.83 717.60,609.10 722.38,607.05 C724.98,605.94 726.41,605.07 728.02,602.37 ZM 402.36 427.22 C402.22,427.57 402.10,427.91 401.97,428.25 C400.82,431.39 399.30,433.97 398.59,434.00 C398.46,434.00 398.32,433.94 398.15,433.84 C397.43,433.38 396.44,431.94 395.74,430.25 C394.87,428.19 392.93,422.67 391.42,418.00 C389.91,413.33 387.85,408.76 386.85,407.85 C385.85,406.95 381.90,405.25 378.07,404.09 C363.46,399.65 358.45,396.17 364.25,394.48 C365.49,394.12 371.14,392.22 376.80,390.26 C388.60,386.17 388.25,386.58 393.07,371.60 C397.57,357.61 400.04,356.74 403.29,368.00 C405.31,374.97 407.73,381.87 409.16,384.69 C409.99,386.32 413.15,387.82 421.39,390.52 C438.39,396.08 438.83,397.76 424.50,402.54 C411.54,406.87 408.84,408.69 407.48,414.00 C407.13,415.38 406.23,417.85 405.47,419.50 C405.23,420.00 404.93,420.72 404.58,421.57 C404.49,421.58 404.39,421.72 404.28,422.00 C404.03,422.68 403.23,424.86 402.36,427.22 ZM 736.44 582.25 C733.89,589.36 731.11,596.44 729.61,599.29 C730.64,597.06 731.85,594.08 733.47,590.00 C734.53,587.32 735.53,584.71 736.44,582.25 ZM 714.00 627.61 C713.36,628.67 712.85,629.57 712.65,630.00 C712.31,630.74 711.42,632.24 710.09,634.34 C711.43,632.24 712.31,630.74 712.65,630.00 C712.88,629.48 713.41,628.56 714.00,627.61 Z" fill="rgb(248,187,24)"/>
<path d="M 0.00 512.00 L 0.00 0.00 L 512.00 0.00 L 1024.00 0.00 L 1024.00 512.00 L 1024.00 1024.00 L 512.00 1024.00 L 0.00 1024.00 L 0.00 512.00 ZM 648.32 867.00 C648.09,863.67 646.53,857.10 645.24,854.00 C641.84,845.83 632.58,803.44 630.41,786.17 C628.77,773.09 629.10,753.09 631.07,746.25 C631.58,744.46 632.48,741.31 633.07,739.25 C634.31,734.87 634.85,733.53 638.58,725.50 C643.47,714.97 652.89,702.10 664.95,689.50 C674.13,679.90 698.86,650.99 702.85,645.19 C708.17,637.45 711.87,631.71 712.65,630.00 C713.03,629.17 714.51,626.70 715.95,624.50 C717.39,622.30 719.22,619.21 720.01,617.63 C720.81,616.05 721.95,614.57 722.53,614.35 C723.12,614.13 727.85,615.47 733.05,617.33 C743.87,621.21 743.89,621.25 749.04,636.51 C752.49,646.74 753.39,648.50 754.72,647.67 C755.24,647.35 757.58,641.78 759.93,635.30 C762.27,628.81 764.52,622.83 764.93,622.00 C765.33,621.17 771.36,618.54 778.33,616.15 C794.34,610.64 794.73,609.27 781.50,605.01 C777.65,603.77 774.07,602.36 773.55,601.88 C773.03,601.39 771.65,601.00 770.49,601.00 C766.68,601.00 765.06,598.64 760.90,587.00 C756.68,575.20 754.73,571.82 753.12,573.54 C752.63,574.07 750.56,579.22 748.53,585.00 C746.50,590.78 744.32,596.59 743.67,597.92 C741.83,601.72 728.00,605.94 728.00,602.70 C728.00,601.98 728.40,600.97 728.89,600.45 C731.04,598.14 742.00,567.76 742.00,564.11 C742.00,562.88 742.53,560.89 743.17,559.68 C743.81,558.48 744.95,554.58 745.69,551.00 C749.92,530.68 751.06,522.15 751.66,506.25 L 752.31 489.00 L 754.91 489.06 C756.33,489.10 759.96,490.34 762.97,491.82 L 768.44 494.51 L 772.97 507.00 C778.56,522.41 779.70,523.03 783.49,512.80 C784.98,508.79 786.83,504.02 787.60,502.22 C788.37,500.41 789.00,498.10 789.00,497.09 C789.00,494.44 790.20,493.75 803.00,488.95 C809.33,486.58 815.07,484.21 815.76,483.68 C818.05,481.97 815.25,480.28 802.91,475.93 C796.32,473.60 790.63,471.21 790.25,470.60 C789.88,470.00 788.39,466.12 786.94,462.00 C783.25,451.47 780.28,445.00 779.13,445.00 C778.12,445.00 773.19,457.02 770.92,465.00 C770.22,467.48 769.24,470.04 768.75,470.69 C768.00,471.69 753.80,477.00 751.89,477.00 C751.56,477.00 750.99,473.51 750.62,469.25 C749.57,456.99 744.55,429.42 743.03,427.50 C742.59,426.95 741.90,424.92 741.50,423.00 C741.10,421.08 739.92,417.61 738.89,415.30 C737.85,413.00 737.00,410.63 737.00,410.04 C737.00,409.45 736.59,408.19 736.09,407.24 C735.59,406.28 732.71,400.33 729.69,394.00 C720.43,374.59 705.63,353.49 691.07,338.93 C672.46,320.31 655.56,307.76 636.00,298.02 C630.22,295.14 624.79,292.43 623.93,292.00 C620.99,290.52 609.52,286.17 604.00,284.44 C600.97,283.49 597.66,282.30 596.64,281.78 C593.45,280.18 568.49,274.45 560.50,273.50 C557.75,273.17 551.00,272.18 545.50,271.29 C530.41,268.88 485.19,268.90 466.00,271.34 C458.02,272.35 449.57,273.82 447.22,274.59 C444.86,275.37 441.65,276.00 440.08,276.00 C437.17,276.00 428.89,278.25 423.50,280.50 C421.85,281.19 417.35,282.75 413.50,283.95 C409.65,285.16 405.60,286.55 404.50,287.04 C403.40,287.54 400.25,288.81 397.50,289.86 C389.63,292.87 373.13,300.97 366.00,305.31 C356.84,310.90 341.63,322.72 334.22,330.02 C324.07,340.01 306.85,361.48 303.65,368.11 C303.28,368.88 302.05,371.04 300.91,372.93 C298.60,376.75 292.49,388.89 290.54,393.50 C287.28,401.25 285.00,407.68 285.00,409.15 C285.00,410.03 284.36,412.28 283.58,414.15 C281.40,419.36 279.18,432.49 277.93,447.48 C276.71,462.16 277.62,477.34 280.64,492.35 C281.70,497.61 282.08,503.53 281.80,510.35 C281.41,519.81 281.11,521.04 277.36,528.50 C270.01,543.11 264.43,553.06 258.03,563.00 C256.68,565.10 246.72,581.68 245.46,583.93 C244.89,584.95 243.94,586.40 243.36,587.14 C242.05,588.81 235.46,600.80 232.32,607.25 C230.98,609.99 230.00,613.82 230.00,616.34 C230.00,619.97 230.59,621.30 233.52,624.31 C236.74,627.64 248.47,634.00 251.37,634.00 C252.05,634.00 253.03,634.38 253.55,634.84 C254.07,635.29 258.42,636.92 263.22,638.44 C268.01,639.97 272.35,641.73 272.86,642.36 C273.37,642.99 274.06,652.72 274.39,664.00 C275.62,705.99 276.54,720.32 278.23,724.00 C279.12,725.92 280.17,729.08 280.55,731.00 C281.70,736.72 286.73,746.41 291.26,751.62 C296.78,757.97 299.08,759.83 306.22,763.71 C320.96,771.71 334.60,774.08 377.10,776.02 C390.52,776.63 402.48,777.33 403.68,777.57 C404.88,777.81 406.84,779.37 408.03,781.05 C412.35,787.11 412.93,793.09 412.96,832.08 C412.98,852.20 413.30,868.97 413.67,869.34 C414.04,869.71 467.03,869.89 531.42,869.75 L 648.50 869.50 L 648.32 867.00 ZM 755.49 372.25 C755.87,371.29 757.97,365.55 760.15,359.50 C762.33,353.45 764.49,348.12 764.95,347.66 C765.41,347.19 770.00,345.36 775.14,343.59 C787.06,339.48 790.50,337.81 790.50,336.11 C790.50,335.27 786.00,333.27 778.50,330.79 C771.90,328.60 765.76,326.07 764.87,325.16 C763.97,324.25 762.21,320.35 760.97,316.50 C759.73,312.65 757.64,307.05 756.33,304.06 C753.10,296.70 752.45,297.53 744.91,318.85 C742.39,325.97 742.90,325.61 727.00,331.29 C714.15,335.88 714.13,337.32 726.86,341.71 C741.74,346.84 743.23,347.79 744.63,353.00 C745.99,358.05 750.70,371.70 751.56,373.10 C752.49,374.60 754.74,374.11 755.49,372.25 Z" fill="rgb(254,254,254)"/>
</g>
</svg>