<svg version="1.2" xmlns="http://www.w3.org/2000/svg" viewBox="0 0 1080 1080" width="1080" height="1080">
	<style>
		.s0 { fill: #f2c9cc } 
		.s1 { fill: #f29199 } 
		.s2 { fill: #ffffff } 
		.s3 { fill: #333333 } 
		.s4 { fill: #ccd7f2 } 
		.s5 { fill: #f2cf63 } 
		.s6 { fill: #f29c50 } 
		.s7 { fill: #fc5e71 } 
	</style>
	<path id="&lt;Path&gt;" class="s0" d="m932.54 570.41c33.69-13.02 62.11-39.35 76.1-72.84 13.14-31.47 16.47-82.42-12.01-107.1-10.82-9.37-25.32-12.91-38.91-17.39-29.38-9.7-39.96-30.34-53.08-56.65-12.81-25.68-30.24-40.21-58.95-44.21-42.42-5.91-88.32-5.39-126.06 17.38-36.87 22.26-49.04 68.84-30.55 107.31 12.46 25.94 36.54 45.95 44.21 73.69 7.45 26.97 0.5 56.13 19.75 79.47 15.52 18.8 41.41 24.95 65.58 28.18 33.12 4.42 67.26 5.43 99.55-3.17q7.35-1.96 14.37-4.67z"/>
	<path id="&lt;Compound Path&gt;" class="s1" d="m784.38 330.36c-8.23-0.91-15.67 5.04-16.58 13.27-0.92 8.23 5.04 15.67 13.27 16.59 8.23 0.91 15.67-5.04 16.59-13.27 0.91-8.23-5.04-15.68-13.28-16.59zm9.49 16.17c-0.68 6.15-6.22 10.59-12.38 9.9-6.15-0.68-10.59-6.22-9.91-12.38 0.69-6.15 6.23-10.59 12.39-9.9 6.15 0.68 10.59 6.22 9.9 12.38z"/>
	<path id="&lt;Compound Path&gt;" class="s1" d="m801.95 342.1l5.47-3.99-2.35-5.71-6.35 1.27q-0.12-0.21-0.25-0.41c-1.27-1.82-2.78-3.35-4.45-4.6l1.31-6.42-5.49-2.48-3.81 5.37c-2.19-0.41-4.44-0.44-6.66-0.07l-3.39-5.17-5.56 2.39 0.99 6.09q-0.19 0.12-0.38 0.25c-1.77 1.32-3.24 2.91-4.44 4.65l-6.27-0.78-2.04 5.87 4.96 3.13c-0.4 2.34-0.41 4.74-0.03 7.11l-5.27 4.06 2.42 5.67 6.17-1.4q0.05 0.09 0.11 0.19c1.25 1.79 2.73 3.3 4.37 4.54l-0.85 7.14 5.66 2.04 3.29-5.59c2.22 0.42 4.51 0.43 6.76 0.05l3.92 5.38 5.48-2.6-1.33-6.23q0.08-0.05 0.15-0.09c1.82-1.37 3.34-3.02 4.56-4.84l6.17 1.19 2.34-5.74-5.23-3.8c0.34-2.13 0.35-4.32 0.02-6.47zm-3.03 4.99c-0.99 8.93-9.06 15.38-17.99 14.39-8.93-0.99-15.38-9.06-14.39-17.99 0.99-8.93 9.06-15.38 17.98-14.39 8.93 0.99 15.39 9.06 14.4 17.99z"/>
	<path id="&lt;Path&gt;" class="s2" d="m745.97 431.71l-19.59 25.38-3.93-51.82c1.64-5.6 2.53-12.33 1.12-19.48 3.48-14.86 7.41-28.89 9.49-31.96 2.41-3.56 1.49-8.41-2.08-10.82-3.56-2.42-8.41-1.49-10.82 2.07-2.4 3.54-5.04 11.4-7.46 20.07-5.26-6.55-10.52-11.52-10.52-11.52 0 0-48.31 14.3-49.14 25.78-0.46 6.4 4.86 22.77 9.66 36.03-0.6 34.97 1.54 123.99 38.31 132.91 45.85 11.13 73.01-48.08 73.01-48.08l13.8-24.49z"/>
	<path id="&lt;Compound Path&gt;" class="s3" d="m712.41 550.59q0 0 0 0c-3.83 0-7.73-0.47-11.6-1.41-37.02-8.99-39.59-96.29-38.96-133.6-6.79-18.75-10.04-30.94-9.66-36.23 0.85-11.73 44.75-25.06 49.75-26.54 0.29-0.08 0.61-0.01 0.83 0.2 0.05 0.05 4.68 4.44 9.56 10.34 2.69-9.43 5.09-15.73 7.13-18.74 1.61-2.38 4.28-3.79 7.16-3.79 1.73 0 3.4 0.51 4.84 1.48 3.94 2.68 4.98 8.06 2.3 12.01-1.8 2.65-5.45 15.01-9.32 31.49 1.19 6.25 0.81 12.83-1.13 19.56l3.75 49.46 18.24-23.63c0.15-0.2 0.38-0.32 0.63-0.33 0.24-0.02 0.49 0.08 0.66 0.26l41.85 44.08c0.25 0.27 0.3 0.68 0.12 1l-13.8 24.49c-0.03 0.06-5.81 12.55-16.3 24.87-13.96 16.38-29.88 25.03-46.05 25.03zm-10.46-196.01c-13.61 4.08-47.43 16.06-48.07 24.89-0.36 4.99 2.97 17.33 9.62 35.68q0.05 0.15 0.05 0.3c-0.28 16.36 0.01 48 5.13 76.06 6.09 33.41 17.03 52.26 32.53 56.02 3.74 0.91 7.51 1.37 11.2 1.37 37.92 0 60.61-48.49 60.84-48.98l13.52-24.01-40.73-42.9-18.99 24.59c-0.21 0.28-0.57 0.4-0.91 0.3-0.34-0.1-0.58-0.4-0.6-0.75l-3.93-51.82q-0.02-0.15 0.03-0.3c1.92-6.58 2.29-13 1.1-19.08q-0.04-0.18 0-0.36c3.13-13.34 7.3-28.81 9.62-32.23 2.15-3.17 1.32-7.5-1.85-9.65-1.16-0.78-2.5-1.2-3.89-1.2-2.31 0-4.46 1.14-5.76 3.05-2.05 3.02-4.52 9.69-7.34 19.82-0.09 0.3-0.34 0.54-0.65 0.6-0.31 0.06-0.63-0.05-0.83-0.3-4.4-5.47-8.83-9.88-10.09-11.1z"/>
	<path id="&lt;Path&gt;" class="s3" d="m698.16 411.04q0.04-0.01 0.09-0.03c0.34-0.13 0.51-0.5 0.38-0.84-9.07-24.01 11.63-34.44 12.52-34.87 0.32-0.16 0.45-0.55 0.3-0.87-0.16-0.33-0.56-0.46-0.87-0.3-0.23 0.11-22.66 11.36-13.17 36.5 0.12 0.31 0.44 0.47 0.75 0.41z"/>
	<path id="&lt;Path&gt;" class="s3" d="m735.44 304.6l-4.49-1.98c-2.1-0.93-4.55 0.02-5.48 2.12l-51.99 117.7c-1.14 2.59 0.03 5.61 2.61 6.75l2.73 1.2c2.58 1.14 5.6-0.02 6.74-2.61l52-117.71c0.92-2.09-0.03-4.54-2.12-5.47z"/>
	<path id="&lt;Path&gt;" class="s3" d="m730.27 326.58l-12.09-5.34-2.16 4.9 12.08 5.34z"/>
	<path id="&lt;Path&gt;" class="s4" d="m739.97 308.36l-14.86-6.56-9.09 20.57 14.86 6.57z"/>
	<path id="&lt;Compound Path&gt;" class="s3" d="m730.88 329.79q-0.17 0-0.34-0.08l-14.86-6.56q-0.32-0.15-0.45-0.47-0.12-0.33 0.02-0.65l9.09-20.58q0.14-0.31 0.47-0.45 0.32-0.12 0.65 0.02l14.86 6.56c0.42 0.19 0.62 0.69 0.43 1.12l-9.09 20.58q-0.15 0.32-0.47 0.45-0.15 0.06-0.31 0.06zm-13.74-7.85l13.31 5.88 8.4-19.03-13.3-5.88z"/>
	<path id="&lt;Path&gt;" class="s3" d="m739.84 308.43l-14.8-6.54-2.34 5.28 14.81 6.54z"/>
	<path id="&lt;Path&gt;" class="s4" d="m760.71 299.92l-1.51 3.42c-0.27 0.61-0.98 0.88-1.59 0.61-2.74-1.21-3.98-4.41-2.77-7.16l0.09-0.2-31.19-13.78-0.09 0.21c-1.21 2.74-4.42 3.98-7.16 2.77l-1.31-0.58c-0.61-0.27-0.88-0.98-0.61-1.59l1.49-3.39c0.35-0.78-0.01-1.69-0.79-2.04l-3.54-1.56c-0.78-0.35-1.69 0.01-2.04 0.79l-6.9 15.62c-0.34 0.78 0.01 1.7 0.79 2.04l3.54 1.57c0.78 0.34 1.7-0.01 2.04-0.79l1.5-3.39c0.27-0.61 0.98-0.89 1.59-0.62l1.3 0.58c2.75 1.21 3.99 4.42 2.78 7.16l-0.09 0.2 31.19 13.78 0.09-0.2c1.21-2.74 4.42-3.99 7.16-2.77 0.61 0.26 0.89 0.98 0.62 1.58l-1.51 3.42c-0.34 0.77 0.01 1.66 0.77 2l3.59 1.59c0.77 0.34 1.67-0.01 2.01-0.78l6.92-15.67c0.34-0.77-0.01-1.67-0.77-2l-3.6-1.59c-0.76-0.34-1.66 0.01-2 0.77z"/>
	<path id="&lt;Compound Path&gt;" class="s3" d="m758.77 320.17q-0.5 0-0.96-0.2l-3.59-1.59c-1.19-0.53-1.74-1.93-1.21-3.12l1.51-3.42c0.05-0.12 0.03-0.22 0.01-0.27-0.02-0.05-0.07-0.15-0.19-0.2q-0.89-0.39-1.85-0.39c-1.82 0-3.46 1.07-4.19 2.73l-0.09 0.21q-0.15 0.31-0.47 0.44-0.33 0.13-0.65-0.01l-31.2-13.78q-0.31-0.14-0.44-0.47-0.13-0.33 0.01-0.65l0.09-0.2c1.02-2.31-0.03-5.02-2.34-6.04l-1.31-0.58c-0.17-0.08-0.39 0.01-0.46 0.18l-1.5 3.39c-0.38 0.87-1.25 1.43-2.19 1.43q-0.51 0-0.97-0.21l-3.54-1.56c-0.59-0.26-1.03-0.73-1.27-1.33-0.23-0.59-0.21-1.25 0.05-1.83l6.9-15.62c0.38-0.87 1.24-1.43 2.19-1.43q0.5 0 0.97 0.2l3.54 1.57c0.58 0.25 1.03 0.73 1.26 1.32 0.23 0.6 0.22 1.25-0.04 1.84l-1.5 3.38c-0.05 0.12-0.02 0.23 0 0.28 0.02 0.05 0.07 0.14 0.18 0.19l1.31 0.58q0.89 0.39 1.85 0.39c1.81 0 3.46-1.07 4.19-2.73l0.09-0.2q0.15-0.32 0.47-0.45 0.33-0.12 0.65 0.01l31.19 13.78c0.43 0.19 0.63 0.69 0.44 1.12l-0.09 0.21c-0.5 1.12-0.53 2.36-0.08 3.5 0.44 1.14 1.3 2.04 2.42 2.54 0.17 0.08 0.39-0.01 0.47-0.18l1.51-3.42c0.37-0.86 1.22-1.41 2.16-1.41q0.5 0 0.96 0.2l3.59 1.59c0.58 0.25 1.02 0.72 1.25 1.31 0.23 0.59 0.21 1.23-0.04 1.81l-6.93 15.68c-0.38 0.85-1.23 1.41-2.16 1.41zm-6.28-10.89q1.32 0 2.53 0.54c0.51 0.22 0.89 0.62 1.09 1.14 0.2 0.51 0.18 1.07-0.04 1.57l-1.51 3.41c-0.15 0.34 0.01 0.74 0.35 0.89l3.59 1.58c0.33 0.15 0.74-0.01 0.88-0.34l6.93-15.68q0.1-0.25 0.01-0.51-0.11-0.25-0.36-0.37l-3.59-1.59c-0.33-0.14-0.74 0.02-0.88 0.35l-1.51 3.41c-0.44 1.01-1.7 1.5-2.71 1.05-1.53-0.68-2.71-1.91-3.32-3.48-0.53-1.36-0.56-2.84-0.11-4.22l-29.7-13.11c-1.1 1.95-3.18 3.18-5.46 3.18q-1.32 0-2.54-0.54l-1.3-0.57c-0.5-0.22-0.89-0.63-1.09-1.14-0.19-0.51-0.18-1.07 0.04-1.57l1.5-3.39q0.11-0.27 0.01-0.53-0.11-0.27-0.37-0.39l-3.54-1.56c-0.35-0.16-0.77 0.01-0.92 0.35l-6.9 15.63q-0.11 0.26-0.01 0.53 0.1 0.27 0.37 0.39l3.53 1.56c0.35 0.16 0.77-0.01 0.93-0.36l1.49-3.39c0.45-1 1.7-1.49 2.71-1.04l1.31 0.57c2.97 1.32 4.42 4.67 3.43 7.7l29.69 13.12c1.11-1.96 3.19-3.19 5.47-3.19z"/>
	<path id="&lt;Path&gt;" class="s2" d="m748.52 300.43l-24.39-10.78c-0.81-0.35-1.18-1.31-0.82-2.11 0.36-0.81 1.31-1.18 2.12-0.83l24.39 10.78c0.81 0.35 1.17 1.31 0.82 2.12-0.36 0.8-1.31 1.17-2.12 0.82z"/>
	<path id="&lt;Path&gt;" class="s2" d="m695.78 337.97l17.05 17.84c3.05 3.19 2.65 8.62-0.87 12.14-2.93 2.93-7.07 3.58-10.14 1.91 1.75 3.21 1.05 7.6-1.97 10.62-2.3 2.3-5.37 3.19-8.08 2.65 0.69 2.9-0.21 6.27-2.66 8.72-2.97 2.96-7.19 3.6-10.28 1.84 0.65 2.62-0.15 5.67-2.37 7.89-3.16 3.16-7.93 3.41-10.66 0.56l-15.29-16c-0.71-0.74-1.21-1.61-1.5-2.56-0.85-2.7-0.05-5.98 2.29-8.32 2.2-2.21 5.19-2.96 7.73-2.26q-0.33-0.59-0.55-1.23c-0.94-3.02-0.05-6.68 2.56-9.28 2.31-2.32 5.39-3.2 8.1-2.65-0.68-2.91 0.19-6.27 2.64-8.73 2.93-2.92 7.07-3.57 10.14-1.91q-0.36-0.64-0.58-1.33c-0.95-3.01-0.06-6.67 2.55-9.28 3.52-3.52 8.85-3.8 11.89-0.62z"/>
	<path id="&lt;Compound Path&gt;" class="s3" d="m670.58 404.97c-2.09 0-4-0.79-5.39-2.24l-15.29-16q-1.18-1.23-1.7-2.9c-0.97-3.08 0.01-6.68 2.5-9.17 1.88-1.88 4.46-2.9 6.94-2.75-1.01-3.38 0.08-7.3 2.8-10.02 2.08-2.09 4.93-3.21 7.68-3.04-0.31-2.98 0.81-6.09 3.06-8.34 1.95-1.94 4.54-3.06 7.11-3.06q1.09 0.01 2.12 0.26c-0.86-3.31 0.24-7.08 2.88-9.72 1.96-1.96 4.57-3.08 7.15-3.08 2.31 0 4.42 0.88 5.95 2.47l17.06 17.84c3.35 3.52 2.95 9.5-0.89 13.33-1.94 1.95-4.53 3.06-7.1 3.06q-1.1 0-2.14-0.26c0.87 3.28-0.18 7.04-2.87 9.73-2.07 2.07-4.9 3.19-7.65 3.04 0.3 2.97-0.83 6.07-3.09 8.33-1.95 1.95-4.54 3.06-7.11 3.06q-1.41 0-2.71-0.43c0.13 2.55-0.89 5.16-2.83 7.1-1.77 1.78-4.13 2.79-6.48 2.79zm-13.45-31.37c-1.89 0-3.8 0.82-5.23 2.26-2.05 2.04-2.87 4.97-2.08 7.46q0.4 1.29 1.31 2.24l15.28 15.99c1.07 1.11 2.55 1.73 4.17 1.73 1.9 0 3.82-0.84 5.28-2.3 1.93-1.93 2.75-4.64 2.15-7.09-0.08-0.33 0.04-0.67 0.31-0.88 0.27-0.2 0.64-0.23 0.93-0.06 0.99 0.57 2.15 0.86 3.35 0.86 2.12 0 4.28-0.93 5.91-2.56 2.15-2.15 3.08-5.18 2.44-7.92-0.07-0.28 0.01-0.58 0.21-0.78 0.2-0.21 0.5-0.31 0.78-0.25 2.5 0.49 5.33-0.44 7.31-2.42 2.7-2.7 3.44-6.65 1.82-9.61-0.18-0.33-0.12-0.74 0.14-1.01 0.27-0.27 0.68-0.32 1.01-0.15 0.96 0.53 2.08 0.8 3.24 0.8 2.12 0 4.27-0.93 5.9-2.56 3.19-3.19 3.58-8.1 0.86-10.95l-17.05-17.84c-1.21-1.26-2.89-1.96-4.73-1.96-2.14 0-4.31 0.95-5.95 2.59-2.31 2.31-3.23 5.61-2.34 8.42q0.16 0.53 0.52 1.19c0.18 0.33 0.12 0.74-0.15 1.01-0.26 0.26-0.67 0.32-1 0.14-0.96-0.52-2.08-0.8-3.23-0.8-2.13 0-4.28 0.94-5.91 2.56-2.13 2.14-3.06 5.18-2.41 7.93 0.07 0.28-0.02 0.58-0.22 0.78-0.2 0.21-0.49 0.3-0.77 0.25-2.51-0.51-5.35 0.42-7.34 2.42-2.31 2.3-3.23 5.61-2.35 8.42 0.12 0.38 0.31 0.75 0.49 1.09 0.15 0.3 0.12 0.67-0.09 0.93-0.21 0.27-0.56 0.38-0.89 0.29q-0.81-0.22-1.67-0.22z"/>
	<path id="&lt;Path&gt;" class="s3" d="m701.64 370.16c0.12 0.06 0.28 0.03 0.39-0.08 0.13-0.14 0.15-0.34 0.03-0.47l-19.89-20.65c-0.12-0.12-0.32-0.11-0.46 0.02-0.14 0.14-0.15 0.35-0.03 0.47l19.89 20.66q0.03 0.03 0.07 0.05z"/>
	<path id="&lt;Path&gt;" class="s3" d="m691.6 383.44c0.12 0.05 0.27 0.03 0.38-0.07 0.14-0.13 0.16-0.34 0.05-0.47l-11.64-13.22c-0.11-0.13-0.31-0.13-0.46 0-0.14 0.14-0.16 0.35-0.05 0.47l11.64 13.22q0.04 0.04 0.08 0.07z"/>
	<path id="&lt;Path&gt;" class="s3" d="m673.65 389.04c0.11 0.05 0.26 0.03 0.37-0.07 0.14-0.13 0.17-0.34 0.05-0.47l-13.01-15.16c-0.1-0.13-0.31-0.13-0.45 0.01-0.14 0.12-0.17 0.34-0.06 0.46l13.01 15.16q0.04 0.04 0.09 0.07z"/>
	<path id="&lt;Path&gt;" class="s3" d="m678.66 393.99c0.11 0.06 0.25 0.04 0.36-0.05 0.15-0.13 0.18-0.34 0.08-0.47l-1.71-2.23c-0.11-0.14-0.31-0.15-0.46-0.02-0.14 0.12-0.18 0.33-0.08 0.47l1.72 2.23q0.04 0.05 0.09 0.07z"/>
	<path id="&lt;Path&gt;" class="s3" d="m699.72 362.07q0.02 0.05 0.05 0.09l3.8 5.28q0.09 0.13 0.25 0.12c0.15 0 3.91-0.18 6.85-3.49 0.13-0.16 0.13-0.37 0-0.49-0.13-0.11-0.34-0.09-0.47 0.06-2.39 2.69-5.45 3.15-6.17 3.22l-3.62-5.03c1.27-4.89 6.12-6.76 7.18-7.12l3.22 4.33c0.1 0.14 0.31 0.15 0.47 0.02 0.15-0.12 0.19-0.34 0.08-0.48l-3.34-4.49q-0.12-0.16-0.33-0.11c-0.06 0.02-6.52 1.88-7.97 7.91q-0.02 0.1 0 0.18z"/>
	<path id="&lt;Path&gt;" class="s3" d="m688.94 375.78q0.02 0.04 0.05 0.08l4.23 4.92q0.1 0.11 0.26 0.1c0.16-0.02 3.93-0.49 6.63-3.99 0.12-0.16 0.1-0.38-0.03-0.48-0.14-0.1-0.36-0.06-0.48 0.1-2.2 2.84-5.24 3.53-5.96 3.66l-4.02-4.69c0.9-4.92 5.65-7.16 6.69-7.59l3.56 4.02c0.12 0.13 0.33 0.13 0.48-0.01 0.14-0.14 0.16-0.36 0.05-0.48l-3.71-4.18q-0.13-0.14-0.33-0.08c-0.07 0.03-6.43 2.37-7.43 8.44q-0.02 0.1 0.01 0.18z"/>
	<path id="&lt;Path&gt;" class="s3" d="m676.81 387.12q0.02 0.04 0.05 0.08l4.22 4.92q0.1 0.11 0.26 0.09c0.16-0.01 3.93-0.48 6.64-3.99 0.12-0.16 0.1-0.37-0.03-0.47-0.15-0.11-0.36-0.07-0.48 0.09-2.2 2.85-5.24 3.54-5.96 3.67l-4.02-4.69c0.9-4.93 5.65-7.16 6.68-7.59l3.57 4.02c0.12 0.13 0.33 0.12 0.48-0.01 0.14-0.14 0.16-0.36 0.05-0.49l-3.71-4.17q-0.13-0.14-0.34-0.08c-0.06 0.02-6.42 2.36-7.43 8.44q-0.01 0.09 0.02 0.18z"/>
	<path id="&lt;Path&gt;" class="s3" d="m664.03 397.26q0.02 0.05 0.05 0.08l4 4.66q0.1 0.11 0.25 0.09c0.15-0.01 3.72-0.46 6.28-3.78 0.11-0.15 0.1-0.35-0.03-0.45-0.14-0.1-0.34-0.06-0.45 0.09-2.08 2.7-4.97 3.35-5.65 3.47l-3.81-4.44c0.86-4.66 5.36-6.78 6.34-7.19l3.38 3.81c0.11 0.12 0.31 0.12 0.44-0.01 0.14-0.13 0.16-0.34 0.05-0.46l-3.51-3.95q-0.12-0.14-0.32-0.08c-0.06 0.03-6.08 2.24-7.03 7.99q-0.02 0.09 0.01 0.17z"/>
	<path id="&lt;Path&gt;" class="s3" d="m982.2 485.74c0 0-0.4-12.17-4.38-21.45-3.97-9.27-9.68-32.36-17.63-49.14-7.95-16.78-63.22-35.7-63.22-35.7 0 0-1.33-7.5-3.09-10.58-1.77-3.09-8.39-2.21-8.39-2.21 0 0-29.59 3.54-39.31 0-9.72-3.53-14.57 5.3-14.57 5.3 0 0-50.34 4.53-62.27 15.57q-1.17 1.08-2.25 2.24c-3.87 4.13-7.06 9.03-9.8 13.96q-0.45 0.79-0.87 1.59c-4.2 7.84-7.31 15.62-10.23 20.49-5.3 8.83-17.48 22.56-17.48 22.56l18.43 13.87 18.28 14.14c0 0-5.65 37.64-11.08 78.6-4 32.29-3.38 58.8-3.38 58.8l164.56 2.37-3.86-113.2c10.78-1.81 78.25-12.82 70.54-17.21z"/>
	<path id="&lt;Path&gt;" class="s2" d="m781.84 415.69c-0.47 0-0.84-0.38-0.84-0.85 0-5.52-5.64-20.75-5.69-20.9-0.16-0.44 0.06-0.93 0.5-1.09 0.43-0.16 0.92 0.06 1.08 0.5 0.24 0.64 5.8 15.67 5.8 21.49 0 0.47-0.38 0.85-0.85 0.85z"/>
	<path id="&lt;Path&gt;" class="s3" d="m737.64 456.37h92.96l-30.25 52.43h-92.96z"/>
	<path id="&lt;Path&gt;" class="s5" d="m829.71 466.73l-87.67 0.62-23.75 41.49v105.18h128.07v-103.18z"/>
	<path id="&lt;Compound Path&gt;" class="s3" d="m846.36 614.87h-128.07c-0.47 0-0.85-0.38-0.85-0.85v-105.18q0-0.22 0.11-0.42l23.76-41.49c0.15-0.27 0.42-0.43 0.73-0.43l87.66-0.62q0.01 0 0.01 0c0.35 0 0.67 0.22 0.79 0.55l16.66 44.11q0.05 0.14 0.05 0.3v103.18c0 0.47-0.38 0.85-0.85 0.85zm-127.22-1.7h126.37v-102.18l-16.39-43.41-86.58 0.61-23.4 40.88z"/>
	<path id="&lt;Path&gt;" class="s6" d="m837.22 466.73l-48.14 0.62-13.04 41.49v105.18h70.32v-103.18z"/>
	<path id="&lt;Compound Path&gt;" class="s3" d="m846.36 614.87h-70.32c-0.47 0-0.85-0.38-0.85-0.85v-105.18q0-0.13 0.04-0.25l13.04-41.5c0.11-0.35 0.43-0.59 0.8-0.59l48.14-0.62c0.37-0.02 0.76 0.28 0.84 0.68l9.14 44.1q0.02 0.09 0.02 0.18v103.18c0 0.47-0.38 0.85-0.85 0.85zm-69.48-1.7h68.63v-102.25l-8.98-43.33-46.83 0.6-12.82 40.78z"/>
	<path id="&lt;Path&gt;" class="s7" d="m832.94 456.37h-92.95l30.25 52.43h92.95z"/>
	<path id="&lt;Compound Path&gt;" class="s3" d="m864.66 509.65h-94.91l-31.23-54.13h94.91zm-93.93-1.7h90.99l-29.27-50.74h-90.99z"/>
	<path id="&lt;Path&gt;" class="s2" d="m864.43 509.86h-94.81l-0.3-0.53-29.95-51.9h-1.11l-29.95 51.9-1.84-1.06 30.56-52.97h3.57l0.31 0.53 29.94 51.91h93.58z"/>
	<path id="&lt;Compound Path&gt;" class="s3" d="m864.43 510.29h-94.81q-0.24-0.01-0.37-0.22l-0.3-0.53-29.82-51.69h-0.63l-29.82 51.69q-0.09 0.15-0.26 0.2-0.17 0.04-0.32-0.04l-1.84-1.07c-0.2-0.11-0.27-0.37-0.15-0.57l30.55-52.97q0.13-0.2 0.37-0.21h3.57q0.24 0.01 0.37 0.21l0.31 0.53 29.82 51.69h93.33c0.23 0 0.42 0.19 0.42 0.43v2.12c0 0.24-0.19 0.43-0.42 0.43zm-94.56-0.85h94.14v-1.28h-93.16q-0.24-0.01-0.37-0.21l-30.12-52.22h-3.09l-30.22 52.38 1.11 0.64 29.73-51.53q0.13-0.21 0.37-0.22h1.11q0.24 0.01 0.37 0.22z"/>
	<path id="&lt;Path&gt;" class="s3" d="m750.17 534.49c0-6.17-4.12-11.16-9.21-11.16-5.09 0-9.21 4.99-9.21 11.16 0 6.16 4.12 11.16 9.21 11.16 5.09 0 9.21-5 9.21-11.16z"/>
	<path id="&lt;Path&gt;" class="s6" d="m735.65 534.49c0-5.34 3.09-9.78 7.22-10.89q-0.97-0.27-2-0.27c-5.08 0-9.21 4.99-9.21 11.16 0 6.16 4.13 11.16 9.21 11.16q1.03-0.01 2-0.28c-4.13-1.11-7.22-5.55-7.22-10.88z"/>
	<path id="&lt;Compound Path&gt;" class="s3" d="m740.87 546.49c-5.54 0-10.06-5.38-10.06-12.01 0-6.62 4.52-12 10.06-12q1.07-0.01 2.22 0.3c0.37 0.1 0.62 0.44 0.62 0.82 0 0.39-0.25 0.72-0.62 0.82-3.82 1.03-6.59 5.26-6.59 10.06 0 4.81 2.77 9.04 6.59 10.07 0.37 0.1 0.63 0.43 0.62 0.82 0 0.38-0.25 0.72-0.63 0.82q-1.14 0.31-2.21 0.3zm-1.36-22.18c-3.97 0.81-7 5.06-7 10.17 0 5.12 3.03 9.37 7 10.18-2.88-2.14-4.71-5.92-4.71-10.18 0-4.25 1.83-8.03 4.71-10.17z"/>
	<path id="&lt;Path&gt;" class="s6" d="m705.35 560.53h33.49c1.31 0 2.39-1.08 2.39-2.39v-1.87c0-1.31-1.08-2.39-2.39-2.39h-33.49c-1.31 0-2.39 1.08-2.39 2.39v1.87c0 1.31 1.08 2.39 2.39 2.39z"/>
	<path id="&lt;Compound Path&gt;" class="s3" d="m738.84 561.37h-33.49c-1.78 0-3.23-1.45-3.23-3.23v-1.87c0-1.79 1.45-3.24 3.23-3.24h33.49c1.79 0 3.24 1.45 3.24 3.24v1.87c0 1.78-1.45 3.23-3.24 3.23zm-33.49-6.64c-0.85 0-1.54 0.69-1.54 1.54v1.87c0 0.85 0.69 1.54 1.54 1.54h33.49c0.85 0 1.54-0.69 1.54-1.54v-1.87c0-0.85-0.69-1.54-1.54-1.54z"/>
	<path id="&lt;Path&gt;" class="s2" d="m976.73 474.55c0 0 23.27 81.47-2.21 105.67-38.6 36.68-116.52-40.23-116.52-40.23 0 0-25.98 0.69-31.61-11.7 0 0-3.09 6.32-10.02 3.96-6.92-2.37-18.55-21.52-14.02-30.38 0 0-2.57-8.34 4.16-13.74 0 0-3.44-5.92 1.94-11.34 0 0-19.67 0.77-17.7-11.18 0 0-1.79-2.2 18.68-7.19 20.47-4.99 29.25-3.14 36.12-0.31 6.87 2.83 28.66 21.75 33.97 25.79 5.31 4.04 36.74 20.36 36.74 20.36l-1.55-14.97c22.65-16.87 23.36-15.61 62.02-14.74z"/>
	<path id="&lt;Compound Path&gt;" class="s3" d="m948.69 590.98c-38.31 0-87.05-46.29-91.03-50.14-3.05 0.03-24.82-0.16-31.34-10.87-1.11 1.47-3.36 3.66-6.95 3.66q-1.58-0.01-3.27-0.58c-4.34-1.49-10.25-8.86-13.46-16.78-2.38-5.89-2.8-11.02-1.19-14.49-0.39-1.64-1.7-8.83 4.01-13.88-0.68-1.61-2.01-5.97 1.15-10.27-3.6-0.12-11.36-0.87-14.94-5.09-1.58-1.86-2.18-4.17-1.79-6.86q-0.06-0.27 0.05-0.64c0.25-0.74 1-2.98 19.3-7.44 8.67-2.11 15.77-3.14 21.71-3.14 7.02 0 11.49 1.45 14.93 2.87 5.24 2.16 18.6 13.16 27.44 20.44 3.01 2.48 5.38 4.43 6.73 5.46 4.55 3.46 29.07 16.34 35.21 19.55l-1.38-13.4c-0.03-0.3 0.1-0.59 0.34-0.77 17.49-13.03 22.07-15.34 40.5-15.34 4.14 0 9.08 0.12 14.8 0.26q3.38 0.09 7.24 0.17c0.37 0.01 0.69 0.26 0.79 0.62 0.96 3.34 23.12 82.24-2.43 106.52-7.09 6.73-15.98 10.14-26.42 10.14zm-90.69-51.84q0.35 0.01 0.6 0.25c0.51 0.5 51.01 49.89 90.09 49.89q0 0 0 0c9.99 0 18.49-3.25 25.25-9.67 23.67-22.5 4.18-96.75 2.14-104.22q-3.51-0.09-6.61-0.16c-5.71-0.15-10.64-0.27-14.76-0.27-17.77 0-22.31 2.24-39.1 14.72l1.5 14.5c0.03 0.31-0.11 0.61-0.37 0.79-0.26 0.17-0.59 0.19-0.87 0.05-1.29-0.67-31.55-16.4-36.86-20.44-1.37-1.04-3.76-3.01-6.78-5.5-8.23-6.78-22.01-18.12-27.01-20.18-3.29-1.36-7.56-2.74-14.28-2.74-5.8 0-12.78 1.01-21.31 3.09-15.28 3.72-17.67 5.78-18.04 6.26q0.02 0.12 0 0.24c-0.38 2.29 0.07 4.16 1.37 5.69 3.55 4.18 12.2 4.51 14.77 4.51q0.65-0.01 0.68-0.01c0.34-0.04 0.67 0.19 0.81 0.5 0.14 0.32 0.07 0.7-0.17 0.94-4.86 4.91-1.84 10.27-1.81 10.32 0.21 0.37 0.13 0.83-0.2 1.09-6.21 4.98-3.9 12.75-3.88 12.83q0.1 0.33-0.06 0.64c-1.54 3.02-1.15 7.77 1.11 13.37 3 7.4 8.57 14.49 12.44 15.81q1.42 0.49 2.72 0.49c4.22 0 6.18-3.85 6.26-4.01 0.15-0.3 0.45-0.45 0.78-0.48 0.32 0.01 0.62 0.2 0.76 0.5 4.84 10.67 25.92 11.21 30.1 11.21q0.69 0 0.71-0.01 0.01 0 0.02 0z"/>
	<path id="&lt;Path&gt;" class="s3" d="m808.61 477.61c-0.37 0.08-0.76-0.1-0.93-0.46-0.2-0.42-0.02-0.93 0.4-1.13 7.58-3.6 15.47-5.46 24.85-5.84 0.47-0.02 0.86 0.34 0.88 0.81 0.02 0.47-0.35 0.86-0.81 0.88-9.14 0.37-16.83 2.18-24.19 5.68q-0.1 0.04-0.2 0.06z"/>
	<path id="&lt;Path&gt;" class="s3" d="m827.56 485.12q-0.11 0.03-0.23 0.02c-7.4-0.59-20.42 3.75-20.55 3.79-0.44 0.15-0.92-0.09-1.07-0.53-0.15-0.44 0.09-0.92 0.53-1.07 0.55-0.18 13.48-4.49 21.22-3.88 0.47 0.04 0.82 0.45 0.78 0.91-0.03 0.39-0.32 0.69-0.68 0.76z"/>
	<path id="&lt;Path&gt;" class="s3" d="m802.51 502.7c-0.32 0.07-0.67-0.07-0.87-0.36-0.25-0.39-0.15-0.92 0.24-1.17 4.48-2.95 15.45-3.95 15.91-3.99 0.47-0.04 0.88 0.3 0.92 0.77 0.04 0.46-0.3 0.87-0.77 0.91-0.11 0.01-11.01 1.01-15.13 3.72q-0.14 0.09-0.3 0.12z"/>
	<path id="&lt;Path&gt;" class="s3" d="m803.62 467.84q-0.01 0-0.02 0.01l-8.27 1.42c-0.39 0.07-0.78-0.14-0.93-0.51l-0.65-1.55c-0.18-0.44 0.03-0.93 0.46-1.11 0.43-0.18 0.92 0.02 1.1 0.45l0.39 0.94 7.04-1.21c0.55-3.27-0.59-5.26-0.64-5.35-0.24-0.4-0.11-0.92 0.29-1.16 0.4-0.24 0.92-0.11 1.16 0.29 0.07 0.11 1.68 2.85 0.73 7.14-0.07 0.32-0.33 0.58-0.66 0.64z"/>
	<path id="&lt;Path&gt;" class="s3" d="m798.67 273.19l7.17-2.27-7.17-2.45c-2.15-0.57-3.79-2.29-4.25-4.46l-2.27-10.77-2.45 10.54c-0.51 2.22-2.27 3.94-4.5 4.41l-6.75 2.32 6.52 2.3c2.28 0.53 4.03 2.36 4.44 4.67l1.89 10.41 2.74-10.42c0.58-2.2 2.38-3.87 4.63-4.28z"/>
	<path id="&lt;Path&gt;" class="s3" d="m696.37 574.4l6.32-2-6.32-2.16c-1.89-0.5-3.34-2.02-3.75-3.94l-2-9.49-2.16 9.29c-0.45 1.96-2 3.48-3.97 3.89l-5.95 2.05 5.75 2.03c2.01 0.46 3.55 2.08 3.92 4.11l1.66 9.19 2.42-9.19c0.51-1.95 2.1-3.42 4.08-3.78z"/>
	<g id="Layer 1">
		<path id="&lt;Path&gt;" class="s0" d="m806.76 920.59c94.42-36.48 174.04-110.27 213.23-204.09 36.85-88.19 46.16-230.96-33.65-300.12-30.3-26.25-70.93-36.15-109.01-48.72-82.32-27.16-111.98-85.02-148.73-158.72-35.89-71.95-84.73-112.68-165.18-123.89-118.86-16.55-247.47-15.11-353.23 48.72-103.32 62.34-137.42 192.87-85.6 300.68 34.92 72.67 102.4 128.74 123.88 206.46 20.89 75.57 1.39 157.28 55.33 222.67 43.48 52.7 116.05 69.92 183.76 78.97 92.82 12.41 188.46 15.21 278.94-8.87 13.73-3.66 27.17-8.04 40.26-13.09z"/>
		<path id="&lt;Compound Path&gt;" class="s1" d="m391.64 247.97c-23.07-2.57-43.92 14.12-46.48 37.18-2.56 23.07 14.12 43.92 37.19 46.48 23.06 2.56 43.92-14.12 46.48-37.19 2.56-23.06-14.13-43.91-37.19-46.47zm26.58 45.3c-1.92 17.24-17.45 29.67-34.69 27.76-17.25-1.92-29.68-17.45-27.76-34.7 1.91-17.25 17.44-29.67 34.69-27.76 17.25 1.92 29.67 17.45 27.76 34.7z"/>
		<path id="&lt;Compound Path&gt;" class="s1" d="m440.87 280.86l15.32-11.19-6.58-15.98-17.79 3.54c-0.25-0.37-0.45-0.76-0.71-1.13-3.56-5.11-7.8-9.4-12.48-12.9l3.69-18-15.39-6.93-10.67 15.05c-6.15-1.16-12.46-1.24-18.68-0.2l-9.49-14.48-15.59 6.68 2.78 17.06c-0.36 0.25-0.72 0.45-1.07 0.72-4.95 3.7-9.08 8.13-12.45 13.02l-17.56-2.18-5.7 16.44 13.9 8.77c-1.14 6.55-1.17 13.28-0.08 19.91l-14.79 11.39 6.79 15.88 17.28-3.91q0.16 0.26 0.32 0.52c3.5 5.02 7.66 9.26 12.24 12.72l-2.38 20.02 15.86 5.71 9.21-15.66c6.24 1.17 12.65 1.22 18.96 0.12l10.98 15.09 15.34-7.28-3.71-17.45q0.2-0.14 0.4-0.27c5.12-3.84 9.36-8.45 12.78-13.54l17.3 3.33 6.54-16.1-14.63-10.65c0.95-5.97 0.96-12.09 0.06-18.12zm-8.51 13.98c-2.78 25.01-25.39 43.1-50.41 40.32-25.01-2.77-43.1-25.38-40.33-50.4 2.78-25.02 25.39-43.11 50.41-40.33 25.02 2.78 43.11 25.39 40.33 50.41z"/>
		<path id="&lt;Path&gt;" class="s2" d="m284 531.94l-54.89 71.11-11.01-145.19c4.59-15.7 7.07-34.54 3.13-54.59 9.75-41.62 20.77-80.94 26.6-89.54 6.76-9.98 4.16-23.56-5.83-30.33-9.98-6.76-23.56-4.15-30.33 5.82-6.71 9.91-14.13 31.95-20.9 56.23-14.75-18.37-29.46-32.29-29.46-32.29 0 0-135.39 40.08-137.71 72.24-1.29 17.92 13.62 63.82 27.07 100.96-1.67 97.98 4.33 347.43 107.34 372.43 128.49 31.18 204.58-134.73 204.58-134.73l38.68-68.61z"/>
		<path id="&lt;Compound Path&gt;" class="s3" d="m189.96 865.07q-0.01 0-0.01 0c-10.72 0-21.65-1.34-32.51-3.97-103.71-25.18-110.9-269.81-109.15-374.34-19.03-52.55-28.13-86.71-27.06-101.53 2.36-32.85 125.38-70.2 139.4-74.35 0.82-0.24 1.7-0.03 2.31 0.55 0.14 0.13 13.11 12.45 26.79 28.97 7.54-26.42 14.26-44.08 19.97-52.51 4.52-6.66 12.02-10.63 20.07-10.63 4.85 0 9.54 1.44 13.57 4.17 11.04 7.49 13.94 22.58 6.46 33.64-5.05 7.44-15.3 42.05-26.14 88.25 3.36 17.51 2.29 35.94-3.16 54.79l10.52 138.58 51.1-66.2c0.42-0.55 1.07-0.88 1.76-0.92 0.69-0.05 1.37 0.23 1.85 0.74l117.26 123.5c0.72 0.75 0.86 1.89 0.35 2.8l-38.67 68.61c-0.07 0.18-16.29 35.19-45.69 69.7-39.09 45.89-83.71 70.15-129.02 70.15zm-29.3-549.24c-38.14 11.42-132.91 45-134.69 69.74-1.01 13.99 8.31 48.56 26.94 99.98q0.15 0.42 0.14 0.85c-0.78 45.84 0.05 134.49 14.38 213.11 17.06 93.62 47.72 146.43 91.14 156.96 10.48 2.55 21.04 3.84 31.38 3.84 106.27 0.01 169.85-135.87 170.48-137.25l37.9-67.25-114.14-120.21-53.2 68.9c-0.6 0.78-1.62 1.11-2.56 0.83-0.94-0.28-1.62-1.12-1.69-2.1l-11.01-145.19q-0.04-0.43 0.09-0.85c5.39-18.44 6.43-36.42 3.08-53.46q-0.1-0.5 0.01-1c8.76-37.38 20.44-80.74 26.95-90.33 6.01-8.89 3.69-21.01-5.19-27.03-3.24-2.19-7-3.35-10.9-3.35-6.47 0-12.5 3.19-16.13 8.54-5.74 8.47-12.66 27.15-20.58 55.53-0.24 0.86-0.94 1.51-1.81 1.69-0.88 0.17-1.77-0.15-2.33-0.84-12.32-15.34-24.74-27.68-28.26-31.11z"/>
		<path id="&lt;Path&gt;" class="s3" d="m150.03 474.02q0.13-0.03 0.26-0.08c0.93-0.35 1.41-1.4 1.05-2.34-25.41-67.29 32.6-96.52 35.09-97.73 0.9-0.44 1.27-1.52 0.84-2.43-0.45-0.9-1.56-1.29-2.43-0.84-0.64 0.31-63.51 31.85-36.9 102.29 0.33 0.85 1.22 1.32 2.09 1.13z"/>
		<path id="&lt;Path&gt;" class="s3" d="m254.48 175.78l-12.58-5.55c-5.88-2.6-12.74 0.06-15.34 5.94l-145.69 329.82c-3.2 7.23 0.08 15.69 7.31 18.89l7.66 3.38c7.24 3.2 15.7-0.08 18.89-7.31l145.69-329.83c2.6-5.87-0.06-12.74-5.94-15.34z"/>
		<path id="&lt;Path&gt;" class="s3" d="m239.99 237.38l-33.86-14.96-6.06 13.73 33.86 14.96z"/>
		<path id="&lt;Path&gt;" class="s4" d="m267.19 186.32l-41.64-18.39-25.47 57.65 41.64 18.4z"/>
		<path id="&lt;Compound Path&gt;" class="s3" d="m241.73 246.36q-0.5 0-0.97-0.21l-41.64-18.39c-0.57-0.26-1.03-0.73-1.25-1.32-0.23-0.59-0.22-1.24 0.04-1.82l25.47-57.66c0.25-0.57 0.73-1.02 1.31-1.25 0.59-0.23 1.24-0.22 1.82 0.04l41.64 18.39c1.21 0.54 1.75 1.94 1.22 3.14l-25.47 57.66c-0.25 0.57-0.73 1.03-1.32 1.25q-0.41 0.17-0.85 0.17zm-38.51-21.99l37.29 16.47 23.55-53.31-37.29-16.47z"/>
		<path id="&lt;Path&gt;" class="s3" d="m266.83 186.52l-41.49-18.32-6.53 14.79 41.48 18.33z"/>
		<path id="&lt;Path&gt;" class="s4" d="m325.31 162.68l-4.23 9.57c-0.76 1.71-2.75 2.48-4.46 1.73-7.68-3.4-11.16-12.38-7.77-20.07l0.26-0.57-87.4-38.61-0.26 0.57c-3.39 7.69-12.38 11.17-20.06 7.77l-3.66-1.61c-1.71-0.76-2.48-2.75-1.73-4.46l4.2-9.49c0.96-2.19-0.03-4.75-2.22-5.72l-9.91-4.38c-2.19-0.97-4.75 0.02-5.72 2.21l-19.34 43.78c-0.96 2.19 0.03 4.75 2.22 5.72l9.91 4.38c2.19 0.96 4.75-0.03 5.72-2.22l4.19-9.49c0.76-1.71 2.75-2.48 4.46-1.73l3.66 1.62c7.69 3.4 11.16 12.38 7.77 20.07l-0.25 0.57 87.4 38.61 0.25-0.58c3.39-7.68 12.38-11.16 20.06-7.77 1.71 0.76 2.48 2.75 1.73 4.46l-4.23 9.57c-0.95 2.15 0.02 4.66 2.17 5.61l10.07 4.44c2.15 0.95 4.66-0.02 5.61-2.17l19.4-43.93c0.95-2.15-0.02-4.66-2.17-5.61l-10.07-4.44c-2.14-0.95-4.66 0.02-5.6 2.17z"/>
		<path id="&lt;Compound Path&gt;" class="s3" d="m319.86 219.4q-1.4 0-2.68-0.56l-10.07-4.45c-3.34-1.48-4.86-5.4-3.38-8.74l4.22-9.58c0.15-0.32 0.08-0.61 0.02-0.76-0.05-0.14-0.2-0.41-0.53-0.55q-2.48-1.1-5.18-1.1c-5.08 0-9.69 3-11.75 7.65l-0.25 0.58c-0.25 0.57-0.73 1.03-1.32 1.25-0.58 0.23-1.24 0.22-1.82-0.04l-87.4-38.6c-0.57-0.26-1.03-0.73-1.25-1.32-0.23-0.59-0.22-1.25 0.04-1.82l0.25-0.58c2.86-6.47-0.08-14.06-6.55-16.92l-3.66-1.62c-0.5-0.23-1.11 0.02-1.32 0.51l-4.2 9.49c-1.07 2.43-3.48 4.01-6.14 4.01q-1.41-0.01-2.71-0.58l-9.91-4.38c-1.64-0.72-2.9-2.04-3.55-3.71-0.65-1.68-0.61-3.5 0.12-5.14l19.34-43.78c1.07-2.43 3.48-4 6.14-4q1.41 0 2.71 0.57l9.91 4.38c1.64 0.73 2.9 2.05 3.55 3.72 0.65 1.67 0.61 3.5-0.12 5.14l-4.19 9.49c-0.15 0.33-0.07 0.62-0.02 0.77 0.06 0.14 0.2 0.4 0.53 0.55l3.66 1.62q2.49 1.09 5.18 1.09c5.08 0 9.7-3 11.75-7.65l0.25-0.57c0.25-0.58 0.73-1.03 1.31-1.26 0.59-0.23 1.25-0.21 1.83 0.04l87.4 38.61c1.2 0.53 1.74 1.93 1.21 3.14l-0.25 0.57c-1.39 3.14-1.47 6.62-0.23 9.82 1.24 3.2 3.65 5.73 6.79 7.11 0.49 0.23 1.1-0.02 1.31-0.51l4.23-9.57c1.06-2.4 3.44-3.95 6.07-3.95q1.39 0 2.67 0.56l10.07 4.45c1.62 0.71 2.87 2.02 3.51 3.67 0.64 1.65 0.59 3.45-0.12 5.07l-19.41 43.93c-1.06 2.4-3.44 3.95-6.06 3.95zm-17.6-30.49c2.46 0 4.85 0.5 7.11 1.5 1.4 0.62 2.48 1.75 3.04 3.18 0.55 1.44 0.52 3-0.11 4.41l-4.22 9.57c-0.42 0.94 0.01 2.05 0.95 2.47l10.07 4.45c0.93 0.41 2.07-0.04 2.47-0.96l19.41-43.93c0.2-0.46 0.21-0.97 0.03-1.43-0.18-0.47-0.53-0.84-0.99-1.04l-10.07-4.45c-0.93-0.41-2.07 0.04-2.47 0.96l-4.23 9.57c-1.24 2.82-4.75 4.19-7.59 2.94-4.3-1.9-7.6-5.36-9.29-9.74-1.49-3.83-1.59-7.97-0.32-11.82l-83.21-36.76c-3.1 5.47-8.93 8.92-15.31 8.92-2.45 0-4.84-0.5-7.1-1.5l-3.66-1.62c-1.41-0.62-2.49-1.75-3.04-3.18-0.56-1.44-0.52-3 0.1-4.41l4.19-9.5c0.21-0.47 0.22-1.01 0.04-1.49-0.19-0.49-0.56-0.87-1.04-1.08l-9.91-4.38c-0.98-0.45-2.16 0.04-2.58 0.99l-19.34 43.78c-0.21 0.48-0.23 1.01-0.04 1.5 0.19 0.49 0.56 0.87 1.04 1.08l9.91 4.38c0.98 0.44 2.16-0.04 2.58-1l4.2-9.49c1.24-2.82 4.75-4.19 7.59-2.94l3.66 1.62c8.33 3.68 12.39 13.08 9.61 21.56l83.21 36.76c3.1-5.48 8.94-8.92 15.31-8.92z"/>
		<path id="&lt;Path&gt;" class="s2" d="m291.14 164.09l-68.34-30.18c-2.26-1.01-3.3-3.68-2.3-5.94 1.01-2.27 3.68-3.3 5.94-2.3l68.34 30.18c2.26 1 3.3 3.68 2.29 5.94-1 2.27-3.67 3.3-5.93 2.3z"/>
		<path id="&lt;Path&gt;" class="s2" d="m143.36 269.29l47.79 49.99c8.53 8.93 7.42 24.15-2.45 34.02-8.2 8.2-19.82 10.02-28.43 5.34 4.92 8.99 2.95 21.31-5.49 29.75-6.46 6.47-15.06 8.95-22.64 7.45 1.91 8.13-0.61 17.55-7.48 24.42-8.3 8.31-20.14 10.09-28.78 5.16 1.81 7.33-0.43 15.89-6.65 22.12-8.85 8.85-22.22 9.54-29.87 1.55l-42.84-44.82c-1.99-2.07-3.39-4.53-4.22-7.19-2.38-7.57-0.13-16.76 6.42-23.31 6.18-6.18 14.55-8.29 21.66-6.33-0.59-1.11-1.15-2.25-1.53-3.46-2.65-8.44-0.15-18.69 7.16-26 6.49-6.48 15.12-8.96 22.72-7.43-1.93-8.12 0.52-17.56 7.4-24.44 8.19-8.19 19.8-10.01 28.41-5.34-0.66-1.2-1.24-2.44-1.65-3.74-2.65-8.45-0.15-18.69 7.16-26 9.87-9.88 24.78-10.65 33.31-1.74z"/>
		<path id="&lt;Compound Path&gt;" class="s3" d="m72.76 457.03c-5.86 0-11.23-2.23-15.12-6.3l-42.84-44.81c-2.19-2.3-3.8-5.03-4.77-8.13-2.71-8.64 0.04-18.73 7.01-25.7 5.27-5.28 12.5-8.13 19.45-7.69-2.84-9.48 0.22-20.48 7.84-28.1 5.84-5.84 13.82-9 21.52-8.52-0.85-8.34 2.28-17.04 8.6-23.35 5.44-5.44 12.69-8.57 19.9-8.57q3.05 0.01 5.94 0.73c-2.42-9.28 0.68-19.85 8.08-27.24 5.49-5.49 12.79-8.64 20.04-8.64 6.47 0 12.38 2.46 16.67 6.94l47.79 49.99c9.39 9.83 8.27 26.59-2.49 37.35-5.44 5.44-12.7 8.56-19.9 8.56q-3.08 0-6-0.74c2.44 9.19-0.5 19.74-8.02 27.26-5.82 5.83-13.75 8.96-21.46 8.53 0.84 8.32-2.32 17.01-8.66 23.34-5.45 5.45-12.71 8.58-19.92 8.58-2.61 0-5.17-0.41-7.58-1.2 0.35 7.14-2.5 14.46-7.93 19.9-4.97 4.96-11.58 7.81-18.15 7.81zm-37.7-87.92c-5.29 0-10.63 2.31-14.66 6.34-5.73 5.73-8.02 13.94-5.83 20.92 0.75 2.39 1.98 4.5 3.67 6.26l42.84 44.82c2.98 3.11 7.13 4.83 11.68 4.83 5.32 0 10.7-2.34 14.79-6.43 5.41-5.41 7.71-13.02 6.02-19.86-0.23-0.92 0.12-1.9 0.88-2.47 0.76-0.57 1.78-0.64 2.61-0.17 2.77 1.58 6 2.41 9.36 2.41 5.96 0 11.99-2.61 16.56-7.18 6.03-6.02 8.65-14.53 6.84-22.2-0.18-0.78 0.05-1.61 0.61-2.19 0.56-0.59 1.38-0.85 2.17-0.68 7.01 1.38 14.93-1.23 20.5-6.8 7.54-7.54 9.64-18.62 5.09-26.92-0.51-0.93-0.34-2.08 0.4-2.83 0.74-0.74 1.89-0.91 2.82-0.41 2.7 1.47 5.83 2.25 9.07 2.25 5.95 0 11.98-2.62 16.53-7.18 8.95-8.94 10.04-22.72 2.42-30.7l-47.79-49.98c-3.38-3.53-8.07-5.48-13.23-5.48-5.99 0-12.08 2.64-16.68 7.25-6.46 6.46-9.04 15.73-6.57 23.6 0.31 1.01 0.78 2.06 1.46 3.32 0.51 0.93 0.34 2.08-0.4 2.82-0.75 0.74-1.89 0.91-2.82 0.41-2.7-1.46-5.82-2.24-9.05-2.24-5.95 0-11.98 2.62-16.54 7.17-6 6-8.59 14.51-6.77 22.21 0.19 0.79-0.04 1.62-0.6 2.21-0.57 0.58-1.39 0.83-2.18 0.67-7.02-1.41-14.98 1.2-20.57 6.78-6.46 6.47-9.04 15.73-6.57 23.61 0.34 1.07 0.85 2.1 1.36 3.06 0.44 0.84 0.35 1.86-0.25 2.61-0.59 0.73-1.57 1.05-2.49 0.8q-2.26-0.63-4.68-0.63z"/>
		<path id="&lt;Path&gt;" class="s3" d="m159.79 359.49c0.33 0.16 0.77 0.08 1.08-0.23 0.38-0.38 0.42-0.96 0.09-1.31l-55.74-57.87c-0.33-0.34-0.9-0.31-1.28 0.07-0.38 0.39-0.42 0.97-0.09 1.31l55.74 57.87q0.09 0.1 0.2 0.16z"/>
		<path id="&lt;Path&gt;" class="s3" d="m131.66 396.69c0.32 0.16 0.74 0.09 1.05-0.2 0.39-0.37 0.45-0.95 0.14-1.32l-32.61-37.04c-0.3-0.37-0.88-0.34-1.28 0.02-0.39 0.37-0.45 0.96-0.14 1.32l32.61 37.04q0.1 0.11 0.23 0.18z"/>
		<path id="&lt;Path&gt;" class="s3" d="m81.35 412.38c0.31 0.16 0.73 0.09 1.04-0.19 0.39-0.36 0.46-0.95 0.15-1.31l-36.45-42.47c-0.3-0.38-0.88-0.37-1.28 0-0.4 0.36-0.47 0.95-0.16 1.31l36.46 42.47q0.1 0.13 0.24 0.19z"/>
		<path id="&lt;Path&gt;" class="s3" d="m95.4 426.27c0.3 0.15 0.7 0.1 1.01-0.16 0.41-0.35 0.5-0.93 0.22-1.32l-4.81-6.25c-0.3-0.38-0.86-0.4-1.27-0.06-0.41 0.35-0.51 0.94-0.22 1.32l4.81 6.25q0.11 0.14 0.26 0.22z"/>
		<path id="&lt;Path&gt;" class="s3" d="m154.41 336.83q0.05 0.13 0.13 0.23l10.64 14.81c0.16 0.23 0.42 0.35 0.7 0.34 0.44-0.02 10.98-0.51 19.21-9.8 0.36-0.43 0.35-1.03 0-1.35-0.37-0.33-0.96-0.26-1.33 0.16-6.69 7.54-15.25 8.82-17.27 9.03l-10.15-14.12c3.55-13.68 17.16-18.94 20.11-19.94l9.03 12.12c0.29 0.4 0.88 0.44 1.31 0.08 0.43-0.35 0.53-0.97 0.24-1.35l-9.37-12.59c-0.2-0.28-0.56-0.39-0.91-0.29-0.19 0.05-18.27 5.25-22.35 22.16q-0.06 0.26 0.01 0.51z"/>
		<path id="&lt;Path&gt;" class="s3" d="m124.21 375.23q0.05 0.12 0.14 0.22l11.83 13.79c0.17 0.21 0.44 0.31 0.73 0.28 0.44-0.05 11.01-1.36 18.59-11.18 0.34-0.45 0.28-1.05-0.09-1.34-0.4-0.3-0.99-0.18-1.34 0.26-6.16 7.98-14.68 9.92-16.7 10.27l-11.27-13.14c2.54-13.79 15.84-20.05 18.74-21.27l10 11.27c0.32 0.37 0.92 0.36 1.32-0.03 0.41-0.38 0.46-1 0.14-1.36l-10.38-11.69c-0.22-0.26-0.59-0.34-0.94-0.22-0.18 0.07-18 6.62-20.82 23.64q-0.04 0.26 0.05 0.5z"/>
		<path id="&lt;Path&gt;" class="s3" d="m90.21 407q0.06 0.12 0.14 0.22l11.83 13.79c0.18 0.21 0.45 0.31 0.73 0.27 0.45-0.04 11.01-1.36 18.6-11.18 0.33-0.45 0.28-1.05-0.1-1.33-0.4-0.3-0.99-0.18-1.33 0.26-6.16 7.97-14.68 9.91-16.7 10.27l-11.28-13.14c2.54-13.8 15.84-20.06 18.74-21.27l10 11.26c0.33 0.37 0.92 0.36 1.33-0.02 0.41-0.38 0.46-1.01 0.14-1.36l-10.38-11.7c-0.23-0.26-0.59-0.34-0.95-0.22-0.18 0.07-17.99 6.63-20.82 23.64q-0.04 0.27 0.05 0.51z"/>
		<path id="&lt;Path&gt;" class="s3" d="m54.41 435.43q0.05 0.12 0.13 0.21l11.21 13.06c0.16 0.2 0.42 0.29 0.69 0.26 0.42-0.04 10.43-1.29 17.61-10.59 0.31-0.42 0.26-0.99-0.09-1.26-0.38-0.29-0.94-0.17-1.26 0.24-5.84 7.56-13.91 9.39-15.82 9.73l-10.68-12.45c2.4-13.06 15-18.99 17.75-20.14l9.47 10.67c0.31 0.35 0.87 0.34 1.25-0.03 0.39-0.36 0.44-0.95 0.14-1.28l-9.84-11.08c-0.21-0.25-0.56-0.32-0.89-0.21-0.17 0.07-17.04 6.28-19.72 22.39q-0.04 0.25 0.05 0.48z"/>
		<path id="&lt;Path&gt;" class="s3" d="m945.93 683.33c0 0-1.14-34.09-12.28-60.09-11.13-25.99-27.14-90.66-49.41-137.68-22.27-47.03-177.15-100.04-177.15-100.04 0 0-3.71-21.01-8.66-29.66-4.94-8.66-23.5-6.18-23.5-6.18 0 0-82.91 9.91-110.14 0.01-27.23-9.91-40.83 14.85-40.83 14.85 0 0-141.06 12.69-174.49 43.61q-3.25 3.02-6.3 6.29c-10.85 11.58-19.79 25.28-27.46 39.11q-1.25 2.22-2.43 4.45c-11.78 21.98-20.48 43.77-28.68 57.42-14.84 24.75-48.96 63.21-48.96 63.21l51.62 38.86 51.24 39.63c0 0-15.83 105.48-31.04 220.23-11.22 90.48-9.49 164.75-9.49 164.75l461.1 6.67-10.8-317.2c30.21-5.07 219.26-35.91 197.66-48.24z"/>
		<path id="&lt;Path&gt;" class="s2" d="m484.36 1051.22q-0.19 0-0.39-0.03c-1.29-0.21-2.16-1.43-1.95-2.72l104.77-638.11c0.21-1.29 1.42-2.16 2.72-1.95 1.29 0.21 2.17 1.43 1.96 2.72l-104.77 638.1c-0.19 1.17-1.2 1.99-2.34 1.99z"/>
		<path id="&lt;Path&gt;" class="s3" d="m674.92 357.74c13 0 17.33 6.19 15.47 11.14-1.86 4.95-43.93 29.7-43.93 29.7l-88.47-14.85c0 0-19.18-21.04-14.24-25.99 4.95-4.95 18.57-5.57 18.57-5.57z"/>
		<path id="&lt;Path&gt;" class="s2" d="m627.9 481.38q-0.24 0-0.47-0.05c-0.68-0.13-1.25-0.55-1.59-1.15l-37.68-66.34-74.31 35.75c-0.74 0.36-1.62 0.31-2.31-0.14-0.69-0.44-1.1-1.21-1.09-2.03 0-0.43 0.74-44.06 11.21-83.48 0.34-1.27 1.64-2.02 2.9-1.68 1.27 0.33 2.02 1.63 1.69 2.9-8.53 32.09-10.51 67.02-10.95 78.47l72.8-35.02c1.12-0.54 2.47-0.12 3.09 0.97l37.41 65.87c11.76-9.3 68.11-55.39 76.19-90.4 0.29-1.27 1.56-2.06 2.84-1.78 1.27 0.3 2.07 1.57 1.78 2.85-9.37 40.58-77.19 92.58-80.07 94.78-0.42 0.31-0.93 0.48-1.44 0.48z"/>
		<path id="&lt;Path&gt;" class="s2" d="m762.22 539.24c-0.68 0-1.35-0.29-1.82-0.85-0.84-1.01-0.7-2.5 0.3-3.34 49.56-41.3 103.2-43.43 103.74-43.45 1.29-0.07 2.4 0.99 2.44 2.3 0.04 1.3-0.98 2.4-2.29 2.44-0.52 0.02-52.61 2.15-100.85 42.35-0.45 0.37-0.98 0.55-1.52 0.55z"/>
		<path id="&lt;Path&gt;" class="s2" d="m730.61 715.87c-1.15 0-2.16-0.83-2.34-2l-11.14-71.77c-0.2-1.3 0.68-2.51 1.98-2.71 1.29-0.19 2.5 0.69 2.7 1.98l11.14 71.77c0.2 1.3-0.68 2.51-1.98 2.71q-0.18 0.02-0.36 0.02z"/>
		<path id="&lt;Path&gt;" class="s2" d="m384.51 487.06c-1.31 0-2.37-1.07-2.37-2.37 0-15.48-15.78-58.15-15.94-58.58-0.45-1.22 0.17-2.59 1.4-3.04 1.23-0.45 2.59 0.16 3.05 1.39 0.66 1.79 16.23 43.9 16.23 60.23 0 1.3-1.06 2.37-2.37 2.37z"/>
		<path id="&lt;Compound Path&gt;" class="s2" d="m599.16 509.17c-5.76 0-10.41-4.65-10.41-10.41 0-5.76 4.65-10.41 10.41-10.41 5.76 0 10.41 4.65 10.41 10.41 0 5.76-4.65 10.41-10.41 10.41zm0-4.74c-3.14 0-5.67-2.53-5.67-5.67 0-3.14 2.53-5.67 5.67-5.67 3.14 0 5.67 2.53 5.67 5.67 0 3.14-2.53 5.67-5.67 5.67z"/>
		<path id="&lt;Path&gt;" class="s2" d="m544.08 196.07c0 0-26.32-37.45-47.35-11.48-21.02 25.98-0.27 59.46 28.43 63.88"/>
		<path id="&lt;Path&gt;" class="s3" d="m525.16 250.84q-0.18 0-0.37-0.02c-16.23-2.5-30.49-13.88-36.33-28.99-5.12-13.25-2.78-27.36 6.42-38.73 5.6-6.91 12.11-10.32 19.33-10.04 16.82 0.57 31.21 20.78 31.81 21.64 0.76 1.07 0.5 2.55-0.57 3.31-1.08 0.75-2.56 0.5-3.32-0.58-0.13-0.19-13.65-19.14-28.09-19.62-5.67-0.17-10.86 2.59-15.46 8.28-8.22 10.16-10.24 22.24-5.69 34.02 5.24 13.55 18.05 23.76 32.63 26.01 1.29 0.2 2.19 1.41 1.99 2.71-0.19 1.17-1.2 2.01-2.35 2.01z"/>
		<path id="&lt;Path&gt;" class="s3" d="m537.57 105.92c-13 19.8-8.66 79.82-8.66 79.82l18.56-65.59z"/>
		<path id="&lt;Path&gt;" class="s2" d="m730.31 265.88c-10.8 15.03-23.93 31.27-37.89 44.23l-11.86 61.72c0 0-32.04 40.57-91.42 38.91 0 0-36.32-20.62-38.79-49.49 0 0 1.64-5.83 3.68-13.37 1.64-5.99 3.52-13.08 5.04-19.17-11.34-5.47-20.61-12.32-26.54-19.67q-1.56-1.93-2.8-3.9c-20.62-32.79-26.81-59.38-5.78-111.35 12.22-30.18 8.87-50.75 13.1-71.15 13.27 3.87 32.06 1.87 46.19-0.69-7.45 11.46-14.2 28.06 1.92 36.05 25.28 12.53 81.17-18.72 84.08-20.36-2.55 1.74-32.16 21.05-25.55 33.54 6.8 12.86 73.3 4.99 73.3 4.99l3.09 87.35z"/>
		<path id="&lt;Compound Path&gt;" class="s3" d="m592.68 413.16q-1.79 0-3.61-0.04-0.59-0.02-1.11-0.32c-1.52-0.86-37.43-21.58-39.98-51.35q-0.04-0.43 0.08-0.85c0-0.01 1.64-5.82 3.68-13.34 1.62-5.92 3.25-12.09 4.56-17.26-10.95-5.52-19.78-12.22-25.62-19.46q-1.56-1.93-2.96-4.12c-20.48-32.58-27.5-60.32-5.98-113.52 7.94-19.6 9.22-35.36 10.35-49.26 0.6-7.42 1.17-14.42 2.63-21.49 0.14-0.65 0.54-1.21 1.11-1.55 0.57-0.34 1.26-0.43 1.89-0.25 10.27 3 26.04 2.72 45.09-0.74 0.94-0.18 1.88 0.23 2.41 1.02 0.52 0.79 0.53 1.81 0.01 2.61-4.36 6.72-9.14 16.31-7.09 23.79 1.03 3.76 3.67 6.65 8.08 8.84 3.63 1.8 8.24 2.71 13.71 2.71 27.12 0 66.47-22.07 68.13-23.01 1.11-0.62 2.52-0.27 3.19 0.82 0.68 1.08 0.38 2.5-0.67 3.22l-0.38 0.25c-14.4 9.69-28.37 22.72-24.4 30.2 0.97 1.84 6.01 6.12 31.81 6.12 18.87 0 38.9-2.35 39.1-2.37 0.67-0.08 1.32 0.12 1.83 0.55 0.5 0.44 0.8 1.06 0.83 1.73l3.02 85.52 8.45 1.95c0.78 0.18 1.41 0.73 1.69 1.48 0.28 0.74 0.17 1.58-0.29 2.22-12.86 17.9-25.52 32.72-37.63 44.06l-11.72 60.96q-0.11 0.57-0.47 1.02c-0.31 0.4-32.15 39.86-89.74 39.86zm-2.87-4.78c53.78 1.27 84.91-33.33 88.53-37.6l11.75-61.12c0.09-0.49 0.34-0.95 0.72-1.29 11.39-10.58 23.31-24.36 35.47-40.98l-6.73-1.55c-1.05-0.24-1.81-1.16-1.84-2.23l-3.01-84.8c-6.07 0.63-21.93 2.12-37.09 2.12-28.19 0-34.06-4.93-36.02-8.64-3.7-6.99 1.34-15.21 8.66-22.53-14.51 6.46-34.17 13.58-50.32 13.58-6.21 0-11.53-1.08-15.82-3.21-5.61-2.78-9.17-6.77-10.56-11.85-1.73-6.34-0.06-14.1 4.97-23.12-16.11 2.53-29.7 2.7-39.61 0.41-1.07 5.99-1.56 12.07-2.08 18.45-1.16 14.25-2.46 30.39-10.68 50.66-20.87 51.6-14.49 77.26 5.59 109.2q1.24 1.94 2.64 3.66c5.71 7.09 14.61 13.67 25.73 19.03 1.01 0.49 1.55 1.62 1.27 2.72-1.39 5.55-3.23 12.55-5.05 19.22-1.73 6.35-3.16 11.48-3.57 12.96 2.48 25.26 32.78 44.33 37.05 46.91z"/>
		<path id="&lt;Path&gt;" class="s3" d="m636.46 228.67c1.83-6.26 6.2-10.5 9.78-9.46 3.58 1.04 5 6.96 3.18 13.23-1.83 6.26-6.2 10.5-9.78 9.46-3.58-1.04-5-6.96-3.18-13.23z"/>
		<path id="&lt;Path&gt;" class="s3" d="m548.22 203.19c1.82-6.27 6.19-10.5 9.77-9.46 3.58 1.04 5 6.96 3.18 13.22-1.83 6.27-6.2 10.5-9.78 9.46-3.57-1.04-5-6.96-3.17-13.22z"/>
		<path id="&lt;Path&gt;" class="s3" d="m664.16 218.21c1.26 0.17 2.57-0.13 3.67-0.94 2.21-1.65 2.67-4.78 1.03-6.99-0.45-0.61-11.31-15.06-25.29-18.27-2.69-0.61-5.37 1.07-5.99 3.76-0.61 2.69 1.07 5.37 3.76 5.99 10.35 2.37 19.41 14.36 19.5 14.48 0.83 1.12 2.04 1.79 3.32 1.97z"/>
		<path id="&lt;Path&gt;" class="s3" d="m551.74 182.03c0.84 0.12 1.72 0.02 2.56-0.32 0.25-0.1 11.25-4.32 24-0.15 2.62 0.85 5.45-0.57 6.31-3.2 0.86-2.62-0.57-5.45-3.2-6.31-16.44-5.38-30.3 0.17-30.88 0.41-2.56 1.04-3.78 3.96-2.73 6.52 0.7 1.71 2.24 2.82 3.94 3.05z"/>
		<path id="&lt;Path&gt;" class="s3" d="m746.7 269.63l-16.39-3.75-17.05-19.79-1.19-71.35c0 0-64.55 12.87-71.35 0-6.61-12.48 25.97-35.36 28.52-37.1-2.91 1.64-58.8 32.89-84.08 20.36-16.12-7.99-9.37-24.59-1.92-36.05-14.13 2.56-32.92 4.56-46.19 0.69-14.22-4.12-22.14-14.99-11.3-39.1 29.14-64.81 148.65-60.05 187.89-48.76l-0.86 0.64q3.47 0.58 6.68 1.91c43.93 18.29 47.64 53.51 47.64 53.51 0 0 4.97-25.73 13.01-22.36 7.02 2.95-1.52 30.21-3.81 37.06 1.6-4.36 6.81-15.96 14.94-9.28 9.89 8.11-10.51 24.38-10.51 24.38 38.98 75.17-9.28 125.28-34.03 148.99z"/>
		<path id="&lt;Path&gt;" class="s2" d="m648.38 43.81q-11.9 1.74-23.55 4.76c-6.98 1.81-14.93 5.03-16.64 12.03-1.57 6.42 3.37 12.96 9.42 15.63 6.05 2.67 12.91 2.49 19.52 2.55 12.01 0.11 25.06 1.61 33.7 9.95 7.27 7.01 9.96 17.49 15.92 25.64 9.73 13.33 28.74 18.98 44.18 13.13 8.05-3.05 15.73-11.19 13.05-19.37-1.8-5.52-7.68-8.71-13.38-9.77-5.7-1.07-11.6-0.56-17.32-1.5-7.79-1.28-15.1-5.33-20.32-11.25-4.89-5.55-7.99-12.66-13.66-17.42-5.28-4.43-12.7-6.78-15.86-12.9-1.74-3.38-2.05-7.71-5-10.1-2.71-2.2-6.61-1.89-10.06-1.38z"/>
		<path id="&lt;Compound Path&gt;" class="s3" d="m718.09 130.99c-12.76 0-25.14-6.1-32.3-15.92-2.52-3.44-4.47-7.29-6.35-11.02-2.73-5.39-5.3-10.48-9.43-14.46-8.65-8.34-22.12-9.52-32.89-9.62l-1.55-0.01c-6.21-0.04-12.64-0.08-18.44-2.65-6.24-2.75-11.9-9.64-10.1-17 1.47-6 7.19-10.22 17.5-12.89 7.76-2.01 15.72-3.62 23.68-4.79 1.2-0.17 2.78-0.37 4.32-0.37 2.81 0 4.99 0.65 6.66 2 2.19 1.78 3.07 4.39 3.91 6.9 0.43 1.28 0.83 2.49 1.4 3.58 1.91 3.71 5.56 5.96 9.43 8.34 2.08 1.28 4.24 2.61 6.13 4.2 3.5 2.94 6.05 6.73 8.52 10.39 1.64 2.44 3.34 4.95 5.27 7.15 5.01 5.68 12.16 9.64 19.62 10.87 2.68 0.44 5.47 0.56 8.18 0.67 3.01 0.13 6.12 0.26 9.17 0.83 7.23 1.35 12.57 5.3 14.29 10.57 2.85 8.71-4.76 17.44-13.76 20.85-4.16 1.58-8.62 2.38-13.26 2.38zm-65.56-86.36c-1.39 0-2.85 0.19-3.97 0.36-7.88 1.15-15.76 2.74-23.43 4.73-9.38 2.43-14.55 6.08-15.79 11.16-1.43 5.87 3.32 11.86 8.75 14.26 5.35 2.36 11.53 2.4 17.5 2.44l1.55 0.01c11.21 0.1 25.27 1.37 34.52 10.29 4.42 4.26 7.2 9.76 9.9 15.09 1.84 3.65 3.75 7.42 6.15 10.7 6.73 9.21 18.37 14.94 30.38 14.94 4.35 0 8.53-0.75 12.42-2.22 7.78-2.95 14.71-10.63 12.34-17.89-1.7-5.22-7.56-8.06-12.47-8.97-2.88-0.54-5.91-0.67-8.83-0.79-2.78-0.12-5.65-0.24-8.46-0.71-8.12-1.33-15.58-5.46-21.02-11.64-2.04-2.31-3.78-4.89-5.46-7.39-2.49-3.69-4.84-7.18-8.07-9.89-1.77-1.49-3.85-2.77-5.86-4.01-3.97-2.44-8.08-4.98-10.29-9.27-0.65-1.25-1.11-2.6-1.54-3.91-0.77-2.3-1.5-4.46-3.16-5.81-1.23-0.99-2.92-1.48-5.16-1.48z"/>
		<path id="&lt;Path&gt;" class="s3" d="m585.84 291.9c-13 0-23.51-5.26-24.23-5.62-1.16-0.6-1.63-2.03-1.03-3.19 0.59-1.16 2.01-1.63 3.18-1.04 0.27 0.14 26.72 13.29 46.02-3.68 0.97-0.86 2.48-0.77 3.34 0.22 0.86 0.98 0.77 2.48-0.21 3.34-8.69 7.64-18.43 9.97-27.07 9.97z"/>
		<path id="&lt;Path&gt;" class="s3" d="m615.66 287.18c-0.72 0-1.43-0.33-1.9-0.95l-6.91-9.22c-0.78-1.05-0.57-2.54 0.48-3.32 1.05-0.79 2.53-0.57 3.31 0.47l6.92 9.23c0.78 1.05 0.57 2.53-0.48 3.32-0.42 0.32-0.92 0.47-1.42 0.47z"/>
		<path id="&lt;Path&gt;" class="s2" d="m713.85 239.55c0 0 47.13-8.76 44.79 24.58-2.33 33.33-36.51 43.51-60.51 27.17"/>
		<path id="&lt;Path&gt;" class="s3" d="m722.47 301.35c-8.82 0-17.82-2.73-25.68-8.08-1.09-0.74-1.37-2.22-0.63-3.31 0.74-1.08 2.22-1.37 3.3-0.63 11.88 8.09 26.63 9.54 38.48 3.79 10.87-5.28 17.38-15.63 18.33-29.16 0.5-7.16-1.34-12.51-5.64-16.35-11.42-10.19-36.1-5.77-36.35-5.72-1.29 0.21-2.53-0.61-2.77-1.91-0.24-1.29 0.62-2.53 1.91-2.77 1.1-0.21 27.21-4.89 40.37 6.85 5.4 4.81 7.83 11.62 7.22 20.23-1.05 15.08-8.71 27.14-21 33.11-5.46 2.65-11.45 3.95-17.54 3.95z"/>
		<path id="&lt;Path&gt;" class="s3" d="m647.66 319.22c0 0-33.84 39.72-93.63 28.66 1.64-5.99 3.52-13.08 5.04-19.17-11.34-5.47-20.61-12.32-26.54-19.67q0.18-0.11 0.17-0.12c24.98 22.99 59.86 28.54 114.96 10.3z"/>
		<path id="&lt;Path&gt;" class="s3" d="m583.09 251.85c-0.55 0-1.1-0.18-1.55-0.55-1.29-1.05-7.21-10.24-7.21-12.94 0-1.35 0.67-2.24 5.96-8.6 5.23-6.29 13.14-15.79 14.77-20.69 0.42-1.25 1.76-1.92 3.01-1.5 1.25 0.41 1.92 1.76 1.5 3-1.91 5.75-9.84 15.27-15.62 22.23-1.88 2.26-3.98 4.78-4.75 5.89 0.75 1.83 4.45 7.99 5.43 9 1.01 0.83 1.13 2.29 0.3 3.31-0.47 0.56-1.15 0.85-1.84 0.85z"/>
		<path id="&lt;Path&gt;" class="s3" d="m704.34 274.83q-0.4 0-0.8-0.14c-1.23-0.44-1.88-1.8-1.44-3.04 4.27-12.06 16.18-17.82 26.09-18.18 8.67-0.36 15.71 3.26 18.36 9.31 0.53 1.2-0.02 2.6-1.23 3.13-1.2 0.53-2.6-0.02-3.13-1.23-1.84-4.22-7.1-6.66-13.83-6.45-8.3 0.29-18.25 5.05-21.78 15.01-0.35 0.98-1.26 1.59-2.24 1.59z"/>
		<path id="&lt;Path&gt;" class="s3" d="m724.16 273.64c-0.97 0-1.87-0.59-2.23-1.54l-4.76-12.69c-0.46-1.23 0.17-2.6 1.4-3.06 1.23-0.46 2.6 0.16 3.06 1.39l4.75 12.68c0.46 1.23-0.16 2.6-1.39 3.07q-0.41 0.15-0.83 0.15z"/>
		<path id="&lt;Path&gt;" class="s3" d="m518.84 208.24c-0.75 0-1.49-0.36-1.95-1.02-2.22-3.15-8.09-9.46-11.1-7.65-1.13 0.68-2.59 0.31-3.26-0.81-0.68-1.13-0.32-2.59 0.81-3.27 7.63-4.58 16.46 7.6 17.44 9 0.76 1.08 0.49 2.56-0.58 3.31-0.42 0.29-0.89 0.44-1.36 0.44z"/>
		<path id="&lt;Path&gt;" class="s3" d="m260.66 601.03h260.46l-84.76 146.93h-260.46z"/>
		<path id="&lt;Path&gt;" class="s5" d="m518.64 630.07l-245.65 1.74-66.56 116.27v294.71h358.87v-289.12z"/>
		<path id="&lt;Compound Path&gt;" class="s3" d="m565.3 1045.17h-358.87c-1.31 0-2.38-1.06-2.38-2.38v-294.71q0-0.63 0.32-1.18l66.56-116.27c0.42-0.74 1.2-1.19 2.04-1.2l245.65-1.74q0.01 0 0.02 0c0.99 0 1.87 0.62 2.22 1.54l46.66 123.6q0.15 0.4 0.15 0.84v289.12c0 1.32-1.06 2.38-2.37 2.38zm-356.49-4.76h354.11v-286.31l-45.92-121.64-242.63 1.72-65.56 114.53z"/>
		<path id="&lt;Path&gt;" class="s6" d="m539.68 630.07l-134.89 1.74-36.55 116.27v294.71h197.06v-289.12z"/>
		<path id="&lt;Compound Path&gt;" class="s3" d="m565.3 1045.17h-197.06c-1.31 0-2.38-1.06-2.38-2.38v-294.71q0-0.36 0.11-0.71l36.55-116.27c0.31-0.98 1.21-1.66 2.24-1.67l134.89-1.74c1.03-0.05 2.12 0.78 2.35 1.9l25.62 123.59q0.05 0.24 0.05 0.49v289.12c0 1.32-1.06 2.38-2.37 2.38zm-194.68-4.76h192.3v-286.5l-25.18-121.43-131.2 1.68-35.92 114.29z"/>
		<path id="&lt;Path&gt;" class="s7" d="m527.69 601.03h-260.46l84.76 146.93h260.46z"/>
		<path id="&lt;Compound Path&gt;" class="s3" d="m616.57 750.33h-265.95l-87.5-151.67h265.95zm-263.21-4.76h254.97l-82.01-142.16h-254.97z"/>
		<path id="&lt;Path&gt;" class="s2" d="m615.92 750.93h-265.65l-0.86-1.49-83.9-145.43h-3.13l-83.9 145.43-5.15-2.97 85.61-148.41h10.02l0.85 1.49 83.9 145.43h262.21z"/>
		<path id="&lt;Compound Path&gt;" class="s3" d="m615.92 752.12h-265.65c-0.43 0-0.82-0.23-1.03-0.6l-0.86-1.48-83.55-144.84h-1.76l-83.56 144.84c-0.16 0.27-0.42 0.47-0.72 0.55-0.31 0.08-0.63 0.04-0.91-0.12l-5.15-2.97c-0.57-0.33-0.76-1.06-0.43-1.63l85.61-148.41c0.21-0.37 0.61-0.59 1.03-0.59h10.02c0.42 0 0.82 0.22 1.03 0.59l0.85 1.49 83.56 144.84h261.52c0.66 0 1.19 0.53 1.19 1.19v5.95c0 0.66-0.53 1.19-1.19 1.19zm-264.96-2.38h263.77v-3.57h-261.02c-0.42 0-0.82-0.23-1.03-0.6l-84.41-146.33h-8.64l-84.68 146.79 3.09 1.79 83.31-144.4c0.22-0.37 0.61-0.6 1.03-0.6h3.13c0.43 0 0.82 0.23 1.03 0.6z"/>
		<path id="&lt;Path&gt;" class="s3" d="m269.96 851.2c-14.27 0-25.81-13.98-25.81-31.27 0-17.29 11.54-31.27 25.81-31.27 14.28 0 25.81 13.98 25.81 31.27 0 17.29-11.53 31.27-25.81 31.27z"/>
		<path id="&lt;Path&gt;" class="s6" d="m255.07 819.93c0-14.94 8.67-27.4 20.23-30.49-1.8-0.49-3.66-0.78-5.58-0.78-14.26 0-25.81 14-25.81 31.27 0 17.27 11.55 31.27 25.81 31.27 1.92 0 3.78-0.3 5.58-0.78-11.56-3.1-20.23-15.55-20.23-30.49z"/>
		<path id="&lt;Compound Path&gt;" class="s3" d="m269.72 853.58c-15.55 0-28.19-15.1-28.19-33.65 0-18.56 12.64-33.65 28.19-33.65 2 0 4.03 0.28 6.2 0.86 1.03 0.28 1.76 1.22 1.76 2.3 0 1.07-0.73 2.02-1.76 2.29-10.7 2.87-18.47 14.73-18.47 28.2 0 13.47 7.77 25.33 18.47 28.19 1.04 0.28 1.76 1.22 1.76 2.3 0 1.08-0.73 2.02-1.77 2.3-2.16 0.58-4.19 0.86-6.19 0.86zm-3.83-62.16c-11.11 2.26-19.61 14.18-19.61 28.51 0 14.32 8.5 26.25 19.61 28.5-8.07-5.98-13.2-16.57-13.2-28.5 0-11.93 5.14-22.53 13.2-28.51z"/>
		<path id="&lt;Path&gt;" class="s6" d="m170.18 892.89h93.84c3.68 0 6.69-3.01 6.69-6.68v-5.25c0-3.67-3.01-6.68-6.69-6.68h-93.84c-3.68 0-6.68 3.01-6.68 6.68v5.25c0 3.67 3 6.68 6.68 6.68z"/>
		<path id="&lt;Compound Path&gt;" class="s3" d="m264.02 895.27h-93.84c-5 0-9.06-4.06-9.06-9.06v-5.24c0-5 4.06-9.07 9.06-9.07h93.84c5 0 9.07 4.07 9.07 9.07v5.24c0 5-4.07 9.06-9.07 9.06zm-93.84-18.61c-2.37 0-4.31 1.93-4.31 4.31v5.24c0 2.37 1.94 4.3 4.31 4.3h93.84c2.38 0 4.31-1.93 4.31-4.3v-5.24c0-2.38-1.93-4.31-4.31-4.31z"/>
		<path id="&lt;Path&gt;" class="s2" d="m930.58 651.99c0 0 65.21 228.28-6.17 296.09-108.17 102.77-326.49-112.73-326.49-112.73 0 0-72.81 1.93-88.58-32.77 0 0-8.66 17.71-28.07 11.07-19.41-6.63-52-60.27-39.3-85.1 0 0-7.19-23.38 11.66-38.51 0 0-9.63-16.58 5.42-31.79 0 0-55.08 2.18-49.58-31.31 0 0-5.01-6.15 52.34-20.14 57.36-13.98 81.95-8.8 101.2-0.87 19.25 7.93 80.32 60.93 95.2 72.26 14.88 11.33 102.95 57.06 102.95 57.06l-4.34-41.96c63.47-47.26 65.43-43.73 173.76-41.3z"/>
		<path id="&lt;Compound Path&gt;" class="s3" d="m852.03 978.23c-107.36 0-243.91-129.71-255.06-140.48-8.56 0.07-69.55-0.46-87.82-30.47-3.11 4.12-9.43 10.24-19.48 10.24-2.95 0-6.03-0.54-9.17-1.62-12.16-4.15-28.73-24.81-37.71-47.02-6.67-16.51-7.85-30.87-3.34-40.59-1.1-4.59-4.76-24.75 11.25-38.89-1.92-4.52-5.63-16.72 3.21-28.79-10.08-0.32-31.83-2.43-41.86-14.25-4.44-5.22-6.12-11.69-5.01-19.23-0.1-0.49-0.09-1.1 0.14-1.79 0.7-2.07 2.8-8.35 54.07-20.85 24.29-5.92 44.19-8.79 60.84-8.79 19.66 0 32.18 4.06 41.83 8.03 14.67 6.05 52.11 36.88 76.88 57.28 8.44 6.94 15.1 12.43 18.85 15.29 12.77 9.72 81.46 45.79 98.69 54.8l-3.89-37.57c-0.08-0.83 0.28-1.65 0.95-2.15 49.01-36.49 61.86-42.99 113.5-42.99 11.58 0 25.44 0.34 41.47 0.74q9.46 0.24 20.27 0.48c1.04 0.03 1.94 0.73 2.23 1.73 2.68 9.37 64.78 230.44-6.82 298.47-19.86 18.86-44.76 28.42-74.02 28.42zm-254.11-145.25c0.62 0 1.22 0.24 1.67 0.68 1.41 1.4 142.93 139.81 252.43 139.82q0 0 0.01 0c28 0 51.8-9.13 70.74-27.12 66.34-63.03 11.71-271.09 5.99-292.03q-9.81-0.23-18.5-0.45c-16.01-0.39-29.84-0.73-41.36-0.73-49.8 0-62.53 6.25-109.58 41.24l4.2 40.61c0.09 0.87-0.3 1.72-1.02 2.22-0.73 0.48-1.66 0.54-2.44 0.14-3.6-1.87-88.42-45.96-103.29-57.28-3.83-2.91-10.52-8.42-18.99-15.4-23.06-18.99-61.66-50.78-75.67-56.55-9.22-3.8-21.19-7.68-40.02-7.68-16.27 0-35.8 2.84-59.71 8.67-42.82 10.43-49.53 16.2-50.55 17.53q0.04 0.33-0.01 0.67c-1.06 6.44 0.2 11.66 3.86 15.96 9.94 11.71 34.18 12.62 41.37 12.62 1.2 0 1.89-0.02 1.91-0.02 0.96-0.11 1.88 0.52 2.27 1.42 0.39 0.89 0.2 1.93-0.49 2.62-13.61 13.76-5.14 28.78-5.06 28.93 0.6 1.01 0.35 2.31-0.56 3.05-17.39 13.95-10.94 35.73-10.88 35.95 0.19 0.59 0.13 1.23-0.15 1.78-4.34 8.48-3.23 21.78 3.11 37.47 8.38 20.73 24.01 40.6 34.84 44.3 2.64 0.9 5.21 1.36 7.63 1.36 11.83 0 17.31-10.78 17.54-11.23 0.41-0.83 1.27-1.27 2.17-1.33 0.92 0.02 1.75 0.56 2.13 1.39 13.58 29.89 72.65 31.4 84.35 31.4 1.27 0 1.98-0.01 1.99-0.01q0.04 0 0.07 0z"/>
		<path id="&lt;Path&gt;" class="s3" d="m459.52 660.58c-1.04 0.2-2.13-0.31-2.61-1.31-0.56-1.18-0.06-2.6 1.13-3.16 21.22-10.1 43.35-15.31 69.62-16.37 1.31-0.06 2.41 0.96 2.46 2.27 0.06 1.31-0.96 2.42-2.27 2.46-25.61 1.05-47.14 6.1-67.78 15.92q-0.27 0.13-0.55 0.19z"/>
		<path id="&lt;Path&gt;" class="s3" d="m512.62 681.62q-0.31 0.06-0.65 0.04c-20.75-1.65-57.22 10.51-57.59 10.63-1.24 0.42-2.58-0.25-3-1.49-0.42-1.24 0.25-2.59 1.49-3.01 1.53-0.51 37.77-12.58 59.47-10.86 1.31 0.1 2.28 1.25 2.18 2.55-0.09 1.08-0.88 1.94-1.9 2.14z"/>
		<path id="&lt;Path&gt;" class="s3" d="m442.44 730.87c-0.92 0.19-1.9-0.19-2.45-1.02-0.72-1.1-0.41-2.57 0.68-3.28 12.53-8.25 43.27-11.06 44.58-11.18 1.3-0.11 2.45 0.85 2.57 2.15 0.11 1.31-0.84 2.45-2.16 2.57-0.3 0.03-30.85 2.83-42.39 10.42q-0.39 0.26-0.83 0.34z"/>
		<path id="&lt;Path&gt;" class="s3" d="m509.81 804.9c-0.95 0.19-1.95-0.22-2.49-1.09-11.8-19.27-17.36-49.71-17.59-50.99-0.23-1.28 0.6-2.49 1.87-2.75q0.02 0 0.03 0c1.3-0.24 2.53 0.62 2.76 1.91 0.06 0.31 5.64 30.85 16.97 49.36 0.69 1.11 0.34 2.57-0.78 3.26q-0.37 0.22-0.77 0.3z"/>
		<path id="&lt;Path&gt;" class="s3" d="m494.83 766.25c-0.66 0.13-1.37-0.02-1.94-0.46l-8.61-6.8c-1.02-0.81-1.2-2.3-0.39-3.33 0.81-1.02 2.3-1.21 3.33-0.39l8.61 6.79c1.03 0.82 1.21 2.31 0.4 3.33-0.37 0.46-0.87 0.75-1.4 0.86z"/>
		<path id="&lt;Path&gt;" class="s3" d="m445.53 633.19q-0.03 0.01-0.06 0.01l-23.18 4c-1.09 0.19-2.16-0.4-2.59-1.42l-1.82-4.37c-0.5-1.21 0.07-2.6 1.28-3.1 1.22-0.51 2.59 0.07 3.1 1.28l1.09 2.62 19.7-3.4c1.57-9.15-1.63-14.75-1.78-14.99-0.66-1.13-0.29-2.58 0.83-3.25 1.12-0.66 2.56-0.31 3.24 0.81 0.19 0.32 4.7 7.99 2.04 20-0.21 0.92-0.93 1.63-1.85 1.81z"/>
		<path id="&lt;Path&gt;" class="s3" d="m600.72 653.61q-0.52 0.1-1.06-0.03l-26.93-6.93c-1.27-0.32-2.03-1.61-1.71-2.88 0.33-1.27 1.62-2.03 2.89-1.71l26.93 6.93c1.27 0.32 2.04 1.61 1.71 2.88-0.23 0.91-0.97 1.56-1.83 1.74z"/>
		<path id="&lt;Path&gt;" class="s3" d="m593.5 660.1c-1.03 0.2-2.1-0.29-2.59-1.27l-10.49-20.93c-0.58-1.17-0.11-2.6 1.06-3.18 1.17-0.59 2.6-0.12 3.18 1.05l10.49 20.94c0.59 1.17 0.12 2.59-1.05 3.18q-0.3 0.15-0.6 0.21z"/>
		<path id="&lt;Path&gt;" class="s3" d="m585.06 692.07q-0.52 0.1-1.05-0.03l-26.94-6.92c-1.27-0.33-2.03-1.62-1.71-2.89 0.33-1.27 1.63-2.03 2.89-1.7l26.93 6.92c1.27 0.32 2.04 1.61 1.71 2.88-0.23 0.91-0.97 1.56-1.83 1.74z"/>
		<path id="&lt;Path&gt;" class="s3" d="m577.84 698.56c-1.03 0.2-2.1-0.29-2.59-1.26l-10.49-20.94c-0.58-1.17-0.11-2.59 1.06-3.18 1.17-0.59 2.59-0.11 3.18 1.06l10.49 20.93c0.59 1.17 0.12 2.6-1.05 3.18q-0.3 0.15-0.6 0.21z"/>
		<path id="&lt;Path&gt;" class="s3" d="m571.04 726.1q-0.52 0.1-1.06-0.03l-26.93-6.92c-1.27-0.32-2.03-1.62-1.71-2.88 0.33-1.27 1.62-2.03 2.89-1.71l26.93 6.92c1.27 0.32 2.04 1.62 1.71 2.88-0.24 0.92-0.97 1.57-1.83 1.74z"/>
		<path id="&lt;Path&gt;" class="s3" d="m563.82 732.59c-1.03 0.21-2.1-0.29-2.59-1.26l-10.49-20.93c-0.59-1.18-0.11-2.6 1.06-3.19 1.17-0.58 2.59-0.11 3.18 1.06l10.49 20.93c0.59 1.17 0.12 2.6-1.05 3.18q-0.3 0.15-0.6 0.21z"/>
		<path id="&lt;Path&gt;" class="s3" d="m602.22 837.61c-2.37 0.47-4.66 0.71-6.57 0.5-1.31-0.13-2.25-1.3-2.11-2.6 0.14-1.31 1.31-2.25 2.6-2.11 5.13 0.54 15.57-3.53 19.17-5.14 1.19-0.55 2.6 0 3.13 1.19 0.54 1.2 0.01 2.6-1.19 3.13-1.06 0.48-8.35 3.69-15.03 5.03z"/>
		<path id="&lt;Path&gt;" class="s3" d="m880.94 801.61c-0.52 0.11-1.08 0.04-1.58-0.23l-120.03-63.93c-1.16-0.61-1.6-2.05-0.98-3.21 0.61-1.15 2.05-1.59 3.2-0.97l120.04 63.92c1.16 0.62 1.59 2.06 0.98 3.21-0.35 0.65-0.96 1.08-1.63 1.21z"/>
		<path id="&lt;Path&gt;" class="s3" d="m431.66 87.78l20.08-6.38-20.09-6.86c-6-1.58-10.61-6.41-11.89-12.49l-6.38-30.17-6.84 29.51c-1.44 6.23-6.36 11.05-12.61 12.37l-18.91 6.51 18.25 6.43c6.39 1.49 11.29 6.63 12.46 13.09l5.27 29.18 7.69-29.21c1.62-6.17 6.68-10.85 12.97-11.98z"/>
		<path id="&lt;Path&gt;" class="s3" d="m145.01 931.78l17.71-5.63-17.71-6.04c-5.3-1.4-9.36-5.66-10.49-11.02l-5.62-26.6-6.04 26.02c-1.27 5.49-5.61 9.74-11.12 10.91l-16.68 5.73 16.1 5.68c5.63 1.31 9.95 5.85 10.98 11.54l4.65 25.74 6.78-25.76c1.44-5.45 5.9-9.57 11.44-10.57z"/>
	</g>
</svg>