<svg version="1.2" xmlns="http://www.w3.org/2000/svg" viewBox="0 0 1080 1080" width="1080" height="1080">
	<style>
		.s0 { fill: #f2c9cc } 
		.s1 { fill: #ffffff } 
		.s2 { fill: #333333 } 
		.s3 { fill: #fc5e71 } 
		.s4 { fill: #f2cf63 } 
		.s5 { fill: #f29c50 } 
		.s6 { fill: #f29199 } 
		.s7 { fill: #ccd7f2 } 
	</style>
	<g id="Layer 1">
		<path id="&lt;Path&gt;" class="s0" d="m545.65 199.09c-75.43 30.13-143.8 82.72-224.57 89.44-36.5 3.03-73.76-3.64-109.59 3.97-73.41 15.59-108.87 84.14-117.21 152.91-6.41 52.89-0.41 108.3 24.18 155.55 18.91 36.33 49.47 67.27 86.95 84.27 44.2 20.05 93.6 7.05 137.72 24.78 38.17 15.33 61.22 53.28 89.44 83.2 101.95 108.12 280.32 108.28 381.09-1.32 32.52-35.36 54.61-79.1 71.78-123.97 61.36-160.38 78.04-398.57-115.61-474.52-66.94-26.25-143.42-23.52-211.11 0.73q-6.57 2.36-13.07 4.96z"/>
		<path id="&lt;Path&gt;" class="s1" d="m935.34 542.64c-34.28-23.42-68.73-46.52-108.56-56.28l-56.98 136.45-89.51-71.03-102.24 123.54c0 0 177.88 163.16 262.39 124.31 53.53-24.62 98.54-149.65 124.35-238.03-11.26-5.99-21.76-13.71-29.45-18.96z"/>
		<path id="&lt;Compound Path&gt;" class="s2" d="m810.64 807.65q-0.01 0-0.02 0c-90.28-0.02-228.13-125.49-233.95-130.83-0.81-0.73-0.89-1.97-0.2-2.81l102.24-123.53c0.71-0.86 1.98-0.99 2.85-0.3l87.4 69.35 55.94-133.96c0.39-0.92 1.4-1.43 2.37-1.19 41.18 10.09 77.33 34.78 109.22 56.57q2.13 1.46 4.53 3.13c6.97 4.85 15.65 10.89 24.73 15.72 0.86 0.45 1.27 1.45 1 2.37-27.95 95.71-72.41 214.92-125.46 239.31-8.9 4.09-19.21 6.17-30.65 6.17zm-229.77-132.54c15.16 13.59 145.88 128.44 229.75 128.45q0.01 0 0.02 0c10.84 0 20.59-1.94 28.95-5.79 54-24.83 99.93-157.25 122.78-235.16-8.76-4.79-17-10.52-23.69-15.17q-2.38-1.67-4.49-3.12c-31.17-21.29-66.43-45.38-106.2-55.55l-56.3 134.82c-0.25 0.59-0.76 1.03-1.38 1.19-0.62 0.16-1.27 0.02-1.77-0.37l-87.96-69.78z"/>
		<path id="&lt;Path&gt;" class="s2" d="m727.07 574.45c0 0-30.16-20.8-109.19-96.72-23.58-22.64-69.68-63.43-179.91-53.03l-141.38 0.39c0 0-106.03 31.32-144.29 65.47-12.8 11.43-22.74 26.44-30.67 42.76-15.2 31.29-23.01 67.38-29.36 92.39-2.29 8.99-4.39 16.59-6.58 21.96-11.44 28.14-38.69 74.37-38.69 74.37l181.88 40.97c0 0-4.31 31.99-3.54 59.32 0.77 27.32-39.18 176.84-39.18 176.84l392.89 1.09 7.62-205.14c0 0-17.01-93.13 2.09-93.8 19.1-0.68 75.91 51.99 75.91 51.99-38.13-67.31 62.4-178.86 62.4-178.86z"/>
		<path id="&lt;Path&gt;" class="s2" d="m449.66 181.1c12.95-1.21 24.72 7.45 27.5 20.16 3.49 16.02 3.69 36.73 2.14 55.43-2.46 29.54-17.13-53.64-17.13-53.64l-23.25-20.95z"/>
		<path id="&lt;Path&gt;" class="s1" d="m458.34 297.14c0 0 17.81-26.9 37.71-23.8 19.91 3.1 30.15 42.78 11.63 54.44-18.51 11.67-45.55 0.62-45.55 0.62z"/>
		<path id="&lt;Compound Path&gt;" class="s2" d="m486.91 335.17c-13.45 0-25.07-4.68-25.56-4.88-0.68-0.28-1.16-0.91-1.25-1.64l-3.78-31.26c-0.06-0.48 0.05-0.97 0.32-1.37 0.67-1.02 16.74-24.97 36.18-24.97q1.79 0 3.55 0.28c11.87 1.85 19.67 14.73 22.14 26.67 2.24 10.86 0.86 24.83-9.74 31.51-5.96 3.76-13.32 5.66-21.86 5.66zm-22.91-8.24c3.15 1.12 12.58 4.16 22.91 4.16 7.76 0 14.38-1.69 19.69-5.03 8.83-5.57 9.88-17.72 7.91-27.23-2.58-12.5-10.3-22.15-18.77-23.47q-1.44-0.22-2.92-0.22c-15.65 0-29.78 18.88-32.36 22.53z"/>
		<path id="&lt;Compound Path&gt;" class="s1" d="m495.52 333.42c-16.36 2.92-33.07-3.79-33.78-4.08-0.34-0.14-0.58-0.45-0.62-0.82l-3.78-31.25q-0.04-0.37 0.16-0.69c0.57-0.85 14.12-21.07 31.14-24.12 2.57-0.46 5.12-0.5 7.57-0.12 11.38 1.78 18.89 14.27 21.29 25.87 2.18 10.52 0.88 24.03-9.27 30.43-3.69 2.32-7.96 3.93-12.71 4.78z"/>
		<path id="&lt;Compound Path&gt;" class="s2" d="m486.83 336.2c-13.63 0-25.37-4.77-25.86-4.97-1.02-0.42-1.74-1.36-1.88-2.46l-3.78-31.26c-0.09-0.71 0.08-1.44 0.48-2.05 0.59-0.89 14.61-21.81 32.49-25.01 2.78-0.5 5.58-0.54 8.24-0.12 12.35 1.92 20.44 15.18 22.98 27.47 2.31 11.18 0.85 25.62-10.19 32.57-3.9 2.46-8.42 4.16-13.43 5.06-2.85 0.51-5.9 0.77-9.05 0.77zm-23.76-8.53c2.46 0.94 12.4 4.44 23.76 4.44 2.91 0 5.71-0.24 8.33-0.7 4.49-0.81 8.52-2.32 11.98-4.5 9.27-5.84 10.4-18.44 8.36-28.29-2.25-10.9-9.19-22.64-19.61-24.26-2.22-0.35-4.55-0.31-6.89 0.11-15.27 2.73-27.77 20.27-29.59 22.93z"/>
		<path id="&lt;Path&gt;" class="s1" d="m483.91 271.57c-8.79-30.01-5.38-53.17-12.99-67.16 0 0-28.6-62.55-118.65-33.17q-1.64 0.53-3.22 1.11c-45.72 16.58-70.41 56.92-52.28 100.16l15.6 37.19c-7.3-2.55-15.54-3.66-22.79-0.31-18.24 8.43-17.08 47.83 3.92 53.39 14.31 3.79 29.5-3.25 37.72-8.12l2.39 5.71-7.87 44.84c-1.34 7.6-6.14 14.13-12.99 17.68l-6.26 3.23c0 0 73.92 69.91 115.57 49.23 41.64-20.68 18.51-49.61 18.51-49.61l-6.23-1.91 3.35-34.34c81.92-24.36 54.76-88.77 46.22-117.92z"/>
		<path id="&lt;Compound Path&gt;" class="s2" d="m404.58 481.22q0 0-0.01 0c-42.31-0.01-97.17-51.42-99.48-53.61-0.48-0.46-0.72-1.12-0.62-1.77 0.09-0.66 0.49-1.23 1.08-1.53l6.26-3.24c6.25-3.23 10.7-9.29 11.92-16.21l7.77-44.25-1.27-3.03c-7.26 4.04-17.48 8.32-28.16 8.32-3.16 0-6.22-0.39-9.1-1.15-9.98-2.64-16.91-12.64-18.09-26.09-1.03-11.83 2.85-26.04 13.85-31.12 5.67-2.62 12.46-2.98 20.08-1.05l-13.92-33.19c-8.04-19.16-8.19-38.61-0.46-56.26 9.08-20.74 28.24-37.3 53.93-46.61q1.61-0.58 3.27-1.13c16.18-5.28 31.51-7.95 45.58-7.95 55.61 0 75.37 41.78 75.56 42.21 4.03 7.38 5.09 17.38 6.31 28.96 1.19 11.24 2.54 23.98 6.79 38.48q0.95 3.19 2.11 6.89c6.35 20.35 15.95 51.1 2.1 77.08-8.7 16.33-25.68 28.46-50.49 36.08l-3.06 31.32 4.64 1.42q0.6 0.19 1 0.68c0.38 0.47 9.3 11.84 6.2 25.84-2.35 10.62-10.9 19.66-25.41 26.87-5.39 2.68-11.58 4.04-18.38 4.04zm-94.55-54.63c10.6 9.52 58.39 50.54 94.54 50.54q0.01 0 0.01 0c6.17 0 11.74-1.21 16.57-3.61 13.35-6.63 21.17-14.73 23.23-24.09 2.36-10.63-3.51-19.77-5.05-21.93l-5.59-1.72c-0.93-0.28-1.53-1.18-1.43-2.15l3.35-34.33c0.08-0.83 0.65-1.53 1.45-1.76 24.44-7.27 41.05-18.88 49.37-34.49 13.04-24.47 3.75-54.24-2.39-73.94q-1.18-3.75-2.14-6.97c-4.35-14.84-5.72-27.78-6.93-39.19-1.23-11.6-2.2-20.77-5.9-27.57-0.24-0.52-19-39.95-71.91-39.95-13.64 0-28.55 2.61-44.31 7.75q-1.6 0.53-3.15 1.09c-24.63 8.93-42.95 24.7-51.58 44.41-7.27 16.6-7.11 34.94 0.48 53.04l15.6 37.19c0.31 0.74 0.16 1.6-0.4 2.19-0.55 0.59-1.39 0.79-2.16 0.53-8.28-2.89-15.52-3.03-21.25-0.38-9.15 4.22-12.36 16.99-11.49 27.06 0.8 9.15 5.18 19.87 15.07 22.49 2.53 0.67 5.24 1.01 8.05 1.01 10.79 0 21.24-4.84 28.11-8.91 0.5-0.3 1.12-0.37 1.68-0.18 0.56 0.19 1.01 0.61 1.24 1.15l2.4 5.72q0.22 0.55 0.12 1.14l-7.87 44.84c-1.44 8.17-6.69 15.32-14.06 19.13z"/>
		<path id="&lt;Path&gt;" class="s2" d="m299.62 307.03l-23.74-66.1 58.95-22.87c0 0-11.55 19.87-6.87 52.12 1.76 12.16 3.28 21.71 5.91 28.41 11.97 30.49-5.2 17.74-12.65 16.3z"/>
		<path id="&lt;Path&gt;" class="s2" d="m459.75 379.8c-24.98 8.25-67.89 6.01-85.67-3.56 0 0 29.18 23.12 61.91 23.87l1.7-10.62z"/>
		<path id="&lt;Path&gt;" class="s2" d="m326.82 257.96c2.75-26.87 37.08-42.65 43.28-53.74 0 0 46.42 9.52 62.87-7.69 0 0 31.43 20.76 41.54 10.39 10.11-10.36 42.4-37.53 29.78-58.8-12.62-21.28-51.03 3.42-51.03 3.42 0 0 23.01-29.78 5.65-38.8-17.36-9.01-41.23 19.5-58.31 26.13-17.08 6.62 4.37-14.33-12.13-22.08-16.51-7.74-31.38 4.19-48.41 28.63-17.04 24.45-64.58 46.16-71.29 62.68-13.12 32.29 23.34 63.56 23.34 63.56z"/>
		<path id="&lt;Path&gt;" class="s1" d="m248.42 769.59q-0.17 0.02-0.35-0.01l-18.58-4.07c-0.54-0.12-0.89-0.66-0.77-1.21 0.12-0.55 0.66-0.89 1.21-0.77l17.5 3.83 18.49-136.58c0.07-0.55 0.59-0.94 1.14-0.86 0.56 0.07 0.94 0.58 0.87 1.14l-18.63 137.66c-0.04 0.28-0.19 0.53-0.43 0.7q-0.2 0.14-0.45 0.17z"/>
		<path id="&lt;Path&gt;" class="s1" d="m260.81 677.07q-0.31 0.04-0.6-0.12c-0.49-0.27-0.66-0.89-0.39-1.38l14.57-26.01c0.28-0.49 0.9-0.66 1.39-0.39 0.48 0.28 0.66 0.89 0.38 1.38l-14.57 26.01c-0.17 0.3-0.46 0.48-0.78 0.51z"/>
		<path id="&lt;Path&gt;" class="s1" d="m234.29 545.91c-0.41 0.07-0.84-0.11-1.06-0.49-21.83-37.46-75.7-54.62-76.24-54.79-0.54-0.16-0.83-0.73-0.67-1.27 0.17-0.53 0.74-0.83 1.27-0.66 0.55 0.17 55.17 17.57 77.4 55.7 0.28 0.48 0.11 1.1-0.37 1.38q-0.16 0.09-0.33 0.13z"/>
		<path id="&lt;Path&gt;" class="s2" d="m473.56 204.92c-2.27 0.41-4.55 0.43-6.79-0.08-0.54-0.13-0.88-0.67-0.76-1.22 0.13-0.55 0.67-0.88 1.22-0.76 8.57 1.98 18.32-5.16 25.45-10.37q1.45-1.07 2.78-2.02c9.73-6.91 17.86-13.7 18.73-26.81 0.45-6.63-0.55-11.57-3.06-15.11-6.56-9.27-17.21-2.31-25 2.78l-1.75 1.14c-0.47 0.3-1.1 0.16-1.4-0.31-0.3-0.47-0.17-1.1 0.3-1.4l1.74-1.13c8-5.22 20.08-13.12 27.77-2.25 2.78 3.93 3.9 9.3 3.43 16.42-0.94 14-9.43 21.11-19.59 28.33q-1.31 0.94-2.75 1.99c-5.69 4.16-12.97 9.49-20.32 10.8z"/>
		<path id="&lt;Path&gt;" class="s3" d="m955.23 606.13l-168.12-42.18c0 0 16.21-121.05 19.19-147.24 2.97-26.18 32.61-57.2 32.61-57.2 0 0 41.58-204.78 80.35-210.37 38.77-5.59 42.75 42.27 40.26 60.65-2.5 18.38-14.84 88.89-14.84 88.89 0 0 18.47-3.83 38.16 11.7 19.68 15.54 17.91 22.21 17.91 22.21 0 0 20.56 6.24 28.43 15.47 7.87 9.22 8.34 28.39 8.34 28.39 0 0 23.37 31.58 11.87 68.99-11.51 37.41-68.87 95.2-68.87 95.2l-18.82 68z"/>
		<path id="&lt;Compound Path&gt;" class="s2" d="m961.7 610.68q-0.38 0-0.74-0.14l-6.35-2.46-168-42.15c-1.01-0.25-1.66-1.22-1.53-2.25 0.17-1.21 16.25-121.33 19.19-147.2 2.86-25.18 29-53.94 32.76-57.95 2.93-14.34 42.86-205.77 81.94-211.41 12.61-1.83 22.9 1.64 30.36 10.18 12.3 14.08 14.04 39.27 12.21 52.77-2.19 16.15-12.08 73.13-14.37 86.26q1.24-0.1 2.94-0.11c6.75 0 20.14 1.63 33.99 12.56 15.03 11.86 18.17 18.99 18.67 22.31 4.89 1.62 20.94 7.41 27.97 15.64 7.5 8.8 8.64 25.5 8.8 29.03 3.12 4.45 22.8 34.5 11.8 70.28-11.16 36.29-63.57 90.15-68.99 95.65l-18.68 67.49c-0.16 0.56-0.54 1.03-1.05 1.28q-0.44 0.22-0.92 0.22zm-172.33-48.27l166.35 41.74q0.13 0.03 0.24 0.08l4.38 1.69 18.21-65.83q0.15-0.51 0.52-0.89c0.57-0.57 57.14-57.86 68.36-94.36 11.06-35.95-11.32-66.87-11.55-67.18-0.25-0.34-0.39-0.74-0.4-1.16 0-0.19-0.55-18.56-7.85-27.12-7.4-8.67-27.27-14.78-27.47-14.84-1.05-0.32-1.66-1.42-1.38-2.48-0.02 0 0.35-6.22-17.21-20.07-12.88-10.17-25.24-11.68-31.46-11.68-3.12 0-5 0.37-5.02 0.37-0.65 0.14-1.35-0.06-1.83-0.53-0.48-0.47-0.7-1.15-0.59-1.82 0.12-0.7 12.36-70.68 14.82-88.81 1.73-12.76 0.17-36.48-11.23-49.53-6.52-7.47-15.53-10.45-26.71-8.82-30.63 4.41-67.15 152.18-78.64 208.74q-0.12 0.58-0.52 1.01c-0.29 0.3-29.2 30.83-32.06 56.02-2.75 24.16-16.92 130.26-18.96 145.47z"/>
		<path id="&lt;Path&gt;" class="s1" d="m952.35 584.07l-144.55-38.31c-1.71-0.45-2.98-1.43-2.71-3.17 3.61-23.7 21.94-142.09 29.47-152.21 8.04-10.82 107.3-63.5 127.99-53.05 6.02 3.04 9.16 9.02 8.89 16.69-0.67 18.76-22.1 47.61-67.49 67.73 9.36 12.8 35.02 56.81-10.81 105.73-1.31 1.39-3.49 1.47-4.88 0.17-1.39-1.31-1.47-3.48-0.16-4.87 49.79-53.16 9.54-98.15 7.8-100.04-0.76-0.82-1.07-1.97-0.83-3.07 0.24-1.1 1-2.01 2.04-2.45 48.52-20.29 66.9-49.01 67.41-63.36 0.12-3.41-0.67-7.95-5.13-10.2-5.31-2.7-24.65 0.88-63.05 18.89-30.3 14.22-53.59 28.56-56.32 32.23-4.92 6.63-19.09 90.65-27.79 146.35l137.94 36.56 8.39-46.22c0.15-0.78 0.55-1.47 1.16-1.98 0.69-0.59 68.76-58.42 72.54-91.9 4.1-36.18 0.98-46.71-15.18-50.99l-0.1-0.02c-8.74-2.32-34.58 27.5-50.54 58.73-10.46 20.44-9.32 27.18-8.49 27.82 3.36 2.6 7.02 3.3 11.11 2.39 16.76-3.7 36.33-35.18 42.45-46.98 0.87-1.69 2.97-2.38 4.66-1.5 1.69 0.88 2.35 2.94 1.47 4.63-0.95 1.85-23.75 45.33-47.06 50.47-6.12 1.36-11.77 0.07-16.79-3.8-5.76-4.45-3.53-16.8 6.64-36.68 12.4-24.27 42.39-67.54 58.88-62.7 22.03 6.52 23.96 23.44 19.94 58.91-3.88 34.33-65.37 88.53-74.13 96.1l-8.86 48.75c-0.17 0.95-0.55 1.09-1.36 1.61-0.81 0.52-1.62-0.01-2.55-0.26z"/>
		<path id="&lt;Path&gt;" class="s1" d="m853.88 382.12c-1.85-0.49-2.32-2.21-1.83-4.06l21.22-80.06c0.58-2.2 0.33-5.53 1.26-9.25 13.08-52.09 30.21-113.58 50.74-125.68 3.73-2.2 7.23-2.88 10.91-1.91 8.77 2.33 18.67 14.94 4.63 97.6-7.51 44.18-18.5 87.54-18.61 87.97-0.47 1.85-2.29 2.51-4.14 2.03l-0.03-0.02c-1.83-0.48-3.05-1.88-2.59-3.72 0.11-0.43 11.05-43.8 18.5-87.72 13.55-79.77 3.61-88.76 0.25-89.65-1.86-0.49-3.8-0.07-5.91 1.17-20.67 12.19-40.18 91.58-47.67 121.42-0.94 3.75-1.33 6.97-1.92 9.2l-21.22 80.06c-0.49 1.84-1.75 3.11-3.59 2.62z"/>
		<path id="&lt;Path&gt;" class="s1" d="m932.54 459.81c-2.73-0.72-5.34-2.19-7.69-4.67-14.22-14.95 5.68-41.35 26.75-69.3 20.31-26.94 41.65-50.05 60.12-36.62 13.89 10.09 12.52 26.79 9.86 34.21-0.65 1.8-2.61 2.73-4.42 2.09-1.79-0.65-2.72-2.62-2.08-4.41 0.24-0.7 5.7-16.77-7.42-26.31-10.88-7.9-25.99 2.62-50.55 35.2-18.41 24.42-37.45 49.67-27.26 60.39 9.48 9.95 29.23-8.12 29.43-8.3 1.39-1.31 3.57-1.24 4.88 0.14 1.3 1.39 1.24 3.57-0.15 4.88-0.84 0.79-17.63 16.37-31.47 12.7z"/>
		<path id="&lt;Path&gt;" class="s1" d="m923.66 347.44l-5.21-4.52c15.27-17.57 38.07-39.03 59.66-22.66 16.31 12.37 9.7 32.7 3.92 41.73l-5.81-3.72 2.9 1.86-2.91-1.86c0.54-0.85 13.02-20.91-2.27-32.51-8.13-6.17-22.19-10.63-50.28 21.68z"/>
		<path id="&lt;Path&gt;" class="s1" d="m915.9 427.77c-7.67-2.03-13.14-7.32-13.5-7.67l4.84-4.93c0.43 0.43 10.78 10.32 21.17 4.77l3.26 6.08c-5.64 3.02-11.11 2.99-15.77 1.75z"/>
		<path id="&lt;Compound Path&gt;" class="s1" d="m925.39 273.76l-30.65-8.13 2.24-8.45 10.03 2.66 8-30.18-10.9-0.5 2.3-8.65 22.07 1.33-10.82 40.83 9.97 2.64z"/>
		<path id="&lt;Compound Path&gt;" class="s4" d="m813.36 642.52c-14.47-11.9-29.64-16.52-45.08-13.81-14.29 2.52-26.17 11.04-34.91 19.56l2.59-37.15-293.56-2.29 1.96 36.25c-8.52-8.33-19.94-16.51-33.67-19.16-15.39-2.95-30.63 1.44-45.28 13.11-17.26 13.75-24.61 33.67-20.69 56.08 5.49 31.31 31.66 59.95 65.12 71.26 28.43 9.61 43.24 20.82 50.71 28.52 14.87 34.86 44.09 61.97 80.18 73.97 19.66 6.54 32.63 25.31 32.47 46.03l-0.19 23.76c-0.16 21.78-17.96 39.29-39.74 39.12-13.33-0.1-24.23 10.63-24.33 23.96l-0.05 6.22 154.37 1.21 0.05-6.22c0.1-13.34-10.63-24.23-23.96-24.34-21.78-0.17-39.3-17.96-39.13-39.74l0.18-23.76c0.17-20.72 13.43-39.28 33.19-45.52 35.69-11.25 64.98-37.23 80.6-71.05 6.98-7.57 22.05-19.53 52.76-29.37 33.63-10.8 60.24-39.02 66.21-70.24 4.28-22.35-2.76-42.38-19.8-56.4zm-398.66 109.47c-27.91-9.44-50.54-33.9-55.02-59.5-2.07-11.8-1.11-28.6 15.19-41.58 11.15-8.89 21.89-12.19 32.9-10.09 18.5 3.54 32.58 21.62 37.96 29.51l4.31 79.66c0.35 6.58 1.22 13.01 2.49 19.29-9.4-5.84-21.7-11.84-37.83-17.29zm403.55-55.92c-4.88 25.52-27.88 49.63-55.94 58.63-16.79 5.38-29.48 11.42-39.1 17.3 1.45-6.45 2.44-13.07 2.91-19.85l5.45-78.16c4.57-6.77 19.61-26.87 39.41-30.34 11.03-1.93 21.72 1.54 32.73 10.6 16.09 13.24 16.79 30.05 14.54 41.82z"/>
		<path id="&lt;Compound Path&gt;" class="s2" d="m663.26 1011.2q-0.01 0-0.02 0l-154.37-1.2c-0.54-0.01-1.06-0.23-1.44-0.61-0.38-0.39-0.59-0.91-0.59-1.45l0.05-6.22c0.12-14.33 11.86-25.99 26.19-25.99 0 0 0.2 0 0.21 0h0.29c20.46 0 37.23-16.64 37.39-37.1l0.19-23.76c0.15-20.13-12.33-37.84-31.07-44.07-36.45-12.12-66.05-39.35-81.27-74.76-7.41-7.54-21.99-18.39-49.64-27.73-34.15-11.55-60.86-40.82-66.47-72.84-4.05-23.19 3.55-43.8 21.42-58.04 15.06-11.99 30.99-16.57 46.95-13.52 10.69 2.07 21.08 7.52 30.97 16.23l-1.69-31.2c-0.03-0.56 0.17-1.11 0.56-1.52 0.39-0.4 0.92-0.63 1.48-0.63q0.01 0 0.02 0l293.55 2.29c0.57 0 1.1 0.24 1.49 0.65 0.38 0.42 0.57 0.97 0.53 1.53l-2.23 32.01c10.31-9.05 21.1-14.62 32.17-16.57 16.03-2.81 31.85 2.01 46.73 14.24 17.64 14.52 24.93 35.24 20.51 58.36-6.11 31.93-33.27 60.79-67.6 71.8-29.4 9.43-44.31 20.71-51.67 28.59-15.95 34.32-45.71 60.49-81.7 71.84-18.84 5.94-31.6 23.46-31.75 43.59l-0.19 23.75c-0.08 9.99 3.74 19.41 10.75 26.53 7.01 7.12 16.37 11.08 26.35 11.16 7 0.05 13.55 2.83 18.46 7.81 4.91 4.99 7.58 11.59 7.53 18.58l-0.05 6.22c0 0.54-0.22 1.06-0.61 1.44-0.38 0.38-0.9 0.59-1.43 0.59zm-152.32-5.27l150.29 1.17 0.03-4.18c0.05-5.9-2.21-11.47-6.35-15.68-4.14-4.21-9.67-6.55-15.58-6.6-11.08-0.08-21.46-4.48-29.23-12.37-7.78-7.9-12.01-18.35-11.92-29.43l0.18-23.75c0.17-21.91 14.08-40.98 34.61-47.45 35-11.04 63.92-36.54 79.36-69.96q0.14-0.29 0.36-0.53c7.61-8.25 23.1-20.14 53.63-29.94 32.95-10.57 59-38.17 64.84-68.67 4.12-21.59-2.66-40.92-19.1-54.44-13.93-11.46-28.6-15.99-43.43-13.38-11.61 2.05-23 8.45-33.84 19.01-0.61 0.6-1.51 0.75-2.28 0.39-0.77-0.35-1.24-1.15-1.18-1.99l2.44-34.99-289.21-2.25 1.84 34.08c0.05 0.84-0.43 1.62-1.2 1.97-0.76 0.35-1.66 0.19-2.27-0.4-10.4-10.18-21.38-16.45-32.62-18.62-14.77-2.82-29.52 1.47-43.63 12.7-16.65 13.27-23.73 32.5-19.95 54.14 5.36 30.59 30.99 58.6 63.76 69.68 28.75 9.72 43.89 21.15 51.52 29.03q0.26 0.27 0.41 0.62c14.72 34.5 43.5 61.04 78.96 72.83 20.42 6.8 34.03 26.08 33.86 47.99l-0.18 23.75c-0.18 22.69-18.78 41.16-41.48 41.16h-0.33c-12.26 0-22.18 9.83-22.27 21.93zm212.27-231.88q-0.64 0-1.19-0.38c-0.67-0.48-0.98-1.31-0.81-2.11 1.45-6.48 2.42-13.06 2.87-19.56l5.45-78.15q0.04-0.55 0.34-1c5.54-8.21 20.59-27.68 40.75-31.21 11.65-2.04 22.86 1.55 34.38 11.03 16.87 13.87 17.6 31.47 15.25 43.78-5.02 26.22-28.59 50.97-57.33 60.19-14.93 4.79-27.94 10.55-38.65 17.11q-0.5 0.3-1.06 0.3zm10.36-99.37l-5.41 77.61c-0.37 5.18-1.04 10.42-2.02 15.62 10.16-5.75 22.09-10.84 35.54-15.16 27.37-8.78 49.81-32.25 54.56-57.07 2.14-11.22 1.49-27.25-13.83-39.85-10.58-8.71-20.64-12.01-31.09-10.17-18.68 3.28-33.27 22.48-37.75 29.02zm-281.05 96.64q-0.57 0-1.07-0.31c-10.41-6.47-23-12.22-37.41-17.08-28.59-9.67-51.77-34.79-56.38-61.08-2.16-12.35-1.15-29.93 15.93-43.54 11.67-9.3 22.94-12.72 34.55-10.5 19.31 3.7 33.89 22.48 39.27 30.38q0.32 0.47 0.35 1.04l4.31 79.65c0.33 6.2 1.16 12.59 2.45 18.99 0.17 0.8-0.16 1.62-0.83 2.09q-0.54 0.36-1.17 0.36zm-51.14-129.07c-8.33 0-16.58 3.35-25.24 10.25-15.52 12.36-16.42 28.38-14.45 39.64 4.36 24.89 26.42 48.71 53.66 57.92 12.95 4.37 24.48 9.46 34.34 15.14-0.86-5.09-1.43-10.15-1.7-15.1l-4.28-79.08c-5.33-7.73-18.89-24.86-36.33-28.19q-3.02-0.58-6-0.58z"/>
		<path id="&lt;Path&gt;" class="s5" d="m743.35 602.64l-306.41-2.39c-1.08-0.01-1.97 0.86-1.97 1.94l-0.1 12.22c-0.01 1.08 0.86 1.96 1.94 1.97l306.41 2.39c1.08 0.01 1.96-0.87 1.97-1.94l0.1-12.22c0.01-1.08-0.87-1.97-1.94-1.97z"/>
		<path id="&lt;Compound Path&gt;" class="s2" d="m743.24 620.81q-0.02 0-0.03 0l-306.42-2.39c-1.06 0-2.06-0.43-2.81-1.19-0.75-0.76-1.16-1.77-1.15-2.84l0.09-12.22c0.02-2.18 1.81-3.96 4-3.96l306.45 2.38c2.2 0.02 3.98 1.83 3.96 4.03l-0.09 12.23c-0.02 2.18-1.82 3.96-4 3.96zm-306.32-18.52l-0.01 12.14 306.24 2.3 0.1-12.14z"/>
		<path id="&lt;Compound Path&gt;" class="s5" d="m579.12 703.31l-32.89 28.5-19.38-22.7 53.49-44.44 32.21 0.25-1.27 162.87-33.12-0.26z"/>
		<path id="&lt;Compound Path&gt;" class="s2" d="m611.28 829.83q-0.01 0-0.01 0l-33.13-0.26c-1.13-0.01-2.04-0.93-2.03-2.06l0.94-119.7-29.48 25.54c-0.41 0.36-0.94 0.53-1.49 0.49-0.54-0.04-1.05-0.29-1.4-0.71l-19.38-22.69c-0.35-0.42-0.53-0.96-0.48-1.5 0.05-0.54 0.31-1.05 0.73-1.4l53.49-44.44c0.37-0.31 0.89-0.47 1.32-0.47l32.21 0.25c1.12 0 2.03 0.93 2.02 2.05l-1.27 162.87c0 0.55-0.22 1.06-0.61 1.44-0.38 0.38-0.89 0.59-1.43 0.59zm-31.07-4.33l29.05 0.23 1.23-158.79-29.41-0.22-51.33 42.64 16.7 19.56 31.34-27.15c0.6-0.53 1.46-0.65 2.19-0.31 0.73 0.33 1.19 1.06 1.19 1.87z"/>
		<path id="&lt;Path&gt;" class="s1" d="m82.32 730.43c110.92 13.87 147.19 31.84 147.19 31.84l-4.62 63.56 186.34-10.4c50.27-22.25 93.61-4.62 93.61-4.62 0 0 64.71 6.64 76.56 9.53 20.51 4.62 10.69 41.6-22.83 35.25-15.6-2.89-31.2-3.76-43.62-2.89 4.91 4.91 11.85 10.4 22.25 17.04 31.49 20.52 39.86 21.67 56.91 28.6 17.62 6.94 42.47 13.87 35.82 31.21-6.64 17.04-28.89 13-28.89 13 0 0 4.91 10.11-5.49 19.64-10.11 9.54-34.95 2.02-34.95 2.02 2.02 36.7-34.96 23.41-34.96 23.41 0 0-10.98 10.4-24.27 3.75-13.58-6.64-74.54-43.91-83.78-41.89-9.25 2.02-127.12 17.91-127.12 17.91l-0.29-0.29c-44.78 8.38-90.13 14.74-126.54 14.45-31.49-0.29-55.76-5.78-65.29-19.36-13-17.91-20.22-42.18-23.69-68.47-10.11-74.82 7.66-163.29 7.66-163.29z"/>
		<path id="&lt;Compound Path&gt;" class="s2" d="m510.49 995.63c-3.42 0-6.8-0.82-10.03-2.43-3.77-1.85-10.92-5.89-19.96-11.01-20.31-11.5-54.29-30.75-62.07-30.75q-0.33 0.01-0.4 0.04c-9.22 2.01-122.47 17.29-127.28 17.94l-1.01 0.13-0.24-0.24c-51.61 9.61-92 14.29-123.45 14.29l-2.42-0.01c-35.23-0.32-57.75-7.13-66.95-20.23-12.07-16.63-20.17-39.98-24.04-69.37-10.04-74.3 7.5-163.07 7.68-163.96l0.37-1.86 1.88 0.24c110.01 13.75 146.36 31.29 147.85 32.03l1.23 0.61-4.55 62.61 183.65-10.25c17.02-7.48 35.06-11.27 53.61-11.27 22.88 0 38.63 5.75 40.97 6.66 5.24 0.54 64.98 6.73 76.55 9.56 8.34 1.87 13.1 8.86 12.11 17.79-1.23 11.04-11.22 22.21-27.94 22.21-2.52 0-5.17-0.26-7.86-0.77-12.88-2.38-26.44-3.47-38.34-3.1 4.77 4.23 10.85 8.68 18.45 13.53 25.32 16.5 35.61 20.4 47.52 24.91 2.85 1.08 5.8 2.2 9.06 3.52 1.89 0.75 3.88 1.5 5.91 2.26 12.57 4.74 26.81 10.1 31.03 19.49 1.67 3.71 1.67 7.77 0.02 12.08-5 12.82-17.9 14.73-25.15 14.73q-1.58-0.01-2.83-0.1c0.81 4.18 0.78 11.72-6.93 18.79-3.77 3.55-9.66 5.37-17.5 5.37-6.69 0-13.18-1.32-16.71-2.18 0.02 8.2-2.01 14.51-6.05 18.78-3.98 4.2-9.73 6.33-17.08 6.33-5.92 0-11.24-1.4-13.5-2.09-2.2 1.76-8.01 5.72-15.6 5.72zm-92.06-48.27c8.19 0 33.87 14.16 64.08 31.27 8.63 4.89 16.08 9.11 19.76 10.91q4.03 2.01 8.22 2.01c7.94 0 13.69-5.36 13.75-5.42l0.91-0.86 1.18 0.42c0.06 0.02 6.3 2.23 13.26 2.23 6.19 0 10.94-1.7 14.11-5.06 3.69-3.89 5.32-10.13 4.86-18.53l-0.16-2.91 2.79 0.84c0.09 0.03 9.14 2.72 18.24 2.72 6.76 0 11.71-1.44 14.72-4.27 9.11-8.35 5.22-16.92 5.05-17.28l-1.68-3.58 3.89 0.69c0.02 0 2.19 0.38 5.28 0.38 7.58 0 17.44-2.1 21.34-12.12 1.26-3.29 1.29-6.21 0.07-8.92-3.53-7.85-16.92-12.89-28.74-17.35q-3.09-1.15-6-2.28c-3.25-1.33-6.17-2.43-8.99-3.5-12.13-4.6-22.61-8.57-48.29-25.3-9.8-6.26-17.19-11.92-22.57-17.31l-3.17-3.17 4.47-0.31c3.1-0.22 6.39-0.33 9.79-0.33 11.01 0 22.89 1.13 34.35 3.25q3.68 0.7 7.1 0.7c14.32-0.01 22.85-9.35 23.88-18.58 0.59-5.35-1.45-11.67-8.98-13.37-11.61-2.83-75.67-9.43-76.32-9.49l-0.56-0.14c-0.16-0.07-16.25-6.47-39.71-6.47-18.1 0-35.7 3.72-52.3 11.07l-0.34 0.15-0.37 0.02-188.66 10.53 4.68-64.45c-7.18-3.12-46.54-18.61-143.4-30.85-2.46 13.14-16.43 93.07-7.28 160.75 3.78 28.72 11.63 51.44 23.31 67.54 8.42 11.99 29.83 18.21 63.66 18.52l2.39 0.01c31.41 0 71.89-4.72 123.76-14.42l1.06-0.2 0.33 0.33c11.51-1.55 117.34-15.86 125.95-17.74q0.58-0.13 1.28-0.13z"/>
		<path id="&lt;Path&gt;" class="s2" d="m601.04 942.84c-0.29 0-0.29 0-0.57 0-0.29-0.29-30.34-10.4-49.98-22.83-0.29-0.29-0.58-0.86-0.29-1.44 0.29-0.29 0.86-0.58 1.44-0.29 19.36 12.42 49.11 22.82 49.4 22.82 0.58 0.29 0.87 0.87 0.58 1.16 0 0.29 0 0.58-0.58 0.58z"/>
		<path id="&lt;Path&gt;" class="s2" d="m560.6 964.5c-0.29 0-0.29 0-0.58 0-24.56-6.06-40.45-18.78-40.74-18.78-0.28-0.28-0.28-0.86-0.28-1.44 0.28-0.29 0.86-0.29 1.44-0.29 0.29 0.29 15.6 12.42 39.87 18.49 0.58 0.29 0.87 0.58 0.87 1.16 0 0.57-0.01 0.86-0.58 0.86z"/>
		<path id="&lt;Path&gt;" class="s2" d="m525.93 988.19c-0.29 0-0.29 0-0.58 0-19.64-8.37-28.02-14.15-28.31-14.44-0.29-0.29-0.58-0.87-0.29-1.45 0.29-0.29 0.87-0.57 1.44-0.29 0 0 8.67 6.07 28.03 14.16 0.58 0.29 0.86 0.87 0.58 1.16q-0.44 0.86-0.87 0.86z"/>
		<path id="&lt;Path&gt;" class="s2" d="m534.6 890.26c-0.29 0-0.29 0-0.87 0l-12.71-6.07c-0.29-0.29-0.87-0.87-0.29-1.45 0.29-0.29 0.87-0.57 1.44-0.29l12.71 6.07c0.29 0.29 0.87 0.87 0.29 1.45-0.29 0.29-0.57 0.29-0.57 0.29z"/>
		<path id="&lt;Path&gt;" class="s2" d="m528.53 894.59c-0.87 0-1.16-0.29-1.16-0.87l-0.86-13.58q0-0.86 0.86-0.86 0.87 0 0.87 0.86l0.87 13.58c0.29 0.29 0 0.58-0.58 0.87z"/>
		<path id="&lt;Path&gt;" class="s2" d="m506.57 919.15c-0.29 0-0.29 0-0.86 0l-12.72-6.07c-0.29-0.29-0.86-0.87-0.29-1.45 0.29-0.28 0.87-0.57 1.45-0.28l12.71 6.06c0.29 0.29 0.87 0.87 0.29 1.45z"/>
		<path id="&lt;Path&gt;" class="s2" d="m500.79 923.19c-0.86 0-1.15-0.29-1.15-0.87l-0.87-13.57q0-0.87 0.87-0.87 0.87 0 0.87 0.87l0.86 13.57c0 0.29-0.29 0.87-0.58 0.87z"/>
		<path id="&lt;Path&gt;" class="s2" d="m482.59 944.28c-0.29 0-0.29 0-0.86 0l-12.72-6.07c-0.28-0.29-0.86-0.86-0.28-1.44 0.28-0.29 0.86-0.58 1.44-0.29l12.71 6.07c0.29 0.29 0.87 0.86 0.29 1.44-0.29 0-0.29 0.29-0.58 0.29z"/>
		<path id="&lt;Path&gt;" class="s2" d="m476.53 948.32c-0.87 0-1.16-0.28-1.16-0.86l-0.87-13.58q0-0.87 0.87-0.87 0.87 0 0.87 0.87l0.86 13.58c0.29 0.58 0 0.86-0.57 0.86z"/>
		<path id="&lt;Path&gt;" class="s2" d="m378.01 817.16c0 0-14.73 65.87 1.16 136.94l-17.63 2.6c0 0-18.78-92.45 0.87-139.25z"/>
		<path id="&lt;Path&gt;" class="s1" d="m362.99 929.55c-12.46 0-22.54-10.08-22.54-22.54 0-12.46 10.08-22.53 22.54-22.53 12.46 0 22.53 10.07 22.53 22.53 0 12.46-10.07 22.54-22.53 22.54z"/>
		<path id="&lt;Compound Path&gt;" class="s2" d="m369.92 929.55c-12.42 3.75-25.71-3.18-29.18-15.6-3.75-12.43 3.18-25.72 15.6-29.18 12.43-3.76 25.71 3.17 29.18 15.6 3.76 12.42-3.47 25.42-15.6 29.18zm-13.29-43.34c-11.27 3.47-17.91 15.6-14.44 26.87 3.46 11.27 15.6 17.91 26.86 14.44 11.27-3.46 17.92-15.6 14.45-26.86-3.18-11.27-15.31-17.92-26.87-14.45z"/>
		<path id="&lt;Path&gt;" class="s1" d="m346.23 908.75l17.05-1.45-3.76-6.64"/>
		<path id="&lt;Path&gt;" class="s2" d="m363.28 907.88l-17.05 1.44q-0.87 0-0.87-0.86 0-0.87 0.87-0.87l15.31-1.44-3.18-5.49c-0.28-0.29-0.28-0.87 0.29-1.45 0.29-0.29 0.87-0.29 1.45 0.29l3.75 6.65q0.44 0.43 0 0.86c0 0.58-0.29 0.87-0.57 0.87z"/>
		<path id="&lt;Path&gt;" class="s2" d="m126.25 963.78c-2.74 0-5.69-0.38-8.48-1.53-4.71-1.66-9.57-6.43-9.57-12.27 0-6.33 5.14-11.67 14.11-14.66 5.45-1.82 10.12-1.98 13.87-0.48 2.7 1.08 4.98 3.4 6.09 6.21 0.94 2.37 0.92 4.84-0.06 6.94-0.34 0.72-1.06 1.17-1.85 1.17-0.82 0-1.75 0-2.21 0.16-1.08 0.35-2.23-0.22-2.59-1.29-0.35-1.07 0.23-2.23 1.3-2.59 0.62-0.21 1.3-0.29 1.98-0.33 0.13-0.97-0.1-1.89-0.37-2.56-0.69-1.76-2.15-3.26-3.8-3.92-3.53-1.41-7.96-0.47-11.06 0.56-3.41 1.14-11.33 4.46-11.33 10.79 0 3.9 3.58 7.27 6.95 8.46 3.45 1.42 7.43 1.62 13 0.69 5.76-0.85 13.04-2.4 18.53-6.85 4.23-3.81 7.09-11.2 4.18-16.36-2.23-4.08-7.3-6.61-15.09-7.54-7.67-0.94-15.97-0.17-24.64 2.27-1.1 0.31-2.22-0.32-2.52-1.41-0.31-1.08 0.32-2.21 1.41-2.52 9.2-2.59 18.03-3.39 26.24-2.4 9.17 1.1 15.29 4.34 18.17 9.62 3.95 6.99 0.51 16.4-5.1 21.45-6.34 5.14-14.31 6.85-20.54 7.77-1.86 0.31-4.16 0.62-6.62 0.62z"/>
		<path id="&lt;Path&gt;" class="s1" d="m227.48 373.11l22.27-7.07-22.28-7.61c-6.66-1.75-11.76-7.11-13.18-13.85l-7.07-33.44-7.59 32.72c-1.6 6.9-7.05 12.24-13.98 13.71l-20.97 7.21 20.24 7.14c7.09 1.64 12.52 7.35 13.81 14.51l5.85 32.35 8.52-32.38c1.8-6.85 7.41-12.03 14.38-13.29z"/>
		<path id="&lt;Path&gt;" class="s2" d="m749.04 906.9l25-7.94-25-8.53c-7.48-1.97-13.21-7.98-14.81-15.55l-7.93-37.53-8.52 36.72c-1.79 7.74-7.91 13.75-15.69 15.39l-23.53 8.1 22.71 8.01c7.95 1.84 14.05 8.24 15.5 16.28l6.57 36.32 9.56-36.35c2.03-7.69 8.32-13.51 16.14-14.92z"/>
		<path id="&lt;Path&gt;" class="s2" d="m583.35 266.84l14.25-4.53-14.26-4.86c-4.26-1.12-7.52-4.55-8.44-8.87l-4.52-21.4-4.86 20.94c-1.02 4.42-4.51 7.84-8.94 8.77l-13.42 4.62 12.95 4.57c4.53 1.05 8.01 4.7 8.84 9.28l3.74 20.71 5.45-20.72c1.16-4.39 4.75-7.7 9.21-8.51z"/>
		<path id="&lt;Path&gt;" class="s2" d="m389.04 286.67c-0.87-5-3.67-8.68-6.27-8.23-2.59 0.45-3.99 4.87-3.12 9.87 0.87 5 3.68 8.68 6.27 8.23 2.6-0.45 3.99-4.87 3.12-9.87z"/>
		<path id="&lt;Path&gt;" class="s2" d="m460.51 272.38c-0.87-5-3.67-8.69-6.27-8.24-2.59 0.45-3.98 4.87-3.12 9.87 0.87 5 3.68 8.69 6.27 8.24 2.6-0.45 3.99-4.87 3.12-9.87z"/>
		<path id="&lt;Path&gt;" class="s2" d="m387.36 257.17c0.65 1.82 0.09 4-1.36 5.27-3.68 3.23-10.62 5.21-15.25 6.62-1.66 0.5-3.48 0.92-5.1 0.29-5.29-2.03-3.92-7.77-0.41-10.41 3.16-2.38 7.2-3.77 10.95-4.86 2.05-0.6 4.21-1.01 6.31-0.63 2.1 0.39 4.13 1.72 4.86 3.72z"/>
		<path id="&lt;Path&gt;" class="s2" d="m441.45 245.36c-0.3 1.9 0.68 3.94 2.34 4.91 4.24 2.46 11.43 3.07 16.24 3.56 1.73 0.18 3.59 0.23 5.06-0.69 4.8-3.01 2.36-8.38-1.6-10.3-3.55-1.73-7.78-2.32-11.68-2.67-2.12-0.19-4.33-0.18-6.31 0.6-1.99 0.79-3.72 2.48-4.05 4.59z"/>
		<path id="&lt;Path&gt;" class="s2" d="m435.91 311.48c-0.51 0-1.02-0.19-1.42-0.57-0.81-0.79-0.83-2.08-0.05-2.89 3.66-3.78 5.8-7.85 5.26-8.5-2.27-2.73-12.75-17.53-14.44-24.02-0.29-1.09 0.37-2.21 1.46-2.49 1.09-0.28 2.2 0.37 2.49 1.46 1.37 5.27 10.81 19.05 13.63 22.43 3.46 4.16-3.31 11.74-5.46 13.96-0.4 0.42-0.94 0.62-1.47 0.62z"/>
		<path id="&lt;Path&gt;" class="s4" d="m728.37 400.76c14.7 22.88 16.94 52.85-8.61 82.39l-11.53-37.35-15.48 23.24-15.17-22.72c0 0-14.27 19.47-8.6 40.38 0 0-36-38.34-13.06-80.07z"/>
		<path id="&lt;Compound Path&gt;" class="s2" d="m668.98 488.75c-0.55 0-1.09-0.23-1.49-0.65-0.37-0.39-36.74-39.91-13.36-82.45 0.33-0.6 0.94-1 1.62-1.05l72.45-5.88c0.75-0.05 1.48 0.3 1.88 0.94 17.5 27.23 14.3 58.14-8.77 84.83-0.49 0.56-1.24 0.82-1.97 0.66-0.72-0.15-1.31-0.69-1.53-1.4l-10.26-33.24-13.1 19.66c-0.38 0.57-1.02 0.91-1.7 0.91-0.68 0-1.32-0.34-1.7-0.91l-13.44-20.13c-3.41 5.73-10.73 20.44-6.76 35.76q0.21 0.41 0.21 0.9c0 1.14-0.9 2.14-2.06 2.05q-0.01 0-0.02 0zm-11.79-80.17c-15.9 30.13-0.11 58.62 8.5 70.68-1.21-18.26 9.72-33.42 10.25-34.15 0.39-0.54 1.01-0.86 1.69-0.83 0.66 0.01 1.28 0.35 1.65 0.91l13.47 20.17 13.78-20.69c0.44-0.66 1.22-1.01 1.99-0.89 0.78 0.11 1.43 0.66 1.66 1.42l10.42 33.75c26.21-32.56 15.95-61.12 6.7-76.05z"/>
		<path id="&lt;Path&gt;" class="s6" d="m653.14 348.22c-4.46-0.05-31.22 29.08-27.93 82.92l3.57 0.04c0 0 4.66-24.1 30.24-23.83l14.84-23.76z"/>
		<path id="&lt;Compound Path&gt;" class="s2" d="m630.46 433.24l-7.17-0.07-0.12-1.9c-2.37-38.81 10.89-67.57 22.96-80.4 2.93-3.12 5.28-4.69 7-4.69h1.17l0.6 1.01 21.35 36.44-16.1 25.77-1.55-0.01c-23.25 0-27.64 21.28-27.82 22.18zm-3.31-4.12h0.06c1.67-5.61 8.7-23.44 30.68-23.81l13.59-21.75-19.25-32.86c-5.83 3.84-27.36 31.2-25.08 78.42z"/>
		<path id="&lt;Compound Path&gt;" class="s2" d="m659.53 408.28h-0.52c-7.51-0.08-13.9 1.99-19 6.16-8.28 6.77-10.3 16.82-10.32 16.92l-0.15 0.76-5.2-0.06-0.06-0.86c-2.92-47.73 17.84-75.98 25.34-82.11 1.49-1.22 2.65-1.81 3.53-1.8l0.52 0.01 21.28 36.31zm-20.7 4.71c5.32-4.35 11.94-6.56 19.67-6.58l14.27-22.84-20.1-34.3c-0.39 0.18-1.02 0.55-1.88 1.25-7.27 5.94-27.28 33.27-24.71 79.7l1.95 0.02c0.65-2.58 3.27-11.09 10.8-17.25z"/>
		<path id="&lt;Path&gt;" class="s2" d="m620.97 432.41l12.55 0.14c0.86 0.01 1.57-0.69 1.58-1.54 0-0.85-0.69-1.56-1.54-1.57l-12.56-0.13c-0.85-0.01-1.56 0.68-1.57 1.53-0.01 0.86 0.69 1.57 1.54 1.57z"/>
		<path id="&lt;Path&gt;" class="s6" d="m730.95 348.59c4.5 0.05 30.9 30.04 26.42 84.35l-3.6-0.04c0 0-4.2-24.44-30.04-24.72l-14.48-24.31z"/>
		<path id="&lt;Compound Path&gt;" class="s2" d="m759.25 435l-7.2-0.07-0.29-1.68c-0.17-0.93-4.27-22.77-28.05-23.03l-1.15-0.01-15.69-26.36 22.94-37.32 1.16 0.02c1.7 0.01 4 1.6 6.84 4.72 2.66 2.92 25.87 30.03 21.6 81.84zm-3.87-4.13h0.1c3.31-47.5-17.66-75.53-23.71-79.74l-20.13 32.75 13.26 22.28c22.21 0.85 28.92 19.03 30.48 24.71z"/>
		<path id="&lt;Compound Path&gt;" class="s2" d="m758.23 433.88l-5.24-0.06-0.14-0.76c-0.16-0.97-4.39-23.69-29.13-23.95h-0.52l-15.03-25.25 22.26-36.21 0.52 0.01c1.81 0.02 4.56 2.74 6.03 4.36 2.63 2.88 25.55 29.66 21.32 81zm-3.71-1.9l2 0.02c3.84-49.99-18.35-75.92-20.91-78.73-2.12-2.33-3.53-3.29-4.23-3.61l-21.04 34.22 13.93 23.38c23.25 0.54 29.25 20.53 30.25 24.72z"/>
		<path id="&lt;Path&gt;" class="s2" d="m761.63 434.31l-12.69-0.13c-0.86-0.01-1.56-0.72-1.55-1.59 0.01-0.86 0.72-1.56 1.59-1.55l12.68 0.13c0.86 0.01 1.56 0.73 1.55 1.59-0.01 0.86-0.72 1.56-1.58 1.55z"/>
		<path id="&lt;Path&gt;" class="s1" d="m640.34 237.28c1.46-56.06 55.5-108.11 55.5-108.11l0.83 0.01c0 0 52.92 53.19 53.19 109.26 0.26 56.07-19.07 170.6-19.07 170.6l-37.09-0.39-0.83-0.01-37.09-0.4c0 0-16.89-114.91-15.44-170.96z"/>
		<path id="&lt;Compound Path&gt;" class="s2" d="m732.52 411.1l-78.5-0.83-0.26-1.73c-0.17-1.15-16.9-115.73-15.46-171.32 1.47-56.24 53.89-107.37 56.12-109.52l0.6-0.58 2.51 0.03 0.59 0.59c2.18 2.2 53.51 54.43 53.78 110.69 0.26 55.61-18.9 169.8-19.09 170.95zm-74.97-4.88l71.52 0.76c2.39-14.53 18.99-117.01 18.74-168.53-0.24-50.33-44.31-99.09-51.58-106.78-7.43 7.53-52.54 55.35-53.85 105.66-1.33 51.51 13.08 154.31 15.17 168.89z"/>
		<path id="&lt;Compound Path&gt;" class="s2" d="m731.38 409.76q-0.25 0.21-0.6 0.21l-75.01-0.8c-0.46 0-0.84-0.34-0.91-0.79-0.17-1.15-16.89-115.63-15.45-171.13 1.45-55.79 55.24-108.22 55.78-108.75q0.28-0.25 0.66-0.26l0.83 0.01q0.38 0.01 0.65 0.28c0.53 0.53 53.19 54.1 53.46 109.9 0.26 55.52-18.89 169.62-19.08 170.76q-0.07 0.36-0.33 0.57zm-74.79-2.44l73.42 0.78c1.7-10.21 19.17-116.72 18.92-169.66-0.26-53.01-48.63-104.17-52.66-108.33h-0.06c-4.12 4.08-53.56 54.2-54.94 107.19-1.37 52.92 13.84 159.78 15.32 170.02z"/>
		<path id="&lt;Path&gt;" class="s3" d="m661.44 173.45c15.7-26.25 34.4-44.28 34.4-44.28l0.83 0.01c0 0 17.43 17.54 32.34 43.08-9.26 4.26-31.45 10.93-67.57 1.19z"/>
		<path id="&lt;Compound Path&gt;" class="s2" d="m696.58 180.52c-11.13 0-23.13-1.71-35.67-5.1-0.62-0.17-1.12-0.61-1.36-1.2-0.24-0.6-0.19-1.27 0.14-1.82 15.65-26.18 34.54-44.51 34.73-44.7 0.39-0.37 0.89-0.61 1.44-0.57l0.83 0.01c0.54 0.01 1.05 0.22 1.43 0.6 0.17 0.18 17.78 18.02 32.65 43.49 0.29 0.49 0.36 1.09 0.18 1.64-0.17 0.55-0.57 1-1.09 1.24-6.35 2.93-17.27 6.41-33.28 6.41zm-31.97-8.35c11.24 2.83 21.98 4.27 31.97 4.27 13.63 0 23.32-2.62 29.49-5.14-12.28-20.51-26.06-35.63-29.84-39.63-3.96 4.01-18.66 19.46-31.62 40.5z"/>
		<path id="&lt;Compound Path&gt;" class="s2" d="m729.59 172.97q-0.09 0.08-0.2 0.13c-10.04 4.63-32.25 10.94-68.19 1.25-0.28-0.08-0.51-0.28-0.62-0.55-0.11-0.27-0.09-0.58 0.06-0.83 15.58-26.05 34.36-44.28 34.55-44.47q0.28-0.25 0.66-0.26l0.83 0.01q0.38 0.01 0.65 0.28c0.17 0.17 17.68 17.91 32.48 43.26 0.13 0.22 0.16 0.49 0.08 0.74q-0.08 0.27-0.3 0.44zm-66.72-0.1c33.6 8.8 54.71 3.37 64.81-1.04-13.57-22.98-29.2-39.44-31.41-41.72h-0.06c-2.31 2.29-19.04 19.18-33.34 42.76z"/>
		<path id="&lt;Path&gt;" class="s3" d="m737.82 363.46c-3.8 26.45-7.03 45.58-7.03 45.58l-37.09-0.39-0.83-0.01-37.09-0.4c0 0-2.75-18.7-5.93-44.69z"/>
		<path id="&lt;Compound Path&gt;" class="s2" d="m730.79 411.08q-0.01 0-0.02 0l-75.01-0.79c-1-0.01-1.85-0.75-2-1.75-0.03-0.19-2.79-19.02-5.94-44.75-0.07-0.58 0.11-1.16 0.5-1.6 0.38-0.44 0.94-0.69 1.52-0.69l87.98-0.08q0 0 0 0c0.59 0 1.16 0.26 1.54 0.7 0.39 0.45 0.57 1.04 0.48 1.63-3.76 26.17-7 45.44-7.03 45.63-0.17 0.98-1.02 1.7-2.02 1.7zm-73.24-4.86l71.52 0.76c0.84-5.09 3.42-20.97 6.39-41.47l-83.31 0.08c2.49 20.09 4.68 35.61 5.4 40.63z"/>
		<path id="&lt;Compound Path&gt;" class="s2" d="m731.38 409.76q-0.25 0.21-0.6 0.21l-75.01-0.8c-0.46 0-0.84-0.34-0.91-0.79-0.03-0.19-2.79-19.01-5.94-44.72-0.03-0.26 0.05-0.53 0.23-0.73 0.18-0.2 0.43-0.31 0.7-0.31l87.97-0.09c0.27 0 0.53 0.12 0.7 0.32 0.18 0.21 0.26 0.48 0.22 0.74-3.76 26.16-7 45.41-7.03 45.6q-0.07 0.36-0.33 0.57zm-74.79-2.44l73.42 0.78c0.63-3.8 3.47-21.06 6.74-43.71l-85.85 0.08c2.73 22.22 5.14 39.09 5.69 42.85z"/>
		<path id="&lt;Path&gt;" class="s6" d="m692.32 353.35h0.18l3.29 0.04h0.18c0 0 13.34 29.57-0.9 84.68l-1.56-0.01-0.52-0.01-1.57-0.01c-13.06-55.41 0.9-84.69 0.9-84.69z"/>
		<path id="&lt;Compound Path&gt;" class="s2" d="m696.65 440.13l-6.85-0.07-0.36-1.56c-13.08-55.46 0.46-84.81 1.04-86.03l0.56-1.17 6.08 0.06 0.71 1.19c0.56 1.23 13.48 30.86-0.78 86.04zm-3.6-4.13l0.44 0.01c11.72-46.7 3.25-74.66 1.08-80.6l-0.89-0.01c-2.29 5.89-11.36 33.67-0.63 80.6z"/>
		<path id="&lt;Compound Path&gt;" class="s2" d="m695.79 439.01l-5.1-0.05-0.17-0.71c-12.99-55.09 0.82-85 0.96-85.3l0.26-0.53 4.83 0.05 0.25 0.54c0.13 0.3 13.31 30.5-0.85 85.3zm-3.63-1.9l2.2 0.02c12.67-49.68 2.65-78.58 0.99-82.82l-2.42-0.03c-1.74 4.2-12.38 32.88-0.77 82.83z"/>
		<path id="&lt;Path&gt;" class="s2" d="m686.89 439.95l12.15 0.13c0.83 0.01 1.51-0.66 1.52-1.48 0.01-0.83-0.66-1.52-1.49-1.52l-12.15-0.13c-0.82-0.01-1.51 0.66-1.52 1.48-0.01 0.83 0.66 1.52 1.49 1.52z"/>
		<path id="&lt;Path&gt;" class="s7" d="m712.92 230.68c-11.1-10.42-28.54-9.87-38.96 1.23-10.42 11.09-9.87 28.53 1.23 38.95 11.09 10.42 28.53 9.87 38.95-1.23 10.42-11.09 9.87-28.53-1.22-38.95z"/>
		<path id="&lt;Compound Path&gt;" class="s2" d="m694.05 280.37q0 0 0 0c-7.56 0-14.75-2.85-20.26-8.02-5.76-5.41-9.07-12.75-9.32-20.65-0.25-7.9 2.59-15.43 8-21.19 5.58-5.94 13.44-9.34 21.59-9.34 7.55 0 14.75 2.85 20.26 8.02 11.89 11.18 12.48 29.95 1.31 41.84-5.57 5.94-13.44 9.34-21.58 9.34zm0.01-55.12c-7.13 0-13.73 2.86-18.61 8.05-4.66 4.97-7.12 11.46-6.9 18.27 0.21 6.81 3.07 13.14 8.04 17.8 4.75 4.46 10.95 6.92 17.46 6.92 7.12 0 13.73-2.86 18.6-8.05 9.63-10.26 9.13-26.44-1.13-36.07-4.75-4.46-10.95-6.92-17.46-6.92z"/>
		<path id="&lt;Compound Path&gt;" class="s2" d="m712.02 272.8q0 0 0 0c-11 9-27.11 8.46-37.49-1.29-11.45-10.75-12.01-28.8-1.25-40.25q1.3-1.38 2.76-2.57c11.01-9 27.13-8.43 37.51 1.31 11.45 10.75 12 28.79 1.25 40.25-0.86 0.91-1.81 1.76-2.78 2.55zm-34.8-42.67q-1.36 1.12-2.58 2.41c-10.05 10.71-9.45 27.67 1.25 37.72 9.7 9.11 24.84 9.72 35.13 1.31 0.9-0.74 1.7-1.63 2.51-2.49 10.05-10.71 9.49-27.63-1.22-37.68-9.7-9.11-24.8-9.68-35.09-1.27z"/>
		<path id="&lt;Path&gt;" class="s1" d="m685.4 242.65c-3.39-3.19-8.72-3.02-11.9 0.37-3.18 3.39-3.02 8.72 0.38 11.91 3.39 3.18 8.71 3.01 11.9-0.38 3.18-3.39 3.01-8.72-0.38-11.9z"/>
		<path id="&lt;Path&gt;" class="s1" d="m686.61 255.34c-2.31-2.17-5.94-2.06-8.11 0.25-2.17 2.31-2.06 5.95 0.25 8.12 2.32 2.17 5.95 2.05 8.12-0.26 2.17-2.31 2.06-5.94-0.26-8.11z"/>
		<path id="&lt;Path&gt;" class="s2" d="m427.82 344.6c-18.9 0-32.71-13.09-32.89-13.27-0.81-0.79-0.83-2.08-0.05-2.89 0.78-0.8 2.08-0.83 2.89-0.05 0.96 0.94 23.98 22.65 50.84 5.87 0.96-0.6 2.22-0.31 2.82 0.65 0.59 0.95 0.3 2.21-0.65 2.81-8.07 5.04-15.87 6.88-22.96 6.88z"/>
		<path id="&lt;Path&gt;" class="s2" d="m392.77 334.97c-0.45 0-0.91-0.15-1.29-0.46-0.87-0.71-1-2-0.29-2.87l5.61-6.9c0.72-0.87 2-1 2.88-0.29 0.87 0.71 1 2 0.29 2.87l-5.61 6.9c-0.41 0.49-1 0.75-1.59 0.75z"/>
		<path id="&lt;Path&gt;" class="s2" d="m326.66 339.05c-0.78 0-1.53-0.45-1.87-1.22-4.53-10.3-15.27-13.24-23.33-11.62-4.9 0.99-10.18 4.08-10.28 9.81-0.02 1.13-1.01 1.97-2.07 2.01-1.13-0.02-2.03-0.95-2.01-2.08 0.11-6.71 5.44-12.11 13.56-13.74 9.6-1.95 22.43 1.61 27.87 13.98 0.46 1.03-0.01 2.24-1.04 2.69q-0.41 0.17-0.83 0.17z"/>
		<path id="&lt;Path&gt;" class="s2" d="m308.28 338.54q-0.46 0-0.91-0.21c-1.01-0.51-1.42-1.74-0.91-2.74l5.61-11.24c0.51-1 1.73-1.41 2.74-0.91 1.01 0.51 1.42 1.73 0.92 2.74l-5.62 11.23c-0.36 0.72-1.08 1.13-1.83 1.13z"/>
		<path id="&lt;Path&gt;" class="s2" d="m491.81 296.68q-0.51 0-0.99-0.26c-0.98-0.54-1.34-1.78-0.8-2.77 0.36-0.65 3.68-6.46 8.73-7.65 2.22-0.52 4.45-0.05 6.47 1.34 0.93 0.65 1.16 1.92 0.52 2.84-0.64 0.93-1.91 1.16-2.84 0.52-1.09-0.75-2.1-0.98-3.2-0.72-2.8 0.65-5.35 4.29-6.1 5.65-0.38 0.67-1.07 1.05-1.79 1.05z"/>
		<path id="&lt;Path&gt;" class="s1" d="m362.53 158.42c3.41-3.48 8.28-6.89 12.79-5.03 2.59 1.06 4.21 3.6 6.23 5.55 5.16 5.01 13.71 6.09 19.96 2.51 3.63-2.08 6.35-5.43 9.75-7.88 3.51-2.52 7.75-4.04 12.06-4.3 1.62-0.1 3.32-0.02 4.74 0.76 3.43 1.89 3.73 6.74 2.82 10.55-1.44 6.03-4.9 11.69-10.07 15.12-5.16 3.42-12.07 4.38-17.72 1.83-2.81-1.27-5.24-3.31-8.13-4.37-5.7-2.09-12.04 0.01-17.5 2.65-5.46 2.65-10.88 5.93-16.94 6.3-1.37 0.08-2.81 0-4-0.68-2.2-1.24-2.93-4.09-2.82-6.62 0.28-6.34 4.38-11.85 8.83-16.39z"/>
	</g>
</svg>