<svg version="1.2" xmlns="http://www.w3.org/2000/svg" viewBox="0 0 1080 1080" width="1080" height="1080">
	<style>
		.s0 { fill: #ffecbb } 
		.s1 { fill: #333333 } 
		.s2 { fill: #ffffff } 
		.s3 { fill: #2b2b2b } 
		.s4 { fill: #fc5e71 } 
		.s5 { fill: #363636 } 
		.s6 { fill: #e58f6e } 
		.s7 { fill: #ccd7f2 } 
		.s8 { fill: #f29c50 } 
		.s9 { fill: #f2cf63 } 
	</style>
	<g id="Layer 1">
		<path id="&lt;Path&gt;" class="s0" d="m109.12 776.88c8.48 18.71 18.84 35.99 30.88 51.05 40.55 50.7 100.07 83.49 162.1 102.65 126 38.92 278.84 50.38 408.59 26.66 120.84-22.09 208.19-102.64 240.68-220.97 26.85-97.84 13.04-185.59-12.49-280.67-21.55-80.28 3.76-153.31-51.46-225.15-33.17-43.14-79.37-74.49-127.38-100.11-105-56.03-224.98-81.62-337.86-33.37-94.93 40.59-174.68 126.91-186.41 232.24-2.07 18.56-2.18 37.54-7.65 55.4-16.18 52.78-69.74 77.78-101.68 119.07-55.87 72.23-56.07 187.74-17.32 273.2z"/>
		<path id="&lt;Path&gt;" class="s1" d="m829.45 634.69c34.57 12.29 16.9-63.77 16.9-70.69 0-6.91-46.1 23.82-46.1 23.82z"/>
		<path id="&lt;Path&gt;" class="s1" d="m839.63 785.28l21.85-6.94-21.85-7.46c-6.53-1.71-11.54-6.97-12.94-13.58l-6.93-32.81-7.45 32.1c-1.57 6.76-6.91 12.01-13.71 13.45l-20.57 7.07 19.85 7c6.95 1.62 12.28 7.21 13.55 14.24l5.74 31.74 8.36-31.77c1.77-6.72 7.27-11.8 14.1-13.04z"/>
		<path id="&lt;Path&gt;" class="s2" d="m705.45 217.78l33.21-10.55-33.22-11.34c-9.93-2.61-17.54-10.61-19.67-20.66l-10.54-49.88-11.32 48.8c-2.38 10.29-10.52 18.27-20.85 20.45l-31.27 10.76 30.18 10.64c10.57 2.46 18.67 10.96 20.6 21.64l8.72 48.26 12.71-48.3c2.69-10.21 11.05-17.94 21.45-19.82z"/>
		<path id="&lt;Path&gt;" class="s1" d="m155.89 496.72l13.22-4.2-13.22-4.51c-3.95-1.04-6.98-4.22-7.83-8.22l-4.19-19.85-4.51 19.42c-0.94 4.1-4.18 7.27-8.29 8.14l-12.45 4.28 12.01 4.24c4.21 0.97 7.43 4.36 8.2 8.61l3.47 19.2 5.06-19.22c1.07-4.07 4.4-7.14 8.53-7.89z"/>
		<path id="&lt;Path&gt;" class="s3" d="m575.15 365.91c-4.64-18.66-18.15-18.96-42.87-17.06-24.72 1.89-88.73 10.86-98.22 19.37-9.48 8.52-12.62 37.21-12.62 37.21l83.3 11.11c0 0 73.91-36.6 70.41-50.63z"/>
		<path id="&lt;Path&gt;" class="s1" d="m580.02 365.31c-16.45 5.01-7.05 8.3-33.22 15.65-26.18 7.34-117.97 11.86-125.8 15.67-7.84 3.81-1.76 147.69-1.76 147.69l-95.91 443.53c0 0 123.64 28.99 196.83 30.97 81.83 2.21 136.79-26.28 159.23-30.97 22.45-4.68-99.37-622.54-99.37-622.54z"/>
		<path id="&lt;Path&gt;" class="s4" d="m443.66 373.2c0 0-18 2.78-18.98 19.65-0.98 16.88 10.63 56.88 23.55 121.99 12.91 65.1 24.21 502.17 2.27 515.03-42.76 25.07-169.19-29.85-206.79-67.08l37.78-308.06c0 0-19.21-26.42-132.07-37.22 0 0 72.03-182.5 130.87-201.71 60.83-19.87 128.88-28.51 128.88-28.51 0 0 4.46-20.21 34.38-27.2z"/>
		<path id="&lt;Compound Path&gt;" class="s1" d="m421.19 1038.37c-53.68 0-146.35-41.71-179-74.04-0.48-0.47-0.71-1.14-0.63-1.8l37.66-307.1c-3.74-3.86-29.4-26.13-130.01-35.77-0.68-0.06-1.28-0.44-1.64-1.02-0.36-0.58-0.42-1.29-0.17-1.93 2.96-7.49 73.09-183.66 132.21-202.97 55.54-18.13 117.8-27.04 127.88-28.41 1.7-5.03 9.08-21.16 35.57-27.35 0.64-0.15 1.31 0 1.83 0.4 0.52 0.41 0.82 1.03 0.82 1.69l0.12 13.11c0.01 1.08-0.78 2-1.84 2.16-0.66 0.11-16.28 2.75-17.15 17.64-0.61 10.42 3.79 30.17 10.43 60.07 3.73 16.75 8.36 37.59 13.08 61.37 6.22 31.35 12.48 153.24 14.25 277.5 0.92 64.35 0.49 120.13-1.22 161.3-3.06 73.4-9.18 76.99-11.79 78.52-7.51 4.4-17.73 6.63-30.4 6.63zm-175.2-76.38c32.75 31.68 122.84 72.05 175.2 72.05 11.89 0 21.38-2.03 28.21-6.03 6.51-3.82 13.27-67.93 10.87-236.03-1.77-124.04-7.99-245.59-14.17-276.72-4.7-23.72-9.33-44.54-13.05-61.27-6.73-30.25-11.17-50.24-10.53-61.26 0.87-15.01 14.03-19.93 18.96-21.25l-0.07-8.62c-25.75 7.06-29.95 24.15-30.12 24.9-0.21 0.89-0.94 1.56-1.84 1.68-0.68 0.08-68.56 8.85-128.49 28.42-53.36 17.42-119.27 175.21-128.46 197.78 110 10.94 129.94 36.72 130.74 37.82 0.32 0.44 0.46 0.99 0.39 1.53z"/>
		<path id="&lt;Path&gt;" class="s2" d="m888.97 61.33c-1.09-8.44-13.73-24.33-26.94-15.65-13.2 8.69-3.74 45.93-6.13 53.92-2.4 7.99-30.13 44.43-30.13 44.43 0 0-0.27-33.38-10.28-48.7-10.01-15.31-21.13-7.94-25.66-0.94-4.54 7-4.54 39.13-6.28 47.01-1.75 7.89-18.96 29.81-24.93 46.64-5.98 16.82 1.49 38.57 1.49 38.57l4.45 9.88 0.03 0.06 18.08 34.96 69.06 168.03-149.06-46.1 17.03 173.01c0 0 191.25 89.75 256.5 4.47 56.62-74.02-21.04-251.93-68.32-322.11 11.76-11.65 23.73-25.49 30.99-37.73 14.93-25.17-6.86-71.42-6.86-71.42-2.81-9.49-9.99-27.89-9.99-27.89 0 0-6.93-27.38-15.86-37.9-8.92-10.52-15.69-11.45-15.69-11.45 0 0-1.41-0.41-1.5-1.09z"/>
		<path id="&lt;Compound Path&gt;" class="s3" d="m884.56 610.6q-0.01 0-0.02 0c-76.54-2.55-164.87-41.4-165.76-41.82-0.69-0.32-1.16-1.17-1.23-1.93l-17.03-173.11c-0.07-0.72 0.22-1.48 0.79-1.93 0.56-0.46 1.31-0.63 2-0.42l144.67 44.73-67.31-163.78-18-34.79-4.53-10.05c-0.39-1.11-7.72-22.85-1.56-40.19 3.32-9.35 9.84-19.92 15.59-29.26 4.39-7.13 8.54-13.87 9.26-17.12 0.58-2.62 0.99-8.59 1.43-14.9 1.08-15.76 2.15-28.19 5.15-32.82 2.83-4.37 8.13-9.04 14.49-9.04 5.49 0 10.47 3.36 14.8 9.98 7.68 11.76 9.81 33.17 10.4 43.71 9.07-12.14 24.5-33.47 26.12-38.88 0.65-2.15 0.19-7.84-0.29-13.86-1.16-14.61-2.76-34.62 7.31-41.25 2.9-1.9 5.96-2.87 9.1-2.87 10.45 0 19.57 11.27 21.06 19.32 1.38 0.27 8.28 2.08 16.81 12.14 8.92 10.52 15.68 36.31 16.27 38.64 0.68 1.76 7.22 18.59 9.96 27.79 1.61 3.46 21.75 47.91 6.69 73.29-8.48 14.3-21.99 28.8-30.07 36.9 21.67 32.56 53.22 92.99 72.42 158.74 15.2 52.06 26.64 123.21-5.16 164.78-19.11 24.97-50.52 38-93.36 38zm-162.82-45.61c10.43 4.72 91.87 37.96 162.8 40.51q0.01 0 0.02 0c41.43 0 71.68-12.07 89.92-35.91 54.52-71.28-18.91-246.12-68.4-319.58-0.58-0.86-0.47-2.01 0.27-2.75 13.33-13.18 24.22-26.43 30.66-37.29 14.18-23.91-6.75-68.93-6.96-69.38q-0.07-0.15-0.12-0.31c-2.75-9.3-9.86-27.54-9.93-27.73q-0.05-0.12-0.08-0.25c-0.07-0.27-6.91-27.02-15.41-37.03-8.15-9.61-14.3-10.7-14.36-10.71q-0.14-0.02-0.28-0.06c-0.83-0.24-2.79-1-3.04-2.89-0.75-5.72-8.21-16.28-16.89-16.28-2.28 0-4.54 0.73-6.72 2.16-7.93 5.22-6.39 24.51-5.37 37.28 0.56 7 1 12.52 0.12 15.45-2.43 8.13-27.62 41.36-30.48 45.12-0.57 0.74-1.53 1.03-2.41 0.75-0.88-0.3-1.47-1.11-1.48-2.04 0-0.33-0.38-32.93-9.92-47.53-3.48-5.32-7.24-8.03-11.18-8.03-4.63 0-8.74 3.81-10.86 7.08-2.63 4.06-3.69 19.49-4.46 30.75-0.47 6.77-0.87 12.61-1.52 15.55-0.88 3.96-4.82 10.36-9.81 18.45-5.64 9.15-12.03 19.52-15.19 28.44-5.66 15.93 1.42 36.93 1.5 37.14l4.37 9.7 18.07 34.92 69.13 168.19c0.32 0.78 0.16 1.67-0.4 2.29-0.57 0.61-1.44 0.86-2.24 0.6l-145.94-45.14z"/>
		<path id="&lt;Path&gt;" class="s3" d="m906.83 135.23c-6.95 5.7-5.51 20.68-0.5 32.54 1.07 2.52 1.98 4.54 2.77 6.19-4.49 1.99-17.8 15.52-19.4 17.16-0.24 0.25-0.24 0.64 0.01 0.88 0.24 0.24 0.63 0.23 0.87-0.01 6.05-6.19 16.22-15.88 19.06-16.92 2.39 4.85 3.41 5.72 3.54 5.82 0.28 0.21 0.67 0.15 0.87-0.13 0.2-0.28 0.14-0.67-0.13-0.87-0.05-0.04-1.8-1.62-6.44-12.6-4.72-11.16-6.27-25.85 0.14-31.1 6.91-5.67 16.13-2.95 25.95 7.66 0.24 0.25 0.63 0.27 0.88 0.03q0.21-0.2 0.2-0.47-0.01-0.22-0.16-0.4c-10.34-11.17-20.16-13.93-27.66-7.78z"/>
		<path id="&lt;Path&gt;" class="s5" d="m890.14 193.26c-0.45 0-0.87-0.17-1.19-0.48-0.67-0.66-0.68-1.74-0.03-2.41 2.34-2.39 13.58-13.76 18.76-16.88q-1.12-2.41-2.34-5.3c-5.17-12.23-6.56-27.77 0.81-33.8 2.78-2.29 5.91-3.45 9.29-3.45 6.12 0 12.98 3.92 19.84 11.33 0.28 0.3 0.44 0.7 0.45 1.11 0.02 0.49-0.18 0.97-0.54 1.3-0.67 0.61-1.79 0.57-2.41-0.09-9.28-10.03-18.06-12.83-24.48-7.57-5.78 4.75-4.45 18.9 0.17 29.85 4.41 10.41 6.11 12.16 6.18 12.23 0.66 0.47 0.83 1.54 0.28 2.3-0.53 0.73-1.65 0.9-2.38 0.37-0.44-0.32-1.44-1.43-3.39-5.24-3.18 2-11.16 9.42-17.8 16.22-0.33 0.33-0.76 0.51-1.22 0.51z"/>
		<path id="&lt;Path&gt;" class="s3" d="m893.88 94.41c-12.83 8.63-10.24 24.31-7.09 30.14 3.1 5.72 5.96 24.08 6.35 26.71-3.32 3.23-12.96 12.7-13.38 14.31-0.08 0.33 0.12 0.67 0.45 0.75 0.33 0.09 0.67-0.11 0.76-0.44 0.34-1.04 7.09-7.97 13.27-13.95q0.22-0.22 0.18-0.53c-0.13-0.86-3.11-21.11-6.53-27.45-2.99-5.51-5.45-20.35 6.69-28.51 2.04-1.37 4.36-1.8 6.89-1.27 9.85 2.06 19.92 17.77 20.02 17.93 0.19 0.29 0.57 0.38 0.86 0.19 0.19-0.12 0.3-0.33 0.29-0.54q0-0.17-0.1-0.31c-0.42-0.67-10.46-16.32-20.82-18.49-2.86-0.6-5.5-0.11-7.84 1.46z"/>
		<path id="&lt;Path&gt;" class="s5" d="m880.36 167.43c-0.09 0-0.33-0.03-0.42-0.06-0.9-0.23-1.45-1.15-1.23-2.06 0.35-1.35 4.82-6.21 13.28-14.44-0.58-3.74-3.29-20.54-6.15-25.81-3.3-6.1-6.01-22.5 7.44-31.54 2.57-1.73 5.52-2.29 8.66-1.63 10.59 2.22 20.43 17.26 21.52 18.96q0.25 0.4 0.26 0.87c0.02 0.59-0.28 1.16-0.78 1.48q-0.43 0.27-0.92 0.27c-0.59 0-1.12-0.29-1.44-0.79-0.1-0.15-9.93-15.48-19.34-17.45q-3.35-0.71-6.06 1.11c-11.53 7.75-9.18 21.85-6.34 27.1 3.44 6.35 6.33 25.62 6.65 27.8 0.08 0.53-0.11 1.09-0.51 1.47-7.47 7.25-12.57 12.68-13.01 13.56-0.15 0.63-0.83 1.16-1.61 1.16z"/>
		<path id="&lt;Path&gt;" class="s3" d="m888.3 62.57c-4.42 0.58-9.23 4.1-12.53 9.17-4.12 6.31-5.3 13.94-3.26 20.93 3.79 12.93 3.87 20.19 3.85 21.48l-14.86 16.75c-0.23 0.25-0.2 0.65 0.05 0.87 0.26 0.23 0.65 0.21 0.88-0.05l15.01-16.91q0.14-0.16 0.15-0.38c0.02-0.3 0.36-7.62-3.89-22.11-1.94-6.64-0.81-13.89 3.11-19.9 3.11-4.78 7.58-8.08 11.66-8.62 0.31-0.04 0.54-0.32 0.54-0.63q-0.01-0.03-0.01-0.07c-0.04-0.34-0.36-0.57-0.7-0.53z"/>
		<path id="&lt;Path&gt;" class="s5" d="m861.96 133.01c-0.41 0-0.81-0.15-1.13-0.43-0.34-0.3-0.54-0.72-0.56-1.17-0.03-0.46 0.12-0.9 0.42-1.24l14.59-16.43c-0.02-2.02-0.37-9.03-3.81-20.77-2.13-7.29-0.9-15.24 3.39-21.82 3.48-5.33 8.57-9.03 13.3-9.65 0.92-0.13 1.8 0.57 1.91 1.46 0.04 1.05-0.59 1.8-1.46 1.91-3.77 0.5-7.95 3.62-10.9 8.14-3.74 5.74-4.82 12.67-2.97 19.01 4.29 14.63 3.95 22.15 3.93 22.47-0.02 0.38-0.17 0.75-0.42 1.03l-15.01 16.92c-0.32 0.36-0.79 0.57-1.28 0.57z"/>
		<path id="&lt;Path&gt;" class="s3" d="m839.97 237.77c-7.2 12.47-10.65 24.14-10.69 24.25-0.09 0.33 0.1 0.68 0.43 0.77 0.33 0.1 0.67-0.09 0.77-0.42 0.13-0.46 13.77-46 44.04-53.75 0.29-0.07 0.48-0.34 0.47-0.62q0-0.07-0.02-0.14c-0.09-0.33-0.42-0.53-0.76-0.44-16.21 4.15-27.57 18.79-34.24 30.35z"/>
		<path id="&lt;Path&gt;" class="s5" d="m829.88 263.9c-0.1 0-0.38-0.04-0.48-0.07-0.9-0.26-1.42-1.21-1.16-2.11 0.15-0.5 3.67-12.15 10.79-24.49 6.78-11.74 18.34-26.62 34.92-30.86 0.08-0.02 0.33-0.05 0.42-0.05 0.78 0 1.45 0.52 1.65 1.27 0.02 0.08 0.05 0.3 0.05 0.39 0.02 0.79-0.5 1.49-1.28 1.69-29.74 7.62-43.14 52.55-43.27 53-0.22 0.73-0.89 1.23-1.64 1.23z"/>
		<path id="&lt;Path&gt;" class="s4" d="m829.45 634.69c0 0-33.81-51.48 2.3-206.68 0 0-41.23-14.67-125.23-63-56.09-32.27-127.23-8.97-127.23-8.97 0 0-19.03-15.27-35.29-11.05l5.26 12.01c0 0 14.22-0.43 17.25 3.3 3.02 3.72 7.04 37.67 11.1 75.12 3.14 28.96 28.53 410.11 39.87 581.39 51.87-10.03 102.31-29.63 144.53-60.67-16.91-147.38-33.81-327.71-29.37-342.96 6.56-22.55 96.81 21.51 96.81 21.51z"/>
		<path id="&lt;Compound Path&gt;" class="s1" d="m617.48 1018.97c-0.48 0-0.94-0.15-1.32-0.45-0.5-0.38-0.8-0.95-0.84-1.57-10.93-165.09-36.7-552.2-39.86-581.3-2.27-20.94-7.59-69.99-10.64-73.99-0.98-1.21-5.86-2.51-14.25-2.51-0.76 0-1.22 0.01-1.24 0.01-0.86-0.02-1.69-0.48-2.05-1.29l-5.26-12.01c-0.26-0.58-0.24-1.24 0.03-1.81 0.28-0.57 0.79-0.99 1.41-1.15q3.11-0.81 6.55-0.81c13.22 0 26.17 8.92 29.71 11.55 5.2-1.55 28.19-7.9 56.3-7.9 27.43 0 51.52 5.85 71.57 17.39 82.82 47.65 124.48 62.7 124.89 62.84 1.03 0.37 1.63 1.46 1.38 2.53-34.11 146.61-5.19 200.57-2.76 204.74 0.35 0.39 0.55 0.89 0.55 1.45 0 1.2-0.96 2.16-2.16 2.16q-0.51 0.01-0.99-0.22c-0.57-0.27-57.09-27.71-82.9-27.71-6.28 0-9.95 1.64-10.88 4.86-4.21 14.46 11.83 188.57 29.44 342.11 0.09 0.77-0.24 1.53-0.87 1.99-39.78 29.25-90.06 50.36-145.4 61.05q-0.21 0.04-0.41 0.04zm-66.81-664.15c6.5 0.01 14.76 0.73 17.51 4.11 2.86 3.5 5.78 22.75 11.58 76.25 3.15 29.04 28.69 412.56 39.72 579.03 53.29-10.62 101.71-31.01 140.24-59.08-14.73-128.59-34.11-325.55-29.16-342.56 1.54-5.3 6.6-7.98 15.04-7.98 22.08 0 63.71 18.32 79.03 25.42-7.57-17.24-24.5-74.35 4.59-200.64-8.87-3.41-50.19-20.15-123.78-62.49-19.4-11.15-42.75-16.81-69.42-16.81-31.15 0-55.81 7.95-56.06 8.03-0.69 0.22-1.46 0.09-2.03-0.37-0.14-0.12-14.28-11.31-27.92-11.31q-1.51 0-2.94 0.18z"/>
		<path id="&lt;Path&gt;" class="s3" d="m459.81 691.19c-0.81 0-1.58-0.46-1.95-1.23l-47.31-98.55c-0.22-0.48-0.27-1.02-0.13-1.53l18.58-64.89-58.03-57.07c-0.65-0.63-0.83-1.6-0.46-2.42 0.22-0.51 22.9-51.63 37.51-79.97 0.55-1.06 1.85-1.48 2.92-0.93 1.06 0.55 1.48 1.85 0.93 2.91-13.22 25.63-33.08 70.03-36.8 78.38l57.89 56.92c0.56 0.55 0.78 1.37 0.56 2.13l-18.71 65.34 46.95 97.81c0.52 1.07 0.06 2.36-1.01 2.88q-0.46 0.22-0.94 0.22z"/>
		<path id="&lt;Path&gt;" class="s3" d="m594.49 661.94q-0.36 0.01-0.72-0.12c-1.12-0.39-1.72-1.63-1.32-2.76l33.76-96.18-34.07-78.77c-0.24-0.57-0.23-1.22 0.03-1.78l28.27-59.99c-3.41-6.54-24.11-45.51-42.71-64.8-0.83-0.86-0.81-2.23 0.06-3.06 0.86-0.83 2.23-0.8 3.06 0.06 20.68 21.45 42.99 64.93 43.93 66.77 0.31 0.6 0.32 1.3 0.03 1.91l-28.3 60.07 34.01 78.65c0.21 0.5 0.23 1.06 0.05 1.57l-34.04 96.99c-0.31 0.89-1.15 1.44-2.04 1.44z"/>
		<path id="&lt;Path&gt;" class="s3" d="m433.86 735.48c-6.5 0-11.75-5.26-11.75-11.76 0-6.5 5.25-11.75 11.75-11.75 6.51 0 11.76 5.25 11.76 11.75 0 6.5-5.25 11.76-11.76 11.76z"/>
		<path id="&lt;Path&gt;" class="s3" d="m431.57 819.45c-6.5 0-11.75-5.25-11.75-11.75 0-6.5 5.25-11.76 11.75-11.76 6.5 0 11.76 5.26 11.76 11.76 0 6.5-5.26 11.75-11.76 11.75z"/>
		<path id="&lt;Path&gt;" class="s3" d="m426.66 909.27c-7.06 0-12.77-5.71-12.77-12.77 0-7.05 5.71-12.76 12.77-12.76 7.06 0 12.76 5.71 12.76 12.76 0 7.06-5.7 12.77-12.76 12.77z"/>
		<path id="&lt;Path&gt;" class="s3" d="m429.17 994.07c-7.06 0-12.77-5.71-12.77-12.76 0-7.06 5.71-12.77 12.77-12.77 7.05 0 12.76 5.71 12.76 12.77 0 7.05-5.71 12.76-12.76 12.76z"/>
		<path id="&lt;Path&gt;" class="s2" d="m541.33 246.23c0 0 15.86-25.05 34.21-22.58 18.35 2.48 28.5 38.75 11.7 49.81-16.79 11.06-41.85 1.42-41.85 1.42z"/>
		<path id="&lt;Compound Path&gt;" class="s3" d="m567.2 280.94c-11.96 0-22.16-3.88-22.59-4.04-0.73-0.29-1.25-0.94-1.36-1.72l-4.06-28.65c-0.07-0.51 0.04-1.03 0.31-1.46 0.62-0.97 15.25-23.75 33.46-23.75q1.44 0 2.87 0.19c11.07 1.49 18.57 13.29 21.08 24.32 2.29 10.02 1.26 23.02-8.48 29.44-5.71 3.76-12.85 5.67-21.23 5.67zm-19.85-7.67c2.94 0.97 10.98 3.34 19.85 3.34 7.52 0 13.86-1.67 18.85-4.96 7.89-5.2 8.6-16.25 6.64-24.86-2.58-11.32-9.75-19.95-17.44-20.99q-1.14-0.15-2.29-0.16c-14.26 0-26.91 17.49-29.37 21.1z"/>
		<path id="&lt;Path&gt;" class="s2" d="m547.01 178.19c-1.9 0.7-3.72 1.06-5.41 0.95-12.46-0.69-36.39-28.65-79.52-20.56-40.82 7.67-33.04 40.6-85.34 44.1-0.02 9.33 1.97 19.05 6.24 28.9l14.81 34.68c-7.53-4.17-17.99-7.81-27.16-3.24-16.56 8.27-14.47 45.87 4.99 50.92 16.7 4.33 34.18-7.68 38.84-11.2q4.25 7.19 9.54 13.61l10.9 56.03c1.06 5.43-2.76 23.07-5.76 27.51 37.73 31.66 106.47 26.94 137.49-24.68-4.97-1.5-19.57-14.98-21.01-21.02l-6.17-25.83c25.37-26.02 19-66.91 15.73-99.93-2.07-21.02-4.39-37.63-8.17-50.24z"/>
		<path id="&lt;Compound Path&gt;" class="s3" d="m486.57 421.91q-0.01 0-0.01 0c-22.27 0-43.16-7.23-58.81-20.37-0.85-0.71-1.03-1.95-0.41-2.87 2.74-4.04 6.34-21.21 5.44-25.88l-10.8-55.49c-2.93-3.58-5.66-7.42-8.15-11.43-5.49 3.82-17.72 11.17-30.71 11.17-2.78 0-5.48-0.34-8.04-1-11.29-2.93-16.45-14.91-17.52-25.13-1.18-11.25 2.11-24.83 12.11-29.82 6.7-3.35 14.9-3.09 23.85 0.68l-12.53-29.35c-4.28-9.86-6.43-19.87-6.41-29.75 0-1.14 0.88-2.08 2.02-2.15 27.84-1.86 37.79-11.95 48.34-22.63 8.66-8.77 17.63-17.84 36.74-21.44 5.32-1 10.64-1.5 15.82-1.5 22.35 0 38.47 9.13 50.24 15.8 5.96 3.38 10.66 6.05 13.98 6.23q0.25 0.02 0.47 0.02 1.79 0 4.07-0.84c0.56-0.2 1.18-0.17 1.72 0.1 0.53 0.26 0.93 0.74 1.1 1.31 3.41 11.38 5.88 26.53 8.25 50.65q0.35 3.46 0.72 7.03c3.36 32.29 7.16 68.84-16.22 93.75l5.89 24.69c1.29 5.38 15.33 18.18 19.54 19.45 0.64 0.19 1.15 0.67 1.39 1.29 0.24 0.63 0.18 1.32-0.16 1.89-17.16 28.55-47.79 45.59-81.92 45.59zm-54.67-22.55c14.72 11.77 34.05 18.23 54.66 18.24 31.79 0 60.38-15.46 76.96-41.48-6.63-3.89-18.55-15.35-20.01-21.42l-6.17-25.84c-0.17-0.72 0.04-1.48 0.56-2.01 22.88-23.48 19.14-59.43 15.85-91.15q-0.38-3.58-0.73-7.05c-2.2-22.37-4.46-36.87-7.48-47.75q-2.17 0.52-4.08 0.4c-4.31-0.24-9.41-3.12-15.85-6.78-11.36-6.43-26.9-15.24-48.11-15.24-4.91 0-9.96 0.48-15.02 1.42-17.78 3.35-25.89 11.55-34.46 20.24-10.4 10.52-21.14 21.4-49.09 23.74 0.26 8.63 2.28 17.38 6.04 26.04l14.81 34.69c0.36 0.85 0.15 1.83-0.54 2.45-0.69 0.62-1.69 0.74-2.5 0.29-9.75-5.39-18.42-6.54-25.14-3.19-6.94 3.46-10.95 13.95-9.74 25.5 0.92 8.78 5.16 19.01 14.31 21.39 2.2 0.57 4.54 0.86 6.95 0.86 13.52 0 26.41-8.95 30.04-11.7 0.49-0.37 1.12-0.51 1.72-0.39 0.61 0.12 1.13 0.49 1.44 1.02 2.8 4.72 5.94 9.21 9.34 13.33q0.35 0.43 0.46 0.96l10.9 56.04c1.04 5.29-2 20.77-5.12 27.39z"/>
		<path id="&lt;Path&gt;" class="s6" d="m547.01 178.19c-1.9 0.7-3.72 1.06-5.41 0.95-12.46-0.69-36.39-28.65-79.52-20.56-40.82 7.67-33.04 40.6-85.34 44.1-0.02-29.5 20.1-54.92 51.74-67.36q1.45-0.56 2.95-1.1c82.1-29.13 110.04 30.24 110.04 30.24q3.21 5.85 5.54 13.73z"/>
		<path id="&lt;Path&gt;" class="s3" d="m455.7 203.69c0.4 1.68-0.89 3.25-2.14 4.46-6.35 6.13-13.9 11.02-22.1 14.29-1.45 0.59-2.97 1.12-4.53 1.04-2.69-0.15-5.12-2.38-5.49-5.05-0.3-2.18 0.67-4.39 2.11-6.06 1.44-1.67 3.32-2.88 5.18-4.06 6.93-4.41 14.78-8.79 22.88-7.43 1.73 0.29 3.68 1.1 4.09 2.81z"/>
		<path id="&lt;Path&gt;" class="s3" d="m493.56 198.48c0.5 1.66 2.41 2.37 4.09 2.78 8.58 2.1 17.56 2.52 26.29 1.22 1.55-0.23 3.14-0.53 4.45-1.39 2.25-1.48 3.22-4.63 2.19-7.13-0.84-2.03-2.78-3.45-4.87-4.17-2.08-0.72-4.32-0.82-6.52-0.9-8.21-0.31-17.2-0.14-23.51 5.11-1.35 1.12-2.62 2.8-2.12 4.48z"/>
		<path id="&lt;Path&gt;" class="s3" d="m394.01 267.14l2.35 1.45c2.97 1.84 6.73-0.67 6.15-4.12-3.44-20.33-10.28-69.01 1.44-77.01 14.89-10.16-24.26 9.84-24.26 9.84l-14.88-0.69c0 0 16.4 53.09 27.09 68.64z"/>
		<path id="&lt;Path&gt;" class="s3" d="m554.78 230.02c0 0-10.23-43.16-24.01-62.31-13.79-19.15 1.48-0.32 1.48-0.32l18.38-4.71c0 0 7.53 52.45 5.35 67.65z"/>
		<path id="&lt;Path&gt;" class="s3" d="m574.68 134.49c-1.13 19.63-15.71 39.21-27.67 43.7-1.9 0.7-3.72 1.06-5.41 0.95-12.46-0.69-36.39-28.65-79.52-20.56-40.82 7.67-33.04 40.6-85.34 44.1-2.97 0.19-6.1 0.31-9.47 0.3-16.46-0.02-22.51-50.16-3.68-59.22 18.79-9.07 31.29-0.52 47.83-17.51 16.54-17.01 7.86-39.25 28.43-45.35 20.58-6.07 62.19-13.3 61.55 9.82-0.66 23.16 16.38 34.63 31.61 24.64 15.27-9.99 42.98-3.57 41.67 19.13z"/>
		<path id="&lt;Path&gt;" class="s3" d="m542.6 321.19c-11.96 12.42-54.89 28.62-84.49 11.56 0 0 37.89 38.15 83.89 13.41l-1.83-15.98z"/>
		<path id="&lt;Path&gt;" class="s2" d="m485.62 229.82c1.17 5.46 9.52 21.16 11.2 24.01 1.68 2.86-6.56 11.05-6.56 11.05"/>
		<path id="&lt;Path&gt;" class="s3" d="m490.26 267.04c-0.55 0-1.11-0.21-1.53-0.64-0.85-0.85-0.84-2.22 0.01-3.06 3.32-3.3 6.25-7.4 6.15-8.6-1.37-2.25-10.12-18.53-11.39-24.47-0.25-1.17 0.5-2.32 1.67-2.57 1.16-0.25 2.32 0.5 2.57 1.67 1.07 5 9.16 20.34 10.95 23.37 2.2 3.74-3.38 10.17-6.9 13.67-0.42 0.42-0.98 0.63-1.53 0.63z"/>
		<path id="&lt;Path&gt;" class="s3" d="m404.91 292.93c-0.73 0-1.45-0.38-1.86-1.05-3.35-5.57-7.58-8.97-12.57-10.09-8.63-1.95-16.91 3.44-17 3.5-0.99 0.66-2.34 0.39-3-0.61-0.66-0.99-0.39-2.33 0.6-3 0.4-0.26 9.86-6.47 20.31-4.13 6.21 1.39 11.38 5.46 15.37 12.1 0.62 1.02 0.29 2.35-0.73 2.97q-0.54 0.31-1.12 0.31z"/>
		<path id="&lt;Path&gt;" class="s3" d="m385.24 294.94q-0.24 0-0.49-0.05c-1.17-0.28-1.89-1.44-1.62-2.6l2.85-12.31c0.27-1.16 1.44-1.88 2.6-1.62 1.16 0.27 1.89 1.43 1.62 2.6l-2.85 12.3c-0.24 1-1.13 1.68-2.11 1.68z"/>
		<path id="&lt;Path&gt;" class="s3" d="m558.75 258.56q-0.38 0-0.76-0.13c-1.12-0.42-1.69-1.67-1.27-2.79 2.85-7.59 6.97-12.61 12.26-14.92 6.29-2.73 11.83-0.51 12.06-0.42 1.11 0.46 1.64 1.72 1.18 2.83-0.45 1.1-1.71 1.63-2.81 1.18-0.2-0.08-4.21-1.61-8.77 0.41-4.14 1.84-7.46 6.02-9.87 12.44-0.32 0.87-1.15 1.4-2.02 1.4z"/>
		<path id="&lt;Path&gt;" class="s3" d="m573.75 258.64c-0.57 0-1.13-0.22-1.56-0.66l-8.46-8.79c-0.83-0.86-0.8-2.23 0.06-3.06 0.86-0.83 2.23-0.8 3.06 0.06l8.46 8.79c0.83 0.86 0.8 2.23-0.06 3.06-0.42 0.4-0.96 0.6-1.5 0.6z"/>
		<path id="&lt;Path&gt;" class="s2" d="m485.03 112.96c11.72 0.38 16.49 14.78 27.13 17.05 6.02 1.29 12.01-1.75 18.03-3.09 6.3-1.41 14.73 0.36 15.64 7.07 0.43 3.17-1.2 6.28-3.79 8.15-4.44 3.23-10.05 2.88-15.13 1.64-4.22-1.03-8.3-2.63-12.61-3.21-7.76-1.06-15.73 1.24-23.55 2.93-13.09 2.81-24.41-10.73-18.44-22.72q0.93-1.91 2.47-3.56c2.63-2.79 6.41-4.38 10.25-4.26z"/>
		<path id="&lt;Compound Path&gt;" class="s3" d="m533.54 145.75c-2.09 0-4.34-0.3-6.88-0.92-1.55-0.37-3.08-0.82-4.6-1.28-2.58-0.76-5.24-1.55-7.9-1.91q-1.89-0.26-3.95-0.26c-5.16 0-10.51 1.21-15.68 2.38q-1.78 0.41-3.56 0.79c-7.26 1.55-14.89-1.79-18.81-8.12-3.12-5.03-3.42-10.91-0.82-16.13q1.06-2.13 2.65-3.82c2.75-2.93 6.63-4.61 10.63-4.61l0.44 0.01c6.74 0.22 11.25 4.7 15.61 9.03 3.66 3.63 7.11 7.06 11.71 8.04q1.35 0.29 2.83 0.29c3.14 0 6.28-0.95 9.6-1.96 1.67-0.5 3.41-1.03 5.14-1.42q2.13-0.47 4.39-0.48c5.26 0 11.72 2.22 12.56 8.47 0.47 3.43-1.15 6.94-4.22 9.17-2.5 1.81-5.58 2.73-9.14 2.73zm-23.33-6.53q2.21 0 4.24 0.27c2.83 0.39 5.57 1.2 8.22 1.99 1.5 0.44 2.99 0.88 4.5 1.25 6.28 1.53 10.78 1.05 14.24-1.46 2.38-1.74 3.7-4.53 3.35-7.13-0.66-4.86-5.82-6.59-10.42-6.59q-2.02 0-3.92 0.42c-1.65 0.37-3.34 0.89-4.99 1.39-3.32 1-6.76 2.04-10.22 2.04q-1.71 0-3.28-0.33c-5.22-1.12-9.07-4.93-12.78-8.62-4.26-4.23-8.27-8.22-14.16-8.4l-0.37-0.01c-3.41 0-6.71 1.43-9.05 3.92-0.92 0.98-1.67 2.06-2.29 3.3-2.26 4.54-2 9.65 0.72 14.03 3.45 5.57 10.14 8.52 16.52 7.15q1.76-0.38 3.53-0.79c5.29-1.19 10.76-2.43 16.16-2.43z"/>
		<path id="&lt;Path&gt;" class="s3" d="m357.17 164.6c-0.63 0-1.24-0.27-1.67-0.79-6.02-7.26-6.1-18.71-0.18-26.05 6.36-7.89 16.71-9.71 27.64-11 9.1-1.08 19.24-2.82 24.46-9.84 3.04-4.1 3.92-9.86 2.22-14.67-1.69-4.82-5.98-8.76-10.92-10.05-1.15-0.31-1.84-1.49-1.54-2.64 0.3-1.16 1.48-1.84 2.64-1.55 6.39 1.67 11.72 6.57 13.91 12.8 2.19 6.23 1.1 13.39-2.84 18.69-6.24 8.4-17.42 10.37-27.42 11.56-10.01 1.18-19.44 2.79-24.78 9.41-4.6 5.71-4.53 14.94 0.14 20.58 0.77 0.92 0.64 2.29-0.28 3.05-0.41 0.34-0.9 0.5-1.38 0.5z"/>
		<path id="&lt;Path&gt;" class="s3" d="m505.82 329.11c-0.55 0-1.1-0.21-1.53-0.63-0.84-0.84-0.84-2.21 0-3.06 1.25-1.25 1.96-3.04 1.9-4.8-0.06-1.77-0.89-3.51-2.22-4.67-0.9-0.78-0.99-2.15-0.21-3.05 0.79-0.9 2.16-0.99 3.06-0.21 2.21 1.93 3.59 4.84 3.7 7.78 0.09 2.94-1.09 5.93-3.17 8.01-0.42 0.42-0.97 0.63-1.53 0.63z"/>
		<path id="&lt;Path&gt;" class="s2" d="m478.91 300.11c-2.08-1.43-3.95-3.2-5.31-5.32-2.52-3.93-2.81-9.79 0.76-12.82 3.4-2.88 8.45-2.03 12.88-1.52 4.46 0.52 9.14 0.48 13.25-1.33 3.9-1.72 7.52-5.05 11.74-4.49 3.73 0.49 6.48 4.14 6.85 7.88 0.37 3.74-1.21 7.43-3.38 10.5-4 5.65-10.18 9.75-16.97 11.11-6.79 1.35-14.12-0.08-19.82-4.01z"/>
		<path id="&lt;Compound Path&gt;" class="s3" d="m493.65 306.78c-5.72 0-11.39-1.74-15.97-4.89-2.5-1.73-4.49-3.72-5.9-5.93-2.99-4.66-3.37-11.79 1.18-15.64 2.03-1.72 4.7-2.56 8.16-2.56 1.84 0 3.67 0.22 5.43 0.43l0.93 0.11c5.22 0.6 8.99 0.23 12.14-1.16 1.04-0.46 2.09-1.06 3.2-1.7 2.93-1.69 6.03-3.44 9.7-2.96 4.47 0.59 8.22 4.81 8.71 9.81 0.38 3.82-0.92 7.95-3.76 11.97-4.36 6.16-11.04 10.53-18.31 11.98q-2.71 0.54-5.51 0.54zm-12.53-24.69c-2.43 0-4.13 0.49-5.36 1.53-2.7 2.29-2.28 6.98-0.34 10.01q1.67 2.59 4.72 4.69c5.11 3.53 11.97 4.91 18.17 3.68 6.2-1.24 11.9-4.97 15.62-10.24 1.56-2.2 3.34-5.55 3-9.04-0.26-2.64-2.2-5.58-4.98-5.95-2.28-0.3-4.53 1.01-6.98 2.42-1.15 0.67-2.35 1.36-3.61 1.91-3.88 1.71-8.34 2.2-14.37 1.5l-0.95-0.11c-1.64-0.2-3.34-0.4-4.92-0.4z"/>
		<path id="&lt;Path&gt;" class="s3" d="m516.81 237.45c-3.03 0-5.48-4.13-5.48-9.25 0-5.12 2.45-9.26 5.48-9.26 3.04 0 5.49 4.14 5.49 9.26 0 5.12-2.45 9.25-5.49 9.25z"/>
		<path id="&lt;Path&gt;" class="s3" d="m449.58 254.26c-3.04 0-5.49-4.13-5.49-9.25 0-5.12 2.45-9.26 5.49-9.26 3.03 0 5.48 4.14 5.48 9.26 0 5.12-2.45 9.25-5.48 9.25z"/>
		<path id="&lt;Path&gt;" class="s3" d="m761.96 367.11c-0.5 0-1.01-0.17-1.42-0.53-19.99-17.45-63.08-33.99-63.52-34.16-1.11-0.42-1.67-1.67-1.25-2.79 0.43-1.12 1.68-1.68 2.8-1.25 1.79 0.68 44.24 16.98 64.82 34.94 0.9 0.79 0.99 2.15 0.21 3.05-0.43 0.49-1.03 0.74-1.64 0.74z"/>
		<path id="&lt;Path&gt;" class="s7" d="m642.14 521.39h-161.25c-2.5 0-3.99 2.78-2.6 4.86l79.91 119.32c0.34 0.51 0.52 1.12 0.52 1.74v130.94h5.58v-130.94c0-0.62 0.19-1.23 0.53-1.74l79.91-119.32c1.39-2.08-0.1-4.86-2.6-4.86z"/>
		<path id="&lt;Compound Path&gt;" class="s1" d="m564.3 780.42h-5.58c-1.19 0-2.16-0.97-2.16-2.17v-130.94q0-0.29-0.16-0.54l-79.91-119.32c-1.08-1.62-1.19-3.71-0.27-5.43 0.92-1.73 2.71-2.8 4.67-2.8h161.25c1.96 0 3.74 1.07 4.67 2.8 0.92 1.72 0.81 3.8-0.27 5.43l-79.91 119.33q-0.16 0.24-0.16 0.53v130.94c0 1.2-0.97 2.17-2.17 2.17zm-3.41-4.33h1.25v-128.78c0-1.05 0.31-2.07 0.89-2.94l79.91-119.33c0.28-0.41 0.15-0.79 0.05-0.98-0.1-0.19-0.35-0.51-0.85-0.51h-161.25c-0.5 0-0.75 0.32-0.85 0.51-0.1 0.18-0.23 0.57 0.05 0.98l79.91 119.33c0.58 0.87 0.89 1.89 0.89 2.94z"/>
		<path id="&lt;Path&gt;" class="s7" d="m615.36 778.23c0-6.2-24.11-11.22-53.85-11.22-29.73 0-53.84 5.02-53.84 11.22z"/>
		<path id="&lt;Compound Path&gt;" class="s1" d="m615.36 780.4h-107.69c-1.2 0-2.17-0.97-2.17-2.17 0-10.59 36.64-13.39 56.01-13.39 19.38 0 56.01 2.8 56.01 13.39 0 1.2-0.96 2.17-2.16 2.17zm-103.29-4.33h98.88c-5.81-3.1-22.8-6.9-49.44-6.9-26.63 0-43.62 3.8-49.44 6.9z"/>
		<path id="&lt;Path&gt;" class="s2" d="m614.12 555.5l-52.53 75.05-51.35-73.47z"/>
		<path id="&lt;Path&gt;" class="s1" d="m560.41 598.58c0 0 3.53-8.13 9.24-20.06 5.72-11.95 14.04-27.48 22.43-42.96 8.76-15.29 17.58-30.54 24.74-41.68 7.14-11.14 12.21-18.41 12.21-18.41 0 0-3.51 8.13-9.24 20.07-5.7 11.94-14.03 27.47-22.43 42.96-8.76 15.28-17.59 30.53-24.74 41.67-7.15 11.14-12.21 18.41-12.21 18.41z"/>
		<path id="&lt;Path&gt;" class="s8" d="m623.87 511.56c3.65-8.78 2.72-18.75-4.13-21.6-6.85-2.85-17.02 2.5-20.67 11.27-3.66 8.79-1.06 18.21 5.79 21.06 6.85 2.85 15.36-1.96 19.01-10.73z"/>
		<path id="&lt;Compound Path&gt;" class="s1" d="m609.01 525.28q0 0 0 0-2.61-0.01-4.99-0.99c-7.94-3.31-11.06-14.02-6.95-23.89 3.17-7.62 11.18-13.38 18.62-13.38q2.63 0.01 4.88 0.94c3.92 1.63 6.51 5.26 7.31 10.23 0.7 4.36-0.01 9.4-2.01 14.2-3.21 7.71-9.98 12.89-16.86 12.89zm6.68-33.93c-5.7 0-12.13 4.71-14.62 10.71-3.19 7.67-1.12 15.85 4.62 18.23q1.57 0.66 3.32 0.66c5.07 0 10.36-4.21 12.86-10.23 1.67-4 2.3-8.32 1.74-11.84-0.39-2.43-1.52-5.6-4.7-6.92q-1.45-0.61-3.22-0.61z"/>
		<path id="&lt;Path&gt;" class="s1" d="m610.72 491.94c-0.56 1.35 1.87 3.65 5.44 5.14 3.57 1.48 6.92 1.59 7.49 0.24 0.56-1.35-1.88-3.65-5.45-5.13-3.57-1.49-6.92-1.6-7.48-0.25z"/>
		<path id="&lt;Path&gt;" class="s2" d="m167.43 618.71c0 0-90.29 168.78-41.37 239.58 74.12 107.29 299.49-37.95 299.49-37.95 0 0 61.94 14.69 81.64-12.17 0 0 4.24 16.7 22.03 14.5 17.8-2.2 55.29-42.25 48.87-65.77 0 0 10.34-18.71-3.08-35.02 0 0 11.21-12.47 1.06-28.17 0 0 46.73 11.73 48.02-17.91 0 0 5.39-4.36-41.17-26.59-46.56-22.24-68.53-22.21-86.42-18.88-17.88 3.34-79.62 37.74-94.38 44.76-14.76 7.03-98.28 30.37-98.28 30.37l11.22-35.11c-29.97-21.62-54.53-34.32-147.63-51.64z"/>
		<path id="&lt;Compound Path&gt;" class="s1" d="m211.66 899.96c-39.45 0-68.84-13.6-87.38-40.44-49.1-71.06 37.52-234.89 41.24-241.83 0.44-0.83 1.37-1.26 2.3-1.11 92.8 17.27 117.55 29.68 148.51 52.01 0.76 0.55 1.08 1.52 0.8 2.42l-10.01 31.28c16.61-4.68 81.46-23.15 94.07-29.15 3.73-1.77 10.41-5.27 18.87-9.7 24.85-13.02 62.4-32.69 76.05-35.23 6.02-1.13 11.36-1.65 16.82-1.65 18.83 0 41.36 6.58 70.92 20.69 41.67 19.9 42.35 25.68 42.57 27.59 0.08 0.65-0.03 1.17-0.2 1.58-0.86 14.03-11.75 21.75-30.74 21.75-6 0-11.57-0.75-15.29-1.4 5.28 11.82 0.01 21.51-2.45 25.08 11.11 14.95 4.42 31.51 2.64 35.3 2.11 9.14-1.48 21.23-10.15 34.16-11.67 17.41-29.57 32.13-40.74 33.51q-1.75 0.21-3.41 0.22c-11.61 0-17.21-7.87-19.56-12.69-8.81 9.4-23.96 14.16-45.11 14.16-16.74 0-31.68-3.03-35.46-3.86-10.51 6.62-124.95 77.31-214.29 77.31zm-43.06-278.83c-8.46 16.35-86.04 170.4-40.76 235.93 17.68 25.6 45.88 38.57 83.82 38.57 92 0 211.52-76.34 212.72-77.11 0.49-0.32 1.1-0.43 1.67-0.28 0.17 0.03 16.89 3.95 35.36 3.95 14.97 0 34.76-2.66 44.04-15.3 0.49-0.68 1.34-1 2.16-0.85 0.82 0.16 1.47 0.78 1.68 1.59 0.14 0.53 3.55 13.08 16.79 13.08q1.39-0.01 2.88-0.19c9.9-1.22 26.81-15.41 37.68-31.62 8.22-12.26 11.54-23.42 9.36-31.43-0.15-0.54-0.08-1.12 0.19-1.61 0.39-0.71 9.44-17.66-2.85-32.61-0.68-0.82-0.65-2.02 0.06-2.82 0.41-0.45 9.94-11.48 0.85-25.54-0.48-0.75-0.46-1.71 0.06-2.44 0.51-0.72 1.42-1.05 2.28-0.84 0.09 0.02 9.01 2.23 18.89 2.23 17.03 0 25.93-6.1 26.45-18.13q0.01-0.29 0.1-0.57c-0.68-1.34-5.53-7.5-40.04-23.98-28.96-13.83-50.9-20.27-69.06-20.27-5.18 0-10.28 0.5-16.03 1.57-13.01 2.43-51.71 22.7-74.83 34.81-8.5 4.45-15.22 7.97-19.02 9.78-14.75 7.02-95.21 29.54-98.63 30.5-0.76 0.22-1.59-0.01-2.14-0.58-0.56-0.58-0.75-1.41-0.51-2.17l10.75-33.61c-29.67-21.25-54.55-33.34-143.92-50.06z"/>
		<path id="&lt;Path&gt;" class="s1" d="m575.25 695.62c0.85 0.36 1.88 0.12 2.46-0.65 0.7-0.91 0.52-2.21-0.39-2.91-16.35-12.44-34.35-20.86-56.63-26.48-1.11-0.28-2.23 0.4-2.51 1.51-0.28 1.1 0.39 2.24 1.5 2.51 21.72 5.48 39.24 13.66 55.13 25.76q0.21 0.16 0.44 0.26z"/>
		<path id="&lt;Path&gt;" class="s1" d="m526.05 704.11q0.26 0.11 0.56 0.15c18.04 2.31 47.06 19.24 47.35 19.41 0.99 0.58 2.26 0.24 2.84-0.74 0.58-0.99 0.25-2.26-0.74-2.84-1.22-0.71-30.05-17.53-48.93-19.94-1.13-0.15-2.17 0.65-2.32 1.79-0.12 0.94 0.41 1.81 1.24 2.17z"/>
		<path id="&lt;Path&gt;" class="s1" d="m577.27 758.81c0.76 0.32 1.66 0.18 2.28-0.44 0.81-0.8 0.81-2.11 0-2.93-9.24-9.29-35.03-17.21-36.13-17.54-1.09-0.33-2.25 0.29-2.58 1.38-0.33 1.1 0.28 2.24 1.38 2.59 0.26 0.08 25.89 7.94 34.4 16.5q0.29 0.29 0.65 0.44z"/>
		<path id="&lt;Path&gt;" class="s1" d="m506.38 810.07c0.77 0.33 1.71 0.17 2.32-0.48 13.55-14.37 23.76-39.42 24.19-40.48 0.42-1.04-0.07-2.24-1.11-2.68q-0.02-0.01-0.03-0.01c-1.07-0.43-2.28 0.08-2.71 1.14-0.1 0.25-10.35 25.39-23.35 39.18-0.79 0.84-0.75 2.15 0.08 2.93q0.28 0.26 0.61 0.4z"/>
		<path id="&lt;Path&gt;" class="s1" d="m526.12 779.69c0.53 0.23 1.17 0.23 1.73-0.05l8.59-4.27c1.02-0.51 1.44-1.75 0.93-2.78-0.51-1.02-1.75-1.44-2.78-0.93l-8.58 4.27c-1.03 0.51-1.45 1.75-0.94 2.78 0.23 0.46 0.61 0.79 1.05 0.98z"/>
		<path id="&lt;Path&gt;" class="s1" d="m592.13 674.7q0.02 0.01 0.05 0.02l19.11 7.57c0.89 0.36 1.92 0.04 2.47-0.75l2.34-3.42c0.64-0.94 0.4-2.23-0.54-2.88-0.95-0.65-2.23-0.4-2.88 0.54l-1.41 2.05-16.24-6.44c0.3-8.11 4.04-12.32 4.21-12.5 0.76-0.85 0.71-2.16-0.13-2.93-0.84-0.77-2.14-0.72-2.91 0.11-0.23 0.24-5.46 5.99-5.33 16.75 0.01 0.82 0.5 1.55 1.26 1.88z"/>
		<path id="&lt;Path&gt;" class="s1" d="m455.71 664.36q0.42 0.18 0.91 0.17l24.28-1.1c1.14-0.05 2.03-1.02 1.98-2.16-0.06-1.15-1.03-2.03-2.17-1.98l-24.28 1.1c-1.14 0.05-2.03 1.02-1.98 2.16 0.04 0.82 0.55 1.51 1.26 1.81z"/>
		<path id="&lt;Path&gt;" class="s1" d="m460.72 671.21c0.84 0.36 1.85 0.13 2.44-0.62l12.72-16.03c0.72-0.9 0.57-2.2-0.33-2.91-0.9-0.71-2.2-0.56-2.91 0.33l-12.73 16.03c-0.71 0.9-0.56 2.2 0.34 2.91q0.22 0.18 0.47 0.29z"/>
		<path id="&lt;Path&gt;" class="s1" d="m462.22 700.07q0.42 0.18 0.9 0.16l24.28-1.09c1.15-0.05 2.03-1.02 1.98-2.17-0.05-1.14-1.02-2.02-2.16-1.97l-24.28 1.09c-1.15 0.05-2.03 1.02-1.98 2.17 0.04 0.82 0.55 1.51 1.26 1.81z"/>
		<path id="&lt;Path&gt;" class="s1" d="m467.23 706.92c0.84 0.35 1.84 0.12 2.44-0.62l12.72-16.03c0.71-0.9 0.56-2.2-0.33-2.91-0.9-0.71-2.2-0.56-2.91 0.33l-12.73 16.03c-0.71 0.9-0.56 2.2 0.33 2.91q0.23 0.18 0.48 0.29z"/>
		<path id="&lt;Path&gt;" class="s1" d="m468.12 731.69q0.42 0.19 0.9 0.17l24.28-1.1c1.15-0.05 2.03-1.02 1.98-2.16-0.05-1.14-1.02-2.03-2.16-1.98l-24.29 1.1c-1.14 0.05-2.02 1.02-1.97 2.16 0.04 0.82 0.55 1.51 1.26 1.81z"/>
		<path id="&lt;Path&gt;" class="s1" d="m473.13 738.54c0.84 0.36 1.84 0.13 2.44-0.62l12.72-16.02c0.71-0.9 0.56-2.2-0.33-2.92-0.9-0.71-2.2-0.56-2.92 0.34l-12.72 16.03c-0.71 0.89-0.56 2.2 0.33 2.91q0.23 0.17 0.48 0.28z"/>
		<path id="&lt;Path&gt;" class="s1" d="m421.47 821.5c1.94 0.83 3.86 1.44 5.53 1.61 1.14 0.11 2.15-0.71 2.27-1.85 0.11-1.14-0.72-2.16-1.85-2.27-4.48-0.45-12.69-5.81-15.48-7.83-0.92-0.68-2.22-0.47-2.89 0.46-0.67 0.92-0.47 2.22 0.46 2.89 0.82 0.6 6.48 4.65 11.96 6.99z"/>
		<path id="&lt;Path&gt;" class="s1" d="m189.48 740.78c0.43 0.18 0.91 0.22 1.39 0.08l114.14-33.18c1.1-0.32 1.73-1.47 1.41-2.57-0.32-1.1-1.47-1.73-2.57-1.41l-114.14 33.18c-1.09 0.32-1.72 1.47-1.41 2.57 0.18 0.62 0.63 1.09 1.18 1.33z"/>
		<path id="&lt;Path&gt;" class="s1" d="m177.01 863.56c-3.76 0-7.5-0.99-9.99-1.82-4.32-1.44-8.83-3.18-12.63-6.09-3.93-3.01-7.84-8.46-7.17-13.31 0.29-2.1 1.55-4.97 5.91-6.7 7.35-2.92 13.91 3.86 16.06 6.09 0.83 0.86 0.81 2.23-0.05 3.06-0.86 0.83-2.23 0.81-3.06-0.05-4.51-4.66-8.22-6.33-11.35-5.08-2.93 1.16-3.15 2.75-3.22 3.28-0.4 2.85 2.49 6.96 5.51 9.27 3.3 2.53 7.41 4.1 11.37 5.42 6 2.01 11.27 2.11 14.07 0.27 1.69-1.11 2.63-2.96 2.86-5.64 1.18-13.46-14.31-22.4-23.64-25.56-1.13-0.38-1.74-1.61-1.36-2.74 0.38-1.14 1.61-1.74 2.75-1.36 14.11 4.77 27.8 15.91 26.56 30.03-0.35 4.04-1.96 7.03-4.8 8.89-2.29 1.5-5.06 2.03-7.82 2.04z"/>
		<path id="&lt;Path&gt;" class="s2" d="m353.86 345.8l-34.36-46.48c4.31-10.24 6.7-21.37 6.7-33.04 0-49.86-43.17-90.28-96.43-90.28-53.25 0-96.42 40.42-96.42 90.28 0 49.86 43.17 90.28 96.42 90.28 21.97 0 42.22-6.9 58.43-18.48z"/>
		<path id="&lt;Compound Path&gt;" class="s3" d="m229.77 358.72c-54.36 0-98.59-41.47-98.59-92.44 0-50.98 44.23-92.44 98.59-92.44 54.36 0 98.59 41.46 98.59 92.44 0 11.24-2.15 22.25-6.39 32.74l33.63 45.49c0.51 0.7 0.56 1.63 0.13 2.38-0.44 0.74-1.29 1.16-2.13 1.06l-64.82-7.63c-17.15 12.04-37.53 18.4-59.01 18.4zm0-180.55c-51.97 0-94.26 39.52-94.26 88.11 0 48.59 42.29 88.11 94.26 88.11 20.85 0 40.63-6.25 57.18-18.07 0.43-0.32 0.97-0.46 1.51-0.39l60.68 7.14-31.38-42.46c-0.45-0.62-0.55-1.42-0.25-2.13 4.33-10.3 6.52-21.13 6.52-32.2 0-48.59-42.28-88.11-94.26-88.11z"/>
		<path id="&lt;Path&gt;" class="s9" d="m229.54 326.93c-35.44 0-64.09-28.65-64.09-64.09 0-35.44 28.65-64.09 64.09-64.09 35.44 0 64.09 28.65 64.09 64.09 0 35.44-28.65 64.09-64.09 64.09z"/>
		<path id="&lt;Path&gt;" class="s3" d="m249.87 267c-3.06 0-5.54-8.16-5.54-18.26 0-10.09 2.48-18.25 5.54-18.25 3.07 0 5.55 8.16 5.55 18.25 0 10.1-2.48 18.26-5.55 18.26z"/>
		<path id="&lt;Path&gt;" class="s3" d="m207.35 267c-3.06 0-5.54-8.16-5.54-18.26 0-10.09 2.48-18.25 5.54-18.25 3.07 0 5.55 8.16 5.55 18.25 0 10.1-2.48 18.26-5.55 18.26z"/>
		<path id="&lt;Path&gt;" class="s2" d="m188.25 274.55c0 0 38.51 19.1 83.19 0 0 0-10.47 34.82-43.13 34.82-32.66 0-40.06-34.82-40.06-34.82z"/>
		<path id="&lt;Compound Path&gt;" class="s3" d="m228.31 311.53c-34.02 0-42.1-36.17-42.18-36.53-0.17-0.81 0.14-1.65 0.79-2.16 0.66-0.51 1.55-0.6 2.29-0.23 0.17 0.08 17.01 8.26 40.81 8.26 14.01 0 27.67-2.79 40.57-8.31 0.77-0.33 1.67-0.18 2.29 0.38 0.63 0.56 0.88 1.43 0.63 2.23-0.1 0.37-11.33 36.36-45.2 36.36zm-36.72-33.21c3.05 8.95 12.56 28.88 36.72 28.88 23.74 0 35.26-19.7 39.3-28.79-12.05 4.51-24.67 6.79-37.59 6.79-17.89 0-31.78-4.32-38.43-6.88z"/>
	</g>
</svg>