<svg version="1.2" xmlns="http://www.w3.org/2000/svg" viewBox="0 0 1080 1080" width="1080" height="1080">
	<style>
		.s0 { fill: #ccd7f2 } 
		.s1 { fill: #333333 } 
		.s2 { fill: #fc5e71 } 
		.s3 { fill: #ffffff } 
		.s4 { fill: #f2cf63 } 
		.s5 { fill: #f29199 } 
		.s6 { fill: #4a253f } 
	</style>
	<path id="&lt;Path&gt;" class="s0" d="m294.25 1520.3c9.78 9.39 15.68 21.98 22.06 33.95 12.1 22.69 29.31 45.98 54.59 50.69 8.8 1.64 17.89 0.83 26.66-0.94 43.44-8.73 80.97-42.3 94.48-84.49 7.09-22.15 7.87-45.78 7.79-69.03-0.1-27.11-1.3-54.21-2.5-81.3q-0.62-14.18-1.25-28.35c-0.18-4.17-0.39-8.44-2.11-12.24-1.8-3.95-5.08-7.03-8.54-9.67-12.86-9.79-29.3-14.77-45.44-13.75-13.61 0.87-29.64 5.04-39.14-4.76-8.49-8.76-6.61-24.67-16.17-32.26-3.11-2.47-7.03-3.66-10.89-4.61-30.45-7.55-62.94-3.8-92.6 6.42-26.57 9.15-52.7 24.84-65.16 50.03-3.17 6.41-5.4 13.5-4.82 20.63 0.41 5.19 2.28 10.13 3.97 15.05 3.71 10.81 6.65 22.39 4.31 33.57-2.32 11.09-9.57 20.53-12.91 31.35-4.25 13.77-1.75 29.13 5.23 41.73 6.99 12.6 18.15 22.56 30.7 29.64 17.2 9.72 37.49 14.65 51.74 28.34z"/>
	<path id="&lt;Path&gt;" class="s1" d="m425.73 1280.68l7.1-2.25-7.1-2.42c-2.12-0.56-3.75-2.27-4.2-4.42l-2.26-10.67-2.42 10.44c-0.51 2.2-2.25 3.9-4.45 4.37l-6.69 2.3 6.45 2.28c2.26 0.52 3.99 2.34 4.41 4.62l1.86 10.32 2.72-10.33c0.57-2.18 2.36-3.83 4.58-4.24z"/>
	<path id="&lt;Path&gt;" class="s1" d="m213.54 1305.3l7.1-2.26-7.1-2.42c-2.12-0.56-3.75-2.27-4.2-4.42l-2.26-10.66-2.42 10.43c-0.51 2.2-2.25 3.91-4.46 4.37l-6.68 2.3 6.45 2.28c2.26 0.52 3.99 2.34 4.41 4.63l1.86 10.31 2.72-10.32c0.57-2.19 2.36-3.84 4.58-4.24z"/>
	<path id="&lt;Path&gt;" class="s1" d="m194.62 1432.67l4.25-1.35-4.25-1.45c-1.27-0.34-2.24-1.36-2.51-2.64l-1.35-6.39-1.45 6.25c-0.31 1.31-1.35 2.33-2.67 2.61l-4 1.38 3.86 1.36c1.35 0.31 2.39 1.4 2.64 2.77l1.11 6.17 1.63-6.18c0.34-1.3 1.41-2.29 2.74-2.53z"/>
	<path id="&lt;Path&gt;" class="s2" d="m535.74 1372.85c-0.93-8.34 4.63-15.51 1.85-19.34-2.78-3.83-10.01-5.83-21.22-5.52-11.22 0.3-42.57 5.86-42.88 14.2-0.32 8.34 3.57 7.14 4.32 10.66 0.74 3.52 1.39 12.13 1.39 12.13z"/>
	<path id="&lt;Compound Path&gt;" class="s1" d="m479.2 1385.83q-0.28 0-0.51-0.17c-0.2-0.15-0.32-0.37-0.34-0.62-0.01-0.08-0.65-8.59-1.37-12.01-0.22-1.02-0.74-1.52-1.46-2.21-1.38-1.32-3.1-2.96-2.88-8.66 0.36-9.54 33.64-14.75 43.7-15.02 11.36-0.31 18.94 1.74 21.94 5.87 1.69 2.33 0.81 5.48-0.22 9.12-0.89 3.18-1.9 6.79-1.48 10.63 0.05 0.43-0.24 0.83-0.66 0.92l-56.55 12.13q-0.08 0.02-0.17 0.02zm39.33-37.03q-1.04 0-2.14 0.03c-12.41 0.34-41.79 6.3-42.06 13.39-0.18 4.94 1.11 6.18 2.36 7.37 0.8 0.76 1.62 1.55 1.95 3.08 0.61 2.87 1.13 8.91 1.33 11.28l54.86-11.77c-0.27-3.86 0.72-7.38 1.6-10.51 0.94-3.35 1.68-6 0.48-7.66-2.47-3.41-8.83-5.21-18.38-5.21z"/>
	<path id="&lt;Path&gt;" class="s1" d="m516.37 1361.85c12.42-3.13 16.2-4.53 16.04-7.07-0.15-2.55-8.74-1.15-13.95-1.27-5.2-0.12-38.31 1.17-40.89 8.34-2.57 7.17 25.26 1.91 25.26 1.91z"/>
	<path id="&lt;Path&gt;" class="s3" d="m540.61 1278.06c-3.16-0.67-6.29 1.22-6.99 4.22-0.38 1.66-1.01 3.89-1.75 6.37 0.7-5.64 1.22-11.14 1.16-14.81-0.05-3.07-2.71-5.53-5.95-5.49-3.23 0.05-5.82 2.56-5.78 5.64 0.05 3.08-0.39 7.84-1.01 12.85 0.23-7.99 0.18-15.57-0.55-19.18-0.61-3.02-3.69-5-6.87-4.43-3.16 0.57-5.26 3.49-4.65 6.52 0.61 2.97 0.56 10.95 0.24 19.82q-0.33-3.01-1.28-5.46-1.36-3.52-3.99-5.9c-1.87-1.69-3.53-3.07-6.07-3.6-2.1-0.44-4.27-0.31-6.37 0.1-3.63 0.72-7.37 2.57-8.85 5.96-1.06 2.41-0.55 5.67 2.14 6.72 1.11 0.43 2.35 0.43 3.53 0.26 0.64-0.09 5.6-1.58 5.93-0.91 0.86 1.74 1.88 6.08 0.92 12.65-0.83 4.26-1.43 6.3-3.19 10.14-0.01 0.01-3.82 5.43-4.94 3.7-1.12-1.74-1.19-9.37-1.53-13.84-0.33-4.47-5.68-8.17-9.21-2.17-3.53 6.01-2.41 15.75-0.24 28.2 2.16 12.46 5.94 14.4 10.32 18.77-0.01 0.28 1.81 15.74 1.61 19.57 16.08 0 29.53 0 38.98-5.91v-12.25c6.57-7.66 11.14-27.61 10.74-34.85 2.2-6.45 6.64-19.7 8.11-26.05 0.7-3-1.3-5.98-4.46-6.64z"/>
	<path id="&lt;Compound Path&gt;" class="s1" d="m487.24 1364.6q-0.36 0-0.62-0.26-0.24-0.27-0.23-0.63c0.16-2.99-0.99-13.64-1.42-17.64-0.08-0.79-0.13-1.24-0.16-1.5q-0.76-0.74-1.49-1.42c-3.72-3.49-6.93-6.51-8.85-17.58-2.07-11.9-3.47-22.28 0.35-28.77 1.72-2.94 3.72-3.56 5.09-3.56 2.84 0 5.45 2.79 5.7 6.08 0.08 1.09 0.15 2.36 0.22 3.69 0.18 3.59 0.44 8.47 1.14 9.7 0.62-0.15 2.24-1.8 3.52-3.61 1.75-3.82 2.31-5.83 3.1-9.87 0.82-5.62 0.15-9.8-0.72-11.81-0.91 0.01-2.96 0.53-4.06 0.81-0.63 0.16-0.93 0.23-1.12 0.26q-2.3 0.34-3.96-0.31c-1.27-0.49-2.22-1.43-2.75-2.71-0.64-1.55-0.59-3.48 0.14-5.14 1.4-3.19 4.85-5.54 9.47-6.45q3.7-0.73 6.7-0.1c2.71 0.56 4.46 1.99 6.47 3.8q2.6 2.35 4.03 5.77c0.14-6.84 0.01-11.43-0.4-13.43-0.33-1.64 0.01-3.31 0.96-4.71 1.01-1.49 2.56-2.49 4.37-2.81q0.62-0.12 1.26-0.12c3.2 0 5.98 2.19 6.59 5.21q0.3 1.46 0.46 3.82c1.04-2.21 3.34-3.77 6.03-3.81 0.01 0 0.09 0 0.09 0 3.66 0 6.67 2.84 6.73 6.33q0.04 2.5-0.26 6.32c1.19-1.86 3.35-3.08 5.71-3.08q0.73 0 1.46 0.15c1.8 0.39 3.32 1.43 4.29 2.94 0.9 1.42 1.2 3.11 0.82 4.74-1.44 6.2-5.66 18.86-8.08 25.97 0.31 7.19-4.04 26.93-10.75 35.04v11.94c0 0.29-0.15 0.56-0.4 0.72-9.66 6.03-23.46 6.03-39.43 6.03zm-7.33-69.66c-1.33 0-2.59 0.94-3.63 2.71-3.51 5.99-2.07 16.49-0.14 27.63 1.83 10.51 4.7 13.21 8.35 16.64q0.85 0.79 1.74 1.67 0.26 0.26 0.25 0.63c0.01 0.07 0.08 0.7 0.18 1.66 0.44 4.07 1.41 13.16 1.44 17.03 15.13 0 28.21-0.11 37.27-5.54v-11.77q0.01-0.32 0.21-0.55c6.39-7.45 10.92-27.27 10.54-34.25q-0.01-0.17 0.04-0.32c2.4-7.05 6.65-19.79 8.08-25.97 0.28-1.18 0.07-2.4-0.6-3.44-0.71-1.12-1.85-1.9-3.21-2.18q-0.54-0.12-1.1-0.12c-2.33 0-4.38 1.56-4.88 3.71q-0.54 2.33-1.77 6.41c-0.12 0.43-0.55 0.68-0.99 0.59-0.43-0.09-0.72-0.5-0.66-0.94 0.81-6.55 1.2-11.49 1.15-14.68-0.04-2.57-2.29-4.66-5.03-4.66-2.82 0.04-5.04 2.18-5 4.78 0.05 2.77-0.3 7.13-1.02 12.97-0.06 0.44-0.46 0.77-0.91 0.74-0.45-0.04-0.79-0.42-0.78-0.87 0.27-9.53 0.09-15.91-0.53-18.99-0.45-2.23-2.53-3.85-4.93-3.85q-0.48 0-0.96 0.09c-1.36 0.24-2.52 0.99-3.27 2.09-0.69 1.02-0.93 2.23-0.69 3.42 0.68 3.39 0.51 12.76 0.25 20.02-0.02 0.45-0.38 0.81-0.82 0.82-0.47 0.04-0.83-0.31-0.88-0.75q-0.32-2.93-1.22-5.26c-0.86-2.21-2.13-4.09-3.77-5.57-1.87-1.69-3.38-2.92-5.68-3.4q-2.67-0.55-6.03 0.11c-1.92 0.38-6.57 1.67-8.24 5.46-0.54 1.23-0.58 2.69-0.12 3.81q0.54 1.28 1.8 1.78 1.24 0.48 3.1 0.21c0.13-0.02 0.48-0.11 0.94-0.23 1.35-0.34 3.4-0.86 4.52-0.86 0.25 0 1.03 0 1.35 0.64 1.09 2.21 1.93 6.82 1 13.15-0.83 4.26-1.41 6.34-3.26 10.37q-0.03 0.07-0.08 0.13c-0.51 0.74-3.15 4.41-5.03 4.41-0.54 0-1.01-0.26-1.31-0.73-0.91-1.4-1.16-5.1-1.45-10.59-0.06-1.31-0.13-2.57-0.21-3.65-0.18-2.4-2.06-4.51-4.01-4.51z"/>
	<path id="&lt;Path&gt;" class="s1" d="m512.3 1337.94q-0.04 0-0.07-0.01c-0.26-0.06-0.43-0.31-0.37-0.56 4.37-17.87-12.12-23.32-12.82-23.54-0.26-0.09-0.4-0.35-0.32-0.59 0.09-0.24 0.37-0.38 0.62-0.3 0.18 0.06 18.04 5.94 13.47 24.64-0.05 0.23-0.27 0.38-0.51 0.36z"/>
	<path id="&lt;Path&gt;" class="s1" d="m532.82 1307.16q-0.07 0-0.14-0.01c-0.23-0.05-22.79-4.83-31.09-5.81-0.27-0.03-0.46-0.27-0.42-0.52 0.03-0.25 0.27-0.43 0.54-0.4 8.35 0.99 30.95 5.77 31.18 5.82 0.26 0.06 0.43 0.3 0.37 0.55-0.05 0.21-0.23 0.35-0.44 0.37z"/>
	<path id="&lt;Path&gt;" class="s1" d="m526.74 1305.86q-0.11 0.03-0.22 0c-0.21-0.07-0.33-0.27-0.27-0.47l5.2-16.12c0.06-0.2 0.27-0.31 0.48-0.25 0.21 0.07 0.33 0.27 0.27 0.47l-5.2 16.12q-0.07 0.19-0.26 0.25z"/>
	<path id="&lt;Path&gt;" class="s1" d="m516.67 1303.22q-0.09 0.03-0.19 0.01c-0.22-0.04-0.35-0.24-0.31-0.44l3.41-15.79c0.04-0.21 0.25-0.33 0.47-0.29 0.21 0.04 0.34 0.24 0.3 0.44l-3.41 15.79q-0.06 0.22-0.27 0.28z"/>
	<path id="&lt;Path&gt;" class="s1" d="m506.83 1301.65q-0.08 0.02-0.17 0.01c-0.21-0.03-0.36-0.22-0.32-0.43l1.76-10.64c0.03-0.21 0.23-0.34 0.44-0.31 0.21 0.03 0.36 0.22 0.32 0.42l-1.75 10.65c-0.03 0.15-0.14 0.26-0.28 0.3z"/>
	<path id="&lt;Path&gt;" class="s3" d="m321.71 1393.35c-10.75-0.57-15.85 4.46-17.24 7.74-1.39 3.28-6.02 5.59-6.02 5.59 0 0-32.45 2.86-47.74 16.96-15.3 14.1-46.35 89.94-57.01 132.58-10.66 42.64-10.66 51.28-10.66 51.28h101.5l45.68-26.72z"/>
	<path id="&lt;Compound Path&gt;" class="s1" d="m284.54 1607.5h-101.5c-0.46 0-0.85-0.25-0.85-0.72 0-0.34 0.13-8.87 10.69-51.12 10.86-43.44 41.73-118.37 57.25-132.68 14.93-13.75 45.24-16.88 48.07-17.14 0.75-0.4 4.37-2.44 5.49-5.09 1.62-3.83 6.88-8.3 16.35-8.3q0.83 0.01 1.71 0.05c0.44 0.03 0.78 0.38 0.8 0.81l8.52 187.14c0.01 0.32-0.15 0.62-0.42 0.77l-45.68 26.3c-0.13 0.07-0.28-0.02-0.43-0.02zm-100.59-1h100.36l45.04-26.27-8.46-185.95c-9.2-0.27-14.17 3.74-15.64 7.19-1.49 3.53-6.22 5.9-6.42 6q-0.15 0.06-0.31 0.07c-0.32 0.03-32.33 2.99-47.24 16.73-14.92 13.76-46.08 89.38-56.75 132.08-8.75 35-10.3 46.15-10.58 50.15z"/>
	<path id="&lt;Path&gt;" class="s3" d="m354.09 1395.56c0 0 7.07 2.78 12.17 2.78 5.1 0 7.49 5.1 7.49 5.1 0 0 9.74-4.64 29.67-3.94 19.93 0.7 79.1 54.19 79.1 54.19l-7-78.99 7.87 0.69c15.94 1.38 31.99-0.82 46.97-6.44l8.88-3.33c0 0 23.46 143.04-13 163.73-40.34 22.88-88.65-28.12-88.65-28.12 0 0-2.32 29.21-6.49 44.97-4.17 15.76 17.77 60.7 17.77 60.7h-46.81z"/>
	<path id="&lt;Compound Path&gt;" class="s1" d="m448.89 1607.75q-0.01 0-0.02 0h-46.81c-0.4 0-0.74-0.28-0.83-0.66l-47.97-211.34c-0.07-0.31 0.04-0.63 0.28-0.83 0.24-0.21 0.57-0.27 0.86-0.15 0.07 0.03 6.98 2.72 11.86 2.72 4.4 0 6.94 3.35 7.86 4.87 2.41-0.97 10.71-3.78 25.28-3.78q2 0 4.05 0.07c18.4 0.64 68.24 44.24 78.03 52.97l-6.81-76.84c-0.02-0.25 0.07-0.5 0.25-0.67 0.18-0.18 0.42-0.27 0.67-0.25l7.87 0.68c3.05 0.26 6.14 0.4 9.2 0.4 12.82 0 25.4-2.28 37.4-6.78l8.89-3.34c0.23-0.08 0.5-0.06 0.72 0.06 0.22 0.13 0.37 0.35 0.41 0.6 0.06 0.36 5.89 36.26 7.18 74.22 1.75 51.23-5.19 81.64-20.6 90.39-7.04 3.99-14.79 6.01-23.05 6.01-29.94 0-58.92-26.69-65.33-32.97-0.59 6.66-2.82 29.91-6.36 43.29-3.93 14.85 16.33 57.24 17.65 59.97q0.16 0.22 0.17 0.51c0 0.47-0.38 0.85-0.85 0.85zm-46.15-1.7h44.78c-3.55-7.46-21.1-45.46-17.24-60.06 4.11-15.51 6.44-44.54 6.47-44.83 0.02-0.33 0.24-0.62 0.56-0.73 0.31-0.11 0.67-0.03 0.9 0.22 0.32 0.33 32.37 33.75 65.4 33.75 7.96 0 15.43-1.95 22.21-5.79 33.93-19.25 14.75-148.93 12.75-161.83l-7.92 2.97c-12.19 4.57-24.97 6.89-37.99 6.89-3.11 0-6.25-0.14-9.34-0.41l-6.87-0.59 6.91 77.97c0.03 0.35-0.15 0.68-0.46 0.84-0.32 0.15-0.69 0.1-0.95-0.13-0.59-0.54-59.16-53.3-78.56-53.97q-2.02-0.07-3.99-0.07c-16.78 0-25.21 3.89-25.29 3.93q-0.32 0.14-0.65 0.03-0.33-0.13-0.48-0.44c-0.02-0.05-2.24-4.61-6.72-4.61-3.83 0-8.61-1.47-11-2.3z"/>
	<path id="&lt;Path&gt;" class="s1" d="m417.76 1486.5c12.77 26.78 4.89 61.82 4.89 67.4 0 5.58 18.67 53.6 18.67 53.6h-39.06l-7.15-72.37z"/>
	<path id="&lt;Path&gt;" class="s4" d="m369.69 1408.9c9.43 16.05 41.61 48.78 46.83 74.12 5.22 25.34-7.76 57.53-7.76 63.53 0 6.01-0.63 60.95-0.63 60.95h-123.59c0 0 14.81-29.4 23.47-61.97 8.67-32.57 3.7-59.97 0-80.64-3.69-20.67 0-56.24 0-56.24z"/>
	<path id="&lt;Compound Path&gt;" class="s1" d="m408.13 1607.5h-123.59c-0.29 0-0.57-0.02-0.72-0.27q-0.23-0.37-0.03-0.76c0.14-0.3 14.86-29.38 23.4-61.48 8.56-32.18 3.65-59.64 0.06-79.71l-0.07-0.39c-3.68-20.56-0.05-56.16-0.01-56.52 0.04-0.43 0.41-0.87 0.84-0.87q0 0 0.01 0l61.68 0.44c0.3 0 0.57 0.22 0.72 0.48 2.95 5.01 8.11 11.66 14.09 19.34 13.02 16.72 29.23 37.53 32.84 55.08 3.86 18.74-2.04 40.71-5.57 53.84-1.22 4.51-2.17 8.08-2.17 9.58 0 5.94-0.62 59.98-0.63 60.53 0 0.47-0.38 0.71-0.85 0.71zm-122.22-1h121.38c0.08-7 0.62-54.49 0.62-60.02 0-1.72 0.93-5.31 2.23-10.12 3.49-12.98 9.33-34.77 5.55-53.11-3.54-17.16-19.61-37.82-32.52-54.39-5.85-7.52-10.93-14.04-13.96-19.1l-60.43-0.32c-0.5 5.27-3.27 36.51 0.07 55.16l0.07 0.4c3.62 20.22 8.57 48.13-0.09 80.68-7.59 28.53-20.03 54.82-22.92 60.82z"/>
	<path id="&lt;Path&gt;" class="s1" d="m319.13 1388.41c-2.66-11.8-5.71-11.42-14.46-19.41-8.75-8-25.88-19.41-18.65-48.34 7.23-28.92 17.51-31.58 36.16-36.53 18.64-4.95 37.29 0.38 46.81-0.38 9.51-0.76 24.73 6.85 20.55 20.93-4.19 14.08-10.66 17.51-10.66 17.51z"/>
	<path id="&lt;Path&gt;" class="s3" d="m373.17 1295.83c0 0 5.43 4.57 7.99 14.27 2.57 9.71 2.88 13.12 4.04 20.54 0.56 3.57 8.24 7.65 8.81 10.51 0.57 2.85-4 7.2-4 7.2 0 0 4 25.12-9.7 30.54-13.7 5.42-20.84 6.85-20.84 6.85l-0.44 14.1c-0.08 2.53 1.36 4.85 3.66 5.91l6.77 3.11c0 0 6.57 14.56-5.14 21.69-11.7 7.14-56.51-21.97-56.51-21.97l3.6-2.44c4.42-2.98 7.29-7.75 7.86-13.05l1.38-12.77c0 0 12.56-17.41 13.13-20.55 0 0-11.41 1.14-13.98-7.99-2.57-9.14 6.56-15.99 10.84-15.99 4.29 0 8 3.43 8 3.43 0 0 31.11-19.98 34.53-43.39z"/>
	<path id="&lt;Compound Path&gt;" class="s1" d="m359.41 1432.53c-16.1 0-50.6-22.29-52.06-23.24-0.24-0.16-0.39-0.42-0.39-0.71 0-0.28 0.14-0.55 0.37-0.71l3.61-2.43c4.21-2.85 6.94-7.38 7.49-12.44l1.38-12.77q0.03-0.23 0.16-0.41c4.44-6.16 10.92-15.6 12.59-19.16-3.37 0-11.39-0.85-13.58-8.65-1.09-3.89-0.27-7.92 2.32-11.34 2.48-3.26 6.49-5.73 9.34-5.73 3.65 0 6.85 2.24 8.06 3.22 4.06-2.74 30.54-21.35 33.63-42.45 0.05-0.31 0.25-0.56 0.54-0.67 0.29-0.11 0.61-0.06 0.85 0.14 0.23 0.2 5.66 4.86 8.27 14.71 2.16 8.17 2.74 11.99 3.54 17.28q0.23 1.55 0.51 3.34c0.25 1.6 2.53 3.61 4.54 5.38 2.11 1.87 3.94 3.48 4.26 5.09 0.57 2.85-2.79 6.53-3.92 7.67 0.49 3.52 3.02 25.76-10.3 31.03-11.44 4.53-18.26 6.27-20.32 6.75l-0.42 13.44c-0.07 2.19 1.17 4.19 3.16 5.11l6.78 3.11q0.28 0.13 0.42 0.42c0.06 0.15 6.73 15.33-5.47 22.77q-2.06 1.24-5.36 1.25zm-50.05-23.98c6.06 3.84 35.99 22.28 50.05 22.28q0 0 0 0 2.83 0 4.47-1c10.07-6.14 5.73-18.32 4.93-20.34l-6.47-2.97c-2.62-1.2-4.25-3.83-4.16-6.7l0.44-14.11c0.02-0.39 0.3-0.72 0.69-0.8 0.07-0.02 7.24-1.48 20.69-6.81 12.91-5.11 9.21-29.37 9.17-29.62-0.04-0.27 0.06-0.55 0.26-0.74 1.63-1.56 4.1-4.68 3.75-6.43-0.21-1.05-2.08-2.69-3.72-4.14-2.34-2.06-4.75-4.19-5.09-6.39q-0.29-1.81-0.52-3.36c-0.82-5.43-1.37-9.02-3.51-17.1-1.77-6.69-4.94-10.88-6.61-12.73-4.55 22.79-33.38 41.54-34.63 42.34-0.33 0.21-0.75 0.17-1.04-0.09-0.03-0.03-3.53-3.2-7.42-3.2-2.04 0-5.59 1.89-7.99 5.06-1.6 2.11-3.25 5.53-2.04 9.85 1.89 6.69 9 7.41 11.97 7.41 0.69 0 1.12-0.04 1.12-0.04 0.27-0.02 0.53 0.08 0.71 0.27 0.18 0.2 0.26 0.47 0.21 0.73-0.57 3.14-11.35 18.22-13.15 20.71l-1.35 12.55c-0.6 5.56-3.6 10.54-8.23 13.66z"/>
	<path id="&lt;Path&gt;" class="s1" d="m382.69 1376.61c-12.18 4.75-37.87 2.47-37.87 2.47 0 0 5.99 11.23 13.8 14.27l0.85-7.61 15.99-5.14z"/>
	<path id="&lt;Path&gt;" class="s1" d="m378.89 1330.92c-0.4-2.51-1.71-4.38-2.94-4.18-1.22 0.19-1.88 2.38-1.48 4.89 0.4 2.5 1.71 4.37 2.93 4.17 1.23-0.19 1.89-2.38 1.49-4.88z"/>
	<path id="&lt;Path&gt;" class="s3" d="m318.87 1295.18c3.91-0.63 7.05 3.05 10.69 4.63 9.22 4.01 20.31-5.89 29.44-1.68 0.86 0.4 1.73 1 1.98 1.92 0.17 0.62 0.02 1.27-0.15 1.89-1.24 4.3-3.93 8.18-7.53 10.83-1.17 0.87-2.48 1.62-3.92 1.8-3.67 0.45-6.61-2.77-9.8-4.65-3.17-1.86-7.05-2.47-10.63-1.66-3.23 0.72-6.15 2.53-9.41 3.11-3.26 0.59-7.31-0.65-8.16-3.85-0.5-1.84 0.21-3.77 0.98-5.52 1.31-3.01 3.27-6.29 6.51-6.82z"/>
	<path id="&lt;Compound Path&gt;" class="s1" d="m348.68 1315.04c-2.54 0-4.73-1.57-6.84-3.08-0.81-0.58-1.65-1.18-2.48-1.67-2.17-1.28-4.68-1.96-7.25-1.96q-1.56 0-3.07 0.34c-1.48 0.33-2.94 0.92-4.35 1.48-1.63 0.65-3.31 1.32-5.08 1.64q-0.81 0.15-1.67 0.15c-2.9 0-6.18-1.33-6.97-4.31-0.54-2 0.23-4.04 1-5.8 1.2-2.75 3.21-6.48 6.83-7.06q0.48-0.08 0.97-0.08c2.36 0 4.46 1.38 6.49 2.71 1.13 0.74 2.29 1.51 3.47 2.02 1.46 0.64 3.04 0.94 4.82 0.94 3.08 0 6.37-0.94 9.55-1.84 3.22-0.93 6.55-1.88 9.73-1.88 1.99 0 3.73 0.36 5.35 1.11q1.85 0.86 2.21 2.19c0.19 0.71 0.04 1.43-0.16 2.11-1.26 4.41-3.99 8.34-7.68 11.07-0.95 0.7-2.42 1.66-4.12 1.87q-0.38 0.05-0.75 0.05zm-16.57-7.55c2.72 0 5.38 0.71 7.68 2.07 0.87 0.51 1.72 1.12 2.54 1.71 2.3 1.64 4.46 3.19 7 2.88 1.14-0.15 2.32-0.69 3.71-1.72 3.55-2.61 6.17-6.38 7.38-10.61 0.15-0.52 0.3-1.13 0.15-1.66q-0.26-0.95-1.75-1.64c-1.5-0.69-3.13-1.03-4.99-1.03-3.06 0-6.33 0.94-9.5 1.84-3.23 0.93-6.58 1.88-9.78 1.88-1.9 0-3.59-0.33-5.16-1.01-1.25-0.54-2.44-1.33-3.59-2.09-2.02-1.32-3.92-2.57-6.03-2.57q-0.42 0-0.84 0.06c-3.2 0.52-5.06 4-6.18 6.57-0.71 1.63-1.43 3.5-0.96 5.24 0.67 2.54 3.57 3.68 6.15 3.68q0.78 0 1.52-0.13c1.69-0.31 3.33-0.96 4.91-1.6 1.45-0.57 2.94-1.17 4.49-1.52q1.59-0.35 3.25-0.35z"/>
	<path id="&lt;Path&gt;" class="s1" d="m421.1 1505.5q-0.02 0-0.03 0c-0.47 0-0.84-0.77-0.82-1.24l1.5-36.87-22.08-28.58c-0.12-0.15-0.17-0.42-0.17-0.61v-21.79c-3-1-17.27-5.72-26.39-12.28-0.38-0.28-0.47-0.81-0.19-1.19 0.27-0.38 0.8-0.47 1.18-0.19 9.85 7.09 26.47 12.17 26.64 12.22 0.36 0.11 0.76 0.44 0.76 0.81v22.13l21.95 28.5c0.12 0.16 0.1 0.36 0.09 0.56l-1.55 37.36c-0.02 0.46-0.44 1.17-0.89 1.17z"/>
	<path id="&lt;Path&gt;" class="s1" d="m437.8 1502.08q-0.07 0-0.14-0.01c-0.46-0.07-0.78-0.51-0.7-0.97 3.03-19.7-3.03-49.73-3.09-50.03-0.09-0.46 0.21-0.91 0.66-1 0.46-0.09 0.91 0.2 1.01 0.66 0.06 0.3 6.17 30.63 3.09 50.63-0.06 0.42-0.42 0.72-0.83 0.72z"/>
	<path id="&lt;Path&gt;" class="s1" d="m437.36 1469.02q-0.24 0-0.47-0.15c-0.39-0.26-0.49-0.78-0.23-1.17l6.61-9.89c0.26-0.39 0.79-0.49 1.18-0.23 0.38 0.26 0.49 0.78 0.23 1.17l-6.61 9.89c-0.16 0.25-0.43 0.38-0.71 0.38z"/>
	<path id="&lt;Path&gt;" class="s1" d="m249.32 1607.75q-0.1 0-0.19-0.02c-0.46-0.11-0.74-0.57-0.64-1.02 2.75-11.85 27.1-109.79 27.35-110.78 0.11-0.46 0.57-0.74 1.03-0.62 0.45 0.11 0.73 0.57 0.62 1.03-0.25 0.99-24.6 98.91-27.34 110.75-0.1 0.39-0.44 0.66-0.83 0.66z"/>
	<path id="&lt;Path&gt;" class="s3" d="m281.76 1501.23l-8.16 7.23"/>
	<path id="&lt;Path&gt;" class="s1" d="m273.6 1509.31c-0.23 0-0.47-0.1-0.64-0.29-0.31-0.35-0.27-0.88 0.08-1.19l8.16-7.24c0.35-0.31 0.89-0.27 1.2 0.08 0.31 0.35 0.28 0.88-0.08 1.19l-8.16 7.23q-0.25 0.22-0.56 0.22z"/>
	<path id="&lt;Path&gt;" class="s3" d="m253.49 1428.28c0 0 19.47 5.21 23.17 25.41"/>
	<path id="&lt;Path&gt;" class="s1" d="m276.66 1454.54c-0.4 0-0.76-0.29-0.83-0.7-3.57-19.42-22.37-24.69-22.56-24.74-0.45-0.12-0.72-0.59-0.6-1.04 0.12-0.46 0.59-0.72 1.04-0.6 0.2 0.05 20.03 5.58 23.79 26.07 0.08 0.46-0.22 0.91-0.68 0.99q-0.08 0.02-0.16 0.02z"/>
	<path id="&lt;Path&gt;" class="s3" d="m302.85 1403.44c-3.94 14.37-15.06 24.84-15.06 24.84l12.51 25.41-7.22 32.81c0 0 16.73 37.98 11.98 68.99"/>
	<path id="&lt;Path&gt;" class="s1" d="m305.06 1556.34q-0.07 0-0.13-0.01c-0.47-0.07-0.78-0.5-0.71-0.97 4.66-30.4-11.76-68.14-11.92-68.52q-0.11-0.26-0.05-0.53l7.16-32.52-12.39-25.14c-0.16-0.33-0.09-0.73 0.18-0.99 0.11-0.1 11-10.49 14.83-24.45 0.13-0.45 0.59-0.72 1.05-0.59 0.45 0.12 0.72 0.59 0.59 1.04-3.55 12.96-12.68 22.63-14.85 24.8l12.24 24.85q0.13 0.27 0.07 0.56l-7.17 32.54c1.46 3.41 16.47 39.65 11.93 69.21-0.06 0.42-0.42 0.72-0.83 0.72z"/>
	<path id="&lt;Path&gt;" class="s1" d="m500.45 1387.93c-13.66 0-23.8-2.08-23.99-2.12-0.46-0.1-0.76-0.55-0.66-1.01 0.1-0.45 0.55-0.75 1.01-0.65 0.36 0.08 36.55 7.5 64.17-6.07 0.42-0.21 0.93-0.04 1.14 0.38 0.2 0.42 0.03 0.93-0.39 1.14-13.43 6.6-28.82 8.33-41.28 8.33z"/>
	<path id="&lt;Path&gt;" class="s1" d="m367.12 1322.9c-0.35-0.67 0.04-1.48 0.51-2.08 1.9-2.49 5.25-3.77 8.33-3.19 0.77 0.14 1.56 0.42 2.1 0.99 0.54 0.58 0.76 1.52 0.32 2.18-0.48 0.71-1.46 0.83-2.31 0.97-1.65 0.26-3.23 0.85-4.81 1.4-0.85 0.29-1.74 0.58-2.64 0.53-0.59-0.04-1.22-0.27-1.5-0.8z"/>
	<path id="&lt;Path&gt;" class="s1" d="m383.22 1358.9c-8.59 0-12.86-6.75-12.91-6.82-0.25-0.4-0.12-0.93 0.28-1.17 0.39-0.25 0.92-0.12 1.16 0.27 0.21 0.34 5.17 8.09 15.49 5.51 0.46-0.11 0.92 0.16 1.03 0.61 0.12 0.46-0.16 0.92-0.61 1.03q-2.39 0.59-4.44 0.57z"/>
	<path id="&lt;Path&gt;" class="s1" d="m369.7 1353.18c-0.27 0-0.53-0.13-0.7-0.36-0.26-0.39-0.17-0.92 0.22-1.18l3.1-2.15c0.38-0.27 0.91-0.17 1.18 0.22 0.27 0.38 0.17 0.91-0.22 1.18l-3.1 2.14q-0.22 0.15-0.48 0.15z"/>
	<path id="&lt;Path&gt;" class="s1" d="m337.01 1351.41c-0.41 0-0.77-0.3-0.84-0.72-1.13-6.94-9.85-7.56-9.94-7.57-0.46-0.03-0.82-0.43-0.79-0.9 0.03-0.47 0.43-0.81 0.9-0.79 0.1 0 10.16 0.73 11.51 8.99 0.07 0.46-0.24 0.9-0.7 0.98q-0.07 0.01-0.14 0.01z"/>
	<path id="&lt;Path&gt;" class="s1" d="m330.28 1348.6c-0.3 0-0.59-0.16-0.74-0.45-0.23-0.41-0.08-0.92 0.33-1.15l4.04-2.21c0.41-0.22 0.93-0.07 1.16 0.34 0.22 0.41 0.07 0.93-0.34 1.16l-4.04 2.2q-0.2 0.11-0.41 0.11z"/>
	<path id="&lt;Path&gt;" class="s1" d="m313.57 1291.02c0 0-0.24-19.69-12.33-24.75-12.08-5.05-14.04 10.29-14.04 10.29 0 0-10.73-18.97-30.57-8.5-19.83 10.46 4.07 29.04 4.07 29.04 0 0-7.96 1.07-11.94 8.77-3.98 7.71 16.32 12.9 16.32 12.9 0 0-6.98 14.84 4.11 17.03 11.09 2.19 24.56-12.1 24.56-12.1z"/>
	<path id="&lt;Path&gt;" class="s1" d="m337.47 1537.87c-0.42 0-0.78-0.3-0.84-0.73-0.07-0.46 0.26-0.89 0.72-0.96 23.27-3.22 40.4-27.36 40.57-27.6 0.27-0.38 0.8-0.48 1.18-0.21 0.38 0.27 0.48 0.8 0.21 1.18-0.18 0.25-17.73 24.99-41.72 28.32q-0.06 0-0.12 0z"/>
	<path id="&lt;Path&gt;" class="s1" d="m341.46 1371.54q-0.27 0-0.5-0.17c-2.25-1.65-2.42-4.89-1.43-7.1 0.98-2.21 2.88-3.79 4.78-5.17l0.51-0.37c1.17-0.84 2.27-1.63 3.15-2.64 2.68-3.07 2.7-8.08 0.05-11.17-0.59-0.69-1.3-1.31-2.06-1.96-1.45-1.25-2.94-2.54-3.59-4.46-0.87-2.56 0.28-5.62 2.61-6.98 0.41-0.24 0.93-0.1 1.16 0.31 0.24 0.4 0.1 0.92-0.3 1.16-1.64 0.95-2.47 3.17-1.87 4.96 0.51 1.49 1.77 2.58 3.1 3.73 0.77 0.66 1.56 1.35 2.24 2.14 3.18 3.7 3.15 9.71-0.06 13.38-1.01 1.16-2.24 2.05-3.44 2.91l-0.5 0.36c-1.71 1.24-3.41 2.65-4.23 4.49-0.73 1.63-0.59 3.96 0.88 5.04 0.38 0.28 0.46 0.81 0.19 1.19-0.17 0.23-0.43 0.35-0.69 0.35z"/>
	<path id="&lt;Path&gt;" class="s5" d="m526.18 1311.21c-0.67-2.61-2.31-4.81-4.63-6.19l-3.75-2.23-23.85-14.17q-0.33 0.38-0.57 0.74c-5.5 5.5-1.19 14.61-4.14 19.97l21.99 13.06q1.18 0.7 2.5 1.06c4.37 1.2 9.03-0.69 11.34-4.59 1.38-2.32 1.78-5.03 1.11-7.65z"/>
	<path id="&lt;Compound Path&gt;" class="s1" d="m516.37 1324.66q0 0 0 0-1.45 0-2.86-0.39-1.43-0.39-2.72-1.15l-22.69-13.48 0.4-0.72c1.14-2.08 1.09-4.89 1.03-7.87-0.08-4.13-0.17-8.81 3.19-12.23q0.23-0.34 0.59-0.75l0.46-0.54 28.21 16.76c2.52 1.49 4.3 3.88 5.02 6.71 0.72 2.84 0.3 5.78-1.2 8.3-1.96 3.3-5.57 5.36-9.43 5.36zm-26.02-15.67l21.31 12.67q1.09 0.64 2.3 0.98 1.18 0.32 2.41 0.32c3.26 0 6.31-1.74 7.97-4.53 1.27-2.12 1.63-4.61 1.02-7.01-0.61-2.4-2.12-4.41-4.24-5.67l-26.96-16.02q-0.04 0.05-0.08 0.11l-0.1 0.13c-2.91 2.9-2.83 7.05-2.75 11.05 0.05 2.9 0.11 5.65-0.88 7.97z"/>
	<path id="&lt;Path&gt;" class="s0" d="m493.38 1289.36q0.24-0.36 0.57-0.74l-41.33-24.56q-0.28-0.16-0.6-0.08-0.32 0.08-0.49 0.36l-5.38 9.06-4.53 7.63 47.62 28.3c2.95-5.36-1.36-14.47 4.14-19.97z"/>
	<path id="&lt;Compound Path&gt;" class="s1" d="m489.24 1310.17q-0.23 0-0.43-0.11l-47.63-28.3q-0.29-0.18-0.39-0.52-0.08-0.34 0.1-0.64l9.91-16.69c0.22-0.37 0.59-0.65 1.01-0.76 0.42-0.1 0.87-0.04 1.25 0.18l41.33 24.56c0.21 0.13 0.36 0.35 0.4 0.59 0.04 0.25-0.03 0.5-0.19 0.69q-0.33 0.38-0.52 0.67-0.05 0.07-0.1 0.13c-2.91 2.9-2.83 7.05-2.75 11.05 0.06 3.21 0.12 6.24-1.25 8.72q-0.17 0.31-0.52 0.4-0.11 0.03-0.22 0.03zm-46.46-29.44l46.09 27.39c0.76-1.97 0.71-4.46 0.66-7.07-0.08-4.12-0.17-8.78 3.16-12.19l-40.5-24.07z"/>
	<path id="&lt;Path&gt;" class="s0" d="m443.41 1282.74l10.78-18.14c0.33-0.55 0.15-1.26-0.4-1.59l-1.23-0.73c-0.55-0.33-1.27-0.15-1.6 0.4l-10.77 18.14c-0.33 0.55-0.15 1.27 0.4 1.59l1.23 0.73c0.55 0.33 1.27 0.15 1.59-0.4z"/>
	<path id="&lt;Compound Path&gt;" class="s1" d="m442.41 1284.16q-0.55-0.01-1.02-0.28l-1.23-0.74c-0.46-0.27-0.79-0.71-0.92-1.23-0.13-0.52-0.06-1.06 0.22-1.52l10.78-18.14c0.54-0.91 1.83-1.25 2.75-0.7l1.23 0.73c0.46 0.27 0.79 0.71 0.92 1.23 0.13 0.52 0.06 1.06-0.22 1.52l-10.78 18.14c-0.36 0.61-1.02 0.99-1.73 0.99zm9.56-21.2c-0.09 0-0.21 0.04-0.28 0.16l-10.77 18.14c-0.06 0.09-0.05 0.19-0.04 0.23 0.02 0.05 0.05 0.14 0.14 0.19l1.24 0.74q0.07 0.04 0.15 0.04c0.09 0 0.21-0.04 0.27-0.15l10.78-18.14c0.06-0.1 0.05-0.19 0.03-0.24-0.01-0.05-0.04-0.13-0.14-0.19l-1.23-0.73q-0.07-0.05-0.15-0.05z"/>
	<path id="&lt;Compound Path&gt;" class="s6" d="m441.42 1283.83l-1.24-0.73c-0.92-0.55-1.23-1.76-0.68-2.68l10.78-18.14c0.54-0.91 1.78-1.23 2.68-0.69l1.23 0.74c0.45 0.26 0.77 0.69 0.9 1.19 0.13 0.51 0.05 1.04-0.22 1.49l-10.77 18.14c-0.45 0.75-1.36 1.11-2.2 0.88q-0.26-0.07-0.48-0.2zm10.23-20.74l-10.78 18.14c-0.1 0.17-0.04 0.4 0.13 0.5l1.23 0.73c0.18 0.11 0.4 0.04 0.5-0.13l10.78-18.14c0.06-0.11 0.05-0.22 0.04-0.27-0.02-0.06-0.06-0.16-0.17-0.23l-1.23-0.73q-0.04-0.02-0.09-0.04c-0.16-0.04-0.33 0.03-0.41 0.17z"/>
	<path id="&lt;Path&gt;" class="s3" d="m437.99 1274.43c-0.98-0.58-1.3-1.85-0.72-2.84 0.59-0.98 1.86-1.3 2.84-0.72 0.98 0.59 1.31 1.86 0.72 2.84-0.58 0.99-1.85 1.31-2.84 0.72z"/>
	<path id="&lt;Path&gt;" class="s3" d="m435.34 1266.52c-0.36-0.22-0.48-0.69-0.26-1.05 0.21-0.36 0.68-0.48 1.04-0.27 0.36 0.22 0.48 0.69 0.27 1.05-0.22 0.36-0.69 0.48-1.05 0.27z"/>
	<path id="&lt;Path&gt;" class="s1" d="m423.8 1361.02l1.34-1.44 15.35 14.28 4.33-3.01-1.69-20.3 1.97-0.16 1.78 21.43-6.57 4.57z"/>
	<path id="&lt;Path&gt;" class="s2" d="m419.46 1365.46c3.44 1.62 7.53 0.14 9.15-3.3 1.61-3.44 0.13-7.54-3.31-9.15-3.44-1.62-7.54-0.14-9.15 3.3-1.61 3.44-0.13 7.54 3.31 9.15z"/>
	<path id="&lt;Compound Path&gt;" class="s1" d="m422.37 1366.97q-1.71-0.01-3.27-0.74c-3.86-1.81-5.53-6.42-3.72-10.28 1.27-2.7 4.02-4.45 7-4.45q1.72 0 3.28 0.74c1.87 0.87 3.29 2.43 3.99 4.37 0.7 1.94 0.6 4.04-0.27 5.91-1.27 2.7-4.02 4.45-7.01 4.45zm0.01-13.77c-2.33 0-4.47 1.36-5.46 3.47-1.41 3.01-0.11 6.61 2.9 8.03q1.22 0.57 2.55 0.57c2.34 0 4.48-1.36 5.47-3.47 0.68-1.46 0.76-3.1 0.21-4.62-0.54-1.51-1.65-2.72-3.11-3.41q-1.22-0.57-2.56-0.57z"/>
	<path id="&lt;Path&gt;" class="s5" d="m441.38 1381.76c3.44 1.62 7.53 0.14 9.15-3.3 1.61-3.44 0.13-7.54-3.31-9.15-3.44-1.62-7.54-0.14-9.15 3.3-1.62 3.44-0.14 7.54 3.31 9.15z"/>
	<path id="&lt;Compound Path&gt;" class="s1" d="m444.29 1383.27q0 0 0 0-1.71-0.01-3.28-0.74c-3.85-1.81-5.52-6.42-3.71-10.28 1.27-2.7 4.02-4.45 7-4.45q1.72 0 3.28 0.74c1.87 0.87 3.29 2.43 3.99 4.37 0.7 1.94 0.6 4.04-0.27 5.91-1.27 2.7-4.02 4.45-7.01 4.45zm0.01-13.77c-2.33 0-4.47 1.36-5.46 3.47-1.42 3.01-0.12 6.61 2.9 8.02q1.22 0.58 2.55 0.58c2.33 0 4.48-1.37 5.47-3.47 0.68-1.46 0.76-3.1 0.21-4.62-0.55-1.51-1.65-2.72-3.11-3.41q-1.22-0.57-2.56-0.57z"/>
	<path id="&lt;Path&gt;" class="s4" d="m440.58 1352.49c3.44 1.61 7.54 0.13 9.15-3.31 1.62-3.44 0.14-7.53-3.31-9.15-3.44-1.61-7.53-0.13-9.15 3.31-1.61 3.44-0.13 7.54 3.31 9.15z"/>
	<path id="&lt;Compound Path&gt;" class="s1" d="m443.5 1353.99q-1.72 0-3.28-0.73c-1.87-0.88-3.29-2.43-3.99-4.37-0.7-1.95-0.6-4.04 0.27-5.91 1.27-2.7 4.02-4.45 7.01-4.45q1.71 0 3.28 0.73c1.86 0.88 3.28 2.43 3.98 4.37 0.7 1.95 0.61 4.05-0.27 5.91-1.27 2.71-4.02 4.45-7 4.45zm0.01-13.76c-2.33 0-4.48 1.36-5.47 3.47-0.68 1.46-0.76 3.09-0.21 4.61 0.55 1.52 1.65 2.73 3.11 3.41q1.22 0.57 2.56 0.57c2.33 0 4.47-1.36 5.46-3.47 0.69-1.46 0.76-3.09 0.21-4.61-0.54-1.51-1.65-2.73-3.11-3.41q-1.22-0.57-2.55-0.57z"/>
	<path id="&lt;Path&gt;" class="s1" d="m242.82 1390.16l-1.75-1.81 19.26-18.62-3.56-5.73-26 0.8-0.08-2.52 27.46-0.84 5.38 8.69z"/>
	<path id="&lt;Path&gt;" class="s2" d="m248.2 1396c2.29-4.28 0.68-9.61-3.6-11.9-4.28-2.29-9.61-0.67-11.9 3.61-2.29 4.28-0.68 9.61 3.61 11.9 4.28 2.28 9.6 0.67 11.89-3.61z"/>
	<path id="&lt;Compound Path&gt;" class="s1" d="m240.44 1401.5c-1.57-0.01-3.14-0.4-4.53-1.15-4.69-2.5-6.46-8.36-3.96-13.04 1.68-3.14 4.94-5.1 8.51-5.1 1.57 0 3.14 0.4 4.54 1.14 4.68 2.51 6.46 8.36 3.95 13.05-1.68 3.14-4.94 5.1-8.51 5.1zm0.02-17.59c-2.94 0-5.63 1.61-7.01 4.2-2.07 3.86-0.6 8.68 3.26 10.75 1.15 0.61 2.44 0.94 3.73 0.94 2.94 0 5.63-1.61 7.01-4.2 2.07-3.86 0.61-8.68-3.25-10.75-1.15-0.61-2.44-0.94-3.74-0.94z"/>
	<path id="&lt;Path&gt;" class="s5" d="m270.46 1369.13c2.29-4.28 0.68-9.61-3.6-11.9-4.28-2.29-9.61-0.67-11.9 3.61-2.29 4.28-0.67 9.6 3.61 11.89 4.28 2.29 9.6 0.68 11.89-3.6z"/>
	<path id="&lt;Compound Path&gt;" class="s1" d="m262.71 1374.62q0 0 0 0c-1.58 0-3.15-0.39-4.54-1.14-2.27-1.21-3.93-3.24-4.68-5.7-0.75-2.47-0.49-5.07 0.72-7.34 1.69-3.15 4.95-5.1 8.51-5.1 1.57 0 3.14 0.4 4.54 1.14 4.69 2.51 6.46 8.36 3.95 13.05-1.68 3.14-4.94 5.09-8.5 5.09zm0.01-17.58c-2.94 0-5.62 1.61-7.01 4.2-1 1.87-1.21 4.02-0.6 6.05 0.62 2.03 1.99 3.69 3.86 4.7 1.15 0.61 2.44 0.94 3.74 0.94 2.94 0 5.62-1.61 7.01-4.2 2.06-3.86 0.6-8.68-3.26-10.75-1.15-0.62-2.44-0.94-3.74-0.94z"/>
	<path id="&lt;Path&gt;" class="s4" d="m233.07 1368.18c2.29-4.28 0.67-9.6-3.61-11.89-4.28-2.29-9.61-0.68-11.9 3.6-2.29 4.28-0.67 9.61 3.61 11.9 4.28 2.29 9.61 0.68 11.9-3.61z"/>
	<path id="&lt;Compound Path&gt;" class="s1" d="m225.31 1373.68c-1.58 0-3.15-0.4-4.54-1.14-4.69-2.51-6.46-8.36-3.95-13.05 1.68-3.14 4.94-5.09 8.5-5.09 1.58 0 3.15 0.39 4.54 1.14 2.27 1.21 3.93 3.24 4.68 5.7 0.75 2.47 0.49 5.07-0.73 7.35-1.68 3.14-4.94 5.09-8.5 5.09zm0.01-17.58c-2.94 0-5.62 1.6-7.01 4.19-2.06 3.86-0.6 8.69 3.26 10.75 1.15 0.62 2.44 0.94 3.74 0.94 2.94 0 5.62-1.61 7.01-4.2 1-1.87 1.21-4.01 0.6-6.04-0.62-2.03-1.99-3.7-3.86-4.7-1.15-0.62-2.44-0.94-3.74-0.94z"/>
	<path id="&lt;Path&gt;" class="s0" d="m221.64 1523.84c-4.36-1.85-7.06-6.29-7.04-11.03l0.31-52.63 0.66 0.01c1.23 0 2.25-1 2.26-2.23 0-1.24-1-2.25-2.23-2.26l-24.27-0.14c-1.24-0.01-2.25 1-2.26 2.23-0.01 1.23 1 2.25 2.23 2.26h0.92l-0.3 52.68c-0.03 4.77-2.86 9.11-7.26 10.96-17.64 7.45-30.12 25.28-29.72 45.3 0.23 12.02 4.9 22.96 12.44 31.26 4.51 4.97 10.97 7.72 17.69 7.76l35.27 0.21c6.76 0.04 13.29-2.7 17.88-7.67 7.84-8.48 12.66-19.79 12.73-32.26 0.12-19.97-11.99-37.13-29.31-44.45z"/>
	<path id="&lt;Compound Path&gt;" class="s1" d="m220.48 1609.07h-0.14l-35.28-0.21c-7.03-0.04-13.71-2.97-18.31-8.04-7.93-8.74-12.43-20.03-12.66-31.81-0.4-19.78 11.76-38.3 30.24-46.1 4.07-1.71 6.71-5.71 6.74-10.19l0.3-51.82-0.08-0.01c-0.82 0-1.59-0.33-2.17-0.92-0.59-0.58-0.9-1.36-0.9-2.18 0.01-1.7 1.4-3.08 3.09-3.08l24.29 0.14c0.82 0.01 1.6 0.33 2.18 0.92 0.58 0.59 0.9 1.37 0.89 2.19-0.01 1.64-1.3 2.98-2.92 3.07l-0.3 51.79c-0.02 4.53 2.54 8.55 6.52 10.24 18.24 7.71 29.95 25.47 29.83 45.24-0.07 12.2-4.67 23.86-12.95 32.83-4.66 5.04-11.36 7.94-18.37 7.94zm-29.16-152.66c-0.77 0-1.4 0.62-1.4 1.39 0 0.37 0.14 0.72 0.4 0.98 0.27 0.27 0.61 0.42 0.98 0.42h0.93c0.47 0.01 0.85 0.39 0.84 0.86l-0.3 52.67c-0.03 5.16-3.08 9.77-7.78 11.75-17.85 7.53-29.59 25.41-29.21 44.49 0.23 11.37 4.57 22.28 12.23 30.71 4.28 4.72 10.5 7.44 17.06 7.48l35.41 0.21c6.54 0 12.78-2.7 17.12-7.39 7.99-8.66 12.44-19.91 12.5-31.69 0.11-19.08-11.19-36.22-28.79-43.67-4.62-1.96-7.58-6.59-7.55-11.81l0.3-52.63q0.01-0.35 0.25-0.6 0.25-0.24 0.6-0.25 0 0 0.01 0l0.66 0.01c0.77 0 1.39-0.62 1.4-1.39 0-0.37-0.14-0.72-0.41-0.98-0.26-0.27-0.61-0.42-0.98-0.42z"/>
	<path id="&lt;Path&gt;" class="s3" d="m209.24 1461.61c1.27 0 2.3 1.05 2.29 2.31l-0.3 52.05c-0.01 1.26-1.05 2.29-2.32 2.28-1.26 0-2.29-1.05-2.28-2.31l0.3-52.05c0.01-1.26 1.05-2.29 2.31-2.28z"/>
	<path id="&lt;Path&gt;" class="s2" d="m242.83 1565.71q0.34 2.61 0.33 5.31c-0.06 10.27-4.06 19.6-10.57 26.59-3.82 4.1-9.24 6.35-14.86 6.32l-29.3-0.17c-5.58-0.04-10.95-2.31-14.7-6.4-6.26-6.84-10.14-15.86-10.34-25.77q-0.05-3.23 0.43-6.34z"/>
	<path id="&lt;Compound Path&gt;" class="s1" d="m217.85 1604.78h-0.12l-29.31-0.17c-5.88-0.04-11.46-2.47-15.31-6.68-6.62-7.23-10.37-16.58-10.57-26.32q-0.06-3.14 0.44-6.49c0.06-0.41 0.42-0.72 0.84-0.72q0 0 0 0l79.02 0.46c0.42 0 0.78 0.32 0.83 0.74q0.35 2.69 0.34 5.42c-0.06 10.1-3.89 19.75-10.8 27.17-3.9 4.19-9.5 6.59-15.36 6.59zm-53.29-38.68q-0.37 2.82-0.32 5.47c0.19 9.34 3.78 18.29 10.12 25.22 3.53 3.86 8.66 6.09 14.07 6.12l29.42 0.17c5.39 0 10.54-2.21 14.12-6.05 6.61-7.1 10.29-16.34 10.34-26.02q0.01-2.24-0.23-4.46z"/>
	<path id="&lt;Path&gt;" class="s3" d="m212.07 1547.05c0.05-7.1 5.84-12.83 12.94-12.79 7.1 0.04 12.83 5.84 12.78 12.94-0.04 7.1-5.83 12.82-12.93 12.78-7.1-0.04-12.83-5.83-12.79-12.93z"/>
	<path id="&lt;Path&gt;" class="s3" d="m233.23 1561.36c0.02-2.67 2.2-4.83 4.87-4.81 2.68 0.02 4.83 2.2 4.82 4.87-0.02 2.67-2.2 4.83-4.87 4.81-2.68-0.01-4.83-2.19-4.82-4.87z"/>
	<path id="&lt;Path&gt;" class="s0" d="m510.27 1543.24v-55.87h-19.93v55.87l-31.07 54.38c-2.46 4.31 0.65 9.66 5.6 9.66h70.87c4.96 0 8.06-5.35 5.6-9.66z"/>
	<path id="&lt;Compound Path&gt;" class="s1" d="m535.74 1608.13h-70.87c-2.63 0-4.99-1.36-6.32-3.64-1.32-2.27-1.33-5-0.02-7.29l30.96-54.18v-55.65c0-0.46 0.38-0.84 0.85-0.84h19.93c0.47 0 0.85 0.38 0.85 0.84v55.65l30.96 54.18c1.31 2.29 1.3 5.02-0.02 7.29-1.33 2.28-3.69 3.64-6.32 3.64zm-44.55-119.91v55.03q0 0.22-0.11 0.42l-31.08 54.37c-1 1.76-0.99 3.85 0.02 5.6 1.02 1.75 2.83 2.79 4.85 2.79h70.87c2.02 0 3.83-1.04 4.85-2.79 1.01-1.75 1.02-3.84 0.02-5.6l-31.08-54.37q-0.11-0.2-0.11-0.42v-55.03z"/>
	<path id="&lt;Path&gt;" class="s1" d="m515.58 1559.84h-30.87l-20.46 35.8c-2.15 3.76 0.57 8.45 4.9 8.45h61.98c4.34 0 7.05-4.69 4.9-8.45z"/>
	<path id="&lt;Path&gt;" class="s0" d="m511.21 1489.66h-21.52c-0.92 0-1.68-0.75-1.68-1.68v-1.05c0-0.92 0.76-1.68 1.68-1.68h21.52c0.92 0 1.67 0.76 1.67 1.68v1.05c0 0.93-0.75 1.68-1.67 1.68z"/>
	<path id="&lt;Compound Path&gt;" class="s1" d="m511.46 1490.51h-22.02c-1.26 0-2.28-1.02-2.28-2.27v-1.57c0-1.25 1.02-2.27 2.28-2.27h22.02c1.25 0 2.27 1.02 2.27 2.27v1.57c0 1.25-1.02 2.27-2.27 2.27zm-22.02-4.41c-0.32 0-0.58 0.26-0.58 0.57v1.57c0 0.31 0.26 0.57 0.58 0.57h22.02c0.31 0 0.58-0.26 0.58-0.57v-1.57c0-0.31-0.26-0.57-0.58-0.57z"/>
	<path id="&lt;Path&gt;" class="s3" d="m503.81 1586.52c0-0.82-0.66-1.47-1.47-1.47-0.81 0-1.47 0.65-1.47 1.47 0 0.81 0.66 1.47 1.47 1.47 0.81 0 1.47-0.66 1.47-1.47z"/>
	<path id="&lt;Path&gt;" class="s3" d="m497.56 1572.91c0-3.24-2.64-5.88-5.88-5.88-3.25 0-5.89 2.64-5.89 5.88 0 3.25 2.64 5.89 5.89 5.89 3.24 0 5.88-2.64 5.88-5.89z"/>
	<path id="&lt;Path&gt;" class="s3" d="m514.47 1571.99c0-1.11-0.91-2.02-2.02-2.02-1.12 0-2.02 0.91-2.02 2.02 0 1.12 0.9 2.03 2.02 2.03 1.11 0 2.02-0.91 2.02-2.03z"/>
	<path id="&lt;Path&gt;" class="s3" d="m492.04 1595.52c0-1.72-1.4-3.12-3.12-3.12-1.73 0-3.13 1.4-3.13 3.12 0 1.73 1.4 3.13 3.13 3.13 1.72 0 3.12-1.4 3.12-3.13z"/>
	<path id="&lt;Path&gt;" class="s1" d="m516.41 1472.05c0-1.87-1.51-3.39-3.38-3.39-1.87 0-3.39 1.52-3.39 3.39 0 1.87 1.52 3.38 3.39 3.38 1.87 0 3.38-1.51 3.38-3.38z"/>
	<path id="&lt;Path&gt;" class="s1" d="m499.66 1455.48c0-1.58-1.27-2.85-2.85-2.85-1.57 0-2.85 1.27-2.85 2.85 0 1.57 1.28 2.85 2.85 2.85 1.58 0 2.85-1.28 2.85-2.85z"/>
	<path id="&lt;Path&gt;" class="s1" d="m502.16 1474.01c0-3.35-2.71-6.06-6.06-6.06-3.34 0-6.06 2.71-6.06 6.06 0 3.34 2.72 6.06 6.06 6.06 3.35 0 6.06-2.72 6.06-6.06z"/>
	<g id="Layer 1">
		<path id="&lt;Path&gt;" class="s0" d="m394.75 760.22c25.09 24.1 40.25 56.41 56.62 87.12 31.05 58.24 75.21 118.02 140.1 130.11 22.58 4.21 45.92 2.12 68.43-2.41 111.49-22.41 207.82-108.56 242.49-216.86 18.2-56.84 20.2-117.48 19.98-177.15-0.26-69.6-3.33-139.14-6.4-208.67q-1.61-36.39-3.21-72.77c-0.47-10.68-1.02-21.67-5.43-31.4-4.6-10.15-13.04-18.06-21.91-24.81-33-25.15-75.21-37.93-116.62-35.3-34.94 2.22-76.09 12.92-100.44-12.22-21.8-22.49-16.98-63.32-41.51-82.79-7.99-6.35-18.06-9.39-27.97-11.85-78.15-19.36-161.53-9.76-237.65 16.48-68.19 23.5-135.24 63.76-167.23 128.4-8.13 16.45-13.86 34.66-12.39 52.96 1.07 13.31 5.87 26 10.21 38.63 9.52 27.73 17.07 57.46 11.06 86.15-5.96 28.46-24.57 52.69-33.15 80.47-10.91 35.33-4.48 74.76 13.44 107.1 17.93 32.33 46.58 57.89 78.78 76.08 44.14 24.93 96.24 37.6 132.8 72.73z"/>
		<path id="&lt;Path&gt;" class="s1" d="m732.21 145.23l18.22-5.79-18.22-6.22c-5.46-1.43-9.63-5.82-10.8-11.34l-5.78-27.37-6.21 26.78c-1.31 5.65-5.77 10.02-11.45 11.22l-17.16 5.91 16.56 5.84c5.81 1.34 10.25 6.01 11.31 11.87l4.78 26.48 6.98-26.5c1.47-5.61 6.06-9.85 11.77-10.88z"/>
		<path id="&lt;Path&gt;" class="s1" d="m187.61 208.4l18.23-5.78-18.23-6.23c-5.45-1.43-9.63-5.82-10.79-11.33l-5.79-27.37-6.21 26.78c-1.31 5.64-5.77 10.02-11.44 11.22l-17.16 5.9 16.56 5.84c5.8 1.35 10.24 6.02 11.3 11.88l4.79 26.47 6.97-26.5c1.48-5.6 6.07-9.85 11.77-10.88z"/>
		<path id="&lt;Path&gt;" class="s1" d="m139.05 535.3l10.91-3.46-10.91-3.72c-3.26-0.86-5.76-3.48-6.46-6.79l-3.46-16.37-3.72 16.02c-0.78 3.38-3.45 6-6.84 6.71l-10.27 3.54 9.91 3.49c3.47 0.81 6.13 3.6 6.76 7.11l2.87 15.84 4.17-15.86c0.88-3.35 3.63-5.89 7.04-6.51z"/>
		<path id="&lt;Path&gt;" class="s2" d="m1014.54 381.78c-2.38-21.41 11.9-39.81 4.76-49.64-7.14-9.83-25.7-14.95-54.48-14.18-28.78 0.78-109.25 15.05-110.06 36.46-0.8 21.41 9.18 18.33 11.09 27.36 1.92 9.03 3.57 31.13 3.57 31.13z"/>
		<path id="&lt;Compound Path&gt;" class="s1" d="m869.42 415.09c-0.46 0-0.92-0.15-1.3-0.43-0.51-0.38-0.82-0.96-0.87-1.59-0.02-0.22-1.66-22.06-3.53-30.84-0.55-2.62-1.89-3.9-3.74-5.67-3.54-3.38-7.94-7.6-7.39-22.22 0.92-24.49 86.36-37.86 112.17-38.55 29.16-0.78 48.6 4.46 56.3 15.07 4.34 5.97 2.07 14.05-0.56 23.41-2.29 8.17-4.89 17.43-3.79 27.27 0.12 1.11-0.62 2.14-1.71 2.37l-145.12 31.13q-0.23 0.05-0.46 0.05zm100.97-95.02q-2.69 0-5.51 0.07c-31.84 0.86-107.25 16.17-107.94 34.36-0.47 12.67 2.84 15.85 6.05 18.92 2.05 1.95 4.16 3.98 4.99 7.91 1.57 7.35 2.93 22.85 3.42 28.93l140.8-30.21c-0.68-9.9 1.86-18.93 4.11-26.96 2.42-8.61 4.32-15.41 1.23-19.67-6.34-8.74-22.65-13.35-47.15-13.35z"/>
		<path id="&lt;Path&gt;" class="s1" d="m964.82 353.55c31.88-8.05 41.58-11.62 41.19-18.16-0.39-6.54-22.46-2.93-35.81-3.25-13.35-0.32-98.33 3.02-104.94 21.41-6.61 18.4 64.83 4.89 64.83 4.89z"/>
		<path id="&lt;Path&gt;" class="s3" d="m1027.04 138.48c-8.11-1.71-16.14 3.16-17.93 10.86-0.99 4.25-2.59 9.96-4.5 16.33 1.81-14.47 3.13-28.57 2.98-37.99-0.12-7.9-6.96-14.21-15.28-14.11-8.29 0.13-14.94 6.59-14.82 14.49 0.13 7.91-1.01 20.1-2.6 32.97 0.58-20.5 0.47-39.95-1.41-49.23-1.58-7.75-9.47-12.84-17.63-11.36-8.12 1.47-13.5 8.96-11.93 16.72 1.55 7.63 1.44 28.11 0.61 50.89q-0.85-7.75-3.28-14.04-3.48-9.02-10.25-15.13c-4.8-4.33-9.05-7.89-15.59-9.24-5.37-1.12-10.96-0.79-16.34 0.27-9.31 1.84-18.9 6.58-22.72 15.28-2.72 6.19-1.4 14.56 5.5 17.25 2.86 1.11 6.03 1.11 9.07 0.67 1.63-0.24 14.35-4.05 15.2-2.34 2.22 4.47 4.84 15.6 2.39 32.47-2.14 10.94-3.68 16.16-8.21 26.02-0.03 0.03-9.81 13.95-12.67 9.49-2.88-4.45-3.05-24.05-3.92-35.52-0.86-11.47-14.6-20.96-23.65-5.55-9.05 15.42-6.17 40.41-0.62 72.38 5.55 31.97 15.26 36.96 26.5 48.16-0.03 0.71 4.64 40.39 4.12 50.22 41.27 0 75.79 0 100.06-15.16v-31.45c16.87-19.64 28.58-70.84 27.56-89.43 5.65-16.56 17.03-50.56 20.81-66.85 1.79-7.71-3.33-15.35-11.45-17.07z"/>
		<path id="&lt;Compound Path&gt;" class="s1" d="m890.06 360.62c-0.6 0-1.17-0.25-1.58-0.68-0.41-0.44-0.63-1.02-0.59-1.62 0.4-7.68-2.54-35-3.65-45.28-0.21-2.03-0.34-3.17-0.4-3.83q-1.95-1.9-3.82-3.65c-9.55-8.98-17.79-16.73-22.73-45.13-5.3-30.54-8.89-57.18 0.9-73.85 4.42-7.54 9.55-9.12 13.07-9.12 7.29 0 13.99 7.15 14.63 15.61 0.21 2.79 0.38 6.06 0.56 9.47 0.47 9.2 1.12 21.73 2.92 24.89 1.6-0.38 5.74-4.62 9.03-9.27 4.5-9.8 5.94-14.96 7.97-25.34 2.09-14.43 0.39-25.13-1.84-30.31-2.36 0.03-7.61 1.36-10.44 2.08-1.6 0.41-2.39 0.6-2.86 0.67q-5.91 0.87-10.17-0.79c-3.25-1.27-5.69-3.67-7.05-6.95-1.66-4-1.53-8.93 0.34-13.21 3.59-8.17 12.45-14.2 24.3-16.54 6.31-1.24 12.09-1.33 17.21-0.27 6.95 1.45 11.44 5.11 16.59 9.76 4.44 4 7.92 8.98 10.36 14.8 0.36-17.54 0.02-29.33-1.02-34.46-0.86-4.2 0.02-8.5 2.45-12.09 2.59-3.81 6.57-6.38 11.22-7.22q1.61-0.28 3.22-0.29c8.24 0 15.36 5.63 16.93 13.37q0.76 3.74 1.19 9.79c2.65-5.66 8.57-9.66 15.48-9.77 0.01 0 0.22 0 0.23 0 9.38 0 17.12 7.29 17.26 16.25q0.1 6.42-0.68 16.23c3.07-4.78 8.6-7.91 14.67-7.91q1.88 0 3.74 0.39c4.63 0.98 8.54 3.65 11.01 7.53 2.33 3.66 3.08 7.98 2.11 12.16-3.7 15.92-14.52 48.43-20.74 66.67 0.8 18.44-10.36 69.11-27.58 89.92v30.65c0 0.75-0.39 1.45-1.03 1.85-24.8 15.49-60.21 15.49-101.21 15.49zm-18.8-178.8c-3.42 0-6.64 2.41-9.32 6.96-9.02 15.38-5.32 42.31-0.35 70.9 4.68 26.97 12.06 33.92 21.41 42.71 1.46 1.37 2.95 2.77 4.47 4.29 0.43 0.42 0.66 1.01 0.64 1.61 0.02 0.18 0.2 1.81 0.47 4.28 1.12 10.44 3.63 33.75 3.7 43.69 38.81 0 72.39-0.26 95.66-14.2v-30.22c0-0.53 0.19-1.03 0.53-1.42 16.39-19.1 28.02-69.99 27.04-87.9q-0.03-0.42 0.11-0.83c6.17-18.08 17.07-50.78 20.75-66.63 0.71-3.04 0.16-6.18-1.54-8.84-1.83-2.88-4.76-4.87-8.24-5.6q-1.4-0.3-2.83-0.3c-5.98 0-11.25 4-12.53 9.51-0.92 3.97-2.45 9.51-4.53 16.47-0.33 1.08-1.42 1.74-2.54 1.5-1.11-0.23-1.85-1.28-1.71-2.4 2.1-16.81 3.09-29.49 2.96-37.69-0.1-6.6-5.89-11.97-12.9-11.97-7.26 0.11-12.94 5.62-12.84 12.28 0.12 7.12-0.77 18.32-2.62 33.28-0.15 1.15-1.18 2-2.33 1.91-1.16-0.09-2.04-1.08-2.01-2.24 0.69-24.44 0.24-40.83-1.37-48.73-1.16-5.73-6.48-9.88-12.66-9.88q-1.22 0-2.44 0.22c-3.49 0.63-6.47 2.54-8.39 5.37-1.77 2.62-2.41 5.74-1.79 8.78 1.76 8.71 1.32 32.76 0.64 51.39-0.04 1.15-0.95 2.06-2.09 2.1-1.2 0.11-2.13-0.8-2.25-1.94-0.55-4.97-1.6-9.51-3.14-13.48-2.2-5.69-5.46-10.5-9.68-14.31-4.81-4.33-8.67-7.5-14.57-8.72-4.55-0.95-9.74-0.86-15.47 0.28-4.94 0.97-16.89 4.29-21.16 14.02-1.38 3.15-1.5 6.9-0.31 9.78q1.37 3.29 4.61 4.56 3.19 1.24 7.96 0.54c0.35-0.05 1.24-0.28 2.42-0.58 3.47-0.88 8.73-2.22 11.59-2.22 0.66 0 2.65 0 3.47 1.66 2.8 5.65 4.95 17.48 2.58 33.74-2.13 10.93-3.63 16.28-8.38 26.62q-0.08 0.17-0.19 0.33c-1.31 1.89-8.1 11.31-12.93 11.31-1.39 0-2.59-0.67-3.37-1.88-2.31-3.59-2.97-13.09-3.7-27.16-0.17-3.38-0.34-6.61-0.55-9.37-0.46-6.17-5.27-11.58-10.28-11.58z"/>
		<path id="&lt;Path&gt;" class="s1" d="m954.38 292.18q-0.09 0-0.18-0.03c-0.67-0.14-1.09-0.79-0.94-1.43 11.2-45.86-31.11-59.86-32.92-60.43-0.66-0.21-1.01-0.88-0.8-1.51 0.22-0.62 0.95-0.96 1.59-0.75 0.46 0.15 46.3 15.23 34.57 63.24-0.14 0.58-0.71 0.96-1.32 0.91z"/>
		<path id="&lt;Path&gt;" class="s1" d="m1007.06 213.17q-0.18 0.02-0.37-0.02c-0.59-0.12-58.49-12.38-79.79-14.91-0.69-0.08-1.17-0.68-1.09-1.33 0.08-0.65 0.69-1.1 1.4-1.04 21.42 2.55 79.44 14.83 80.02 14.95 0.67 0.15 1.1 0.78 0.95 1.42-0.12 0.53-0.58 0.89-1.12 0.93z"/>
		<path id="&lt;Path&gt;" class="s1" d="m664.74 689.86q-0.11 0.03-0.22 0c-0.21-0.07-0.33-0.27-0.27-0.47l5.2-16.12c0.06-0.2 0.27-0.31 0.48-0.25 0.21 0.07 0.33 0.27 0.27 0.47l-5.2 16.12q-0.07 0.19-0.26 0.25z"/>
		<path id="&lt;Path&gt;" class="s1" d="m654.67 687.22q-0.09 0.03-0.19 0.01c-0.22-0.04-0.35-0.24-0.31-0.44l3.41-15.79c0.04-0.21 0.25-0.33 0.47-0.29 0.21 0.04 0.34 0.24 0.3 0.44l-3.41 15.79q-0.06 0.22-0.27 0.28z"/>
		<path id="&lt;Path&gt;" class="s1" d="m644.83 685.65q-0.08 0.02-0.17 0.01c-0.21-0.03-0.36-0.22-0.32-0.43l1.76-10.64c0.03-0.21 0.23-0.34 0.44-0.31 0.21 0.03 0.36 0.22 0.32 0.42l-1.75 10.65c-0.03 0.15-0.14 0.26-0.28 0.3z"/>
		<path id="&lt;Path&gt;" class="s3" d="m465.21 434.4c-27.57-1.47-40.66 11.44-44.23 19.85-3.57 8.42-15.46 14.36-15.46 14.36 0 0-83.27 7.34-122.52 43.52-39.25 36.18-118.95 230.84-146.31 340.27-27.36 109.44-27.36 131.62-27.36 131.62h260.5l117.24-68.57z"/>
		<path id="&lt;Compound Path&gt;" class="s1" d="m369.83 984.02h-260.5c-1.2 0-2.17-0.64-2.17-1.84 0-0.89 0.31-22.78 27.42-131.22 27.87-111.49 107.11-303.8 146.94-340.52 38.3-35.3 116.09-43.32 123.37-44 1.92-1.03 11.2-6.26 14.09-13.06 4.16-9.82 17.65-21.28 41.97-21.28q2.13 0 4.38 0.12c1.12 0.06 2.01 0.96 2.06 2.08l21.86 480.3c0.03 0.81-0.38 1.58-1.09 1.98l-117.24 67.48c-0.33 0.2-0.7-0.04-1.09-0.04zm-258.17-2.57h257.59l115.58-67.42-21.7-477.26c-23.63-0.69-36.38 9.6-40.14 18.47-3.84 9.05-15.98 15.13-16.5 15.39q-0.37 0.17-0.78 0.19c-0.83 0.07-82.99 7.67-121.23 42.93-38.31 35.31-118.28 229.4-145.67 338.99-22.46 89.82-26.44 118.45-27.15 128.71z"/>
		<path id="&lt;Path&gt;" class="s3" d="m548.33 440.07c0 0 18.14 7.13 31.23 7.13 13.08 0 19.22 13.09 19.22 13.09 0 0 25.01-11.9 76.16-10.11 51.15 1.78 203.01 139.07 203.01 139.07l-17.97-202.71 20.2 1.75c40.91 3.55 82.1-2.1 120.55-16.52l22.81-8.55c0 0 60.19 367.13-33.39 420.21-103.51 58.73-227.51-72.16-227.51-72.16 0 0-5.95 74.98-16.65 115.43-10.71 40.44 45.6 155.78 45.6 155.78h-120.14z"/>
		<path id="&lt;Compound Path&gt;" class="s1" d="m791.63 984.66q-0.02 0-0.04 0h-120.14c-1.02 0-1.9-0.71-2.13-1.7l-123.11-542.41c-0.18-0.79 0.09-1.61 0.71-2.14 0.61-0.52 1.46-0.67 2.21-0.37 0.18 0.07 17.92 6.99 30.43 6.99 11.31 0 17.81 8.59 20.17 12.48 6.2-2.47 27.49-9.69 64.88-9.69 3.41 0 6.91 0.06 10.41 0.18 47.21 1.65 175.13 113.55 200.27 135.94l-17.48-197.21c-0.05-0.64 0.18-1.27 0.63-1.73 0.46-0.46 1.1-0.69 1.73-0.63l20.2 1.75c7.82 0.68 15.76 1.02 23.61 1.02 32.89 0 65.18-5.86 95.98-17.41l22.82-8.55c0.6-0.23 1.29-0.18 1.85 0.15 0.57 0.33 0.95 0.89 1.06 1.54 0.15 0.91 15.11 93.05 18.42 190.48 4.48 131.48-13.31 209.53-52.88 231.98-18.06 10.24-37.96 15.44-59.15 15.44-76.84 0-151.22-68.5-167.67-84.63-1.51 17.1-7.23 76.78-16.31 111.11-10.09 38.12 41.89 146.91 45.28 153.92 0.27 0.37 0.43 0.82 0.43 1.31 0 1.2-0.98 2.18-2.18 2.18zm-118.44-4.36h114.93c-9.11-19.15-54.16-116.68-44.24-154.16 10.54-39.8 16.53-114.29 16.59-115.04 0.07-0.86 0.63-1.6 1.45-1.88 0.8-0.29 1.71-0.07 2.3 0.55 0.82 0.87 83.09 86.64 167.86 86.64 20.43 0 39.6-5 57-14.87 87.08-49.4 37.86-382.24 32.72-415.34l-20.31 7.61c-31.29 11.74-64.1 17.69-97.51 17.69-7.97 0-16.04-0.35-23.98-1.04l-17.62-1.53 17.74 200.13c0.07 0.89-0.4 1.74-1.2 2.14-0.8 0.4-1.77 0.27-2.44-0.33-1.51-1.37-151.84-136.78-201.61-138.52-3.45-0.12-6.9-0.18-10.26-0.18-43.06 0-64.69 9.98-64.9 10.08-0.52 0.26-1.13 0.28-1.67 0.09-0.54-0.2-0.99-0.6-1.23-1.13-0.06-0.11-5.75-11.83-17.25-11.83-9.81 0-22.1-3.78-28.22-5.9z"/>
		<path id="&lt;Path&gt;" class="s1" d="m711.74 673.46c32.79 68.74 12.56 158.67 12.56 173 0 14.32 47.9 137.56 47.9 137.56h-100.23l-18.36-185.74z"/>
		<path id="&lt;Path&gt;" class="s4" d="m588.37 474.31c24.19 41.2 106.79 125.2 120.19 190.23 13.4 65.02-19.92 147.64-19.92 163.06 0 15.42-1.61 156.42-1.61 156.42h-317.2c0 0 38.01-75.45 60.24-159.04 22.24-83.6 9.49-153.92 0-206.97-9.48-53.06 0-144.35 0-144.35z"/>
		<path id="&lt;Compound Path&gt;" class="s1" d="m687.03 984.02h-317.2c-0.75 0-1.46-0.05-1.85-0.7q-0.6-0.96-0.09-1.96c0.38-0.74 38.16-75.38 60.08-157.78 21.96-82.58 9.35-153.07 0.14-204.58l-0.18-1.01c-9.43-52.74-0.12-144.13-0.03-145.05 0.12-1.11 1.06-2.23 2.17-2.23q0.01 0 0.01 0l158.3 1.13c0.77 0 1.48 0.56 1.87 1.22 7.56 12.87 20.81 29.95 36.15 49.64 33.42 42.91 75.01 96.34 84.29 141.36 9.91 48.1-5.25 104.51-14.3 138.2-3.12 11.58-5.57 20.73-5.57 24.58 0 15.26-1.59 153.96-1.61 155.36-0.01 1.19-0.98 1.82-2.18 1.82zm-313.68-2.57h311.53c0.2-17.96 1.58-139.86 1.58-154.05 0-4.42 2.4-13.62 5.72-25.97 8.96-33.32 23.95-89.23 14.25-136.31-9.08-44.03-50.33-97.05-83.47-139.6-15.02-19.28-28.05-36.03-35.83-49.01l-155.08-0.83c-1.3 13.55-8.39 93.72 0.17 141.58l0.18 1.03c9.28 51.9 21.99 123.54-0.22 207.05-19.48 73.24-51.42 140.71-58.83 156.11z"/>
		<path id="&lt;Path&gt;" class="s1" d="m458.61 421.7c-6.84-30.28-14.65-29.3-37.12-49.81-22.46-20.51-66.42-49.82-47.86-124.05 18.56-74.23 44.93-81.07 92.79-93.77 47.86-12.69 95.72 0.98 120.14-0.97 24.42-1.96 63.49 17.58 52.75 53.72-10.75 36.14-27.35 44.93-27.35 44.93z"/>
		<path id="&lt;Path&gt;" class="s3" d="m597.31 184.11c0 0 13.92 11.72 20.51 36.63 6.59 24.9 7.37 33.66 10.37 52.72 1.44 9.16 21.13 19.63 22.6 26.95 1.46 7.33-10.26 18.49-10.26 18.49 0 0 10.25 64.47-24.91 78.38-35.16 13.92-53.48 17.59-53.48 17.59l-1.13 36.18c-0.2 6.49 3.5 12.46 9.39 15.17l17.38 7.98c0 0 16.85 37.36-13.18 55.68-30.04 18.31-145.05-56.41-145.05-56.41l9.25-6.25c11.32-7.65 18.7-19.9 20.17-33.49l3.55-32.78c0 0 32.23-44.69 33.69-52.75 0 0-29.3 2.93-35.89-20.51-6.59-23.44 16.85-41.02 27.84-41.02 10.98 0 20.51 8.79 20.51 8.79 0 0 79.85-51.28 88.64-111.35z"/>
		<path id="&lt;Compound Path&gt;" class="s1" d="m561.98 534.95c-41.33 0-129.87-57.22-133.62-59.65-0.61-0.4-0.98-1.08-0.99-1.81 0-0.73 0.36-1.42 0.96-1.82l9.25-6.25c10.82-7.31 17.82-18.95 19.23-31.93l3.54-32.78q0.07-0.57 0.4-1.04c11.4-15.81 28.03-40.05 32.32-49.17-8.64-0.01-29.22-2.2-34.85-22.22-2.8-9.98-0.69-20.31 5.96-29.08 6.35-8.39 16.66-14.71 23.98-14.71 9.36 0 17.55 5.75 20.67 8.25 10.43-7.03 78.4-54.79 86.32-108.95 0.12-0.78 0.65-1.44 1.38-1.72 0.74-0.28 1.58-0.14 2.18 0.37 0.59 0.5 14.52 12.46 21.22 37.74 5.55 20.97 7.03 30.78 9.09 44.36 0.41 2.66 0.83 5.48 1.32 8.58 0.64 4.11 6.49 9.26 11.64 13.81 5.43 4.78 10.12 8.92 10.94 13.06 1.47 7.3-7.16 16.75-10.07 19.69 1.25 9.03 7.76 66.09-26.43 79.63-29.35 11.62-46.85 16.09-52.15 17.32l-1.08 34.49c-0.17 5.62 3.01 10.77 8.12 13.12l17.38 7.98c0.48 0.22 0.86 0.61 1.08 1.09 0.18 0.39 17.28 39.33-14.04 58.43-3.49 2.12-8.11 3.2-13.75 3.21zm-128.46-61.53c15.57 9.83 92.39 57.17 128.46 57.17q0 0 0 0c4.82 0 8.69-0.87 11.48-2.57 25.83-15.75 14.71-47.03 12.64-52.2l-16.61-7.63c-6.7-3.07-10.88-9.83-10.65-17.2l1.13-36.19c0.03-1.02 0.76-1.87 1.75-2.07 0.18-0.04 18.58-3.81 53.1-17.47 33.16-13.13 23.66-75.39 23.56-76.02-0.11-0.71 0.13-1.42 0.65-1.92 4.19-4 10.52-12.01 9.62-16.48-0.54-2.7-5.33-6.92-9.55-10.65-5.99-5.27-12.18-10.73-13.06-16.4-0.49-3.1-0.92-5.93-1.33-8.6-2.11-13.94-3.51-23.15-9-43.9-4.54-17.17-12.68-27.92-16.97-32.67-11.68 58.48-85.68 106.61-88.89 108.67-0.84 0.53-1.93 0.44-2.66-0.23-0.09-0.08-9.06-8.21-19.03-8.21-5.25 0-14.35 4.85-20.51 12.98-4.11 5.42-8.35 14.2-5.23 25.27 4.83 17.19 23.07 19.04 30.69 19.04 1.78 0 2.88-0.11 2.89-0.11 0.69-0.07 1.35 0.2 1.82 0.7 0.46 0.5 0.66 1.19 0.54 1.86-1.47 8.07-29.14 46.77-33.74 53.16l-3.48 32.21c-1.54 14.26-9.24 27.04-21.12 35.07z"/>
		<path id="&lt;Path&gt;" class="s1" d="m621.73 391.42c-31.26 12.21-97.19 6.35-97.19 6.35 0 0 15.38 28.82 35.41 36.63l2.19-19.53 41.03-13.19z"/>
		<path id="&lt;Path&gt;" class="s1" d="m611.99 274.16c-1.03-6.43-4.41-11.23-7.54-10.73-3.14 0.5-4.85 6.12-3.82 12.54 1.02 6.43 4.4 11.23 7.54 10.73 3.14-0.5 4.85-6.12 3.82-12.54z"/>
		<path id="&lt;Path&gt;" class="s3" d="m457.93 182.45c10.05-1.64 18.11 7.81 27.45 11.87 23.67 10.29 52.12-15.12 75.55-4.3 2.21 1.02 4.45 2.56 5.09 4.92 0.43 1.58 0.05 3.26-0.4 4.84-3.17 11.05-10.07 20.99-19.32 27.81-3 2.21-6.36 4.14-10.05 4.6-9.43 1.17-16.98-7.09-25.16-11.91-8.12-4.79-18.08-6.35-27.28-4.28-8.29 1.86-15.79 6.49-24.15 8-8.37 1.5-18.76-1.68-20.96-9.89-1.26-4.72 0.56-9.68 2.52-14.16 3.37-7.73 8.39-16.15 16.71-17.5z"/>
		<path id="&lt;Compound Path&gt;" class="s1" d="m534.44 233.39c-6.51 0-12.12-4.01-17.55-7.9-2.08-1.48-4.22-3.02-6.36-4.27-5.57-3.29-12.01-5.03-18.61-5.03-2.66 0-5.31 0.3-7.87 0.87-3.81 0.86-7.56 2.35-11.18 3.8-4.17 1.67-8.48 3.4-13.02 4.21q-2.1 0.38-4.31 0.38c-7.43 0-15.85-3.42-17.89-11.06-1.37-5.14 0.61-10.37 2.57-14.88 3.08-7.06 8.25-16.63 17.53-18.14q1.25-0.2 2.5-0.2c6.06 0 11.45 3.54 16.66 6.97 2.88 1.9 5.87 3.86 8.91 5.18 3.74 1.63 7.78 2.42 12.37 2.42 7.9 0 16.34-2.41 24.49-4.74 8.28-2.37 16.83-4.81 24.99-4.81 5.09 0 9.57 0.93 13.71 2.84 3.17 1.46 5.08 3.35 5.69 5.62 0.49 1.82 0.1 3.68-0.41 5.43-3.24 11.32-10.24 21.4-19.72 28.39-2.45 1.8-6.2 4.26-10.56 4.8q-0.98 0.12-1.94 0.12zm-42.52-19.37c6.99 0 13.81 1.84 19.72 5.32 2.21 1.3 4.4 2.87 6.51 4.38 5.9 4.22 11.45 8.2 17.96 7.39 2.93-0.36 5.96-1.76 9.54-4.4 9.09-6.7 15.81-16.37 18.92-27.23 0.39-1.35 0.77-2.9 0.4-4.26q-0.67-2.44-4.5-4.21c-3.85-1.78-8.03-2.64-12.8-2.64-7.85 0-16.26 2.4-24.39 4.72-8.3 2.37-16.88 4.83-25.09 4.83-4.89 0-9.22-0.85-13.24-2.6-3.21-1.4-6.28-3.41-9.24-5.36-5.17-3.4-10.05-6.61-15.46-6.61q-1.08 0-2.15 0.17c-8.22 1.34-13 10.26-15.88 16.86-1.82 4.17-3.66 8.99-2.47 13.45 1.75 6.52 9.19 9.44 15.79 9.44q2.01 0 3.92-0.34c4.32-0.78 8.53-2.46 12.6-4.09 3.7-1.48 7.53-3.01 11.52-3.91 2.71-0.6 5.51-0.91 8.34-0.91z"/>
		<path id="&lt;Path&gt;" class="s1" d="m720.32 722.23q-0.05 0-0.09 0c-1.21 0-2.14-1.98-2.09-3.18l3.86-94.64-56.69-73.34c-0.3-0.39-0.43-1.09-0.43-1.57v-55.93c-7.7-2.55-44.31-14.67-67.73-31.52-0.97-0.7-1.21-2.07-0.5-3.04 0.7-0.98 2.06-1.2 3.03-0.5 25.29 18.21 67.96 31.25 68.38 31.38 0.92 0.28 1.95 1.12 1.95 2.08v56.78l56.33 73.16c0.31 0.41 0.27 0.91 0.25 1.43l-4 95.88c-0.04 1.18-1.11 3.01-2.27 3.01z"/>
		<path id="&lt;Path&gt;" class="s1" d="m763.16 713.45q-0.16 0-0.33-0.03c-1.19-0.18-2-1.29-1.82-2.48 7.78-50.56-7.75-127.64-7.91-128.41-0.24-1.18 0.52-2.33 1.7-2.57 1.17-0.23 2.32 0.52 2.57 1.7 0.15 0.78 15.84 78.61 7.94 129.94-0.16 1.08-1.09 1.85-2.15 1.85z"/>
		<path id="&lt;Path&gt;" class="s1" d="m762.06 628.6q-0.64 0-1.21-0.37c-1-0.67-1.27-2.02-0.6-3.02l16.96-25.37c0.67-1 2.02-1.27 3.02-0.6 1 0.66 1.27 2.02 0.6 3.02l-16.96 25.37c-0.42 0.63-1.11 0.97-1.81 0.97z"/>
		<path id="&lt;Path&gt;" class="s1" d="m279.43 984.66q-0.24 0-0.49-0.06c-1.17-0.27-1.9-1.44-1.63-2.62 7.06-30.41 69.56-281.78 70.19-284.32 0.29-1.17 1.47-1.88 2.64-1.59 1.17 0.3 1.88 1.48 1.59 2.64-0.63 2.54-63.12 253.88-70.18 284.26-0.23 1.01-1.13 1.69-2.12 1.69z"/>
		<path id="&lt;Path&gt;" class="s3" d="m362.7 711.27l-20.95 18.56"/>
		<path id="&lt;Path&gt;" class="s1" d="m341.75 732.01c-0.6 0-1.2-0.25-1.63-0.74-0.8-0.9-0.72-2.27 0.19-3.07l20.94-18.56c0.9-0.8 2.28-0.72 3.08 0.19 0.79 0.9 0.71 2.27-0.19 3.07l-20.95 18.56c-0.41 0.37-0.93 0.55-1.44 0.55z"/>
		<path id="&lt;Path&gt;" class="s3" d="m290.14 524.04c0 0 49.96 13.37 59.47 65.21"/>
		<path id="&lt;Path&gt;" class="s1" d="m349.61 591.43c-1.03 0-1.95-0.74-2.14-1.79-9.15-49.83-57.41-63.37-57.9-63.5-1.16-0.31-1.85-1.51-1.54-2.67 0.32-1.16 1.51-1.84 2.67-1.54 0.51 0.14 51.4 14.34 61.05 66.93 0.22 1.18-0.56 2.32-1.74 2.53q-0.2 0.04-0.4 0.04z"/>
		<path id="&lt;Path&gt;" class="s3" d="m416.83 460.28c-10.12 36.88-38.67 63.76-38.67 63.76l32.12 65.21-18.55 84.21c0 0 42.96 97.48 30.75 177.08"/>
		<path id="&lt;Path&gt;" class="s1" d="m422.48 852.72q-0.16 0-0.33-0.03c-1.19-0.18-2-1.29-1.82-2.48 11.97-78.04-30.16-174.91-30.59-175.88-0.19-0.42-0.23-0.89-0.13-1.34l18.38-83.46-31.78-64.53c-0.43-0.86-0.24-1.89 0.46-2.55 0.28-0.26 28.22-26.91 38.06-62.75 0.32-1.16 1.51-1.84 2.68-1.52 1.16 0.32 1.84 1.52 1.52 2.68-9.12 33.25-32.55 58.08-38.12 63.63l31.42 63.8c0.22 0.44 0.28 0.94 0.17 1.43l-18.39 83.52c3.73 8.75 42.26 101.75 30.62 177.63-0.16 1.08-1.09 1.85-2.15 1.85z"/>
		<path id="&lt;Path&gt;" class="s1" d="m923.96 420.49c-35.06 0-61.08-5.34-61.57-5.45-1.18-0.25-1.93-1.4-1.68-2.58 0.25-1.18 1.41-1.92 2.58-1.68 0.93 0.2 93.82 19.25 164.71-15.59 1.07-0.53 2.38-0.08 2.91 0.99 0.53 1.08 0.09 2.39-0.99 2.92-34.47 16.94-73.98 21.39-105.96 21.39z"/>
		<path id="&lt;Path&gt;" class="s1" d="m581.79 253.59c-0.9-1.72 0.1-3.82 1.28-5.36 4.89-6.37 13.49-9.66 21.38-8.18 2 0.37 4.02 1.07 5.41 2.56 1.39 1.48 1.93 3.89 0.8 5.58-1.23 1.83-3.74 2.13-5.93 2.48-4.23 0.68-8.28 2.2-12.33 3.6-2.19 0.76-4.46 1.5-6.78 1.35-1.51-0.09-3.14-0.68-3.83-2.03z"/>
		<path id="&lt;Path&gt;" class="s1" d="m623.09 345.98c-22.05 0-33.01-17.32-33.13-17.52-0.63-1.03-0.31-2.37 0.71-3 1.02-0.63 2.37-0.31 3 0.71 0.54 0.87 13.25 20.74 39.75 14.13 1.17-0.29 2.35 0.41 2.65 1.58 0.29 1.17-0.42 2.35-1.59 2.64-4.08 1.02-7.88 1.46-11.39 1.46z"/>
		<path id="&lt;Path&gt;" class="s1" d="m588.4 331.3c-0.69 0-1.37-0.33-1.8-0.94-0.68-0.99-0.43-2.35 0.56-3.03l7.96-5.5c0.98-0.69 2.34-0.44 3.03 0.55 0.68 0.99 0.43 2.34-0.55 3.03l-7.97 5.5q-0.58 0.39-1.23 0.39z"/>
		<path id="&lt;Path&gt;" class="s1" d="m504.49 326.74c-1.05 0-1.97-0.76-2.14-1.82-2.92-17.82-25.29-19.42-25.51-19.44-1.2-0.07-2.12-1.11-2.04-2.31 0.07-1.2 1.09-2.09 2.31-2.04 0.26 0.02 26.07 1.87 29.54 23.08 0.19 1.19-0.62 2.31-1.8 2.51q-0.18 0.02-0.36 0.02z"/>
		<path id="&lt;Path&gt;" class="s1" d="m487.23 319.53c-0.78 0-1.52-0.41-1.92-1.13-0.58-1.06-0.19-2.38 0.87-2.96l10.37-5.67c1.05-0.57 2.38-0.18 2.95 0.87 0.58 1.06 0.19 2.38-0.86 2.96l-10.37 5.66q-0.51 0.27-1.04 0.27z"/>
		<path id="&lt;Path&gt;" class="s1" d="m444.32 171.76c0 0-0.61-50.53-31.62-63.51-31.02-12.99-36.04 26.4-36.04 26.4 0 0-27.55-48.69-78.46-21.83-50.91 26.86 10.44 74.55 10.44 74.55 0 0-20.44 2.73-30.64 22.51-10.21 19.78 41.87 33.11 41.87 33.11 0 0-17.91 38.08 10.56 43.69 28.47 5.62 63.02-31.04 63.02-31.04z"/>
		<path id="&lt;Path&gt;" class="s1" d="m505.67 805.32c-1.07 0-2-0.79-2.15-1.88-0.17-1.19 0.66-2.29 1.86-2.46 59.71-8.27 103.67-70.22 104.11-70.84 0.69-0.99 2.05-1.23 3.03-0.54 0.99 0.69 1.23 2.05 0.54 3.03-0.45 0.64-45.51 64.14-107.09 72.67q-0.15 0.02-0.3 0.02z"/>
		<path id="&lt;Path&gt;" class="s1" d="m515.92 378.41c-0.45 0-0.9-0.14-1.29-0.43-5.77-4.22-6.2-12.54-3.67-18.23 2.52-5.66 7.39-9.72 12.28-13.27l1.3-0.95c2.99-2.15 5.82-4.18 8.08-6.77 6.88-7.87 6.94-20.73 0.13-28.66-1.52-1.78-3.35-3.36-5.28-5.02-3.72-3.21-7.56-6.53-9.23-11.47-2.22-6.56 0.73-14.42 6.72-17.9 1.04-0.61 2.37-0.26 2.98 0.78 0.6 1.04 0.25 2.38-0.79 2.98-4.19 2.44-6.34 8.15-4.78 12.75 1.29 3.81 4.52 6.6 7.95 9.56 1.97 1.7 4 3.46 5.74 5.48 8.16 9.51 8.08 24.93-0.16 34.36-2.59 2.97-5.75 5.25-8.81 7.45l-1.29 0.93c-4.4 3.19-8.75 6.8-10.86 11.53-1.86 4.18-1.53 10.17 2.26 12.94 0.97 0.71 1.19 2.07 0.48 3.04-0.43 0.59-1.09 0.9-1.76 0.9z"/>
		<path id="&lt;Path&gt;" class="s5" d="m990.01 223.58c-1.71-6.71-5.93-12.36-11.89-15.9l-9.61-5.71-61.21-36.37q-0.85 0.97-1.49 1.91c-14.11 14.11-3.04 37.49-10.61 51.23l56.43 33.53c2.02 1.2 4.18 2.12 6.43 2.73 11.2 3.06 23.17-1.79 29.11-11.78 3.54-5.95 4.55-12.93 2.84-19.64z"/>
		<path id="&lt;Compound Path&gt;" class="s1" d="m964.84 258.09q-0.01 0-0.01 0c-2.48 0-4.95-0.33-7.34-0.98-2.44-0.67-4.79-1.67-6.97-2.97l-58.24-34.6 1.01-1.85c2.94-5.32 2.8-12.54 2.65-20.18-0.21-10.61-0.44-22.63 8.18-31.39q0.61-0.88 1.52-1.94l1.2-1.39 72.4 43.02c6.45 3.83 11.03 9.95 12.88 17.23 1.85 7.28 0.76 14.84-3.08 21.3-5.04 8.48-14.32 13.75-24.2 13.75zm-66.8-40.2l54.7 32.51q2.79 1.65 5.9 2.5 3.04 0.83 6.19 0.83c8.36 0 16.21-4.45 20.47-11.62 3.24-5.45 4.16-11.84 2.6-18-1.57-6.14-5.44-11.31-10.89-14.56l-69.19-41.11q-0.1 0.15-0.19 0.28l-0.28 0.33c-7.46 7.46-7.25 18.1-7.05 28.38 0.14 7.43 0.28 14.49-2.26 20.46z"/>
		<path id="&lt;Path&gt;" class="s0" d="m905.81 167.51q0.64-0.94 1.49-1.91l-106.08-63.03c-0.47-0.27-1.02-0.35-1.55-0.22-0.52 0.13-0.97 0.47-1.25 0.94l-13.81 23.24-11.64 19.59 122.23 72.62c7.57-13.74-3.5-37.12 10.61-51.23z"/>
		<path id="&lt;Compound Path&gt;" class="s1" d="m895.2 220.92q-0.59 0-1.11-0.31l-122.23-72.62c-0.5-0.29-0.85-0.77-1-1.33-0.14-0.56-0.05-1.16 0.24-1.65l25.45-42.84c0.57-0.95 1.51-1.66 2.58-1.93 1.08-0.28 2.25-0.1 3.2 0.46l106.08 63.03c0.55 0.33 0.93 0.88 1.03 1.52 0.11 0.64-0.07 1.28-0.49 1.77q-0.84 0.97-1.32 1.7-0.12 0.18-0.28 0.33c-7.46 7.46-7.25 18.1-7.05 28.38 0.16 8.24 0.31 16.02-3.19 22.36-0.28 0.52-0.77 0.9-1.33 1.05q-0.29 0.08-0.58 0.08zm-119.24-75.56l118.29 70.28c1.94-5.06 1.82-11.43 1.69-18.13-0.2-10.58-0.44-22.55 8.1-31.31l-103.93-61.75z"/>
		<path id="&lt;Path&gt;" class="s0" d="m777.58 150.51l27.67-46.56c0.83-1.41 0.37-3.25-1.04-4.08l-3.16-1.88c-1.41-0.84-3.25-0.37-4.09 1.04l-27.66 46.56c-0.83 1.41-0.37 3.24 1.04 4.08l3.16 1.88c1.41 0.83 3.25 0.37 4.08-1.04z"/>
		<path id="&lt;Compound Path&gt;" class="s1" d="m775.01 154.14c-0.92 0-1.83-0.25-2.62-0.72l-3.16-1.88c-1.18-0.7-2.02-1.82-2.36-3.16-0.34-1.34-0.14-2.72 0.56-3.91l27.66-46.55c1.39-2.35 4.71-3.2 7.07-1.8l3.16 1.88c1.18 0.7 2.02 1.82 2.36 3.16 0.34 1.34 0.14 2.72-0.56 3.9l-27.66 46.56c-0.93 1.55-2.63 2.52-4.45 2.52zm24.52-54.39c-0.22 0-0.52 0.11-0.69 0.39l-27.67 46.56c-0.14 0.24-0.11 0.48-0.08 0.61 0.03 0.12 0.12 0.34 0.36 0.48l3.16 1.89q0.19 0.1 0.4 0.1c0.23 0 0.53-0.1 0.7-0.39l27.66-46.55c0.15-0.25 0.12-0.49 0.09-0.61-0.03-0.12-0.12-0.34-0.36-0.49l-3.16-1.88q-0.19-0.11-0.41-0.11z"/>
		<path id="&lt;Compound Path&gt;" class="s6" d="m772.46 153.3l-3.16-1.88c-2.38-1.41-3.17-4.5-1.75-6.88l27.66-46.55c1.38-2.32 4.55-3.14 6.88-1.75l3.16 1.87c1.15 0.69 1.96 1.78 2.3 3.08 0.33 1.3 0.13 2.65-0.55 3.8l-27.66 46.56c-1.15 1.93-3.47 2.87-5.64 2.28q-0.66-0.18-1.24-0.53zm26.26-53.23l-27.66 46.56c-0.26 0.44-0.11 1.02 0.32 1.28l3.16 1.88c0.46 0.27 1.04 0.1 1.29-0.32l27.66-46.56c0.17-0.29 0.14-0.57 0.1-0.71-0.04-0.14-0.14-0.41-0.43-0.58l-3.16-1.88q-0.1-0.06-0.22-0.09c-0.4-0.11-0.85 0.07-1.06 0.42z"/>
		<path id="&lt;Path&gt;" class="s3" d="m763.67 129.19c-2.52-1.5-3.35-4.76-1.85-7.29 1.5-2.52 4.76-3.35 7.29-1.85 2.52 1.5 3.35 4.76 1.85 7.29-1.5 2.52-4.76 3.35-7.29 1.85z"/>
		<path id="&lt;Path&gt;" class="s3" d="m756.87 108.87c-0.93-0.55-1.24-1.76-0.69-2.69 0.56-0.93 1.76-1.23 2.69-0.68 0.93 0.55 1.24 1.76 0.68 2.69-0.55 0.93-1.75 1.23-2.68 0.68z"/>
		<path id="&lt;Path&gt;" class="s1" d="m727.24 351.42l3.45-3.7 39.39 36.66 11.12-7.73-4.34-52.09 5.04-0.42 4.58 54.99-16.87 11.73z"/>
		<path id="&lt;Path&gt;" class="s2" d="m716.1 362.82c8.83 4.14 19.34 0.35 23.49-8.48 4.14-8.83 0.34-19.35-8.49-23.49-8.83-4.15-19.35-0.35-23.49 8.48-4.14 8.83-0.34 19.35 8.49 23.49z"/>
		<path id="&lt;Compound Path&gt;" class="s1" d="m723.59 366.68c-2.92 0-5.76-0.64-8.42-1.89-9.9-4.65-14.18-16.48-9.53-26.38 3.25-6.94 10.31-11.42 17.97-11.42 2.92 0 5.75 0.63 8.42 1.89 4.79 2.25 8.43 6.23 10.23 11.21 1.8 4.99 1.55 10.38-0.7 15.17-3.26 6.94-10.31 11.42-17.97 11.42zm0.02-35.33c-5.98 0-11.49 3.49-14.03 8.91-3.62 7.73-0.29 16.96 7.44 20.59q3.14 1.47 6.57 1.47c5.98 0 11.48-3.5 14.02-8.91 1.76-3.74 1.95-7.95 0.55-11.84-1.41-3.89-4.24-6.99-7.98-8.75q-3.14-1.47-6.57-1.47z"/>
		<path id="&lt;Path&gt;" class="s5" d="m772.35 404.66c8.83 4.14 19.35 0.34 23.49-8.49 4.15-8.83 0.35-19.35-8.48-23.49-8.83-4.14-19.35-0.34-23.49 8.49-4.15 8.83-0.35 19.34 8.48 23.49z"/>
		<path id="&lt;Compound Path&gt;" class="s1" d="m779.84 408.51q0 0 0 0c-2.92 0-5.75-0.63-8.41-1.88-9.91-4.65-14.18-16.49-9.53-26.39 3.25-6.93 10.3-11.41 17.97-11.41 2.92 0 5.75 0.63 8.41 1.88 4.8 2.25 8.43 6.23 10.23 11.22 1.8 4.98 1.55 10.37-0.7 15.16-3.25 6.94-10.3 11.42-17.97 11.42zm0.03-35.33c-5.99 0-11.49 3.5-14.03 8.91-3.63 7.73-0.29 16.97 7.44 20.59 2.08 0.98 4.29 1.47 6.56 1.47 5.98 0.01 11.49-3.49 14.03-8.91 1.76-3.74 1.95-7.94 0.55-11.83-1.41-3.89-4.25-7-7.99-8.76q-3.13-1.46-6.56-1.47z"/>
		<path id="&lt;Path&gt;" class="s4" d="m770.31 329.52c8.83 4.15 19.34 0.35 23.49-8.48 4.14-8.83 0.34-19.35-8.49-23.49-8.83-4.14-19.34-0.35-23.49 8.48-4.14 8.83-0.34 19.35 8.49 23.49z"/>
		<path id="&lt;Compound Path&gt;" class="s1" d="m777.8 333.38c-2.92 0-5.75-0.64-8.42-1.88-4.79-2.25-8.43-6.24-10.23-11.22-1.8-4.99-1.55-10.37 0.7-15.17 3.26-6.94 10.31-11.42 17.97-11.42 2.92 0 5.75 0.64 8.42 1.89 4.8 2.25 8.43 6.23 10.23 11.22 1.8 4.98 1.55 10.37-0.7 15.16-3.25 6.94-10.31 11.42-17.97 11.42zm0.02-35.33c-5.98 0-11.49 3.5-14.02 8.91-1.76 3.74-1.95 7.95-0.55 11.84 1.41 3.88 4.24 6.99 7.98 8.75q3.14 1.47 6.57 1.47c5.98 0 11.49-3.5 14.03-8.91 1.75-3.74 1.95-7.94 0.54-11.83-1.4-3.89-4.24-7-7.98-8.76q-3.14-1.47-6.57-1.47z"/>
		<path id="&lt;Path&gt;" class="s1" d="m262.76 426.22l-4.49-4.65 49.41-47.8-9.12-14.7-66.74 2.04-0.19-6.46 70.46-2.15 13.83 22.3z"/>
		<path id="&lt;Path&gt;" class="s2" d="m276.57 441.2c5.87-10.99 1.73-24.66-9.25-30.54-10.99-5.88-24.66-1.73-30.54 9.25-5.88 10.99-1.73 24.66 9.25 30.54 10.99 5.87 24.66 1.73 30.54-9.25z"/>
		<path id="&lt;Compound Path&gt;" class="s1" d="m256.65 455.3c-4.04 0-8.06-1.02-11.64-2.93-12.03-6.44-16.58-21.46-10.15-33.49 4.32-8.06 12.68-13.07 21.83-13.07 4.04 0 8.07 1.01 11.65 2.93 12.03 6.43 16.58 21.46 10.15 33.48-4.32 8.07-12.68 13.08-21.84 13.08zm0.04-45.13c-7.54 0-14.43 4.13-17.99 10.77-5.3 9.91-1.55 22.29 8.36 27.59 2.95 1.58 6.27 2.41 9.59 2.41 7.55 0 14.44-4.13 18-10.77 5.3-9.91 1.55-22.29-8.36-27.59-2.95-1.58-6.27-2.41-9.6-2.41z"/>
		<path id="&lt;Path&gt;" class="s5" d="m333.7 372.23c5.88-10.99 1.74-24.66-9.25-30.54-10.98-5.87-24.66-1.73-30.53 9.26-5.88 10.98-1.74 24.65 9.25 30.53 10.99 5.88 24.66 1.74 30.53-9.25z"/>
		<path id="&lt;Compound Path&gt;" class="s1" d="m313.79 386.33q0 0 0 0c-4.04 0-8.07-1.01-11.65-2.93-5.83-3.12-10.09-8.31-12.01-14.64-1.91-6.32-1.25-13.01 1.87-18.84 4.31-8.07 12.68-13.08 21.83-13.08 4.04 0 8.07 1.02 11.65 2.93 12.03 6.44 16.58 21.46 10.14 33.49-4.31 8.06-12.67 13.07-21.83 13.07zm0.04-45.13c-7.54 0-14.44 4.13-17.99 10.77-2.57 4.8-3.11 10.32-1.54 15.53 1.58 5.21 5.1 9.49 9.9 12.06 2.95 1.58 6.27 2.41 9.59 2.41 7.54 0 14.44-4.12 17.99-10.77 5.3-9.91 1.55-22.28-8.36-27.58-2.95-1.58-6.27-2.42-9.59-2.42z"/>
		<path id="&lt;Path&gt;" class="s4" d="m237.72 369.81c5.88-10.99 1.73-24.66-9.25-30.54-10.99-5.88-24.66-1.73-30.54 9.25-5.87 10.99-1.73 24.66 9.25 30.54 10.99 5.87 24.66 1.73 30.54-9.25z"/>
		<path id="&lt;Compound Path&gt;" class="s1" d="m217.81 383.91c-4.04 0-8.07-1.02-11.65-2.93-12.03-6.44-16.58-21.46-10.15-33.49 4.32-8.06 12.68-13.07 21.83-13.07 4.04 0 8.07 1.01 11.65 2.93 5.83 3.12 10.1 8.32 12.01 14.64 1.92 6.33 1.26 13.02-1.86 18.84-4.31 8.07-12.68 13.08-21.83 13.08zm0.03-45.13c-7.54 0-14.43 4.13-17.99 10.77-5.3 9.91-1.55 22.28 8.36 27.59 2.95 1.58 6.27 2.41 9.6 2.41 7.54 0 14.43-4.13 17.99-10.77 2.57-4.8 3.11-10.32 1.53-15.53-1.58-5.21-5.09-9.49-9.89-12.06-2.95-1.58-6.27-2.41-9.6-2.41z"/>
		<path id="&lt;Path&gt;" class="s0" d="m208.4 769.29c-11.21-4.74-18.13-16.13-18.06-28.29l0.78-135.08 1.69 0.01c3.17 0.02 5.77-2.55 5.79-5.72 0.02-3.16-2.55-5.77-5.72-5.79l-62.29-0.36c-3.16-0.02-5.77 2.56-5.79 5.72-0.02 3.17 2.56 5.77 5.72 5.79l2.37 0.02-0.78 135.18c-0.07 12.26-7.33 23.39-18.62 28.15-45.29 19.11-77.32 64.87-76.3 116.26 0.62 30.85 12.6 58.93 31.94 80.22 11.58 12.76 28.17 19.83 45.4 19.93l90.53 0.53c17.36 0.1 34.11-6.92 45.89-19.67 20.12-21.77 32.49-50.81 32.68-82.79 0.29-51.27-30.8-95.3-75.23-114.11z"/>
		<path id="&lt;Compound Path&gt;" class="s1" d="m205.42 988.04h-0.38l-90.52-0.53c-18.06-0.1-35.19-7.63-47.01-20.64-20.35-22.42-31.89-51.41-32.5-81.64-1-50.75 30.19-98.3 77.64-118.31 10.43-4.4 17.21-14.67 17.28-26.16l0.77-133.01h-0.19c-2.11-0.01-4.1-0.85-5.59-2.36-1.49-1.51-2.31-3.51-2.3-5.62 0.03-4.35 3.59-7.89 7.93-7.89l62.34 0.37c2.12 0.01 4.1 0.84 5.59 2.36 1.5 1.51 2.31 3.5 2.3 5.61-0.02 4.21-3.35 7.65-7.49 7.88l-0.78 132.91c-0.06 11.63 6.51 21.95 16.74 26.28 46.8 19.8 76.85 65.38 76.55 116.12-0.18 31.32-11.99 61.24-33.25 84.26-11.96 12.94-29.14 20.37-47.13 20.37zm-74.84-391.8c-1.99 0-3.59 1.6-3.6 3.55-0.01 0.95 0.36 1.85 1.04 2.54 0.67 0.68 1.57 1.06 2.52 1.06l2.37 0.02c1.2 0.01 2.17 0.99 2.16 2.19l-0.78 135.19c-0.08 13.23-7.91 25.06-19.95 30.14-45.82 19.33-75.94 65.22-74.97 114.21 0.58 29.18 11.72 57.16 31.37 78.8 11 12.11 26.96 19.11 43.8 19.21l90.88 0.53c16.78 0 32.79-6.91 43.93-18.97 20.52-22.21 31.92-51.09 32.1-81.33 0.28-48.97-28.72-92.96-73.9-112.08-11.86-5.02-19.47-16.92-19.39-30.32l0.78-135.07c0.01-0.58 0.24-1.13 0.65-1.53 0.41-0.41 0.96-0.63 1.53-0.63q0.01 0 0.02 0l1.69 0.01c1.98 0 3.58-1.6 3.59-3.56 0.01-0.95-0.36-1.85-1.03-2.53-0.68-0.69-1.57-1.06-2.52-1.07z"/>
		<path id="&lt;Path&gt;" class="s3" d="m176.57 609.58c3.25 0.02 5.89 2.69 5.87 5.93l-0.78 133.58c-0.01 3.25-2.69 5.89-5.93 5.87-3.25-0.02-5.89-2.69-5.87-5.94l0.78-133.57c0.01-3.25 2.69-5.89 5.93-5.87z"/>
		<path id="&lt;Path&gt;" class="s2" d="m262.78 876.76q0.88 6.69 0.85 13.63c-0.16 26.36-10.43 50.3-27.14 68.25-9.79 10.51-23.71 16.29-38.13 16.21l-75.21-0.44c-14.31-0.08-28.09-5.91-37.71-16.42-16.07-17.56-26.03-40.7-26.54-66.14-0.11-5.52 0.3-10.95 1.09-16.27z"/>
		<path id="&lt;Compound Path&gt;" class="s1" d="m198.66 977.03h-0.31l-75.21-0.44c-15.1-0.09-29.43-6.33-39.31-17.13-16.98-18.55-26.61-42.55-27.11-67.56-0.11-5.35 0.27-10.95 1.12-16.64 0.16-1.07 1.07-1.86 2.15-1.86q0.01 0 0.02 0l202.79 1.18c1.09 0.01 2 0.82 2.15 1.9 0.59 4.59 0.88 9.27 0.86 13.92-0.15 25.92-10 50.68-27.73 69.72-10 10.75-24.37 16.91-39.42 16.91zm-136.77-99.26c-0.63 4.81-0.91 9.52-0.81 14.04 0.48 23.96 9.7 46.94 25.96 64.71 9.07 9.91 22.23 15.63 36.12 15.71l75.5 0.44c13.84 0 27.05-5.66 36.23-15.52 16.98-18.24 26.41-41.95 26.56-66.78 0.02-3.81-0.18-7.65-0.6-11.44z"/>
		<path id="&lt;Path&gt;" class="s3" d="m216.85 862.06c-18.26 0-33.01-14.75-33.01-33 0-18.25 14.75-33.01 33.01-33.01 18.25 0 33 14.76 33 33.01 0 18.25-14.75 33-33 33z"/>
		<path id="&lt;Path&gt;" class="s3" d="m250.57 878.1c-6.87 0-12.42-5.55-12.42-12.42 0-6.87 5.55-12.43 12.42-12.43 6.87 0 12.43 5.56 12.43 12.43 0 6.87-5.56 12.42-12.43 12.42z"/>
		<path id="&lt;Path&gt;" class="s0" d="m949.18 819.1v-143.39h-51.16v143.39l-79.75 139.57c-6.31 11.05 1.67 24.79 14.39 24.79h181.88c12.72 0 20.7-13.74 14.39-24.79z"/>
		<path id="&lt;Compound Path&gt;" class="s1" d="m1014.54 985.64h-181.88c-6.76 0-12.82-3.49-16.21-9.34-3.4-5.85-3.42-12.84-0.07-18.71l79.47-139.06v-142.82c0-1.2 0.97-2.18 2.17-2.18h51.16c1.2 0 2.18 0.98 2.18 2.18v142.82l79.46 139.06c3.35 5.87 3.33 12.86-0.06 18.71-3.4 5.85-9.46 9.34-16.22 9.34zm-114.34-307.75v141.22q0 0.57-0.28 1.08l-79.76 139.56c-2.57 4.51-2.55 9.88 0.05 14.37 2.61 4.48 7.26 7.16 12.45 7.16h181.88c5.19 0 9.84-2.68 12.45-7.16 2.6-4.5 2.62-9.86 0.05-14.37l-79.75-139.56q-0.29-0.51-0.29-1.08v-141.22z"/>
		<path id="&lt;Path&gt;" class="s1" d="m962.8 861.69h-79.23l-52.51 91.88c-5.52 9.66 1.46 21.69 12.59 21.69h159.06c11.13 0 18.11-12.03 12.59-21.69z"/>
		<path id="&lt;Path&gt;" class="s0" d="m951.58 681.58h-55.23c-2.36 0-4.3-1.94-4.3-4.31v-2.71c0-2.36 1.94-4.3 4.3-4.3h55.23c2.37 0 4.3 1.94 4.3 4.3v2.71c0 2.37-1.93 4.31-4.3 4.31z"/>
		<path id="&lt;Compound Path&gt;" class="s1" d="m952.23 683.76h-56.53c-3.21 0-5.83-2.62-5.83-5.83v-4.02c0-3.21 2.62-5.83 5.83-5.83h56.53c3.22 0 5.83 2.62 5.83 5.83v4.02c0 3.21-2.61 5.83-5.83 5.83zm-56.53-11.32c-0.81 0-1.47 0.66-1.47 1.47v4.02c0 0.8 0.67 1.47 1.47 1.47h56.53c0.8 0 1.48-0.67 1.48-1.47v-4.02c0-0.81-0.67-1.47-1.48-1.47z"/>
		<path id="&lt;Path&gt;" class="s3" d="m928.82 933.94c-2.09 0-3.78-1.69-3.78-3.78 0-2.08 1.69-3.77 3.78-3.77 2.08 0 3.77 1.69 3.77 3.77 0 2.09-1.69 3.78-3.77 3.78z"/>
		<path id="&lt;Path&gt;" class="s3" d="m901.45 910.35c-8.35 0-15.1-6.75-15.1-15.1 0-8.35 6.75-15.09 15.1-15.09 8.35 0 15.1 6.74 15.1 15.09 0 8.35-6.75 15.1-15.1 15.1z"/>
		<path id="&lt;Path&gt;" class="s3" d="m652.47 955.99c0-1.11-0.91-2.02-2.02-2.02-1.12 0-2.02 0.91-2.02 2.02 0 1.12 0.9 2.03 2.02 2.03 1.11 0 2.02-0.91 2.02-2.03z"/>
		<path id="&lt;Path&gt;" class="s3" d="m894.38 961.3c-4.44 0-8.03-3.58-8.03-8.02 0-4.43 3.59-8.02 8.03-8.02 4.43 0 8.02 3.59 8.02 8.02 0 4.44-3.59 8.02-8.02 8.02z"/>
		<path id="&lt;Path&gt;" class="s1" d="m654.41 856.05c0-1.87-1.51-3.39-3.38-3.39-1.87 0-3.39 1.52-3.39 3.39 0 1.87 1.52 3.38 3.39 3.38 1.87 0 3.38-1.51 3.38-3.38z"/>
		<path id="&lt;Path&gt;" class="s1" d="m914.64 601.17c-4.05 0-7.32-3.27-7.32-7.32 0-4.05 3.27-7.32 7.32-7.32 4.05 0 7.32 3.27 7.32 7.32 0 4.05-3.27 7.32-7.32 7.32z"/>
		<path id="&lt;Path&gt;" class="s1" d="m912.81 656.95c-8.6 0-15.55-6.95-15.55-15.55 0-8.59 6.95-15.54 15.55-15.54 8.6 0 15.55 6.95 15.55 15.54 0 8.6-6.95 15.55-15.55 15.55z"/>
	</g>
</svg>